<?xml version="1.0" encoding="utf-8"?>
<!-- Generator: Adobe Illustrator 22.1.0, SVG Export Plug-In . SVG Version: 6.00 Build 0)  -->
<svg version="1.1" id="Layer_1" xmlns="http://www.w3.org/2000/svg" xmlns:xlink="http://www.w3.org/1999/xlink" x="0px" y="0px"
	 viewBox="0 0 680 421.2" style="enable-background:new 0 0 680 421.2;" xml:space="preserve">
<style type="text/css">
	.st0{fill:#FE4848;}
	.st1{fill:#B33333;}
	.st2{fill:#B93535;}
	.st3{fill:#9A2D2C;}
	.st4{fill:#F94747;}
	.st5{fill:#962C2B;}
	.st6{fill:#D63D3D;}
	.st7{fill:#EA4242;}
	.st8{fill:#DB3E3E;}
	.st9{fill:#E54141;}
	.st10{fill:#A02E2E;}
	.st11{fill:#F54646;}
	.st12{fill:#E04040;}
	.st13{fill:#099E02;}
	.st14{fill:#000100;}
	.st15{fill:#099F02;}
	.st16{fill:#010201;}
	.st17{fill:#D03B3B;}
	.st18{fill:#069100;}
	.st19{fill:#C53838;}
	.st20{fill:#CA3A3A;}
	.st21{fill:#079100;}
	.st22{fill:#030403;}
	.st23{fill:#EE4444;}
	.st24{fill:#A63030;}
	.st25{fill:#B33433;}
	.st26{fill:#F24545;}
	.st27{fill:#000200;}
	.st28{fill:#AD3232;}
	.st29{fill:#BF3737;}
	.st30{fill:#010101;}
	.st31{fill:#096D04;}
	.st32{fill:#9A2D2D;}
	.st33{fill:#B83535;}
	.st34{fill:#055F00;}
	.st35{fill:#030503;}
	.st36{fill:#0A9104;}
	.st37{fill:#020202;}
	.st38{fill:#BB3636;}
	.st39{fill:#AA3131;}
	.st40{fill:#020402;}
	.st41{fill:#0A9803;}
	.st42{fill:#068600;}
	.st43{fill:#972C2C;}
	.st44{fill:#0A9804;}
	.st45{fill:#068500;}
	.st46{fill:#066F01;}
	.st47{fill:#0B9804;}
	.st48{fill:#086C04;}
	.st49{fill:#069000;}
	.st50{fill:#079700;}
	.st51{fill:#056000;}
	.st52{fill:#068E00;}
	.st53{fill:#068700;}
	.st54{fill:#068800;}
	.st55{fill:#057800;}
	.st56{fill:#109A09;}
	.st57{fill:#067801;}
	.st58{fill:#0A0A0A;}
	.st59{fill:#0C9805;}
	.st60{fill:#068000;}
	.st61{fill:#0B9704;}
	.st62{fill:#0D9906;}
	.st63{fill:#3E953B;}
	.st64{fill:#452424;}
	.st65{fill:#035A00;}
	.st66{fill:#783C3C;}
	.st67{fill:#FD4848;}
	.st68{fill:#A12E2E;}
	.st69{fill:#DA3E3E;}
	.st70{fill:#CB3A3A;}
	.st71{fill:#D13B3B;}
	.st72{fill:#DE403F;}
	.st73{fill:#FA4747;}
	.st74{fill:#F64646;}
	.st75{fill:#9E2E2D;}
	.st76{fill:#F94746;}
	.st77{fill:#B13333;}
	.st78{fill:#ED4343;}
	.st79{fill:#E94242;}
	.st80{fill:#B43434;}
	.st81{fill:#F54545;}
	.st82{fill:#BC3636;}
	.st83{fill:#952B2B;}
	.st84{fill:#9E2E2E;}
	.st85{fill:#D13C3B;}
	.st86{fill:#A12F2E;}
	.st87{fill:#C63838;}
	.st88{fill:#9B2D2D;}
	.st89{fill:#C03737;}
	.st90{fill:#AE3232;}
	.st91{fill:#D83E3E;}
	.st92{fill:#E44141;}
	.st93{fill:#D53D3D;}
	.st94{fill:#D23C3C;}
	.st95{fill:#CF3B3B;}
	.st96{fill:#DA3F3F;}
	.st97{fill:#C33838;}
	.st98{fill:#020101;}
	.st99{fill:#030202;}
	.st100{fill:#952727;}
	.st101{fill:#EA4342;}
	.st102{fill:#BE3636;}
	.st103{fill:#C73939;}
	.st104{fill:#1D1B1B;}
	.st105{fill:#541313;}
	.st106{fill:#452F2F;}
	.st107{fill:#9D3838;}
	.st108{fill:#010000;}
	.st109{fill:#EE6A6A;}
	.st110{fill:#EE7777;}
	.st111{fill:#030101;}
	.st112{fill:#A93130;}
	.st113{fill:#B98E8E;}
	.st114{fill:#056101;}
	.st115{fill:#0A6E05;}
	.st116{fill:#060606;}
	.st117{fill:#089801;}
	.st118{fill:#067C00;}
	.st119{fill:#077502;}
	.st120{fill:#155E12;}
	.st121{fill:#0C6A08;}
	.st122{fill:#056400;}
	.st123{fill:#000400;}
	.st124{fill:#056C00;}
	.st125{fill:#057700;}
	.st126{fill:#0D6608;}
	.st127{fill:#086C03;}
	.st128{fill:#066101;}
	.st129{fill:#0D6609;}
	.st130{fill:#BF3838;}
	.st131{fill:#BF3736;}
	.st132{fill:#A42F2F;}
	.st133{fill:#C43838;}
	.st134{fill:#9B2D2C;}
	.st135{fill:#942B2B;}
	.st136{fill:#B23333;}
	.st137{fill:#B53434;}
	.st138{fill:#EE4343;}
	.st139{fill:#7F2121;}
	.st140{fill:#932B2A;}
	.st141{fill:#8E2929;}
	.st142{fill:#461010;}
	.st143{fill:#056B00;}
	.st144{fill:#057400;}
	.st145{fill:#067601;}
	.st146{fill:#067E00;}
	.st147{fill:#067D00;}
	.st148{fill:#0F7C09;}
	.st149{fill:#030603;}
	.st150{fill:#057000;}
	.st151{fill:#057300;}
	.st152{fill:#057500;}
	.st153{fill:#056D00;}
	.st154{fill:#290808;}
	.st155{fill:#521212;}
	.st156{fill:#8A2525;}
	.st157{fill:#056F00;}
	.st158{fill:#307A2D;}
	.st159{fill:#067F00;}
	.st160{fill:#EA5A5A;}
	.st161{fill:#040404;}
</style>
<path class="st0" d="M354,0c2.7,3.6,6.4,3.9,10.7,4.7c6.1,1.1,12.3,3.2,17.6,7c4.1,2.9,6.5,7,8,11.7c0.5,1.6,1.1,3.1,1.7,4.7
	c1.1,1.7,1.8,3.6,1.9,5.6c1.1,15.1-1,29.2-12.5,40.4c-3.1,3-6.2,6.1-9.1,9.2c-1.3,1.3-2.5,2.7-4.5,2.8c-19.6-1-39.2-0.2-58.8-0.5
	c-2.8,0-5.7,0.6-8.1-1.6c1.7-10.6,4.8-20.9,7.4-31.3c0.6-2.4,1.1-4.8,1.7-7.3c-4-1.3-7.8,0.1-11.5-1c1.1-2.3,3.4-1.7,5.2-1.8
	c5.4-0.1,5.5-0.8,6.6-9.2c0.6-4.9-3.3-3.8-6-4.4c-0.3-0.1-0.6-0.1-1-0.2c-5.4-1.1-11-1.2-16.4-1.9c-3.1-1.1-3.8-3.3-3.3-6.3
	c0.3-1.8,0.7-3.8,0.2-5.4c-0.9-2.8,0.6-3.8,2.7-4.1c9.6-1.1,18.3-5.5,27.7-7.5c5.5-1.2,11-2.2,16.6-2.9c0.6-0.4,1.3-0.3,1.9-0.3
	c0.9,0,1.8,0,2.7,0c0.8-0.1,1.7,0.2,2.4-0.5C343.3,0,348.7,0,354,0z"/>
<path class="st0" d="M180.1,83c-2.9-8.1,0.9-14.7,4.2-21.7c7.4-15.6,14.5-31.4,21.5-47.2C208.6,7.9,212.4,2.7,219,0c1.7,0,3.3,0,5,0
	c1,2.9,1.9,5.4,5.5,6.7c2.7,1,4,4.6,5.3,7.5c1.3,2.8,2.2,5.8,3.3,8.7c3.5,4,2.9,9,3.7,13.7c2.9,15.4,1.1,30.4-4.2,45.1
	c-0.8,1.3-2,2.4-3.5,2.4c-8.3,0.3-16.6,1.4-24.9-0.7c-2.8-3.6-1.2-7.6-1-11.5c-2,2.7-3.1,5.8-4.7,8.7c-1,1.9-1.9,4-4.6,4.1
	c-4.4-0.3-8.9-0.2-13.3-0.3C183.7,84.4,181.7,84.5,180.1,83z"/>
<path d="M665,187.1c6.1-0.7,11.5,0.2,15,5.9c0,1.7,0,3.3,0,5c-3.7,6.1-9.1,10.9-13.4,16.6c-2.3,3.1-4.4,6.2-5.2,10.1
	c-0.3,1.7-1.3,3-2.3,4.4c-7.8,11.2-15.4,22.5-23.4,33.6c-2.7,3.7-3.4,6.9-2.3,11.4c3.9,16.5,7.2,33.1,10.9,49.6
	c1.1,5,0.9,9.1-3.8,12.2c-1.1,0.7-2,1.6-2.3,3.5c-0.7,5.1-9.1,9.9-13.9,8.3c-1.6-0.5-2.4-1.7-3-3.1c-1.9-4.3-3.7-8.5-5.6-12.8
	c0-0.2,0-0.4,0.1-0.5c7.2-2.9,10.6-9.5,14.8-15.2c3.2-3.1,2.1-6.8,1.3-10.4c-0.8-4.2-1.9-8.4-2.8-12.6c-0.5-3-1.1-6-2-8.9
	c-0.4-1.7-0.5-3.5-1-5.1c-0.7-2.9-1.2-5.8-1.9-8.6c-0.4-1.6-0.7-3.3-1.1-4.9c-0.1-0.5-0.2-0.9-0.2-1.4c-0.1-1.1-0.3-2.3-0.7-3.4
	c-0.4-1.6-0.5-3.2-1-4.7c-0.4-2.1-1.1-4.2-0.2-6.3c1.4-2.9,3.7-5.3,5.4-8c1.7-2.4,3.3-4.8,4.9-7.3c2.5-3.5,5.1-7,7.4-10.7
	c0.2-0.4,0.5-0.8,0.8-1.1c0.4-0.5,0.8-1.1,1.2-1.6c1.2-1.8,2.6-3.5,3.8-5.4c1.3-1.8,2.6-3.6,3.6-5.5c2.1-3.9,2.6-8.6,5.7-12
	c0.3-0.4,0.5-0.7,0.8-1.1c0.3-0.4,0.6-0.7,0.9-1.1c1.9-2.9,4.6-5.1,6.6-7.8c0.3-0.3,0.6-0.6,1-0.9c0.4-0.2,0.8-0.4,1.3-0.4
	C664.5,187.1,664.8,187.1,665,187.1z"/>
<path class="st1" d="M5,273.1c-1.9-2.1-2.7-4.6-3.1-7.4c-0.2-1.6-0.1-3.6-1.8-4.7c0-0.7,0-1.3,0-2c2.1-1.8,4.6-1.4,7.1-1.5
	c8.7-0.3,17.5,0.7,26.1-0.8c3.8,2.8,5.4,6.7,6,11.2c-0.1,3.9-2.8,4.5-5.8,4.6c-6,0.1-12,0.1-18,0C11.9,272.5,8.5,272.8,5,273.1z"/>
<path class="st2" d="M33.9,257c-1.2,1.9-3.1,2-5.2,2c-9.6-0.1-19.2,0-28.8,0c0-2,0-4,0-6c1.1-1.2,0-2.9,0.9-4.1
	c0-0.3,0.1-0.6,0.3-0.9c1.6-1.5,3.6-1.5,5.5-1.5c8.4,0,16.7-0.1,25.1,0C35.7,249.5,36.2,252.2,33.9,257z"/>
<path d="M446.7,203.1c4.6,4,9.3,8.1,14.1,12.2c-4.3,4.6-6.1,10.3-7,16.4c-0.7,1.3,0.1,2.6-0.1,3.9c-0.1,0.6-0.3,1.3-0.4,1.9
	c-0.1,0.7-0.1,1.3-0.2,2c0,0.9-0.2,1.8-0.4,2.7c-0.6,1.8-0.5,3.7-0.9,5.6c-0.2,0.9-0.5,1.9-0.5,2.9c-0.2,2.3-0.1,4.7-2.1,6.4
	c-4.6,18-9.1,36.1-13.7,54.1c-1.1,4.4-1.2,8.9-1.6,13.3c-0.9,12.3-6.9,18.3-19.1,19.4c-6.7,0.6-13.3-0.6-19.9-1.3
	c-6.8-0.6-13.5-1.3-20.3-2.1c-2-0.2-3.7,0.1-4.6,2c-1.5,3.5-3.9,2.4-6.2,1.2c-3.4-1.8-5.9-4.8-8.5-7.7c-6.4,4.4-13.9,4.1-21.1,4.9
	c-15.2,1.7-30.4,3.2-45.7,4.7c-2.8,0.3-5.7,0.6-8.5,0.4c-9.3-0.4-14.5-8.3-11.1-16.9c1.4-1.6,3.3-1.4,5.1-1.6
	c14.1-1.5,28.2-2.8,42.2-4.5c5.8-0.7,11.6-0.6,17.4-1.6c1-0.3,2-0.4,3-0.5c0.8-0.1,1.7-0.1,2.5-0.3c0.4-0.1,0.7-0.3,1.1-0.4
	c0.5-0.3,1-0.6,1.5-0.9c0.5-0.4,1-0.7,1.7-0.8c0.7-0.1,1.3,0,1.9,0.3c2,1.4,3.6,3.3,4.9,5.4c0.2,0.3,0.4,0.7,0.6,1.1
	c0.7,1.4,2,1.1,3.2,1c0.3,0,0.8,0.1,1-0.1c8.5-6.5,17.7-2.5,26.7-2c6.9,0.4,13.8,2,20.8,1.4c7.2-0.6,13.9-2.2,17.2-9.7
	c1-2.6,2.1-5.2,1.9-8.1c0-1.6,0-3.2,0.3-4.7c0.7-2.6,0.7-5.2,1.2-7.8c1-3.7,2-7.4,2.8-11.2c0.5-1.7,0.9-3.4,1.3-5.1
	c1-3.5,1.9-7.1,2.7-10.6c0.8-2.6,1.4-5.3,2.1-8c0.1-0.4,0.2-0.8,0.4-1.2c0.3-0.8,0.6-1.5,0.8-2.4c0.1-0.4,0.2-0.8,0.4-1.2
	c0.3-1,0.5-2,0.7-3c0.3-1.2,0.7-2.4,0.9-3.6c0.4-1.4,0.8-2.9,1-4.3c0.1-0.4,0.2-0.9,0.4-1.3c0.3-1.1,0.5-2.2,0.7-3.3
	c0.5-2.1,0.5-4.3,1-6.5c0.6-3.6,1-7.1,1.6-10.7c1-4.6,1.6-9.2,3-13.7c0.8-2.1,1.3-4.3,2.7-6.1C445.8,202.9,446.3,202.8,446.7,203.1z
	"/>
<path d="M139,314c-13.2,12-28.1,21.2-45,27c-9.7,3.3-19.4,2.3-28.8-1.3c-15.3-5.9-28.3-15.3-39.5-27.2c-2.4-2.6-3.6-6.2-5.4-9.4
	c0.1-0.5,0.3-0.8,0.6-1.2c0.2,0,0.4-0.1,0.7-0.1c2.1,0.4,3.2,2.3,4.8,3.5c0.5,0.4,1.1,0.8,1.7,1.1c0.4,0.2,0.8,0.5,1.1,0.8
	c6.4,5,13.2,9.3,20.8,12.4c13.7,6.5,27.5,6.7,41.2,0c8.3-2.6,15-8.2,22.3-12.5c0.4-0.3,0.7-0.5,1.1-0.8c0.5-0.4,1.1-0.8,1.7-1.2
	c3.4-2.3,7-4.4,9.7-7.6c1.5-2.2,3.6-3.9,5.3-6c1.5-1.9,2.7-4,4.1-6c1.5-2.2,3-4.5,4.1-7c1.3-2.6,2.1-5.3,2.8-8.1
	c1.1-5.8,3.2-11.5,1.8-17.6c-0.3-2.2-0.7-4.5,1.3-6.2c2-0.9,3.7-0.2,5.5,0.6c1.1,0.7,1.9,1.7,2,3c0.1,1.1-0.8,1.8-0.8,2.8
	c0.2,0.3,0.4,0.6,0.7,0.8c0.4,0.5,0.7,1,0.8,1.6c0,0.4,0,0.8-0.1,1.3c-0.6,2.1-1.1,4.3-1.6,6.4c-0.7,2-1.3,3.9-1.9,5.9
	c-1.1,2.8-1.9,5.7-2.9,8.5c-0.7,1.8-1.4,3.6-1.1,5.6c0.1,0.8,0.4,1.6,0.7,2.4c0.2,0.4,0.4,0.8,0.6,1.2c0.7,1.5,0.9,3,0.5,4.6
	c-0.8,3.4-2,6.7-2.7,10c-0.3,0.9-0.6,1.7-0.8,2.6c-0.1,0.4-0.3,0.9-0.4,1.3c-0.7,2.1-1,4.4-2,6.5C141.2,313,140,313.3,139,314z"/>
<path d="M202.9,248c0.1,1.5,1.3,1.8,2.4,2c2.3,0.4,4.6,0.9,6.9,0.9c6.7,0,13,0.6,17.3,6.7c0.7,1,2.1,1.4,4.1,2.7
	c-5.1,2-9.8,3.2-14.5,3.8c-5.7,0.8-11.6,1.1-17.4,1c-4.5,0-6.6,1.9-7.9,6c-3.8,12-7.7,24-11.7,36c-0.4,1.3-0.6,2.8-1.4,3.7
	c-6.5,7.3-8.8,16.7-12.7,25.2c-1.2,2.7-2.4,5.5-4.5,7.7c-1.4-0.6-0.1-2.7-1.9-3.1c-2.1,0.6-3.4,2.4-4.6,4.1c-1.6,2.4-3.5,2-5.6,1.2
	c-2.5-0.9-2.4-2.8-2.1-4.9c0.6-4.5,1.4-8.9,2.8-13.2c1.3-4.7,4-8.8,5.7-13.3c1.2-3.2,2.8-6.3,4-9.5c1.2-3,2.8-5.8,4.7-8.4
	c0.3-0.4,0.5-0.7,0.8-1c0.3-0.3,0.6-0.7,0.8-1c0.1-0.2,0.2-0.3,0.4-0.5c0.2-0.4,0.4-0.8,0.6-1.2c1.1-2.7,1.9-5.5,2.8-8.2
	c0.7-2,1.3-4,2-6c0.8-2.2,1.5-4.5,2-6.8c0.9-3,2-6,2.9-9c0.8-2.1,1.5-4.2,2.1-6.4c1.3-4.3,3.1-8.2,8-9.5
	C193.7,246.7,198.5,245.4,202.9,248z"/>
<path d="M236.8,81c6.6-19.2,5.7-38.6,1.4-58.1c2.7-0.2,3.7,1.8,4.9,3.5c4.8,7.1,6.6,15.2,7.8,23.4c0.9,5.9,1.4,11.9,2,17.8
	c0.8,7.6-1.7,14.8-3.2,22.1c-3,14.6-6.6,29.1-9.3,43.8c-1.5,8.1-1,16.5-2.4,24.7c-1,6.1-1.7,12.2-4.8,17.6c-0.9,1.1-2.2,1.6-3.5,1.6
	c-6.6-0.3-13.4,1.8-19.7-1.5c0.1-2.4,0.1-4.8,0.2-7.1c0.4-1.1,1.3-1.8,2.2-1.7c5.6,0.3,7.4-3.2,8.4-7.9c0.6-2.8,2.4-5.1,3.1-7.9
	c0.9-3.9,1.5-7.8,2-11.8c0.7-7,1.9-13.9,1.8-20.9c0.1-1.9,0.8-3.7,1.1-5.6c1.2-4.5,1.8-9,2.9-13.5c0.1-0.5,0.2-1,0.4-1.5
	c0.4-1.2,0.6-2.4,0.8-3.7C233.7,89.8,234.6,85.2,236.8,81z"/>
<path d="M267,192.8c3,0.1,4.8,0.8,4.6,4.6c-0.3,4.5,0.6,5,5.2,6.1c0,1.7-1,3-2.5,3.3c-6.3,1.4-11.9,4.9-18.6,5c-7,0.1-14,0.6-20.9,1
	c-0.7,0-1.6-0.1-1.9,0.2c-6.3,6.5-14.8,3.3-22.7,5.3c5.5,3.4,2.9,7.5,1.4,11.5c-0.5,1.4-1.1,2.8-1.6,4.2c-4.6,2.6-9.3,1.2-14.1,0.4
	c-0.8-0.1-1.6-0.3-2.3-0.6c-0.7-0.3-1.3-0.8-1.7-1.4c-1-3.6,2.3-5.7,3.1-8.7c0.2-0.4,0.4-0.8,0.6-1.2c0.4-0.8,0.6-1.7,0.9-2.5
	c1.4-3.2,2.8-6.3,3.9-9.7c1.6-3.2,0.4-6-1.8-9.3c6-2.1,11.8-2.1,17.6-2.5c0.4-0.1,0.9-0.2,1.3-0.4c0.4-0.2,0.8-0.5,1.1-0.7
	c0.2-0.2,0.3-0.3,0.5-0.4c0.3-0.3,0.7-0.6,1.1-1c0.2-0.2,0.4-0.3,0.6-0.4c0.7-0.4,1.4-0.7,2.2-0.9c7.4-0.3,14.8-1.7,22.3-1.3
	c3.3,0.2,6.1-1.2,9.2-1.9C258.5,191.6,262.7,192.7,267,192.8z"/>
<path class="st3" d="M422.8,308c0.4,2.9-0.6,5.5-1.9,8c-1.3,2.1-3.5,1.6-5.4,1.6c-50.2-0.1-100.4,0-150.6-0.1
	c-2.8,0-5.7,0.6-8.1-1.6c0.6-3.7,3.6-6.3,4.4-10c1.9-1.8,4.3-1.6,6.6-1.6c21.1,0,42.2,0,63.4,0c2.4,0,4.7,0.1,6.7,1.6
	c0.3,0.2,0.3,0.4,0.2,0.7c0.1,0.5,0.5,0.8,0.6,1.3c0.2,0.3,0.3,0.6,0.4,0.9c1.8,0.9,2.8-1.4,4.4-1.2c25.6-0.6,51.2-0.1,76.9-0.2
	C421.2,307.4,422.1,307.6,422.8,308z"/>
<path class="st4" d="M301,84c18,0,36,0,53.9,0c4.6,0,9.3-0.3,13.8,0.9c1.6,1.7,3.1,3.4,4.8,4.9c2.7,2.4,4.2,5.4,3.4,9.2
	c-0.2,0.9-0.7,1.6-1.5,2.2c-2.2,1.5-4.8,1.3-7.3,1.3c-21.5,0-42.9,0-64.4,0c-2.4,0-5.1,0.4-7-1.8c0.5-5.1,2.3-9.9,3.4-14.9
	C300.6,85.3,300.5,84.5,301,84L301,84z"/>
<path d="M598.2,301.7c-3,11.9-7.8,23.2-10.6,35.2c-0.6,2.4-1.2,4.8-1.9,7.6c-5.9-1.2-9.3,1.8-11.7,6.7c-1.5,3.1-6.4,4.1-11.4,2.7
	c-3.3-0.9-3.7-3.4-3.7-6.2c0-1.8,0.1-3.6,0.1-5.5c0.9-1.5-0.2-3.2,0.3-4.8c1-1.7,2.8-2.8,3.5-4.8c0.2-0.4,0.4-0.8,0.6-1.2
	c0.3-0.6,0.7-1.2,1.1-1.7c1.7-1.9,3.9-3.6,6.2-3.4c3.3,0.2,3.6-1.6,4-3.9c0.7-2.6,1.3-5.2,1.9-7.8c0.9-3.4,2.1-6.6,3.1-9.9
	c1-4.1,2.9-7.9,3.9-12c0.6-2.4,1.5-4.7,2.2-7.1c0.7-2.3,1.3-4.7,1.9-7.1c0.6-2.2,0.9-4.5,1.4-6.7c0.5-1.5,0.7-3.2,2.3-4
	c1.8,0.6,2.3,2.1,2.7,3.7c0.5,2.7-0.5,5.4,0,8.1c0.4,2.1,1.2,4,1.8,6c0.6,2,1.3,3.9,1.9,5.8c0.3,0.9,0.5,1.7,0.9,2.5
	c0.2,0.4,0.3,0.9,0.5,1.3C599.9,297.5,600.5,299.8,598.2,301.7z"/>
<path class="st5" d="M256.9,316c52.1,0,104.1,0,156.2,0c2.6,0,5.2,1,7.8,0.1c-2.8,8.3-9.8,10.2-17.2,10.8
	c-10.3,0.9-20.4-1.3-30.6-2.4c-3.4-0.4-7,0-10.3-1c-1.3-0.4-2.6,0.2-3,1.2c-1.7,4.2-4.7,3.3-7.8,2.1c-0.6,0-1-0.4-1.4-0.9
	c-0.2-0.3-0.3-0.7-0.6-1c-1.8-1.9-3.7-3.6-5.1-5.9c-0.8-0.8-1.4-0.7-1.9,0.3c-0.3,0.2-0.6,0.4-0.9,0.7c-0.4,0.2-0.8,0.5-1.2,0.8
	c-0.3,0.1-0.7,0.1-1,0.2c-0.5,0.6-1.4,0.4-2,0.8c-0.9,0.1-1.9,0.2-2.8,0.3c-23.9,0.9-47.8,0.4-71.8,0.5c-1.8,0-3.6-0.2-5.4-0.7
	C256.5,320.1,256,318.2,256.9,316z"/>
<path class="st6" d="M254.2,192.8c-2.9,1.8-6.1,2-9.4,2.1c-7.9,0.2-15.8,0.7-23.6,1.1c-0.4,0.3-0.8,0.6-1,1.1l0.1-0.1
	c-0.5,0.2-0.8,0.6-1.1,1.1l0.1-0.1c-0.5,0.2-0.8,0.6-1.2,0.8l-0.1,0c-8.9,0.6-17.7-0.6-26.6-0.5c-6.4,0.1-12.8,0.3-19.3,0.5
	c-4.7,1-9.2,1.2-13.5-2.3c2.1-2.5,5.5-1.1,6.9-4.2c-4.4-1.4-9,0-13.6-0.8c0.6-2.7,3-2.8,4.9-3.5c2.4-1,5.2-0.6,7.5-2.1
	c1.9-1.8,4.3-1.6,6.6-1.6c28.1,0,56.1,0,84.2,0c2.5,0,5,0.2,7.2,1.6c1.2,0.2,2.4,0.4,3.8,0.6c-0.7,3.4-3.5,3.8-5.8,4.7
	C258.4,192.9,256.1,192.1,254.2,192.8z"/>
<path class="st7" d="M287.2,151c1-4.7,2-9.3,3-14c1.3-2.3,3.4-1.4,5.3-1.5c9.2-0.3,18.4,0.8,27.5-0.7c1.2-0.2,2.4-0.6,3.6-0.3
	c2.5,1.1,5.2,0.9,7.8,0.9c10.9,0,21.8,0,32.7,0c2,0,4-0.1,5.9,0.6c1.9,1,2.1,2.7,1.2,4.2c-2.8,4.8-6,9.5-11.5,11.7
	c-23.2-0.8-46.5-0.2-69.7-0.4C291.1,151.6,289.1,151.9,287.2,151z"/>
<path d="M558.1,339c-3.5,3.5-7.6,4.9-12.5,5c-12.4,0.4-24.7-0.1-35.8-6.3c-10.1-5.7-19.6-12.5-28.4-20c-5.2-4.5-8.9-10.2-11.3-16.7
	c2.2-0.7,3,1.3,4.4,2.2c0.8,0.7,1.7,1.2,2.5,1.8c0.5,0.3,0.9,0.7,1.4,1c0.3,0.2,0.7,0.4,1,0.6c0.3,0.2,0.6,0.5,0.9,0.7
	c0.1,0.1,0.3,0.3,0.4,0.4c0.3,0.2,0.6,0.5,0.9,0.7c0.2,0.1,0.3,0.2,0.5,0.3c0.4,0.2,0.7,0.4,1.1,0.6c0.4,0.2,0.7,0.4,1.1,0.7
	c3.4,2.4,7,4.5,10.2,7.1c0.6,0.4,1.2,0.8,1.8,1.1c0.5,0.2,0.9,0.4,1.4,0.6c12.3,7.2,25.8,7.3,39.5,6.7c3.8-0.2,6.6-2.9,10.1-3.8
	c1.3,0.2,1.8,1.2,2.1,2.3c0.4,2.4,0.2,4.9,0.3,7.3c-0.1,2.9,1.6,4.1,4.3,4.4c1.7,0.2,3.7-0.1,4.7,2
	C558.5,338.2,558.4,338.6,558.1,339z"/>
<path class="st8" d="M262.1,186c-32.7,0-65.3,0-98,0c1.2-7-0.3-7.6,8.8-8.1c12.4-0.6,24.7-1.3,37.1-2c7.7,0,15.5,0,23.2-0.1
	c7.3,0,14.6,0.1,22,0c3.5,0,5.8,0.7,5.3,4.9C260.3,182.7,260.9,184.5,262.1,186z"/>
<path class="st9" d="M287.2,151c1.6-1.2,3.5-1,5.3-1c21.6,0,43.3,0,64.9,0c2.2,0,4.3,0.5,6.3,1c0.3,0.2,0.6,0.7,0.4,0.8
	c-4.5,5.1-8.5,10.9-15.9,12.2c-18.9-0.8-37.8-0.1-56.6-0.4c-2.7,0-5.7,0.6-8-1.7C284.8,158.2,286,154.6,287.2,151z"/>
<path class="st10" d="M337.9,306c-25.5,0-51.1,0-76.6,0c0.6-3.7,1.2-7.3,1.8-11c2.1-1.9,4.6-1.4,7.1-1.5c7.7-0.2,15.5,0.6,23.1-0.9
	c4,3.2,8.6,3.5,13.5,2.6c1.5-0.3,3-0.3,4.2,0.7c1.6-0.3,3.2-0.6,4.8-0.9C327.5,292.9,332.2,295.3,337.9,306z"/>
<path class="st11" d="M296.8,100.8c25.1,0.1,50.2,0.1,75.4,0.2c1.4,0,2.6-0.4,3.8-1c0.4-0.3,0.8-0.3,1.3,0c0.5,0.6,0.7,1.3,0.7,2
	c-0.1,1.3,0.1,2.5,0.7,3.6c0.3,1.1,0.3,2.1-0.2,3.2c-0.3,0.5-0.8,0.9-1.3,1.1c-9.3,1.2-18.6,0.5-27.8,0.5c-0.5-0.1-1-0.2-1.5-0.4
	c-0.7-0.3-1.2-0.7-1.7-1.3c-0.3-0.3-0.5-0.7-0.7-1c-0.3-0.3-0.5-0.6-0.8-0.9c-0.2-0.1-0.3-0.2-0.4-0.4c-0.3-0.2-0.7-0.4-1-0.6
	c-0.4-0.1-0.7-0.3-1.1-0.4c-0.6-0.1-1.3-0.2-1.9-0.2c-4.6-0.5-8.1,0.6-9.2,5.8c-0.3,1.4-1.4,2.6-2.7,3.4c-4,1.8-8.2,1-12.2,1.1
	c-5.5,0.1-10.9,0.1-16.4,0c-2,0-4,0-5.6-1.5c-0.6-4.3,1-8.1,2.1-12.1C296.5,101.6,296.7,101.2,296.8,100.8
	C296.9,100.8,296.8,100.8,296.8,100.8z"/>
<path class="st12" d="M283.6,161.9c19.4,0,38.8,0.1,58.2,0.1c2.8,0,5.6,0.1,8.3,1c-0.1,3.4-2.9,4.1-5.1,5.3
	c-2.2,1.2-4.8,1.8-7.2,1.7c-6.2-0.2-11.7,0.9-15.7,6c-12.1,1.1-24.2,0.4-36.4,0.4c-1.4,0-2.6-0.5-3.6-1.4
	C281.6,170.5,283.3,166.3,283.6,161.9z"/>
<path class="st13" d="M210.8,368.9c2.3-4.9,6.4-7.2,11.5-7.3c14.7-0.2,29.5-0.1,44.2,0c0.3,0,0.6,0.3,1.1,0.5
	c0.1,1.8,0.3,3.8,0.4,5.6c1.8,1.2,3.7,0.1,5.4,0.9c-3.2,3.1-7.1,3.8-11.3,3.9c-10.4,0-20.8,0.1-31.2,0c-3.9-0.1-7.2,0.7-9.6,4
	c-3.8,1.6-7.7,1.4-11.7,0.3c-1.2-0.6-1.4-1.7-1.4-3C208.4,371.8,209.2,370.1,210.8,368.9z"/>
<path class="st14" d="M93.9,421.1c-0.7,0-1.3,0-2,0c-4.1-1.1-7.8-2.6-9-7.2c1.2-1.2,2.7-1.2,4.2-1.1c14,1.3,28.1,0.3,42.2,0.6
	c4.7,0.1,9.2-0.6,13.5-2.7c1.2-1,2.3-2,3-3.4c0.7-1.3,0.9-2.7,0.9-4.1c0-1.5,0-3,0-4.5c-0.1-1.6,0-3.2,0-4.8c0-1.7-0.1-3.3,0.2-5
	c0.2-0.9,0.5-1.6,1.3-2.2c3.9,1.2,5.8,4.2,6.3,8c0.8,5.4,0.7,10.9,0.1,16.3c-0.7,6.1-3.4,8.4-10.5,10
	C127.4,421.1,110.6,421.1,93.9,421.1z"/>
<path class="st14" d="M598,421.1c-0.7,0-1.3,0-2,0c-16,0-32.1,0-48.1,0c-0.7,0-1.3,0-2,0c-3.9-0.8-7.6-2.1-9.1-6.3
	c0.8-2.5,2.9-1.8,4.6-1.7c14.3,0.8,28.6,0.3,42.9,0.3c4.3,0,8.6-0.6,12.4-3c2.9-2.8,3.9-6.2,4-10.2c0-4.2-0.7-8.5,0.6-12.7
	c0.2-0.2,0.4-0.4,0.6-0.6c2.7,0.8,4.3,2.6,5.3,5.1c0.9,0.6,1.4,1.5,1.7,2.5c0.4,1.5,0.4,3.1,0.4,4.7c0.1,1.6,0,3.2,0,4.8
	c0,2.2,0.1,4.3-0.2,6.5c-0.2,1.4-1,2.5-1.9,3.6C605.9,418.7,602.1,420.1,598,421.1z"/>
<path d="M372.1,420.9c0-2-0.1-3.9-0.1-5.9c1.9-1.8,4.3-1.4,6.6-1.5c11.4-0.1,22.8,0,34.3,0c4.8,0,9.6-0.5,14-2.7
	c1.9-1.7,3.6-3.5,3.8-6.3c0-1.5,0-3.1,0-4.6c-0.1-1.6,0-3.2,0-4.9c0-2-0.1-3.9,0.2-5.9c0.2-0.9,0.5-1.7,1.3-2.2
	c2.6,0.7,4.2,2.4,5.2,4.7c1.8,0.8,1.7,2.4,1.9,4c0.1,1.6,0.1,3.2,0.1,4.7c0.1,1.9,0.1,3.7,0,5.6c0,2.4,0.2,4.9-0.5,7.3
	c-0.3,0.8-1,1.3-1.6,1.8c-1.8,4.6-5.8,5.7-10.1,6.2c-16.2-0.1-32.4-0.1-48.6-0.2C376.4,421,374.3,420.9,372.1,420.9z"/>
<path class="st15" d="M155,370c-1.7-2.6-0.5-5.3-0.7-8.3c16.1,0,32,0,48,0c1.2,2,0,4.3,0.9,6.3c1.8,0.2,3.6,0.4,5.3,0.7
	c-1.3,1.9-3.5,1.6-5.3,1.9c-4,1.2-8.2,0.6-12.3,0.8c-1.8,0.1-3.7-0.5-5,1.3c-1.3,2.8,0.5,6.3-2,8.8c-3.6,1.4-7.2,1.6-10.8-0.1
	c-2.5-10.1-2.5-10.1-13.8-10.9C157.9,370.4,156.4,370.9,155,370z"/>
<path d="M261.1,421.2c-0.7,0-1.3,0-2,0c-12.6,0-25.2-0.1-37.8-0.2c-1.8,0-3.7,0.3-5.4-0.4c-0.7-6.5-0.3-7,6-7.1
	c7.5-0.1,15-0.1,22.5,0c5.7,0,11.3-0.9,16.5-3.2c1.6-1,2.8-2.4,3.9-3.9c0.2-0.4,0.5-0.7,0.7-1.1c0.4-0.7,0.6-1.6,0.7-2.4
	c0.5-1.9,0.9-3.8,0.5-5.9c0-0.2-0.1-0.4-0.1-0.6c0-0.4,0-0.9,0.1-1.3c0.2-0.4,0.4-0.8,0.7-1.1c0.2-0.1,0.4-0.2,0.6-0.3
	c5.5,3.9,7.2,9.5,5.9,15.7C272.4,416.3,267.7,420,261.1,421.2z"/>
<path class="st10" d="M474.2,303.9c-1.4-1-2.8-1.9-4.2-2.9c-1-1.3-2-2.7-3-4c-0.9-3.6,2-3.3,3.9-3.5c5.1-0.4,10.3-0.3,15.4-0.2
	c7.9,0.2,15.9-0.7,23.8,0.5l-0.1,0c0.2,0.5,0.6,0.8,1.1,1.1c1.9,0.6,3.4,3.9,5.8,0.6c0.7-0.9,1.9,0,2.7,0.4c4.6,1.7,9.3,3.3,13.5,6
	c-1,2.2-3,2.5-5,2.5c-17.4,0.2-34.8,0.1-52.1,0.1C475.3,304.6,474.7,304.3,474.2,303.9z"/>
<path class="st16" d="M203,369.2c1.8-0.1,3.7-0.3,5.5-0.4c0.2,0.1,0.4,0.1,0.5,0.3c0.8,1.3,0.5,2.5,0.1,3.8c0,1.1-0.1,2.1-0.1,3.2
	c0,1.9-1.5,1.5-2.5,1.5c-5-0.1-9.9,0.3-14.9-0.2c-1.1,1.7-0.6,3.6-0.6,5.3c-0.1,12.8-0.1,25.5-0.1,38.3c-3.9,0-7.8,0-11.8,0
	c0-2-0.1-4-0.1-5.9c4.2-1.7,4.8-5.1,4.6-9.2c-0.5-11.6,0.2-23.1,1-34.6c4.4-1.3,8.9-0.3,13.3-0.6C199.8,370.4,201.7,371.1,203,369.2
	z"/>
<path class="st8" d="M282,175c13.6,0,27.2,0,40.8,0c0.3,5.2-1.8,9.5-5.3,13.2c-10.4,0.8-20.7,0.3-31.1,0.2c-1.2,0-2.3-0.4-3.1-1.3
	c0.2-2.7,1-5.3-1.2-7.7C281.2,178.3,281.4,176.4,282,175z"/>
<path class="st17" d="M278.9,211c0.2-4.4,1.4-8.7,2.3-13c1-1,2.3-1.4,3.6-1.4c9.1-0.2,18.3-0.3,27.4,0.1c0.8,0,1.6,0.3,2.4,0.7
	c2.8,4.8,0.9,9.1-1.5,13.4C308.3,213.3,283.7,213.4,278.9,211z"/>
<path class="st18" d="M432.1,386.8c-0.1,0.7-0.1,1.5-0.2,2.2c-3.8,2.5-7.9,1.4-11.9,1.1c-3.3-1.3-6.7-1.7-10.2-1.6
	c-10.1,0.2-20.1-0.2-30.2,0.2c-1.2,0.1-2.2,0.9-3.3,1.2c-3.7,0.5-7.4,1.5-10.8-1.1c-1.9-7.3-0.5-9.3,6.7-9.3
	c17.6,0,35.3-0.2,52.9,0.2c0.3,0.1,0.6,0.3,0.9,0.4c0.4,0.4,0.8,0.7,1.4,0.8C430.1,381.9,430.9,384.5,432.1,386.8z"/>
<path class="st19" d="M273.2,237c1-4.7,2.1-9.3,3.1-14c1.1-1.2,2.6-1.5,4.1-1.5c9.1-0.2,18.1-0.2,27.2,0c1.2,0,2.3,0.3,3.3,0.9
	c2.4,4.8,1.6,9.2-1.6,13.3c-4.9,1.5-9.8,0.6-14.8,0.7C287.3,236.7,280.2,236.4,273.2,237z"/>
<path class="st20" d="M310.8,223c-11.5,0-23.1,0-34.6,0c0.6-3,1.3-6,1.9-9c0.7-0.9,0-2.1,0.8-3l0,0c9.6,0,19.1,0,28.7,0
	c1.8,0,3.6,0.2,5.2-1C315,214.8,313.8,219,310.8,223z"/>
<path class="st21" d="M530,385c0.9-1.7,1.6-3.5,3.7-4.2c21.1-0.7,42.2-0.9,63.3,0.1l0,0c0.3,0.5,0.7,0.8,1.3,0.9
	c0.6,0.1,0.8,0.4,0.8,0.9c0.2,0.5,0.6,0.8,0.9,1.2c0.7,1,1.3,2,2,2.9l0,0.3c-0.9,1,0,2.7-1.5,3.5c-3.2,1.1-6.4,0.9-9.7,0.2
	c-0.5-0.2-1-0.4-1.5-0.8c-0.7-0.5-1.4-0.8-2.2-1.1c-15.3-0.5-30.5-1.9-45.7,0.9c-3.8,0.6-7.6,0.8-11.4-0.1c-0.5-0.2-1-0.6-1.3-1.1
	C528.3,387.3,529,386.1,530,385z"/>
<path class="st1" d="M265.2,271c1-4.3,2-8.6,3-13c1.8-1.3,3.9-0.6,5.8-0.6c8.3,0.1,16.6,0,24.8,0c2,0,4-0.1,5.8,1
	c1.9,4.3,0.8,9-2.9,12.5C289.6,271.9,277.4,272,265.2,271z"/>
<path class="st22" d="M220.8,376c0.7-4,3.2-5.3,7.1-5.2c8.1,0.2,16.2-0.1,24.3,0.1c7.2,0.2,14.3-0.1,21.2-2.3
	c1.6,2.6,0.5,5.5,0.7,8.1c-1.4,1.3-3,0.8-4.4,0.8c-11.5,0-23,0-34.5,0c-3.3,0-6.4,0.4-7.7,4.1c-0.5,2.4-2.2,2.4-4.1,2
	C220.5,381.8,219.1,379.4,220.8,376z"/>
<path class="st23" d="M324.4,135.8c-1.5,0.8-3,1.3-4.8,1.2c-9.5-0.3-18.9,0.5-28.4-0.4c-0.3,0-0.6,0.2-0.9,0.4
	c0.2-3.1,1.8-6.1,0.6-9.4c-0.4-1.1,0.4-2.5,1.3-3.5c2.3-1.4,4.8-0.5,7.2-0.5c8.7,0.1,17.4-0.3,26.1,0.1
	C328.1,127.9,325.4,131.8,324.4,135.8z"/>
<path class="st5" d="M258,321.9c1.3-1.5,3.1-0.9,4.7-0.9c21.7,0,43.5,0,65.2-0.1c2.5,0,4.9,0.5,7.3,1.1c-3.6,1.4-7.4,1.4-11.2,1.8
	c-11.4,1.2-22.8,2.1-34.2,3.4c-6.9,0.7-13.8,1.7-20.8,1.8C264.3,328.4,260.2,326.6,258,321.9z"/>
<path class="st18" d="M148.1,386.8c-0.1,0.7-0.1,1.5-0.2,2.2c-3.8,2.5-7.8,1.5-11.9,1c-2.7-1-5.4-1.5-8.3-1.5c-10.8,0-21.6,0-32.4,0
	c-2.4,0-4.6,0.3-6.8,1.2c-0.6,0.2-1.2,0.4-1.8,0.5c-3.7,0.1-7.5,1.2-10.9-1.2c-0.3-1.9,0.2-3.5,1.3-5c0.2-0.4,0.5-0.7,0.7-1l0,0
	c0.4-0.3,0.8-0.6,1-1.1l-0.1,0c3.4-1.7,7.1-1.5,10.7-1.5c17.9,0.1,35.7-0.2,53.6,0.2c0.3,0.2,0.6,0.4,0.9,0.6
	c0.4,0.2,0.7,0.5,0.9,0.8l0.1,0.1c0.3,0.2,0.6,0.5,0.8,0.9C147,384,147.4,385.5,148.1,386.8z"/>
<path class="st24" d="M510.1,293.9c-2.7,1-5.4,1.1-8.2,1.1c-10.2-0.1-20.4-0.1-30.7,0c-1.6,0-3.9-0.8-4.2,2c-2.7-2.5-4.7-5.5-6-9
	c-0.3-0.3-0.5-0.6-0.7-1c-0.1-0.3-0.2-0.7-0.4-1c2-2,4.6-1.4,7-1.5c8.2-0.3,16.5,0.5,24.7-0.6c3.6-0.9,5.6,1.4,7.4,3.9
	C502.5,290.3,507.2,290.5,510.1,293.9z"/>
<path class="st25" d="M454.9,272.3c-2.1-3.5-1.6-7.8-4-11.2c-0.5-0.9-0.5-1.7,0.3-2.5c6-2.2,12.2-0.6,18.3-1.1
	c4.8-0.3,9.7,0.9,14.2-1.6c4.6,2.7,4.3,7.3,4.4,11.7c-1.1,3.7-4.2,3.8-7.2,3.9C472.2,271.8,463.5,270.9,454.9,272.3z"/>
<path class="st6" d="M314.9,198c-11.2,0-22.5,0-33.7,0c0.7-3.7,1.3-7.3,2-11c11.5,0,23.1,0,34.6,0c1.7,2.7,0,5.1-0.8,7.5
	c-0.4,0.8-0.8,1.7-1.2,2.5C315.7,197.4,315.3,197.8,314.9,198z"/>
<path class="st26" d="M325.8,124c-1.3,0.9-2.7,1-4.2,1c-8.1,0-16.1-0.1-24.2,0c-1.9,0-3.5-0.8-5.3-1c1-3.3,1.9-6.5,2-10
	c9.6,0,19.3,0,28.9,0c2,0,4,0.3,5.8-1C330.3,117.3,329,120.9,325.8,124z"/>
<path class="st27" d="M492.9,420.9c-3.9,0-7.8,0-11.8,0c0-2-0.1-4-0.1-5.9c3.9-1.8,4.8-5,4.6-9c-0.2-3.5,0-7,0-10.5
	c0-8.5,0.3-8.8,9.1-8.9c2.3,0,4.7,0.1,7-0.1c0.7-0.1,1.4-0.5,2-0.8c0.4-0.2,0.8-0.4,1.3-0.6c1.7,0,3.4,0.1,5.2,0.1
	c2,0.9,1.8,2.7,2,4.4c0,1.2,0,2.4-0.5,3.6c-0.2,0.5-0.6,0.7-1.1,0.9c-5.6,0-11.3,0-17.8,0C492.9,403.2,492.9,412,492.9,420.9z"/>
<path class="st10" d="M598.2,301.7c0.8-2.2,0.4-4.4-0.1-6.6c7.4-1.1,14.8-0.3,22.3-0.5c3.4-0.1,6.6-0.3,9.7-1.7
	c1.4,4.3,2.5,8.6,2.9,13.2c-2,2-4.7,1.4-7.1,1.5c-8,0.2-16-0.5-23.9,0.7C600,306.4,601.2,302.8,598.2,301.7z"/>
<path class="st28" d="M265.2,271c1.4-1,3.1-1,4.7-1c10.7,0,21.5,0,32.2,0.1c1.9,3.7,0.2,6.5-2.3,9.1c-1.4,1-3,1.3-4.7,1.3
	c-9.1,0.2-18.2,0.1-27.3,0c-1.6,0-3.3-0.1-4.6-1.5C263.9,276.3,264.6,273.6,265.2,271z"/>
<path class="st29" d="M273.2,237c1.2-2,3.1-2,5.2-2c10.3,0.1,20.5,0,30.8,0.1c2.1,3.5,1.2,6.6-1.3,9.5c-1.7,1-3.5,1-5.3,1
	c-10.4-0.3-20.9,0.8-31.3-0.6C271.9,242.3,272.5,239.6,273.2,237z"/>
<path class="st30" d="M33.9,421.2c-0.7,0-1.3,0-2,0c-3.9-0.8-7.6-2.1-9.1-6.3c1.1-2.8,3.5-1.7,5.5-1.6c12.2,0.5,24.4,0.2,36.6,0.2
	c1.5,0,3-0.2,4.4-0.7c2.1-0.2,4.1-0.3,6.2,0.1c0.9,2.7,0.4,5.4,0.4,8.1C61.9,421,47.9,421.1,33.9,421.2z"/>
<path class="st18" d="M608.1,389c-0.4-2.3-0.3-4.7,0-7c2.2-2,5-1.5,7.6-1.5c13.4-0.2,26.9,0.3,40.3-0.4l0,0c0.5,0.5,1.4,0.3,1.9,1
	l0.1,0.1c0.4,0.3,0.7,0.6,1,0.9l0,0c0.3,0.3,0.6,0.7,0.9,1l0.1,0.1c0.3,0.2,0.6,0.5,0.7,0.8c0.5,0.9,1,1.9,1.5,2.8
	c0.3,0.5,0.5,1,0.4,1.6c-0.1,0.6-0.5,1-1,1.3c-4.1,0.9-8.3,1.3-12.4,0.1c-9.8-2.1-19.6-2.2-29.4,0.1
	C615.8,390.5,611.8,391.4,608.1,389z"/>
<path class="st31" d="M75.5,412.8c-1.8,0.1-3.7,0.2-5.5,0.3c-4.3-1.8-8.7-1.5-13.2-1.6c-12.6-0.2-25.3,0.5-37.9-0.4
	c-2.6-1.6-3.5-4.2-3.6-7.1c4-1,8.2,0,12.2-0.8c3.9,0.3,4.1-2.4,4.1-5.2c0.2-9.3-0.5-18.5,0.4-27.8c0.2-0.6-0.6-1.4-0.2-1.8
	c2.1,1,1.2,5.2,1.2,6.6c0.1,10.6,0,19.4,0,30.5c10.2,0,20.9,0,30.7-0.1c3.4,0,6.9-0.5,6,4.8c-0.3,1.5,0.6,2,2.1,2.1
	C72.9,412.4,74.3,412,75.5,412.8z"/>
<path class="st32" d="M601.9,308.2c0.3-2.8,2.5-2.1,4.2-2.2c8.9,0,17.9,0,26.8,0c1,4,2.9,8.1-1.9,11c-3.1,1.8-6.4,0.5-9.6,0.4
	c-5.2-0.2-10.4,1.1-15.5-0.4C604.1,314.3,602.6,311.4,601.9,308.2z"/>
<path class="st28" d="M454.9,272.3c0.3-2.7,2.4-2.2,4.1-2.2c7.8,0,15.6,0,23.3,0c2.3,0,4.4,0,4.7-3.1c3.5,1.5,2.7,4.9,3.3,7.7
	c-0.1,1.4,0.4,2.9-0.1,4.3c-0.4,0.5-0.9,0.8-1.5,1.1c-9.4,1.2-18.8,0.4-28.2,0.4c-1.3,0-2.6-0.6-3.6-1.4
	C455.6,277,455,274.7,454.9,272.3z"/>
<path class="st33" d="M304.9,259c-9.8,0-19.6,0-29.3,0c-2.5,0-4.9-0.2-7.3-1c0.4-2.4,0.6-4.8,1.8-7c1.8-1.6,4-1.5,6.1-1.5
	c9.9,0,19.9-0.1,29.8-0.1c2.7,1.1,1.7,3.1,1.2,5c-0.5,1.2-0.9,2.3-1.3,3.5C305.6,258.4,305.3,258.7,304.9,259z"/>
<path class="st34" d="M144.9,411c-3.4,3.5-8,3.8-12.4,3.9c-13.7,0.2-27.5,0.1-41.2,0.1c-2.8,0-5.5-1.4-8.3-1c-0.3-0.3-0.6-0.7-1-1
	c-0.4-0.3-0.7-0.7-1.2-0.9c-0.3,0.1-0.6,0-0.7-0.3c0.4-3,2.7-3.1,4.8-3.1c18.1-0.1,36.1-0.1,54.2,0
	C141.2,408.7,143.4,409.1,144.9,411z"/>
<path class="st24" d="M293.9,293c-1.8,1.6-3.9,2.1-6.4,2.1c-8.1-0.1-16.3,0-24.4,0c0-1.3,0.1-2.7,0.1-4c0.7-6.2,0.8-6.6,7.2-6.5
	c8.6,0.1,17.2-0.8,25.7,0.6C299.2,288.8,296.8,291,293.9,293z"/>
<path class="st28" d="M5,273.1c0.4-2.8,2.6-2,4.2-2c8.2-0.1,16.5-0.2,24.7,0c3.3,0.1,4.5-1.1,4.2-4.3c4.2,3.4,2.4,7.6,1.5,11.6
	c-1.2,1.7-3,2-4.8,2c-8.4,0.2-16.8,0.1-25.3,0c-1.7,0-3.3-0.5-4.6-1.5C3.8,277,5,275.1,5,273.1z"/>
<path class="st35" d="M456.7,420.8c-3.7,0-7.4,0-11.8,0c0-2,0-3.9,0-5.8c0.8-1.3,3-0.9,3.4-2.7c0.5-2.2,0.1-4.4,0.2-6.5
	c-0.1-1.9-0.1-3.8,0-5.6c0-1.6-0.1-3.3,0-4.9c0-1.9,0-3.8,0.1-5.7c0.2-1.7,0.2-3.4,2.1-4.2c1.7,0,3.4-0.1,5.2-0.1
	c0.3,0.2,0.5,0.5,0.7,0.9c0.1,0.6-0.1,1.1,0.1,1.7C456.7,398.8,456.7,409.8,456.7,420.8z"/>
<path class="st24" d="M61.3,289.9c-1.9,1.2-4.1,1.2-6.3,1.1c-11.3,0-22.6,0-33.8,0c-2.8,0-5.6,0.2-8.3,1.1c-1-1.1-1.4-2.6-1.9-4
	c-0.3-0.4-0.6-0.7-0.9-1.1l-0.1-0.1c0.4-3.7,3.3-3.2,5.6-3.3c8-0.2,15.9,0,23.9-0.1c2,0,4,0.4,5.8-0.7c1.3-0.6,2.6-0.4,3.9,0.2
	c3,2,5.9,4,9.5,4.8C60,288,61.1,288.4,61.3,289.9z"/>
<path class="st36" d="M224,383.1c1.4,0,2.8,0.1,3.5-1.4c0.5,2.4,2.4,1.8,4,1.8c5.9,0,11.9-0.1,17.8,0c5,0.1,9.9,0.4,13.5,4.6
	c-0.9,2-2.7,2.4-4.6,2.4c-14.4-0.1-28.8,0.9-43.2-0.6c-2.4-1.2-3.7-3.2-4.3-5.7C215,381.1,219.5,382.9,224,383.1z"/>
<path class="st5" d="M605.9,317c8.4-1.8,16.8-1.4,25.2,0c-1.3,2.3-3.8,3.6-4.2,6.9c-0.4,3-3.7,4.8-6.7,6c-1.5,0.6-3.2,0.8-4.5,2
	c-3.6-1.1-5.5-3.7-6.6-7.1C608.2,322.1,607,319.6,605.9,317z"/>
<path class="st37" d="M303.8,27.6c9,0.4,9,0.4,7.5,9.3c-1.2,7.3-1.2,7.3-8.8,7.3c-1.3,0-2.6,0.1-4,0.2c-3.5-1.3-4.6-3.8-3.7-7.4
	c0.4-1.9,0.8-3.9,0-5.8c-0.6-1.5,0.1-2.1,1.4-2.5C298.5,26.3,301.3,27.9,303.8,27.6z"/>
<path class="st38" d="M306.8,250c-1.6,1.2-3.4,1-5.3,1c-10.5,0-21,0-31.5,0c-0.2-2.1,0.8-4,1.2-6c1.6-1.2,3.4-1,5.3-1
	c10.4,0,20.8,0,31.3,0C309.7,246.4,308.7,248.3,306.8,250z"/>
<path class="st39" d="M296.9,286c-8.9,0-17.9,0.3-26.8-0.1c-4.2-0.2-6.3,1.1-6.9,5.1c0.2-4-0.6-8,0.1-12c10.3,0,20.6,0,30.8,0
	c2,0,4,0.3,5.8-1C301.3,281.6,300,284.1,296.9,286z"/>
<path class="st40" d="M662,389c0.1-0.4,0.2-0.7,0.2-1.1c0.1-0.4,0.4-0.6,0.7-0.7c4.5,1.8,5.7,5.6,5.8,9.9c0.1,7.9,0,15.8-0.1,23.7
	c-3.9,0.1-7.8,0.1-11.7,0.2c-0.1-2-0.1-4-0.2-6c1.1-1.5,4.3-1,3.7-4c0.1-2.6-0.1-5.2,0-7.8c0-1.4-0.1-2.8,0-4.1
	c-0.1-1.4,0-2.8,0-4.3C660.5,392.7,660.5,390.7,662,389z"/>
<path class="st34" d="M18.9,411.1c1.1-1.5,2.7-1.1,4.1-1.1c13.9,0,27.8,0.1,41.7-0.1c2.8,0,4.2,1,5.3,3.2c-0.9,1.9-2.5,1.8-4.2,1.8
	c-11.9,0-23.9-0.1-35.8,0c-2.4,0-4.7-2.2-7.1-0.1c-0.9-1-1.9-1.9-2.8-2.9C19.6,411.7,19.4,411.2,18.9,411.1L18.9,411.1z"/>
<path class="st41" d="M143.1,380.6c-1,1.9-2.9,1.4-4.4,1.4c-19.9,0-39.9,0-59.8-0.1c2.8-3.2,6.7-3.7,10.4-3.7
	c15.1-0.2,30.3-0.1,45.4,0C137.7,378.2,140.7,378.7,143.1,380.6z"/>
<path class="st39" d="M457,279c11,0,22,0,33,0c2.4-0.3,2,1.9,2.8,3c0.2,0.4,0.3,0.8,0.3,1.3c0,0.2,0,0.4,0,0.7c-1,2.4-3.2,2-5.1,2
	c-9.3,0-18.6,0-27.9,0c-1.2-1.3-1.9-2.9-2.1-4.7c-0.1-0.5-0.4-0.9-0.7-1.3C457.1,279.7,457.1,279.3,457,279z"/>
<path class="st41" d="M597,381c-1.5,0.9-3.1,1.1-4.8,1.1c-17.8,0-35.5,0-53.3,0c-1.9,0-3.6-0.2-5.3-1.1c2.8-2.4,6.3-2.7,9.8-2.7
	c14.6-0.1,29.2-0.1,43.8,0C590.8,378.2,594.3,378.5,597,381z"/>
<path class="st39" d="M46,283.1c1.1,2.5-0.9,1.9-2,1.9c-9.6,0-19.2,0-28.8,0c-1.9,0-4.1-0.5-5.2,1.9c-1.8-1.6-3.3-3.4-4.1-5.7
	c-0.3-0.4-0.5-0.7-0.7-1.1c-0.1-0.3-0.2-0.7-0.3-1c9.7,0,19.5,0,29.2-0.1c1.7,0,3.7,0.7,5-1.2c2.3-0.1,3.3,1.9,4.8,3.1
	c0.5,0.4,0.9,0.8,1.4,1.3C45.6,282.4,45.9,282.7,46,283.1z"/>
<path class="st42" d="M215,389.8c1.6-1.4,3.5-0.7,5.2-0.7c12.3-0.1,24.5,0,36.8,0c2,0,4,0.3,5.8-0.9l0.1,0.1
	c0.4,0.2,0.6,0.4,0.8,0.8c1.1,1,1.9,2.2,2.4,3.7c0.1,0.3,0.3,0.6,0.5,0.9c0.2,0.3,0.3,0.6,0.4,0.9c0,0.2,0.1,0.3,0.1,0.5
	c-0.1,0.4-0.1,0.7-0.2,1.1c-4.2,2.6-8.4,1.6-12.7,0.3c-2.6-1.3-5.3-1.7-8.2-1.7c-6.7,0-13.3,0-20,0c-3.1,0-6-0.5-8.5-2.4l0.1,0.1
	c0-0.6-0.4-0.9-0.9-1.1l0,0c-0.3-0.5-0.7-0.9-1.4-1C215.3,390.2,215.1,390.1,215,389.8z"/>
<path class="st43" d="M158.8,315c-1.5,4.6-3.5,9-6.6,12.8c-0.4-1.4,0.1-3-1.2-4.4c-2.4,0.8-3.8,2.7-5,4.5c-1.5,2.1-3.2,1.7-5.2,1.1
	c-2.4-0.8-2.8-2.5-2.4-4.7c0.6-3.4,1.1-6.8,1.7-10.2c0.5-0.4,1-0.6,1.6-0.7c4,0.2,8.1,0.3,12.2,0.3
	C155.5,313.6,157.4,313.5,158.8,315z"/>
<path class="st44" d="M425.1,379.7c-1.2,2-3.3,1.3-5,1.3c-15.4,0.1-30.9,0-46.3,0c-8.1,0-8.1,0-7.6,8c1.3,1.8,1.2,3.8,1.2,5.8
	c0,2,0.1,3.9,0,5.9c0,1.7,0.1,3.4,0,5c0,1.4,0,2.9-0.2,4.3c-0.2,0.9-0.6,1.7-1.5,2.2c-0.7-0.1-1.1-0.5-1.4-1.1
	c-1.5-9.9-0.7-19.8-0.5-29.7c0-1.6,1-2.8,2.4-3.6L366,378c16.8,0,33.7,0.1,50.5,0.1C419.4,378.2,422.4,378.2,425.1,379.7z"/>
<path class="st15" d="M15.2,377c0-5,0-9.9,0-15.1c3.8-1,7.5-0.2,11.2-0.5c1.5,2.2,0.2,4.5,1.1,6.4c1.6,1.1,3.7-0.1,5.3,0.9l0.1,0.3
	c-4.9,0.8-4,5.9-6.3,8.6C22.7,378.7,18.8,379.4,15.2,377z"/>
<path class="st45" d="M305,389c12.8,0,25.5,0,38.3,0c2.2,0,4.3-0.1,5.6,2.1c0.6,3.8-2.5,3.2-4.4,3.3c-6.4,0.3-12.8,0.1-19.2,0.1
	c-2.8,0-5.6,0.1-8.2,1.3c-4.1,0.7-8.2,1.6-12-0.8C304.7,393,304.7,391,305,389z"/>
<path class="st46" d="M147.9,404c0.2,1.5-0.2,2.8-1,4c-1.4,0.9-2.9,1.3-4.7,1.2c-20.2-0.4-40.4-0.2-60.6-0.1c-1.7,0-3.3,0.1-4.7-1.1
	l0,0c-0.5-0.6-0.4-1.4-0.8-2c-0.1-0.7-0.1-1.3-0.2-2c0.2-0.2,0.4-0.4,0.6-0.6c3.2-1.3,6.6-0.7,9.9-0.6c0.6,0.1,1.1,0.2,1.6,0.4
	c0.8,0.3,1.6,0.6,2.4,0.9c14.5,0.5,28.9,1.2,43.3-0.4c0.8-0.4,1.7-0.7,2.6-0.9C140.3,402.7,144.3,401.5,147.9,404z"/>
<path class="st47" d="M655.9,380c-2.6,1.6-5.5,2-8.5,2c-13.1-0.1-26.2,0-39.3,0c-0.7-2.6-0.2-4,3-3.9c12.6,0.2,25.2,0,37.8,0.1
	C651.3,378.2,653.9,378.4,655.9,380z"/>
<path class="st48" d="M77,408c23.3,0,46.6,0,70,0c-0.7,1-1.4,2-2.1,3c-5.9-1.5-11.8-0.9-17.7-1c-13.9,0-27.8,0-41.8,0
	c-1.9,0-4.1-0.5-5.3,1.7C78.4,411,77.3,409.8,77,408z"/>
<path class="st49" d="M450.8,385.3c-0.3,1.2-0.5,2.5-0.8,3.7c-3.9,2.2-7.9,2.3-11.8,0c-0.2-3.3-0.4-6.7,0.1-10
	c3.9-0.8,7.7-0.8,11.6,0C450.8,381,449.4,383.3,450.8,385.3z"/>
<path class="st50" d="M317,383c0.6,1.3,2.1,0.7,3.3,1.5c-5,2.5-10.2,1.1-15.2,1.5c-0.3-3-0.3-6,0-9c3.9,0,7.9,0,11.8,0
	C316.9,379,316.9,381,317,383z"/>
<path class="st51" d="M185.1,371c0,12.7-0.1,25.5-0.1,38.2c0,5.6,0,5.6-5.9,5.7c-1.8-1.2-4.3,0.5-6-1.2c-0.7-1-0.6-2-0.1-3
	c1.2-1,2.7-1.2,4.2-1c4.3,0.4,6.1-1.5,5.5-5.7c0-1.4-0.1-2.7,0-4.1c-0.1-1.7,0-3.4,0-5.1c-0.1-1.7,0-3.5,0-5.2c0-3-0.6-6,1.4-8.7
	c0-3.3,0.1-6.6,0.1-9.9C184.4,370.6,184.7,370.6,185.1,371z"/>
<path class="st52" d="M511,390c-0.1-1.6,0-3.2-0.8-4.7c0.3-0.8,0.6-1.5,0.9-2.3c3.9-2.2,7.9-2.3,11.8,0c0.1,0.6,0.2,1.2,0.2,1.8
	c0.3,0.5,0.6,1,0.9,1.6c0.3,1.6,0.2,3.1-1.3,4.2C518.7,391.8,514.8,392.3,511,390z"/>
<path class="st50" d="M15.2,377c4,0,7.9,0,11.9,0c1.9,2.4,1.7,4.8,0.2,7.3c-4,1.8-8.1,2.1-12-0.3C15.2,381.7,15.2,379.3,15.2,377z"
	/>
<path class="st53" d="M75.9,389c3.7,0,7.4,0,11.1,0c1.5,1.8,1.5,3.7,0.6,5.7c-1.6,1.9-3.9,1.6-6,1.6c-2.5,0.1-4.2,0.9-4.2,3.7
	c0,1.4-0.2,2.7-1.2,3.8l-0.2,0.2C75.2,399,75.2,394,75.9,389z"/>
<path class="st54" d="M438.2,389c3.9,0,7.9,0,11.8,0c0,2,0,4,0,6c-4,2.2-7.9,2.3-11.9,0c-0.3-1.2-0.6-2.3-0.8-3.5
	C437.6,390.7,437.9,389.8,438.2,389z"/>
<path class="st55" d="M317,404c-3.8,2.1-7.9,0.5-11.8,1c-0.5-2-0.5-4-0.1-6c3.9-2.3,7.9-2,12-0.4C318.4,400.4,318.5,402.2,317,404z"
	/>
<path class="st56" d="M173.3,411c-0.1,0.9-0.2,1.9-0.3,2.8c-1.3-4.5-0.4-9.1-0.5-13.7c-0.2-6.4-0.1-12.9,0-19.3
	c0-2.3-0.7-3.2-3.1-3.2c-2.6,0.1-5.3,0.4-7.9-0.3c2-3.1,6.1-0.4,8.6-3.1c-2.4-3.5-6.9-0.5-9.3-3.2c-1.8-1-4.1,0.2-5.9-1
	c4.9,0,9.9,0.1,14.8,0c2.3,0,3.3,0.9,3.2,3.2c-0.1,2.6,0.1,5.3,0.2,7.9c1.8,2.7,1.1,5.7,1.2,8.6c0,1.7,0.1,3.4,0,5.2
	c0,1.7,0.1,3.4,0,5.1c0.1,1.4,0,2.9,0,4.3C174.4,406.6,174.7,408.9,173.3,411z"/>
<path class="st52" d="M15.2,384c3.9,0,7.9,0,11.8,0c1.7,2.1,1.5,4.2,0.1,6.3c-4,1.7-8,2.1-12-0.3C15.2,388,15.2,386,15.2,384z"/>
<path class="st57" d="M27.1,403.9c-3.9,2-7.9,1.5-11.8,0.2c-0.4-1.7-0.3-3.4-0.1-5c3.9-2.3,7.8-1.9,11.8-0.4
	C28.4,400.3,28.5,402.1,27.1,403.9z"/>
<path class="st58" d="M160.9,371c2.6-0.1,5.2,0,7.8-0.2c2.5-0.2,3.5,0.7,3.5,3.3c0,2.5-1.3,3-3.4,2.9c-2.4,0-4.9,0.2-7.3,0.3
	C160.1,375.4,161.1,373.1,160.9,371z"/>
<path class="st59" d="M456.1,386c-0.2-0.2-0.2-0.5-0.2-0.8c0.4-7,0.4-7,7.8-7c11.8,0,23.6,0,35.4,0c6.7,0,5.6-0.3,5.7,5.5
	c0,0.5,0.1,1,0.2,1.5c0,0.3,0,0.6-0.2,0.8c-0.2,0-0.5,0-0.5,0c-2.3-6.2-7.6-5.5-12.6-5.4c-8.5,0.1-17,0.1-25.5,0c-4-0.1-7.8,0-8.8,5
	C457.3,386,456.6,385.9,456.1,386z"/>
<path class="st53" d="M608.1,389c3.9,0,7.9,0,11.8,0c1.7,1.7,1.5,3.5,0.2,5.4c-4.1,1.8-8.2,1.9-12.3-0.2c-0.6-0.5-0.9-1.2-0.7-2
	C608.3,391.3,607.6,390,608.1,389z"/>
<path class="st60" d="M27,399c-3.9,0-7.9,0-11.8,0c0-1.7,0-3.3,0-5c3.9-2.3,7.9-2,11.9-0.3C28.4,395.5,28.5,397.2,27,399z"/>
<path class="st61" d="M522.8,383c-3.9,0-7.9,0-11.8,0c-0.3-1.5-0.4-2.9,0.1-4.5c3.7-0.7,7.4-0.2,11.2-0.3
	C523.4,379.8,523,381.4,522.8,383z"/>
<path class="st60" d="M316.9,399c-3.9,0-7.9,0-11.8,0c-0.3-1.3-0.3-2.7,0-4c3.9,0,7.9,0,11.8,0C318.2,396.3,318.2,397.7,316.9,399z"
	/>
<path class="st54" d="M27,394c-3.9,0-7.9,0-11.8,0c0-1.3,0-2.7,0-4c3.9,0,7.9,0,11.8,0C28.2,391.3,28.1,392.7,27,394z"/>
<path class="st62" d="M449.8,379c-3.9,0-7.7,0-11.6,0C442.1,377.6,446,377.6,449.8,379z"/>
<path class="st63" d="M523,385.9c0-0.3,0.1-0.7,0.1-1c2.3,0.1,4.6,0.1,7,0.2c0.1,1.1,0.1,2.1-0.8,2.9
	C527.1,387.4,524.7,387.7,523,385.9z"/>
<path class="st64" d="M16.8,298.1c0.4,0,0.7,0,1.1,0c1.3,1,3.5,1.3,3,3.7l0,0.5c-0.5,0.2-1,0.1-1.5-0.2
	C18.2,301,17.3,299.7,16.8,298.1z"/>
<path class="st17" d="M279,210.9c0,1.1,0.3,2.2-0.8,3C278,212.8,278.2,211.8,279,210.9z"/>
<path class="st34" d="M311.8,413.1c0.8,0,1.6,0,2.1,0.8c-0.4,0.3-0.8,0.6-1.1,1C312,414.5,312,413.7,311.8,413.1z"/>
<path class="st47" d="M657.9,381.1c-0.8,0-1.5-0.2-1.9-1C656.8,380,657.4,380.3,657.9,381.1z"/>
<path class="st65" d="M266,394c0-0.4,0.1-0.9,0.1-1.3c0.7,0.3,1.5,0.3,1.8,1.2l-0.1,0.4c-0.3,0.2-0.6,0.2-0.9,0.2
	C266.5,394.4,266.2,394.2,266,394z"/>
<path class="st48" d="M76.2,406c0.8,0.5,0.8,1.2,0.8,2C76.2,407.6,76,406.9,76.2,406z"/>
<path class="st0" d="M301,84c0,0.8,0,1.5-0.7,2C300.2,85.2,300.4,84.5,301,84z"/>
<path class="st66" d="M16,297c0.5,0.2,0.8,0.6,0.9,1.2C16.3,298,16,297.6,16,297z"/>
<path d="M19.5,302.1c0.5,0.1,1,0.1,1.5,0.2c-0.2,0.2-0.5,0.5-0.7,0.7C20,302.7,19.7,302.4,19.5,302.1z"/>
<path class="st44" d="M427.4,380.9c-0.6,0-1.1-0.2-1.4-0.8C426.7,380,427.1,380.2,427.4,380.9z"/>
<path class="st41" d="M144.9,382c-0.3-0.3-0.6-0.5-0.9-0.8C144.6,381.2,144.9,381.5,144.9,382z"/>
<path class="st41" d="M598.3,381.9c-0.6-0.1-1-0.4-1.3-0.9C597.6,381,598.1,381.3,598.3,381.9z"/>
<path class="st47" d="M659,382c-0.3-0.3-0.7-0.6-1-0.9C658.6,381.1,658.9,381.4,659,382z"/>
<path class="st41" d="M78.9,381.9c-0.3,0.4-0.7,0.7-1,1.1C78,382.4,78.3,382,78.9,381.9z"/>
<path class="st41" d="M145.8,383c-0.3-0.3-0.5-0.6-0.8-0.9C145.5,382.1,145.8,382.4,145.8,383z"/>
<path class="st47" d="M659.9,383c-0.3-0.3-0.6-0.7-0.9-1C659.6,382.1,659.9,382.4,659.9,383z"/>
<path class="st41" d="M78,382.9c-0.2,0.3-0.5,0.7-0.7,1C77.1,383.4,77.5,383.1,78,382.9z"/>
<path class="st41" d="M599.9,384c-0.3-0.4-0.6-0.8-0.9-1.2C599.6,383,600,383.4,599.9,384z"/>
<path class="st47" d="M660.6,384c-0.2-0.3-0.5-0.6-0.7-0.8C660.4,383.2,660.7,383.5,660.6,384z"/>
<path class="st31" d="M18.9,411.1c0.4,0.3,0.8,0.6,1.2,0.9C19.4,412,19,411.7,18.9,411.1z"/>
<path class="st48" d="M80.8,412.1c0.4,0.3,0.8,0.6,1.2,0.9C81.4,412.9,81,412.7,80.8,412.1z"/>
<path class="st31" d="M309.9,412c0.4,0.2,0.7,0.5,1.1,0.7C310.4,412.9,310.1,412.5,309.9,412z"/>
<path class="st4" d="M296.9,100.8c-0.2,0.4-0.4,0.7-0.6,1.1C296.2,101.4,296.4,101,296.9,100.8z"/>
<path d="M663,387.2c-0.2,0.2-0.5,0.5-0.7,0.7c0-0.4-0.1-0.8-0.1-1.1C662.5,386.8,662.8,386.9,663,387.2z"/>
<path class="st36" d="M263.7,389c-0.3-0.3-0.5-0.5-0.8-0.8C263.5,388.2,263.8,388.4,263.7,389z"/>
<path class="st28" d="M457.2,280c0.2,0.4,0.4,0.9,0.7,1.3C457.4,281.1,457.1,280.6,457.2,280z"/>
<path class="st28" d="M5.2,280c0.2,0.4,0.5,0.7,0.7,1.1C5.5,280.9,5.1,280.6,5.2,280z"/>
<path class="st39" d="M10.1,287c0.3,0.4,0.6,0.7,0.9,1.1C10.5,287.9,10.2,287.5,10.1,287z"/>
<path class="st39" d="M460.3,287c0.2,0.3,0.4,0.7,0.7,1C460.8,287.7,460.5,287.4,460.3,287z"/>
<path class="st24" d="M13.1,293c0.3,0.4,0.5,0.9,0.8,1.3C13.3,294.1,13,293.7,13.1,293z"/>
<path d="M296.9,286c1.5-2.5,2.5-5.1,3-8c1.3-2.5,2.1-5.1,2.3-7.9c1.5-3.5,2.4-7.2,2.7-11.1c0.2-0.3,0.2-0.5,0.1-0.8
	c0.7-0.9,0.2-2.1,0.7-3.1c0.4-1.7,1.4-3.2,1-5.1c0.4-2,1.4-3.9,1-6c0.8-2.9,1.4-5.9,1.3-9c1.1-3.9,1.7-7.9,1.7-12
	c1-4.3,1.8-8.6,2-13c1.1-3.9,1.8-7.9,2.1-12c0.2-0.2,0.2-0.5,0.1-0.8c0.4-0.7,0.4-1.5,0.7-2.2c0.9-2.6,1.8-5.3,2.1-8.1
	c1.6-4,3.3-8,4.9-12c1.8-5,5.3-6.6,10.6-6.1c6.2,0.5,12.1-0.9,16.6-5.8c5.2-3.3,9.5-7.7,13.7-12.1c3.9-4.3,9.2-7.6,10.4-13.9
	c0.9-4.7,1.8-9.4,1.9-14.2c2-4.8,1.6-10,2.1-15c-0.1-0.9-0.2-1.9-0.3-2.8c-0.2-0.4-0.2-0.7,0-1.1c0.4-0.2,0.7-0.2,1,0.1
	c10.3,5.5,9.5,15.9,11,25.2c0.6,3.4,0.8,6.9-1.4,10.1c-0.6,0.8-0.6,2.2-0.6,3.4c0.5,8.2-3.1,14.6-8.4,20.4
	c-5.2,5.7-10.8,10.8-16.6,15.8c-6,5.3-12.8,7.6-20.6,7c-4.2-0.3-6.2,1.3-7.9,4.8c-5.6,11.1-8.4,23-10.3,35.2
	c-3.6,23.4-6.2,47.1-13.1,69.9c-4,0.6-8,1.6-12.1,1.2c-2.7-0.2-4.8-0.9-5-4.1C295.2,290.8,296.5,288.6,296.9,286z"/>
<path class="st0" d="M444.2,19.8c-0.3-3,1.6-3.5,4-3.8c11.6-1.6,23.1-2.6,34.7-0.8c9.1,1.4,18.3,0,27.4,1.5c3,0.5,5.8,1.4,8.7,2.1
	c4,0.9,6.4,2.7,7,7.1c0.5,3.9,3.8,5.2,7.2,5.9c1.9,0.4,3.9,0.4,5.6,1.6c-1.9,1.8-4.4,1.5-6.6,1.7c-1,1-2.3,1.4-3.6,1.7
	c-6,0.8-12,0.2-17.9,0.4c-3.6,0.2-7.2,0.2-10.5,2.2c4.3,5.4,4.2,5.4,3.1,13c-1.2,8-2,16.2-4.2,24.1c-0.7,2.4-1.1,4.9-3.3,6.6
	c-1.8,1.2-3.8,1.3-5.8,1.3c-7.8,0.1-15.6,0.1-23.5,0c-2,0-4,0.1-5.6-1.6c0.8-8.8,3.2-17.4,4.6-26.1c0.3-2.1,1.8-4.3,0.1-6.5
	c-0.1-2,0.8-3.9,1.1-5.8c1.1-5.9,0.4-7-5.3-8.3c-2.1-0.5-4.3-0.5-5.9-2.2c-3.3-1.1-6.6-2.6-10.2-1.7C442.1,28.4,444.4,24,444.2,19.8
	z"/>
<path d="M495.9,82c3.2-9.3,4.6-19,5.7-28.8c0.3-3,1.3-5.8,1.8-8.5c-0.9-1.2-2.1-1.4-3.1-2c-1.3-0.9-3.8-1-3.3-3.1
	c0.4-1.9,2.6-2.4,4.5-2.6c4.6-0.6,9.2-1.1,13.9-1c4.5,0.1,9-0.1,13.5-0.1c1.6-0.7,2.7,0.5,3.9,1.1c1.6,0.5,3.1,1,3.3,3.2
	c0.6,6.2,4.6,8.8,10.5,9.2c1.1,0.1,2.2,0.7,4,1.2c-6.3,2.9-12.4,1.9-18.2,2.3c-6.3,0.4-12.7-0.2-18.9,1c-1.1,0.2-2.3,0.3-3.4,0.7
	c-1,0.4-2.3,0.9-2.2,2.3c0,1.2,1,1.7,1.9,2.1c0.7,0.4,1.5,0.8,2.2,1.1c2.3,0.7,2.2,2.2,1.9,4.2c-3.7,27.1-11.9,53.2-18.5,79.6
	c-2.6,10.3-4.2,20.8-6.4,31.3c-0.6,2.7-1,5.5-2.9,7.8c-2-0.2-2.3-2.4-3.9-3c-5.4,2.5-11,3.6-16.9,3.1c-2.1-0.2-4.4-0.6-6.4,0.4
	c-2.9,1.4-3.5-0.4-3.8-2.6c-0.5-4.8,0.2-9.3,2.7-13.4c4.1-4.3,9.6-4.3,14.8-4.3c2.5,0,3.2-0.5,3.7-2.4c0.7-3,1.3-6.1,2-9.1
	c0.9-4.2,1.7-8.5,2.5-12.7c1-4.9,2.1-9.8,3-14.7c0.9-3.8,2.2-7.5,3-11.3c1.5-5,2.7-10,4.1-15C492.7,92.5,492.8,86.8,495.9,82z"/>
<path d="M444.2,19.8c2.2,1.9,0.8,4.3,0.9,6.6c0.1,2,0.1,4,0.2,5.9c-0.9,3.5,0.2,5.4,4,6.3c5,1.2,5,1.5,3.7,6.9
	C446.5,75.1,441,104.9,438,135c-0.5,4.8-1.5,9.5-2.2,14.3c-0.6,3.8-1.5,7.4-4.8,10c-2.6,2-2.8,5.6-3.6,8.6c-0.8,2.9-1.1,5.9-1.7,8.8
	c-3.7,2.4-8.5,1.4-12.2,3.9c-4.8,1.6-7.9-2.6-10.8-4.6c-2.8-2-2.2-7.2-0.6-11c0.3-0.3,0.7-0.5,1.2-0.6c1.1-0.2,2.2-0.7,3.3-0.9
	c5-0.9,7.7-3.9,8-9c0.1-1,0.4-1.9,0.6-2.9c1-3.6,1.5-7.4,4.3-10.3c4.8-4.6,4.1-11.1,5.3-16.8c0.5-4.5,2-8.9,2-13.5c0.4-3,1.1-6,1-9
	c0.7-4.9,1.2-9.9,2-14.8c2-19.7,7.6-38.7,11.2-58.1c0.5-2.5,0.5-4.9-0.3-7.3C441.7,20.8,442.8,20.1,444.2,19.8z"/>
<path class="st67" d="M440.6,21.7c2.9,1.5,2.5,3.2,2,6.3c-2.8,15.5-7.4,30.6-9.6,46.2c-0.6,4.3-1.4,8.5-2.1,12.8
	c-0.8,0.9-1.9,1.3-3.1,1.4c-7.8,0.3-15.6,0.3-23.4,0c-1.2-0.1-2.3-0.5-3.1-1.4c6.4-24.7,12.7-49.5,20.5-73.9
	c2.3-7.3,7.4-8.7,13.9-10.8c-0.3,4.3-0.5,8.1-1,11.8C433.7,20.7,433.8,20.9,440.6,21.7z"/>
<path d="M492,282.9c-0.7-1.3-1.4-2.6-2-3.9c-0.1-0.4-0.1-0.7-0.2-1.1c-0.6-0.9,0-2.2-0.8-3c-0.1-2.8-0.7-5.5-2-8
	c-0.3-3.9-1.6-7.5-3-11.1c-2.4-2.4-1.9-5.7-2.8-8.6c-0.3-1.5-0.1-3,0.6-4.4c1.1-2,2.5-4,3.5-6.1c1.6-2.4,3.4-4.8,4.7-7.4
	c1.9-2.8,4.1-5.5,6.1-8.2c1.1-1.5,2.6-2.8,4.4-2.9c4.8-0.2,6.3-3.4,7.3-7.3c0.1-0.4,0.3-0.9,0.5-1.3c0.4-0.8,0.8-1.7,1.4-2.4
	c5.4-4.8,12.5-5.6,18.7-8.5c0.4-0.2,0.8-0.3,1.2-0.5c0.8-0.3,1.6-0.8,2.3-1.3c1.3-0.9,2.7-1.5,4.4-1.5c6.5-0.8,8.1,0.3,10.4,6.9
	c2.2,6.5,1.3,9.5-4,12.7c-4.5,2.6-9.4,4.2-14.2,5.8c-4.7,1.5-8.3,3.9-9.4,9.1c-0.7,3.5-2.4,6-6.7,5.9c-2.3,0-3.8,1.7-5.2,3.5
	c-4.9,6.3-9,13.2-13.1,19.9c-1.2,1.9-1.1,3.7-0.6,5.7c1.9,7.6,3.6,15.1,5.4,22.7c-2-1.3-4-2.6-6-3.9l0,0
	C492.7,283.7,492.3,283.3,492,282.9z"/>
<path d="M396.2,197.9c4.4-1.3,8.8-0.9,13.6-0.9c1,4.6,0.5,9.1-1.2,13.1c-7.3,17.5-8.5,36.4-12.6,54.7c-1.7,7.8-3.9,15.4-5.9,23.1
	c-1.7,2-4.6,2.3-6.3,4.4c-0.3,0.3-0.7,0.6-1,0.9c-0.4,0.3-0.8,0.5-1.2,0.7c-2.1,0.8-3.9,0.6-5.3-1.4c-0.2-0.5-0.4-1-0.5-1.5
	c-0.3-2.9-0.1-5.9-0.1-8.8c0.4-3.7,1.3-7.2,2-10.9c1-4.1,2.3-8,3.2-12.1c0.1-0.5,0.3-0.9,0.4-1.4c0.3-0.9,0.6-1.8,0.9-2.7
	c0.6-2.3,1.2-4.5,1.7-6.9c0.5-1.9,0.8-3.8,1-5.8c0.5-3.6,1.7-7.1,1.9-10.7c0.6-3.6,1.6-7.1,2-10.8c0.7-3.4,1.1-7,2-10.4
	c0.4-1.6,0.9-3.1,1.3-4.7c0.1-0.4,0.3-0.9,0.4-1.3c0.3-0.6,0.5-1.2,0.8-1.8C394.1,201.2,394.1,198.9,396.2,197.9z"/>
<path d="M378.8,104c-0.2,0-0.4,0-0.6,0c-1.1-0.4-0.6-1.6-1.2-2.2c-0.1-0.6-0.2-1.2-0.3-1.8c-0.4-0.7-0.2-1.5-0.7-2.2
	c-0.1-4-2.1-6.7-5.4-8.8c-1.4-0.9-3.5-1.6-2-4.1c4.1-4.1,8.2-8.2,12.3-12.3c8.4-8.4,11.3-18.8,11.7-30.3c0.2-4.8-0.6-9.6-0.8-14.4
	c7.3,4,9.6,11.2,10.8,18.6c1.3,7.2,0.9,14.6-0.1,21.8c-1.4,9.8-6.6,17.5-13.8,24.2C385.3,96.1,381.3,99.4,378.8,104z"/>
<path class="st19" d="M640.2,223.2c-2.2,4.3-5.1,8.1-8.2,11.8c-0.9,0.6-1.8,0.8-2.9,0.8c-18-0.4-36-0.1-54-0.2c-1,0-2-0.1-2.9-0.6
	c-0.3-4.4-0.2-8.8,1.5-13c1.8-1.4,4-1.5,6.2-1.5c17.6,0,35.1-0.1,52.7,0C635.4,220.5,638.4,220.3,640.2,223.2z"/>
<path class="st68" d="M377.2,292.8c1.5,0.9,3.1,0.8,4.6,0.1c11.7,1.1,23.5,0.4,35.2,0.6c2.4,0.1,5-0.4,7.1,1.6c-0.3,2.7,0.2,5.4-1,8
	c-1.9,1.7-4.3,1.6-6.6,1.6c-22.9,0-45.8,0-68.8,0c-2.3,0-4.7,0.2-6.6-1.6c-0.3-3.1,0.7-6,1.2-9c1.1-1.2,2.6-1.5,4.1-1.5
	C356.6,292.5,366.9,292.1,377.2,292.8z"/>
<path class="st69" d="M581,190c0.3-3.5-2.4-2-3.7-1.9c-7.3,0.7-14.7,1.6-22,2.4c-1.2,0.1-3.1,1.5-3.4-1.2c-0.1-0.3-0.3-0.6-0.3-0.9
	c-0.8-11.8-0.8-11.9,11-12c15.9-0.1,31.8-0.1,47.8,0c2.4,0,5-0.4,7,1.7c-0.1,2.1-1.6,3.8-1.4,6c0.7,2.5-0.7,3.9-2.7,4.9
	c-6.9,1.1-13.9,0.3-20.9,0.5c-3.5,0.1-7,0.1-10.4,0.8C581.6,190.1,581.3,190.1,581,190z"/>
<path class="st70" d="M640.2,223.2c-2.5-1-5.1-1.2-7.8-1.2c-19.5,0-39.1,0-58.6,0c0.5-4.1,1.5-8.1,3.3-11.9c1.9-1.7,4.3-1.5,6.6-1.5
	c7.7,0,15.5,0,23.2-0.1c0.9,0.1,1.5,0.6,1.8,1.5c0.2,1.3-0.3,2.4-0.7,3.6c-0.3,1-1.1,1.7-1.4,2.7c-0.1,0.5-0.4,1-0.7,1.4
	c0.1,0-0.2,0.2,0.1,0.1c0.2-0.3,0.4-0.6,0.6-0.9c0.1-0.4,0.3-0.8,0.6-1.1c0.4-0.2,0.9-0.3,1.4-0.4c0.5,0,1.1,0,1.6,0
	c9.9,0.5,19.8,0.1,29.7,0.2c1.8,0,3.6-0.5,5.3,0.6c-0.9,2.3-2.5,4.2-4.1,6C640.7,222.4,640.2,222.6,640.2,223.2L640.2,223.2z"/>
<path class="st71" d="M529.9,199c-3.5,2.6-7.7,3.3-11.7,4.9c-2.9,1.1-5.7,2.4-8.3,4.2c-0.6,0.6-0.5,1.5-0.9,2.1l0.1,0
	c-0.7,0.5-1.4,1-2.2,1.1c-10,0.7-20.1,0.6-30.1,0.1c-1.5-0.1-2.8-0.8-3.7-2.2c3.8-5.2,7-11.1,13.9-13c12.4-1.2,24.9-0.4,37.3-0.4
	C526.8,195.6,529.1,196.2,529.9,199z"/>
<path class="st8" d="M664,187.9c-0.2,0.2-0.5,0.4-0.9,0.4c-9.7-1.5-19.5-0.5-29.2-0.8c-2.6-0.1-5.4,0.5-7.4-1.9
	c-0.3-1-0.2-1.9,0.6-2.5c3.3-3.7,6.6-7.4,9.9-11.1c1.5-1.6,2.9-2.3,5.1-1c3.5,2,7.1,0.8,10.6-0.2c3.1-0.9,6.2-1.2,9.3-0.2
	c6.7,2.2,8.6,7.9,4.7,13.7c-0.6,0.9-1.3,1.9-1.9,2.8l0.1-0.1C664.7,187.3,664.4,187.6,664,187.9z"/>
<path class="st3" d="M494,318c-3.8-2.5-7.7-4.8-11.1-7.8c0.9-3.3,3.8-2.7,6-2.7c11.9-0.2,23.9-0.1,35.8-0.1c5.8,0,11.6,0,17.4-0.6
	c4,1.5,6.3,3.8,4.3,8.5c-0.2,0.4,0.4,1.1,0.6,1.7c-1.1,2.4-3.4,2.5-5.5,2.5c-15.2-0.1-30.4,0.6-45.6-0.4c-0.3,0-0.6-0.1-0.9-0.3
	C494.6,318.6,494.3,318.3,494,318z"/>
<path class="st72" d="M617.4,178.1c-20.4,0-40.9,0-61.3-0.2c-3.4,0-4.4,1.2-4.1,4.4c0.2,2.3,0,4.6-0.1,7c-1.4-4.1,0.5-8.6-1.8-13.1
	c24-3.7,47.7-8.4,72.5-11.2C621,170.1,619.2,174.1,617.4,178.1z"/>
<path class="st29" d="M572.3,235c1.6-1.2,3.4-1,5.3-1c15.9,0,31.8,0,47.7,0c2.4,0,4.6,0.5,6.8,1.1c-1.3,2.6-2.8,5-4.9,7
	c-1.7,2.3-4.2,2.5-6.7,2.5c-15,0.1-29.9,0.1-44.9,0c-2,0-4,0-5.6-1.6C570.2,240.2,571.5,237.6,572.3,235z"/>
<path class="st73" d="M495.9,82c-0.9,5.4-2.1,10.8-4,16c-4.7,2.3-29.2,2.3-33.9,0c0.2-4.1,1.2-8.1,2.2-12c0.7-0.9,0-2.1,0.8-3
	c0,0,0,0,0,0c9.9,0,19.8,0,29.7,0C492.5,83,494.3,83.1,495.9,82z"/>
<path class="st74" d="M458,98c11.3,0,22.6,0,33.9,0c-1,5.1-2.5,10.1-4.1,15c-1,1-2.3,1.4-3.6,1.4c-8.1,0.2-16.2,0.3-24.3,0
	c-1.9-0.1-3.5-0.8-4.7-2.4C455.9,107.3,456.5,102.6,458,98z"/>
<path class="st75" d="M341.1,303c27.3,0,54.6,0,82,0c-0.1,1.7-0.1,3.4-0.2,5c-1.9,1.3-4.2,0.9-6.3,0.9c-25.2,0-50.3,0-75.5,0
	c-0.9-1.7-0.5-3.4-0.2-5.2C340.8,303.5,340.9,303.3,341.1,303z"/>
<path class="st23" d="M484.8,124c-0.8,5-1.5,10.1-3,15c-1.3,1.3-2.9,1.5-4.6,1.5c-7.1,0.1-14.2,0.1-21.4,0c-2.2,0-4.3-0.5-5.7-2.5
	c0.6-4.7,1.4-9.4,2.8-14c0.5-0.4,1.1-1,1.7-1C464.8,122.5,474.8,121.3,484.8,124z"/>
<path class="st76" d="M401.2,87c9.9,0,19.7,0,29.6,0c-0.4,5-0.8,10.1-1.9,15c-0.5,0.5-1,1-1.6,1c-9.5,0.9-19,0.9-28.5,0
	c-0.6-0.1-1.2-0.6-1.7-1C397.3,96.7,399.7,92,401.2,87z"/>
<path class="st9" d="M479.1,152c-0.6,4.9-1.5,9.7-4.2,14.6c-2.5-3.7-4.7-3.1-8-1.7c-2.7,1.1-6.2,0.9-9.1,2.4
	c-3.1-2.2-6.6-1.9-9.8-0.9c-2.9,0.9-3.7-0.3-3.8-2.6c-0.3-4.1-0.5-8.2,2.1-11.9c1.1-0.7,2.3-1.4,3.6-1.4c8.8-0.2,17.5-0.4,26.3,0.1
	C477.2,150.7,478.3,151.1,479.1,152z"/>
<path class="st70" d="M473.2,209c2.8,1.2,5.8,1,8.8,1c9.1,0,18.2,0.1,27.2,0.1c-0.1,2.2-1.2,4-1.9,6c-0.6,1.7-1.7,2.8-3.6,2.7
	c-2.8-0.1-5,1.2-6.9,3.1c-2.7,1.5-5.5,0.5-8.2,0.5c-6.9,0.1-13.8,0.1-20.7,0c-2.3,0-4.7,0.3-6.5-1.5c2.4-5.1,7-7.9,11.2-11.1
	c0.1-0.4,0.3-0.6,0.6-0.7L473.2,209z"/>
<path class="st6" d="M529.9,199c-1.8-1.6-3.9-2-6.4-2c-10.2,0.1-20.5,0-30.7,0.1c-2,0-4,0.2-5.8-1c3.9-3,7.9-6.1,11.8-9.1
	c2.4-1.2,5-1.6,7.7-1.6c7.6,0,15.2,0,22.8,0c2.3,0,4.7-0.1,6.6,1.6c1.9,2.8,0.4,5.7,0.4,8.5c-1.5,0.8-3,1.6-4.6,2.4
	C531.4,198.7,530.5,198.4,529.9,199L529.9,199z"/>
<path class="st2" d="M621.7,250c-0.6,2,0.5,3.9,0.3,5.9c0.9,3.6-2,3.3-3.9,3.5c-4,0.5-8,0.2-11.9,0.2c-11.1,0-22.3,0.1-33.4,0
	c-2.8,0-5.8,0.2-7.7-2.6c0.4-2.5,1.4-4.8,2.5-7.1c2-1.5,4.3-1.5,6.7-1.5c13.6,0,27.2,0,40.8,0C617.4,248.4,619.9,248.1,621.7,250z"
	/>
<path class="st77" d="M593,272c-0.3-1.2-0.5-2.6-1.5-3.5c-0.9,1.1-0.2,2.7-1.3,3.6c-1,0.7-2,1.2-3.2,1.3c-7.9,0.2-15.8,0.5-23.6-0.2
	c-1.2-0.1-2.3-0.5-3.2-1.1c0.3-2.1,1-4.1,2-6c1.4-2.4,3.8-2.5,6.1-2.5c16.7-0.1,33.4-0.1,50.1,0c2,0,4,0.1,5.6,1.6
	c1,1.5,1,3.2,1.1,4.8c1,2.3-0.7,3.2-2.3,3.3c-9.4,0.7-18.7,0.9-28.1-0.2C594,272.9,593.5,272.4,593,272z"/>
<path class="st78" d="M425.8,125c-0.1,4.1-1.2,8.1-2,12.1c-0.4,2.2-2,3.7-3.9,4.8c-8.4,1.2-16.7,0.5-25.1,0.3c-1,0-1.9-0.5-2.6-1.3
	c0.7-4.7,1.3-9.4,2.8-14c1.8-1.6,4-1.5,6.1-1.5C409.3,125.4,417.6,125.7,425.8,125z"/>
<path class="st1" d="M382.2,258.2c-0.5,4.4-2,8.6-3.4,12.8c-4.6,2.3-27.2,2.3-31.9,0c0.4-4.5,1.4-8.8,3-13c0.9-0.7,1.9-1.3,3.1-1.4
	c8.7-0.4,17.4-0.4,26.1,0C380.3,256.7,381.4,257.1,382.2,258.2z"/>
<path class="st79" d="M479.1,152c-11,0-22,0-33,0c1.8-4.5,3.3-9.2,4-14c4,1.5,8.2,0.9,12.3,1c6.5,0.1,12.9,0,19.4,0
	C481.3,143.4,480.6,147.8,479.1,152z"/>
<path class="st80" d="M624,265c-18.7,0-37.4,0-56.1,0c-2,0-4-0.3-5.8,1c0.7-3.1,1.6-6.1,3-9c2.4,0.8,4.8,1,7.3,1
	c14.9-0.1,29.9,0,44.8-0.1c1.7,0,4.2,1.1,4.8-2c1.3,1.4,0.8,3.2,1,4.9c0.7,0.9,0.1,2.2,0.8,3.2C623.9,264.3,624,264.7,624,265z"/>
<path class="st81" d="M397.1,102c10.6,0,21.2,0,31.8,0c0.3,3.1-0.3,6.1-1,9c0.1,3.9-1.9,5.6-5.8,5.5c-6.6-0.1-13.2,0-19.8,0
	c-1.8,0-3.7-0.1-5.1-1.5C396.7,110.7,395.6,106.3,397.1,102z"/>
<path class="st19" d="M440.8,223c-0.2,3.7-0.6,7.5-1.7,11.1c-0.8,0.6-1.7,1.2-2.7,1.2c-10.4,0.2-20.8,0.9-31.2-0.3
	c0.2-4.6,2-8.8,3.9-13c1.5-1.3,3.3-1.5,5.1-1.5c6.8-0.1,13.6-0.1,20.4,0C437,220.5,439.3,220.9,440.8,223z"/>
<path class="st82" d="M621.7,250c-18,0-36-0.1-54-0.1c0.4-2.4,1-4.8,2.3-6.9c17,0,33.9,0,50.9,0c2.2,0,4.3,0.1,6.3-1
	C625.8,245,623.7,247.4,621.7,250z"/>
<path class="st28" d="M346.9,271c10.6,0,21.2,0,31.9,0c-0.7,3.7-1.3,7.4-2,11c-0.3,0.9-0.9,1.6-1.9,1.9c-8.7,1.1-17.4,0.5-26,0.4
	c-1.9,0-3.5-0.7-4.6-2.4C345.1,278.3,345.4,274.5,346.9,271z"/>
<path class="st19" d="M389.8,221c-0.2,3.8-0.9,7.4-2,11c-0.4,1.7-1.3,3.1-3.3,3.2c-9.2,0.3-18.4,0.8-27.6-0.3
	c-0.6-0.1-1.2-0.5-1.7-0.9c1-4,2-8,3-12c0.7-0.7,1.6-1.3,2.6-1.3C370.5,220.5,380.2,219.9,389.8,221z"/>
<path class="st70" d="M440.8,223c-4-1.5-8.2-0.9-12.3-1c-6.5-0.1-13,0-19.5,0c0.7-4.1,2.9-7.8,3.1-12c0.7-0.8,1.6-1.3,2.6-1.3
	c9.7-0.2,19.4-0.9,29.1,0.3C442.9,213.7,441.8,218.3,440.8,223z"/>
<path class="st83" d="M495.8,319.1c1.9-1.3,4.1-1.1,6.2-1.1c13,0,26.1,0,39.2,0c2,0,4,0.1,5.8-1c0.3-0.1,0.6-0.1,0.9,0
	c1.1,1,1.2,2.2,0.8,3.5c-0.3,0.8-1,1.1-1.6,1.5c-3.3,3.4-7.2,4.8-12,5c-12.9,0.4-25.6,0-37.2-6.6
	C497.2,320.1,496.5,319.6,495.8,319.1z"/>
<path class="st84" d="M542.1,306.8c-1.7,2.4-4.3,2.2-6.7,2.2c-15.8,0-31.6,0-47.4,0c-1.7,0-3.7-0.7-5.1,1.1c-0.3-0.2-0.6-0.3-1-0.5
	c-0.4-0.2-0.6-0.4-0.8-0.7l-0.1-0.1c-0.4-0.3-0.7-0.6-1.1-0.9l0,0c-0.3-0.5-0.7-0.8-1.3-1c-0.3,0-0.5-0.1-0.7-0.3
	c-0.3-0.2-0.7-0.5-0.9-0.8c-1.1-0.4-2.2-0.9-2.9-2c9.2-1.8,18.5-0.7,27.8-0.9c8.5-0.2,17-0.1,25.4,0c2,0,4,0,5.8-1.1
	C536.4,303,539.4,304.6,542.1,306.8z"/>
<path class="st71" d="M607.9,209c-1.6,1.1-3.4,1-5.2,1c-8.5,0-17.1,0-25.6,0c0.4-2,0-3.5-2.4-3.5c1.5-2.6,3.5-5,4.1-8.1
	c0.3-1.6,1.1-3.2,3.4-2.5c6.9,1.3,13.8,0.4,20.7,0.7c2.6,0.1,5.3-0.3,7.8,0.9C612.3,201.6,611.3,205.7,607.9,209z"/>
<path class="st26" d="M397.1,115c8.3,0,16.5-0.2,24.8,0.1c3.4,0.1,5.1-1,5.9-4.1c0,4.8-1,9.4-2,14c-1.2,2-3.1,2-5.1,2
	c-8.6-0.1-17.1,0-25.7,0C395.1,122.9,396.2,119,397.1,115z"/>
<path class="st24" d="M344.3,282c3.3,1.4,6.8,1,10.3,1c7.1,0,14.3,0,21.4,0c1.3,2.9-0.2,6.1,0.9,9c0.2,0.2,0.3,0.5,0.3,0.8
	c-1.3,1.9-3.3,1.2-5,1.2c-10,0.1-19.9,0-29.9,0C342.9,290,343.6,286,344.3,282z"/>
<path class="st85" d="M443.9,209c-1.6,1.1-3.5,1-5.3,1c-8.8,0-17.6,0-26.4,0c-0.3-3.7,0.4-7.4,0.9-11c1.6-1.5,3.6-1.6,5.6-1.6
	c7.9-0.1,15.8-0.1,23.8,0.1c2.1,0.1,4.9-0.7,5.6,2.6l0,0c-0.5,0.3-0.8,0.7-1,1.2c0,0.3-0.1,0.6-0.4,0.8c-0.2,0.4-0.4,0.9-0.6,1.3
	C445.4,205.2,444.6,207.1,443.9,209z"/>
<path class="st26" d="M484.8,124c-2.7,2.2-5.4-0.3-8.1-0.1c-7.9,0.3-15.8,0.1-23.7,0.1c0.2-4.1,1.3-8,2.2-12c3.7,1.4,7.5,1,11.3,1
	c7.1,0,14.2,0,21.4,0C487.1,116.7,486.2,120.4,484.8,124z"/>
<path class="st24" d="M424.1,295c-11.8,0-23.6,0-35.5,0c-2.5,0-5,0-6.8-2.2l0.1,0.1c0.6-0.2,0.8-0.7,1.1-1.2
	c1.6-2.7,4.3-3.5,7.2-3.9c2.1-0.5,4.8,1.3,6.1-1.8c1.7-1.7,3.9-1.5,6-1.5c8.2-0.1,16.4,0.2,24.6-0.5
	C426.4,287.8,425.5,291.5,424.1,295z"/>
<path class="st25" d="M433.1,259.1c-0.2,3.1-1,6-2.2,8.9c-0.5,2-1.8,3.2-3.8,3.3c-8.1,0.4-16.3,0.4-24.4-0.1c-1-0.1-1.9-0.6-2.6-1.3
	c-0.2-2.8,0.7-5.4,1.2-8c0.2-2.1,0.8-4.1,3.3-4.2c9-0.4,18.1-0.8,27.1,0.2C432.2,258.1,432.7,258.6,433.1,259.1z"/>
<path class="st86" d="M584.8,293c-0.9,4.1-2.5,8-3.9,11.9c-1.1,1.1-2.6,1.5-4.1,1.5c-7.2,0.2-14.5,0.2-21.7,0
	c-1.5,0-2.9-0.4-4.1-1.5c0.3-3.9,1.4-7.5,3-11c0.8-0.6,1.6-1.2,2.6-1.3C566,292.5,575.4,291.9,584.8,293z"/>
<path class="st29" d="M405.2,235c1.4-1,3.1-1,4.7-1c9.7,0,19.4,0,29.2,0.1c-0.1,2.4,0,4.8-1.3,7c-0.7,0.9,0,2.1-0.8,3l0,0
	c-11,2.6-22.1,2.6-33.1,0C403.7,240.9,404.5,237.9,405.2,235z"/>
<path class="st87" d="M461.2,221c9.6,0,19.1,0,28.7,0c2.3,0,4.6,0.3,6.8,1c-1.9,2.7-3.9,5.3-5.8,8c-1.5,1.1-3.3,1.5-5.2,1.5
	c-7.5,0.1-14.9,0.1-22.4,0c-2.3,0-4.7-0.2-6.2-2.5C458.1,226.1,459,223.2,461.2,221z"/>
<path class="st70" d="M389.8,221c-1.6,1.1-3.4,1-5.3,1c-8.8,0-17.6,0-26.3,0c0.7-3.4,1.2-6.9,2.7-10c1.8-1.5,4-1.5,6.1-1.5
	c8.2-0.1,16.5,0.2,24.7-0.4C391.3,213.7,391,217.5,389.8,221z"/>
<path class="st6" d="M398,190.1c0,2.5-0.6,4.9-2,7c-9.5,0.9-18.9,0.3-28.4,0.3c-1.4,0-2.6-0.5-3.6-1.4c-0.4-1.4-0.4-3-1.1-4.2
	c-1.6-2.9,0.1-3.9,2.2-4.8c5.1-1.9,10.4-1.5,15.7-1.6c4.3-0.1,8.6-0.3,12.9,0.2C396.4,185.9,398.8,186.5,398,190.1z"/>
<path class="st88" d="M551,305c9.9,0,19.9,0,29.8,0c-1,3.3-2,6.7-3,10c-1.6,1.6-3.7,1.4-5.6,1.5c-4.3,0.1-8.7,0.2-13,0
	c-3.6-0.2-6.9,0.4-9.8,2.8c-1.2-0.5-0.9-1.4-0.4-2.2c0.4-3,0.8-6,1.3-9c0.3-0.7,0.3-1.6,0.6-2.3C550.7,305.4,550.7,305.2,551,305z"
	/>
<path class="st89" d="M355.3,234c9.1,0,18.3,0,27.4,0.1c2,0,3.9,0,5.2-2c-0.1,3.7-0.9,7.4-2,11c-0.3,0.2-0.5,0.6-0.8,0.6
	c-10.7,1.2-21.3,2.1-31.9-0.6C353.9,240,354.6,237,355.3,234z"/>
<path class="st79" d="M392.2,141c7.5,0,14.9,0,22.4,0c1.8,0,3.7-0.1,5.3,1c-2.3,3-2.6,6.8-4,10.1c-1.7,1.7-3.9,1.5-6,1.5
	c-6.5,0.1-13.1-0.1-19.6,0.5C389.8,149.5,391.2,145.3,392.2,141z"/>
<path class="st90" d="M400,270c8.6,0,17.1,0,25.7,0c2.1,0,3.9-0.1,5.2-2c-0.4,3.8-1.4,7.5-2.9,11c-1.3,1.2-2.9,1.5-4.6,1.5
	c-6.9,0.1-13.8,0.1-20.7,0c-1.7,0-3.3-0.2-4.6-1.5C398.6,276,398.9,272.9,400,270z"/>
<path class="st91" d="M413.4,180.6c2.9-4.9,8-3,12.2-3.9c2.6,4.1,7,6.4,10.3,9.7c1.3,1.3,2.6,2.5,3.9,3.7c-2.4,2.7-5.7,2.3-8.8,2.4
	c-5.9,0.3-12-0.8-17.7,1.5C413.3,189.5,413.3,185,413.4,180.6z"/>
<path class="st37" d="M580.9,195.7c-0.7,2.3-1.6,4.6-2.1,7c-0.5,2.4-1.9,3.5-4.1,3.8c-2.1,0.2-4.3,0.5-6.4,0.7
	c-5.7,0.6-5.7,0.6-5.8-5.3c0-2.8,0.3-5.6-1.5-8.7c6.8-1.1,13.4-2.1,20-3.2l0,0.1C582.6,192,582.6,193.9,580.9,195.7z"/>
<path class="st92" d="M390.2,154c1.1-1.7,2.7-2,4.7-2c7,0.1,14,0,20.9,0c-0.3,1.8-0.6,3.6-0.7,5.4c-0.2,3.4-1.9,5.5-5.3,6.1
	c-2.3,0.4-4.3,2.4-6.9,1.6c-0.3-0.4-0.3-1.1-0.8-1.4c-0.6-0.3-1,0.2-1.6,0.2c-1.5,0.1-3.1-0.1-4-1.4c-1.1-1.6-2.3-2.1-4.2-2.7
	C390.1,159.1,390,156.3,390.2,154z"/>
<path class="st93" d="M413.3,193.9c0.8-2.3,2.3-3,4.8-3c7.3,0,14.6,0.8,21.8-0.9c2.9,2.4,5.9,4.8,8.8,7.2c1.8,1.4,0.6,2.1-0.6,2.8
	c-1.4-1.7-3.4-1-5.1-1c-10-0.1-19.9,0-29.9,0C413.1,197.3,413.2,195.6,413.3,193.9z"/>
<path class="st33" d="M433.1,259.1c-9.1,0-18.1,0-27.2-0.2c-2.6-0.1-3.9,0.9-4.8,3c0.4-3.7,0.5-7.4,1.8-11c1.8-1.5,4-1.5,6.1-1.5
	c8.9-0.1,17.9,0.2,26.8-0.4c0.2,1.5-0.4,2.7-1,4c-0.7,0.9,0,2.1-0.9,2.9c-0.1,0.4-0.1,0.7-0.2,1.1
	C433.4,257.7,433.5,258.5,433.1,259.1L433.1,259.1z"/>
<path class="st2" d="M382.2,258.2c-10.7-0.1-21.5-0.1-32.2-0.2c-0.2-2.1,0.6-4.1,1.2-6c0.4-2,1.7-3.3,3.8-3.3
	c9.9-0.1,19.9-0.8,29.8,0.4c-0.4,2.4-0.8,4.8-1.9,7C382.4,256.6,382.5,257.5,382.2,258.2L382.2,258.2z"/>
<path class="st94" d="M364.1,196c9,0,18,0,26.9,0c1.7,0,3.7-0.7,5.1,1.1c0.1,0.3,0.2,0.5,0.1,0.8c-0.8,2-1.6,4.1-2.5,6.1
	c-0.2,0.4-0.5,0.7-0.7,1.1l0.1,0c-10,0.3-20.1,1.9-30-1.1C363.7,201.4,364.2,198.7,364.1,196z"/>
<path class="st24" d="M584.8,293c-1.6,1.1-3.5,1-5.3,1c-8.5,0-17,0-25.5,0c0.1-2.8,1.4-5.4,2.3-8c1.4-1,2.9-1.5,4.6-1.5
	c7.3-0.1,14.6-0.2,21.8,0c1.5,0,3,0.2,4.1,1.5C586.7,288.5,585.5,290.7,584.8,293z"/>
<path class="st95" d="M363.2,204c7.3,0,14.5,0.1,21.8,0c2.8,0,5.6,0.2,8.2,1.2c-0.1,1.7-0.5,3.4-1.4,4.9c-1.2,2-3.1,2-5.2,2
	c-8.6-0.1-17.1,0-25.7,0c-0.1-1.8,0.8-3.4,1.3-5c0.4-0.6,0.2-1.4,0.8-2C363,204.7,363.1,204.3,363.2,204z"/>
<path class="st82" d="M384.8,249c-1.6,1.1-3.4,1-5.2,1c-7.7,0-15.5,0-23.2,0c-2,0-3.9,0-5.2,2c0.3-3.1,1.2-6,2-9
	c10.9,0,21.8,0,32.7,0C386.2,245.1,385.4,247.1,384.8,249z"/>
<path class="st38" d="M435.8,249c-1.2,2-3.1,2-5.2,2c-9.2-0.1-18.5,0-27.7,0c0-2.4-0.2-4.8,1-7c11,0,22.1,0,33.1,0
	C437.1,245.8,436.7,247.5,435.8,249z"/>
<path class="st96" d="M536,187c-12.4,0-24.7,0-37.1,0c3.4-3.4,7.9-4.8,12.4-5.8c4-0.9,8.1-1.5,12.2-2.3
	C531.9,177.2,533.8,178.5,536,187z"/>
<path class="st90" d="M560.2,272c2.4-1.7,4.8,0.2,7.2,0.1c7.6-0.2,15.2-0.1,22.8,0c0,2.4-0.5,4.7-1.4,6.9c-0.6,0.6-1.3,1.1-2.1,1.2
	c-8.8,0.7-17.6,0.7-26.4,0c-0.8-0.1-1.5-0.6-2.1-1.2C558.3,276.5,559.1,274.2,560.2,272z"/>
<path class="st39" d="M558.1,279c10.2,0,20.4,0,30.6,0c-0.4,2.4-0.8,4.8-1.9,7c-10.2,0-20.4,0-30.5,0
	C556.9,283.7,557.5,281.3,558.1,279z"/>
<path class="st39" d="M398.2,279c10,0,19.9,0,29.9,0c0.1,1.8-0.3,3.5-1.2,5c-1.2,2-3.2,2-5.2,2c-8.5-0.1-16.9,0-25.4,0
	C396.9,283.7,397.5,281.3,398.2,279z"/>
<path class="st97" d="M457.2,229c3.3,1.3,6.8,1,10.3,1c7.8,0,15.6,0,23.4,0c-1.2,2.6-2.7,5-4.6,7.1c-10.5,0.6-20.9,0.9-31.4-0.3
	c-1.6-0.9-1.1-1.9-0.1-2.9C455.6,232.3,456.4,230.6,457.2,229z"/>
<path class="st98" d="M607.9,209c1.6-3.5,2.3-7.2,2.9-11c-0.8-3.9,0.7-7.1,3.1-10c0.7-1.3,1.4-2.6,2-3.9c3.8-0.2,7.5-1.6,11.4-1
	c-0.1,0.6-0.3,1.2-0.4,1.7c-0.9,4-3.9,6.9-5.9,10.3c-0.4,0.6-0.7,1.1-1.1,1.7c-0.2,0.4-0.4,0.8-0.7,1.2c-2.8,3.9-5.2,8.1-7.6,12.3
	c-0.7,1-1.6,1.9-2.8,2.2c-0.8-0.2-1.4-0.5-0.9-1.4C607.9,210.2,607.9,209.6,607.9,209z"/>
<path class="st99" d="M455.6,34c3.3,0.1,6.5,0.9,9.6,1.9c2.8,0.9,4.6,2.9,3.4,6c-1.1,2.8-0.1,6.3-3,8.5c-0.5-0.1-1-0.2-1.5-0.3
	c-7.8-1.5-8-1.5-7.4-9.5C456.9,38.2,454.4,36.5,455.6,34z"/>
<path class="st96" d="M398,190.1c-0.2-3-2.3-3.1-4.6-3.1c-9.4,0-18.8,0-28.2,0c0.2-1.3,0.8-2,2.3-2.1c6.7-0.2,12.9-2.5,19.3-4.2
	c4.1-1.1,8.1-0.5,12.4-0.7C399,183.8,399.7,187,398,190.1z"/>
<path class="st0" d="M461,82.9c0,1.1,0.3,2.2-0.8,3C460,84.8,460.1,83.8,461,82.9z"/>
<path class="st100" d="M402,163c0.9,0.4,1,1.2,0.9,2.1c-0.3,0-0.6,0-0.9-0.2c-0.1-0.3-0.2-0.6-0.3-1
	C401.6,163.6,401.7,163.3,402,163z"/>
<path class="st86" d="M550.9,305.7c0.1,0.9,0.2,1.7-0.6,2.3C550.1,307.1,550.2,306.3,550.9,305.7z"/>
<path class="st94" d="M363,205c0,0.8-0.1,1.5-0.8,2C362.1,206.1,362.4,205.5,363,205z"/>
<path class="st24" d="M511.2,294.9c-0.6-0.1-1-0.5-1.1-1.1C510.7,294,511,294.4,511.2,294.9z"/>
<path class="st71" d="M473.1,209.2c-0.2,0.2-0.4,0.5-0.6,0.7C472.6,209.7,472.8,209.4,473.1,209.2z"/>
<path class="st93" d="M446.1,203.3c0.2-0.4,0.4-0.8,0.6-1.3c0,0.3,0,0.7,0,1C446.6,203.2,446.4,203.3,446.1,203.3z"/>
<path class="st93" d="M447.1,201.2c0.1-0.6,0.4-1,1-1.2C447.7,200.4,447.4,200.8,447.1,201.2z"/>
<path class="st10" d="M338.7,308c-0.2-0.4-0.4-0.8-0.6-1.3C338.6,307,338.8,307.4,338.7,308z"/>
<path class="st74" d="M232.9,99c-0.6,4.8-1.5,9.4-3,14c-1.9,1.8-4.3,1.6-6.6,1.6c-16.7,0-33.4,0.1-50.1,0c-2.7,0-5.8,0.4-7.5-2.7
	c1.9-4.9,4.3-9.5,7-14c1.9-1.4,4.1-0.6,6.2-0.6c6.1,0.1,12.5,1.8,18.1-2.4c2.8,0.2,5.3,1.9,8.3,1.6c6.6,0,13.3,0,19.9,0.1
	C227.9,96.6,230.8,96.6,232.9,99z"/>
<path d="M199.6,143.7c-3.5,2-5.2,5.4-6.7,8.9c-2.1,5-4.2,10.1-6.4,15c-1.4,3.1-3.4,5.5-7.3,3.3c-0.4-0.2-1.1-0.4-1.4-0.3
	c-5.7,2.7-7.3-2.8-10.4-5.2c-1.2-1-1.5-2.8-0.6-4.6c1-1.9,1.7-3.9,2.6-5.9c6.8-3.9,7.7-11.3,10.6-17.6c2.3-6.2,5.5-11.4,12.4-13.3
	c1.1-0.3,2.1-0.4,3.3-0.4c5.2,0.2,5.7,3.9,5.9,7.9c-0.1,2.2-0.1,4.3-0.1,6.5c0,0.5,0,1,0,1.6C201.1,141.2,201,142.7,199.6,143.7z"/>
<path class="st26" d="M195,124.8c-0.9,0.1-1.9,0.2-2.8,0.3c-9.8,1.6-19.7,0.2-29.5,0.3c-1.2,0-2.3-0.5-3-1.4c1.6-4.2,3.6-8.2,6-12
	c1.9,1.2,4.1,1.1,6.3,1.1c19.3,0,38.6,0,57.9,0c0.2,1.8-0.4,3.4-1,5c-1,8.4-1,8.4-9.8,8.5c-5,0-10-0.2-14.9,0.3
	c-1.7,0.2-3.3,0.4-4.6-1.2C198.3,123.9,196.7,124.5,195,124.8z"/>
<path class="st19" d="M195,233.2c-0.3,2.2-2.1,1.8-3.5,1.8c-12.8,0-25.5,0-38.3,0.1c-1.9,0-3.5-0.9-5.3-1.1c2-2.2,4.7-1.2,7-1
	c3.8,0.3,5.9-1.4,7.4-4.5c1.1-2.2,2.4-4.3,3.6-6.5c1.5-1.3,3.3-1.5,5.1-1.5c6.3-0.1,12.5-0.1,18.8,0c2.3,0.1,4.7,0.2,6.1,2.5
	c-0.4,3.4-3.3,5.7-3.9,9c0.4,0.4,0.8,0.7,1.3,0.9C193.8,233,194.4,233.1,195,233.2z"/>
<path class="st17" d="M172,198.9c1.5-1.5,3.8-1.7,5.5-1.7c13.5-0.3,27-0.8,40.4,1.8c-4.5,2.1-9.4,1-14.1,2c-1.3,0.3-2.6,0-5.1,0
	c4.6,3.2,4.7,6.5,2.3,10c-10.3,0.9-20.6,0.8-30.8,0c0-0.7,0.1-1.4,0.1-2c-0.3-2.2,0.8-3.6,2.4-4.8c0.5-1.3,1.4-2.6,1.4-4.1
	c-0.4-0.3-0.7-0.7-1.1-1l-0.5,0L172,198.9z"/>
<path class="st20" d="M18.9,210.8c10.7,0.1,21.3,0.2,32,0.1c2.9,0,5.6,0.2,8.3,1.1c-0.2,6.3-2.9,8.1-12.5,10.9
	c-9.6-0.8-19.3-0.2-28.9-0.4c-2.4-0.1-5.1,0.4-7-1.6c1.9-3.3,4.2-6.4,7.1-9C18.3,211.7,18.7,211.4,18.9,210.8L18.9,210.8z"/>
<path class="st70" d="M170.2,211c1.4-1,3.1-1,4.8-1c7.1,0,14.2,0,21.3,0c1.7,0,3.3,0.1,4.8,1c-0.8,3.6-2.3,6.9-4.1,10
	c-0.5,0.5-0.3,1.4-0.9,1.9l0,0.1c-5.5-1.7-11.1-0.8-16.7-1c-4.4-0.1-8.9,0-13.3,0C166.9,218.1,168.5,214.5,170.2,211z"/>
<path class="st101" d="M180.8,138c-1.6,4.8-3.3,9.5-5.9,13.9c-1.3,2.2-2.9,3.4-5.6,3.1c-1.1-1.4-2.5-1.5-4-0.9
	c-2.2,0.9-3.6,0-5.1-1.6c-6.2-6.3-6.3-6.3-1.1-15.5C164.8,134.3,177.3,134.8,180.8,138z"/>
<path class="st73" d="M197.8,95c-1.1,3.4-3.9,4-7,4c-6,0-12.1,0.3-18.1-1.1c1.7-4.5,4-8.8,6.4-12.9c0.3-0.4,0.7-0.8,0.7-1.3
	c-0.1-0.3,0-0.5,0.2-0.7c4.8,0,9.6,0,14.4,0c2,0,4,0.1,5.7,1.1C201.4,88.2,200.6,91.8,197.8,95z"/>
<path class="st23" d="M180.8,138c-3.6-1.9-7.5-0.7-11.2-0.9c-3.5-0.2-7,0-10.4,0c-0.1-1.6-0.2-3.3-0.8-4.9c-1.2-3-0.8-5.8,1.4-8.2
	c10.8,0.4,21.7-0.5,32.5,1.2C185.8,127,183.2,132.4,180.8,138z"/>
<path class="st79" d="M199.6,143.7c0.2-1.2,0.4-2.5,0.6-3.7c1.1-1.1,2.6-1.4,4.1-1.5c6.2-0.2,12.5-0.2,18.7,0c1.5,0,3,0.3,4,1.5
	c0,4.1-0.8,8.1-2.1,12c-0.7,1.5-2,2.2-3.6,2.3c-7.4,0.2-14.7,0.8-22.1-0.3C198.6,150.5,200.3,147.2,199.6,143.7z"/>
<path class="st102" d="M32.1,246.9c-1.2,1.7-3,1.1-4.6,1.1c-8.8,0.1-17.5,0-26.3,0c0.6-3.7,1.2-7.3,1.9-11c0.3-0.2,0.5-0.5,0.8-0.6
	c10.2-1.4,20.4-2,30.5,0.4C36.6,240.8,34,243.8,32.1,246.9z"/>
<path class="st92" d="M199.2,154c2.7-1.7,5.8-0.7,8.7-1c5.7-0.5,11.4,1.1,17-1c-1.7,4.6-3.3,9.2-5,13.9c-0.6,1.8-2,2.5-3.8,2.4
	c-2-0.1-4-0.3-5.9,0.5c-1.9-1.3-4.2-0.6-6.2-1.2c-3.2-1-5.2-2.5-4.9-6.3C199.3,158.9,199.2,156.4,199.2,154z"/>
<path class="st97" d="M34.9,238c-1.8-1.2-3.8-1-5.7-1c-8.7,0-17.4,0-26.1,0c1.9-2.7,1.4-6.2,3-9c0.4-0.3,0.8-0.7,1.3-0.7
	c10.9-1.1,21.9-2,32.8,0.5C41.8,231.4,39.6,235.7,34.9,238z"/>
<path class="st69" d="M98,185.9c-0.9,2.1-2.7,2.1-4.6,2.1c-13.6,0-27.2-0.1-40.8,0c-2.4,0-4.5-1.3-6.8-1.1c0.8-1.2,1.9-1.8,3.2-2.2
	c10.6-3.6,21.3-5.8,32.6-4.8c2.9,0.2,4.4,2.6,7.1,3.3C91.8,184,95.3,183.8,98,185.9z"/>
<path class="st103" d="M41.1,229c-4.1-1.5-8.5-1-12.7-1c-7.4,0-14.9,0-22.3,0c1.1-2.7,2.7-5,4.6-7.1c9.8,0,19.5,0.1,29.3,0.1
	c2.7,0,5.3,0.1,7.8,1C47.6,226.2,44.9,228.1,41.1,229z"/>
<path class="st104" d="M172.6,204.1c-0.5,1.7-1.2,3.4-2.4,4.8c-2.5,0-4.9,0-8.2,0C165,204.8,169,204.9,172.6,204.1z"/>
<path class="st105" d="M139.1,235c0.9-0.1,1.7-0.1,2.2-1c0.2-0.3,0.5-0.4,0.8-0.1c0.3,0.3,0.7,0.6,1,0.9c-0.7,0.7-1.4,1.4-2.2,2.1
	c-0.3-0.3-0.6-0.3-0.8,0C139,236.7,139,235.9,139.1,235z"/>
<path class="st17" d="M18.9,210.8c-0.1,0.6-0.5,1-1.1,1.1C18.2,211.6,18.6,211.2,18.9,210.8z"/>
<path class="st6" d="M172.9,199c0.4,0.3,0.7,0.7,1.1,1C173.6,199.7,173.3,199.4,172.9,199z"/>
<path class="st106" d="M142,233.9c-0.3,0-0.5,0.1-0.8,0.1c-0.1-0.4-0.1-0.8-0.2-1.1C141.6,233,142,233.3,142,233.9z"/>
<path class="st0" d="M179.9,83.7c-0.2,0.4-0.5,0.9-0.7,1.3C179.1,84.4,179.4,83.9,179.9,83.7z"/>
<path class="st107" d="M141.1,233c-0.6-0.2-0.9-0.6-1-1.2C140.7,232,141,232.4,141.1,233z"/>
<path class="st108" d="M356.9,47.9c-6.1,4.5-11.5,9.9-18.5,13.2c-0.9-1.8-0.3-3.2,0.1-4.7c1.8-7.4,3.8-14.7,6.2-22
	c1.3-3.8,3-6.2,7.4-5.3c0.3,0.1,0.7,0,1,0c6.9,0,9.4,3.3,7.9,10.3c-0.5,2.2,0,4.7-2,6.4c-0.4,0.3-0.7,0.7-1.1,1l0.1-0.1
	C357.7,47.3,357.3,47.7,356.9,47.9z"/>
<path class="st109" d="M356.9,47.9c0.1-0.6,0.5-1,1.1-1C357.6,47.2,357.3,47.6,356.9,47.9z"/>
<path class="st110" d="M357.9,47c0.1-0.6,0.5-0.9,1.1-1C358.6,46.3,358.2,46.6,357.9,47z"/>
<path class="st73" d="M232.9,99c-7.8-1.8-15.8-0.7-23.7-1c-1.7-0.1-3.7,0.7-5.1-0.9c0-0.3-0.1-0.5-0.1-0.8c0-0.5,0-1,0.1-1.5
	c0.9-3.2,1.8-6.4,2.6-9.6c0.3-1.4,0.3-3.1,2.3-3.4c0.5,0.4,1,1.1,1.5,1.1c7.9,0.1,15.8,0.1,23.7,0.1c1.4,0,1.8-1.3,2.7-1.9
	c-0.6,4.8-1.7,9.4-3,14c-0.6,0.9,0,2.2-0.7,3.1C233.2,98.4,233.1,98.7,232.9,99z"/>
<path class="st111" d="M208.9,81.8c-1.4,4.6-2.1,9.4-4,13.9c-0.1,0.6-0.5,0.9-0.9,1.4l0,0c-2.6,1.1-5,1.1-6.2-2
	c1-3.6,1-7.4,2.5-10.9c3.1-4.9,4.8-10.7,9.4-15.1C209.4,73.2,209.2,77.5,208.9,81.8z"/>
<path class="st17" d="M610.7,209.9c2.2-4.6,4.8-9,8-13.1c11.1-1,22.1-0.4,33.2-0.2c1.2,0,2.3,0.4,3.1,1.4c-3.1,3.8-3.8,8.8-6.3,13
	c-1,0.7-2.1,0.9-3.3,0.9c-9.6-0.6-19.2-0.1-28.7-0.3C614.6,211.5,612.4,211.7,610.7,209.9z"/>
<path class="st6" d="M655,198c-10,0-20.1,0-30.1,0c-2.2,0-4.3,0.1-6.2-1.1c0.2-0.3,0.3-0.6,0.5-0.9c0.3-0.4,0.5-0.7,0.8-1.1
	c1.9-3.6,4.1-7.1,6.9-10.1c1.3,1.9,3.3,1.2,5,1.2c8.6,0.1,17.2,0,25.9,0c2.2,0,4.4-0.3,5.4,2.4c-2.1,3.2-4.8,5.8-7.3,8.6
	C655.6,197.3,655.3,197.7,655,198L655,198z"/>
<path class="st24" d="M630.1,292.8c-0.2,1.9-1.1,3.1-3.1,3.1c-9,0-18-0.1-27-0.2c-0.6,0-1.2-0.5-1.8-0.8c-0.2-0.3-0.2-0.6-0.2-0.9
	c-0.5-0.6-0.3-1.5-0.8-2.1c-0.9-1.9-1.7-3.9-2-6c8.1-1.2,16.2-0.3,24.3-0.5c3-0.1,6-0.2,8.6-1.7C629.4,286.7,630,289.7,630.1,292.8z
	"/>
<path class="st28" d="M593,272c9.3,0,18.6,0,27.9,0c1.7,0,3.9,0.7,4.2-2.1c1.1,2.9,1.9,5.9,2,9.1c-0.2,2.3-2.1,2.4-3.6,2.5
	c-8.9,0.4-17.8,0.3-26.7,0c-1.3,0-2.6-0.5-3.6-1.5C591.6,277.4,593.2,274.7,593,272z"/>
<path class="st70" d="M610.7,209.9c8.3,0,16.5,0,24.8,0.1c4.4,0,8.9-0.3,13.2,1c-1,1.8-1.9,3.7-3.6,5c-1.4,0.6-2.7,1-4.3,1
	c-9.5-0.1-19.1,0-28.6,0c-1.5,0-2.9-0.3-4.2-1c-0.3-0.3-0.6-0.7-0.7-1.2c0.1-1.2,0.4-2.3,1.6-2.8
	C609.6,211.3,610.2,210.6,610.7,209.9z"/>
<path class="st112" d="M593.2,280c9.8,0,19.5,0,29.3,0c1.6,0,3.4,0.6,4.6-1c1.3,1.4,0.9,3.2,1,4.9c-0.1,1.5,0,3.2-2.2,3.2
	c-9.8-0.1-19.6,0.4-29.3-0.3c-0.5,0-0.9-0.4-1.3-0.6C594.2,284.1,593.4,282.2,593.2,280z"/>
<path class="st77" d="M623.9,264c-1.2-0.8-0.8-2-0.8-3.2C624,261.7,624,262.8,623.9,264z"/>
<path class="st17" d="M655,198c0.3-0.4,0.6-0.7,0.9-1.1C655.9,197.5,655.6,197.9,655,198z"/>
<path class="st113" d="M664,187.9c0.1-0.6,0.5-0.9,1-0.9C665.1,187.8,664.6,187.9,664,187.9z"/>
<path class="st19" d="M640.1,223.2c0.3-0.4,0.6-0.8,0.9-1.2C640.9,222.6,640.7,223,640.1,223.2z"/>
<path class="st114" d="M263,410c-4.1,4.6-9.8,4.6-15.1,4.8c-8.8,0.4-17.6,0.1-26.4,0.1c-5.5,0-5.5,0-5.7,5.7
	c-0.2,0.1-0.4,0.1-0.6,0.1c-0.4-1.9,0.3-3.9-0.5-5.8c-6-0.8-6-0.8-5.7-5.9c1.8-1.6,4-1.5,6.1-1.6c14.1-0.2,28.3,0.3,42.4-0.3
	C259.8,407.1,262,407.7,263,410z"/>
<path class="st115" d="M263,410c-3.3-2.4-7-1-10.5-1c-14.5,0-29,0-43.4,0c-1-3.1,0.6-3.6,3.3-3.6c11.1,0.1,22.2,0.1,33.3,0
	c2.1,0,4.3-0.1,6.4-0.2c4.7-0.2,9.4-2.1,13.9,0.7C265.3,407.6,264.7,409.2,263,410z"/>
<path class="st116" d="M217.7,392.1c10.1,1.4,20.2,0.5,30.4,0.7c2.6,0,5,0.3,6.9,2.2c0.7,1.1,1.4,2.2,1,4.4
	c-9.2,0.1-18.4,0.2-27.6-0.1C223.4,399,219.6,396.9,217.7,392.1z"/>
<path class="st117" d="M224,383.1c-4.3,2-8.8,0.3-13.2,1c-2.7-6.4-2.7-6.4-10.3-6.5c-2.9,0-5.9,0.4-8.8-0.3
	c4.3-0.1,8.5-0.1,12.8-0.3c1.6,0,3.3,0.5,4.6-1c3.9,0,7.9,0,11.8,0C221,378.8,221.4,381.4,224,383.1z"/>
<path class="st118" d="M228.4,399.3c8.9,0,17.7,0,26.3,0c1-1.8,0.1-3,0.2-4.3c3.9,1.9,8,0.7,12.1,1l0,0c0.5,2,1.4,4.5-1,5.6
	c-3.3,1.5-6.9,1.7-10.1-0.6c-1.1-2.2-3.2-1.2-4.8-1.3C243.5,399.4,235.9,400,228.4,399.3z"/>
<path class="st119" d="M255.9,401c2,0,3.9,0,5.9,0c5,0,5,0,5.2-5c2,2.7,0.5,5.4-0.2,8.1c-0.5,0.5-0.2,1.4-0.9,1.9l0,0
	c-4.6-0.3-9.3,0.9-13.9-0.7c0.3-0.1,0.7-0.1,1-0.2c0.2-0.3,0.5-0.5,0.9-0.6C254.6,403.2,255.3,402.1,255.9,401z"/>
<path class="st115" d="M253.9,404.4c-0.3,0.2-0.6,0.4-0.9,0.6C253.3,404.8,253.6,404.6,253.9,404.4z"/>
<path class="st36" d="M215.6,390.1c0.7,0,1.1,0.3,1.4,1C216.5,390.8,216,390.5,215.6,390.1z"/>
<path class="st120" d="M216.9,391.1c0.6,0.1,0.9,0.5,0.9,1.1C217.2,392.1,217,391.6,216.9,391.1z"/>
<path class="st42" d="M662,389c0,2,0,4,0,6c-1.6,1.5-3.6,1.2-5.5,1.3c-1.7,0.1-3.7,0-4.1,2.3c-0.1,1.2-0.2,2.3-0.3,3.5
	c-0.1,0.5-0.3,0.9-0.5,1.4c-0.3,0.4-0.7,0.6-1.2,0.4c-0.1-3-0.2-6.1-0.3-9.1c0-0.3-0.1-0.7-0.1-1c-1.3-1.7-1.4-3.3,0.1-4.9
	C654.1,389,658,389,662,389z"/>
<path class="st121" d="M650.4,404c0.2,0,0.4,0,0.5,0c0.5,0.4,1,0.9,1.1,1.6c0.2,3.8,2.2,5.4,6,5.1c1.5-0.1,2.9,0.3,4,1.3
	c0.3,4.4-3.2,2.3-5.1,3c-6.8-1-6.8-1-6.7-8.1C650.2,405.9,650.3,405,650.4,404z"/>
<path class="st18" d="M456.1,386c0.2-0.3,0.6-0.5,0.6-0.8c1.2-6.2,1.2-6.2,7.8-6.2c11.3,0,22.5,0,33.8,0c5.1,0,5.1,0,5.7,5.2
	c0.1,0.6,0.5,1.1,0.8,1.7c0,0.6-0.2,0.9-0.8,1.1c-4.7,1-9.4,0.3-14.1,0.4c-2,0-3.5,0.3-3.8,2.7c-4.7,2.4-9.1,1.7-13.4-1
	c-3.2-1.3-6.9,0.2-10-1.7c-2,0-4.1-0.7-6.1,0.4C456,387.3,456.1,386.6,456.1,386z"/>
<path class="st122" d="M485.9,390c-0.2-2.4,1-3.1,3.3-3.1c4.9,0.1,9.9,0.1,14.8,0.1c-4.1,1.8-8.4,0.8-12.7,0.8c-3.5,0-4.6,1-4.5,4.5
	c0.2,5.6,0.1,11.2,0,16.9c0,5.6,0,5.6-5.9,5.8c-1.8-1.2-4.3,0.5-6-1.2c-1-1.8-0.5-3.8-0.4-5.7c1.6-1.9,3.8-1.4,5.9-1.5
	c2.5-0.1,4.1-0.9,4-3.7c0-1.3,0-2.7,0-4c-0.1-1.4,0-2.8,0-4.2C484.6,393.1,484.8,391.4,485.9,390z"/>
<path class="st45" d="M475.2,408c-0.1,1.9-0.1,3.8-0.2,5.8c-1.2-4.4-0.3-8.8-0.6-13.3c-0.1-2.1,0.3-4.3-0.5-6.4
	c-1.7-2.3-1.9-4.6-0.2-7c1.4,2.6,3.5,3.3,6.3,3c1.9-0.2,3.9-0.1,5.8-0.1c0,1.7,0,3.3,0,5c-1.7,1.7-3.9,1.2-5.9,1.4
	c-1.8,0.2-3.6,0.4-3.6,2.9c0,1.3,0,2.6,0,3.9C476.4,404.9,476.3,406.6,475.2,408z"/>
<path class="st123" d="M473.8,387.1c0.1,2.3,0.1,4.7,0.2,7c-3.6,0-7.2,0-11.2,0c0-2.5,0-4.7,0-6.8
	C466.5,387.3,470.2,387.2,473.8,387.1z"/>
<path class="st124" d="M511.3,414c-0.9-3.3-0.5-6.6-0.3-10c4-2.3,8-2,12.1-0.3c1.9,3.4,1.8,6.9,0.2,10.4
	C519.3,416.7,515.3,414,511.3,414z"/>
<path class="st125" d="M522.9,404c-3.9,0-7.9,0-11.8,0c-0.3-1.7-0.3-3.3,0-5c3.9-2.3,8-2,12-0.3C524.4,400.5,524.5,402.3,522.9,404z
	"/>
<path class="st60" d="M522.9,399c-3.9,0-7.9,0-11.8,0c-0.1-1.6-0.3-3.2-0.4-4.8l0.3-0.3c4-2.2,8-1.9,12.1-0.2
	C524.4,395.5,524.5,397.3,522.9,399z"/>
<path class="st126" d="M511.3,414c3.8,0,7.6,0,11.5,0c-1.1,2.6-4.1,3.9-4.9,6.7c-0.2,0-0.5,0.1-0.7,0.1c0-1.9,0-3.8,0-5.4
	C515.1,413.8,512.9,415.4,511.3,414z"/>
<path d="M94.8,221.1c2.6,2.4,5.2,4.7,7.8,7.1c1.8,2.6,3.5,5.3,5.3,7.9c0.1,1.9,2.4,3,2.1,5.1c-4.6-0.2-8.4-2.7-11.1-5.9
	c-4.2-5-9.6-6.3-15.4-6.9c-6.4-0.7-12.4-0.3-15.8,6.6c-0.4,0.9-1.3,1.5-2.3,1.9c-9.3,4.1-14,12.5-19.1,20.4
	c-1.8,2.8-2.1,5.8-1.1,9.1c1.5,5,1.1,10.6,4.2,15.3c0.5,0.7,0.3,1.6-0.3,2.3c-1-0.3-2.1-0.5-3.1-0.8c-0.2-0.2-0.5-0.3-0.7-0.2
	c-0.5-0.2-0.8-0.5-1.2-0.8c-1.6-1.5-3.3-2.9-4.9-4.4c-0.9-3.6,0.6-7.4-1-10.9c-0.5-3.7-4.3-5.9-4.1-9.8c0.7-3.6-0.2-6.9-1.9-10.1
	c-0.2-3.3,1.8-6,2.9-8.9c2.1-3,4.1-6,6.2-8.9c2.2-2.4,4.5-4.7,6.7-7.1c2.2-1.1,4.1-2.6,6.6-3.3c2.9-0.8,2.8-4.6,4.8-6.6
	c0.3,0,0.6-0.1,0.9-0.3c0.3-0.1,0.6-0.4,0.8-0.7c5.9-1.6,11.8-1.9,17.7,0.3c1.1,0.4,2.1,0.8,3.3,0.8c3,0.9,5.5,1.9,6.8,5.5
	C89.3,219.6,92.5,220.2,94.8,221.1z"/>
<path class="st127" d="M601,390c0.1-1-0.4-2.2,0.9-2.8c0,5.1,0.1,10.2,0,15.2c0,3.4-1,6.4-3.9,8.5c-2.4,1.1-4.9,0.5-7.3,0.6
	c-18.9,0.2-37.8-0.4-56.7,0.4c-1.6-0.4-2.3-1.7-3.2-2.9c-1-0.6-1.5-1.4-1.3-2.6c0.2-0.5,0.5-0.9,1-1.1c3.4-1.2,7.2,0,10.4-1.7
	c3.1,0.1,4.7-1.2,4.9-4.5c0.1-2.5,0.5-2.5,2.9-2.4c1.8,6.8,1.8,6.8,8.8,6.8c9.9,0,19.8,0.2,29.8-0.2c1.1-0.1,2-0.6,2.9-1.1
	c0.9-0.4,1.9-0.5,2.9-0.6c6.3-0.5,6.3-0.5,6.4-6.9C599.5,393,599.8,391.4,601,390z"/>
<path class="st51" d="M534,412c0.9-2.1,2.8-2,4.7-2c17.8,0,35.6,0,53.5,0c2.1,0,3.9,0.8,5.8,1.1c-3.3,3.7-8.1,3.7-12.3,3.8
	c-13.7,0.3-27.5,0-41.2,0.2c-2.6,0-5-2.3-7.6-0.2C535.9,413.9,535,412.9,534,412z"/>
<path class="st128" d="M607.2,414.1c-0.4-1.2,0.4-2.1,0.8-3.1c3.7-2.3,7.6-1.7,11.5-0.7c2,1.9,1.9,3.9-0.3,5.3
	c-2.1,1.3-2.8,3.5-4.4,5.1c-0.2,0-0.4,0.1-0.6,0.1c0-1.9,0-3.8,0-5.6C611.7,413.9,609.4,414.9,607.2,414.1z"/>
<path class="st129" d="M449.8,414c-1.3,1.7-3.3,0.5-4.9,1l-0.5-0.1l-0.5,0.1c-2.3-0.7-4.5-0.5-6.8,0c0.2-0.4,0.4-0.8,0.7-1.2
	C441.9,411.9,445.9,411.7,449.8,414z"/>
<path class="st37" d="M614.8,420.6c0.3-2.6-0.9-6,3.9-6c1.8,0,1.1-2.3,1.1-3.7c-1.6-2-1.3-4.4-1.3-6.8c0-1.7-0.1-3.5,0-5.2
	c0-1.8,0.1-3.5,1.2-5c0-1.7,0-3.3,0-5c0.3-1.7,1.5-1.9,3-1.9c7.6,0,15.2,0,22.9,0c1.7,0,3.3,0.5,4.4,1.9c0,1.6-0.1,3.2-0.1,4.9
	c-6.3,0-12.6,0.2-18.9-0.1c-3.8-0.2-5.3,0.8-5.1,4.9c0.3,7.3,0.1,14.5,0.1,22.2C622,421,618.4,421.4,614.8,420.6z"/>
<path class="st51" d="M365.7,412.1c0.2-0.7,0.3-1.3,0.5-2c1.9-1.9,4.3-1.6,6.6-1.6c15.8-0.1,31.5-0.1,47.3,0c3.1,0,6.4-0.2,8.8,2.5
	c-3.8,3.6-8.7,3.8-13.4,3.9c-14.5,0.2-28.9,0.1-43.4,0.1c-1.8-1.1-3.9-0.1-5.8-0.7c-0.4-0.4-0.8-0.8-1.3-1.1
	C365.1,412.7,365.4,412.3,365.7,412.1z"/>
<path class="st30" d="M529.1,407.1c-0.1,4.6-0.2,9.2-0.3,13.8c-3.7,0.1-7.4,0.5-11-0.2c0.2-4.9,0.2-4.9,4.9-6.7
	c0-3.3,0.1-6.7,0.1-10c0-1.7,0-3.3,0-5c0-1.7,0-3.3,0-5c-1-1.3-1-2.7,0-4c0-1.4,0.1-2.8,0.1-4.1c2.1,0.6,5.2-1.8,6.2,2.1
	c0,0.4,0,0.7,0,1.1c1.3,1.7,1.3,3.8,1.2,5.8c0,1.7,0.1,3.4,0,5c0,1.4,0.1,2.8-0.1,4.2C530,405,529.5,406,529.1,407.1z"/>
<path class="st38" d="M437,244c0-1.1-0.3-2.2,0.8-3C438,242.1,437.9,243.2,437,244z"/>
<path class="st25" d="M434,256c0-1.1-0.2-2.2,0.9-2.9C435,254.1,435,255.2,434,256z"/>
<path class="st5" d="M343.1,319.4c0.4-1.5,1-1.7,1.9-0.3C344.4,319.2,343.7,319.3,343.1,319.4z"/>
<path class="st5" d="M338.1,321.8c0.5-0.7,1.2-0.8,2-0.8C339.6,321.7,338.9,321.9,338.1,321.8z"/>
<path class="st25" d="M433.1,259.1c-0.1-0.8,0-1.6,0.7-2.1C433.9,257.9,433.9,258.6,433.1,259.1z"/>
<polygon class="st130" points="452.6,236.4 452.8,236.6 452.5,236.6 452.3,236.5 "/>
<path class="st5" d="M341,320.8c0.4-0.3,0.8-0.5,1.2-0.8C341.8,320.3,341.4,320.6,341,320.8z"/>
<path class="st2" d="M154,248c11.4-1.5,22.8-1.7,34.1,0.1c-4.3,1.4-4.6,5.6-6.3,8.9c-1.4,1.4-3.2,1.5-5.1,1.6
	c-6.3,0.1-12.5,0.2-18.8-0.1c-1.9-0.1-4.5,0.5-5.1-2.5c0-0.4-0.1-0.7-0.1-1.1c0-0.2,0.1-0.4,0.1-0.5c0-0.4,0-0.7,0-1.1
	c0-0.5,0-1.1,0.1-1.6c0.1-0.7,0.3-1.4,0.5-2.1c0.1-0.3,0.2-0.7,0.3-1C154,248.3,154,248.1,154,248z"/>
<path class="st28" d="M177,272c-0.2,2.5-1.1,4.8-2.1,7c-1.4,1.4-3.2,1.5-5.1,1.6c-6.3,0.1-12.5,0.2-18.8-0.1c-1.9-0.1-4.6,0.5-5-2.6
	c0.5-3.2,1.5-6.2,3-9c6.6,1.1,13.2,0.5,19.8,0.7C171.7,269.6,174.8,269.4,177,272z"/>
<path class="st68" d="M168,296c-1.7,3-3.5,6-5.2,9c-0.5,1.1-1.4,1.9-2.6,2c-4.9,0.7-9.8,0.7-14.6,0c-1.2-0.2-2.1-0.9-2.5-2.1
	c0.1-0.4,0.1-0.7,0.2-1.1c0.4-0.6,0.3-1.5,0.8-2.1c0.3-3.9,1.7-7.4,3-11c3.4,3.7,7.9,2.4,12.1,2.7C162.1,293.8,165.8,292.4,168,296z
	"/>
<g>
	<path class="st131" d="M195,233.2c4.9,0.4,9.9,1.2,14.9,0.8c5.2,1.5,7.3,6.9,12.2,9.1c-6.3,2.5-12.6,4.1-19.1,4.8
		c-4.9,0-9.9,0.1-14.8,0.1c-11.2,1.1-22.4-0.1-33.6,0.7c-1.3,0.3-2.4-0.1-3.5-0.8c-1.7-0.4-3.4-0.8-5.1-1.2
		c-3.1,1.5-6.3,1.9-9.6,1.7c-7.8-0.3-15.6,0.7-23.4-0.6c-1.4-0.6-1.8-1.8-2.1-3.2c-0.1-0.5-0.2-0.9-0.4-1.4
		c-0.1-0.2-0.2-0.4-0.3-0.7c-0.2-0.4-0.5-0.8-0.7-1.2c-0.3-0.4-0.5-0.8-0.8-1.2c-0.8-1.8-2.6-3.7,0.5-5.2c9.3-1.2,18.6-0.1,27.9-0.7
		c1,0,1.8,0.2,2.7,0.7c0.4,0.1,0.7,0.2,1.1,0.2c0.7-0.2,1.4-0.8,2.2-0.4c1.7,0.1,3.3-0.3,4.8-0.9c14.9-0.2,29.8-1.1,44.7-0.2
		C193.5,233.9,194.3,233.7,195,233.2z"/>
	<path class="st132" d="M131.9,292c-1.2,2.4-3.3,4.1-5.2,6c-1.3,0.9-2.7,1-4.3,1c-31.8-0.8-63.6-0.2-95.4-0.4
		c-2.8,0-5.6,0.8-8.5,0.4c-0.6-0.2-1.2-0.5-1.8-0.9l0.1,0.1c-0.1-0.5-0.6-0.8-0.9-1.2c-0.7-0.9-1.4-1.8-2.1-2.7
		c-0.1-0.5-0.4-0.9-0.8-1.3c-0.1-0.3-0.2-0.7-0.2-1c1.9-2.8,4.9-2.5,7.7-2.6c11.1-0.1,22.3-0.1,33.4,0c2.2,0,4.3,0.2,6.4-0.6
		c6.3,0,12.7,0.3,19,0.2c3.7,1.2,7.4,1.4,11.3,1.4c11.4,0,22.8,0,34.2,0C127.3,290.5,129.9,290.1,131.9,292z"/>
	<path class="st17" d="M111.1,196.7c4.7,4,9,8.5,12.8,13.3c-2.2,2.6-5.3,2.5-8.3,2.5c-9,0.1-18,0-27,0c-2,0-4,0.2-5.9,0.6
		c-5-0.2-9.8-2.5-15-1.8c-1.9,0.2-3.9,0-5.8,0.7c-0.8,0.3-1.6,0.6-2.5,0.8c-0.6,0.1-1.2,0.2-1.8,0.2c-10.6-1-21.2-0.2-31.8-0.5
		c-2.4-0.1-5,0.5-7-1.7c4-5.4,9-9.7,14.2-13.8c1.8-0.6,3.6-0.6,5.4-0.6c22.6,0,45.2,0,67.8,0C107.9,196.4,109.5,196.8,111.1,196.7z"
		/>
	<path class="st6" d="M111.1,196.7c-1.1,1.9-2.9,1.3-4.5,1.3c-22.9,0-45.9,0-68.8,0c-1.7,0-3.3-0.1-4.8-1c3.9-3.8,8.1-7.3,12.8-10.1
		c1.9-1,3.9-0.7,5.9-0.7c14.6,0.4,29.3,0.1,43.9,0.1c0.8,0,1.6-0.3,2.4-0.5c4.2,0.5,5.8,4.6,8.8,6.6
		C108.5,193.6,109.7,195.3,111.1,196.7z"/>
	<path class="st70" d="M81.8,212.1c2.9-1,5.8-1.2,8.8-1.1c7.3,0.1,14.7,0,22,0.1c3.8,0,7.6-0.1,11.3-1c3,3.6,7.3,5.9,9.9,10
		c-1.6,2.5-4.2,2.5-6.7,2.5c-10.3,0-20.6,0.3-30.9-0.1c-4.1-0.4-7.6-2-9.7-5.7C85.4,214.6,82.4,214.7,81.8,212.1z"/>
	<path class="st133" d="M139.1,235c-1.8,1-3.8,1-5.8,1c-8.5,0-16.1,4.2-24.6,4.2c-2.1-6.5-6.8-9.6-5-13.4c2.1-1.3,4.4-1.4,6.7-1.4
		c7.1-0.1,14.2,0,21.3,0c2.2,0,4.3,0.2,6.1,1.5c1.1,1.4,1.9,3,2.2,4.8c0.2,0.5,0.5,0.9,1,1.2l0-0.1c0.3,0.4,0.4,0.9,0.4,1.4
		C140.9,235.4,140.2,235.8,139.1,235z"/>
	<path class="st103" d="M137.9,227c-8.8,0-17.6,0.1-26.4,0c-3,0-5,2.3-7.8,3.3c-2.1-4-7.5-5.4-8.8-9.2c10.6,0,21.1-0.1,31.7,0
		c2.5,0,4.9-0.2,7.3-1C135.8,222,137,224.4,137.9,227z"/>
	<path class="st10" d="M21,301.8c-1-1.2-2-2.5-3-3.7c4.9-1.2,9.8-1,14.8-1c23.6,0,47.2,0,70.8,0c7.8,0,15.6-0.6,23.3,1
		c-2.8,3.6-6.3,6.3-10.5,8.1c-0.5,0.2-0.9,0.5-1.3,0.9l0,0c-1.9,0.8-3.9,0.6-5.9,0.6c-25.3-0.1-50.5-0.1-75.8,0
		c-1.8,0-3.7-0.1-5.4-0.5l0,0c-0.4-0.7-1.4-0.5-1.8-1.2C24.4,304.6,22.7,303.2,21,301.8z"/>
	<path class="st134" d="M27.9,307.1c1.8-1.2,3.8-1.1,5.8-1.1c24.8,0,49.7,0,74.5,0c2.4,0,4.6,0.5,6.8,1c-7.3,5-14.2,10.6-22.9,13.2
		c-14.4-1.1-28.8-1-43.1-0.1C41.1,317.1,34.1,312.8,27.9,307.1z"/>
	<path class="st1" d="M145.1,252.7c1.4,6.3,0.1,12.4-2.1,18.3c-0.8,0.6-1.7,1.3-2.7,1.3c-11.3,0.2-22.5,1.1-33.8-0.5
		c2.6-5,2.8-5,4.1-12.9c8.1-0.9,16.7-1.4,24.8-1.3C139.8,257.6,143.3,257.1,145.1,252.7z"/>
	<path class="st2" d="M145.1,252.7c0,0.8-0.2,1.7-0.1,2.5c0.4,3.2-1.2,3.9-4.1,3.8c-10.1-0.2-20.2-0.1-30.2-0.2
		c1.2-5.7,1.2-6.2,1.4-11.9c8.8,0,17.5-0.1,26.3,0.1c2.6,0.1,5-1.1,7.6-0.3C143.8,248.5,145.7,250.8,145.1,252.7z"/>
	<path class="st24" d="M131.9,292c-14.8,0-29.6,0-44.4,0c-3,0-5.9-0.4-8.5-2c0.5-1.7,2-2.2,3.4-2.5c5.3-1.1,10-4.4,15.6-4.5
		c9.9,0.8,19.9,0.1,29.9,0.4c2.9,0.1,6.1-0.4,8.2,2.5C135.1,288.3,133.7,290.3,131.9,292z"/>
	<path class="st28" d="M107.5,270c12.3,0,23.2,1,35.5,1c-0.3,2.9-1.2,5.6-3,8c-11.5,2.6-23.1,2.5-34.6,0c-0.6-0.1-5.3,0.3-3.3,0.2
		C105.2,273.7,106.6,273.7,107.5,270z"/>
	<path class="st135" d="M48.9,320.1c2.1-2,4.7-2.1,7.4-2.1c9.5,0,18.9,0,28.4,0c2.7,0,5.3,0.1,7.3,2.2
		C77.7,327.9,63.3,327.8,48.9,320.1z"/>
	<path class="st39" d="M105.1,278c1.8,1.2,3.8,1,5.7,1c9.7,0,19.4,0,29.2,0c-0.6,2.7-2.2,4.9-3.9,7c-3-1.1-6.2-1-9.3-1
		c-8,0.1-15.9,0-23.9,0c-2,0-4,0.2-5.8-1C98.4,280.2,101.9,279.3,105.1,278z"/>
</g>
<path class="st24" d="M168,296c-5.5-2.1-11.2-0.8-16.8-0.9c-3.2-0.1-4.7-1-4.3-4.3c-0.3-1.6-0.7-3.2-1-4.8c0.7-0.8,1.6-1.3,2.6-1.3
	c8.1-0.2,16.2-0.9,24.3,0.3c-0.6,3.2-1.5,6.2-3.1,9c-0.1,0.4-0.4,0.6-0.7,0.8l-0.1,0.1C168.6,295.3,168.3,295.7,168,296L168,296z"/>
<path class="st136" d="M177,272c-7.9-1.8-15.9-0.7-23.8-1c-1.7-0.1-3.9,0.7-4.2-2.1c0.2-2.2,0.8-4.2,1.9-6.1
	c9.7-0.3,19.4-0.8,29.1,0.3C179.3,266.1,178.3,269.1,177,272z"/>
<path class="st137" d="M179.9,263c-1.5,0.9-3.1,1-4.8,1c-6.8,0-13.5,0-20.3,0c-1.4,0-3,0.4-4-1.2c0.3-2.4,0.8-4.7,2.1-6.8
	c1.2,1.6,3,1,4.6,1c8.1,0.1,16.2,0,24.3,0C181.6,259.1,181,261.1,179.9,263z"/>
<path class="st39" d="M172.8,285c-1.8,1.2-3.8,1-5.7,1c-7.1,0-14.1,0-21.2,0.1l0,0c-0.5-0.6-0.3-1.5-0.9-2c-1.5-2.3-0.4-4.2,0.8-6.1
	c1.2,1.7,3,1.1,4.6,1.1c8.1,0.1,16.2,0,24.3,0C174.6,281.1,173.8,283.1,172.8,285z"/>
<path class="st88" d="M143,305c6.6,1.6,13.2,1.6,19.8,0c-0.9,3.5-2.6,6.7-4.1,10c-5.9-0.5-12,1.2-17.8-1c0-0.7,0-1.4,0-2.1
	C141.3,309.5,141.8,307.1,143,305z"/>
<path class="st88" d="M143.9,301.9c0.1,0.8,0,1.6-0.8,2.1C143,303.1,143.2,302.4,143.9,301.9z"/>
<path class="st134" d="M26.2,305.9c0.8,0.1,1.5,0.3,1.8,1.2C27.2,307,26.5,306.7,26.2,305.9z"/>
<path class="st24" d="M145.1,284c0.8,0.5,0.9,1.2,0.9,2C145.1,285.6,145,284.9,145.1,284z"/>
<path class="st134" d="M115,307c0.2-0.6,0.7-0.9,1.3-0.9C115.8,306.4,115.4,306.7,115,307z"/>
<path class="st68" d="M169,294.9c0.2-0.3,0.5-0.5,0.7-0.8C169.4,294.3,169.2,294.6,169,294.9z"/>
<path class="st68" d="M168,296c0.3-0.3,0.6-0.7,0.9-1C168.6,295.3,168.3,295.7,168,296z"/>
<path class="st138" d="M226.9,140c-8.9,0-17.9,0-26.8,0c0-0.4,0-0.7,0-1.1c0.5-2.3,0.5-4.6,0-6.9c-0.1-1-0.3-2-0.3-2.9
	c0-3.4-1.7-4.7-4.9-4.3c0.7-0.9,2-1.2,2.7-0.7c4.3,2.9,8.8,0.5,13.2,0.8c4.6,0.4,9.3,0,13.9,0.1c2.4,0.1,3.2-1,3.1-3.3
	c-0.1-1.3-0.4-2.7,0.8-3.7C229,125.4,228.6,132.8,226.9,140z"/>
<path class="st74" d="M233,98.1c0-1.1-0.3-2.2,0.7-3.1C233.9,96.2,233.8,97.2,233,98.1z"/>
<path class="st19" d="M196,222.9c0-0.8,0.2-1.5,0.9-1.9C197,221.8,196.7,222.5,196,222.9z"/>
<path class="st17" d="M218,198.9c0.4-0.3,0.8-0.6,1.2-0.8C219,198.7,218.5,198.9,218,198.9z"/>
<path class="st17" d="M219.1,198.1c0.1-0.6,0.5-0.9,1.1-1.1C220,197.7,219.7,198,219.1,198.1z"/>
<path class="st131" d="M193.3,232.9c-0.6,0-1-0.3-1.3-0.9C192.4,232.3,192.8,232.6,193.3,232.9z"/>
<path class="st17" d="M220.1,197.1c0.1-0.6,0.5-0.9,1-1.1C220.7,196.4,220.4,196.8,220.1,197.1z"/>
<path class="st139" d="M143.9,239.9c0,0.6,0.1,1.6-0.7,1.4c-1.1-0.3-1.4-1.4-1-2.4c0.5-1.1,1.2-0.7,1.7,0.2
	c-0.2,0.2-0.3,0.4-0.2,0.5C143.8,239.8,143.8,239.9,143.9,239.9z"/>
<path d="M140.1,236.9c0.3-0.7,0.6-0.6,0.8,0l-0.4,0.1L140.1,236.9z"/>
<path class="st81" d="M376.1,97.8c0.7,0.6,0.8,1.3,0.7,2.2c-0.3,0-0.5,0-0.8,0C376,99.3,376,98.5,376.1,97.8z"/>
<path class="st43" d="M549,320.9c0.1-0.6,0.2-1.3,0.2-1.9c0.8-3,2.4-4.2,5.9-4.1c7.6,0.4,15.2,0.1,22.7,0.1c-0.7,2.7-1.3,5.3-2,8
	c-0.5,0.5-1,1-1.6,1c-8.3,0.6-16.6,1.5-24.9-0.5C548.4,322.7,548.4,321.8,549,320.9z"/>
<path class="st140" d="M549,323c8.9,0,17.8,0,26.7,0c0,3-0.8,4.6-4.4,4.3c-2.6-0.2-4.9,1.5-6.5,3.7c-0.3,0.3-0.5,0.7-0.8,1l0,0
	c-5.3,2.2-10.6,2.4-15.9,0c0-2.6,0-5.3,0-7.9C548.4,323.7,548.4,323.1,549,323z"/>
<path class="st141" d="M548.2,332c5.3,0,10.6,0,15.9,0c-0.7,2.2-1.2,4.5-4,5.1c-0.6,0.3-1.2,0.6-1.8,0.8c-1.5-1.4-3.4-0.8-5.1-0.9
	C549.9,336.8,547.9,335.6,548.2,332z"/>
<path class="st10" d="M597.1,292c0.8,0.5,0.9,1.3,0.8,2.1C597.2,293.6,597,292.9,597.1,292z"/>
<path class="st141" d="M564,332.1c0.3-0.3,0.5-0.7,0.8-1C564.6,331.4,564.3,331.7,564,332.1z"/>
<path class="st138" d="M376.9,123c-0.1,4.8,1.1,9.9-2.8,14c-13.9,0-27.8,0-41.6,0c-2.4,0-4.6,0-6.5-1.8c0-0.4,0.2-0.7,0.5-0.9
	c0.3-0.2,0.6-0.4,0.9-0.6c0.3-0.2,0.6-0.4,0.9-0.6c0.6-0.5,1.2-1.1,1.7-1.6c4.2-2.9,7.8-6.7,12.8-8.6c0.5-0.1,1.1-0.2,1.6-0.2
	C355.3,122.7,366.1,121.9,376.9,123z"/>
<path class="st108" d="M326.7,134.9c-0.3-0.1-0.6,0.1-0.7,0.3c-0.6,0.2-1.1,0.4-1.7,0.5c-0.5-4.1,1.1-7.8,1.5-11.8
	c1-3.7,2-7.3,3.1-11c0.2-0.4,0.6-0.8,0.7-1.3c3-8.2,3-8.2,12-7.6c0.5,0.1,0.9,0.4,1.4,0.6c0.2,0.3,0.5,0.4,0.8,0.3
	c0.5,0.2,0.8,0.6,1.2,0.9l0,0c0.3,0.4,0.6,0.7,0.9,1.1l0,0c0.6,0.5,0.4,1.5,1,2l0,0c0.3,0.4,0.6,0.8,0.9,1.2
	c0.9,3.8,0.2,7.4-2.2,10.5c-0.4,0.5-0.9,1-1.3,1.4c-0.3,0.3-0.6,0.6-0.9,0.9c-0.5,0.4-1.1,0.5-1.6,0.9c-4,3-7.9,6-11.9,9
	c-0.5,0.6-1.5,0.4-1.9,1.1l-0.1,0C327.6,134.4,327.2,134.7,326.7,134.9z"/>
<path class="st142" d="M549,323c-0.3,0.4-0.6,0.7-0.9,1.1c-0.2-0.8-0.2-1.7-1.1-2c0.3-0.4,0.7-0.8,1-1.2c0.3,0.1,0.6,0.1,0.9,0
	C549,321.6,549,322.3,549,323z"/>
<path class="st3" d="M477,306c0.3,0.3,0.6,0.5,0.9,0.8C477.7,306.5,477.3,306.3,477,306z"/>
<path class="st3" d="M478.7,307.1c0.6,0,1.1,0.4,1.3,1C479.5,307.7,479.1,307.4,478.7,307.1z"/>
<path class="st3" d="M479.9,308c0.4,0.3,0.7,0.6,1.1,0.9C480.7,308.6,480.3,308.3,479.9,308z"/>
<path class="st3" d="M481.1,309c0.3,0.2,0.6,0.5,0.8,0.7C481.7,309.5,481.4,309.2,481.1,309z"/>
<path class="st83" d="M494,318c0.3,0.3,0.6,0.5,0.9,0.8C494.6,318.5,494.3,318.3,494,318z"/>
<path class="st26" d="M342.9,122.5l0.1-0.3c0.3-0.4,0.6-0.8,1-1.1c3.3-3,3.3-7,3.2-11c3.4,2.4,7.2,2.7,11.2,2.6
	c4-0.2,7.9-0.1,11.9,0c3.2,0.1,5.9-0.7,7.6-3.6c0.1-0.4,0.1-0.8,0.2-1.3c1.1,5.2,2.4,10.4-1.2,15.3c-1.8,1.2-3.8,1-5.7,1
	c-9.4,0-18.8,0-28.2,0C342.7,123.5,342.6,123,342.9,122.5z"/>
<path class="st81" d="M377.9,109c0.6,3.6-0.8,5.2-4.6,5.1c-6.8-0.2-13.5-0.3-20.3,0.1c-3.5,0.2-5.1-1.1-5.9-4.1
	c-0.1-0.3-0.1-0.7-0.2-1C357.3,109,367.6,109,377.9,109z"/>
<path class="st81" d="M377.1,101.8c0.4,0.7,0.8,1.5,1.2,2.2c-0.2,0.3-0.3,0.6-0.5,1C376.7,104.1,377.1,102.9,377.1,101.8z"/>
<path class="st81" d="M347,109c-0.7-0.5-1-1.2-1-2C346.8,107.4,347,108.2,347,109z"/>
<path class="st81" d="M346,107c-0.3-0.4-0.6-0.7-0.9-1.1C345.4,106.3,345.7,106.7,346,107z"/>
<path class="st81" d="M345,106c-0.4-0.3-0.8-0.6-1.2-0.9C344.2,105.4,344.6,105.7,345,106z"/>
<path class="st81" d="M343,104.8c-0.5-0.2-0.9-0.4-1.4-0.6C342.1,104.3,342.5,104.5,343,104.8z"/>
<path class="st60" d="M148,394c0,1.7,0,3.3,0,5c-3.8,2.3-7.7,1.7-11.7,0.6c-0.3-1.3-0.3-2.3-1.1-5.1c0.3-0.6,0.7-1,1.3-1.3
	C140.5,392.4,144.3,391.7,148,394z"/>
<path class="st53" d="M148,394c-4,0-8.1,0-12.1-0.1c-1.3-1.7-1.3-3.3,0.2-4.9c4,0,7.9,0,11.9,0C148,390.7,148,392.3,148,394z"/>
<path class="st55" d="M136.2,399c3.9,0,7.9,0,11.8,0c0,1.7-0.1,3.3-0.1,5c-4,0-8,0-11.9,0C134.6,402.3,136.4,402.9,136.2,399z"/>
<path class="st124" d="M619.9,404c0,2.3,0,4.7,0,7c-4,0-7.9,0-11.9,0c0-2.3,0-4.7,0-7C611.9,401.8,615.9,401.7,619.9,404z"/>
<path class="st125" d="M619.9,404c-4,0-7.9,0-11.9,0c0-1.7,0-3.3,0-5c4-2.2,7.9-2.3,11.9,0C619.9,400.7,619.9,402.3,619.9,404z"/>
<path class="st60" d="M619.9,399c-4,0-7.9,0-11.9,0c-0.1-1.6-0.1-3.3-0.2-4.9c4,0,8-0.1,12-0.1C619.9,395.7,619.9,397.3,619.9,399z"
	/>
<path class="st127" d="M428.9,411c-5.7-1.4-11.5-1-17.3-1c-15.1,0-30.2,0-45.3,0c0-1.4,0-2.7,0-4.1c1.6-1.6,3.7-1.3,5.6-1.3
	c2.7,0,3.9-1.4,3.8-4c-0.1-1.9,0-3.9,0-5.8c-0.1-2.1-0.1-4.2,1.4-5.9c0.1-0.8,0.2-1.6,1.3-1.8c2.1,3.5,1.1,7.4,1.1,11.2
	c0,3.8,1.5,5.6,5.3,5.2c11.4-0.2,22.7-0.1,34.1-0.1c4.4,0.5,9-1.3,13.1,1.5C431.9,407.5,430.3,409.2,428.9,411z"/>
<path class="st143" d="M449.8,414c-4-0.1-7.9-0.1-11.9-0.2c0.1-2.6,0.1-5.2,0.2-7.8c4-2.3,7.9-2.2,11.9,0
	C449.9,408.7,449.9,411.3,449.8,414z"/>
<path class="st144" d="M450,406c-4,0-7.9,0-11.9,0c0-2,0-4,0-6c4-2.3,7.9-2.2,11.9,0C450,402,450,404,450,406z"/>
<path class="st53" d="M420,389c3.9,0,7.9,0,11.8,0c0.1,2,0.1,4,0.2,6c-3.8,2.3-7.7,1.7-11.6,0.7c-0.6-0.3-0.9-0.8-1.2-1.4
	C418.6,392.4,418.5,390.5,420,389z"/>
<path class="st145" d="M431.8,405c-4.3,0-8.5,0-12.8,0c-0.9-2.2-0.5-4.1,1.4-5.7c3.9-1,7.8-1.7,11.6,0.7
	C432,401.7,431.9,403.3,431.8,405z"/>
<path class="st146" d="M450,400c-4,0-7.9,0-11.9,0c0-1.7,0-3.3,0-5c4,0,7.9,0,11.9,0C450,396.7,450,398.3,450,400z"/>
<path class="st147" d="M432,400c-3.9,0-7.9,0-11.8,0c-1.6-1.7-1.6-3.3-0.1-5c4,0,7.9,0,11.9,0C432,396.7,432,398.3,432,400z"/>
<path class="st52" d="M173.3,390c0-3,0-6,0-9c3.6,0,7.1-0.1,10.7-0.1c0,3,0,6,0,9C180.4,392.1,176.8,392.2,173.3,390z"/>
<path class="st118" d="M185.1,371c-0.3,0-0.7,0-1,0c1.6-1.9,3.7-0.8,5.6-1c4.4-0.4,9,0.8,13.3-0.8c-0.4,2.5-2.5,1.7-4,1.8
	C194.4,371,189.7,371,185.1,371z"/>
<path class="st115" d="M266,405.9c0-0.7,0.1-1.5,0.9-1.9C266.9,404.9,266.8,405.5,266,405.9z"/>
<path d="M267,394c0.3,0,0.5,0.1,0.8,0.2c0,0.3-0.2,0.6-0.6,0.6l-0.3,0.1C266.7,394.7,266.7,394.3,267,394z"/>
<path class="st27" d="M420,389c0,1.7-0.1,3.5-0.1,5.2c-1.8,1.5-4,1.3-6.2,1.3c-7.1,0.1-14.3,0-21.4,0c-6,0-6,0.1-6.8,5.8
	c-0.2,1.3-0.5,2.6-1.3,3.7c-6.1,0.1-6.2,0.1-6.1-6c0-3.9,0.2-7.9,0.3-11.8c12.1,0,24.2,0,36.3-0.1C416.7,387.1,418.4,387.7,420,389z
	"/>
<path class="st54" d="M377,389c0,2,0,4,0,6c-3.6,2.1-7.2,2.2-10.7,0c0-2,0-4,0-6C369.8,389,373.4,389,377,389z"/>
<path class="st27" d="M547.7,396.3c-1.2,1.3-0.6,2.9-0.6,4.3c-0.2,5.1-0.9,5.5-6,3.3c-1.3-1-1.3-2.5-1.4-3.9
	c-0.1-1.7-0.1-3.4-0.1-5.1c0-2.1-0.1-4.1,1.5-5.7c1.4-1.3,2.9-2,4.9-2c13.1,0.1,26.1,0.1,39.2,0c1.4,0,2.6,0.3,3.8,0.9
	c0.4,0.5,0.6,1,0.5,1.7c0.6,1.8,0.9,3.6-0.9,5c-2.5,1.2-5.2,0.8-7.8,0.9C569.8,395.8,558.7,394.9,547.7,396.3z"/>
<path class="st54" d="M541.1,389c0,2-0.1,4-0.1,6c-4,2.2-7.9,2.3-11.9,0c0-2,0-4,0-6C533.1,389,537.1,389,541.1,389z"/>
<path class="st45" d="M601,390c0,1.7,0,3.3,0,5c-3.6,2.2-7.2,2-10.9,0.4c-0.9-1.8-0.8-3.6,0-5.4C593.7,390,597.3,390,601,390z"/>
<path class="st148" d="M590.1,390c0.1,1.7,0.1,3.4,0.2,5c1.7,2.7,1.6,5.3,0,8c-0.2,0.8-0.4,1.7-1.4,1.9c-1.9-3.6-2-7.2,0.2-10.8
	c0.1-1.7,0.2-3.4,0.3-5.1l0.4-0.3l0.4,0.3C590,389.3,590,389.6,590.1,390z"/>
<path class="st45" d="M590,389c-0.3,0-0.5,0-0.8,0c-0.1-0.3-0.2-0.7-0.3-1C589.3,388.3,589.7,388.7,590,389z"/>
<path class="st27" d="M136,389c-0.1,1.6-0.1,3.3-0.2,4.9l0,0.2c-2,1.7-4.4,1.3-6.6,1.3c-8.4,0.1-16.9,0-25.3,0
	c-6.4,0-8.5,0.4-8.6,7.1c0,0.8-0.4,1.6-0.9,2.3c-1.7,0.9-3.5,0.7-5.3,0.2c-0.4-0.4-0.7-0.7-1.1-1.1c-3-5,0.2-10-0.1-15
	c1.1-2,3-1.8,4.8-1.8c12.6,0,25.3,0,37.9,0C132.7,387.1,134.6,387.3,136,389z"/>
<path class="st48" d="M87.9,389c0,5,0,10,0.1,15c-0.3,0-0.6,0-0.9,0c-1-1.2-1.4-2.5-1.3-4.1c-0.1-1.8,0.1-3.5,1.3-4.9c0-2,0-4,0-6
	C87.3,389,87.6,389,87.9,389z"/>
<path class="st33" d="M482.1,246.7c0.9,3,1.8,6,1.9,9.1c0.2,2.8-1.4,3.2-3.8,3.2c-9.8-0.1-19.6,0-29.4,0c0-3,0-6,0-9l0.3,0
	c7.4-1.3,14.8-0.3,22.3-0.4C476.7,249.5,479.6,249,482.1,246.7z"/>
<path class="st17" d="M315.8,195c0.1,0.8,0,1.6-0.7,2.2C315,196.4,315,195.6,315.8,195z"/>
<path class="st54" d="M522.8,390c0,1.3,0,2.7,0,4c-4,0-7.9-0.1-11.9-0.1c0-1.3,0-2.6,0-3.9C514.9,390,518.9,390,522.8,390z"/>
<path class="st34" d="M316.9,414c14,0,28,0,42,0c-0.6,1-1.7,0.9-2.6,0.9c-12.2,0-24.4,0-36.6,0C318.6,414.9,317.6,414.9,316.9,414z"
	/>
<path class="st127" d="M359.1,411.9c2.1,0.8,4.3,0.7,6.5,0.1l0.2,0.1c0.1,0.6-0.3,0.8-0.7,1.1c-2,0-3.9,0.1-5.9,0.1
	C359.1,412.8,359.1,412.3,359.1,411.9z"/>
<path class="st149" d="M27,394c0-1.3,0-2.7,0-4c0-2,0-4,0-6c0-2.3,0-4.7,0-7c0-0.8,0.1-1.6,0.1-2.4c0.1-5.8,0.1-5.8,5.8-5.5
	c0.1,10.5,0.1,21,0.2,31.5c0,5.1-0.8,5.5-6,3.3c0-1.6-0.1-3.2-0.1-4.9C27,397.3,27,395.7,27,394z"/>
<path class="st39" d="M489,274.9c0.9,0.8,0.9,1.9,0.8,3C488.7,277.2,489,276,489,274.9z"/>
<path class="st1" d="M305.8,255c0.2,1.1,0.2,2.2-0.7,3.1C305,257.1,304.7,255.9,305.8,255z"/>
<path class="st150" d="M661.9,412c-1,0-2,0-2.9,0c-7.8,0-7.8,0-8.1-8c0.1-0.3,0.1-0.7,0.2-1c3.6-2.2,7.3-2.1,10.9,0
	C662,406,662,409,661.9,412z"/>
<path class="st55" d="M662,403c-3.6,0-7.3,0-10.9,0c0-1.3,0-2.7,0-4c3.6-2.2,7.3-2.1,10.9,0C662,400.3,662,401.7,662,403z"/>
<path class="st60" d="M662,399c-3.6,0-7.3,0-10.9,0c-0.5-2.9,0.4-4.3,3.6-4c2.4,0.2,4.9,0,7.3,0C662,396.3,662,397.7,662,399z"/>
<path class="st24" d="M492,282.9c0.3,0.4,0.7,0.7,1,1.1C492.7,283.6,492.4,283.3,492,282.9z"/>
<path class="st24" d="M44,282.1c0.4,0.3,0.8,0.5,1.2,0.8C44.9,282.7,44.4,282.4,44,282.1z"/>
<path class="st118" d="M267,394c0,0.3-0.1,0.7-0.1,1c-0.3-0.3-0.6-0.7-0.9-1C266.3,394,266.7,394,267,394z"/>
<path class="st146" d="M366.2,395c3.6,0,7.2,0,10.7,0c0,2,0,4,0,6c-3.6,2.1-7.2,2.2-10.7,0C366.2,399,366.2,397,366.2,395z"/>
<path class="st151" d="M366.2,401c3.6,0,7.2,0,10.7,0c0.6,3.7-0.7,5.6-4.8,5.1c-1.9-0.3-4-0.1-6-0.1
	C366.2,404.3,366.2,402.7,366.2,401z"/>
<path class="st48" d="M94.1,405c7.1,1,14.3,0.4,21.4,0.4c6.5,0,13,0.5,19.5-0.3c-0.8,1.1-2,0.9-3.2,0.9c-13.2,0-26.4,0-39.6,0
	c-1.1,0-2.3,0.2-3.2-0.9C90.7,405.1,92.4,405,94.1,405z"/>
<path class="st152" d="M87,400c0,1.3,0,2.7,0,4c-3.6,0-7.2-0.1-10.8-0.1c0-1.3,0-2.6,0.1-3.8C79.8,397.7,83.4,397.9,87,400z"/>
<path class="st153" d="M173.3,411c0-2.3,0-4.7,0-7c3.6-2.3,7.1-2.1,10.7,0c0.1,8.1,0.5,6.9-6.7,7C175.9,411,174.6,411,173.3,411z"/>
<path class="st118" d="M173.3,400c0-1.7,0-3.3,0-5c3.6-2.3,7.1-2.1,10.7,0c0,1.7,0,3.3,0,5C180.4,402.1,176.8,402.2,173.3,400z"/>
<path class="st54" d="M184,395c-3.6,0-7.1,0-10.7,0c0-1.7,0-3.3,0-5c3.6,0,7.1,0,10.7,0C184,391.7,184,393.3,184,395z"/>
<path class="st55" d="M173.3,400c3.6,0,7.1,0,10.7,0c0,1.3,0,2.7,0,4c-3.6,0-7.1,0-10.7,0C173.3,402.7,173.3,401.3,173.3,400z"/>
<path class="st146" d="M87,400c-3.6,0-7.2,0-10.8,0c-0.2-5-0.2-5,4.4-5c2.1,0,4.2,0,6.3,0C87,396.7,87,398.3,87,400z"/>
<path class="st82" d="M482.1,246.7c-0.1,2-0.3,4.3-3,4.2c-9.3-0.3-18.7,1.2-27.9-0.9c0-0.5,0-1,0-1.5c1.2-0.9,1.2-2.3,1.6-3.6
	c0.2-0.3,0.3-0.7,0.5-1c0.2-0.4,0.4-0.8,0.6-1.1l-0.1,0.1c1.4-1.1,3-1.4,4.6-1.4c6.6-0.1,13.2-0.1,19.8,0c1.6,0,3.3,0.2,4.6,1.5
	C482.6,244.2,482.4,245.5,482.1,246.7z"/>
<path class="st130" d="M482.8,243c-9.7,0-19.3-0.1-29-0.1c0.1-2.3,0.3-4.6,0.4-6.9c8.8,0,17.5,0,26.3,0c2,0,4,0.1,5.7,1.2
	C485.5,239.3,484.2,241.2,482.8,243z"/>
<path class="st70" d="M509.1,210.1c-0.1-0.9,0-1.7,0.9-2.1C509.9,208.8,509.9,209.6,509.1,210.1z"/>
<path class="st71" d="M530,198.9c0.4-0.8,1.1-0.9,1.9-1C531.5,198.7,530.8,198.9,530,198.9z"/>
<path class="st68" d="M376.9,292c-1.8-2.8-0.4-6-0.9-9c0.3-0.3,0.6-0.7,0.8-1C376.8,285.3,376.9,288.6,376.9,292z"/>
<path class="st1" d="M382.1,258.1c-0.1-0.8,0-1.6,0.8-2.1C382.9,256.8,382.9,257.6,382.1,258.1z"/>
<path class="st95" d="M393.1,205.2c0.2-0.4,0.4-0.7,0.7-1.1C393.8,204.6,393.7,205,393.1,205.2z"/>
<path class="st68" d="M382.9,291.8c-0.1,0.6-0.4,1-1.1,1.2C382.2,292.5,382.6,292.2,382.9,291.8z"/>
<path class="st6" d="M613.9,188c-1,3.3-2,6.7-3.1,10c-8.6,0-17.2,0-25.8,0c-1.8,0-3.8,0.4-4.1-2.3c0-1.9,0.1-3.7,0.1-5.6
	c1.2-1.9,3-2.2,5.1-2.1C595.4,188,604.6,188,613.9,188z"/>
<path class="st154" d="M609,212c-0.3,1-0.7,2-1,2.9c-0.3,0.4-0.7,0.5-1.1,0.2c-0.2-0.4-0.2-0.9,0-1.3c0-1.1,0.1-2.2,1-3
	C608.3,211.2,608.6,211.6,609,212z"/>
<path class="st155" d="M606.9,213.8c0.1,0.5,0.1,0.9,0.2,1.4c0.2,0.1,0.4,0.3,0.3,0.5c0,0.2-0.1,0.3-0.1,0.3
	c-0.1,0.3-0.2,0.6-0.3,0.9c-0.2,0.1-0.3,0.3-0.5,0.4c-0.2-0.1-0.3-0.2-0.5-0.4C605.9,215.8,605.9,214.7,606.9,213.8z"/>
<path class="st156" d="M605,218c0.3-0.3,0.7-0.6,1-1l0,0c0.2,0.2,0.3,0.5,0.2,0.7c-0.1,0.2-0.2,0.3-0.2,0.3l0,0
	C605.7,218.3,605.3,218.3,605,218z"/>
<path class="st19" d="M607.3,216c-0.1-0.3-0.1-0.6-0.2-0.8c0.3-0.1,0.6-0.2,0.9-0.3c0,0.4,0,0.7,0,1.1
	C607.8,216,607.5,216,607.3,216z"/>
<path class="st19" d="M605,218c0.3,0,0.7,0,1,0C605.6,218.7,605.3,218.7,605,218z"/>
<path class="st19" d="M606,218c0-0.3,0-0.7,0-1c0.3,0.1,0.7,0,1,0C606.7,217.3,606.3,217.6,606,218z"/>
<path class="st17" d="M620,194.9c-0.3,0.4-0.5,0.7-0.8,1.1C619.1,195.4,619.5,195.1,620,194.9z"/>
<path class="st130" d="M453.9,242.8c-0.2,0.4-0.4,0.7-0.6,1.1c-0.1-0.3-0.1-0.5-0.2-0.8C453.4,243,453.6,242.9,453.9,242.8z"/>
<path class="st20" d="M60.8,211c0,0.5-0.2,0.8-0.8,0.7C60.3,211.5,60.5,211.3,60.8,211z"/>
<path class="st79" d="M200.2,132c1.2,2.3,1.2,4.6,0,6.9C200.2,136.6,200.2,134.3,200.2,132z"/>
<path class="st74" d="M204,97c0.3-0.5,0.6-0.9,0.9-1.4C204.9,96.3,204.6,96.7,204,97z"/>
<path class="st157" d="M475.2,408c0-1.7,0-3.3,0-5c3.6-2.3,7.2-2.1,10.7,0c0.6,3.7-0.6,5.6-4.8,5.1C479.2,407.8,477.2,408,475.2,408
	z"/>
<path class="st55" d="M486,403c-3.6,0-7.2,0-10.7,0c0-1.3,0-2.7,0-4c3.6-2.2,7.2-2.1,10.7,0C486,400.3,486,401.7,486,403z"/>
<path class="st60" d="M486,399c-3.6,0-7.2,0-10.7,0c-0.7-2.9,0.3-4.3,3.4-4c2.4,0.2,4.9,0,7.3,0C486,396.3,486,397.7,486,399z"/>
<path class="st60" d="M590.2,403c0-2.7,0-5.3,0-8c3.6,0,7.2,0,10.8,0c-0.1,9.3,1.1,7.9-7.8,8C592.2,403,591.2,403,590.2,403z"/>
<path class="st144" d="M541,400c0,1.3,0.1,2.6,0.1,3.8c-0.2,2-1.5,2.2-3.2,2.2c-2.6,0-5.2,0-7.9,0c-0.8-0.4-0.4-1.4-0.9-1.9
	c0-1.4,0-2.8,0-4.1C533.1,397.7,537.1,397.8,541,400z"/>
<path class="st158" d="M529.2,404.1c0.8,0.4,0.8,1.1,0.9,1.9c-0.1,0.4-0.1,0.8-0.2,1.1l-0.4-0.1l-0.4,0
	C529.1,406.1,529.2,405.1,529.2,404.1z"/>
<path class="st159" d="M541,400c-4,0-7.9,0-11.9,0c0-1.7,0-3.3,0-5c4,0,7.9,0,11.9,0C541,396.7,541,398.3,541,400z"/>
<path class="st137" d="M153.2,253.8c0.3,0,0.5,0,0.7-0.1c-0.1,0.6-0.3,1-0.9,1.2C153.1,254.5,153.1,254.2,153.2,253.8z"/>
<path class="st7" d="M328.1,134.1c0.4-0.7,1-1.1,1.9-1.1C329.7,133.8,328.9,134,328.1,134.1z"/>
<path class="st7" d="M326.7,134.9c0.4-0.3,0.9-0.5,1.3-0.8C327.6,134.4,327.2,134.6,326.7,134.9z"/>
<path class="st160" d="M342.9,122.5c0,0.5,0,1,0,1.5c-0.4,0-0.7,0-1.1-0.1C342.2,123.5,342.6,123,342.9,122.5z"/>
<path class="st30" d="M365.3,412.7c-2.1,0.6-4.2,0.9-6.3-0.2c0-0.1,0-0.2,0-0.3c-0.1,0-0.1,0-0.2,0c-0.5,0.2-1.1,0.4-1.6,0.7
	c-13.1,1.1-26.3,0.8-39.5,0.2c-1.1-0.2-2.3-0.3-3.4-0.1c-0.9,0.3-1.6,0.7-1.6,1.7c1.6,4.2,5.2,5.5,9.1,6.3c0.7,0,1.3,0,2,0
	c14-0.1,28-0.2,41.9-0.3c0.1-2.2,0.3-4.4,0.4-6.6C366.1,413.6,365.8,413.1,365.3,412.7z"/>
<path class="st51" d="M359.1,412.5c0-0.6-0.1-1.2-0.1-1.9c0-0.2,0.1-0.4,0.1-0.5c0,0-0.1-0.1-0.1-0.1c-17.1,0-34.2,0.1-51.3,0.1
	c0.5,1,1.1,1.7,2.3,1.9c0.3,0.3,0.7,0.5,1.1,0.7c0.2,0.2,0.5,0.3,0.9,0.3c0.6,0.7,1.5,0.4,2.1,0.8c1,0.1,2,0.1,3,0.2
	c6.4,1,12.8,0.4,19.3,0.4c7.6,0,15.2,0.7,22.7-0.4c0.1-0.3,0.1-0.5,0.2-0.8c0.1-0.2,0.2-0.4,0.3-0.6
	C359.3,412.6,359.2,412.6,359.1,412.5z"/>
<path class="st31" d="M358.7,406.2c-11.3,0-22.8,0-34,0c-1.2-2-0.5-3.8-0.9-5.3c0.2-0.3,0.4-0.5,0.7-0.7c-0.8-0.6-1.6-0.4-2.1,0.7
	c-1.2,2.8-3.6,2.5-5.9,2.4c-3.7,0.8-7.8-0.8-11.3,1.7c0,2.1,0.7,3.9,2.5,5.1c2.8,1.2,5.7,1.5,8.7,1.5c12.1,0,24.2,0,36.2,0
	c2.1,0,4.3,0.1,6.3-1.1c0.1-0.2,0.1-0.4,0.2-0.5C359.2,408.9,359.3,407.7,358.7,406.2z"/>
<path class="st161" d="M325.9,399.4c1.2-0.3,2.5-0.2,3.8-0.3c5.5-0.1,10.9,0,16.4,0c7.9,0,7.9,0,8.5-7.8c-1.1-0.1-2.2-0.3-3.4-0.4
	c-0.7,0.1-1.5,0.1-2.2,0.2c-0.4,2.6-2.5,1.7-4,1.7c-8,0.1-15.9,0-23.9,0.1c-1.7,0-3.9-0.7-4.2,2.1c0,1.3,0,2.7,0,4
	c0,1.7,0.1,3.3,0.1,5c5.1,2,5.3,1.9,6.8-3.7C324.4,399.6,325.2,399.5,325.9,399.4z"/>
<path class="st36" d="M340,390.6c3,0,6,0.2,8.8,1.4c2,0.4,4,0.6,5.8-0.5c0,0,0-0.1,0-0.1c-1.8-0.2-3.5-0.4-5.5-0.6
	c-0.1-2.1-0.3-4-0.4-6.2c-8.3-1-16.6,0.4-24.8-0.8c0-0.2,0-0.4,0-0.6c-2.3,0-4.5,0-6.8,0c-0.1,0.7,0.1,1.3,0.9,1.4
	c0.3,0.1,0.4,0.1,0.5-0.1c0.3-0.6,0.7,0.7-0.1,0.3c-4.3,0.5-9-1.3-13.3,1.3c-0.3,1-0.3,2,0,3c2.1,1.8,4.6,1.5,7.1,1.5
	C321.4,390.6,330.7,390.6,340,390.6z"/>
<path class="st161" d="M327.5,378.2c12.6,0.2,25.3-0.5,37.9,0.3c0.2-0.2,0.4-0.3,0.5-0.5c-0.3-3.1,0.8-6.4-0.6-9.4
	c-7.1,2.3-14.4,2.4-21.8,2.3c-6.6-0.2-13.3,0-20,0c-6.3,0-6.3,0-6.7,6.1c-1.5,2.1-1.5,4.3,0.1,6.4c2.3,1.3,4.6,1.3,6.9,0.2
	C323.8,380.9,323.5,378.1,327.5,378.2z"/>
<path class="st13" d="M326.2,372.4c8.9,0.2,17.9,0.1,26.8,0c4.5-0.1,8.8-0.9,12.4-3.9c-1.9-0.7-4,0.3-5.8-0.7
	c-1.1-1.9,0.4-4.3-1.2-6.3c-13.5,0-27.1-0.4-40.7,0.1c-10.1,0.4-13.4,4.9-12.7,15.3c3.9,2.4,8,2,12,0.4
	C318.7,373.1,322,372.3,326.2,372.4z"/>
</svg>
