<?xml version="1.0" encoding="utf-8"?>
<!-- Generator: Adobe Illustrator 22.1.0, SVG Export Plug-In . SVG Version: 6.00 Build 0)  -->
<svg version="1.1" id="Layer_1" xmlns="http://www.w3.org/2000/svg" xmlns:xlink="http://www.w3.org/1999/xlink" x="0px" y="0px"
	 viewBox="0 0 1033.1 458.2" style="enable-background:new 0 0 1033.1 458.2;" xml:space="preserve">
<style type="text/css">
	.st0{fill:#FA1D0D;}
	.st1{fill:#FA210D;}
	.st2{fill:#00474D;}
	.st3{fill:#004751;}
	.st4{fill:#FA800D;}
	.st5{fill:#FA860D;}
	.st6{fill:#FA850D;}
	.st7{fill:#004750;}
	.st8{fill:#00476D;}
	.st9{fill:#FA7A0D;}
	.st10{fill:#0047A6;}
	.st11{fill:#004768;}
	.st12{fill:#0047A2;}
	.st13{fill:#004773;}
	.st14{fill:#FA8A0D;}
	.st15{fill:#FA660D;}
	.st16{fill:#FA440D;}
	.st17{fill:#FA760E;}
	.st18{fill:#00476F;}
	.st19{fill:#FA940D;}
	.st20{fill:#00476C;}
	.st21{fill:#FA390D;}
	.st22{fill:#FA3F0D;}
	.st23{fill:#FA8F0D;}
	.st24{fill:#FA8A0E;}
	.st25{fill:#01479F;}
	.st26{fill:#0047AA;}
	.st27{fill:#FA6C0D;}
	.st28{fill:#004754;}
	.st29{fill:#FA700D;}
	.st30{fill:#004757;}
	.st31{fill:#004789;}
	.st32{fill:#FA730D;}
	.st33{fill:#0047A7;}
	.st34{fill:#FA990D;}
	.st35{fill:#00478E;}
	.st36{fill:#FA3A0D;}
	.st37{fill:#004760;}
	.st38{fill:#FA6F0D;}
	.st39{fill:#FA8E0E;}
	.st40{fill:#FA1F0D;}
	.st41{fill:#FA790D;}
	.st42{fill:#00477A;}
	.st43{fill:#014777;}
	.st44{fill:#0147AE;}
	.st45{fill:#00479A;}
	.st46{fill:#FA740D;}
	.st47{fill:#004774;}
	.st48{fill:#004792;}
	.st49{fill:#014786;}
	.st50{fill:#00475F;}
	.st51{fill:#004766;}
	.st52{fill:#FA6F0E;}
	.st53{fill:#00475B;}
	.st54{fill:#004780;}
	.st55{fill:#FA290D;}
	.st56{fill:#00474E;}
	.st57{fill:#004781;}
	.st58{fill:#00478F;}
	.st59{fill:#024895;}
	.st60{fill:#004767;}
	.st61{fill:#FA790E;}
	.st62{fill:#004795;}
	.st63{fill:#FA470E;}
	.st64{fill:#004779;}
	.st65{fill:#004759;}
	.st66{fill:#004785;}
	.st67{fill:#004752;}
	.st68{fill:#FA4B0D;}
	.st69{fill:#FA250D;}
	.st70{fill:#FA300D;}
	.st71{fill:#004794;}
	.st72{fill:#01478D;}
	.st73{fill:#FA2F0D;}
	.st74{fill:#FA1E0E;}
	.st75{fill:#014759;}
	.st76{fill:#FA5D0D;}
	.st77{fill:#01475F;}
	.st78{fill:#FA3E0D;}
	.st79{fill:#014781;}
	.st80{fill:#FA340D;}
	.st81{fill:#01474E;}
	.st82{fill:#FA1F0E;}
	.st83{fill:#FA370D;}
	.st84{fill:#02489D;}
	.st85{fill:#014782;}
	.st86{fill:#014766;}
	.st87{fill:#FA2A0D;}
	.st88{fill:#FA390E;}
	.st89{fill:#004764;}
	.st90{fill:#FA590D;}
	.st91{fill:#014754;}
	.st92{fill:#FA620D;}
	.st93{fill:#FA6C0F;}
	.st94{fill:#FA4A0D;}
	.st95{fill:#014787;}
	.st96{fill:#00478B;}
	.st97{fill:#014758;}
	.st98{fill:#FA760F;}
	.st99{fill:#FA560D;}
	.st100{fill:#FA2B0E;}
	.st101{fill:#01477B;}
	.st102{fill:#FA230D;}
	.st103{fill:#014756;}
	.st104{fill:#FA6B0D;}
	.st105{fill:#01477A;}
	.st106{fill:#00474C;}
	.st107{fill:#004788;}
	.st108{fill:#FDD39C;}
	.st109{fill:#014774;}
	.st110{fill:#FA650D;}
	.st111{fill:#FA510D;}
	.st112{fill:#FA520E;}
	.st113{fill:#FA5B0D;}
	.st114{fill:#FA4C0D;}
	.st115{fill:#FA3D0D;}
	.st116{fill:#FA600D;}
	.st117{fill:#FA430E;}
	.st118{fill:#014761;}
	.st119{fill:#FA5E0D;}
	.st120{fill:#FA360E;}
	.st121{fill:#FA5F0D;}
	.st122{fill:#FA650E;}
	.st123{fill:#014894;}
	.st124{fill:#014753;}
	.st125{fill:#FA340E;}
	.st126{fill:#FA9D0F;}
	.st127{fill:#FA5F0E;}
	.st128{fill:#014763;}
	.st129{fill:#FA560E;}
	.st130{fill:#FA580D;}
	.st131{fill:#014767;}
	.st132{fill:#01476D;}
	.st133{fill:#FA7F0F;}
	.st134{fill:#FA640E;}
	.st135{fill:#FA670D;}
	.st136{fill:#004753;}
	.st137{fill:#FA520F;}
	.st138{fill:#FA530E;}
	.st139{fill:#FA5B0E;}
	.st140{fill:#FA9312;}
	.st141{fill:#FCC180;}
	.st142{fill:#014889;}
	.st143{fill:#FCC58A;}
	.st144{fill:#FCBA76;}
	.st145{fill:#004C56;}
	.st146{fill:#3D3D36;}
	.st147{fill:#FCB167;}
	.st148{fill:#FA240D;}
	.st149{fill:#FA350D;}
	.st150{fill:#FAAF35;}
	.st151{fill:#00479B;}
	.st152{fill:#FA300E;}
	.st153{fill:#00475A;}
	.st154{fill:#01476E;}
	.st155{fill:#FCBF6D;}
	.st156{fill:#2964BD;}
	.st157{fill:#004756;}
	.st158{fill:#81A4D8;}
	.st159{fill:#AFC5CD;}
	.st160{fill:#4F797E;}
	.st161{fill:#FBAF4A;}
	.st162{fill:#FDB8B4;}
	.st163{fill:#014788;}
	.st164{fill:#014794;}
	.st165{fill:#00475C;}
	.st166{fill:#0047A0;}
	.st167{fill:#FBAD4A;}
	.st168{fill:#FCC383;}
	.st169{fill:#FCC78A;}
	.st170{fill:#004786;}
	.st171{fill:#FA450D;}
	.st172{fill:#004765;}
	.st173{fill:#00475E;}
	.st174{fill:#02486E;}
	.st175{fill:#014799;}
	.st176{fill:#FA570E;}
	.st177{fill:#FA310F;}
	.st178{fill:#FCCC90;}
	.st179{fill:#FA3F0E;}
	.st180{fill:#FA4F0E;}
	.st181{fill:#FA490D;}
	.st182{fill:#FA550F;}
</style>
<g>
	<path class="st0" d="M135.7,232.4c-8.5-2.6-17.2-0.5-25.7-1.4c0-0.3,0-0.5-0.1-0.7c9.9-4,19.9-8.1,29.8-12.1c4.8,0.3,9.6,1,14.4,1
		c68.3,0.1,136.6,0,204.9,0.1c2.6,0,5.5-0.8,7.1,2.2c0,0,0-0.1,0-0.1c-0.4,0.6-0.8,1.3-1.3,1.9c0,0,0-0.1,0-0.1
		c-0.3,0.4-0.6,0.8-1,1.2c0,0,0.1-0.1,0.1-0.1c-0.4,0.4-0.7,0.8-1.1,1.2c0,0,0.1-0.1,0.1-0.1c-0.4,0.4-0.8,0.7-1.2,1.1
		c0,0,0.1-0.1,0.1-0.1c-0.4,0.3-0.8,0.6-1.2,1c0,0,0.1-0.1,0.1-0.1c-0.4,0.3-0.8,0.6-1.2,0.9c0,0-0.1,0-0.1,0
		c-0.6,0.3-1.3,0.7-1.9,1l0,0c-0.6,0.3-1.3,0.6-1.9,0.9c-4.5,0.4-9.1,0.8-13.6,1.2c-1.4,0-2.8,0.1-4.2,0.1
		C270.5,231.7,203.1,232.1,135.7,232.4z"/>
	<path class="st1" d="M366.1,221.4c-1.7-3-4.6-2.2-7.1-2.2c-68.3,0-136.6,0-204.9-0.1c-4.8,0-9.6-0.6-14.4-1c9.3-4,18.6-8,27.9-12
		c14.8-3,29.6-3.2,44.4,0c38.4,0.6,76.9,1.2,115.3,1.9c3.6,0.1,6.6-0.3,8.5-3.8c10.5,0,21,0,32.1,0c0,4.9,0,9,0,13.1c0,0,0,0,0,0
		c-0.4,1-0.7,2-1.1,2.9C366.5,220.5,366.3,221,366.1,221.4z"/>
	<path class="st2" d="M813.2,231c0.5,0.1,1,0.1,1.5,0.2c66.6,0,133.3,0,201.1,0c-3.2,2.2-5.2,3.6-7.2,4.9c-0.3,0-0.7,0.1-1,0.1
		c-0.3,0.3-0.7,0.6-1,0.9c-2.3,1.7-4.6,3.3-7,5c-0.7,0.4-1.4,0.7-2,1.1c-0.3,0-0.7,0-1,0c-0.3,0.3-0.6,0.6-1,1c0,0-0.1,0.1-0.1,0.1
		c-0.3,0-0.6,0-1,0c-2.1-0.3-4.1-1-6.2-1c-71.9-0.1-143.8,0-215.7,0c0-3.7,0-7.3-0.1-11c0-0.3,0-0.6,0-0.8
		C786.3,231.2,799.7,231.1,813.2,231z"/>
	<path class="st2" d="M135.7,232.4c67.4-0.3,134.8-0.7,202.2-1c1.4,0.2,2.7,0.4,4.1,0.6c5.7,1.3,10.5,4.1,13.8,9.1
		c-0.1,4.6-3.7,3-5.9,3c-60.5,0.8-121-1.4-181.5,1.2C157.5,241,146.6,236.7,135.7,232.4z"/>
	<path class="st3" d="M168.4,245.3c60.5-2.6,121-0.4,181.5-1.2c2.3,0,5.8,1.6,5.9-3c2.7,2.8,4.3,6.1,5,9.9c-0.4,1.3-0.8,2.7-1.2,4.1
		c-2.6,0-4.5,0-6.5,0c-49.7,0-99.3,0-149,0c-2.8,0-5.6,0.6-8.4,1C186.6,252.5,177.5,248.9,168.4,245.3z"/>
	<path class="st4" d="M297.9,62.1c7.7,1.5,15.4,2.7,22.2,7c-2.9,0.4-5.9,1.1-8.8,1.1c-65.4,0.1-130.8,0-196.2,0c-1.9,0-3.8,0-6.3,0
		c3.2,4.5,9.5,2.9,11,8.1c-8.7-4-17.3-8.1-26-12.1c-0.8-1.8-2.4-2.2-4.2-1.9c0,0,0.1,0.1,0.1,0.1c-0.7-0.4-1.4-0.8-2-1.1
		c0,0,0,0,0,0c1.7-2,4-2.1,6.4-2.1c59.9-0.6,119.8,1.2,179.7-1c6,0.6,12.1,1.3,18.1,1.9C293.9,62.1,295.9,62.1,297.9,62.1z"/>
	<path class="st5" d="M723.7,70.1c0.2-4.3-0.9-8.8,1.2-12.9c10.6-2,21.3-4,31.9-6c1,0,2,0,3-0.1c2.3,0.3,4.5,1,6.8,1
		c45.7,0.1,91.3,0,137,0.1c2.2,0,4.8-0.8,6.2,2l0,0c-0.7,0.4-1.3,0.7-2,1.1c-11.2,6.4-23.9,5.5-36,8c-0.8-3.2-3.5-2-5.4-2
		c-45.4-0.1-90.8,0-136.2,0c-1.6,0-3.2,0.2-5.5,0.3c0,3.1,0,5.9,0,8.7c0,0,0,0,0,0C724.4,70.2,724,70.1,723.7,70.1z"/>
	<path class="st6" d="M273.8,60.2c-59.9,2.2-119.8,0.4-179.7,1c-2.4,0-4.7,0.1-6.4,2.1c-3.7-1.6-7.3-3.2-11-4.7
		c-1-0.4-2.1-0.8-3.1-1.2c0,0,0.1,0.1,0.1,0.1c-0.7-0.4-1.4-0.8-2.1-1.1c0,0,0.1,0.1,0.1,0.1c-1-0.4-1.9-0.8-2.9-1.2c0,0,0,0,0,0
		c-0.1-4.8,3.7-2.9,5.7-2.9c36.1-0.1,72.1-0.1,108.2-0.1c3.9,0,7.9-0.8,11.8-0.5c15.8,1.3,31.5,3,47.3,4.5c0,0,0,0,0,0
		c2.5,2,5.4,0.7,8,1l0,0c2.5,2.1,5.4,0.7,8.1,1c5.3,0.4,10.5,0.7,15.8,1.1C273.7,59.5,273.8,59.8,273.8,60.2L273.8,60.2z"/>
	<path class="st7" d="M579.4,258.3c-11.2-2.8-22.7-1.4-34.1-2c-7.9-0.4-15.9-0.1-23.8-0.1c-0.3,0-0.5,0-0.8,0.1
		c-5.9,6.3-13,1.1-19.2,2.9c-0.7-2.5-1.1-4.2-1.6-6c0-5.4,0-10.7,0-16.1c0.5,1.9,1,3.7,1.6,5.9c32.5,0,64.9,0,97.3,0
		c0.7,0,1.4-0.7,2.2-1c1.3,2.6,2.6,5.3,3.8,7.9c0.4,1.4,0.7,2.8,1.1,4.2c0,0-0.1-0.1-0.1-0.1c-0.3,1.6-0.6,3.1-1,5.5
		C596.1,259.1,587.7,258.7,579.4,258.3z"/>
	<path class="st8" d="M750.8,307.2c-1.6,3.3-3.3,6.7-4.9,10c-1.8,2.3-4.3,2-6.8,2c-39,0-78.1,0-117.1,0c0-4,0-8,0-12
		C664.8,307.2,707.8,307.2,750.8,307.2z"/>
	<path class="st9" d="M119.7,78.2c-1.5-5.2-7.7-3.6-11-8.1c2.5,0,4.4,0,6.3,0c65.4,0,130.8,0,196.2,0c2.9,0,5.9-0.7,8.8-1.1
		c4.8,1.7,8.9,4.5,12.5,8.2c-70.4,0-140.7,0-211.2,0c0.2,2.4,0.3,4.2,0.5,6C121.1,81.5,120.4,79.9,119.7,78.2z"/>
	<path class="st10" d="M907.6,428.2c-25.7-3.3-51.3-6.7-77-10c12.6-0.4,25.2-1,37.9-1c34-0.1,68,0,101.9-0.1c1.9,0,4.6,1.2,5.4-2
		c5,2.7,10,5.3,15,8c0.4,1,0.8,1.9,2.2,5.1C963.6,428.2,935.6,428.2,907.6,428.2z"/>
	<path class="st11" d="M750.8,307.2c-43,0-85.9,0-128.9,0c-0.1-2.7-0.1-5.3-0.2-8c0.1-1,0.1-2,0.2-3c8,0,16.1,0,24.1,0
		c3-5.8,1.5-11.4,1.7-16.9c0-2.3,0-4.6,0-7c0.1-9.8,0.2-19.6,0.3-29.4c0,18.3,0,36.5,0,58.4c21.9,0,42.9,0.1,63.9-0.1
		c5-0.1,7.5-4.4,9.8-8.3c10.7,2.9,21.6,0.5,32.4,1.3C752.9,298.5,751.8,302.8,750.8,307.2z"/>
	<path class="st12" d="M975.8,415.1c-0.8,3.2-3.5,2-5.4,2c-34,0.1-68,0-101.9,0.1c-12.6,0.1-25.2,0.7-37.9,1
		c-15.6-2.1-31.2-4.1-46.8-6.2c0-0.3,0-0.6,0-0.8c2.8-0.3,5.6-1,8.3-1c54.6-0.1,109.1,0,163.7-0.2c1.6,0,5.7,2.3,4.9-2.8l0.1-0.1
		c4.3,2.3,8.7,4.6,13,7C974.5,414.4,975.1,414.8,975.8,415.1L975.8,415.1z"/>
	<path class="st13" d="M621.9,319.2c39,0,78.1,0,117.1,0c2.5,0,5,0.3,6.8-2c1,2.6,2,5.1,3,7.7c0.3,0.8,0.6,1.5,1,2.3
		c0,0,0-0.1,0-0.1c-0.8,3.2-3.4,1.9-5.4,2c-11.2,0.7-22.5-1.2-33.7,1c-1,0-2,0-3,0c-3-0.3-6-0.6-9-1c-2.7,0-5.4-0.1-8-0.1
		c-1.3-0.3-2.6-0.6-4-0.9c-3.6-0.2-7.2-0.9-10.8-0.7c-9.4,0.6-18.8-2.9-28.2-0.3c0,1,0,2-0.1,3c-8.6,0-17.2,0-25.8,0
		C621.9,326.5,621.9,322.8,621.9,319.2z"/>
	<path class="st4" d="M724.8,70.2c0-2.8,0-5.6,0-8.7c2.3-0.1,3.9-0.3,5.5-0.3c45.4,0,90.8,0,136.2,0c1.9,0,4.5-1.1,5.4,2
		c0,0,0,0,0,0c-4.2-0.2-8.3,0-12.1,2c-10.8,2-21.5,4-32.2,6c-0.9,8-1.8,15.5-2.7,23.1c-0.1-0.7-0.2-1.4-0.3-2.2c0-0.7,0-1.4,0-2.1
		c0.3-3.3,0.6-6.7,1-10c0-3.2,0-6.5,0-10C791.4,70.2,758.1,70.2,724.8,70.2z"/>
	<path class="st14" d="M909.8,54.2c-1.4-2.7-4-2-6.2-2c-45.7,0-91.3,0-137-0.1c-2.3,0-4.5-0.6-6.8-1c4.6-1.3,9.3-2.6,13.9-3.9
		c1.7,0,3.4-0.1,5.1-0.1c0.3-0.3,0.7-0.6,1-0.9c1.3,0,2.7-0.1,4-0.1c0.3-0.3,0.6-0.6,1-0.9c1,0,2-0.1,3-0.1c0.3-0.3,0.6-0.6,1-0.8
		c1.7-0.1,3.4-0.1,5-0.2c0.3-0.3,0.7-0.6,1-0.9c1.3,0,2.7-0.1,4-0.1c2.3,0.3,4.5,1,6.8,1c36.9,0.1,73.9,0,110.8,0.1
		c1.9,0,3.8,0.3,6,0.5c-0.7,1.4-1.1,2.1-1.5,2.8c0,0,0.1-0.2,0.1-0.2c-0.4,0.3-0.8,0.7-1.2,1C916.5,50.2,913.1,52.2,909.8,54.2z"/>
	<path class="st15" d="M496,100.1c1.6,3,3.2,6,4.8,9.1c-10.7,0-21.4,0-32.1,0.1c-1.8,0-4.2-1-4.9,1.9c-21.1-1.9-42.2-3.8-63.5-5.7
		c0.6,5.3,1.1,10,1.6,14.8c-0.4-1-0.8-2-1.2-3c-0.5-2.7-1-5.5-1.6-8.6c-10.2,0-20,0-30.2,0c-0.1,2.5-0.2,4.6-0.3,6.7
		c-0.3-1.9-0.7-3.9-1-5.8c0-2.9,0-5.8,0-9.4C410.3,100.1,453.2,100.1,496,100.1z"/>
	<path class="st16" d="M505.9,147.4c-1,4-2.1,7.9-3.1,11.9c0-4.2-3.2-3-5.4-3c-40.2,0-80.4,0-120.6,0c0.1-2.8-2.3-5.7-0.3-8.5
		c9.5-0.5,18.9-1,28.2-1.5c0.4,0,0.8-0.1,1.2-0.1c20,1.4,39.9,2.7,59.9,4.2c4.9,0.4,8.7-1.2,11.6-5.2c2.4,0.4,4.9,0.8,7.3,1.1
		C491.8,146.9,499,144.7,505.9,147.4z"/>
	<path class="st2" d="M601,242c-0.7,0.4-1.4,1-2.2,1c-32.4,0.1-64.8,0-97.3,0c-0.6-2.2-1.1-4.1-1.6-5.9c0-1.3,0-2.7,0-4
		c8.2-1,16.8,2.1,24.8-1.8c6.7-0.1,13.4-0.2,20.1-0.3c0.4,0,0.7,0,1.1,0c7.5,0,15,0,22.5,0c0.4,0,0.9,0,1.3,0
		c5.6,0.1,11.1,0.2,16.7,0.3c2.4,1,4.7,2,7.1,3c0.2,0.2,0.3,0.5,0.4,0.9c0.4,0.3,0.8,0.6,1.2,0.9c0,0-0.1-0.1-0.1-0.1
		C596.9,238,599,240,601,242L601,242z"/>
	<path class="st17" d="M121.8,83.2c-0.1-1.8-0.3-3.6-0.5-6c70.5,0,140.9,0,211.2,0c0,0,0.2,0.2,0.2,0.2c0.3,0.3,0.6,0.6,0.9,0.8
		c0,0,0.1,0.1,0.1,0.1c0.3,0.3,0.6,0.6,0.9,0.9c0,0,0.1,0.1,0.1,0.1c0.3,0.3,0.6,0.6,0.9,0.9c0.8,1,1.7,1.9,2.5,2.9
		c-2.5-1.5-5.1-2-8-2c-40.8,0.1-81.6,0-122.4,0.1c-5.3,0-10.6,0.9-15.9,1.3c0,0.5,0,0.9,0,1.4c16.7,1.4,33.4,2.8,50.1,4.2
		c0,0,0,0,0,0c0.3,0.3,0.6,0.6,0.9,0.8c6,0.4,12,0.8,18,1.2c0,0.4,0,0.7,0,1.1c-30.3-3-60.7-6-91-8.9c-1.3-1.6-2.6-1.5-4-0.2
		c-12.8,0-25.5,0-38.3,0c-2.3,0-4.9-0.4-4.8,3.2C122.4,84.6,122.1,83.9,121.8,83.2z"/>
	<path class="st18" d="M340.8,319.9c-0.1,0.3-0.3,0.5-0.6,0.4c-0.5,0.3-0.9,0.6-1.4,0.9l0,0c-8-2.3-16.2-0.9-24.3-0.9
		c-38.9-0.2-77.8-0.1-117.1-0.1c-0.3-1.6-0.5-2.8-0.7-4.1c0.3-1.4,0.6-2.8,0.9-4.2c1.7,2,4,1.2,6.1,1.2c30.1,0.1,60.3-0.2,90.4,0.1
		c17.6,0.2,35.3-1.3,52.8,1c-0.7,0.7-1.3,1.3-2,2c-0.4,0.4-0.8,0.7-1.2,1.1c0,0,0.1-0.1,0.1-0.1c-0.4,0.3-0.7,0.7-1.1,1l0,0
		c-0.4,0.3-0.7,0.6-1.1,0.9l-0.1,0C341.4,319.4,341.1,319.6,340.8,319.9z"/>
	<path class="st19" d="M953.8,28.4c-5.7,3.3-11.3,6.6-17,9.8c-1.4-2.7-3.9-2.1-6.1-2.1c-31.3-0.6-62.7,1.2-94-1
		c19.4-3.8,38.1-10.5,58.3-10.1c19.6,0.4,39.3,0.1,59.3,0.1C954.1,26.6,954,27.5,953.8,28.4z"/>
	<path class="st20" d="M346.9,314.2c-17.6-2.3-35.2-0.8-52.8-1c-30.1-0.3-60.3-0.1-90.4-0.1c-2.1,0-4.4,0.8-6.1-1.2
		c1-5,2-10,3.1-14.9c-0.1,2.9-0.3,5.8-0.4,9.2c11.2,0,22.1-0.1,33,0.1c3.5,0.1,6-1,7.7-4c-0.5,2.9,1.1,3.1,3.5,2.9
		c9.1-0.8,18.2-1.4,27.3-2.1c-6.6,1-13.2,1.9-23.3,3.4c4.9,0.5,6.5,0.7,8,0.7c30.4,0,60.8,0,91.2,0c1.8,0,3.5-0.6,5.3-0.9
		C350.9,308.9,348.9,311.5,346.9,314.2z"/>
	<path class="st21" d="M500.7,166.2c1.1,2,2.2,3.9,3.3,5.9c-24.7,0-49.3,0-74,0.1c-2.2,0-4.8-0.8-6.2,1.9c-4.4,0-8.8,0-13.2,0
		c0.2,2.7,0.3,4.8,0.4,7c-0.4,0-0.8,0-1.1,0c0.1-3-0.2-5.9-2.6-9c-8.9,0-18.1,0-27.4,0c-0.4-2.5-2-5,0.2-8c38.8,0,77.9,0,117,0.1
		C498.2,164.3,499.4,165.5,500.7,166.2z"/>
	<path class="st22" d="M500.7,166.2c-1.3-0.7-2.5-1.9-3.8-1.9c-39.1-0.1-78.1-0.1-117-0.1c-2.2,3-0.5,5.5-0.2,8
		c-0.1,1.4-0.1,2.9-0.2,4.3c-0.7-3.7-1.3-7.3-2-11c-0.3-2.4-0.5-4.8-0.8-7.3c0-0.7-0.1-1.4-0.1-2.1c40.2,0,80.4,0,120.6,0
		c2.2,0,5.4-1.2,5.4,3C502.1,161.5,501.4,163.9,500.7,166.2z"/>
	<path class="st23" d="M836.8,35.2c31.3,2.2,62.6,0.4,94,1c2.3,0,4.8-0.6,6.1,2.1c0,0,0,0,0,0c-0.7,0.4-1.4,0.8-2,1.2
		c-4.7,2.7-9.3,5.4-14,8c0.4-0.7,0.8-1.4,1.5-2.8c-2.2-0.2-4.1-0.5-6-0.5c-36.9,0-73.9,0-110.8-0.1c-2.3,0-4.5-0.6-6.8-1
		c10-2.3,20-4.6,30-7c1,0,2,0,3-0.1c0.3-0.3,0.6-0.6,1-0.9C834.1,35.3,835.4,35.2,836.8,35.2z"/>
	<path class="st24" d="M241.8,56.1c-15.8-1.5-31.5-3.1-47.3-4.5c-3.9-0.3-7.9,0.5-11.8,0.5c-36.1,0-72.1,0-108.2,0.1
		c-2,0-5.8-1.9-5.7,2.9c-5.3-2.3-10.7-4.6-16-7c-0.7-0.3-1.4-0.6-2.2-0.9c0,0,0,0,0,0c1.7-2,3.9-2.2,6.3-2.2c27-0.3,53.9-0.7,80.9-1
		c8.3,0.7,16.6,1.3,25,2l0.4-0.1l0.1,0.3l0.1-0.3c9.4,1,18.8,2.1,28.2,3.1c16.7,2,33.4,4,50,6C241.7,55.5,241.8,55.8,241.8,56.1z"/>
	<path class="st25" d="M783.8,411.2c0,0.3,0,0.6,0,0.8c-3.2-0.3-6.4-0.5-10.1-0.9c0.9-12.7-1.5-25.1,1-37.3c0.1,1.8,0.1,3.5,0.2,5.3
		c0,3.7,0,7.3,0,11c0,3.4,0,6.9,0,10.6c57.1,0,113.5,0,169.9,0c0-0.3,0-0.6,0.1-0.9c-37.4-4.2-74.7-8.3-112.1-12.5
		c-2.3-0.1-4.6-0.1-6.9-0.2c-0.3-0.3-0.6-0.5-0.9-0.8c-2.7-0.1-5.4-0.2-8.1-0.2c0-0.4,0-0.8,0-1.2c42.8,4.5,85.7,8.9,128.5,13.6
		c2.7,0.3,5.1,2.8,7.7,4.3c0,0-0.2,0.4-0.2,0.4c-2.2,1.8-4.8,1.9-7.5,1.9c-54.7,0-109.4,0-164.2,0c-1.9,0-3.9,0-6.2,0
		c0.1,2,0.2,3.3,0.3,4.8C778.2,410.4,781,410.8,783.8,411.2z"/>
	<path class="st26" d="M907.6,428.2c28,0,56.1,0,85.4,0c-1.4-3.2-1.8-4.2-2.2-5.1c13.1,6.8,26.2,13.5,42.3,21.8
		c-16.8-2.1-30.4-3.9-44-5.6c-26.4-3.4-52.8-6.8-79.1-10.3C909.1,428.9,908.3,428.5,907.6,428.2z"/>
	<path class="st27" d="M496,100.1c-42.8,0-85.7,0-128.4,0c0,3.6,0,6.5,0,9.4c-0.7-3.7-1.3-7.4-2-11c0.2-1.6,0.3-3.2,0.5-5.3
		c2.3,0,4.3,0,6.2,0c35.9,0,71.9,0,107.8,0c2.9,0,5.9-0.7,8.8-1.1C491.4,94.7,493.7,97.4,496,100.1z"/>
	<path class="st12" d="M222.9,403.3c-0.7,3.6-1.3,7.3-2,10.9c-1.4,1.9-2.8,3.1-5.6,3.1c-19.2-0.2-38.4-0.1-57.6-0.1
		c-2,0-4,0.1-5.1-2.2c0,0,0,0,0,0c0.7-0.4,1.4-0.8,2.1-1.1c8-4.7,15.9-9.4,24-14.1c0.6-1.9,1.3-4,1.9-6c-0.2,2.7-0.4,5.4-0.6,8.1
		C194.3,403.2,208.7,400.6,222.9,403.3z"/>
	<path class="st9" d="M724.8,70.2c33.3,0,66.6,0,100.9,0c0,3.6,0,6.8,0,10c-14.1,0-28.3,0-42.1,0c-0.7,3.6-1.2,6.3-1.7,9
		c0-3.3,0-6.5,0-10c-5.9,0.8-11.4,1.5-16.9,2.2c2.9-0.9,5.7-1.9,8.6-2.8c-16.6-2.3-33.1-1.1-49.6-1.3
		C724.2,74.8,724.5,72.5,724.8,70.2L724.8,70.2z"/>
	<path class="st13" d="M196.7,316.1c0.2,1.3,0.4,2.5,0.7,4.1c39.3,0,78.2-0.1,117.1,0.1c8.1,0,16.3-1.3,24.3,0.9
		c-4.3,3.4-9.1,5.5-14.6,6.1c-42.7,0-85.3,0-128.1,0c-0.2-3.4-0.4-4.8-0.5-6.3C196,319.3,196.4,317.7,196.7,316.1z"/>
	<path class="st28" d="M195.7,256.2c2.8-0.3,5.6-1,8.4-1c49.7-0.1,99.3,0,149,0c2,0,4,0,6.5,0c0.4-1.5,0.8-2.8,1.2-4.1
		c0.7,3,1.4,5.9,2,8.9c-0.2,1.4-0.5,2.7-0.8,4.6c-10.4-1.3-20.4,1.2-30.3-1.3c-2.7-1.7-5.3-3.4-8-5.1c-1.1-0.3-2.2-0.9-3.2-0.9
		c-16.4,0.3-32.9-0.1-49.3,1.3c-7.4,0.6-15.2-1.3-22.4,2l0.2-0.2c-0.4,0.7-0.8,1.4-1.2,2.1l0.1-0.1c-13.1,0-26.1-0.1-39.2-0.1
		c0-0.3,0-0.7,0-1c-1.8-0.6-3.5-1.3-5.3-1.9C200.9,258.2,198.3,257.2,195.7,256.2z"/>
	<path class="st29" d="M703.9,86.2c0,1.8,0,3.6,0,6.1c-11.1,1.7-22.1,3.4-33,5.1c4.6-1.2,9.1-2.4,16.9-4.5c-37.2,0-71.1,0-105.7,0
		c-1.1,0.8-2.8,2-4.5,3.2c3.8-5.5,9-8.9,15.3-10.9c2.8,0.3,5.6,1,8.3,1C635.4,86.2,669.6,86.2,703.9,86.2z"/>
	<path class="st30" d="M772.8,232.2c0,3.7,0,7.3,0.1,11c0,3,0,6,0,9c0,2.4,0,4.9,0,7.5c1.5,0.2,2.5,0.4,3.4,0.5
		c28.6,0.7,57.1,1.6,85.7,1.9c28,0.3,56,0,83.9,0.1c7,0,13.9,0.6,20.8,1c-2.7,1.7-5.3,3.3-8,5c-0.3,0.3-0.7,0.7-1,1l0,0
		c-0.3,0.3-0.7,0.6-1,1c-0.3,0-0.7,0-1,0c-0.7,0.3-1.3,0.7-2,1c0,0.3,0,0.7,0,1c-16.3,0-32.5,0-48.8,0c-3.3,0-6.7,0.2-9.4-2.2
		c0,0,0,0.1,0,0.1c0.4-0.3,0.8-0.7,1.2-1c1.4-1.1,2.8-2.2,4.2-3.3c-0.2-0.9-0.5-1.8-0.7-2.7c-42.6,0-85.2,0-128.2,0
		c0-11.6,0-21.2,0-30.8C772.2,232.2,772.5,232.2,772.8,232.2z"/>
	<path class="st31" d="M480,360.2c-1.7,3.6-4.4,6.2-7.9,8c-13.2-2.4-26.6-0.8-39.8-1c-19.6-0.3-39.2-0.1-59.5-0.1c0-3.1,0-5.6,0-8
		c30,0,59.9-0.1,89.9,0C468.4,359.2,474.2,359.9,480,360.2z"/>
	<path class="st32" d="M241.8,88.2c-16.7-1.4-33.4-2.8-50.1-4.2c0-0.5,0-0.9,0-1.4c5.3-0.5,10.6-1.3,15.9-1.3
		c40.8-0.1,81.6,0,122.4-0.1c2.9,0,5.6,0.4,8,2c1,1.3,2,2.7,3,4c-32.2,0-64.4,0-96.7,0.1C243.6,87.2,242.7,87.8,241.8,88.2z"/>
	<path class="st33" d="M152.6,415c1.1,2.2,3.1,2.2,5.1,2.2c19.2,0,38.4-0.1,57.6,0.1c2.7,0,4.2-1.1,5.6-3.1c-0.5,3.9-1,7.8-1.6,12.2
		c-3.5,0.6-6.9,1.2-10.3,1.8c-22.2-2.4-44.5-0.4-66.7-1.2c-2.1-0.1-5.9,1.7-5.6-3.1c0,0-0.1,0.1-0.1,0.1c1.1-0.6,2.1-1.2,3.2-1.8
		C144.1,419.8,148.3,417.4,152.6,415z"/>
	<path class="st34" d="M831.8,36.2c-1,0-2,0-3,0.1c-0.8-0.1-1.5-0.1-2.3-0.2c26.3-5.4,52.6-10.9,79-16.2c13.4-2.7,26.8-5.1,40.2-7.7
		c9.6,0.5,19.1,1.1,29.3,1.6c-1.8,2-2.9,3.3-4.1,4.6c0,0,0.1-0.1,0.1-0.1c-0.7,0.4-1.4,0.7-2.1,1.1c0,0,0.1-0.1,0.1-0.1
		c-3.5,0.4-6.1,2.2-8.1,5c-2.3,1.4-4.6,2.7-7,4.1c0.1-0.9,0.3-1.9,0.5-3.3c-20,0-39.7,0.3-59.3-0.1c-20.1-0.4-38.9,6.3-58.3,10.1
		c-1.3,0-2.7,0.1-4,0.1C832.4,35.6,832.1,35.9,831.8,36.2z"/>
	<path class="st35" d="M372.8,359.2c0,2.4,0,4.9,0,8c20.3,0,39.9-0.2,59.5,0.1c13.3,0.2,26.6-1.4,39.8,1c-7.3,5.9-16.3,6.6-25.1,8
		c-1.8-0.4-3.5-1-5.3-1c-22.4-0.1-44.7,0-67.1,0c-4.7-9.5-3.2-19.4-2-29.3c0.1,2.4,0.1,4.8,0.2,7.2
		C372.8,355.2,372.8,357.2,372.8,359.2z"/>
	<path class="st36" d="M655.8,168.3c-19.7,1.6-39.4,3.3-59,4.9c-8.9-2.4-18-0.4-27-1c0-3,0-6,0-9c33.3,0,66.6,0,100,0
		c0,0.7,0,1.3,0,2c0,0.3,0,0.7,0,1c-0.7,0-1.3,0-2,0c-0.3,0.4-0.6,0.8-0.9,1.1c0,0,0.1-0.1,0.1-0.1
		C663.2,167.7,659.3,165.9,655.8,168.3z"/>
	<path class="st37" d="M958.8,268.2c2.7-1.7,5.3-3.3,8-5c0,0,0,0,0,0c0.3-0.3,0.7-0.7,1-1c1.3-0.7,2.7-1.4,4-2.1
		c0.3-0.3,0.7-0.6,1-0.9c0.3,0,0.7,0,1-0.1c0.3-0.3,0.6-0.6,1-0.9l0.1-0.1c0.3-0.3,0.6-0.6,1-0.9c0.3,0,0.7-0.1,1-0.1
		c0.3-0.3,0.6-0.6,0.9-0.9l0.1-0.1c0.3-0.3,0.6-0.6,1-0.9c1-0.7,2-1.3,3-2c0.3,0,0.7-0.1,1-0.1c0.3-0.3,0.6-0.6,1-0.9
		c0.7-0.4,1.3-0.7,2-1.1c0.3-0.3,0.7-0.6,1-0.9c0.3,0,0.7-0.1,1-0.1c0.4,0.1,0.7,0.1,1.1,0.2c-16.7,11.3-33.5,22.5-50.2,33.8
		c-1,0.7-2,1.4-3,2.1c-3.2,2-6.5,4.1-9.7,6.1c-17.8,0-35.6,0-54,0c1-2.6,1.4-3.5,1.8-4.4c3.7-3,7.3-6,11-9c1.2,2.8,3.7,2.3,6,2.3
		c16.2,0,32.4,0,48.8,0c4.6-2.9,9.5-6,14.3-9c0-0.3,0-0.7,0-1c0.7-0.3,1.3-0.7,2-1c0.3,0,0.7,0,1,0c0.3-0.3,0.7-0.6,1-1c0,0,0,0,0,0
		C958.1,268.8,958.4,268.5,958.8,268.2z"/>
	<path class="st38" d="M489.1,92c-2.9,0.4-5.9,1.1-8.8,1.1c-35.9,0.1-71.9,0-107.8,0c-2,0-3.9,0-6.2,0c-0.2,2.1-0.4,3.7-0.5,5.3
		c-0.3-1.7-0.6-3.4-1-5.2c0-2.1,0-4.1,0.1-6.2c38.4-0.7,76.7,1.3,115.1-1c0,0-0.1,0-0.1,0c0.7,0.3,1.4,0.7,2.1,1
		C484.3,88.8,486.7,90.4,489.1,92z"/>
	<path class="st27" d="M577.5,96.1c1.7-1.2,3.5-2.5,4.5-3.2c34.6,0,68.5,0,105.7,0c-7.7,2.1-12.3,3.3-16.9,4.5c0,0,0-0.1,0-0.1
		c-1.7,0.3-3.4,0.6-5.1,1c0,0,0.1,0,0.1,0c-4.5-0.2-8.9,0.1-13,2.1c-3.6,0.6-7.3,1.3-10.9,1.9c-1.2-2.4-3.5-2.2-5.6-2
		c-19,2-38.1,0.6-57.2,0.6c-2.1,0-3.8,0.2-5.4,1.2C574.9,100.1,576.2,98.1,577.5,96.1z"/>
	<path class="st39" d="M137.8,44.2c-27,0.3-53.9,0.7-80.9,1c-2.4,0-4.7,0.2-6.3,2.2c-3.6-1.6-7.3-3.2-10.9-4.9c-1-0.4-2-0.8-3-1.2
		c0,0,0.1,0,0.1,0c-1.9-2-4.2-3.2-7.1-3c0,0,0.1,0.1,0.1,0.1c-1.3-1-2.6-2-5-3.8c7.7-0.5,13.4-1.8,19.4-1
		c14.2,1.9,28.4,3.1,42.6,4.5C103.8,40.1,120.8,42.2,137.8,44.2z"/>
	<path class="st32" d="M479.8,86.1c-38.3,2.4-76.7,0.4-115.1,1c-1-2.2-1.6-4.3,0.1-7.1c31.6,0.7,63.4-1.4,95.2,2
		C466.9,82.2,473.7,82.8,479.8,86.1z"/>
	<path class="st40" d="M813.2,231c-13.5,0.1-27,0.2-40.5,0.3c-0.3-0.1-0.5-0.2-0.8-0.1c0-2,0-4,0-6.1c0.6-4,1.2-8,1.8-12
		c13.3,0.6,26.6-1.2,39.9,1c0,0.4,0,0.8,0,1.1c-0.2,5-0.5,10-0.7,14.9C813.1,230.4,813.2,230.7,813.2,231z"/>
	<path class="st8" d="M904,308.5c-5,3.9-9.9,7.8-14.9,11.8c-16.7-2.7-33.6-0.1-50.6-1.4c0.9-1.5,1.6-2.7,2.3-4c4-3.3,8-6.5,12-9.8
		c4.2,4.5,9.5,1.5,14.3,2C879.3,308.2,891.7,305.5,904,308.5z"/>
	<path class="st11" d="M352.8,306.2c-1.8,0.3-3.5,0.9-5.3,0.9c-30.4,0.1-60.8,0-91.2,0c-1.5,0-3.1-0.3-8-0.7
		c10.1-1.5,16.7-2.4,23.3-3.4l0,0.1c7.5,0.3,14.9-0.1,22.1-2c9.9-2.1,20.4-0.3,29.9-5c-0.2,1-0.5,2.1,1.1,2.1
		c10.7,0,21.4,0.1,32.1,0.1C355.5,300.9,354.2,303.5,352.8,306.2z"/>
	<path class="st41" d="M704.8,71.2c0,0.3,0,0.7,0,1c-0.4,2.7-0.7,5.3-1.1,8c-33.3,1-66.7-2.3-100,1.9c19.3-4,38.6-8,57.8-12
		C675.9,70.4,690.4,70.8,704.8,71.2z"/>
	<path class="st42" d="M812.7,337.8c4-3.3,8-6.5,12-9.8c1.4,2.7,3.9,2,6.2,2.1c14.8,0.7,29.6-1.4,44.3,1.2c-5,4-10.1,8-15.1,11.9
		c-14.6-2.4-29.4-0.5-44-1.1c-2.2-0.1-4.8,0.7-6.2-2l0,0C810.7,339.4,811.7,338.6,812.7,337.8z"/>
	<path class="st43" d="M195.7,321c0.1,1.5,0.2,2.9,0.5,6.3c42.8,0,85.4,0,128.1,0c-1.7,0.3-3.4,0.7-5.1,1
		c-16.7,1.6-33.5,4.9-50.2,4.5c-23.6-0.6-47.1,0-70.6-0.6c-1.6,0-3.1-0.7-4.7-1.1c0,0,0,0.1,0,0.1c1.9-1.4,1-3.5,1.1-5.3
		C195,324.2,195.4,322.6,195.7,321z"/>
	<path class="st26" d="M136.7,424c-0.2,4.8,3.6,3,5.6,3.1c22.2,0.7,44.5-1.2,66.7,1.2c-13.6,3-27.3,6-40.9,9c-15.8,0-31.7,0-48.1,0
		c0.3-2.5,0.5-3.4,0.6-4.3c0,0-0.1,0.1-0.1,0.1c0.7-0.4,1.4-0.7,2.1-1.1c0,0-0.1,0.1-0.1,0.1c0.4-0.3,0.8-0.6,1.2-0.9l0,0
		c1.8,0.1,3.3-0.2,3.9-2.2c0,0-0.1,0.1-0.1,0.1c0.7-0.3,1.4-0.7,2.1-1c0,0-0.1,0.1-0.1,0.1c0.4-0.3,0.8-0.6,1.2-0.8
		C132.8,426.2,134.7,425.1,136.7,424z"/>
	<path class="st42" d="M193.6,331.1c1.6,0.4,3.1,1,4.7,1.1c23.5,0.6,47.1,0,70.6,0.6c16.7,0.4,33.5-2.9,50.2-4.5
		c-26,3.3-51.9,6.6-77.9,10c-2.6,0.3-5.9-0.5-7.3,3c-14.1,1.4-28.3,1.8-42.4-0.2c0,0,0,0.1,0,0.1c2-1.5,1-3.6,1.1-5.4
		C193,334.1,193.3,332.6,193.6,331.1z"/>
	<path class="st44" d="M120.7,432.9c-0.1,0.9-0.3,1.8-0.6,4.3c16.4,0,32.2,0,48.1,0c-27.4,6-54.8,12-82.2,18
		c-1.1-0.4-2.2-0.8-3.2-1.2C95.4,447.1,108,440,120.7,432.9z"/>
	<path class="st45" d="M222.9,403.3c-14.2-2.6-28.6-0.1-42.9-1.4c0.2-2.7,0.4-5.4,0.6-8.1c0.7-3.3,1.4-6.6,2-9.9
		c0.2,1.4,0.5,2.7,0.8,4.3c9.6,0,18.7,0.3,27.8-0.1c4.9-0.2,10.3,1.9,14.8-1.9c-0.7,4-1.4,8-2.2,11.9
		C223.5,399.9,223.2,401.6,222.9,403.3C222.8,403.3,222.9,403.3,222.9,403.3z"/>
	<path class="st46" d="M603.7,82.1c33.3-4.3,66.7-0.9,100-1.9c0.1,1.8,0.2,3.6,0.2,5.4l0.2,0.3c0,0-0.2,0.3-0.2,0.3
		c-34.3,0-68.5,0-102.8,0c-2.8,0-5.6-0.6-8.3-1C596.4,84.1,600,83.1,603.7,82.1z"/>
	<path class="st47" d="M875.1,331.3c-14.7-2.5-29.5-0.5-44.3-1.2c-2.3-0.1-4.8,0.6-6.2-2.1c0,0,0,0,0,0c0.4-0.3,0.8-0.6,1.1-1
		c0,0,0,0,0,0c2.1-0.2,3.3-1.4,3.9-3.3c3.7-3,7.3-6,11-9c-0.7,1.2-1.4,2.5-2.3,4c17.1,1.4,33.9-1.2,50.6,1.4
		C884.4,324,879.8,327.6,875.1,331.3z"/>
	<path class="st48" d="M374.6,375.2c22.4,0,44.7-0.1,67.1,0c1.8,0,3.5,0.7,5.3,1c-17.5,4.3-34.9,9.5-53,10.8
		C385.4,387.6,378.1,384.1,374.6,375.2z"/>
	<path class="st49" d="M372.8,359.2c0-2,0-4,0.1-6c9-0.6,18,1.3,26.9-1c0.3,0,0.7,0,1,0l0.3,0.2l-0.1,0.3c0.4,0.8,0.7,1.6,1.1,2.4
		l-0.1-0.2c0.4,0.4,0.7,0.8,1.1,1.2l-0.1-0.1c3,2.6,5.9,1.7,8.9,0l-0.1,0.1c1.7-0.3,3.4-0.6,5.1-1l-0.1,0c1.7-0.3,3.4-0.6,5.1-0.9
		c4-0.7,7.9-1.4,11.9-2.1c15.1,4.6,30.6,1,45.9,2c1.4,0.1,2.9-1.2,4.3-1.9c-1.3,2.7-2.6,5.4-3.9,8c-5.8-0.4-11.6-1-17.3-1
		C432.7,359.1,402.7,359.2,372.8,359.2z"/>
	<path class="st50" d="M754,294.2c-10.8-0.8-21.7,1.6-32.4-1.3c-0.2-0.3-0.1-0.5,0.2-0.7c0.3-0.8,0.5-1.6,0.8-2.5
		c0.1-16.2,0.2-32.3,0.3-48.5c0.3,0,0.5,0,0.8,0c0,2.7,0.1,5.3,0.1,8c0,4.7,0,9.3,0,14c0,5.1,0,10.2,0,15.7c10.4,0,20.3,0,30.7,0
		c0-5.5,0-10.6,0-15.7c0.1-4.1,0.2-8.2,0.4-12.3C755.3,265.3,757,279.8,754,294.2z"/>
	<path class="st51" d="M240.9,302.2c-1.7,3-4.2,4.1-7.7,4c-10.9-0.2-21.8-0.1-33-0.1c0.2-3.4,0.3-6.3,0.4-9.2c0.7-3.3,1.4-6.6,2-9.9
		c0.1,1.9,0.3,3.8,0.4,5.8c13,0,25.4,0,38.6,0c0.7-4.3,1.4-8.5,2.1-12.7c0-0.3,0-0.7,0-1c0.4,0,0.8,0,1.2,0.1
		C243.6,286.9,242.2,294.5,240.9,302.2z"/>
	<path class="st52" d="M241.8,88.2c0.9-0.3,1.8-0.9,2.7-0.9c32.2-0.1,64.4-0.1,96.7-0.1c1,1.7,1.9,3.3,2.9,5
		c-12.5,2.4-25.2,0.4-37.8,1.1c-1.4,0.1-4.2-1.5-3.6,2.1c-10.3-1-20.6-2-30.9-3c-3.1-2.4-6.7-0.7-10.1-1.1l0.1,0.1
		c-0.3-0.4-0.6-0.8-0.9-1.2c-6-0.4-12-0.8-18-1.2C242.4,88.7,242.1,88.4,241.8,88.2L241.8,88.2z"/>
	<path class="st53" d="M953.7,272.2c-4.8,3-9.7,6.1-14.3,9c-16.4,0-32.6,0-48.8,0c-2.3,0-4.8,0.5-6-2.3c3.6-3,7.3-5.9,10.9-8.9
		c2.7,2.5,6.1,2.2,9.4,2.2C921.2,272.2,937.5,272.2,953.7,272.2z"/>
	<path class="st54" d="M809.8,340.2c1.4,2.7,4,1.9,6.2,2c14.7,0.6,29.4-1.3,44,1.1c-3.4,2.6-6.8,5.3-10.1,7.9
		c-1.2,0.4-2.4,1.3-3.7,1.3c-15.2,0-30.4-0.2-45.6-0.3c-1.5,0-2.6-0.4-2.8-2.1C801.8,346.8,805.8,343.5,809.8,340.2z"/>
	<path class="st55" d="M211.9,206.1c-14.8-3.2-29.6-3-44.4,0c5-4-1.7-7.1-0.9-10.7c0-1.4,0-2.7,0-5.2c12.8,0,24.9,0,37.1,0
		c0.4,0,0.7,0,1.1,0C207.2,195.4,209.6,200.8,211.9,206.1z"/>
	<path class="st50" d="M243.8,280.2c-0.7,4.2-1.4,8.4-2.1,12.7c-13.1,0-25.5,0-38.6,0c-0.1-2-0.3-3.9-0.4-5.8c1.3-6.3,2.7-12.7,4-19
		c0.1,0.3,0.2,0.7,0.2,1c0,0.7-0.1,1.4-0.1,2.1c0,2.8-2.3,5.6,0.1,9C219,280.2,231.4,280.2,243.8,280.2z"/>
	<path class="st27" d="M129.8,103.2c-1.3-3.3-2.7-6.7-4-10c-0.2-2.3,1.1-3.7,3.1-3.8c13-0.1,26.1-0.1,38.4-0.1
		c1.6,2.5,2.6,4.1,3.6,5.8c0.7,2,1.4,4,2.1,6c-12.8,0-25.6,0-38.3,0.1C132.9,101.2,130.5,100.2,129.8,103.2z"/>
	<path class="st56" d="M380.7,248.9c0.3-5.7,0.6-11.4,1-17.5c2.6-0.1,5-0.3,7.5-0.4c6.3,0.2,12.6,0.4,18.9,0.7
		c-0.3,5.1-0.7,10.3-1,15.4c-0.7,1.2-1.4,2.5-2.3,4c-7.8,0-15.7,0-23.6,0C380.9,250.4,380.8,249.6,380.7,248.9z"/>
	<path class="st57" d="M191.5,341c14.1,2,28.3,1.6,42.4,0.2c-0.7,4-1.4,8-2.1,11.9c-13.7,2.3-27.5,0.3-41.5,1.1
		c-0.3-1.8-0.5-3.1-0.7-4.3C190.3,347,190.9,344,191.5,341z"/>
	<path class="st58" d="M774.8,379.2c-0.1-1.8-0.1-3.5-0.2-5.3c0.2-3.4,1.7-6.3,4.1-8.7c-0.1,3.8,2.7,2.9,4.9,3
		c14.5,0.7,29-1.4,43.5,1.2c-4.1,3.3-8.3,6.5-12.4,9.8C801.4,379.1,788.1,379.2,774.8,379.2z"/>
	<path class="st40" d="M408,231.7c-6.3-0.2-12.6-0.4-18.9-0.7c-0.5-3.2-0.9-6.4-1.4-9.7c0-2.6,0-5.2,0-8c8.9,0,17.6,0,26.6,0
		c1.2,5,2.4,9.9,3.5,14.7c0.2,0.9,0.4,1.8,0.6,2.7C414.8,231.2,411.4,231.4,408,231.7z"/>
	<path class="st59" d="M621.9,319.2c0,3.7,0,7.3,0,11c0,4.7,0,9.3,0,14c0,3,0,6.1,0,9.1c0,2,0,4,0,6c0.4,6.2,0.7,12.4,1,18.4
		c8.6,0,16.5,0,24.1,0c0.6-3.8,1.1-7.2,1.7-10.5c0,9.1,0,18.2,0,27.6c-9-1.1-18-2.3-27.7-3.5c0-31,0-61.5,0-92.1c0,0,0.3,0,0.3,0
		l0.3,0c0.1,2.7,0.1,5.3,0.2,8C621.9,311.2,621.9,315.2,621.9,319.2z"/>
	<path class="st60" d="M904,308.5c-12.2-3.1-24.7-0.3-37-1.5c-4.8-0.5-10.1,2.5-14.3-2c0,0,0,0,0,0c0.4-0.3,0.7-0.6,1.1-1l0,0
		c1.5-0.1,2.6-0.7,2.8-2.3c0,0-0.1,0.1-0.1,0.1c0.4-0.4,0.8-0.7,1.2-1.1c2-1.6,4-3.3,5.9-4.9c0.8,3.1,3.4,2,5.4,2.1
		c15.6,0.6,31.2-1.1,46.7,1c-3,2.3-5.9,4.7-8.9,7C905.3,306.2,904.2,306.8,904,308.5L904,308.5z"/>
	<path class="st2" d="M723.8,249.2c0-2.7-0.1-5.3-0.1-8c0-2.4,0-4.9,0-7.7c10.3,0,19.8,0,30,0c0,3.1,0,5.9,0,8.7
		c0.4,1.7,0.7,3.3,1.1,5c0,0.7,0,1.3,0,2C744.5,249.2,734.2,249.2,723.8,249.2z"/>
	<path class="st61" d="M460.1,82.1c-31.8-3.4-63.6-1.3-95.2-2c-1.8,2.7-1.2,4.9-0.1,7.1c0,2.1,0,4.1-0.1,6.2
		c-1.5-7.6-3-15.2-4.7-23.9C394,73.7,427.1,77.9,460.1,82.1z"/>
	<path class="st62" d="M774.8,379.2c13.3,0,26.6,0,39.9,0c-1.6,1.4-3.1,2.7-4.7,4.1c0.8,4.4,5.2,0.4,6.8,2.9
		c2.7,0.1,5.4,0.2,8.1,0.2c0.3,0.3,0.6,0.5,0.9,0.8c2.3,0.1,4.6,0.1,6.9,0.2c-2.2,2.8-5.4,2.8-8.6,2.8c-16.4,0-32.9,0-49.3,0
		C774.8,386.5,774.8,382.8,774.8,379.2z"/>
	<path class="st63" d="M669.8,165.2c0-0.7,0-1.3,0-2c0.3-2.3,0.6-4.7,0.9-7c0-2.1,0-4.2,0-7c-5.5,0-10.4,0.1-15.3,0
		c-17.9-0.5-35.8,1.3-53.6-1c0-0.3,0-0.7,0-1c23.3-2.9,46.7-5.8,70.7-8.8c-0.6,9.8-1.1,18.8-1.6,27.8c0,0-0.3-0.2-0.3-0.2
		C670.3,165.7,670,165.4,669.8,165.2z"/>
	<path class="st55" d="M367.8,217.2c0-4.1,0-8.2,0-13.1c-11.1,0-21.6,0-32.1,0c-0.3-3-0.7-5.9-1-8.9c0.2-1.6,0.3-3.1,0.5-5.1
		c10.5,0,20.6,0,30.6,0C367.9,199.1,370.8,207.9,367.8,217.2z"/>
	<path class="st64" d="M710.8,330.2c11.2-2.2,22.5-0.4,33.7-1c1.9-0.1,4.5,1.1,5.4-2c1,3,2,5.9,3,8.9c0.3,1.4,0.7,2.8,1,4.2
		c0,0,0-0.1,0-0.1c-10.5,4.2-21.3,2-32,1.1c-2.4-4.8-6.1-8-11.2-9.8C710.7,331,710.7,330.6,710.8,330.2z"/>
	<path class="st65" d="M331.8,263.2c9.9,2.5,19.9,0,30.3,1.3c0.3-1.8,0.6-3.2,0.8-4.6c1.4,6.4,1.9,12.8-0.1,19.3
		c-9.4,0-18.8,0-28.4,0c-0.3-1.8-0.5-3-0.7-4.3C333,271,332.4,267.1,331.8,263.2z"/>
	<path class="st31" d="M827.1,369.3c-14.4-2.5-29-0.5-43.5-1.2c-2.2-0.1-5,0.8-4.9-3l0,0c0.3-0.4,0.6-0.8,1-1.2c2.3-2,4.7-3.9,7-5.9
		c2.6,3.7,6.4,1.7,9.7,2c13.5,0.9,27.1-1.5,40.5,1.4C833.7,364.1,830.4,366.7,827.1,369.3z"/>
	<path class="st66" d="M836.9,361.5c-13.4-2.9-27-0.4-40.5-1.4c-3.2-0.2-7.1,1.7-9.7-2c0,0,0,0,0,0c0.6-0.4,1.3-0.8,1.9-1.2
		c0,0-0.1,0.1-0.1,0.1c0.7-0.4,1.4-0.8,2.1-1.2c2.4-1.9,4.7-3.8,7.1-5.7c0.3,1.6,1.4,2.1,2.8,2.1c15.2,0.1,30.4,0.3,45.6,0.3
		c1.2,0,2.4-0.8,3.7-1.3c-3.3,2.7-6.7,5.3-10,8C838.3,359.2,837.2,359.8,836.9,361.5L836.9,361.5z"/>
	<path class="st32" d="M781.8,89.2c0.5-2.7,1-5.4,1.7-9c13.8,0,28,0,42.1,0c-0.3,3.3-0.6,6.7-1,10c-13.7,0-27.5,0-40.7,0
		c-3,3-1.9,6.1-2.2,9c0,0.3,0,0.7,0,1c-0.3,0-0.6,0-0.9,0C781.2,96.5,781.5,92.8,781.8,89.2z"/>
	<path class="st67" d="M723.8,249.2c10.4,0,20.7,0,31.1,0c0,0.6,0,1.1,0,1.7c-0.1,4.1-0.2,8.2-0.4,12.3c-10.2,0-20.4,0-30.7,0
		C723.9,258.5,723.9,253.8,723.8,249.2z"/>
	<path class="st68" d="M148.7,150.3c-1.3-3.3-2.7-6.6-4-9.9c0.9-3.6,3.8-3.2,6.4-3.2c11.6,0,23.3,0,34.9-0.1c1.3,3.7,2.6,7.3,3.9,11
		c-12.9-2.2-25.9-0.4-38.8-0.9C149,147.1,148.8,148.7,148.7,150.3z"/>
	<path class="st69" d="M417.9,228.1c-1.2-4.9-2.3-9.7-3.5-14.7c-9.1,0-17.7,0-26.6,0c0,2.8,0,5.4,0,8c-0.7-3.7-1.3-7.4-2-11.1
		c-0.2-3.5-0.4-7.1-0.6-11.2c9.5,0,18.5,0,27.6,0c0.7,3,1.5,6,2.2,8.9C415.9,214.8,416.9,221.5,417.9,228.1z"/>
	<path class="st70" d="M365.8,190.2c-10,0-20.1,0-30.6,0c-0.2,2-0.3,3.6-0.5,5.1c-1-4.3-2-8.7-3-13c0.3-1.5,0.5-3.1,0.9-5.1
		c7.6,0,14.7-0.1,21.8,0c3.4,0.1,7.4-1.5,9.5,3C364.5,183.5,365.2,186.8,365.8,190.2z"/>
	<path class="st15" d="M573.7,102.1c1.7-1.1,3.3-1.2,5.4-1.2c19.1,0,38.1,1.3,57.2-0.6c2.2-0.2,4.4-0.4,5.6,2c0,0,0,0,0,0
		c-2.1,0.2-4.3-0.9-6.1,1.1c-12.3,2.3-24.6,4.6-36.9,7c-8.6-4.9-17.7-0.6-26.9-2.2c-0.5,3.6-0.9,6.4-1.3,9.1c-0.4,0-0.7,0-1.1,0
		C569.7,111.8,570.8,106.7,573.7,102.1z"/>
	<path class="st71" d="M226,386.2c-4.5,3.8-9.8,1.7-14.8,1.9c-9.1,0.4-18.2,0.1-27.8,0.1c-0.3-1.5-0.5-2.9-0.8-4.3
		c1-4.9,2.1-9.9,3.1-14.8c-0.2,3.1-0.4,6.2-0.7,9.7c13.7,0,27.1,0,40.8,0c0.6-1.1,1.4-2.3,2.1-3.5
		C227.3,378.9,226.6,382.5,226,386.2z"/>
	<path class="st72" d="M648.8,367.2c-0.5,3.4-1.1,6.7-1.7,10.5c-7.6,0-15.5,0-24.1,0c-0.3-6-0.7-12.2-1-18.4c0.5,1.5,1,3,1.6,4.5
		c8,0,15.8,0,24.2,0c0-3.5,0-6.5,0-9.6c0-3.3,0-6.7,0-10c0-4.7,0-9.3,0-14c0-1,0-2,0.1-3c0.3,0,0.7,0,1,0
		C648.8,340.5,648.8,353.8,648.8,367.2z"/>
	<path class="st70" d="M772.7,210.2c0.6-8.3,1.3-16.6,1.9-25c0.4-1.7,0.8-3.3,1.1-5c13.6,0,27.2,0,40.8,0c0,1,0,2.1,0,3.1
		c-0.3,2-0.6,3.9-0.9,5.9c-13.4,0-26.9,0-40.9,0c0,4.8,0,8.4,0,12c0,0.3,0,0.7,0,1c-0.3,0.7-0.6,1.3-0.9,2c0,2-0.1,4-0.1,6
		C773.4,210.2,773.1,210.2,772.7,210.2z"/>
	<path class="st73" d="M203.8,190.2c-12.1,0-24.3,0-37.1,0c0,2.5,0,3.8,0,5.2c-0.7-1.7-1.3-3.3-2-5c0.1-2.1-0.2-3.9-2.1-5.2
		c0,0,0,0.1,0,0.1c0.1-1.4,0.1-2.7,0.2-5.1c12.6,0,24.7,0,36.9,0l0,0c0.3,0.3,0.6,0.7,1,1C201.7,184.2,202.8,187.2,203.8,190.2z"/>
	<path class="st74" d="M499.1,231.5c-4.1-0.1-8.3-0.2-12.4-0.3c0,0,0.1,0.1,0.1,0.1c-0.1-1.2-0.1-2.5-0.2-3.7c0-3.6,0-7.2,0-11.3
		c8.6-1.8,16.4-1.4,24.3-0.1c0.4,5,0.7,9.9,1.1,14.9c-4,0.1-8.1,0.3-12.1,0.4C499.6,231.4,499.4,231.4,499.1,231.5z"/>
	<path class="st8" d="M375.7,310.7c0.3-4,0.6-7.9,0.9-11.9c0.2,2.3,0.3,4.5,0.5,7.1c8.7,0,17.1,0,25.2,0c1.4-3.6-1-7.5,1.5-10.8
		c-0.3,5.3-0.6,10.7-1,16c-0.6,2.8-1.3,5.6-1.9,8.6c-8.2,0-16.3,0-25.3,0C375.7,316.5,375.7,313.6,375.7,310.7z"/>
	<path class="st75" d="M378.7,273.8c0.3-4.3,0.7-8.6,1-12.9c-0.1,3.1,1.9,3.2,4.3,3.3c6.9,0.4,14-1.2,20.8,0.9c0,4.4,0,8.8,0,13.5
		c-9.1,0-17.2,0-25.5,0C379,276.7,378.8,275.3,378.7,273.8z"/>
	<path class="st58" d="M227.9,375.2c-0.7,1.2-1.5,2.5-2.1,3.5c-13.6,0-27.1,0-40.8,0c0.2-3.5,0.5-6.6,0.7-9.7
		c0.3-1.4,0.6-2.8,0.9-4.3c0.2,1.6,0.4,3.2,0.5,4.5c14.2,0,28,0,41.8,0C228.6,371.3,228.3,373.2,227.9,375.2z"/>
	<path class="st76" d="M778.7,130.2c0.3-4,0.6-8,0.9-12c0.6-1.8,1.3-3.6,2.1-5.9c13.5,0,27.2,0,40.9,0c-0.3,3-0.6,6-1,9
		c-13.8,0-27.5,0-41.9,0c0,3.8,0,6.4,0,9C779.4,130.2,779.1,130.2,778.7,130.2z"/>
	<path class="st77" d="M378.7,273.8c0.2,1.4,0.3,2.9,0.6,4.8c8.4,0,16.5,0,25.5,0c0-4.7,0-9.1,0-13.5c0,0,0,0,0,0c0.4,0,0.7,0,1.1,0
		c-0.3,5-0.7,10-1,15c-0.6,4.1-1.2,8.2-1.8,12.5c-8.4,0-16.6,0-25.1,0c-0.1-2.6-0.2-4.8-0.3-6.9C378,281.8,378.3,277.8,378.7,273.8z
		"/>
	<path class="st78" d="M775.6,171.2c0.3-4.3,0.7-8.7,1-13c0.4-1,0.7-2,1.1-3c0,0,0,0,0,0c13.6,0,27.3,0,40.9,0
		c0.1,2.4,0.1,4.7,0.2,7.1c0,0,0.1-0.1,0.1-0.1c-0.4,0.7-0.8,1.3-1.2,2c-13.4,0-26.9,0-39.9,0C776.9,167.2,776.3,169.2,775.6,171.2z
		"/>
	<path class="st54" d="M721.8,341.2c10.7,0.9,21.5,3.1,32-1.1c0.7,4.3,1.4,8.6,2.1,12.8c-0.1,0.4-0.2,0.8-0.4,1.2
		c-10.2,0-20.5,0-30.7,0c0-1.3-0.1-2.7-0.1-4c0-0.3,0-0.7,0-1c-0.3-0.3-0.7-0.7-1-1C723.1,345.8,722.5,343.5,721.8,341.2z"/>
	<path class="st79" d="M606.9,260c0.3,31.7,0.6,63.5,0.9,95.2c-8.3,0-16.6,0-24.9,0c0-4,0-8,0-12c7.7,0,15.5,0,23.9,0
		c0-4.8,0-8.9,0-13c0-3.3,0-6.7,0-10c0-4.3,0-8.7,0-13c0-3.7,0-7.3,0-11c0-4,0-8,0-12c0-4,0-8,0-12C606.7,268.1,606.8,264,606.9,260
		z"/>
	<path class="st80" d="M423.8,174.1c1.4-2.7,4-1.9,6.2-1.9c24.7-0.1,49.3-0.1,74-0.1c1,2.7,2,5.3,2.9,8c-5.4,0-10.9-0.4-16.3,0.2
		c-3.4,0.3-7.7-2.6-10.1,2.3c-2.3-1.8-4.5-3.7-6.8-5.5c-1-0.3-2.1-0.6-3.1-0.9l0.1,0c-6.4-2.4-13-0.5-19.4-1c-1.2,0-2.4-0.1-3.6-0.1
		c-5.7-2.2-11.6-0.5-17.5-0.9C428.1,174.2,426,174.2,423.8,174.1z"/>
	<path class="st81" d="M486.7,231.1c0.1,6.3,0.1,12.7,0.2,19c-6.6,0-13.3,0-19.9,0c-0.1-3.4-0.2-6.8-0.4-10.3c0-2.8,0-5.5,0-8.7
		C473.4,231.2,480.1,231.2,486.7,231.1L486.7,231.1z"/>
	<path class="st16" d="M148.7,150.3c0.1-1.6,0.4-3.1,2.4-3.1c12.9,0.5,25.9-1.2,38.8,0.9c1.1,3,2.1,6,3.2,8.9
		c-13.1-0.3-26.3-0.6-39.4-0.7c-0.6,0-1.3,1.2-1.9,1.9c-0.7-1.7-1.3-3.4-2-5C149.4,152.2,149,151.2,148.7,150.3L148.7,150.3z"/>
	<path class="st35" d="M499.1,231.5c0.3-0.1,0.5-0.1,0.8,0c-0.1,0.2,0,0.5,0.1,0.7c0,0.3,0,0.7,0,1c0,1.3,0,2.7,0,4
		c0,5.4,0,10.7,0,16.1c0,6,0,12,0,18c0,5.3,0,10.7,0,16c0,3.7,0,7.3,0,11c0,7,0,13.9,0,20.9c0,2,0,4.1,0,6.1c0,4.3,0,8.7,0,13
		c0,4,0,8,0,12c0,5.4,0,10.7,0,16.5c7.3,0,13.8,0,20.7,0c0-4.1,0-7.8,0-11.6c0.1-4,0.1-8,0.2-12c0.2,0,0.4,0,0.5,0
		c0,11.6,0,23.2,0,35.1c-7.5-1-14.7-2.1-22.3-3.1C499.1,327.2,499.1,279.3,499.1,231.5z"/>
	<path class="st82" d="M544.8,231c-6.7,0.1-13.4,0.2-20.1,0.3c-0.4-0.1-0.8-0.2-1.2-0.3c0-0.8,0.1-1.6,0.1-2.4
		c0.1-5.1,0.1-10.3,0.2-15.4c7,0,13.9,0,20.9,0C544.7,219.1,544.8,225.1,544.8,231z"/>
	<path class="st37" d="M466.6,239.9c0.1,3.4,0.2,6.8,0.4,10.3c0,4.7-0.1,9.3-0.1,14c0,4.9,0,9.7,0,15c7.2,0,13.6,0,20,0
		c0,5.3,0,10.7,0,16c-7,0-13.9,0.1-20.9,0.1c0,0-0.3-0.2-0.3-0.2C465.9,276.7,466.3,258.3,466.6,239.9z"/>
	<path class="st83" d="M363.9,180.2c-2.1-4.5-6.1-2.9-9.5-3c-7.1-0.1-14.2,0-21.8,0c-0.3,2-0.6,3.6-0.9,5.1c-1-4.6-2.1-9.2-3.1-13.8
		c0.3-1.8,1.5-2.3,3.2-2.3c9.3,0,18.5,0,27.8,0c0.8,1.5,1.5,2.7,2.3,4C362.5,173.5,363.2,176.8,363.9,180.2z"/>
	<path class="st84" d="M755.5,354.2c0.1-0.4,0.2-0.8,0.4-1.2c0,18.6,0,37.2,0,56c-10-1.3-20.4-2.7-32-4.3c0-18.3,0-36.3,0-54.4
		c0,0,0.4,0,0.4,0l0.4,0c0,1.3,0.1,2.7,0.1,4c0,4.3,0,8.7,0,13c0,3.7,0,7.3,0,11c0,3.3,0,6.7,0,10c0,3.2,0,6.5,0,9.7
		c10.6,0,20.4,0,30.8,0c0-3.4,0-6.5,0-9.7c0-3.3,0-6.7,0-10c0-3.7,0-7.3-0.1-11C755.6,362.8,755.6,358.5,755.5,354.2z"/>
	<path class="st85" d="M483.9,352.2c-1.4,0.7-2.9,2-4.3,1.9c-15.3-1-30.8,2.6-45.9-2c0,0,0,0,0,0c2-0.2,4.4,1,6.1-1.1l-0.1,0.1
		c1.7-0.3,3.4-0.6,5.1-1l-0.1,0c2-0.2,4.3,0.9,6.1-1.1l-0.1,0c1.7-0.3,3.4-0.6,5.1-1c4.4-0.7,7.4-3,8.8-7.3c0.4,2.5,2.3,2.4,4.1,2.4
		c5.7,0,11.5,0,17.2,0.1C485.3,346.2,484.6,349.2,483.9,352.2z"/>
	<path class="st86" d="M377.7,285.8c0.1,2.1,0.2,4.3,0.3,6.9c8.5,0,16.7,0,25.1,0c0.6-4.3,1.2-8.4,1.8-12.5c-0.3,5-0.7,10-1,15
		c-2.5,3.3-0.1,7.1-1.5,10.8c-8.1,0-16.4,0-25.2,0c-0.2-2.6-0.4-4.9-0.5-7.1C377,294.5,377.3,290.1,377.7,285.8z"/>
	<path class="st80" d="M199.8,180.2c-12.1,0-24.3,0-36.9,0c-0.1,2.4-0.2,3.8-0.2,5.1c-1.3-3.3-2.7-6.6-4-9.9
		c0.1-1.8,0.5-3.3,2.8-3.3c11.9,0,23.8,0,36.2,0C198.4,175.1,199.1,177.6,199.8,180.2z"/>
	<path class="st87" d="M508.9,189.1c2.2,7.6,1.8,15.3,1.8,23c-0.5-3.2-1.1-6.3-1.6-9.5c-7.8,0-15.3,0-23.5,0c0,4.2,0,8,0,11.8
		c-0.7-8.1-1.4-16.1-2.1-24.2C491.9,188,500.4,189.7,508.9,189.1z"/>
	<path class="st21" d="M199.8,180.2c-0.7-2.5-1.3-5-2.1-8c-12.3,0-24.3,0-36.2,0c-2.3,0-2.7,1.4-2.8,3.3c-1-2.4-1.9-4.8-2.9-7.2
		c-0.4-1-0.8-2-1.1-3c0,0,0,0.1,0,0.1c13.8-1.9,27.5-1.6,41.3-0.1c3,8.3,6,16.7,8.9,25c-0.4,0-0.7,0-1.1,0c-1-3-2-6-3-9
		C200.4,180.8,200.1,180.5,199.8,180.2L199.8,180.2z"/>
	<path class="st88" d="M775.6,171.2c0.6-2,1.2-3.9,2.2-7c13,0,26.4,0,39.9,0c0,3.1,0.1,6.2,0.1,9.3c-0.3,3.7-0.7,7.3-1,11
		c-0.1-0.4-0.2-0.7-0.3-1.1c0-1,0-2.1,0-3.1c0-2.5,0-5.1,0-7.6c-13.7,0-26.5,0-39.6,0c-0.4,2.8-0.8,5.2-1.2,7.6
		c-0.4,1.7-0.8,3.3-1.1,5C775,180.5,775.3,175.9,775.6,171.2z"/>
	<path class="st89" d="M915.7,299.2c-15.5-2.1-31.1-0.4-46.7-1c-2-0.1-4.5,1-5.4-2.1c0,0,0,0,0,0c0.4-0.3,0.8-0.6,1.2-0.9
		c0,0,0,0,0,0c0.3-0.3,0.7-0.6,1-0.9c2.6-2.1,5.2-4.3,7.9-6.4c-0.4,0.9-0.7,1.8-1.8,4.4c18.5,0,36.3,0,54,0
		C922.5,294.5,919.1,296.8,915.7,299.2z"/>
	<path class="st90" d="M406,146.1c-0.4,0-0.8,0.1-1.2,0.1c-0.4-3.3-0.7-6.6-1.1-10c-0.7-3-1.4-5.9-2-8.5c-10.4,0-19.9,0-29.5,0
		c0.2,3.6,0.4,6.7,0.5,9.8c-0.7-3.7-1.3-7.3-2-11c0-2.9,0-5.8,0-9.3c10,0,20,0,30,0c0.4,1,0.8,2,1.2,3
		C403.2,128.8,404.6,137.4,406,146.1z"/>
	<path class="st91" d="M404.8,265.2c-6.8-2.2-13.9-0.6-20.8-0.9c-2.4-0.1-4.4-0.2-4.3-3.3c-0.2-0.3-0.2-0.5,0.1-0.7
		c0.4-3,0.8-6,1.3-9c7.9,0,15.8,0,23.6,0c0.9-1.5,1.6-2.7,2.3-4c-0.3,5.7-0.7,11.4-1,17C405.5,264.5,405.2,264.8,404.8,265.2
		L404.8,265.2z"/>
	<path class="st92" d="M822.7,112.2c-13.7,0-27.4,0-40.9,0c-0.8,2.4-1.5,4.2-2.1,5.9c0.3-4.3,0.6-8.7,1-13c13.8,0,27.7,0,42.1,0
		C822.7,107.3,822.7,109.7,822.7,112.2z"/>
	<path class="st93" d="M519.6,105.5c-0.3-5.3-0.7-10.5-1-16.5c8.9,0.6,17.1,1.2,26.1,1.9c0,20,0,39.6,0,59.2c-0.3,0-0.6,0-0.9,0
		c0-1.3,0-2.7,0-4c0-3.3,0-6.7,0-10c0-2.7,0-5.3,0-8c0-3,0-6,0-9c0-3,0-6,0-9c0-2.9,0-5.8,0-8.7c-8.3,0-15.7,0-23.3,0
		C520.1,102.9,519.8,104.2,519.6,105.5z"/>
	<path class="st94" d="M355.9,139.1c0.6,3.3,1.3,6.7,1.9,10c-10.2-2.1-20.5-0.5-30.8-0.9c-2.1-0.1-2.2,1.6-2.4,3.1
		c-0.7-3-1.3-6-2-8.9c0.2-1.4,0.5-2.7,0.9-4.7C334.6,138.2,345.3,138.7,355.9,139.1z"/>
	<path class="st95" d="M189.7,349.9c0.2,1.3,0.4,2.5,0.7,4.3c14-0.8,27.7,1.2,41.5-1.1c-0.4,2-0.7,4-1.1,6c-1.2,2.2-2.8,3.1-5.5,3.1
		c-11.1-0.2-22.2-0.1-33.3-0.1c-1.8,0-3.8,0.4-4.4-2.1c0,0,0,0.1,0,0.1c1.9-1.4,1-3.5,1.1-5.3C189,353.2,189.3,351.6,189.7,349.9z"
		/>
	<path class="st96" d="M187.6,360c0.5,2.5,2.6,2.1,4.4,2.1c11.1,0,22.2-0.1,33.3,0.1c2.7,0,4.3-0.9,5.5-3.1c-0.3,1.7-0.6,3.4-0.9,5
		c-0.3,1.7-0.6,3.4-1,5.1c0,0,0.1,0,0.1,0c-13.8,0-27.6,0-41.8,0c-0.2-1.3-0.3-2.9-0.5-4.5C186.9,363.2,187.3,361.6,187.6,360z"/>
	<path class="st97" d="M647.9,242.9c-0.1,9.8-0.2,19.6-0.3,29.4c-8.3,4.2-17.2,0.8-25.8,1.9c0-1.3-0.1-2.7-0.1-4c0-2.7,0-5.3,0.1-8
		l0.1-0.1c8.1,0,16.2,0,25,0c0-6.4,0-12.2,0-18c0.6-4-1.2-8.2,1.1-12C647.9,235.7,647.9,239.3,647.9,242.9z"/>
	<path class="st98" d="M723.9,77.2c16.5,0.3,33-0.9,49.6,1.3c-2.9,1-5.8,1.9-8.6,2.8c0,0,0-0.1,0-0.1c-1.4,0.3-2.7,0.6-4.1,0.8
		l-0.4,0.2c0,0-0.5-0.1-0.5-0.1c-2.1,0.3-4.1,0.7-6.2,1c-9.7,1.8-19.4,3.5-29.1,5.3c-2.1,0.4-2.9-0.2-2-2.3
		C723.1,83.2,723.5,80.2,723.9,77.2z"/>
	<path class="st99" d="M140.6,130.2c-0.6-1.6-1.3-3.2-1.9-4.8c0.2-2,1.7-3.1,3.4-3.1c12.9,0.2,25.9-1.3,38.8,0.7c0,0,0,0,0,0
		c0.4,1,0.7,2,1.1,3.1c0.4,1,0.7,2,1.1,3C168.9,131.6,154.7,129.4,140.6,130.2z"/>
	<path class="st50" d="M333.6,274.9c0.2,1.3,0.4,2.5,0.7,4.3c9.6,0,19,0,28.4,0c-1,3.7-2,7.4-2.9,11c-8.3,0-16.5,0-24.8,0
		c-2.2,0-4.5,0.2-4.3-3.1C331.7,283,332.7,278.9,333.6,274.9z"/>
	<path class="st22" d="M195.9,165.1c-13.8-1.5-27.5-1.8-41.3,0.1c-0.7-1.6-1.3-3.2-2-4.8c-0.3-0.8-0.6-1.5-0.9-2.3c0,0,0,0,0,0
		c0.6-0.6,1.3-1.9,1.9-1.9c13.1,0.2,26.3,0.5,39.4,0.7C194,159.8,195,162.4,195.9,165.1z"/>
	<path class="st100" d="M523.8,213.2c-0.1,5.1-0.1,10.3-0.2,15.4c-0.3-10-0.7-20-1-30c0.1-4.1,0.1-8.3,0.2-12.4c7.2,0,14.5,0,21.7,0
		c0,4.7,0.1,9.3,0.1,14c-6.7,0-13.5,0-20.8,0C523.8,205,523.8,209.1,523.8,213.2z"/>
	<path class="st101" d="M373.7,334.7c0.3-4.3,0.7-8.5,1-12.8c0.1,2.9,0.3,5.8,0.4,9.2c8.9,0,17.3,0,25.6,0c0,3.9,0,7.8,0,11.5
		c-9.6,0-18.1,0-27.1,0C373.7,339.7,373.7,337.2,373.7,334.7z"/>
	<path class="st102" d="M485.6,214.4c0-3.8,0-7.6,0-11.8c8.2,0,15.7,0,23.5,0c0.5,3.2,1.1,6.4,1.6,9.5c0.1,1.3,0.1,2.7,0.2,4
		c-7.9-1.3-15.7-1.7-24.3,0.1c0,4.1,0,7.7,0,11.3C486.3,223.2,486,218.8,485.6,214.4z"/>
	<path class="st103" d="M606.9,260c-0.1,4.1-0.2,8.1-0.4,12.2c-7.8,0-15.6,0-23.1,0c-0.7-2.9-1.2-5-1.7-7c-0.8-2.3-1.6-4.6-2.5-6.9
		c8.4,0.4,16.7,0.8,25.5,1.2c0.4-2.4,0.7-4,1-5.5C606.2,256,606.6,258,606.9,260z"/>
	<path class="st104" d="M302.6,95.3c-0.5-3.6,2.3-2,3.6-2.1c12.6-0.7,25.2,1.2,37.8-1.1c3.1,4.9,5,10.3,5.8,16.1
		c-1.1-2.2-2.1-4.3-3.4-7c-10,0-20,0-30,0c-2.3,0-2.6,1.5-2.8,3.3c-1.3-2-2.6-4-4-6c-0.4-1.6-1.5-2.3-3.1-2.1l0.1,0.1
		C305.3,96,304,95.7,302.6,95.3L302.6,95.3z"/>
	<path class="st32" d="M170.9,95.1c-1-1.6-2.1-3.3-3.6-5.8c-12.3,0-25.4-0.1-38.4,0.1c-2,0-3.3,1.5-3.1,3.8c-1-2.6-2.1-5.2-3.1-7.8
		c-0.1-3.6,2.5-3.2,4.8-3.2c12.8,0,25.5,0,38.3,0c0.4,0.7,0.7,1.3,1.1,2C168.2,87.8,169.5,91.5,170.9,95.1z"/>
	<path class="st105" d="M486,343.2c-5.7,0-11.5,0-17.2-0.1c-1.9,0-3.7,0.1-4.1-2.4c0.3-15.2,0.7-30.5,1-45.7c0,0,0.3,0.2,0.3,0.2
		c0,4,0,7.9,0,11.9c0,4-0.1,8-0.1,12c0,3.5,0,7.1,0,10.7c7,0,13.1,0,19.1,0c0.7-1.8,1.3-3.2,1.9-4.7
		C486.5,331.2,486.2,337.2,486,343.2z"/>
	<path class="st106" d="M647.9,232.1c-2.3,3.8-0.5,8-1.1,12c-8.3,0-16.6,0-25,0c0-3.7,0-7.3,0-11c0-0.3,0-0.7,0-1c0-0.3,0-0.5,0-0.8
		C630.5,231.5,639.2,230,647.9,232.1z"/>
	<path class="st107" d="M582.9,355.2c8.3,0,16.6,0,24.9,0c0,4.3,0,8.7,0,13c-8.3,0-16.6,0-25,0C582.9,363.8,582.9,359.5,582.9,355.2
		z"/>
	<path class="st108" d="M2.8,27.1c-1.3-0.5-2.5-1-3.8-1.5c0.1-0.5,0.2-0.9,0.3-1.4c12.7,1.4,25.4,2.8,38.1,4.4
		c38,4.5,76.1,9,114.1,13.6c12.1,1.5,24.2,3.2,36.4,4.9c-1,0-2.1,0.1-3.1,0.1c-4.7-0.4-9.3-0.7-14-1.1c-1-0.3-2-0.6-3-0.9
		c-1.7,0-3.4,0-5.1,0c-22.6-2.7-45.3-5.4-67.9-8.1c-2-0.3-4.1-0.6-6.1-0.9c-5.2-0.4-10.5-0.8-15.7-1.1c-21.4-2.6-42.8-5.2-64.2-7.9
		l0-0.1C6.8,25.8,4.8,25.5,2.8,27.1z"/>
	<path class="st109" d="M400.7,331.2c-8.4,0-16.8,0-25.6,0c-0.2-3.4-0.3-6.3-0.4-9.2c0.3-3.7,0.7-7.5,1-11.2c0,2.9,0,5.9,0,9.1
		c9,0,17.1,0,25.3,0c0.7-3,1.3-5.8,1.9-8.6c-0.3,5-0.7,10-1,15c-0.4,1-0.8,2-1.2,3C400.8,329.8,400.8,330.5,400.7,331.2z"/>
	<path class="st110" d="M129.8,103.2c0.7-2.9,3.1-2,4.9-2c12.8-0.1,25.6-0.1,38.3-0.1c1,2.7,1.9,5.4,2.9,8
		c-13.7-2.1-27.4-0.7-41.1-0.7c-0.7,0-1.4,1.2-2.1,1.9C131.7,108,130.7,105.6,129.8,103.2z"/>
	<path class="st111" d="M355.9,139.1c-10.6-0.5-21.2-0.9-32.4-1.4c-0.4,2-0.6,3.4-0.9,4.7c-0.7-3-1.4-5.9-2.1-8.9
		c0.3-1.4,0.5-2.8,0.8-4.4c11.2,0,21.8,0,32.5,0C354.6,132.4,355.2,135.8,355.9,139.1z"/>
	<path class="st112" d="M372.6,137.4c-0.2-3.1-0.3-6.2-0.5-9.8c9.6,0,19.1,0,29.5,0c0.6,2.6,1.3,5.6,2,8.5c-9.7,0.5-19.5,1-29.6,1.5
		c0.2,3.7,0.4,7.2,0.6,10.8C374,144.8,373.3,141.1,372.6,137.4z"/>
	<path class="st68" d="M374.6,148.5c-0.2-3.6-0.4-7.1-0.6-10.8c10.2-0.5,19.9-1,29.6-1.5c0.4,3.3,0.7,6.6,1.1,10
		c-9.4,0.5-18.7,1-28.2,1.5c-2,2.8,0.4,5.6,0.3,8.5c0,0.7,0.1,1.4,0.1,2.1c-0.1,0.4-0.2,0.8-0.3,1.2
		C375.9,155.8,375.3,152.2,374.6,148.5z"/>
	<path class="st113" d="M180.9,123.1c-12.9-2-25.9-0.6-38.8-0.7c-1.7,0-3.2,1.1-3.4,3.1c-1-2.4-1.9-4.8-2.9-7.3
		c-0.3-0.7-0.6-1.3-0.9-2c-0.1-0.3-0.2-0.6-0.3-1c14.5,0,29-0.1,43.4-0.1C179,117.8,179.9,120.4,180.9,123.1z"/>
	<path class="st111" d="M140.6,130.2c14.1-0.8,28.3,1.3,42.4-1.1c1,2.7,2,5.3,2.9,8c-11.6,0-23.3,0-34.9,0.1c-2.6,0-5.5-0.3-6.4,3.2
		C143.3,137,142,133.6,140.6,130.2z"/>
	<path class="st80" d="M569.8,172.2c9,0.7,18.1-1.3,27,1c-0.5,0-1,0-1.5,0.1c-2.3,0.5-2.6,2.1-2.5,4.1c0.4,5.4,0.7,10.8,1,16.2
		c-0.1,13.6-0.3,27.2-0.4,40.7c-2.4-1-4.7-2-7.1-3c1.9-0.2,3.8-0.3,6.3-0.6c0-5.1,0-9.8,0-14.6c0-4.7,0-9.3,0-14c0-4.3,0-8.7,0-13
		c0-2.8,0-5.5,0-8.7c-7.9,0-15.1,0-23,0c0,3.1,0,5.9,0,8.7c0,4.3,0,8.7,0,13c0,4.7,0,9.3,0,14c0,4.3,0,8.7,0,13c-0.3,0-0.7,0-1,0
		c0-17.7,0.1-35.4,0.1-53.1C569.2,174.8,569.5,173.5,569.8,172.2z"/>
	<path class="st114" d="M505.9,147.4c-6.9-2.6-14.1-0.5-21.1-1.2c-2.4-0.3-4.9-0.7-7.3-1.1c0.4-1.3,0.9-2.6,1.3-3.9
		c0.4-2,0.7-4,1.1-6c9,0,17.9,0,26.9,0C506.5,139.2,506.2,143.3,505.9,147.4z"/>
	<path class="st115" d="M361.9,170.1c-0.7-1.2-1.4-2.5-2.3-4c-9.2,0-18.5,0-27.8,0c-1.7,0-2.9,0.5-3.2,2.3c-0.6-2.7-1.3-5.5-1.9-8.2
		c0.3-0.9,0.7-2.6,1-2.6c10.7,0.1,21.6-2.8,32.1,1.5C360.5,162.8,361.2,166.5,361.9,170.1z"/>
	<path class="st116" d="M178,115.1c-14.5,0-29,0.1-43.4,0.1c-0.3-0.7-0.6-1.3-0.8-2c-0.3-0.7-0.6-1.4-0.9-2
		c-0.3-0.2-0.4-0.5-0.2-0.8c0.7-0.7,1.4-1.9,2.1-1.9c13.7-0.1,27.4-1.4,41.1,0.7C176.6,111.1,177.3,113.1,178,115.1z"/>
	<path class="st117" d="M359.8,159.2c-10.5-4.3-21.4-1.3-32.1-1.5c-0.3,0-0.6,1.7-1,2.6c-0.4-1.6-0.7-3.1-1.1-4.7
		c-0.3-1.1-0.5-2.3-0.8-3.4c-0.3-0.2-0.3-0.5-0.2-0.8c0.1-1.5,0.3-3.2,2.4-3.1c10.3,0.4,20.6-1.2,30.8,0.9c0,0,0,0,0,0
		c0.3,1.7,0.7,3.4,1,5.1C359.2,155.8,359.5,157.5,359.8,159.2z"/>
	<path class="st65" d="M486.8,279.2c-6.4,0-12.8,0-20,0c0-5.3,0-10.2,0-15c6.7,0,13.3,0,20,0C486.9,269.2,486.8,274.2,486.8,279.2z"
		/>
	<path class="st118" d="M606.6,284.2c0,4,0,8,0,12c-8,0-15.9,0-23.9,0c0-0.7,0-1.3,0-2c-0.3-2.7-0.6-5.3-0.8-8c0-4,0-8,0-12
		c0.5,3.1,1,6.3,1.6,10C591.3,284.2,598.9,284.2,606.6,284.2z"/>
	<path class="st119" d="M463.8,111.1c0.7-2.9,3.1-1.9,4.9-1.9c10.7-0.1,21.4-0.1,32.1-0.1c0,0,0,0,0,0c0.3,0.7,0.6,1.4,0.9,2
		c0.7,2.3,1.5,4.6,2.2,6.9c-9,1.3-18.4-2.4-27.2,2.3c-2.3-2.4-4.6-4.9-7-7.3c-0.7-0.3-1.3-0.6-2-0.9l0,0c-1-0.3-2.1-0.6-3.1-1
		C464.3,111.4,464,111.3,463.8,111.1z"/>
	<path class="st53" d="M606.6,284.2c-7.7,0-15.4,0-23.2,0c-0.6-3.7-1.1-6.8-1.6-10c0-3,0-6,0-9c0.5,2,1,4,1.7,7c7.5,0,15.3,0,23.1,0
		C606.6,276.2,606.6,280.2,606.6,284.2z"/>
	<path class="st79" d="M400.7,331.2c0-0.7,0-1.3,0-2c0.3,0,0.7,0,1,0c-0.3,5.7-0.7,11.3-1,17c-0.4,2-0.7,4-1.1,6
		c-8.9,2.3-18,0.4-26.9,1c-0.1-2.4-0.1-4.8-0.2-7.2c0.3-3.7,0.7-7.5,1-11.2c0,2.5,0,5,0,7.9c9,0,17.5,0,27.1,0
		C400.7,338.9,400.7,335,400.7,331.2z"/>
	<path class="st100" d="M412.7,199.2c-9.1,0-18.1,0-27.6,0c0.2,4.1,0.4,7.6,0.6,11.2c-0.7-3.7-1.3-7.3-2-11
		c-0.3-3.1-0.6-6.1-0.9-9.2c0-0.3,0-0.7,0-1c9.3-0.6,18.7,1.2,28-1l0,0C411.4,191.8,412.1,195.5,412.7,199.2z"/>
	<path class="st120" d="M522.9,186.2c-0.1,4.1-0.1,8.3-0.2,12.4c-0.3-10.4-0.7-20.8-1-31.2c0.1-0.4,0.3-0.8,0.4-1.3
		c7.3,0,14.5,0,21.8,0c0.3,5.6,0.6,11.3,0.8,16.9c-0.5-1.5-1-3-1.6-4.5c-6.6,0-13.1,0-20.2,0C522.9,181.3,522.9,183.8,522.9,186.2z"
		/>
	<path class="st121" d="M400.7,117.2c-10,0-20.1,0-30,0c0,3.5,0,6.4,0,9.3c-0.7-3.7-1.3-7.4-2-11.1c0.1-2.1,0.2-4.3,0.3-6.7
		c10.2,0,20,0,30.2,0C399.7,111.7,400.2,114.4,400.7,117.2z"/>
	<path class="st122" d="M313.6,104.4c0.1-1.8,0.5-3.3,2.8-3.3c10,0,20.1,0,30,0c1.3,2.6,2.3,4.8,3.4,7c0.4,2,0.8,4,1.2,6
		c-0.7-1.6-1.5-3.1-2.2-4.6c-10.6,0-21.1,0-31.8,0c-0.1,2.5-0.2,4.6-0.3,6.8C315.7,112.4,314.7,108.4,313.6,104.4z"/>
	<path class="st123" d="M582.9,355.2c0,4.3,0,8.7,0,13c0,3.5,0,7.1,0,11c8.9,0,16.9,0,25,0c0,3.1,0,6.3,0,10.2
		c-8.4-1-16.9-2.1-25.8-3.2c0-21.5,0-42.8,0-64c0,0,0.3,0,0.3,0s0.3,0,0.3,0c0,2.7,0.1,5.3,0.1,8c0,4.3,0,8.7,0,13
		C582.9,347.2,582.9,351.2,582.9,355.2z"/>
	<path class="st124" d="M486.9,264.2c-6.7,0-13.3,0-20,0c0-4.7,0.1-9.3,0.1-14c6.6,0,13.3,0,19.9,0
		C486.9,254.8,486.9,259.5,486.9,264.2z"/>
	<path class="st125" d="M382.8,189.2c0,0.3,0,0.7,0,1c-0.1,1.1-0.1,2.2-0.2,3.3c-1-5.7-2-11.3-3-17c0.1-1.4,0.1-2.9,0.2-4.3
		c9.3,0,18.5,0,27.4,0c2.3,3.1,2.7,6,2.6,9c0,0,0,0,0,0c-9.2,0-18.3,0-28.1,0C382.1,184.4,382.4,186.8,382.8,189.2z"/>
	<path class="st58" d="M607.9,379.2c-8,0-16.1,0-25,0c0-3.9,0-7.5,0-11c8.3,0,16.6,0,25,0C607.9,371.8,607.9,375.5,607.9,379.2z"/>
	<path class="st126" d="M970.8,18.4c1.2-1.3,2.3-2.6,4.1-4.6c-10.2-0.6-19.8-1.1-29.3-1.6c16-3.3,32-6.7,48.1-10
		c1.1,0.4,2.2,0.8,3.2,1.2C988.2,8.4,979.5,13.4,970.8,18.4z"/>
	<path class="st127" d="M570.8,117.2c0.4-2.8,0.8-5.5,1.3-9.1c9.1,1.6,18.2-2.7,26.9,2.2c0,0,0-0.1,0-0.1c-0.4,0.3-0.8,0.6-1.1,1
		c-5.6,11.6-1.1,24-3.3,36c3.1,0,5.2,0,7.3,0c0,0.3,0,0.7,0,1c-2.7,0-5.3,0-8,0c0-2.7,0-5.3,0-8c0-3,0-6,0-9c0-2,0-4,0-6
		c0-2.4,0-4.9,0-8C585.7,117.2,578.2,117.2,570.8,117.2L570.8,117.2z"/>
	<path class="st128" d="M330.7,287.1c-0.2,3.3,2.1,3.1,4.3,3.1c8.3,0,16.5,0,24.8,0c-0.7,2-1.4,4-2,6c-0.3,0.7-0.6,1.4-0.9,2.1
		c0,0,0,0,0,0c-10.7,0-21.4-0.1-32.1-0.1c-1.6,0-1.3-1.1-1.1-2.1l0,0c0.4-0.3,0.8-0.6,1.1-0.9C326.8,292.5,328.8,289.8,330.7,287.1z
		"/>
	<path class="st129" d="M353.9,129.1c-10.7,0-21.4,0-32.5,0c-0.3,1.6-0.6,3-0.8,4.4c-0.3-1.4-0.6-2.7-0.9-4.1
		c0.1-2.1,0.2-4.3,0.4-7.4c11.1-0.8,21.9-2.5,32.7,1.1C353.2,125.1,353.5,127.1,353.9,129.1z"/>
	<path class="st130" d="M476.7,120.3c8.7-4.7,18.2-0.9,27.2-2.3c0,0,0,0,0,0c0.3,1,0.6,2.1,0.9,3.1c0.4,1.9,0.8,3.9,1.2,5.8
		c-8.5,0-17,0-26,0c0,3.3,0,5.8,0,8.2c-0.4,2-0.7,4-1.1,6C479.5,134.1,479.1,127.1,476.7,120.3z"/>
	<path class="st131" d="M465.9,307.2c0-4,0-7.9,0-11.9c7,0,13.9-0.1,20.9-0.1c0,4,0,8,0,12C479.9,307.2,472.9,307.2,465.9,307.2z"/>
	<path class="st132" d="M465.9,307.2c7,0,13.9,0,20.9,0c0,4,0,8,0,12c-7,0-14,0-20.9,0C465.9,315.2,465.9,311.2,465.9,307.2z"/>
	<path class="st133" d="M704.8,71.2c-14.4-0.4-28.9-0.7-43.3-1.1c14.5-3.1,28.9-6.3,44.2-9.6C705.3,64.7,705.1,67.9,704.8,71.2z"/>
	<path class="st70" d="M508.9,189.1c-8.5,0.6-17-1.1-25.4,1.1c-1-2.5-2-5.1-2.9-7.6c2.4-4.8,6.7-2,10.1-2.3
		c5.4-0.5,10.8-0.2,16.3-0.2C507.6,183.1,508.2,186.1,508.9,189.1z"/>
	<path class="st134" d="M519.6,105.5c0.2-1.3,0.4-2.5,0.7-4c7.6,0,15,0,23.3,0c0,3,0,5.9,0,8.7c-7.4,0-14.8,0-22.8,0
		c0,3.4,0,6.2,0,9c0,3,0.1,6,0.1,9c-0.1,2.8-0.2,5.5-0.3,8.3C520.3,126.1,519.9,115.8,519.6,105.5z"/>
	<path class="st121" d="M316.7,116.3c0.1-2.1,0.2-4.2,0.3-6.8c10.8,0,21.2,0,31.8,0c0.7,1.4,1.4,3,2.2,4.6c0.3,1.7,0.7,3.3,1,5
		c-1.4-0.9-1.6-3.1-4.1-3c-9.8,0.2-19.5,0.1-29.5,0.1c-0.3,1.8-0.5,3-0.7,4.3C317.3,119.1,317,117.7,316.7,116.3z"/>
	<path class="st135" d="M822.7,112.2c0-2.4,0-4.9,0-7.1c-14.4,0-28.2,0-42.1,0c0.1-1.3,0.2-2.6,0.2-3.9c0.3-0.3,0.6-0.7,1-1
		c0-0.3,0-0.7,0-1c14,0,28,0,41.9,0c0,2.1,0.1,4.2,0.1,6.2c-0.7,7.7-1.3,15.3-2,23c-0.1-0.7-0.2-1.4-0.3-2.1c0-1.7,0.1-3.4,0.1-5.1
		C822,118.2,822.3,115.2,822.7,112.2z"/>
	<path class="st109" d="M465.9,319.2c7,0,14,0,20.9,0c0,2,0,4,0,6c-0.6,1.5-1.2,3-1.9,4.7c-6,0-12.1,0-19.1,0
		C465.9,326.3,465.9,322.7,465.9,319.2z"/>
	<path class="st136" d="M1008.8,236.1c2-1.4,4-2.7,7.2-4.9c-67.9,0-134.5,0-201.1,0c1.2-0.2,2.5-0.7,3.7-0.7
		c65.9,0,131.8,0,197.8,0.1c0.4,0,0.9,0.1,3.3,0.5c-4.1,2.3-6.9,3.7-9.6,5.2C1009.6,236.2,1009.2,236.1,1008.8,236.1z"/>
	<path class="st137" d="M520.6,136.5c0.1-2.8,0.2-5.5,0.3-8.3c7.6,0,15.2,0,22.8,0c0,2.7,0,5.3,0,8c-7.1,0-14.2,0-21.9,0
		c0,3.8,0,6.9,0,10c0,2.7,0,5.3,0.1,8c0.1,4,0.1,8,0.2,12c-0.1,0.4-0.3,0.8-0.4,1.3C521.3,157.1,520.9,146.8,520.6,136.5z"/>
	<path class="st138" d="M479.9,135.2c0-2.4,0-4.9,0-8.2c8.9,0,17.5,0,26,0c0,0-0.1,0-0.1,0c0.3,1.7,0.6,3.4,0.9,5.1c0,1,0.1,2,0.1,3
		C497.9,135.2,488.9,135.2,479.9,135.2z"/>
	<path class="st139" d="M317.6,120.5c0.2-1.3,0.4-2.5,0.7-4.3c10,0,19.7,0.1,29.5-0.1c2.5,0,2.7,2.1,4.1,3c0.3,1.3,0.5,2.7,0.8,4
		c-10.8-3.7-21.7-2-32.7-1.1c-0.2,3.1-0.3,5.2-0.4,7.4C319,126.4,318.3,123.4,317.6,120.5z"/>
	<path class="st140" d="M86.8,38.1c-14.2-1.5-28.5-2.6-42.6-4.5c-6.1-0.8-11.7,0.4-19.4,1c2.4,1.8,3.7,2.8,5,3.8
		c-6.3-2.7-12.6-5.4-19-8.1c-1-0.4-1.9-0.8-2.9-1.1c0,0-0.1,0.1-0.1,0.1c0-0.3,0-0.6-0.1-1c0.1-0.3,0.1-0.6,0.2-0.9
		c0.3,0,0.6,0,0.9-0.2c0,0,0,0.1,0,0.1c20,4.9,40.6,5.6,60.9,8C75.4,36.2,81.1,37.2,86.8,38.1z"/>
	<path class="st141" d="M241.7,55.2c-16.7-2-33.4-4-50-6c0.4,0,0.8-0.1,1.1-0.1c2.7,0,5.3,0.1,8,0.1c0.3,0.3,0.7,0.6,1,0.9
		c2.7,0,5.3,0.1,8,0.1c0.3,0.3,0.7,0.6,1,0.9c8.7,0.7,17.4,1.3,26.1,2c13.4,1.6,26.7,3.3,40.1,4.9C265.2,57.1,253.4,56.2,241.7,55.2
		z"/>
	<path class="st142" d="M521.4,343.2c-0.2,0-0.4,0-0.5,0c-0.1-0.3-0.1-0.7-0.2-1c0-4.3,0-8.6,0-13c0-3.3,0-6.7,0-10
		c0-4.3,0-8.7,0-13c0-6.3,0-12.6,0-19c0-5,0-10,0-15c0-5.3,0.1-10.6,0.1-15.9c0.3-0.1,0.5-0.1,0.8-0.1
		C521.5,285.2,521.5,314.2,521.4,343.2z"/>
	<path class="st68" d="M544.6,183.1c-0.3-5.6-0.6-11.3-0.8-16.9c0-4,0-8,0-12c0-1.3,0-2.7,0-4c0.3,0,0.6,0,0.9,0
		c0.4,27,0.8,53.9,1.2,80.9c-0.4,0-0.7,0-1.1,0c0-6-0.1-11.9-0.1-17.9c0-4.3,0-8.7,0-13c0-4.7-0.1-9.3-0.1-14
		C544.6,185.1,544.6,184.1,544.6,183.1z"/>
	<path class="st101" d="M648.8,327.2c-0.3,0-0.7,0-1,0c9.4-2.6,18.8,0.9,28.2,0.3c3.6-0.2,7.2,0.4,10.8,0.7c1.3,0.3,2.6,0.6,4,0.9
		c2.7,0,5.4,0.1,8,0.1c3,0.3,6,0.6,9,1c1,0,2,0,3,0c0,0.4-0.1,0.8-0.1,1.3C690.1,330,669.5,328.6,648.8,327.2z"/>
	<path class="st19" d="M826.5,36c0.8,0.1,1.5,0.1,2.3,0.2c-10,2.3-20,4.6-30,7c-1.3,0-2.7,0.1-4,0.1c-0.3,0.3-0.7,0.6-1,0.9
		c-1.7,0.1-3.4,0.1-5,0.2c-0.3,0.3-0.6,0.6-1,0.8c-1,0-2,0.1-3,0.1c-0.3,0.3-0.6,0.6-1,0.9c-1.3,0-2.7,0.1-4,0.1
		c-0.3,0.3-0.7,0.6-1,0.9c-1.7,0-3.4,0.1-5.1,0.1c-0.4-0.1-0.7-0.1-1.1-0.2C790.5,43.4,808.5,39.7,826.5,36z"/>
	<path class="st127" d="M569.8,172.2c-0.3,1.3-0.6,2.6-0.9,3.9c0.3-19.7,0.5-39.3,0.8-58.9c0.4,0,0.7,0,1.1,0c0,0,0,0,0,0
		c-0.3,3-0.6,6-0.9,9c0,2,0,4,0,6c0,2.7,0,5.4,0,8c0,2.7,0,5.3,0,8c0,2.7,0,5.3,0,8c0,2.3,0,4.7,0,7
		C569.8,166.2,569.8,169.2,569.8,172.2z"/>
	<path class="st143" d="M200.8,49.2c-2.7,0-5.3-0.1-8-0.1c-2.7-0.6-5.3-1.3-8-1.9c1,0,2.1-0.1,3.1-0.1c16.3,2,32.7,4,49,6
		c-8.7-0.7-17.4-1.3-26.1-2c-0.3-0.3-0.7-0.6-1-0.9c-2.7,0-5.3-0.1-8-0.1C201.4,49.8,201.1,49.5,200.8,49.2z"/>
	<path class="st144" d="M241.7,55.2c11.8,0.9,23.6,1.9,35.3,2.8c6,0.7,11.9,1.4,17.9,2.1c-4,0-8.1,0.1-12.1,0.1l0,0
		c-2.8-2.1-6.1-0.7-9.1-1c-5.3-0.4-10.5-0.7-15.8-1.1c-2.7-0.3-5.4-0.7-8.1-1c0,0,0,0,0,0c-2.7-0.3-5.4-0.7-8-1c0,0,0,0,0,0
		C241.8,55.8,241.7,55.5,241.7,55.2z"/>
	<path class="st145" d="M753.8,242.2c0-2.8,0-5.5,0-8.7c-10.2,0-19.8,0-30,0c0,2.8,0,5.2,0,7.7c-0.3,0-0.5,0-0.8,0c0-3,0-6-0.1-9
		c10.6,0,21.2,0,31.8,0c0,3.3,0.1,6.7,0.1,10C754.5,242.2,754.1,242.2,753.8,242.2z"/>
	<path class="st14" d="M756.8,51.2c-10.6,2-21.3,4-31.9,6c9.5-2,19.1-4.1,28.6-6.1C754.6,51.1,755.7,51.2,756.8,51.2z"/>
	<path class="st146" d="M754.7,232.2c-10.6,0-21.2,0-31.8,0C733.5,230.5,744.1,230.5,754.7,232.2z"/>
	<path class="st70" d="M813.6,215.3c0-0.4,0-0.8,0-1.1c0.3-4.3,0.7-8.6,1-12.9c0.3-2.6,0.6-5.3,0.9-7.9c0.1,0.8,0.2,1.5,0.3,2.3
		c-0.7,7.6-1.3,15.3-2,22.9C813.8,217.4,813.7,216.3,813.6,215.3z"/>
	<path class="st7" d="M523.5,231c0.4,0.1,0.8,0.2,1.2,0.3c-8,3.9-16.5,0.9-24.8,1.8c0-0.3,0-0.7,0-1c7.3-0.3,14.5-0.5,21.8-0.8
		C522.3,231.2,522.9,231.1,523.5,231z"/>
	<path class="st23" d="M756.8,51.2c-1.1-0.1-2.2-0.1-3.3-0.2c6.4-1.3,12.7-2.7,19.1-4c0.4,0.1,0.8,0.1,1.1,0.2
		c-4.6,1.3-9.3,2.6-13.9,3.9C758.8,51.2,757.8,51.2,756.8,51.2z"/>
	<path class="st118" d="M621.8,233.2c0,3.7,0,7.3,0,11c0,4.7,0,9.3-0.1,14c-0.3,0-0.5,0-0.8,0c0-8.3-0.1-16.7-0.1-25
		c0,0,0.5,0,0.5,0L621.8,233.2z"/>
	<path class="st36" d="M593.9,193.5c-0.3-5.4-0.7-10.8-1-16.2c-0.1-2,0.2-3.6,2.5-4.1C594.8,180,594.4,186.8,593.9,193.5z"/>
	<path class="st101" d="M621.7,270.2c0,1.3,0.1,2.7,0.1,4c0,3.3,0,6.7,0,10c-0.1,2.7-0.1,5.3-0.2,8c-0.2,0-0.4,0-0.6,0
		c0-7.3,0-14.7-0.1-22C621.2,270.2,621.4,270.2,621.7,270.2z"/>
	<path class="st2" d="M521.7,231.3c-7.3,0.3-14.5,0.5-21.8,0.8c-0.1-0.2-0.1-0.4-0.1-0.7c4-0.1,8.1-0.3,12.1-0.4
		C515.3,231.1,518.5,231.2,521.7,231.3z"/>
	<path class="st53" d="M988.9,250.2c-0.4-0.1-0.7-0.1-1.1-0.2c0.3-0.3,0.7-0.7,1-1c0.3-0.3,0.7-0.6,1-0.9c0.3,0,0.7-0.1,1-0.1
		c0.3-0.3,0.6-0.6,0.9-0.9c1-0.7,2-1.4,3.1-2.1c0.3-0.3,0.7-0.6,1-0.9c0,0,0.1-0.1,0.1-0.1c0.3,0,0.6-0.1,1-0.1
		c0.3-0.3,0.7-0.6,1-0.8c0.7-0.4,1.4-0.7,2-1.1c0.4,0.1,0.8,0.1,1.1,0.2C996.9,244.9,992.9,247.6,988.9,250.2z"/>
	<path class="st87" d="M772.7,210.2c0.3,0,0.7,0,1,0c0,1,0,2,0,3c-0.6,4-1.2,8-1.8,12C772.2,220.1,772.5,215.1,772.7,210.2z"/>
	<path class="st147" d="M282.7,60.2c4,0,8.1-0.1,12.1-0.1c1,0.6,2,1.3,3,1.9c-2,0-4,0-6,0.1C288.8,61.5,285.8,60.9,282.7,60.2z"/>
	<path class="st4" d="M723.9,77.2c-0.4,3-0.8,6-1.2,9c0.3-5.3,0.6-10.7,0.9-16c0.4,0,0.7,0,1.1,0C724.5,72.5,724.2,74.8,723.9,77.2z
		"/>
	<path class="st148" d="M813.6,215.3c0.1,1.1,0.2,2.1,0.3,3.2c-0.3,3.9-0.7,7.8-1,11.8C813.1,225.2,813.4,220.2,813.6,215.3z"/>
	<path class="st30" d="M1001,242.2c-0.4-0.1-0.8-0.1-1.1-0.2c2.3-1.7,4.6-3.3,7-5c0.3-0.3,0.7-0.6,1-0.9c0.3,0,0.7,0,1-0.1
		c0.4,0.1,0.8,0.1,1.2,0.2C1007,238.3,1004,240.2,1001,242.2z"/>
	<path class="st99" d="M778.7,130.2c0.3,0,0.7,0,1,0c0,0,0,0,0,0c-0.3,2.7-0.6,5.3-0.9,8c0,1.7-0.1,3.3-0.1,5c-0.3,0-0.7,0-1,0
		C778.1,138.8,778.4,134.5,778.7,130.2z"/>
	<path class="st111" d="M777.8,143.2c0.3,0,0.7,0,1,0c0,1.3,0,2.7,0,4l0,0c-0.3,0.7-0.6,1.3-0.9,2c0,2-0.1,4-0.1,6c0,0,0,0,0,0
		c-0.3,0-0.6,0-1,0C777.1,151.2,777.4,147.2,777.8,143.2z"/>
	<path class="st76" d="M821.6,126.2c0.1,0.7,0.2,1.4,0.3,2.1c-0.3,4-0.7,8-1,12c-0.1-0.4-0.2-0.8-0.3-1.2c0.1-3,0.1-6,0.2-9
		C821,128.9,821.3,127.6,821.6,126.2z"/>
	<path class="st29" d="M652.8,100.4c4.1-2.1,8.5-2.3,13-2.1C661.5,98.9,657.2,99.6,652.8,100.4z"/>
	<path class="st32" d="M823.9,105.4c0-2.1-0.1-4.2-0.1-6.2c0.3-2.3,0.6-4.6,0.9-6.9c0.1,0.7,0.2,1.4,0.3,2.2
		C824.6,98.1,824.2,101.7,823.9,105.4z"/>
	<path class="st5" d="M859.8,65.3c3.8-2.1,7.9-2.2,12.1-2C867.8,63.9,863.8,64.6,859.8,65.3z"/>
	<path class="st133" d="M703.9,85.6c-0.1-1.8-0.2-3.6-0.2-5.4c0.4-2.7,0.7-5.3,1.1-8C704.5,76.6,704.2,81.1,703.9,85.6z"/>
	<path class="st79" d="M582,320.2c0-4,0-8,0-12c0,0,0.4,0,0.4,0l0.4,0c0,4,0,8,0,12C582.5,320.1,582.3,320.2,582,320.2z"/>
	<path class="st126" d="M960.8,24.3c2-2.8,4.7-4.6,8.1-5C966.2,21,963.5,22.6,960.8,24.3z"/>
	<path class="st99" d="M820.5,139.1c0.1,0.4,0.2,0.8,0.3,1.2c-0.3,3.7-0.6,7.4-1,11.1c-0.1-0.4-0.2-0.8-0.3-1.1c0-1,0-2.1,0-3.1
		c0-2.7,0.1-5.3,0.1-8C820,139.2,820.3,139.2,820.5,139.1z"/>
	<path class="st94" d="M819.6,150.3c0.1,0.4,0.2,0.8,0.3,1.1c-0.4,3.6-0.7,7.2-1.1,10.9c-0.1-2.4-0.1-4.7-0.2-7.1
		C819,153.5,819.3,151.9,819.6,150.3z"/>
	<path class="st149" d="M815.9,195.5c-0.1-0.8-0.2-1.5-0.3-2.3c0-1.4,0-2.7,0.1-4.1c0.3-2,0.6-3.9,0.9-5.9c0.1,0.4,0.2,0.7,0.3,1.1
		C816.6,188.1,816.2,191.8,815.9,195.5z"/>
	<path class="st150" d="M996.9,3.3c-1.1-0.4-2.2-0.8-3.2-1.2c2.1-0.7,4.2-1.3,6.7-2.1C1000.1,2.9,998.3,2.9,996.9,3.3z"/>
	<path class="st75" d="M381,251.1c-0.4,3-0.8,6-1.3,9c0.3-3.8,0.6-7.5,1-11.3C380.8,249.6,380.9,250.4,381,251.1z"/>
	<path class="st109" d="M582.8,294.2c0,0.7,0,1.3,0,2c0,3,0,6,0,9c-0.3,0-0.5,0-0.8,0c0-3.7,0-7.3,0-11
		C582.2,294.2,582.5,294.2,582.8,294.2z"/>
	<path class="st94" d="M817.9,173.5c0-3.1-0.1-6.2-0.1-9.3c0.4-0.7,0.8-1.3,1.2-2C818.6,166,818.2,169.7,817.9,173.5z"/>
	<path class="st7" d="M601,242c-2.1-2-4.1-4.1-6.2-6.1C597.6,237.3,599.7,239.3,601,242z"/>
	<path class="st78" d="M655.8,168.3c3.5-2.4,7.4-0.7,11.1-1.1C663.2,167.6,659.5,168,655.8,168.3z"/>
	<path class="st151" d="M816.8,386.2c-1.6-2.5-6,1.5-6.8-2.9c2.3,0.6,4.5,1.2,6.8,1.8C816.8,385.4,816.8,385.8,816.8,386.2z"/>
	<path class="st140" d="M29.6,38.3c2.9-0.2,5.2,1,7.1,3C34.4,40.3,32,39.3,29.6,38.3z"/>
	<path class="st152" d="M382.6,193.5c0.1-1.1,0.1-2.2,0.2-3.3c0.3,3.1,0.6,6.1,0.9,9.2C383.3,197.4,383,195.4,382.6,193.5z"/>
	<path class="st153" d="M206.9,269c-0.1-0.3-0.2-0.7-0.2-1c0.3-2.2,0.5-4.5,0.8-6.7c0.4,0,0.8-0.1,1.2-0.1c0,0.3,0,0.7,0,1
		C208.2,264.5,207.6,266.7,206.9,269z"/>
	<path class="st154" d="M582.8,294.2c-0.3,0-0.5,0-0.8,0c0-2.7,0-5.3,0-8C582.2,288.9,582.5,291.5,582.8,294.2z"/>
	<path class="st155" d="M8.8,27.1c-0.3,0.1-0.6,0.2-0.9,0.2c-0.6,0.2-1.2,0.5-1.8,0.7c0,0-0.4,0.3-0.4,0.3c-1-0.4-1.9-0.7-2.9-1.1
		C4.8,25.5,6.8,25.8,8.8,27.1z"/>
	<path class="st156" d="M82.7,454.1c1.1,0.4,2.2,0.8,3.2,1.2c-1.3,0.4-2.7,0.8-4,1.1c-0.7-0.4-1.4-0.8-2.1-1.2
		C80.8,454.8,81.8,454.5,82.7,454.1z"/>
	<path class="st13" d="M621.7,270.2c-0.2,0-0.5,0-0.7,0c0-2.7,0-5.3,0-8c0,0,0.4,0,0.4,0l0.4,0C621.7,264.8,621.7,267.5,621.7,270.2
		z"/>
	<path class="st16" d="M376.6,159.5c0.1-0.4,0.2-0.8,0.3-1.2c0.3,2.4,0.5,4.8,0.8,7.3C377.3,163.5,377,161.5,376.6,159.5z"/>
	<path class="st72" d="M621,292.2c0.2,0,0.4,0,0.6,0c0.1,1.3,0.1,2.7,0.2,4c-0.1,1-0.1,2-0.2,3c0,0-0.3,0-0.3,0s-0.3,0-0.3,0
		C621.1,296.8,621.1,294.5,621,292.2z"/>
	<path class="st157" d="M208.8,261.2c-0.4,0-0.8,0.1-1.2,0.1c-1.3-0.7-2.7-1.3-4-2C205.2,259.9,207,260.5,208.8,261.2z"/>
	<path class="st80" d="M162.6,185.2c1.8,1.3,2.2,3.1,2.1,5.2C164,188.6,163.3,186.9,162.6,185.2z"/>
	<path class="st9" d="M753.8,83.2c2.1-0.3,4.1-0.7,6.2-1C757.9,82.6,755.8,82.9,753.8,83.2z"/>
	<path class="st158" d="M79.8,455.2c0.7,0.4,1.4,0.8,2.1,1.2c-1.4,0.3-2.7,0.7-7.2,1.8C78.3,456.1,79,455.6,79.8,455.2z"/>
	<path class="st42" d="M829.7,323.9c-0.6,1.9-1.8,3.1-3.9,3.3C827.1,326.1,828.4,325,829.7,323.9z"/>
	<path class="st27" d="M635.8,103.3c1.7-2,4-0.9,6.1-1.1C639.9,102.6,637.8,103,635.8,103.3z"/>
	<path class="st44" d="M127.7,429c-0.6,2-2.2,2.3-3.9,2.2C125.1,430.4,126.4,429.7,127.7,429z"/>
	<path class="st130" d="M506.8,132.2c-0.3-1.7-0.6-3.4-0.9-5.1C506.2,128.7,506.5,130.4,506.8,132.2z"/>
	<path class="st29" d="M665.8,98.2c1.7-0.3,3.4-0.6,5.1-1C669.2,97.6,667.5,97.9,665.8,98.2z"/>
	<path class="st67" d="M753.8,242.2c0.3,0,0.7,0,1,0c0,1.7,0,3.3,0.1,5C754.5,245.5,754.1,243.8,753.8,242.2z"/>
	<path class="st6" d="M89.6,64.3c1.8-0.3,3.3,0,4.2,1.9C92.4,65.6,91,64.9,89.6,64.3z"/>
	<path class="st58" d="M228.9,369.3c0.3-1.7,0.6-3.4,1-5.1C229.5,365.9,229.2,367.6,228.9,369.3z"/>
	<path class="st12" d="M222.8,403.3c0.3-1.7,0.6-3.4,1-5.1C223.5,399.9,223.2,401.6,222.8,403.3z"/>
	<path class="st94" d="M358.8,154.2c-0.3-1.7-0.7-3.4-1-5.1C358.1,150.8,358.5,152.5,358.8,154.2z"/>
	<path class="st42" d="M194.7,325.8c-0.1,1.8,0.8,3.8-1.1,5.3C193.9,329.4,194.3,327.6,194.7,325.8z"/>
	<path class="st96" d="M188.7,354.8c-0.1,1.8,0.8,3.8-1.1,5.3C187.9,358.4,188.3,356.6,188.7,354.8z"/>
	<path class="st57" d="M192.7,335.7c-0.1,1.9,0.9,4-1.1,5.4C191.9,339.3,192.3,337.5,192.7,335.7z"/>
	<path class="st103" d="M606,254.1c-0.4-1.4-0.7-2.8-1.1-4.2C605.2,251.3,605.6,252.7,606,254.1z"/>
	<path class="st54" d="M753.9,340.1c-0.3-1.4-0.7-2.8-1-4.2C753.2,337.4,753.5,338.8,753.9,340.1z"/>
	<path class="st54" d="M812.7,337.8c-1,0.8-1.9,1.6-2.9,2.4C810.7,339.4,811.7,338.6,812.7,337.8z"/>
	<path class="st9" d="M760.8,82.1c1.4-0.3,2.7-0.6,4.1-0.8C763.5,81.5,762.2,81.8,760.8,82.1z"/>
	<path class="st8" d="M903.9,308.5c0.2-1.7,1.3-2.3,2.9-2.3C905.9,307,904.9,307.7,903.9,308.5z"/>
	<path class="st8" d="M621.7,262.2l-0.4,0c0,0-0.4,0-0.4,0c0-1.3,0-2.7,0-4c0.3,0,0.5,0,0.8,0C621.8,259.5,621.8,260.8,621.7,262.2
		C621.8,262.1,621.7,262.2,621.7,262.2z"/>
	<path class="st159" d="M935.7,286.1c1-0.7,2-1.4,3-2.1C938.4,285.7,937.2,286.1,935.7,286.1z"/>
	<path class="st8" d="M856.6,301.8c-0.2,1.6-1.3,2.2-2.8,2.3C854.7,303.4,855.6,302.6,856.6,301.8z"/>
	<path class="st26" d="M139.8,422.2c-1.1,0.6-2.1,1.2-3.2,1.8C137.7,423.4,138.7,422.8,139.8,422.2z"/>
	<path class="st160" d="M342,232c-1.4-0.2-2.7-0.4-4.1-0.6c1.4,0,2.8-0.1,4.2-0.1C342.1,231.5,342,231.8,342,232z"/>
	<path class="st31" d="M836.9,361.5c0.3-1.6,1.4-2.2,2.9-2.3C838.9,359.9,837.9,360.7,836.9,361.5z"/>
	<path class="st24" d="M68.8,55.1c1,0.4,1.9,0.8,2.9,1.2C70.7,56,69.8,55.6,68.8,55.1z"/>
	<path class="st24" d="M73.6,57.3c1,0.4,2.1,0.8,3.1,1.2C75.6,58.1,74.6,57.7,73.6,57.3z"/>
	<path class="st161" d="M7.8,29.1c1,0.4,1.9,0.8,2.9,1.1C9.8,29.9,8.8,29.5,7.8,29.1z"/>
	<path class="st42" d="M582,305.2c0.3,0,0.5,0,0.8,0c0,0.7,0,1.3,0.1,2c0,0.3,0,0.7-0.1,1l-0.4,0c0,0-0.4,0-0.4,0
		C582,307.2,582,306.2,582,305.2z"/>
	<path class="st63" d="M667.8,166.2c0.7,0,1.3,0,2,0c0.3,0,0.5,0,0.8-0.1c0,0,0.3,0.2,0.3,0.2c-0.6,1.7-1.9,1.1-3.1,1
		C667.8,166.9,667.8,166.5,667.8,166.2z"/>
	<path class="st140" d="M36.7,41.2c1,0.4,2,0.8,3,1.2C38.7,42.1,37.7,41.7,36.7,41.2z"/>
	<path class="st55" d="M366.8,220.1c0.4-1,0.7-2,1.1-2.9C367.5,218.2,367.1,219.1,366.8,220.1z"/>
	<path class="st22" d="M154.6,165.2c0.4,1,0.8,2,1.1,3C155.4,167.2,155,166.2,154.6,165.2z"/>
	<path class="st94" d="M776.8,155.2c0.3,0,0.6,0,1,0c-0.4,1-0.7,2-1.1,3C776.7,157.2,776.8,156.2,776.8,155.2z"/>
	<path class="st119" d="M504.7,121.2c-0.3-1-0.6-2.1-0.9-3.1C504.1,119.1,504.4,120.1,504.7,121.2z"/>
	<path class="st68" d="M148.6,150.2c0.4,1,0.8,2,1.1,3C149.4,152.2,149,151.2,148.6,150.2z"/>
	<path class="st126" d="M968.8,19.4c0.7-0.4,1.4-0.7,2.1-1.1C970.2,18.7,969.5,19,968.8,19.4z"/>
	<path class="st155" d="M7.7,28.2c0.1,0.3,0.1,0.6,0.1,1c-0.7-0.3-1.4-0.6-2.1-0.9c0,0,0.4-0.3,0.4-0.3C6.6,28.1,7.1,28.1,7.7,28.2z
		"/>
	<path class="st102" d="M568.7,229.1c0.3,0,0.7,0,1,0c0,0.6,0,1.2,0,1.8c-0.4,0-0.9,0-1.3,0C568.5,230.4,568.6,229.8,568.7,229.1z"
		/>
	<path class="st19" d="M934.8,39.4c0.7-0.4,1.4-0.8,2-1.2C936.2,38.6,935.5,39,934.8,39.4z"/>
	<path class="st116" d="M134.9,116.2c0.3,0.7,0.6,1.3,0.9,2C135.5,117.5,135.2,116.9,134.9,116.2z"/>
	<path class="st1" d="M355.8,230.1c0.6-0.3,1.3-0.6,1.9-0.9C357.1,229.5,356.4,229.8,355.8,230.1z"/>
	<path class="st1" d="M357.8,229.1c0.6-0.3,1.3-0.7,1.9-1C359,228.5,358.4,228.8,357.8,229.1z"/>
	<path class="st110" d="M132.9,111.2c0.3,0.7,0.6,1.4,0.9,2C133.5,112.6,133.2,111.9,132.9,111.2z"/>
	<path class="st39" d="M50.6,47.3c0.7,0.3,1.4,0.6,2.2,0.9C52,47.9,51.3,47.6,50.6,47.3z"/>
	<path class="st64" d="M749.8,327.1c-0.3-0.8-0.6-1.5-1-2.3C749.2,325.6,749.5,326.4,749.8,327.1z"/>
	<path class="st107" d="M582,320.2c0.2,0,0.5,0,0.7,0c0,0,0.1,0.1,0.1,0.1c0,0.7-0.1,1.3-0.1,2l-0.3,0c0,0-0.3,0-0.3,0
		C582,321.5,582,320.8,582,320.2z"/>
	<path class="st16" d="M151.7,158.2c0.3,0.8,0.6,1.5,0.9,2.3C152.4,159.7,152.1,158.9,151.7,158.2z"/>
	<path class="st15" d="M501.7,111.1c-0.3-0.7-0.6-1.4-0.9-2C501.1,109.8,501.4,110.5,501.7,111.1z"/>
	<path class="st1" d="M364.8,223.3c0.4-0.6,0.8-1.3,1.3-1.9C365.7,222,365.2,222.6,364.8,223.3z"/>
	<path class="st162" d="M109.9,230.3c0,0.2,0.1,0.5,0.1,0.7c-0.4,0-0.9,0-3.9,0C109,230.4,109.4,230.3,109.9,230.3z"/>
	<path class="st31" d="M790.7,355.8c-0.7,0.4-1.4,0.8-2.1,1.2C789.3,356.6,790,356.2,790.7,355.8z"/>
	<path class="st31" d="M788.7,356.9c-0.6,0.4-1.3,0.8-1.9,1.2C787.4,357.7,788,357.3,788.7,356.9z"/>
	<path class="st11" d="M356.9,298.3c0.3-0.7,0.6-1.4,0.9-2.1C357.5,296.9,357.2,297.6,356.9,298.3z"/>
	<path class="st11" d="M722.6,289.7c-0.3,0.8-0.5,1.6-0.8,2.5C722.1,291.3,722.4,290.5,722.6,289.7z"/>
	<path class="st32" d="M481.9,87.1c-0.7-0.3-1.4-0.7-2.1-1C480.5,86.4,481.2,86.8,481.9,87.1z"/>
	<path class="st10" d="M975.8,415.1c-0.7-0.3-1.4-0.7-2-1C974.5,414.4,975.1,414.8,975.8,415.1z"/>
	<path class="st24" d="M71.6,56.3c0.7,0.4,1.4,0.8,2.1,1.1C73,57.1,72.3,56.7,71.6,56.3z"/>
	<path class="st25" d="M953,402.9c0.6,0.4,1.3,0.7,1.9,1.1c0,0-0.2,0.2-0.2,0.2c-0.7-0.3-1.3-0.6-2-0.9L953,402.9z"/>
	<path class="st25" d="M954.9,404c0.7,0.3,1.3,0.7,2,1c0,0-0.1,0.2-0.1,0.2c-0.7-0.3-1.3-0.7-2-1L954.9,404z"/>
	<path class="st25" d="M956.9,405.1c0.7,0.3,1.3,0.7,2,1l-0.1,0.2c-0.7-0.3-1.3-0.7-2-1L956.9,405.1z"/>
	<path class="st12" d="M958.8,406.1c0.7,0.4,1.3,0.7,2,1.1c0,0-0.1,0.1-0.1,0.1c-0.7-0.3-1.3-0.7-2-1
		C958.7,406.2,958.8,406.1,958.8,406.1z"/>
	<path class="st33" d="M154.7,413.9c-0.7,0.4-1.4,0.8-2.1,1.1C153.3,414.7,154,414.3,154.7,413.9z"/>
	<path class="st6" d="M87.7,63.2c0.7,0.4,1.4,0.8,2,1.1C89,64,88.3,63.6,87.7,63.2z"/>
	<path class="st44" d="M129.7,428c-0.7,0.3-1.4,0.7-2.1,1C128.3,428.7,129,428.3,129.7,428z"/>
	<path class="st44" d="M122.7,431.9c-0.7,0.4-1.4,0.7-2.1,1.1C121.3,432.6,122,432.3,122.7,431.9z"/>
	<path class="st14" d="M907.8,55.3c0.7-0.4,1.3-0.7,2-1.1C909.1,54.5,908.5,54.9,907.8,55.3z"/>
	<path class="st13" d="M342.8,318.2c0.4-0.3,0.7-0.7,1.1-1C343.5,317.5,343.2,317.9,342.8,318.2z"/>
	<path class="st1" d="M363.9,224.4c0.3-0.4,0.6-0.8,1-1.2C364.5,223.6,364.2,224,363.9,224.4z"/>
	<path class="st13" d="M343.8,317.3c0.4-0.4,0.8-0.7,1.2-1.1C344.6,316.6,344.2,316.9,343.8,317.3z"/>
	<path class="st78" d="M667.8,166.2c0,0.4,0,0.7,0,1.1c-0.3,0-0.6,0-1,0.1C667.1,166.9,667.5,166.5,667.8,166.2z"/>
	<path class="st163" d="M723.7,348.2c0.3,0.3,0.7,0.7,1,1c-0.3,0-0.6,0-0.9,0C723.8,348.8,723.8,348.5,723.7,348.2z"/>
	<path class="st7" d="M595,236c-0.4-0.3-0.8-0.6-1.2-0.9C594.2,235.4,594.6,235.7,595,236z"/>
	<path class="st164" d="M723.8,349.2c0.3,0,0.6,0,0.9,0c0,0.3,0,0.7,0,1c0,0-0.4,0-0.4,0s-0.4,0-0.4,0
		C723.9,349.8,723.9,349.5,723.8,349.2z"/>
	<path class="st67" d="M621.8,231.3c0,0.3,0,0.5,0,0.8c-0.3,0-0.7,0-1,0C621.1,231.9,621.4,231.6,621.8,231.3z"/>
	<path class="st15" d="M597.8,111.2c0.4-0.3,0.8-0.6,1.1-1C598.5,110.5,598.1,110.9,597.8,111.2z"/>
	<path class="st8" d="M853.8,304.2c-0.4,0.3-0.7,0.6-1.1,1C853,304.8,853.4,304.5,853.8,304.2z"/>
	<path class="st8" d="M857.7,300.9c-0.4,0.4-0.8,0.7-1.2,1.1C856.9,301.6,857.3,301.3,857.7,300.9z"/>
	<path class="st27" d="M781.8,100.2c-0.3,0.3-0.6,0.7-1,1c0-0.3,0-0.7,0-1C781.2,100.2,781.5,100.2,781.8,100.2z"/>
	<path class="st60" d="M864.8,295.2c-0.4,0.3-0.8,0.6-1.2,0.9C864,295.8,864.4,295.5,864.8,295.2z"/>
	<path class="st60" d="M865.8,294.3c-0.3,0.3-0.7,0.6-1,0.9C865.1,294.9,865.5,294.6,865.8,294.3z"/>
	<path class="st58" d="M779.7,364c-0.3,0.4-0.6,0.8-1,1.2C779.1,364.8,779.4,364.4,779.7,364z"/>
	<path class="st1" d="M359.7,228.1c0.4-0.3,0.8-0.6,1.2-0.9C360.5,227.5,360.1,227.8,359.7,228.1z"/>
	<path class="st9" d="M335.6,80.2c-0.3-0.3-0.6-0.6-0.9-0.9C335,79.6,335.3,79.9,335.6,80.2z"/>
	<path class="st23" d="M919.8,48.3c0.4-0.3,0.8-0.7,1.2-1C920.6,47.6,920.2,48,919.8,48.3z"/>
	<path class="st1" d="M360.8,227.3c0.4-0.3,0.8-0.6,1.2-1C361.6,226.6,361.2,227,360.8,227.3z"/>
	<path class="st42" d="M825.8,327.1c-0.4,0.3-0.8,0.6-1.1,1C825,327.8,825.4,327.5,825.8,327.1z"/>
	<path class="st13" d="M338.8,321.2c0.5-0.3,0.9-0.6,1.4-0.9C339.7,320.6,339.2,320.9,338.8,321.2z"/>
	<path class="st1" d="M361.9,226.4c0.4-0.4,0.8-0.7,1.2-1.1C362.7,225.7,362.3,226.1,361.9,226.4z"/>
	<path class="st7" d="M771.9,231.2c0.3,0,0.6,0,0.8,0.1c0,0.3,0,0.6,0,0.8c-0.3,0-0.5,0-0.8,0C772,231.8,771.9,231.5,771.9,231.2z"
		/>
	<path class="st53" d="M896.7,269c-0.4,0.3-0.8,0.7-1.2,1C895.9,269.7,896.3,269.3,896.7,269z"/>
	<path class="st9" d="M334.7,79.2c-0.3-0.3-0.6-0.6-0.9-0.9C334,78.6,334.3,78.9,334.7,79.2z"/>
	<path class="st13" d="M340.8,319.9c0.3-0.3,0.6-0.5,0.9-0.8C341.4,319.4,341.1,319.6,340.8,319.9z"/>
	<path class="st44" d="M130.8,427.2c-0.4,0.3-0.8,0.6-1.2,0.8C130,427.8,130.4,427.5,130.8,427.2z"/>
	<path class="st13" d="M341.7,319.1c0.4-0.3,0.7-0.6,1.1-0.9C342.4,318.5,342.1,318.8,341.7,319.1z"/>
	<path class="st97" d="M620.8,232.2c0.3,0,0.7,0,1,0c0,0.3,0,0.7,0,1c0,0-0.5,0-0.5,0s-0.5,0-0.5,0
		C620.8,232.8,620.8,232.5,620.8,232.2z"/>
	<path class="st44" d="M123.8,431.1c-0.4,0.3-0.8,0.6-1.2,0.9C122.9,431.7,123.3,431.4,123.8,431.1z"/>
	<path class="st1" d="M363,225.5c0.4-0.4,0.7-0.8,1.1-1.2C363.7,224.7,363.3,225.1,363,225.5z"/>
	<path class="st9" d="M333.6,78.2c-0.3-0.3-0.6-0.6-0.9-0.8C333,77.7,333.3,77.9,333.6,78.2z"/>
	<path class="st7" d="M988.8,249.1c-0.3,0.3-0.7,0.7-1,1c-0.3,0-0.7,0.1-1,0.1c-0.3,0.3-0.7,0.6-1,0.9c-0.7,0.4-1.3,0.7-2,1.1
		c-0.3,0.3-0.6,0.6-1,0.9c-0.3,0-0.7,0.1-1,0.1c-4.8-0.3-9.6-1-14.3-1c-64.9-0.1-129.7,0-194.6-0.1c0-3,0-6,0-9
		c71.9,0,143.8,0,215.7,0c2.1,0,4.1,0.6,6.2,1c0,0.3,0,0.6,0,0.9c-1,0.7-2,1.4-3.1,2.1c-0.3,0.3-0.6,0.6-0.9,0.9
		c-0.3,0-0.7,0.1-1,0.1C989.4,248.5,989.1,248.8,988.8,249.1z"/>
	<path class="st136" d="M1007.8,236.2c-0.3,0.3-0.7,0.6-1,0.9C1007.1,236.8,1007.4,236.5,1007.8,236.2z"/>
	<path class="st7" d="M996.8,244c-0.3,0.1-0.6,0.1-1,0.1c0.3-0.3,0.6-0.6,1-1C996.8,243.4,996.8,243.7,996.8,244z"/>
	<path class="st30" d="M996.8,244c0-0.3,0-0.6,0-0.8c0.3,0,0.7,0,1,0C997.4,243.5,997.1,243.7,996.8,244z"/>
	<path class="st30" d="M994.8,245.1c0-0.3,0-0.6,0-0.9c0.3,0,0.6,0,1,0C995.4,244.5,995.1,244.8,994.8,245.1z"/>
	<path class="st6" d="M282.7,60.2c3,0.6,6.1,1.3,9.1,1.9c-6-0.6-12.1-1.3-18.1-1.9c0,0,0.1-0.1,0.1-0.1
		C276.8,60.1,279.8,60.2,282.7,60.2L282.7,60.2z"/>
	<path class="st147" d="M282.8,60.2c-3,0-6-0.1-8.9-0.1c0-0.3-0.1-0.6-0.1-0.9C276.7,59.6,279.9,58.1,282.8,60.2z"/>
	<path class="st24" d="M241.8,56.1c2.7,0.3,5.4,0.7,8,1C247.1,56.8,244.2,58.2,241.8,56.1z"/>
	<path class="st24" d="M249.8,57.1c2.7,0.3,5.4,0.7,8.1,1C255.2,57.8,252.3,59.2,249.8,57.1z"/>
	<path class="st30" d="M520.8,256.3c0,5.3-0.1,10.6-0.1,15.9c-0.6,1.3-1.3,2.5-1.8,3.6c-6.1,0-11.8,0-17.4,0c-0.6-1.8-1-3.1-1.5-4.5
		c0-6,0-12,0-18c0.5,1.7,0.9,3.4,1.6,6C507.8,257.4,514.9,262.6,520.8,256.3z"/>
	<path class="st118" d="M621.9,296.2c-0.1-1.3-0.1-2.7-0.2-4c0.1-2.7,0.1-5.3,0.2-8c8,0,16.1,0,24.1,0c0.7-1.9,1.2-3.4,1.7-4.9
		c-0.2,5.5,1.3,11.2-1.7,16.9C637.9,296.2,629.9,296.2,621.9,296.2z"/>
	<path class="st165" d="M647.6,279.2c-0.5,1.5-1.1,3-1.7,4.9c-8,0-16,0-24.1,0c0-3.3,0-6.7,0-10c8.6-1.1,17.4,2.3,25.8-1.9
		C647.6,274.6,647.6,276.9,647.6,279.2z"/>
	<path class="st166" d="M958.7,406.2c0.7,0.3,1.3,0.7,2,1c0.9,5.1-3.2,2.8-4.9,2.8c-54.6,0.1-109.1,0.1-163.7,0.2
		c-2.8,0-5.6,0.6-8.3,1c-2.8-0.4-5.5-0.8-8.6-1.2c-0.1-1.6-0.2-2.8-0.3-4.8c2.3,0,4.2,0,6.2,0c54.7,0,109.4,0,164.2,0
		c2.7,0,5.3-0.1,7.5-1.9c0.7,0.3,1.3,0.6,2,0.9c0.7,0.3,1.3,0.7,2,1C957.4,405.6,958.1,405.9,958.7,406.2z"/>
	<path class="st101" d="M647.7,330.2c0,4.7,0,9.3,0,14c-8.6,0-17.2,0-25.8,0c0-4.7,0-9.3,0-14C630.5,330.2,639.1,330.2,647.7,330.2z
		"/>
	<path class="st64" d="M707.8,330.1c-3-0.3-6-0.6-9-1C701.8,329.5,704.8,329.8,707.8,330.1z"/>
	<path class="st64" d="M690.7,329.1c-1.3-0.3-2.6-0.6-4-0.9C688.1,328.5,689.4,328.8,690.7,329.1z"/>
	<path class="st27" d="M824.6,92.2c-0.3,2.3-0.6,4.6-0.9,6.9c-14,0-28,0-41.9,0c0.2-2.9-0.8-6,2.2-9c13.3,0,27,0,40.7,0
		C824.7,90.9,824.6,91.6,824.6,92.2z"/>
	<path class="st23" d="M793.8,44.2c0.3-0.3,0.7-0.6,1-0.9C794.4,43.6,794.1,43.9,793.8,44.2z"/>
	<path class="st23" d="M787.8,45.2c0.3-0.3,0.6-0.6,1-0.8C788.4,44.6,788.1,44.9,787.8,45.2z"/>
	<path class="st23" d="M783.8,46.2c0.3-0.3,0.6-0.6,1-0.9C784.4,45.6,784.1,45.9,783.8,46.2z"/>
	<path class="st23" d="M778.8,47.2c0.3-0.3,0.7-0.6,1-0.9C779.4,46.6,779.1,46.9,778.8,47.2z"/>
	<path class="st82" d="M569.8,231c0-0.6,0-1.2,0-1.8c0-4.3,0-8.7,0-13c7.7,0,15.3,0,23,0c0,4.7,0,9.5,0,14.6
		c-2.5,0.2-4.4,0.4-6.3,0.6C580.9,231.2,575.3,231.1,569.8,231z"/>
	<path class="st9" d="M169.7,82.3c-1.2,0.3-2.8-0.1-2.9,1.8c-0.4-0.7-0.7-1.3-1.1-2C167.1,80.8,168.5,80.7,169.7,82.3z"/>
	<path class="st32" d="M261.7,91.3c-0.3,0-0.6-0.1-0.9-0.1c0-0.4,0-0.7,0-1.1C261.1,90.6,261.4,90.9,261.7,91.3z"/>
	<path class="st32" d="M241.8,88.2c0.3,0.3,0.6,0.6,1,0.8C242.4,88.7,242.1,88.4,241.8,88.2z"/>
	<path class="st125" d="M410.9,181.1c0.3,2.3,0.7,4.7,1,7c-0.4,0-0.8,0-1.2,0.1c0,0,0,0,0,0c-0.3-2.3-0.7-4.7-1-7c0,0,0,0,0,0
		C410.2,181.1,410.5,181.1,410.9,181.1z"/>
	<path class="st19" d="M831.8,36.2c0.3-0.3,0.6-0.6,1-0.9C832.4,35.6,832.1,35.9,831.8,36.2z"/>
	<path class="st167" d="M86.8,38.1c-5.7-1-11.5-1.9-17.2-2.9c1.1,0,2.2-0.1,3.3-0.1c5.2,0.4,10.5,0.8,15.7,1.1
		c2,0.3,4.1,0.6,6.1,0.9c22.6,2.7,45.3,5.4,67.9,8.1c0,0.3,0.1,0.6,0.1,1c-8.3-0.7-16.6-1.3-25-2C120.8,42.2,103.8,40.1,86.8,38.1z"
		/>
	<path class="st168" d="M162.8,46.2c0-0.3,0-0.6-0.1-1c1.7,0,3.4,0,5.1,0c1,0.3,2,0.6,3,0.9c4.7,0.4,9.3,0.7,14,1.1
		c2.7,0.6,5.3,1.3,8,1.9c-0.4,0-0.8,0.1-1.1,0.1c-9.4-1-18.8-2.1-28.2-3.1c0,0-0.3,0-0.3,0L162.8,46.2z"/>
	<polygon class="st169" points="163.2,46.1 163.4,46.1 163.3,46.4 	"/>
	<path class="st151" d="M774.8,390.2c16.4,0,32.9,0,49.3,0c3.1,0,6.3,0,8.6-2.8c37.4,4.2,74.7,8.3,112.1,12.5c0,0.3,0,0.6-0.1,0.9
		c-56.4,0-112.8,0-169.9,0C774.8,397,774.8,393.6,774.8,390.2z"/>
	<path class="st151" d="M825.8,387.2c-0.3-0.3-0.6-0.5-0.9-0.8C825.2,386.6,825.5,386.9,825.8,387.2z"/>
	<path class="st157" d="M248,262.2c-0.3,2-0.7,4-1,6c-1.4,2.3-3.3,3.1-6.1,3c-11.3-0.2-22.6-0.1-34-0.1c0-0.7,0.1-1.4,0.1-2.1
		c0.6-2.3,1.2-4.6,1.8-6.9C221.8,262.2,234.9,262.2,248,262.2z"/>
	<path class="st157" d="M323.8,258.1c-25,0.8-49.9,1.6-74.9,2.4c7.2-3.2,14.9-1.3,22.4-2c16.3-1.4,32.8-1,49.3-1.3
		C321.6,257.2,322.7,257.8,323.8,258.1z"/>
	<path class="st157" d="M249.1,260.3c-0.4,0.7-0.8,1.4-1.2,2.1C248.3,261.7,248.7,261,249.1,260.3z"/>
	<path class="st136" d="M772.9,252.2c64.9,0,129.7,0,194.6,0.1c4.8,0,9.6,0.6,14.3,1c-1,0.7-2,1.3-3,2c-0.3,0.3-0.6,0.6-1,0.9
		c0,0-0.1,0.1-0.1,0.1c-0.3,0.3-0.6,0.6-0.9,0.9c-0.3,0-0.7,0.1-1,0.1c-0.3,0.3-0.6,0.6-1,0.9c0,0-0.1,0.1-0.1,0.1
		c-0.3,0.3-0.6,0.6-1,0.9c-0.3,0-0.7,0-1,0.1c-0.3,0.3-0.7,0.6-1,0.9c-1.3,0.7-2.7,1.4-4,2.1c-0.3,0.3-0.7,0.7-1,1c0,0,0,0,0,0
		c-6.9-0.3-13.9-0.9-20.8-1c-28-0.1-56,0.2-83.9-0.1c-28.6-0.3-57.1-1.3-85.7-1.9c-1,0-1.9-0.2-3.4-0.5
		C772.9,257,772.9,254.6,772.9,252.2z"/>
	<path class="st53" d="M955.8,270.2c-0.7,0.3-1.3,0.7-2,1C954.4,270.8,955.1,270.5,955.8,270.2z"/>
	<path class="st53" d="M957.8,269.2c-0.3,0.3-0.7,0.6-1,1C957.1,269.8,957.4,269.5,957.8,269.2z"/>
	<path class="st53" d="M958.8,268.2c-0.3,0.3-0.7,0.7-1,1C958.1,268.8,958.4,268.5,958.8,268.2z"/>
	<path class="st78" d="M569.8,163.2c0-2.3,0-4.7,0-7c33.6,0,67.2,0,100.9,0c-0.3,2.3-0.6,4.7-0.9,7
		C636.4,163.2,603.1,163.2,569.8,163.2z"/>
	<path class="st78" d="M670.5,166c-0.3,0.1-0.5,0.1-0.8,0.1c0-0.3,0-0.7,0-1C670,165.4,670.3,165.7,670.5,166z"/>
	<path class="st30" d="M985.8,251.1c0.3-0.3,0.7-0.6,1-0.9C986.4,250.5,986.1,250.8,985.8,251.1z"/>
	<path class="st136" d="M982.8,253.1c0.3-0.3,0.6-0.6,1-0.9C983.4,252.5,983.1,252.8,982.8,253.1z"/>
	<path class="st30" d="M977.8,256.1c0.3-0.3,0.6-0.6,1-0.9C978.4,255.5,978.1,255.8,977.8,256.1z"/>
	<path class="st30" d="M976.8,257.1c0.3-0.3,0.6-0.6,0.9-0.9C977.4,256.5,977.1,256.8,976.8,257.1z"/>
	<path class="st30" d="M974.8,258.1c0.3-0.3,0.6-0.6,1-0.9C975.4,257.5,975.1,257.8,974.8,258.1z"/>
	<path class="st53" d="M973.8,259.1c0.3-0.3,0.6-0.6,1-0.9C974.4,258.5,974.1,258.8,973.8,259.1z"/>
	<path class="st30" d="M971.8,260.1c0.3-0.3,0.7-0.6,1-0.9C972.4,259.5,972.1,259.8,971.8,260.1z"/>
	<path class="st30" d="M966.8,263.2c0.3-0.3,0.7-0.7,1-1C967.4,262.5,967.1,262.8,966.8,263.2z"/>
	<path class="st148" d="M773.8,213.2c0-1,0-2,0-3c0-2,0.1-4,0.1-6c0.3-0.7,0.6-1.3,0.9-2c0-0.3,0-0.7,0-1c13.3,0,26.6,0,39.9,0
		c-0.3,4.3-0.7,8.6-1,12.9C800.4,211.9,787.1,213.8,773.8,213.2z"/>
	<path class="st20" d="M271.6,303.1c7.4-0.7,14.8-1.3,22.1-2C286.5,303,279.1,303.4,271.6,303.1z"/>
	<path class="st31" d="M402.8,356c3,0,5.9,0,8.9,0C408.8,357.7,405.8,358.6,402.8,356z"/>
	<path class="st31" d="M400.8,346.2c0,2,0,4,0,6c-0.3,0-0.7,0-1,0C400.1,350.2,400.5,348.2,400.8,346.2z"/>
	<path class="st31" d="M411.6,356c1.7-0.3,3.4-0.6,5.1-1C415,355.4,413.3,355.7,411.6,356z"/>
	<path class="st31" d="M416.7,355.1c1.7-0.3,3.4-0.6,5.1-0.9C420.1,354.5,418.4,354.8,416.7,355.1z"/>
	<path class="st31" d="M400.9,352.7c0.4,0.8,0.7,1.6,1.1,2.4C401.6,354.3,401.3,353.5,400.9,352.7z"/>
	<path class="st31" d="M401.9,354.9c0.4,0.4,0.7,0.8,1.1,1.2C402.6,355.7,402.2,355.3,401.9,354.9z"/>
	<path class="st75" d="M723.9,263.1c10.2,0,20.4,0,30.7,0c0,5.1,0,10.2,0,15.7c-10.4,0-20.2,0-30.7,0
		C723.9,273.4,723.9,268.3,723.9,263.1z"/>
	<path class="st153" d="M206.8,271.2c11.3,0,22.6-0.1,34,0.1c2.8,0,4.7-0.7,6.1-3c-0.4,2-0.7,4-1.1,6c-0.7,1.7-1.4,3.3-2.1,5
		c0,0.3,0,0.7,0,1c-12.4,0-24.7,0-36.9,0C204.5,276.8,206.9,274,206.8,271.2z"/>
	<path class="st50" d="M243.8,279.2c0.7-1.7,1.4-3.3,2.1-5c-0.3,1.7-0.6,3.4-0.9,5C244.6,279.2,244.2,279.2,243.8,279.2z"/>
	<path class="st32" d="M271.7,92.3c-3.4-0.4-6.7-0.7-10.1-1.1C265,91.6,268.6,90,271.7,92.3z"/>
	<path class="st57" d="M621.9,344.2c8.6,0,17.2,0,25.8,0c0,3.3,0,6.7,0,10c-8.6-0.3-17.2-0.6-25.8-0.9
		C622,350.2,622,347.2,621.9,344.2z"/>
	<path class="st170" d="M622,353.2c8.6,0.3,17.2,0.6,25.8,0.9c0,3.1,0,6.2,0,9.6c-8.4,0-16.3,0-24.2,0c-0.5-1.5-1-3-1.6-4.5
		C622,357.3,622,355.3,622,353.2z"/>
	<path class="st16" d="M670.7,156.2c-33.6,0-67.2,0-100.9,0c0-2.7,0-5.3,0-8c8,0,16,0,23.9,0c2.7,0,5.3,0,8,0
		c17.8,2.3,35.7,0.4,53.6,1c4.9,0.1,9.8,0,15.3,0C670.7,152,670.7,154.1,670.7,156.2z"/>
	<path class="st152" d="M410.8,188.2c0.4,0,0.8,0,1.2-0.1c1,6.7,2,13.3,3,20c-0.7-3-1.5-6-2.2-8.9
		C412.1,195.5,411.4,191.8,410.8,188.2z"/>
	<path class="st87" d="M814.7,201.2c-13.3,0-26.6,0-39.9,0c0-3.6,0-7.2,0-12c14,0,27.5,0,40.9,0c0,1.4,0,2.7-0.1,4.1
		C815.3,195.9,815,198.5,814.7,201.2z"/>
	<path class="st149" d="M775.8,180.2c0.4-2.4,0.8-4.8,1.2-7.6c13.1,0,25.9,0,39.6,0c0,2.5,0,5.1,0,7.6
		C803,180.2,789.4,180.2,775.8,180.2z"/>
	<path class="st87" d="M774.8,202.2c-0.3,0.7-0.6,1.3-0.9,2C774.2,203.5,774.5,202.8,774.8,202.2z"/>
	<path class="st80" d="M199.8,180.2c0.3,0.3,0.6,0.7,1,1C200.4,180.8,200.1,180.5,199.8,180.2z"/>
	<path class="st99" d="M821.6,126.2c-0.3,1.3-0.6,2.6-0.9,3.9c-13.7,0-27.3,0-41,0c0,0,0,0,0,0c0-2.6,0-5.2,0-9
		c14.4,0,28.2,0,41.9,0C821.7,122.9,821.6,124.6,821.6,126.2z"/>
	<path class="st75" d="M405.9,264.2c0,0.3-0.1,0.6-0.1,1c-0.4,0-0.7,0-1.1,0C405.2,264.8,405.5,264.5,405.9,264.2z"/>
	<path class="st171" d="M819.6,150.3c-0.3,1.6-0.6,3.3-0.9,4.9c-13.6,0-27.3,0-40.9,0c0-2,0.1-4,0.1-6c0.3-0.7,0.6-1.3,0.9-2
		c0,0,0,0,0,0c13.6,0,27.2,0,40.9,0C819.6,148.2,819.6,149.2,819.6,150.3z"/>
	<path class="st163" d="M724.9,367.2c0-4.3,0-8.7,0-13c10.2,0,20.5,0,30.7,0c0,4.3,0.1,8.7,0.1,13
		C745.4,367.2,735.2,367.2,724.9,367.2z"/>
	<path class="st42" d="M582.9,343.2c0-4.3,0-8.7,0-13c8,0,15.9,0,23.9,0c0,4.1,0,8.2,0,13C598.4,343.2,590.6,343.2,582.9,343.2z"/>
	<path class="st154" d="M582.7,308.2c0-0.3,0-0.7,0.1-1c8,0,15.9,0,23.9,0c0,4.3,0,8.7,0,13c-8,0-15.9,0-23.9,0c0,0-0.1-0.1-0.1-0.1
		C582.7,316.1,582.7,312.2,582.7,308.2z"/>
	<path class="st131" d="M606.7,307.2c-8,0-15.9,0-23.9,0c0-0.7,0-1.3-0.1-2c0-3,0-6,0-9c8,0,15.9,0,23.9,0
		C606.7,299.8,606.7,303.5,606.7,307.2z"/>
	<path class="st109" d="M582.8,320.2c8,0,15.9,0,23.9,0c0,3.3,0,6.7,0,10c-8,0-15.9,0-23.9,0c0-2.7-0.1-5.3-0.1-8
		C582.7,321.5,582.8,320.9,582.8,320.2z"/>
	<path class="st21" d="M470.7,176.3c-6.5-0.3-12.9-0.7-19.4-1C457.8,175.7,464.4,173.8,470.7,176.3z"/>
	<path class="st21" d="M447.8,175.2c-5.8-0.3-11.6-0.6-17.5-0.9C436.1,174.6,442,173,447.8,175.2z"/>
	<path class="st21" d="M473.8,177.1c-1-0.3-2.1-0.6-3.1-0.9C471.7,176.5,472.7,176.8,473.8,177.1z"/>
	<path class="st172" d="M520.6,287.2c0,6.3,0,12.6,0,19c-6.4,1.9-12.9,0.8-19.3,0.7c-0.5-3.3-1-6-1.5-8.7c0-3.7,0-7.3,0-11
		c0.6,1.3,1.3,2.6,1.8,3.7c6,0,11.6,0,17.2,0C519.5,289.6,520.1,288.4,520.6,287.2z"/>
	<path class="st173" d="M520.6,287.2c-0.6,1.2-1.1,2.3-1.8,3.7c-5.6,0-11.2,0-17.2,0c-0.5-1.1-1.2-2.4-1.8-3.7c0-5.3,0-10.7,0-16
		c0.5,1.4,0.9,2.8,1.5,4.5c5.6,0,11.3,0,17.4,0c0.5-1,1.1-2.3,1.8-3.6C520.6,277.2,520.6,282.2,520.6,287.2z"/>
	<path class="st42" d="M520.7,329.2c0,4.3,0,8.6,0,13c-6.4,0.4-12.9,0.9-19,1.3c-0.8-2.5-1.3-3.8-1.7-5.2c0-4.3,0-8.7,0-13
		c0.5,1.5,1,3,1.8,5.3C508,330.1,514.3,329.6,520.7,329.2z"/>
	<path class="st174" d="M499.9,298.3c0.5,2.7,0.9,5.4,1.5,8.7c6.4,0,12.8,1.2,19.3-0.7c0,4.3,0,8.7,0,13c-6.9,0-13.8,0-20.7,0
		C500,312.2,499.9,305.2,499.9,298.3z"/>
	<path class="st142" d="M520.7,355.1c0,3.8,0,7.5,0,11.6c-7,0-13.4,0-20.7,0c0-5.8,0-11.1,0-16.5c0.5,1.5,1,3,1.7,4.9
		C508,355.1,514.3,355.1,520.7,355.1z"/>
	<path class="st57" d="M520.7,355.1c-6.4,0-12.7,0-19,0c-0.7-1.9-1.2-3.4-1.7-4.9c0-4,0-8,0-12c0.5,1.4,0.9,2.7,1.7,5.2
		c6.1-0.4,12.6-0.9,19-1.3c0.1,0.3,0.1,0.7,0.2,1C520.8,347.2,520.7,351.2,520.7,355.1z"/>
	<path class="st47" d="M500,319.2c6.9,0,13.8,0,20.7,0c0,3.3,0,6.7,0,10c-6.3,0.5-12.6,0.9-18.9,1.3c-0.8-2.3-1.3-3.8-1.8-5.3
		C499.9,323.2,500,321.2,500,319.2z"/>
	<path class="st148" d="M544.7,200.2c0,4.3,0,8.7,0,13c-7,0-13.9,0-20.9,0c0-4.1,0-8.2,0-13C531.2,200.2,537.9,200.2,544.7,200.2z"
		/>
	<path class="st35" d="M724.9,367.2c10.2,0,20.5,0,30.7,0c0,3.7,0,7.3,0.1,11c-10.3,0-20.5,0-30.8,0
		C724.9,374.5,724.9,370.8,724.9,367.2z"/>
	<path class="st175" d="M755.7,388.2c0,3.1,0,6.2,0,9.7c-10.4,0-20.2,0-30.8,0c0-3.2,0-6.4,0-9.7
		C735.2,388.2,745.5,388.2,755.7,388.2z"/>
	<path class="st164" d="M755.7,388.2c-10.3,0-20.5,0-30.8,0c0-3.3,0-6.7,0-10c10.3,0,20.5,0,30.8,0
		C755.7,381.5,755.7,384.8,755.7,388.2z"/>
	<path class="st49" d="M444.7,350.1c2-0.4,4-0.7,6.1-1.1C449,351,446.7,349.9,444.7,350.1z"/>
	<path class="st49" d="M433.7,352.1c2-0.4,4-0.7,6.1-1.1C438,353.1,435.7,351.9,433.7,352.1z"/>
	<path class="st49" d="M439.6,351c1.7-0.3,3.4-0.6,5.1-1C443,350.4,441.3,350.7,439.6,351z"/>
	<path class="st49" d="M450.6,349.1c1.7-0.3,3.4-0.6,5.1-1C454.1,348.4,452.3,348.8,450.6,349.1z"/>
	<path class="st68" d="M521.8,146.2c0-3.1,0-6.2,0-10c7.8,0,14.9,0,21.9,0c0,3.3,0,6.7,0,10C536.4,146.2,529.1,146.2,521.8,146.2z"
		/>
	<path class="st176" d="M543.7,128.2c-7.6,0-15.2,0-22.8,0c0-3-0.1-6-0.1-9c7.6,0,15.2,0,22.8,0
		C543.7,122.2,543.7,125.2,543.7,128.2z"/>
	<path class="st119" d="M543.7,119.2c-7.6,0-15.2,0-22.8,0c0-2.8,0-5.5,0-9c8,0,15.4,0,22.8,0C543.6,113.2,543.7,116.2,543.7,119.2z
		"/>
	<path class="st171" d="M521.8,146.2c7.3,0,14.7,0,22,0c0,1.3,0,2.7,0,4c0,1.3,0,2.7,0,4c-7.3,0-14.6,0-21.9,0
		C521.8,151.5,521.8,148.8,521.8,146.2z"/>
	<path class="st67" d="M621.8,262.1c0-1.3-0.1-2.6-0.1-4c0-4.7,0-9.3,0.1-14c8.3,0,16.6,0,25,0c0,5.8,0,11.5,0,18
		C638,262.1,629.9,262.1,621.8,262.1z"/>
	<path class="st113" d="M180.8,123.1c0.4,1,0.7,2,1.1,3.1C181.6,125.1,181.2,124.1,180.8,123.1z"/>
	<path class="st177" d="M544.6,183.1c0,1,0,2.1,0,3.1c-7.2,0-14.5,0-21.7,0c0-2.4,0-4.9,0-7.7c7,0,13.5,0,20.2,0
		C543.6,180.1,544.1,181.6,544.6,183.1z"/>
	<path class="st52" d="M309.7,98.4c-1-0.7-2.1-1.4-3.1-2.1C308.2,96.1,309.3,96.8,309.7,98.4z"/>
	<path class="st52" d="M306.7,96.4c-1.4-0.4-2.7-0.8-4.1-1.2C304,95.7,305.3,96,306.7,96.4z"/>
	<path class="st161" d="M72.9,35.1c-1.1,0-2.2,0.1-3.3,0.1c-20.3-2.4-40.9-3.1-60.9-8C30.1,29.9,51.5,32.5,72.9,35.1z"/>
	<path class="st178" d="M94.8,37.2c-2-0.3-4.1-0.6-6.1-0.9C90.7,36.5,92.7,36.8,94.8,37.2z"/>
	<path class="st169" d="M170.8,46.1c-1-0.3-2-0.6-3-0.9C168.8,45.5,169.8,45.8,170.8,46.1z"/>
	<path class="st101" d="M401.9,326.2c0,1-0.1,2-0.1,3c-0.3,0-0.7,0-1,0C401.2,328.2,401.5,327.2,401.9,326.2z"/>
	<path class="st102" d="M592.7,216.2c-7.7,0-15.3,0-23,0c0-4.7,0-9.3,0-14c7.7,0,15.3,0,23,0C592.7,206.8,592.7,211.5,592.7,216.2z"
		/>
	<path class="st100" d="M592.8,202.2c-7.7,0-15.3,0-23,0c0-4.3,0-8.7,0-13c7.7,0,15.3,0,23,0C592.8,193.5,592.8,197.8,592.8,202.2z"
		/>
	<path class="st70" d="M592.8,189.2c-7.7,0-15.3,0-23,0c0-2.8,0-5.6,0-8.7c7.9,0,15.1,0,23,0C592.8,183.6,592.8,186.4,592.8,189.2z"
		/>
	<path class="st94" d="M325.6,155.6c-0.3-1.1-0.5-2.3-0.8-3.4C325.1,153.3,325.4,154.4,325.6,155.6z"/>
	<path class="st15" d="M467.8,112.2c-1-0.3-2.1-0.6-3.1-1C465.7,111.5,466.7,111.8,467.8,112.2z"/>
	<path class="st15" d="M469.7,113c-0.7-0.3-1.3-0.6-2-0.9C468.4,112.5,469.1,112.7,469.7,113z"/>
	<path class="st152" d="M409.8,181.2c0.3,2.3,0.7,4.7,1,7c-9.3,2.2-18.7,0.4-28,1c-0.3-2.4-0.7-4.8-1.1-8
		C391.4,181.2,400.6,181.2,409.8,181.2z"/>
	<path class="st179" d="M521.9,154.2c7.3,0,14.6,0,21.9,0c0,4,0,8,0,12c-7.3,0-14.5,0-21.8,0C522,162.2,521.9,158.2,521.9,154.2z"/>
	<path class="st180" d="M569.9,140.2c0-2.7,0-5.4,0-8c7.9-2.2,15.9-0.4,23.9-1c0,3,0,6,0,9C585.8,140.2,577.8,140.2,569.9,140.2z"/>
	<path class="st181" d="M569.9,140.2c8,0,15.9,0,23.9,0c0,2.7,0,5.3,0,8c-8,0-16,0-23.9,0C569.8,145.5,569.9,142.8,569.9,140.2z"/>
	<path class="st90" d="M569.9,126.1c0.3-3,0.6-6,0.9-9c7.4,0,14.9,0,23,0c0,3.1,0,5.6,0,8C585.8,125.7,577.8,124,569.9,126.1z"/>
	<path class="st182" d="M569.9,126.1c7.9-2.1,15.9-0.4,23.9-1c0,2,0,4,0,6c-8,0.6-16-1.2-23.9,1
		C569.9,130.1,569.9,128.1,569.9,126.1z"/>
	<path class="st11" d="M323.7,296.1c0.4-0.3,0.8-0.6,1.1-0.9C324.4,295.5,324,295.8,323.7,296.1z"/>
	<path class="st161" d="M7.7,28.2c-0.5-0.1-1.1-0.2-1.6-0.2c0.6-0.2,1.2-0.5,1.8-0.7C7.8,27.6,7.7,27.9,7.7,28.2z"/>
	<path class="st168" d="M200.8,49.2c0.3,0.3,0.7,0.6,1,0.9C201.4,49.8,201.1,49.5,200.8,49.2z"/>
	<path class="st168" d="M209.8,50.2c0.3,0.3,0.7,0.6,1,0.9C210.4,50.8,210.1,50.5,209.8,50.2z"/>
	<path class="st136" d="M990.8,248.1c0.3-0.3,0.6-0.6,0.9-0.9C991.4,247.5,991.1,247.8,990.8,248.1z"/>
	<path class="st136" d="M988.8,249.1c0.3-0.3,0.7-0.6,1-0.9C989.4,248.5,989.1,248.8,988.8,249.1z"/>
	<path class="st94" d="M819.6,147.2c-13.6,0-27.2,0-40.9,0c0-1.3,0-2.7,0-4c0-1.7,0.1-3.3,0.1-5c13.6,0.6,27.3-1.3,40.9,1
		C819.7,141.8,819.7,144.5,819.6,147.2z"/>
	<path class="st111" d="M819.8,139.2c-13.6-2.3-27.3-0.4-40.9-1c0.3-2.7,0.6-5.3,0.9-8c13.7,0,27.3,0,41,0c-0.1,3-0.1,6-0.2,9
		C820.3,139.2,820,139.2,819.8,139.2z"/>
	<path class="st94" d="M778.8,147.2c-0.3,0.7-0.6,1.3-0.9,2C778.2,148.5,778.5,147.8,778.8,147.2z"/>
</g>
</svg>
