<?xml version="1.0" encoding="utf-8"?>
<!-- Generator: Adobe Illustrator 22.1.0, SVG Export Plug-In . SVG Version: 6.00 Build 0)  -->
<svg version="1.1" id="Layer_1" xmlns="http://www.w3.org/2000/svg" xmlns:xlink="http://www.w3.org/1999/xlink" x="0px" y="0px"
	 viewBox="0 0 271 199" style="enable-background:new 0 0 271 199;" xml:space="preserve">
<style type="text/css">
	.st0{fill:#FF3939;}
</style>
<path class="st0" d="M271,43c-1.7-2.6-1.9-6.7-5.2-7.6c-6.3-1.8-11.8-6-17.8-7.2c-8.7-1.7-16.4-4.8-23.8-9.3c-1.4-0.9-3-1.4-4.6-1.8
	c-3.6-1-6.5-3-9.4-5.4C203.9,6.4,197.3,1.6,189,0c-5,0-10,0-15,0c-4.3,1-7.9,3.3-11.3,6c-4.4,3.5-9.3,5.8-15,6.4
	c-10.7,1-21-1.1-30.9-4.6C106.5,4,96.2,1.5,85.2,3.5c-10.5,2-20.7,5-29.2,11.9c-2.7,2.2-4.6,5.1-7.6,7.1
	c-7.6,5.1-15.2,10.1-22.2,16.2C17.9,46,9.5,53.2,5.6,64c-2.5,6.8-5.8,13.7-0.2,20.7c1,1.2-0.3,2.5-0.6,3.7c-2.4,10.6-6,21,1.8,31.5
	c4.8,6.5,5.5,15,1.8,22.4C4.8,149.6,1.7,157,0,165c0,6.3,0,12.7,0,19c1.1,2.7,3.6,4.7,4.1,7.8c0.5,3.6,2.5,5.9,5.9,7.2
	c3.3,0,6.7,0,10,0c2.7-1.1,5.6-0.4,8.3-0.5c5-0.1,10.1,0.1,14.9-1.1c10.8-2.7,21.4-2.1,32.1-0.3c5.1,0.9,10.3,1,15.1-1.5
	c5-2.6,7.2-7.9,5.8-14.1c-1.2-5.4-5.3-5.1-9.4-5.3c-5.8-0.2-7.3-1.4-7.2-7.1c0.1-7.5,2-14.8,2.5-22.3c0.2-2.3,1.6-3.1,3.8-2.3
	c2.9,1,5.9,1.1,8.9,0.8c3.3-0.3,5.4,1,6.6,4c2.3,6.1,6.2,11,11.4,14.9c2.6,1.9,3.1,4.3,2.9,7.4c-0.4,6.4-1.5,12.5-3.6,18.5
	c-1.7,4.8-0.7,6.6,3.7,8.6c3.7,0,7.3,0,11,0c12.8-4.5,21.1-13.4,25.8-25.9c1.6-4.3,1.8-8.2,0.3-12.6c-2.4-6.9-3.7-14.1-3.6-21.6
	c0-4.1,1.5-6.6,5.6-7.6c3.7-0.9,7-2.6,9-5.3c-0.3,0.3-0.6,1.3-0.8,2.3c-3,16.2-2.5,32.1,5,47.2c1.7,3.4,3.2,6.8,2.9,10.9
	c-0.6,7.4,1.1,9.8,7.8,12.7c8.7,0,17.3,0,26,0c1.3-0.8,2.8-0.8,4.3-1.1c2.1-0.4,3.8-1.4,4.3-3.6c0.6-2.6-1.2-4-3.1-5.1
	c-1.6-1-3.3-1.7-4.9-2.4c-3.4-1.6-4.4-4-2.3-7.2c3.2-4.7,5.3-10,7.9-15c5.2-10.2,10-20.6,9.2-32.7c-0.4-5.8,1-11.6,2.5-17.2
	c0.7-2.8,1.9-3.6,4.5-1.6c4.2,3.3,8.8,5.9,14,7.5c2.7,0.8,5.2,0.8,7.7-0.5c9.8-5,12.8-11.9,9.2-22.2c-1.2-3.3-0.7-5.5,2-7.9
	c3.1-2.8,5.9-6.2,6.5-10.4c0.9-6.6,3.1-12.9,2.6-19.7c-0.3-3.6,0.4-7.2,1.5-10.7C271,47,271,45,271,43z M38,186.1
	c-1.4-0.8-4.7,1-4.3-1.5c0.5-3.1,3.9-5.4,6.8-5.9c2.3-0.3,2.2,3.1,2.4,5.1C43.3,188.6,39.8,185.4,38,186.1z"/>
</svg>
