<svg xmlns="http://www.w3.org/2000/svg" xmlns:xlink="http://www.w3.org/1999/xlink" id="svg" version="1.1" viewBox="6.13 6.55 388.84 153.61"><g id="svgg"><path id="path0" d="M44.250 23.995 C 36.053 24.935,29.847 30.460,28.331 38.167 C 27.567 42.047,27.462 43.150,27.544 46.417 C 27.883 59.956,34.859 67.540,46.750 67.297 C 55.051 67.128,60.714 63.003,63.231 55.292 C 64.375 51.788,63.714 50.329,60.985 50.334 C 60.673 50.335,59.667 50.210,58.750 50.056 C 56.357 49.656,55.167 50.010,55.167 51.122 C 55.167 52.716,53.933 55.513,52.590 56.963 C 48.393 61.497,40.067 59.733,37.816 53.833 C 36.410 50.148,36.128 43.783,37.180 39.500 C 39.418 30.390,51.227 28.845,54.189 37.274 C 55.132 39.955,55.017 39.912,59.531 39.266 C 63.373 38.717,63.704 38.371,62.938 35.708 C 60.561 27.448,53.381 22.948,44.250 23.995 M82.167 23.990 C 75.104 24.708,69.204 29.084,66.759 35.417 C 66.124 37.059,66.067 37.255,65.781 38.750 C 65.640 39.483,65.436 40.533,65.326 41.083 C 65.027 42.583,64.925 47.544,65.165 48.925 C 65.276 49.562,65.428 50.533,65.504 51.083 C 65.692 52.443,66.065 54.121,66.212 54.268 C 66.279 54.334,66.333 54.517,66.333 54.674 C 66.333 55.273,67.798 58.289,68.839 59.833 C 76.250 70.823,95.880 69.531,101.741 57.667 C 101.990 57.163,102.263 56.620,102.347 56.461 C 102.431 56.301,102.500 56.035,102.500 55.869 C 102.500 55.703,102.562 55.495,102.638 55.408 C 102.714 55.321,102.969 54.538,103.205 53.667 C 105.313 45.881,103.939 35.723,100.176 31.288 C 100.003 31.084,99.583 30.579,99.243 30.167 C 95.589 25.740,88.866 23.308,82.167 23.990 M127.000 23.940 C 124.429 24.175,120.088 26.069,118.679 27.569 C 118.090 28.197,118.000 28.115,118.000 26.954 C 118.000 25.059,117.338 24.757,113.417 24.862 C 110.718 24.934,110.115 25.134,109.939 26.014 C 109.703 27.195,109.821 64.981,110.063 65.560 C 110.430 66.439,110.865 66.527,114.555 66.468 C 117.701 66.419,117.839 66.402,118.204 66.037 L 118.583 65.658 118.681 53.371 C 118.794 39.135,118.846 38.566,120.293 35.786 C 122.569 31.410,129.471 30.290,131.945 33.895 C 133.050 35.504,133.015 34.969,133.051 50.866 C 133.087 66.678,133.022 65.735,134.107 66.250 C 134.659 66.512,137.777 66.618,137.372 66.361 C 137.203 66.254,137.170 62.369,137.206 46.985 L 137.250 27.742 137.625 27.340 L 138.000 26.938 137.644 26.559 C 136.034 24.846,130.903 23.583,127.000 23.940 M86.368 31.907 C 92.010 32.913,95.000 37.603,95.000 45.445 C 95.000 54.365,91.641 59.094,85.052 59.449 C 77.268 59.868,72.913 52.490,74.458 41.500 C 75.386 34.893,80.412 30.845,86.368 31.907 " stroke="none" fill="#fcfcfc" fill-rule="evenodd"/><path id="path1" d="M7.082 6.836 C 7.024 6.929,6.911 6.965,6.830 6.915 C 6.749 6.865,6.592 6.995,6.480 7.204 C 6.368 7.412,6.295 7.583,6.316 7.583 C 6.337 7.583,6.312 7.696,6.259 7.833 C 5.954 8.632,6.254 85.803,6.563 86.145 C 7.049 86.682,28.462 86.705,28.998 86.169 C 29.494 85.673,29.508 81.252,29.015 80.643 L 28.696 80.250 21.265 80.199 L 13.833 80.148 13.833 46.579 L 13.833 13.010 21.233 12.963 C 28.127 12.920,28.655 12.896,28.968 12.612 C 29.358 12.259,29.539 7.333,29.162 7.333 C 29.062 7.333,29.027 7.258,29.084 7.166 C 29.140 7.075,28.990 6.925,28.749 6.833 C 28.144 6.603,7.224 6.606,7.082 6.836 M246.407 6.903 C 246.229 7.033,246.077 7.202,246.069 7.278 C 246.061 7.354,245.999 7.543,245.930 7.697 C 245.664 8.299,245.894 12.300,246.214 12.620 C 246.489 12.894,247.075 12.920,254.006 12.963 L 261.500 13.010 261.500 46.587 L 261.500 80.163 212.819 80.207 L 164.137 80.250 163.819 80.643 C 163.390 81.173,163.309 159.175,163.737 159.760 C 164.103 160.260,185.892 160.268,186.258 159.767 C 186.385 159.593,186.453 159.392,186.409 159.320 C 186.364 159.248,186.404 159.143,186.497 159.085 C 186.723 158.946,186.723 155.054,186.497 154.915 C 186.404 154.857,186.364 154.752,186.409 154.680 C 186.850 153.966,186.391 153.919,178.514 153.870 L 171.000 153.823 171.000 120.162 L 171.000 86.500 192.276 86.500 L 213.552 86.500 214.110 86.074 C 214.417 85.840,214.920 85.259,215.229 84.783 C 217.374 81.472,221.604 81.093,224.209 83.977 C 224.553 84.357,224.833 84.744,224.833 84.837 C 224.833 84.930,225.184 85.342,225.613 85.753 L 226.393 86.500 247.363 86.500 C 261.232 86.500,268.333 86.444,268.333 86.333 C 268.333 86.242,268.420 86.185,268.527 86.208 C 268.633 86.231,268.776 86.063,268.844 85.833 C 269.042 85.162,269.029 7.704,268.831 7.582 C 268.737 7.524,268.701 7.412,268.750 7.333 C 269.180 6.637,247.346 6.217,246.407 6.903 M137.247 46.750 C 137.247 57.017,137.267 61.192,137.292 56.029 C 137.316 50.866,137.316 42.466,137.292 37.362 C 137.267 32.259,137.247 36.483,137.247 46.750 M373.491 80.229 C 373.450 80.269,373.163 80.342,372.853 80.390 C 371.976 80.527,371.921 80.669,371.862 82.977 C 371.807 85.141,371.965 86.284,372.309 86.208 C 372.414 86.185,372.500 86.242,372.500 86.333 C 372.500 86.442,375.111 86.500,380.000 86.500 L 387.500 86.500 387.500 120.167 L 387.500 153.833 380.194 153.833 C 376.176 153.833,372.833 153.890,372.764 153.958 C 372.695 154.027,372.554 154.083,372.449 154.083 C 372.018 154.083,371.838 154.940,371.838 157.000 C 371.838 159.060,372.018 159.917,372.449 159.917 C 372.554 159.917,372.695 159.973,372.764 160.042 C 372.927 160.205,393.906 160.205,394.069 160.042 C 394.138 159.973,394.280 159.917,394.384 159.917 C 395.003 159.917,394.997 160.314,394.956 119.967 C 394.928 92.377,394.864 80.797,394.738 80.671 C 394.639 80.573,394.377 80.440,394.154 80.376 C 393.719 80.252,373.615 80.109,373.491 80.229 " stroke="none" fill="#e48c14" fill-rule="evenodd"/><path id="path2" d="M150.500 23.939 C 147.205 24.245,144.070 25.774,141.391 28.383 L 140.198 29.544 139.783 28.897 C 139.555 28.541,139.064 27.957,138.691 27.598 L 138.014 26.946 137.679 27.348 C 137.349 27.745,137.344 27.990,137.315 46.583 C 137.299 56.942,137.278 65.604,137.268 65.833 C 137.242 66.438,137.409 66.495,139.217 66.497 C 140.930 66.500,141.657 66.291,141.938 65.714 C 142.018 65.551,142.129 59.604,142.185 52.500 C 142.281 40.274,142.347 38.613,142.791 37.248 C 144.841 30.941,154.331 29.664,156.089 35.458 C 156.291 36.121,156.330 38.567,156.332 50.464 C 156.333 65.683,156.315 65.328,157.161 66.083 C 157.686 66.553,163.655 66.687,164.502 66.249 C 165.533 65.716,165.500 66.232,165.499 50.714 C 165.499 35.618,165.499 35.630,164.641 32.333 C 163.164 26.664,157.480 23.290,150.500 23.939 M227.000 23.991 C 216.834 25.039,211.215 33.193,214.994 41.417 C 216.616 44.947,219.566 46.792,226.750 48.768 C 227.575 48.995,228.625 49.284,229.083 49.411 C 230.945 49.926,232.602 50.376,232.917 50.452 C 236.930 51.412,238.498 52.539,238.499 54.464 C 238.502 57.585,235.485 59.504,230.583 59.497 C 225.426 59.490,222.442 57.356,221.586 53.063 C 221.342 51.833,220.311 51.490,218.055 51.885 C 217.245 52.027,216.133 52.193,215.583 52.254 C 212.532 52.595,212.148 53.855,213.857 57.917 C 216.600 64.431,221.242 67.128,230.000 67.293 C 240.526 67.491,247.667 62.027,247.667 53.775 C 247.667 47.514,244.668 44.384,236.250 41.859 C 232.456 40.720,231.205 40.356,230.833 40.280 C 230.604 40.233,230.004 40.070,229.500 39.917 C 228.996 39.765,228.321 39.578,228.000 39.503 C 224.341 38.641,222.777 37.603,222.556 35.887 C 222.376 34.486,223.823 32.779,225.616 32.279 C 231.468 30.647,236.593 32.617,237.222 36.740 C 237.441 38.170,238.280 38.340,242.454 37.796 C 246.362 37.288,246.703 36.562,245.068 32.237 C 242.839 26.339,235.725 23.092,227.000 23.991 M174.070 25.013 C 172.826 25.374,172.917 24.203,172.917 39.976 C 172.917 56.833,172.993 57.595,175.047 61.281 C 179.029 68.424,191.819 69.515,198.458 63.277 L 199.000 62.768 199.001 64.009 C 199.002 66.398,199.283 66.553,203.454 66.470 L 206.146 66.417 206.656 65.927 L 207.167 65.438 207.167 45.635 C 207.167 23.302,207.297 25.404,205.886 25.012 C 205.112 24.797,200.503 24.783,199.600 24.992 C 198.139 25.331,198.262 24.164,198.155 38.629 C 198.049 52.856,198.072 52.568,196.898 54.944 C 193.963 60.884,184.571 61.132,182.475 55.325 L 182.087 54.250 182.002 40.159 C 181.906 24.375,181.991 25.365,180.710 25.009 C 179.955 24.800,174.794 24.802,174.070 25.013 M218.583 82.234 C 216.985 82.741,215.996 83.512,215.109 84.945 C 214.873 85.327,214.414 85.842,214.090 86.090 L 213.500 86.540 213.500 87.947 C 213.500 94.638,222.897 96.662,225.937 90.626 C 226.425 89.657,226.519 89.278,226.581 88.037 L 226.653 86.583 225.982 86.084 C 225.612 85.810,225.154 85.322,224.962 85.001 C 223.582 82.683,220.873 81.508,218.583 82.234 M202.398 100.893 C 200.881 101.504,199.543 102.415,198.877 103.287 L 198.432 103.871 198.236 103.002 C 197.879 101.418,196.820 101.046,193.140 101.213 C 189.273 101.388,189.667 99.041,189.668 121.917 C 189.669 141.927,189.667 141.880,190.445 142.492 C 190.951 142.890,197.078 143.019,197.890 142.648 C 198.759 142.252,198.743 142.478,198.847 129.417 C 198.947 116.833,198.927 117.228,199.627 114.083 C 200.603 109.694,204.306 107.967,208.355 110.011 C 209.668 110.674,211.167 110.565,211.167 109.807 C 211.167 109.712,211.274 109.397,211.406 109.109 C 211.868 108.092,213.333 104.023,213.333 103.755 C 213.333 103.000,212.816 102.497,211.288 101.767 C 207.844 100.122,205.001 99.843,202.398 100.893 M282.557 100.840 C 277.411 102.163,274.057 104.559,271.249 108.917 C 270.167 110.596,268.801 114.189,268.312 116.640 C 268.027 118.068,267.927 125.666,268.174 127.083 C 268.763 130.459,270.243 134.328,271.616 136.083 C 275.028 140.444,277.777 142.164,283.500 143.520 C 284.736 143.812,290.911 143.810,292.167 143.517 C 298.713 141.986,302.696 139.001,305.026 133.883 C 306.748 130.099,306.491 129.555,302.750 129.066 C 297.593 128.392,297.661 128.373,296.333 130.847 C 292.584 137.834,282.329 137.627,278.682 130.490 C 278.072 129.297,277.167 126.253,277.167 125.395 L 277.167 125.006 291.348 124.961 L 305.529 124.917 305.956 124.420 L 306.383 123.923 306.281 120.587 C 306.214 118.433,306.087 116.907,305.922 116.284 C 305.782 115.752,305.666 115.189,305.666 115.034 C 305.662 113.976,304.050 110.142,302.726 108.043 C 298.958 102.070,290.091 98.903,282.557 100.840 M325.231 100.729 C 323.770 101.273,322.709 101.937,321.713 102.932 L 320.843 103.802 320.744 103.193 C 320.459 101.428,320.073 101.252,316.500 101.256 C 313.196 101.260,312.630 101.422,312.346 102.445 C 312.050 103.509,312.101 141.020,312.399 141.734 C 312.838 142.784,313.035 142.833,316.750 142.833 C 320.323 142.833,320.563 142.784,321.040 141.950 C 321.201 141.669,321.274 138.730,321.351 129.417 C 321.414 121.963,321.524 116.798,321.635 116.083 C 322.577 110.055,325.929 107.769,330.648 109.935 C 333.196 111.104,333.181 111.119,335.233 105.580 C 336.089 103.269,335.853 102.703,333.605 101.672 C 330.489 100.242,327.460 99.901,325.231 100.729 M350.583 100.607 C 342.483 102.278,338.683 105.451,336.976 111.969 C 336.482 113.855,336.811 114.513,338.399 114.815 C 344.241 115.924,345.148 115.810,345.592 113.907 C 345.827 112.901,346.925 110.899,347.627 110.197 C 350.130 107.695,357.255 107.415,360.657 109.686 C 362.217 110.728,362.648 111.673,362.784 114.345 L 362.874 116.106 361.395 116.454 C 358.181 117.211,353.932 117.937,350.333 118.342 C 340.657 119.433,335.500 123.996,335.500 131.467 C 335.500 137.612,339.006 141.773,345.583 143.435 C 347.071 143.811,352.568 143.863,354.000 143.515 C 357.333 142.703,360.052 141.500,362.309 139.837 C 363.074 139.273,363.719 138.835,363.741 138.864 C 363.848 139.004,364.333 140.679,364.333 140.910 C 364.333 141.287,365.103 142.454,365.487 142.660 C 366.262 143.074,372.806 142.876,373.258 142.424 C 373.800 141.882,373.790 141.108,373.225 139.879 C 372.523 138.350,372.510 138.310,372.323 137.083 C 371.930 134.508,371.886 133.173,371.850 122.788 C 371.829 116.851,371.746 111.639,371.664 111.205 C 370.768 106.426,369.131 103.956,365.796 102.349 C 361.945 100.495,354.989 99.698,350.583 100.607 M217.167 101.272 C 216.321 101.378,215.678 101.667,215.486 102.027 C 215.242 102.482,215.278 141.529,215.522 142.066 C 215.833 142.748,216.313 142.833,219.832 142.833 C 223.097 142.833,223.155 142.827,223.616 142.431 L 224.083 142.029 224.133 122.473 C 224.186 101.308,224.207 101.838,223.290 101.498 C 222.749 101.298,218.278 101.133,217.167 101.272 M229.776 101.341 C 228.013 101.637,227.921 102.635,229.351 105.917 C 229.431 106.100,229.688 106.775,229.922 107.417 C 230.344 108.575,231.073 110.445,231.351 111.083 C 231.431 111.267,231.751 112.129,232.062 113.000 C 232.373 113.871,232.816 115.071,233.047 115.667 C 233.455 116.716,234.127 118.468,234.581 119.667 C 234.703 119.987,235.264 121.450,235.827 122.917 C 236.390 124.383,236.931 125.808,237.028 126.083 C 237.126 126.358,237.309 126.820,237.436 127.109 C 237.563 127.397,237.667 127.717,237.667 127.819 C 237.667 127.921,237.735 128.135,237.819 128.294 C 237.903 128.453,238.212 129.221,238.506 130.000 C 238.800 130.779,239.136 131.642,239.254 131.917 C 239.450 132.376,239.834 133.424,240.597 135.583 C 240.758 136.042,240.943 136.492,241.007 136.583 C 241.071 136.675,241.218 137.050,241.333 137.417 C 241.449 137.783,241.596 138.158,241.660 138.250 C 241.724 138.342,241.908 138.792,242.070 139.250 C 243.428 143.095,243.047 142.834,247.283 142.833 C 250.973 142.832,251.238 142.747,251.742 141.396 C 252.303 139.895,253.203 137.588,253.425 137.083 C 253.545 136.808,253.758 136.246,253.898 135.833 C 254.314 134.606,255.105 132.464,255.407 131.750 C 255.672 131.122,256.337 129.351,257.160 127.083 C 257.967 124.856,259.257 121.585,259.508 121.127 C 259.595 120.968,259.667 120.745,259.667 120.631 C 259.667 120.378,260.308 118.627,261.179 116.500 C 261.535 115.629,262.121 114.092,262.481 113.083 C 262.840 112.075,263.486 110.350,263.915 109.250 C 264.345 108.150,264.809 106.912,264.948 106.500 C 265.086 106.087,265.298 105.525,265.417 105.250 C 266.968 101.685,266.291 101.041,261.167 101.208 C 258.530 101.293,257.714 101.504,257.394 102.183 C 257.117 102.771,256.412 104.649,256.181 105.417 C 256.002 106.010,255.743 106.716,255.326 107.750 C 254.973 108.622,254.160 110.861,253.842 111.833 C 253.648 112.429,253.423 113.067,253.342 113.250 C 253.262 113.433,252.802 114.671,252.320 116.000 C 251.839 117.329,251.382 118.488,251.306 118.575 C 251.229 118.662,251.167 118.848,251.167 118.988 C 251.167 119.240,251.025 119.642,249.551 123.583 C 248.406 126.646,248.403 126.652,247.878 128.241 C 247.435 129.582,247.000 130.263,247.000 129.616 C 247.000 129.125,246.366 127.219,244.684 122.658 C 244.124 121.141,243.667 119.787,243.667 119.650 C 243.667 119.512,243.600 119.329,243.518 119.242 C 243.437 119.155,243.139 118.408,242.856 117.583 C 242.573 116.758,242.144 115.558,241.903 114.917 C 241.662 114.275,241.029 112.513,240.497 111.000 C 239.527 108.240,238.519 105.445,238.214 104.667 C 238.124 104.438,237.912 103.781,237.744 103.208 C 237.354 101.886,236.976 101.533,235.734 101.330 C 234.576 101.140,230.933 101.147,229.776 101.341 M289.968 108.461 C 292.469 109.034,295.249 111.420,296.109 113.731 C 296.250 114.108,296.424 114.567,296.497 114.750 C 296.634 115.094,297.000 116.740,297.000 117.013 C 297.000 117.105,293.134 117.167,287.333 117.167 L 277.667 117.167 277.668 116.708 C 277.681 113.588,282.112 108.514,284.840 108.497 C 285.065 108.496,285.362 108.419,285.500 108.325 C 285.796 108.125,288.913 108.219,289.968 108.461 M362.665 127.513 C 362.565 128.193,362.442 129.032,362.391 129.376 C 362.340 129.720,362.231 130.044,362.149 130.094 C 362.067 130.145,362.000 130.313,361.999 130.468 C 361.999 130.623,361.775 131.087,361.502 131.500 C 357.087 138.171,344.714 137.987,344.782 131.251 C 344.813 128.215,347.207 126.532,352.495 125.828 C 353.272 125.725,353.974 125.599,354.056 125.549 C 354.137 125.499,354.702 125.397,355.310 125.323 C 355.919 125.250,357.017 125.068,357.750 124.921 C 358.483 124.773,359.421 124.584,359.833 124.500 C 360.246 124.417,361.071 124.213,361.667 124.046 L 362.750 123.744 362.798 125.010 C 362.824 125.706,362.764 126.832,362.665 127.513 " stroke="none" fill="#444444" fill-rule="evenodd"/></g></svg>