<svg id="svg" version="1.1" xmlns="http://www.w3.org/2000/svg" xmlns:xlink="http://www.w3.org/1999/xlink" viewBox="0, 0, 400,164"><g id="svgg"><path id="path0" d="M6.648 6.982 L 6.250 7.304 6.250 46.551 C 6.250 84.912,6.257 85.806,6.567 86.149 C 6.884 86.499,6.914 86.500,17.850 86.500 L 28.814 86.500 29.074 86.130 C 29.495 85.528,29.448 81.179,29.015 80.643 L 28.696 80.250 21.265 80.200 L 13.833 80.151 13.833 46.575 L 13.833 13.000 20.989 13.000 C 28.030 13.000,28.888 12.942,29.202 12.448 C 29.446 12.065,29.355 7.426,29.097 7.074 C 28.726 6.567,7.269 6.479,6.648 6.982 M246.310 6.985 C 245.773 7.420,245.694 12.098,246.214 12.619 C 246.489 12.894,247.070 12.920,254.006 12.963 L 261.500 13.010 261.500 46.587 L 261.500 80.164 212.819 80.207 L 164.137 80.250 163.819 80.643 C 163.390 81.173,163.309 159.175,163.737 159.760 C 164.091 160.244,185.802 160.269,186.286 159.786 C 186.733 159.339,186.733 154.661,186.286 154.214 C 186.011 153.939,185.430 153.913,178.494 153.870 L 171.000 153.823 171.000 120.162 L 171.000 86.500 192.276 86.500 L 213.552 86.500 214.110 86.074 C 214.417 85.840,214.919 85.256,215.226 84.777 C 217.567 81.117,222.723 81.191,224.908 84.917 C 225.123 85.283,225.588 85.808,225.941 86.083 L 226.583 86.583 247.533 86.500 C 264.414 86.433,268.525 86.375,268.700 86.200 C 268.877 86.023,268.917 78.698,268.917 46.644 L 268.917 7.304 268.523 6.985 C 267.910 6.488,246.924 6.488,246.310 6.985 M45.963 23.956 C 46.355 23.991,46.955 23.990,47.296 23.954 C 47.637 23.919,47.317 23.890,46.583 23.890 C 45.850 23.891,45.571 23.920,45.963 23.956 M83.963 23.956 C 84.355 23.991,84.955 23.990,85.296 23.954 C 85.637 23.919,85.317 23.890,84.583 23.890 C 83.850 23.891,83.571 23.920,83.963 23.956 M128.208 23.955 C 128.552 23.991,129.115 23.991,129.458 23.955 C 129.802 23.919,129.521 23.889,128.833 23.889 C 128.146 23.889,127.865 23.919,128.208 23.955 M151.708 23.955 C 152.052 23.991,152.615 23.991,152.958 23.955 C 153.302 23.919,153.021 23.889,152.333 23.889 C 151.646 23.889,151.365 23.919,151.708 23.955 M228.792 23.955 C 229.181 23.990,229.819 23.990,230.208 23.955 C 230.598 23.920,230.279 23.892,229.500 23.892 C 228.721 23.892,228.402 23.920,228.792 23.955 M242.134 27.930 C 242.329 28.304,242.808 28.756,242.895 28.649 C 242.924 28.613,242.724 28.358,242.450 28.083 C 242.103 27.734,242.008 27.688,242.134 27.930 M222.333 35.657 C 222.333 35.926,222.393 36.184,222.465 36.228 C 222.538 36.273,222.567 36.053,222.530 35.738 C 222.448 35.038,222.333 34.990,222.333 35.657 M63.147 37.297 C 63.092 37.628,63.116 37.784,63.209 37.691 C 63.293 37.607,63.334 37.361,63.300 37.144 C 63.247 36.811,63.224 36.834,63.147 37.297 M133.079 51.500 C 133.079 58.788,133.100 61.769,133.125 58.125 C 133.150 54.481,133.150 48.519,133.125 44.875 C 133.100 41.231,133.079 44.212,133.079 51.500 M244.734 46.309 C 245.087 46.706,245.167 46.743,245.167 46.506 C 245.167 46.417,244.998 46.257,244.792 46.148 C 244.419 45.953,244.418 45.953,244.734 46.309 M238.539 54.500 C 238.539 54.821,238.573 54.952,238.615 54.792 C 238.657 54.631,238.657 54.369,238.615 54.208 C 238.573 54.048,238.539 54.179,238.539 54.500 M45.713 67.289 C 46.152 67.324,46.827 67.323,47.213 67.288 C 47.600 67.254,47.242 67.225,46.417 67.226 C 45.592 67.226,45.275 67.255,45.713 67.289 M83.880 67.289 C 84.318 67.324,84.993 67.323,85.380 67.288 C 85.767 67.254,85.408 67.225,84.583 67.226 C 83.758 67.226,83.442 67.255,83.880 67.289 M186.792 67.289 C 187.181 67.324,187.819 67.324,188.208 67.289 C 188.598 67.254,188.279 67.225,187.500 67.225 C 186.721 67.225,186.402 67.254,186.792 67.289 M229.625 67.290 C 230.106 67.323,230.894 67.323,231.375 67.290 C 231.856 67.256,231.463 67.228,230.500 67.228 C 229.537 67.228,229.144 67.256,229.625 67.290 M372.754 80.309 C 371.943 80.488,371.820 80.953,371.871 83.639 C 371.932 86.831,370.987 86.500,380.032 86.500 L 387.500 86.500 387.500 120.162 L 387.500 153.823 380.006 153.870 C 373.070 153.913,372.489 153.939,372.214 154.214 C 371.767 154.661,371.767 159.339,372.214 159.786 C 372.675 160.247,394.158 160.247,394.619 159.786 C 395.083 159.322,395.083 81.012,394.619 80.548 C 394.312 80.240,374.070 80.020,372.754 80.309 M226.548 87.583 C 226.549 88.042,226.581 88.209,226.620 87.956 C 226.658 87.703,226.657 87.328,226.617 87.123 C 226.578 86.918,226.546 87.125,226.548 87.583 M205.208 100.453 C 205.460 100.491,205.873 100.491,206.125 100.453 C 206.377 100.415,206.171 100.383,205.667 100.383 C 205.162 100.383,204.956 100.415,205.208 100.453 M286.713 100.456 C 287.152 100.490,287.827 100.490,288.213 100.455 C 288.600 100.420,288.242 100.392,287.417 100.392 C 286.592 100.393,286.275 100.422,286.713 100.456 M327.628 100.454 C 327.928 100.491,328.378 100.490,328.628 100.452 C 328.878 100.414,328.633 100.384,328.083 100.385 C 327.533 100.386,327.328 100.417,327.628 100.454 M354.458 100.457 C 355.031 100.489,355.969 100.489,356.542 100.457 C 357.115 100.424,356.646 100.398,355.500 100.398 C 354.354 100.398,353.885 100.424,354.458 100.457 M193.042 101.290 C 193.569 101.323,194.431 101.323,194.958 101.290 C 195.485 101.257,195.054 101.230,194.000 101.230 C 192.946 101.230,192.515 101.257,193.042 101.290 M218.715 101.290 C 219.338 101.323,220.313 101.322,220.882 101.290 C 221.451 101.257,220.942 101.231,219.750 101.231 C 218.558 101.232,218.093 101.258,218.715 101.290 M231.625 101.290 C 232.290 101.322,233.377 101.322,234.042 101.290 C 234.706 101.259,234.162 101.233,232.833 101.233 C 231.504 101.233,230.960 101.259,231.625 101.290 M260.701 101.290 C 261.316 101.322,262.366 101.322,263.034 101.291 C 263.703 101.259,263.200 101.233,261.917 101.232 C 260.633 101.232,260.086 101.258,260.701 101.290 M315.542 101.290 C 316.069 101.323,316.931 101.323,317.458 101.290 C 317.985 101.257,317.554 101.230,316.500 101.230 C 315.446 101.230,315.015 101.257,315.542 101.290 M301.008 106.259 C 301.126 106.402,301.379 106.596,301.570 106.692 C 301.801 106.807,301.756 106.721,301.432 106.433 C 300.892 105.950,300.679 105.863,301.008 106.259 M294.000 110.530 C 294.000 110.578,294.188 110.820,294.417 111.068 C 294.646 111.315,294.833 111.451,294.833 111.371 C 294.833 111.291,294.646 111.049,294.417 110.833 C 294.188 110.618,294.000 110.482,294.000 110.530 M371.744 122.583 C 371.744 127.533,371.766 129.534,371.792 127.030 C 371.818 124.526,371.817 120.476,371.792 118.030 C 371.766 115.584,371.744 117.633,371.744 122.583 M338.667 123.141 C 338.346 123.455,338.234 123.634,338.419 123.538 C 338.788 123.346,339.427 122.692,339.318 122.617 C 339.281 122.590,338.987 122.826,338.667 123.141 M268.039 125.000 C 268.039 125.321,268.073 125.452,268.115 125.292 C 268.157 125.131,268.157 124.869,268.115 124.708 C 268.073 124.548,268.039 124.679,268.039 125.000 M345.999 127.917 C 345.784 128.146,345.648 128.333,345.695 128.333 C 345.861 128.333,346.553 127.664,346.472 127.583 C 346.427 127.538,346.214 127.689,345.999 127.917 M371.881 132.917 C 371.882 133.375,371.915 133.543,371.953 133.289 C 371.991 133.036,371.990 132.661,371.951 132.456 C 371.911 132.251,371.880 132.458,371.881 132.917 M294.263 133.688 C 294.086 133.860,294.021 134.000,294.117 134.000 C 294.309 134.000,294.754 133.527,294.649 133.434 C 294.613 133.402,294.439 133.517,294.263 133.688 M351.128 136.454 C 351.428 136.491,351.878 136.490,352.128 136.452 C 352.378 136.414,352.133 136.384,351.583 136.385 C 351.033 136.386,350.828 136.417,351.128 136.454 " stroke="none" fill="#e48c14" fill-rule="evenodd"></path><path id="path1" d="M43.333 24.188 C 43.333 24.279,43.258 24.307,43.167 24.250 C 43.075 24.193,42.917 24.199,42.815 24.261 C 42.713 24.324,42.321 24.399,41.943 24.427 C 41.566 24.455,41.232 24.554,41.201 24.646 C 41.170 24.739,41.037 24.773,40.906 24.723 C 40.774 24.672,40.667 24.712,40.667 24.810 C 40.667 24.909,40.554 24.946,40.417 24.894 C 40.279 24.841,40.167 24.864,40.167 24.946 C 40.167 25.027,39.965 25.111,39.718 25.131 C 39.471 25.152,39.227 25.224,39.176 25.292 C 39.125 25.361,38.971 25.437,38.833 25.462 C 38.351 25.551,37.333 26.052,37.333 26.202 C 37.333 26.285,37.258 26.307,37.167 26.250 C 37.075 26.193,37.000 26.214,37.000 26.296 C 37.000 26.378,36.898 26.444,36.773 26.444 C 36.441 26.444,34.231 27.949,33.849 28.435 C 33.669 28.664,33.461 28.847,33.386 28.842 C 33.311 28.837,33.250 28.894,33.250 28.969 C 33.250 29.043,32.963 29.356,32.612 29.664 C 31.791 30.385,30.305 32.645,30.090 33.500 C 30.079 33.546,29.944 33.818,29.791 34.104 C 29.638 34.390,29.560 34.671,29.618 34.729 C 29.675 34.786,29.630 34.833,29.518 34.833 C 29.406 34.833,29.356 34.902,29.408 34.986 C 29.460 35.070,29.438 35.163,29.359 35.194 C 29.189 35.261,28.387 37.738,28.343 38.333 C 28.326 38.563,28.305 38.844,28.295 38.958 C 28.286 39.073,28.216 39.167,28.141 39.167 C 28.065 39.167,28.003 39.335,28.002 39.542 C 27.997 40.268,27.864 41.420,27.751 41.700 C 27.688 41.856,27.682 42.057,27.738 42.147 C 27.793 42.237,27.767 42.355,27.680 42.409 C 27.507 42.515,27.464 48.804,27.634 49.080 C 27.742 49.257,27.771 49.438,27.913 50.833 C 28.013 51.829,28.105 52.417,28.158 52.417 C 28.198 52.417,28.299 52.884,28.411 53.583 C 28.586 54.688,29.385 56.792,29.714 57.019 C 29.795 57.075,29.856 57.187,29.850 57.269 C 29.825 57.564,30.026 58.000,30.188 58.000 C 30.279 58.000,30.307 58.075,30.250 58.167 C 30.193 58.258,30.214 58.333,30.296 58.333 C 30.378 58.333,30.444 58.429,30.444 58.545 C 30.444 58.832,31.339 60.167,31.532 60.167 C 31.617 60.167,31.643 60.237,31.590 60.322 C 31.538 60.407,31.662 60.595,31.868 60.739 C 32.073 60.882,32.170 61.000,32.083 61.000 C 31.997 61.000,32.442 61.521,33.074 62.157 C 33.706 62.794,34.266 63.303,34.320 63.290 C 34.373 63.276,34.668 63.505,34.975 63.798 C 35.283 64.092,35.593 64.295,35.666 64.250 C 35.739 64.205,35.843 64.285,35.898 64.428 C 35.953 64.571,36.073 64.641,36.165 64.584 C 36.258 64.527,36.333 64.549,36.333 64.634 C 36.333 64.812,38.138 65.804,38.602 65.881 C 38.775 65.909,39.076 66.020,39.270 66.127 C 39.464 66.234,39.670 66.274,39.728 66.216 C 39.786 66.158,39.833 66.202,39.833 66.313 C 39.833 66.424,39.927 66.496,40.042 66.472 C 40.156 66.449,40.400 66.512,40.583 66.613 C 40.767 66.713,41.104 66.802,41.333 66.810 C 42.056 66.834,42.413 66.912,42.527 67.069 C 42.666 67.262,49.486 67.325,49.603 67.135 C 49.651 67.058,49.748 67.030,49.819 67.074 C 49.890 67.118,50.241 67.069,50.599 66.964 C 50.957 66.860,51.381 66.793,51.542 66.814 C 51.702 66.836,51.833 66.777,51.833 66.682 C 51.833 66.588,51.946 66.554,52.083 66.606 C 52.221 66.659,52.333 66.635,52.333 66.553 C 52.333 66.471,52.495 66.392,52.693 66.377 C 52.891 66.362,53.115 66.253,53.191 66.133 C 53.266 66.014,53.329 65.969,53.331 66.033 C 53.335 66.213,54.333 65.822,54.333 65.641 C 54.333 65.552,54.408 65.527,54.500 65.583 C 54.592 65.640,54.667 65.619,54.667 65.538 C 54.667 65.456,54.763 65.389,54.881 65.389 C 55.204 65.389,56.683 64.484,56.782 64.227 C 56.829 64.103,56.930 64.040,57.006 64.087 C 57.082 64.134,57.249 64.021,57.379 63.837 C 57.508 63.653,57.651 63.540,57.698 63.586 C 57.744 63.633,58.438 62.990,59.241 62.157 C 60.043 61.325,60.663 60.607,60.617 60.562 C 60.572 60.516,60.713 60.287,60.931 60.052 C 61.149 59.817,61.291 59.566,61.246 59.493 C 61.201 59.421,61.230 59.337,61.309 59.306 C 61.507 59.230,62.643 57.001,62.711 56.557 C 62.741 56.360,62.841 56.098,62.934 55.975 C 64.105 54.415,63.802 50.259,62.553 50.739 C 62.432 50.785,62.333 50.742,62.333 50.644 C 62.333 50.545,62.221 50.508,62.083 50.560 C 61.946 50.613,61.833 50.589,61.833 50.507 C 61.833 50.424,61.430 50.357,60.937 50.357 C 60.444 50.357,59.750 50.284,59.395 50.195 C 59.040 50.106,58.637 50.030,58.500 50.026 C 58.362 50.021,57.949 49.969,57.580 49.909 C 55.865 49.630,55.200 50.249,55.109 52.208 C 55.101 52.369,55.028 52.500,54.946 52.500 C 54.865 52.500,54.840 52.610,54.892 52.745 C 54.943 52.879,54.909 53.037,54.815 53.095 C 54.721 53.153,54.683 53.303,54.731 53.428 C 54.779 53.553,54.747 53.700,54.660 53.754 C 54.506 53.849,53.831 55.293,53.826 55.537 C 53.824 55.603,53.600 55.901,53.328 56.199 C 53.056 56.497,52.833 56.841,52.833 56.964 C 52.833 57.086,52.753 57.137,52.655 57.076 C 52.558 57.016,52.437 57.123,52.387 57.315 C 52.336 57.506,52.235 57.626,52.161 57.580 C 52.087 57.534,51.871 57.695,51.680 57.938 C 51.489 58.180,51.333 58.326,51.333 58.263 C 51.333 58.200,51.108 58.281,50.833 58.443 C 50.558 58.606,50.333 58.802,50.333 58.879 C 50.333 58.956,50.272 58.982,50.196 58.935 C 50.121 58.888,49.875 58.946,49.650 59.063 C 49.425 59.179,49.161 59.248,49.063 59.215 C 48.964 59.183,48.666 59.239,48.400 59.341 C 47.929 59.522,45.147 59.608,44.883 59.450 C 44.699 59.340,42.779 58.931,42.625 58.969 C 42.556 58.986,42.500 58.934,42.500 58.854 C 42.500 58.693,41.568 58.263,41.427 58.358 C 41.379 58.390,41.221 58.247,41.075 58.039 C 40.930 57.831,40.759 57.683,40.697 57.709 C 40.585 57.756,38.962 56.163,38.955 56.000 C 38.953 55.954,38.786 55.654,38.584 55.333 C 38.011 54.423,37.667 53.707,37.667 53.425 C 37.667 53.283,37.587 53.167,37.490 53.167 C 37.393 53.167,37.357 53.097,37.410 53.012 C 37.462 52.926,37.428 52.809,37.333 52.750 C 37.239 52.691,37.194 52.590,37.234 52.525 C 37.275 52.460,37.170 51.816,37.002 51.094 C 36.835 50.372,36.736 49.679,36.784 49.555 C 36.832 49.431,36.791 49.233,36.693 49.115 C 36.478 48.856,36.444 42.387,36.657 42.256 C 36.736 42.207,36.807 41.924,36.816 41.625 C 36.843 40.742,36.947 40.114,37.153 39.596 C 37.260 39.328,37.311 39.015,37.267 38.900 C 37.223 38.785,37.297 38.599,37.432 38.487 C 37.567 38.375,37.650 38.201,37.617 38.101 C 37.584 38.001,37.771 37.555,38.034 37.109 C 38.296 36.664,38.527 36.213,38.547 36.108 C 38.567 36.003,38.624 35.879,38.675 35.833 C 38.725 35.787,39.231 35.246,39.800 34.629 C 40.368 34.013,40.833 33.553,40.833 33.607 C 40.833 33.662,41.077 33.524,41.375 33.301 C 41.673 33.078,42.160 32.798,42.458 32.678 C 42.756 32.558,43.000 32.381,43.000 32.285 C 43.000 32.190,43.044 32.155,43.098 32.210 C 43.153 32.264,43.483 32.207,43.833 32.083 C 44.183 31.960,44.512 31.901,44.564 31.953 C 44.616 32.005,44.754 31.971,44.871 31.879 C 45.095 31.700,47.891 31.722,48.750 31.909 C 49.025 31.969,49.344 32.026,49.458 32.037 C 49.573 32.047,49.667 32.109,49.667 32.174 C 49.667 32.302,50.582 32.720,50.758 32.673 C 50.816 32.657,50.967 32.781,51.093 32.947 C 51.219 33.114,51.325 33.203,51.328 33.146 C 51.331 33.090,51.691 33.390,52.128 33.813 C 52.566 34.237,52.899 34.640,52.868 34.710 C 52.837 34.779,52.929 34.881,53.072 34.935 C 53.215 34.990,53.297 35.091,53.255 35.159 C 53.213 35.227,53.321 35.436,53.496 35.624 C 53.670 35.811,53.768 36.010,53.712 36.066 C 53.657 36.121,53.686 36.167,53.778 36.167 C 53.869 36.167,53.950 36.260,53.957 36.375 C 54.014 37.294,55.285 39.659,55.569 39.375 C 55.623 39.322,55.667 39.365,55.667 39.472 C 55.667 39.716,57.269 39.739,57.418 39.497 C 57.476 39.404,57.593 39.371,57.678 39.424 C 57.764 39.477,57.918 39.467,58.022 39.403 C 58.211 39.286,59.118 39.189,60.112 39.180 C 60.403 39.178,60.687 39.102,60.743 39.012 C 60.798 38.922,60.955 38.891,61.091 38.943 C 61.227 38.995,61.437 38.955,61.559 38.853 C 61.681 38.752,61.823 38.712,61.875 38.764 C 62.026 38.915,63.021 38.335,62.912 38.160 C 62.858 38.072,62.880 38.000,62.960 38.000 C 63.187 38.000,63.205 36.451,62.984 35.904 C 62.877 35.636,62.765 35.236,62.736 35.015 C 62.707 34.794,62.586 34.552,62.467 34.476 C 62.348 34.400,62.315 34.337,62.395 34.336 C 62.475 34.334,62.457 34.233,62.355 34.110 C 62.253 33.987,62.219 33.837,62.279 33.776 C 62.340 33.716,62.289 33.667,62.167 33.667 C 62.044 33.667,61.991 33.620,62.049 33.562 C 62.106 33.505,62.029 33.223,61.877 32.937 C 61.726 32.651,61.588 32.342,61.571 32.250 C 61.510 31.919,60.797 30.833,60.640 30.833 C 60.552 30.833,60.530 30.754,60.590 30.656 C 60.650 30.559,60.373 30.169,59.975 29.790 C 59.576 29.411,59.247 29.022,59.242 28.925 C 59.238 28.829,59.145 28.769,59.034 28.792 C 58.924 28.815,58.833 28.734,58.833 28.612 C 58.833 28.491,58.634 28.210,58.390 27.987 C 58.146 27.765,58.007 27.689,58.082 27.817 C 58.157 27.946,57.904 27.737,57.520 27.353 C 57.135 26.969,56.749 26.699,56.661 26.754 C 56.572 26.808,56.500 26.781,56.500 26.692 C 56.500 26.466,54.687 25.468,54.493 25.588 C 54.405 25.642,54.333 25.614,54.333 25.525 C 54.333 25.329,51.848 24.471,51.644 24.597 C 51.565 24.646,51.500 24.598,51.500 24.490 C 51.500 24.371,51.336 24.326,51.079 24.375 C 50.848 24.419,50.615 24.385,50.562 24.300 C 50.510 24.214,50.361 24.184,50.233 24.233 C 50.105 24.283,50.000 24.255,50.000 24.172 C 50.000 24.087,48.549 24.021,46.667 24.022 C 44.583 24.023,43.333 24.085,43.333 24.188 M81.166 24.126 C 81.165 24.194,80.851 24.268,80.468 24.290 C 80.085 24.312,79.729 24.387,79.677 24.457 C 79.626 24.526,79.358 24.607,79.083 24.637 C 78.808 24.666,78.558 24.760,78.527 24.846 C 78.497 24.932,78.412 24.965,78.340 24.921 C 78.156 24.807,76.667 25.332,76.667 25.510 C 76.667 25.591,76.564 25.617,76.438 25.569 C 76.312 25.520,76.096 25.594,75.958 25.732 C 75.820 25.871,75.660 25.938,75.603 25.881 C 75.546 25.824,75.500 25.870,75.500 25.982 C 75.500 26.094,75.425 26.140,75.333 26.083 C 75.242 26.027,75.167 26.064,75.167 26.167 C 75.167 26.269,75.092 26.307,75.000 26.250 C 74.908 26.193,74.833 26.231,74.833 26.333 C 74.833 26.436,74.759 26.474,74.668 26.418 C 74.577 26.361,74.319 26.499,74.095 26.723 C 73.870 26.948,73.645 27.089,73.593 27.038 C 73.542 26.986,73.500 27.036,73.500 27.149 C 73.500 27.261,73.424 27.306,73.332 27.249 C 73.240 27.192,73.119 27.262,73.065 27.405 C 73.010 27.548,72.904 27.627,72.829 27.581 C 72.754 27.535,72.547 27.682,72.369 27.909 C 72.190 28.136,72.013 28.291,71.975 28.253 C 71.937 28.215,71.316 28.780,70.595 29.509 C 69.874 30.237,69.350 30.833,69.429 30.833 C 69.509 30.833,69.406 30.951,69.201 31.095 C 68.996 31.239,68.866 31.418,68.913 31.494 C 68.960 31.570,68.881 31.677,68.738 31.731 C 68.596 31.786,68.526 31.907,68.583 31.999 C 68.640 32.091,68.619 32.167,68.537 32.167 C 68.376 32.167,67.923 33.001,67.971 33.208 C 67.987 33.277,67.942 33.333,67.871 33.333 C 67.728 33.333,67.205 34.276,67.131 34.667 C 67.105 34.804,67.023 34.961,66.950 35.015 C 66.877 35.069,66.804 35.275,66.790 35.473 C 66.775 35.671,66.699 35.833,66.621 35.833 C 66.544 35.833,66.527 35.908,66.583 36.000 C 66.640 36.092,66.599 36.167,66.492 36.167 C 66.385 36.167,66.337 36.270,66.386 36.396 C 66.434 36.523,66.403 36.697,66.316 36.784 C 66.172 36.928,65.982 37.825,65.944 38.542 C 65.936 38.702,65.862 38.833,65.780 38.833 C 65.698 38.833,65.673 38.943,65.725 39.078 C 65.777 39.213,65.754 39.363,65.674 39.412 C 65.595 39.461,65.527 39.820,65.522 40.209 C 65.512 41.189,65.444 41.564,65.253 41.700 C 65.155 41.771,65.093 43.168,65.099 45.200 C 65.110 49.377,65.123 49.667,65.292 49.667 C 65.441 49.667,65.496 50.044,65.503 51.118 C 65.506 51.503,65.582 51.865,65.673 51.921 C 65.764 51.977,65.801 52.085,65.754 52.160 C 65.707 52.236,65.770 52.587,65.893 52.941 C 66.016 53.294,66.084 53.677,66.044 53.792 C 66.005 53.906,66.038 54.000,66.117 54.000 C 66.197 54.000,66.281 54.244,66.303 54.542 C 66.326 54.840,66.417 55.108,66.506 55.139 C 66.596 55.170,66.626 55.264,66.575 55.348 C 66.523 55.431,66.544 55.500,66.621 55.500 C 66.699 55.500,66.775 55.662,66.790 55.860 C 66.804 56.058,66.877 56.264,66.950 56.318 C 67.023 56.372,67.105 56.529,67.131 56.667 C 67.207 57.070,67.730 58.000,67.881 58.000 C 67.957 58.000,67.973 58.075,67.917 58.167 C 67.860 58.258,67.898 58.333,68.000 58.333 C 68.102 58.333,68.147 58.397,68.099 58.475 C 68.051 58.553,68.154 58.770,68.329 58.957 C 68.504 59.144,68.603 59.342,68.549 59.395 C 68.496 59.448,68.575 59.539,68.725 59.597 C 68.875 59.654,68.958 59.766,68.909 59.845 C 68.860 59.924,68.973 60.085,69.160 60.201 C 69.347 60.318,69.500 60.496,69.500 60.598 C 69.500 60.822,71.755 63.063,71.895 62.977 C 71.949 62.944,72.111 63.084,72.254 63.289 C 72.535 63.690,73.808 64.620,74.186 64.701 C 74.313 64.728,74.454 64.796,74.500 64.853 C 74.681 65.077,76.299 65.812,76.396 65.715 C 76.453 65.658,76.500 65.693,76.500 65.792 C 76.500 65.960,77.424 66.271,77.708 66.198 C 77.777 66.181,77.833 66.245,77.833 66.341 C 77.833 66.436,77.927 66.496,78.042 66.472 C 78.156 66.449,78.423 66.526,78.634 66.643 C 78.846 66.759,79.107 66.825,79.216 66.789 C 79.324 66.753,79.742 66.822,80.143 66.943 C 80.544 67.064,80.933 67.125,81.008 67.078 C 81.083 67.032,81.183 67.059,81.232 67.138 C 81.350 67.329,88.334 67.262,88.474 67.068 C 88.534 66.985,88.733 66.897,88.917 66.873 C 89.100 66.848,89.438 66.805,89.667 66.775 C 90.455 66.675,91.167 66.458,91.167 66.318 C 91.167 66.240,91.279 66.220,91.417 66.273 C 91.554 66.326,91.667 66.302,91.667 66.220 C 91.667 66.138,91.829 66.059,92.027 66.044 C 92.225 66.029,92.449 65.919,92.524 65.800 C 92.600 65.681,92.663 65.641,92.664 65.710 C 92.667 65.875,95.044 64.684,95.206 64.437 C 95.273 64.334,95.329 64.310,95.331 64.383 C 95.335 64.579,96.833 63.514,96.833 63.315 C 96.833 63.223,96.902 63.190,96.987 63.242 C 97.071 63.294,97.303 63.130,97.502 62.877 C 97.701 62.624,97.886 62.454,97.914 62.500 C 98.004 62.648,98.667 61.956,98.667 61.714 C 98.667 61.586,98.742 61.527,98.833 61.583 C 98.925 61.640,99.000 61.575,99.000 61.438 C 99.000 61.301,99.229 61.026,99.510 60.827 C 99.790 60.627,99.978 60.422,99.927 60.372 C 99.877 60.321,99.986 60.174,100.171 60.045 C 100.355 59.916,100.467 59.749,100.420 59.673 C 100.374 59.597,100.458 59.488,100.608 59.430 C 100.758 59.373,100.841 59.285,100.792 59.236 C 100.742 59.187,100.886 58.963,101.110 58.739 C 101.334 58.514,101.472 58.256,101.416 58.165 C 101.360 58.074,101.388 58.000,101.479 58.000 C 101.645 58.000,101.928 57.359,101.866 57.125 C 101.848 57.056,101.898 57.000,101.977 57.000 C 102.101 57.000,102.749 55.230,102.709 55.000 C 102.702 54.954,102.770 54.826,102.862 54.716 C 102.954 54.605,102.980 54.436,102.921 54.341 C 102.862 54.245,102.896 54.167,102.997 54.167 C 103.099 54.167,103.166 54.073,103.147 53.958 C 103.129 53.844,103.201 53.537,103.308 53.278 C 103.415 53.018,103.460 52.737,103.408 52.653 C 103.356 52.569,103.383 52.500,103.467 52.500 C 103.618 52.500,103.769 51.608,103.975 49.500 C 104.171 47.495,104.081 40.500,103.860 40.500 C 103.734 40.500,103.670 40.087,103.671 39.292 C 103.672 39.040,103.615 38.833,103.544 38.833 C 103.474 38.833,103.405 38.664,103.391 38.458 C 103.377 38.252,103.272 37.858,103.157 37.583 C 103.042 37.308,102.918 36.902,102.881 36.680 C 102.844 36.457,102.728 36.120,102.623 35.930 C 102.518 35.739,102.421 35.508,102.407 35.417 C 102.340 34.980,102.112 34.500,101.971 34.500 C 101.884 34.500,101.860 34.425,101.917 34.333 C 101.973 34.242,101.936 34.167,101.833 34.167 C 101.731 34.167,101.693 34.092,101.750 34.000 C 101.807 33.908,101.769 33.833,101.667 33.833 C 101.564 33.833,101.527 33.758,101.583 33.667 C 101.640 33.575,101.607 33.500,101.510 33.500 C 101.413 33.500,101.349 33.444,101.368 33.375 C 101.426 33.164,100.835 32.167,100.653 32.167 C 100.558 32.167,100.523 32.098,100.575 32.013 C 100.627 31.929,100.482 31.712,100.252 31.531 C 100.022 31.350,99.833 31.119,99.833 31.018 C 99.833 30.916,99.758 30.833,99.667 30.833 C 99.575 30.833,99.519 30.774,99.542 30.700 C 99.604 30.502,98.720 29.500,98.483 29.500 C 98.370 29.500,98.323 29.455,98.379 29.399 C 98.520 29.257,96.655 27.654,96.477 27.764 C 96.397 27.814,96.287 27.739,96.232 27.597 C 96.126 27.320,94.997 26.559,94.792 26.626 C 94.723 26.648,94.667 26.588,94.667 26.491 C 94.667 26.325,93.802 25.939,93.565 26.000 C 93.504 26.016,93.407 25.953,93.350 25.861 C 93.202 25.621,91.505 24.977,91.321 25.091 C 91.236 25.143,91.167 25.117,91.167 25.032 C 91.167 24.851,89.182 24.263,89.042 24.402 C 88.990 24.454,88.835 24.404,88.698 24.290 C 88.421 24.060,81.167 23.902,81.166 24.126 M125.908 24.180 C 125.854 24.267,125.750 24.301,125.676 24.256 C 125.495 24.144,123.777 24.661,123.648 24.866 C 123.592 24.955,123.497 25.016,123.437 25.002 C 123.176 24.937,122.333 25.208,122.333 25.356 C 122.333 25.446,122.258 25.473,122.167 25.417 C 122.075 25.360,122.000 25.398,122.000 25.500 C 122.000 25.602,121.925 25.640,121.833 25.583 C 121.742 25.527,121.667 25.564,121.667 25.667 C 121.667 25.769,121.594 25.808,121.506 25.754 C 121.418 25.699,121.205 25.788,121.034 25.952 C 120.862 26.116,120.616 26.272,120.486 26.299 C 120.356 26.326,120.128 26.491,119.979 26.667 C 119.830 26.842,119.663 26.941,119.608 26.886 C 119.553 26.831,119.461 26.908,119.403 27.059 C 119.346 27.209,119.239 27.295,119.166 27.250 C 119.093 27.205,118.801 27.433,118.517 27.756 L 118.000 28.345 118.000 27.089 C 118.000 26.316,117.932 25.833,117.823 25.833 C 117.726 25.833,117.691 25.762,117.745 25.675 C 118.309 24.762,111.263 24.570,110.359 25.474 C 110.162 25.672,110.053 25.833,110.117 25.833 C 110.181 25.833,110.143 25.923,110.033 26.033 C 109.806 26.261,109.732 64.843,109.958 65.069 C 110.086 65.197,110.109 65.285,110.146 65.778 C 110.157 65.931,110.216 66.007,110.275 65.947 C 110.335 65.887,110.479 65.969,110.595 66.128 C 110.898 66.542,117.669 66.569,118.081 66.157 C 118.641 65.597,118.640 65.619,118.741 51.417 C 118.781 45.642,118.854 40.617,118.902 40.250 C 119.024 39.308,119.137 38.597,119.181 38.500 C 119.201 38.454,119.232 38.342,119.249 38.250 C 119.267 38.158,119.368 37.872,119.474 37.614 C 119.580 37.356,119.667 37.077,119.667 36.994 C 119.667 36.911,119.815 36.579,119.997 36.255 C 120.179 35.931,120.288 35.667,120.241 35.667 C 120.052 35.667,122.606 32.938,122.833 32.897 C 123.268 32.819,123.667 32.610,123.667 32.461 C 123.667 32.360,123.710 32.321,123.764 32.375 C 123.817 32.428,124.135 32.357,124.471 32.217 C 125.527 31.776,128.552 31.537,128.951 31.864 C 129.062 31.955,129.225 31.984,129.315 31.928 C 129.404 31.873,129.527 31.909,129.589 32.009 C 129.650 32.108,129.805 32.149,129.934 32.100 C 130.062 32.051,130.167 32.096,130.167 32.200 C 130.167 32.304,130.213 32.342,130.270 32.285 C 130.449 32.106,131.988 33.693,132.282 34.361 C 132.437 34.713,132.612 35.000,132.671 35.000 C 132.730 35.000,132.786 35.094,132.795 35.208 C 132.839 35.732,133.016 36.725,133.086 36.838 C 133.129 36.906,133.166 43.386,133.169 51.238 C 133.173 63.653,133.206 65.525,133.419 65.607 C 133.554 65.659,133.628 65.761,133.584 65.833 C 133.185 66.477,139.856 66.843,141.267 66.253 C 141.592 66.118,141.810 65.930,141.752 65.837 C 141.694 65.743,141.739 65.667,141.851 65.667 C 141.964 65.667,142.006 65.617,141.946 65.557 C 141.886 65.497,141.909 65.359,141.999 65.252 C 142.101 65.129,142.164 60.282,142.170 52.201 C 142.175 45.131,142.243 39.306,142.323 39.257 C 142.402 39.208,142.467 38.914,142.467 38.604 C 142.467 38.294,142.541 37.900,142.633 37.729 C 142.724 37.557,142.826 37.229,142.858 37.000 C 142.890 36.771,143.011 36.484,143.127 36.362 C 143.242 36.240,143.294 36.071,143.242 35.987 C 143.190 35.902,143.239 35.833,143.351 35.833 C 143.464 35.833,143.512 35.789,143.458 35.736 C 143.404 35.682,143.501 35.476,143.674 35.277 C 143.847 35.079,143.978 34.879,143.966 34.833 C 143.933 34.708,145.069 33.564,145.180 33.611 C 145.233 33.633,145.516 33.432,145.809 33.164 C 146.103 32.896,146.359 32.686,146.380 32.696 C 146.522 32.771,147.167 32.442,147.167 32.294 C 147.167 32.194,147.212 32.156,147.267 32.212 C 147.322 32.267,147.566 32.235,147.809 32.140 C 148.661 31.808,152.167 31.580,152.167 31.857 C 152.167 31.936,152.298 32.002,152.458 32.004 C 153.100 32.012,155.984 33.816,155.391 33.839 C 155.313 33.842,155.386 33.947,155.553 34.073 C 155.719 34.200,155.846 34.349,155.834 34.405 C 155.821 34.461,155.929 34.910,156.072 35.404 C 156.300 36.187,156.333 38.107,156.333 50.484 C 156.333 58.851,156.395 64.667,156.484 64.667 C 156.567 64.667,156.599 64.804,156.555 64.973 C 156.455 65.357,157.291 66.385,157.606 66.264 C 157.731 66.216,157.833 66.250,157.833 66.339 C 157.833 66.618,163.740 66.544,164.428 66.256 C 165.543 65.790,165.500 66.423,165.500 50.616 C 165.500 42.791,165.449 36.338,165.388 36.277 C 165.326 36.215,165.257 35.996,165.234 35.790 C 164.992 33.598,164.680 32.210,164.132 30.875 C 163.934 30.394,163.706 30.000,163.626 30.000 C 163.546 30.000,163.527 29.925,163.583 29.833 C 163.640 29.742,163.594 29.667,163.482 29.667 C 163.370 29.667,163.325 29.620,163.382 29.562 C 163.538 29.407,162.645 28.196,161.681 27.256 C 161.215 26.801,160.833 26.479,160.833 26.540 C 160.833 26.601,160.636 26.468,160.396 26.245 C 160.155 26.022,159.892 25.880,159.812 25.930 C 159.732 25.979,159.667 25.942,159.667 25.847 C 159.667 25.626,158.704 25.124,158.509 25.244 C 158.428 25.294,158.337 25.267,158.306 25.183 C 158.275 25.099,158.100 25.005,157.917 24.974 C 157.733 24.942,157.543 24.862,157.493 24.796 C 157.443 24.729,157.218 24.654,156.993 24.629 C 156.768 24.604,156.539 24.523,156.484 24.448 C 156.429 24.374,156.111 24.299,155.776 24.282 C 155.442 24.264,155.168 24.196,155.167 24.131 C 155.167 23.984,149.650 23.991,149.417 24.137 C 149.325 24.194,149.175 24.246,149.083 24.251 C 148.547 24.282,147.500 24.548,147.500 24.654 C 147.500 24.722,147.390 24.778,147.257 24.778 C 146.868 24.778,144.833 25.688,144.833 25.862 C 144.833 25.949,144.761 25.975,144.673 25.920 C 144.584 25.866,144.359 25.974,144.173 26.161 C 143.986 26.347,143.833 26.459,143.833 26.408 C 143.833 26.221,142.547 27.263,141.388 28.389 C 140.315 29.430,140.166 29.523,139.937 29.295 C 139.797 29.154,139.727 28.995,139.782 28.940 C 139.836 28.886,139.758 28.794,139.608 28.736 C 139.458 28.679,139.370 28.575,139.413 28.506 C 139.509 28.350,137.024 25.920,136.897 26.047 C 136.847 26.098,136.659 25.992,136.480 25.813 C 136.301 25.634,136.082 25.533,135.994 25.587 C 135.906 25.642,135.833 25.602,135.833 25.500 C 135.833 25.398,135.758 25.360,135.667 25.417 C 135.575 25.473,135.500 25.440,135.500 25.343 C 135.500 25.246,135.444 25.178,135.375 25.193 C 135.306 25.207,134.988 25.101,134.668 24.958 C 134.348 24.814,134.030 24.732,133.960 24.775 C 133.890 24.818,133.833 24.766,133.833 24.659 C 133.833 24.552,133.721 24.508,133.583 24.560 C 133.446 24.613,133.333 24.599,133.333 24.529 C 133.333 24.093,126.170 23.756,125.908 24.180 M226.076 24.179 C 226.021 24.267,225.916 24.301,225.841 24.255 C 225.690 24.161,223.534 24.688,222.750 25.009 C 222.475 25.122,222.137 25.230,222.000 25.250 C 221.515 25.320,220.333 25.872,220.333 26.028 C 220.333 26.115,220.258 26.140,220.167 26.083 C 220.075 26.027,220.000 26.064,220.000 26.167 C 220.000 26.269,219.925 26.307,219.833 26.250 C 219.742 26.193,219.667 26.231,219.667 26.333 C 219.667 26.436,219.595 26.475,219.507 26.421 C 219.420 26.367,219.224 26.512,219.072 26.743 C 218.921 26.975,218.730 27.122,218.647 27.071 C 218.565 27.020,218.453 27.096,218.398 27.238 C 218.343 27.381,218.241 27.463,218.172 27.420 C 217.952 27.284,215.966 29.475,216.099 29.706 C 216.165 29.822,216.157 29.860,216.081 29.790 C 215.919 29.643,215.312 30.497,215.436 30.698 C 215.482 30.772,215.436 30.833,215.333 30.833 C 215.231 30.833,215.193 30.908,215.250 31.000 C 215.307 31.092,215.279 31.167,215.189 31.167 C 215.027 31.167,214.567 32.302,214.633 32.542 C 214.651 32.610,214.596 32.667,214.510 32.667 C 214.424 32.667,214.351 32.798,214.347 32.958 C 214.336 33.447,214.241 33.912,214.107 34.128 C 214.037 34.241,214.023 34.403,214.076 34.488 C 214.129 34.574,214.104 34.686,214.021 34.737 C 213.894 34.815,213.874 37.907,213.999 38.167 C 214.021 38.212,214.056 38.325,214.077 38.417 C 214.098 38.508,214.133 38.621,214.154 38.667 C 214.239 38.853,214.347 39.439,214.360 39.792 C 214.368 39.998,214.425 40.167,214.485 40.167 C 214.546 40.167,214.608 40.334,214.624 40.539 C 214.639 40.744,214.731 40.938,214.827 40.970 C 214.923 41.002,214.960 41.097,214.908 41.181 C 214.856 41.265,214.898 41.333,215.000 41.333 C 215.102 41.333,215.144 41.402,215.092 41.487 C 215.040 41.571,215.091 41.741,215.207 41.866 C 215.322 41.990,215.439 42.202,215.465 42.337 C 215.492 42.473,215.658 42.705,215.833 42.854 C 216.009 43.003,216.115 43.162,216.070 43.208 C 216.025 43.253,216.526 43.789,217.185 44.399 C 217.843 45.008,218.415 45.474,218.455 45.434 C 218.495 45.394,218.674 45.508,218.853 45.687 C 219.032 45.866,219.251 45.967,219.339 45.913 C 219.428 45.858,219.500 45.898,219.500 46.001 C 219.500 46.204,221.521 47.176,222.023 47.214 C 222.194 47.227,222.333 47.305,222.333 47.387 C 222.333 47.469,222.441 47.494,222.573 47.444 C 222.704 47.393,222.835 47.422,222.864 47.508 C 222.893 47.594,223.123 47.681,223.375 47.702 C 223.627 47.722,223.833 47.801,223.833 47.877 C 223.833 47.953,223.927 47.999,224.042 47.981 C 224.156 47.962,224.475 48.039,224.750 48.152 C 225.198 48.337,225.877 48.490,226.458 48.538 C 226.573 48.548,226.667 48.613,226.667 48.684 C 226.667 48.755,226.798 48.813,226.958 48.812 C 227.468 48.812,227.913 48.912,228.015 49.050 C 228.069 49.124,228.297 49.203,228.522 49.227 C 228.747 49.251,229.021 49.327,229.132 49.395 C 229.243 49.464,229.408 49.473,229.500 49.417 C 229.592 49.360,229.667 49.381,229.667 49.464 C 229.667 49.546,230.098 49.706,230.625 49.818 C 231.152 49.930,231.921 50.129,232.333 50.260 C 232.746 50.391,233.290 50.515,233.542 50.535 C 233.794 50.556,234.000 50.638,234.000 50.717 C 234.000 50.796,234.092 50.831,234.204 50.793 C 234.316 50.756,234.592 50.821,234.817 50.937 C 235.042 51.054,235.288 51.112,235.363 51.065 C 235.438 51.018,235.500 51.068,235.500 51.175 C 235.500 51.282,235.612 51.326,235.750 51.273 C 235.887 51.220,236.000 51.242,236.000 51.320 C 236.000 51.399,236.183 51.510,236.408 51.566 C 236.880 51.685,238.362 52.916,238.212 53.066 C 238.157 53.121,238.203 53.167,238.315 53.167 C 238.428 53.167,238.477 53.236,238.424 53.322 C 238.371 53.407,238.399 53.521,238.485 53.574 C 238.572 53.628,238.613 54.027,238.577 54.461 C 238.474 55.684,238.414 55.952,238.178 56.236 C 238.058 56.381,238.014 56.500,238.081 56.500 C 238.149 56.500,238.027 56.648,237.810 56.828 C 237.594 57.008,237.483 57.158,237.565 57.161 C 237.785 57.169,236.342 58.279,235.667 58.621 C 235.346 58.784,235.060 58.969,235.031 59.032 C 235.002 59.096,234.878 59.110,234.756 59.063 C 234.634 59.016,234.490 59.047,234.438 59.133 C 234.385 59.219,234.152 59.252,233.921 59.208 C 233.689 59.164,233.500 59.195,233.500 59.278 C 233.500 59.464,233.348 59.475,230.667 59.475 C 228.000 59.475,227.833 59.464,227.833 59.286 C 227.833 59.207,227.665 59.160,227.458 59.180 C 227.252 59.200,226.858 59.125,226.583 59.013 C 226.308 58.900,225.952 58.798,225.792 58.785 C 225.631 58.773,225.500 58.720,225.500 58.667 C 225.500 58.615,225.275 58.439,225.000 58.277 C 224.725 58.114,224.500 58.013,224.500 58.052 C 224.500 58.092,224.142 57.777,223.705 57.354 C 223.268 56.930,222.935 56.527,222.965 56.457 C 222.996 56.388,222.904 56.286,222.762 56.231 C 222.619 56.177,222.536 56.077,222.577 56.010 C 222.618 55.944,222.452 55.595,222.208 55.236 C 221.964 54.877,221.780 54.565,221.799 54.542 C 221.818 54.519,221.828 54.481,221.821 54.458 C 221.721 54.134,221.643 53.692,221.644 53.462 C 221.645 53.303,221.574 53.129,221.487 53.075 C 221.399 53.021,221.371 52.907,221.424 52.822 C 221.477 52.736,221.436 52.667,221.333 52.667 C 221.231 52.667,221.187 52.602,221.236 52.522 C 221.363 52.317,220.724 51.778,220.511 51.910 C 220.413 51.970,220.333 51.930,220.333 51.820 C 220.333 51.585,218.221 51.747,217.909 52.007 C 217.804 52.093,217.686 52.130,217.645 52.090 C 217.604 52.049,217.086 52.092,216.494 52.185 C 215.901 52.278,215.304 52.354,215.167 52.352 C 214.728 52.349,213.667 52.715,213.667 52.870 C 213.667 52.952,213.602 52.980,213.522 52.930 C 212.996 52.605,212.631 54.768,213.087 55.507 C 213.165 55.632,213.253 55.960,213.283 56.234 C 213.313 56.509,213.393 56.774,213.461 56.825 C 213.528 56.875,213.609 57.065,213.641 57.246 C 213.673 57.428,213.856 57.878,214.048 58.246 C 214.240 58.615,214.415 59.022,214.438 59.150 C 214.460 59.278,214.564 59.437,214.670 59.502 C 214.775 59.567,214.854 59.669,214.844 59.729 C 214.810 59.939,215.344 60.833,215.504 60.833 C 215.594 60.833,215.648 60.914,215.625 61.014 C 215.570 61.254,217.356 63.305,217.635 63.321 C 217.755 63.328,217.816 63.393,217.771 63.465 C 217.692 63.594,219.167 64.694,219.333 64.630 C 219.379 64.613,219.579 64.737,219.777 64.907 C 220.226 65.292,222.269 66.175,222.402 66.042 C 222.456 65.988,222.500 66.040,222.500 66.157 C 222.500 66.277,222.608 66.327,222.750 66.273 C 222.887 66.220,223.000 66.238,223.000 66.312 C 223.000 66.445,223.617 66.602,225.917 67.058 C 227.455 67.363,234.073 67.319,235.167 66.997 C 235.579 66.876,236.048 66.794,236.208 66.815 C 236.369 66.837,236.500 66.777,236.500 66.682 C 236.500 66.588,236.612 66.554,236.750 66.606 C 236.887 66.659,237.000 66.638,237.000 66.559 C 237.000 66.481,237.197 66.405,237.439 66.391 C 237.680 66.377,237.932 66.277,237.999 66.169 C 238.066 66.060,238.170 65.984,238.230 65.998 C 238.507 66.067,239.333 65.787,239.333 65.626 C 239.333 65.526,239.382 65.493,239.441 65.552 C 239.603 65.714,241.800 64.509,242.436 63.909 C 242.743 63.620,243.019 63.408,243.049 63.438 C 243.079 63.468,243.471 63.119,243.920 62.663 C 244.370 62.207,244.667 61.833,244.582 61.833 C 244.496 61.833,244.594 61.716,244.799 61.572 C 245.004 61.428,245.129 61.241,245.076 61.155 C 245.024 61.070,245.051 61.000,245.137 61.000 C 245.589 61.000,247.515 56.763,247.255 56.342 C 247.205 56.261,247.256 56.165,247.367 56.128 C 247.624 56.042,247.733 51.833,247.479 51.833 C 247.388 51.833,247.352 51.771,247.399 51.696 C 247.634 51.315,246.346 47.833,245.971 47.833 C 245.884 47.833,245.859 47.760,245.914 47.671 C 245.969 47.581,245.655 47.157,245.216 46.729 C 244.776 46.300,244.529 46.011,244.667 46.087 C 244.827 46.175,244.803 46.094,244.599 45.862 C 244.249 45.463,244.078 45.383,244.270 45.708 C 244.337 45.823,244.073 45.592,243.683 45.194 C 243.292 44.797,242.935 44.509,242.889 44.555 C 242.843 44.601,242.659 44.492,242.480 44.313 C 242.301 44.134,242.082 44.033,241.994 44.087 C 241.906 44.142,241.833 44.102,241.833 44.000 C 241.833 43.898,241.758 43.860,241.667 43.917 C 241.575 43.973,241.500 43.936,241.500 43.833 C 241.500 43.731,241.425 43.693,241.333 43.750 C 241.242 43.807,241.167 43.769,241.167 43.667 C 241.167 43.564,241.092 43.527,241.000 43.583 C 240.908 43.640,240.833 43.610,240.833 43.517 C 240.833 43.423,240.345 43.196,239.748 43.012 C 239.151 42.827,238.522 42.601,238.350 42.509 C 238.178 42.417,237.804 42.324,237.519 42.302 C 237.233 42.280,237.000 42.218,237.000 42.163 C 237.000 42.069,235.445 41.597,235.083 41.582 C 234.992 41.578,234.823 41.516,234.708 41.444 C 234.594 41.372,234.431 41.356,234.348 41.408 C 234.264 41.460,234.170 41.429,234.139 41.339 C 234.108 41.250,233.896 41.156,233.667 41.130 C 233.438 41.104,233.212 41.033,233.165 40.971 C 233.118 40.909,232.855 40.834,232.581 40.804 C 232.307 40.774,232.040 40.691,231.987 40.620 C 231.934 40.548,231.632 40.466,231.317 40.438 C 231.002 40.409,230.595 40.307,230.413 40.209 C 230.231 40.112,229.820 40.006,229.500 39.975 C 229.179 39.943,228.870 39.852,228.813 39.774 C 228.755 39.695,228.493 39.611,228.229 39.586 C 227.966 39.561,227.537 39.456,227.278 39.352 C 227.018 39.249,226.742 39.204,226.664 39.252 C 226.587 39.300,226.473 39.257,226.411 39.158 C 226.350 39.059,226.195 39.018,226.066 39.067 C 225.938 39.116,225.833 39.084,225.833 38.995 C 225.833 38.906,225.739 38.833,225.624 38.833 C 225.508 38.833,225.058 38.644,224.624 38.413 C 224.189 38.181,223.833 38.025,223.833 38.066 C 223.833 38.389,222.648 36.859,222.598 36.472 C 222.590 36.411,222.527 36.305,222.458 36.236 C 222.283 36.061,222.302 35.266,222.486 35.075 C 222.570 34.988,222.664 34.771,222.694 34.592 C 222.768 34.159,224.338 32.742,225.124 32.398 C 225.719 32.137,225.912 32.089,227.083 31.911 C 228.553 31.687,230.863 31.640,231.608 31.819 C 232.055 31.927,232.608 32.035,232.836 32.060 C 233.064 32.085,233.419 32.197,233.625 32.309 C 233.831 32.420,234.000 32.472,234.000 32.424 C 234.000 32.376,234.131 32.449,234.292 32.586 C 234.452 32.724,234.633 32.817,234.693 32.793 C 234.754 32.769,234.966 32.957,235.165 33.210 C 235.364 33.463,235.607 33.620,235.706 33.559 C 235.807 33.496,235.837 33.526,235.774 33.628 C 235.713 33.726,235.862 33.963,236.104 34.153 C 236.347 34.344,236.479 34.502,236.397 34.505 C 236.316 34.508,236.362 34.602,236.500 34.714 C 236.637 34.825,236.776 35.067,236.808 35.250 C 236.840 35.433,236.941 35.629,237.031 35.685 C 237.121 35.741,237.176 35.816,237.153 35.852 C 237.046 36.016,237.356 37.333,237.502 37.333 C 237.593 37.333,237.648 37.427,237.625 37.542 C 237.602 37.656,237.677 37.731,237.792 37.708 C 237.906 37.685,238.000 37.742,238.000 37.833 C 238.000 37.925,238.056 37.988,238.125 37.974 C 238.194 37.959,238.385 38.006,238.549 38.078 C 238.714 38.150,239.202 38.161,239.633 38.104 C 240.064 38.046,240.642 37.970,240.917 37.935 C 241.192 37.899,241.754 37.822,242.167 37.763 C 242.579 37.703,243.230 37.628,243.614 37.594 C 243.997 37.561,244.408 37.474,244.527 37.400 C 244.647 37.326,244.889 37.255,245.066 37.242 C 245.515 37.209,246.000 36.556,246.000 35.984 C 246.000 35.181,245.211 32.167,245.001 32.167 C 244.948 32.167,244.892 32.005,244.877 31.807 C 244.862 31.609,244.753 31.385,244.633 31.309 C 244.514 31.234,244.480 31.171,244.558 31.169 C 244.845 31.164,243.243 28.695,242.940 28.676 C 242.861 28.671,242.374 28.229,241.857 27.694 C 241.038 26.846,239.305 25.779,238.439 25.590 C 238.335 25.568,237.965 25.423,237.618 25.269 C 237.270 25.115,236.914 25.034,236.826 25.088 C 236.738 25.142,236.667 25.104,236.667 25.003 C 236.667 24.901,236.573 24.834,236.458 24.853 C 236.344 24.871,236.037 24.799,235.778 24.692 C 235.518 24.585,235.237 24.540,235.153 24.592 C 235.069 24.644,235.000 24.602,235.000 24.498 C 235.000 24.394,234.831 24.331,234.625 24.358 C 234.419 24.385,234.153 24.346,234.034 24.272 C 233.915 24.198,233.708 24.179,233.575 24.230 C 233.442 24.281,233.333 24.257,233.333 24.176 C 233.333 23.973,226.201 23.977,226.076 24.179 M174.588 24.993 C 174.534 25.080,174.387 25.113,174.262 25.065 C 174.136 25.017,173.983 25.059,173.922 25.158 C 173.861 25.257,173.746 25.299,173.667 25.250 C 173.488 25.140,172.982 25.835,173.100 26.027 C 173.148 26.104,173.107 26.167,173.010 26.167 C 172.813 26.167,172.748 53.692,172.944 53.889 C 173.005 53.950,173.083 54.206,173.117 54.458 C 173.151 54.710,173.215 55.142,173.260 55.417 C 173.304 55.692,173.364 56.104,173.394 56.333 C 173.424 56.563,173.465 56.788,173.485 56.833 C 173.506 56.879,173.556 57.175,173.597 57.492 C 173.638 57.808,173.726 58.108,173.794 58.158 C 173.925 58.256,174.008 58.536,174.074 59.099 C 174.128 59.561,175.030 61.333,175.211 61.333 C 175.289 61.333,175.312 61.399,175.263 61.479 C 175.070 61.792,177.868 64.854,178.118 64.604 C 178.160 64.562,178.341 64.674,178.520 64.853 C 178.699 65.032,178.918 65.134,179.006 65.080 C 179.094 65.025,179.167 65.064,179.167 65.167 C 179.167 65.269,179.242 65.307,179.333 65.250 C 179.425 65.193,179.500 65.221,179.500 65.312 C 179.500 65.478,180.141 65.762,180.375 65.700 C 180.444 65.682,180.500 65.746,180.500 65.843 C 180.500 65.940,180.575 65.973,180.667 65.917 C 180.758 65.860,180.833 65.898,180.833 66.000 C 180.833 66.102,180.908 66.140,181.000 66.083 C 181.092 66.027,181.167 66.048,181.167 66.130 C 181.167 66.279,182.352 66.728,182.833 66.762 C 182.971 66.772,183.421 66.877,183.833 66.997 C 184.659 67.236,190.297 67.361,190.431 67.143 C 190.475 67.072,190.621 67.057,190.755 67.108 C 190.890 67.160,191.000 67.138,191.000 67.059 C 191.001 66.981,191.282 66.898,191.625 66.874 C 192.289 66.829,194.833 65.878,194.833 65.676 C 194.833 65.610,194.939 65.556,195.067 65.556 C 195.379 65.556,197.000 64.508,197.000 64.306 C 197.000 64.219,197.069 64.190,197.153 64.242 C 197.238 64.294,197.469 64.130,197.668 63.877 C 197.867 63.624,198.055 63.454,198.085 63.500 C 198.115 63.546,198.333 63.402,198.570 63.179 L 199.000 62.775 199.000 63.961 C 199.000 64.613,199.076 65.194,199.169 65.252 C 199.263 65.309,199.296 65.426,199.243 65.512 C 199.190 65.597,199.226 65.667,199.323 65.667 C 199.421 65.667,199.481 65.760,199.458 65.875 C 199.435 65.990,199.510 66.065,199.625 66.042 C 199.740 66.019,199.833 66.079,199.833 66.177 C 199.833 66.274,199.903 66.310,199.988 66.257 C 200.074 66.204,200.191 66.237,200.248 66.331 C 200.389 66.559,205.611 66.559,205.752 66.331 C 205.809 66.237,205.927 66.205,206.013 66.258 C 206.100 66.312,206.394 66.131,206.668 65.858 L 207.165 65.360 207.124 45.500 C 207.085 26.216,207.074 25.633,206.767 25.409 C 206.593 25.281,206.393 25.213,206.323 25.256 C 206.253 25.300,206.164 25.241,206.125 25.126 C 206.046 24.886,200.543 24.706,200.039 24.926 C 199.880 24.996,199.686 25.038,199.607 25.021 C 199.529 25.003,199.360 25.075,199.232 25.181 C 199.105 25.287,199.000 25.316,199.000 25.245 C 199.000 25.002,198.356 25.696,198.325 25.974 C 198.307 26.126,198.246 31.912,198.187 38.833 C 198.129 45.754,198.028 51.529,197.961 51.667 C 197.895 51.804,197.814 52.179,197.780 52.500 C 197.747 52.821,197.595 53.374,197.443 53.729 C 197.291 54.084,197.164 54.459,197.161 54.562 C 197.158 54.665,197.048 54.892,196.917 55.066 C 196.785 55.240,196.712 55.439,196.754 55.507 C 196.797 55.576,196.715 55.677,196.572 55.731 C 196.429 55.786,196.359 55.907,196.416 55.999 C 196.473 56.091,196.444 56.167,196.352 56.167 C 196.260 56.167,196.082 56.373,195.956 56.625 C 195.831 56.877,195.643 57.066,195.540 57.045 C 195.437 57.024,195.191 57.211,194.994 57.462 C 194.798 57.712,194.625 57.891,194.610 57.859 C 194.561 57.753,193.502 58.414,193.501 58.552 C 193.500 58.626,193.425 58.640,193.333 58.583 C 193.242 58.527,193.167 58.544,193.167 58.621 C 193.167 58.699,193.005 58.775,192.807 58.790 C 192.609 58.804,192.402 58.877,192.348 58.950 C 192.294 59.023,192.063 59.103,191.833 59.127 C 191.604 59.151,191.304 59.218,191.167 59.275 C 190.534 59.540,187.565 59.593,186.947 59.351 C 186.689 59.249,186.417 59.167,186.343 59.167 C 186.268 59.167,185.954 59.061,185.645 58.932 C 185.336 58.803,185.008 58.679,184.917 58.657 C 184.825 58.635,184.659 58.496,184.547 58.350 C 184.435 58.203,184.342 58.135,184.339 58.198 C 184.336 58.261,184.123 58.111,183.867 57.864 C 183.610 57.618,183.421 57.370,183.447 57.313 C 183.473 57.255,183.326 57.025,183.122 56.800 C 182.917 56.576,182.726 56.257,182.696 56.091 C 182.667 55.926,182.561 55.594,182.462 55.354 C 182.363 55.113,182.267 54.842,182.249 54.750 C 182.232 54.658,182.201 54.546,182.181 54.500 C 182.029 54.158,181.994 51.809,181.958 39.681 C 181.925 28.833,181.873 25.930,181.707 25.875 C 181.592 25.836,181.538 25.739,181.588 25.660 C 181.699 25.480,180.714 24.951,180.507 25.079 C 180.424 25.130,180.309 25.096,180.252 25.003 C 180.116 24.783,174.723 24.773,174.588 24.993 M86.115 31.819 C 86.475 31.916,86.991 32.021,87.260 32.051 C 87.530 32.081,87.919 32.198,88.125 32.309 C 88.331 32.421,88.500 32.466,88.500 32.411 C 88.500 32.355,88.619 32.428,88.763 32.573 C 88.908 32.718,89.096 32.794,89.180 32.742 C 89.264 32.690,89.333 32.739,89.333 32.851 C 89.333 32.964,89.377 33.012,89.431 32.958 C 89.485 32.904,89.703 33.012,89.916 33.197 C 90.129 33.383,90.342 33.533,90.388 33.531 C 90.544 33.525,92.730 35.749,92.697 35.880 C 92.679 35.951,92.776 36.053,92.914 36.105 C 93.052 36.158,93.123 36.269,93.073 36.351 C 93.022 36.433,93.064 36.500,93.167 36.500 C 93.269 36.500,93.307 36.575,93.250 36.667 C 93.193 36.758,93.231 36.833,93.333 36.833 C 93.436 36.833,93.473 36.908,93.417 37.000 C 93.360 37.092,93.398 37.167,93.500 37.167 C 93.602 37.167,93.644 37.236,93.592 37.320 C 93.540 37.404,93.613 37.589,93.754 37.731 C 93.896 37.872,94.004 38.030,93.993 38.080 C 93.940 38.343,94.215 39.167,94.356 39.167 C 94.446 39.167,94.481 39.230,94.433 39.307 C 94.352 39.437,94.554 40.415,94.782 41.000 C 94.836 41.137,94.904 41.400,94.934 41.583 C 95.027 42.150,95.001 49.053,94.904 49.583 C 94.743 50.464,94.715 50.578,94.598 50.852 C 94.534 50.999,94.459 51.299,94.430 51.518 C 94.401 51.737,94.324 52.042,94.259 52.195 C 94.194 52.349,94.125 52.585,94.105 52.720 C 94.085 52.856,93.974 53.080,93.858 53.220 C 93.743 53.359,93.636 53.629,93.622 53.820 C 93.607 54.011,93.549 54.167,93.491 54.167 C 93.387 54.167,93.059 54.796,93.030 55.051 C 93.021 55.124,92.869 55.312,92.691 55.467 C 92.514 55.623,91.985 56.182,91.517 56.710 C 91.050 57.238,90.667 57.625,90.667 57.570 C 90.667 57.484,90.404 57.674,89.393 58.492 C 89.288 58.577,89.157 58.601,89.101 58.546 C 89.045 58.490,89.000 58.516,89.000 58.603 C 89.000 58.691,88.838 58.775,88.640 58.790 C 88.442 58.804,88.218 58.914,88.143 59.033 C 88.067 59.152,88.004 59.179,88.003 59.092 C 88.001 59.005,87.916 59.017,87.813 59.120 C 87.710 59.223,87.536 59.273,87.425 59.230 C 87.315 59.188,87.005 59.239,86.737 59.343 C 86.469 59.448,85.575 59.519,84.750 59.500 C 82.702 59.455,82.430 59.433,82.333 59.308 C 82.287 59.249,81.987 59.175,81.667 59.145 C 81.346 59.115,81.046 59.051,81.000 59.004 C 80.786 58.780,79.166 57.997,79.164 58.115 C 79.163 58.189,79.090 58.137,79.004 58.000 C 78.917 57.862,78.784 57.750,78.709 57.750 C 78.634 57.750,78.187 57.325,77.717 56.805 C 77.246 56.286,76.806 55.911,76.737 55.972 C 76.669 56.033,76.661 55.999,76.720 55.896 C 76.779 55.793,76.643 55.510,76.418 55.267 C 76.193 55.024,76.008 54.789,76.008 54.744 C 76.007 54.700,75.894 54.445,75.756 54.178 C 75.409 53.507,74.757 51.776,74.797 51.631 C 74.815 51.565,74.753 51.311,74.660 51.067 C 74.299 50.117,74.129 44.325,74.390 41.833 C 74.442 41.329,74.505 40.710,74.529 40.458 C 74.553 40.206,74.622 40.000,74.682 40.000 C 74.777 40.000,75.054 38.688,74.994 38.519 C 74.982 38.483,75.045 38.408,75.136 38.352 C 75.226 38.296,75.326 38.100,75.358 37.917 C 75.390 37.733,75.467 37.545,75.528 37.498 C 75.590 37.452,75.665 37.302,75.695 37.166 C 75.725 37.029,75.840 36.843,75.949 36.751 C 76.059 36.659,76.171 36.473,76.199 36.339 C 76.227 36.205,76.400 35.964,76.583 35.803 C 76.767 35.642,76.871 35.509,76.815 35.506 C 76.759 35.502,77.096 35.105,77.565 34.622 C 78.033 34.139,78.465 33.764,78.525 33.788 C 78.584 33.812,78.863 33.617,79.144 33.355 C 79.425 33.092,79.695 32.917,79.744 32.966 C 79.793 33.015,79.833 32.964,79.833 32.851 C 79.833 32.739,79.908 32.693,80.000 32.750 C 80.092 32.807,80.167 32.774,80.167 32.677 C 80.167 32.579,80.223 32.512,80.292 32.527 C 80.508 32.575,81.333 32.303,81.333 32.184 C 81.333 32.072,81.737 32.006,82.458 32.000 C 82.665 31.998,82.833 31.941,82.833 31.873 C 82.834 31.671,85.407 31.629,86.115 31.819 M218.789 82.172 C 217.307 82.544,216.081 83.440,215.226 84.777 C 214.919 85.256,214.403 85.850,214.080 86.097 L 213.493 86.545 213.515 87.898 C 213.528 88.708,213.640 89.484,213.794 89.833 C 213.936 90.154,214.040 90.473,214.026 90.542 C 214.012 90.610,214.079 90.667,214.177 90.667 C 214.274 90.667,214.317 90.725,214.273 90.796 C 213.947 91.324,216.209 93.306,217.760 93.851 C 219.158 94.342,222.667 94.189,222.667 93.637 C 222.667 93.551,222.742 93.527,222.833 93.583 C 222.925 93.640,223.000 93.602,223.000 93.500 C 223.000 93.398,223.072 93.358,223.161 93.413 C 223.249 93.467,223.468 93.366,223.647 93.187 C 223.826 93.008,224.005 92.894,224.044 92.933 C 224.177 93.066,225.685 91.331,225.582 91.165 C 225.526 91.074,225.545 91.000,225.624 91.000 C 226.050 91.000,226.500 89.462,226.500 88.004 L 226.500 86.517 225.908 86.066 C 225.583 85.818,225.137 85.307,224.917 84.932 C 223.690 82.839,220.984 81.620,218.789 82.172 M202.862 100.725 C 202.342 100.903,201.892 101.114,201.861 101.192 C 201.830 101.271,201.736 101.293,201.652 101.241 C 201.569 101.189,201.500 101.231,201.500 101.333 C 201.500 101.436,201.434 101.479,201.354 101.430 C 201.274 101.380,201.012 101.522,200.771 101.745 C 200.530 101.968,200.331 102.098,200.328 102.034 C 200.325 101.969,200.175 102.094,199.994 102.310 C 199.814 102.527,199.663 102.639,199.660 102.560 C 199.656 102.481,199.363 102.746,199.010 103.149 L 198.367 103.881 198.175 102.959 C 197.857 101.426,197.832 101.417,194.000 101.417 C 190.657 101.417,189.733 101.600,190.097 102.189 C 190.146 102.268,190.098 102.333,189.990 102.333 C 189.877 102.333,189.831 102.473,189.882 102.667 C 189.930 102.850,189.901 103.000,189.818 103.000 C 189.728 103.000,189.667 110.786,189.667 122.083 C 189.667 134.282,189.725 141.167,189.828 141.167 C 189.917 141.167,189.950 141.269,189.902 141.395 C 189.854 141.521,189.927 141.737,190.066 141.875 C 190.204 142.014,190.277 142.167,190.228 142.217 C 189.551 142.894,197.225 143.145,198.078 142.474 C 198.312 142.290,198.464 142.077,198.417 142.001 C 198.370 141.924,198.425 141.830,198.541 141.792 C 198.706 141.737,198.759 139.193,198.794 129.819 C 198.842 117.117,198.844 117.000,199.054 117.000 C 199.129 117.000,199.173 116.831,199.152 116.625 C 199.131 116.419,199.167 115.987,199.233 115.667 C 199.298 115.346,199.363 114.915,199.378 114.708 C 199.392 114.502,199.467 114.333,199.543 114.333 C 199.619 114.333,199.662 114.240,199.639 114.125 C 199.588 113.878,200.129 112.410,200.468 111.875 C 200.598 111.669,200.640 111.498,200.561 111.495 C 200.482 111.492,200.548 111.413,200.708 111.320 C 200.869 111.227,201.000 111.037,201.000 110.899 C 201.000 110.760,201.065 110.687,201.144 110.736 C 201.224 110.785,201.430 110.668,201.603 110.475 C 201.943 110.096,204.095 108.984,204.229 109.118 C 204.274 109.163,204.406 109.141,204.522 109.070 C 204.789 108.905,205.538 108.901,205.800 109.063 C 205.910 109.131,206.070 109.143,206.155 109.090 C 206.240 109.038,206.361 109.076,206.422 109.175 C 206.483 109.275,206.636 109.317,206.762 109.269 C 206.887 109.221,207.034 109.254,207.090 109.343 C 207.145 109.432,207.260 109.462,207.345 109.410 C 207.430 109.357,207.500 109.386,207.500 109.474 C 207.500 109.611,207.797 109.757,208.583 110.007 C 208.675 110.036,208.849 110.159,208.970 110.280 C 209.227 110.537,209.969 110.567,210.555 110.344 C 210.893 110.216,211.454 109.223,211.597 108.500 C 211.606 108.454,211.731 108.154,211.874 107.833 C 212.017 107.513,212.161 107.100,212.192 106.917 C 212.224 106.733,212.310 106.539,212.383 106.485 C 212.457 106.431,212.529 106.225,212.544 106.027 C 212.559 105.829,212.633 105.667,212.709 105.667 C 212.786 105.667,212.833 105.573,212.815 105.458 C 212.797 105.344,212.910 104.961,213.067 104.608 C 213.353 103.965,213.304 103.000,212.987 103.000 C 212.902 103.000,212.852 102.933,212.875 102.850 C 212.898 102.767,212.860 102.693,212.792 102.683 C 212.723 102.674,212.514 102.514,212.327 102.327 C 212.141 102.141,211.916 102.033,211.827 102.087 C 211.739 102.142,211.667 102.102,211.667 102.000 C 211.667 101.898,211.592 101.860,211.500 101.917 C 211.408 101.973,211.333 101.936,211.333 101.833 C 211.333 101.731,211.265 101.689,211.181 101.741 C 211.097 101.793,211.002 101.757,210.970 101.660 C 210.938 101.564,210.744 101.473,210.539 101.457 C 210.334 101.442,210.167 101.366,210.167 101.288 C 210.167 101.210,210.092 101.193,210.000 101.250 C 209.908 101.307,209.833 101.266,209.833 101.159 C 209.833 101.052,209.721 101.008,209.583 101.060 C 209.446 101.113,209.333 101.092,209.333 101.013 C 209.333 100.894,208.837 100.739,207.917 100.569 C 207.825 100.552,207.713 100.521,207.667 100.499 C 207.199 100.279,203.681 100.444,202.862 100.725 M284.417 100.472 C 284.377 100.512,284.077 100.569,283.752 100.598 C 283.426 100.627,283.067 100.709,282.955 100.780 C 282.842 100.851,282.619 100.887,282.458 100.860 C 282.298 100.834,282.167 100.897,282.167 100.999 C 282.167 101.102,282.101 101.146,282.020 101.096 C 281.819 100.972,279.667 101.661,279.667 101.849 C 279.667 101.932,279.610 101.991,279.542 101.980 C 279.181 101.923,278.829 102.028,278.595 102.262 C 278.451 102.406,278.333 102.477,278.333 102.419 C 278.333 102.362,278.108 102.447,277.833 102.610 C 277.558 102.772,277.333 102.968,277.333 103.046 C 277.333 103.123,277.261 103.142,277.173 103.087 C 277.084 103.033,276.841 103.159,276.631 103.369 C 276.421 103.579,276.198 103.733,276.135 103.712 C 276.071 103.690,275.875 103.857,275.698 104.081 C 275.522 104.305,275.339 104.450,275.291 104.402 C 275.244 104.355,275.056 104.505,274.874 104.736 C 274.693 104.966,274.506 105.117,274.459 105.070 C 274.245 104.857,271.081 108.843,271.150 109.239 C 271.159 109.291,271.014 109.486,270.827 109.673 C 270.641 109.859,270.533 110.084,270.587 110.173 C 270.642 110.261,270.602 110.333,270.500 110.333 C 270.398 110.333,270.360 110.408,270.417 110.500 C 270.473 110.592,270.436 110.667,270.333 110.667 C 270.231 110.667,270.193 110.742,270.250 110.833 C 270.307 110.925,270.280 111.000,270.190 111.000 C 270.100 111.000,269.969 111.244,269.898 111.542 C 269.827 111.840,269.755 112.140,269.739 112.208 C 269.722 112.277,269.690 112.371,269.667 112.417 C 269.644 112.462,269.609 112.556,269.589 112.625 C 269.569 112.694,269.428 113.030,269.276 113.372 C 269.123 113.714,269.011 114.052,269.026 114.122 C 269.041 114.192,268.966 114.463,268.859 114.722 C 268.752 114.982,268.704 115.258,268.752 115.336 C 268.800 115.413,268.757 115.527,268.658 115.589 C 268.559 115.650,268.517 115.803,268.565 115.928 C 268.613 116.053,268.573 116.205,268.476 116.265 C 268.379 116.325,268.342 116.587,268.394 116.847 C 268.446 117.107,268.411 117.368,268.317 117.427 C 268.222 117.486,268.184 117.639,268.233 117.767 C 268.283 117.895,268.255 118.000,268.172 118.000 C 268.011 118.000,267.977 126.302,268.137 126.577 C 268.188 126.666,268.254 127.003,268.283 127.327 C 268.364 128.224,268.681 129.489,268.853 129.595 C 268.937 129.647,268.966 129.753,268.918 129.831 C 268.870 129.909,268.918 130.185,269.025 130.444 C 269.131 130.704,269.230 130.992,269.244 131.083 C 269.258 131.175,269.326 131.400,269.397 131.583 C 269.467 131.767,269.717 132.434,269.953 133.066 C 270.189 133.698,270.513 134.347,270.674 134.508 C 270.835 134.669,271.017 134.958,271.078 135.150 C 271.139 135.343,271.272 135.500,271.372 135.500 C 271.473 135.500,271.510 135.545,271.454 135.601 C 271.249 135.807,273.778 138.887,274.027 138.734 C 274.105 138.685,274.220 138.782,274.282 138.948 C 274.392 139.243,275.061 139.823,275.106 139.664 C 275.119 139.619,275.285 139.771,275.476 140.000 C 275.666 140.229,275.825 140.344,275.828 140.255 C 275.831 140.165,275.951 140.260,276.095 140.466 C 276.239 140.671,276.426 140.796,276.511 140.743 C 276.597 140.690,276.667 140.723,276.667 140.815 C 276.667 140.974,278.467 141.912,278.996 142.029 C 279.131 142.059,279.343 142.177,279.466 142.292 C 279.663 142.475,279.911 142.534,280.273 142.486 C 280.332 142.478,280.431 142.555,280.494 142.657 C 280.557 142.759,280.846 142.859,281.137 142.879 C 281.428 142.900,281.666 142.981,281.666 143.059 C 281.667 143.138,281.777 143.160,281.911 143.108 C 282.046 143.057,282.205 143.093,282.264 143.190 C 282.324 143.286,282.553 143.330,282.774 143.288 C 282.994 143.246,283.218 143.281,283.271 143.367 C 283.324 143.453,283.472 143.482,283.600 143.433 C 283.728 143.384,283.833 143.405,283.833 143.480 C 283.833 143.954,291.994 143.721,293.333 143.209 C 293.471 143.157,293.636 143.124,293.700 143.138 C 293.892 143.176,296.213 142.359,296.319 142.216 C 296.373 142.143,296.529 142.059,296.667 142.029 C 297.150 141.925,298.919 140.973,299.125 140.706 C 299.240 140.558,299.336 140.507,299.339 140.593 C 299.342 140.679,299.500 140.563,299.691 140.333 C 299.882 140.104,300.085 139.927,300.144 139.939 C 300.289 139.969,300.783 139.613,300.811 139.458 C 300.823 139.390,300.879 139.341,300.934 139.351 C 301.111 139.382,302.489 137.950,302.407 137.818 C 302.365 137.749,302.537 137.544,302.790 137.362 C 303.263 137.022,303.957 136.002,303.718 135.997 C 303.644 135.996,303.661 135.940,303.756 135.872 C 304.103 135.626,304.660 134.790,304.571 134.647 C 304.521 134.566,304.564 134.500,304.667 134.500 C 304.769 134.500,304.812 134.433,304.762 134.352 C 304.711 134.271,304.775 134.118,304.902 134.012 C 305.125 133.827,305.417 133.050,305.361 132.792 C 305.346 132.723,305.416 132.667,305.518 132.667 C 305.619 132.667,305.663 132.563,305.614 132.437 C 305.566 132.311,305.601 132.132,305.694 132.040 C 305.893 131.840,306.039 130.551,305.908 130.140 C 305.825 129.876,305.520 129.697,305.083 129.654 C 304.992 129.646,304.826 129.563,304.715 129.471 C 304.517 129.307,303.977 129.226,302.219 129.097 C 301.744 129.062,301.270 128.981,301.166 128.917 C 300.842 128.716,297.833 128.652,297.833 128.845 C 297.833 128.941,297.762 128.975,297.674 128.921 C 297.510 128.820,297.064 129.394,296.970 129.827 C 296.941 129.961,296.859 130.148,296.788 130.243 C 296.319 130.877,295.361 132.500,295.457 132.500 C 295.522 132.500,295.403 132.620,295.193 132.767 C 294.984 132.914,294.745 133.211,294.662 133.429 C 294.579 133.646,294.254 133.932,293.940 134.063 C 293.625 134.195,293.297 134.428,293.210 134.583 C 293.124 134.737,293.002 134.852,292.940 134.839 C 292.719 134.791,291.667 135.236,291.667 135.377 C 291.667 135.455,291.597 135.477,291.512 135.424 C 291.426 135.371,291.314 135.397,291.261 135.482 C 291.209 135.566,291.016 135.596,290.833 135.548 C 290.640 135.498,290.500 135.543,290.500 135.657 C 290.500 135.765,290.422 135.805,290.326 135.745 C 290.230 135.686,290.062 135.710,289.951 135.798 C 289.840 135.886,288.887 135.958,287.833 135.958 C 286.779 135.958,285.826 135.886,285.716 135.798 C 285.605 135.710,285.436 135.686,285.341 135.745 C 285.245 135.805,285.167 135.783,285.167 135.698 C 285.167 135.571,284.733 135.447,283.653 135.266 C 283.599 135.257,283.199 135.025,282.764 134.750 C 282.329 134.475,281.939 134.271,281.897 134.297 C 281.855 134.323,281.627 134.114,281.391 133.833 C 281.154 133.551,280.744 133.210,280.480 133.073 C 280.216 132.937,279.999 132.733,279.999 132.621 C 279.998 132.508,279.739 132.144,279.423 131.811 C 279.108 131.478,278.896 131.160,278.953 131.103 C 279.009 131.046,278.964 131.000,278.851 131.000 C 278.739 131.000,278.693 130.925,278.750 130.833 C 278.807 130.742,278.761 130.667,278.649 130.667 C 278.536 130.667,278.491 130.620,278.548 130.563 C 278.606 130.506,278.493 130.149,278.297 129.771 C 278.102 129.393,277.922 128.903,277.896 128.682 C 277.871 128.461,277.790 128.236,277.717 128.182 C 277.643 128.128,277.562 127.858,277.536 127.583 C 277.510 127.308,277.443 126.971,277.388 126.833 C 277.279 126.562,277.202 126.173,277.118 125.462 L 277.065 125.007 291.278 124.962 L 305.491 124.917 305.870 124.537 C 306.438 123.970,306.439 116.588,305.871 116.176 C 305.800 116.125,305.723 115.821,305.698 115.500 C 305.632 114.640,305.489 114.000,305.362 114.000 C 305.300 113.999,305.233 113.761,305.213 113.471 C 305.192 113.180,305.092 112.890,304.990 112.827 C 304.888 112.764,304.811 112.665,304.819 112.606 C 304.827 112.548,304.828 112.481,304.821 112.458 C 304.814 112.435,304.774 112.229,304.733 112.000 C 304.691 111.771,304.584 111.558,304.494 111.527 C 304.405 111.497,304.374 111.403,304.425 111.319 C 304.477 111.235,304.440 111.167,304.343 111.167 C 304.246 111.167,304.182 111.110,304.200 111.042 C 304.262 110.807,303.978 110.167,303.812 110.167 C 303.721 110.167,303.693 110.092,303.750 110.000 C 303.807 109.908,303.769 109.833,303.667 109.833 C 303.564 109.833,303.527 109.758,303.583 109.667 C 303.640 109.575,303.594 109.500,303.482 109.500 C 303.370 109.500,303.324 109.453,303.381 109.397 C 303.559 109.219,302.350 107.450,301.532 106.693 C 301.102 106.294,300.862 106.024,301.000 106.093 C 301.137 106.161,300.995 105.947,300.684 105.617 C 300.372 105.287,300.061 105.032,299.992 105.050 C 299.923 105.068,299.878 105.038,299.892 104.983 C 299.923 104.858,298.979 104.052,298.750 104.008 C 298.658 103.991,298.522 103.868,298.448 103.735 C 298.374 103.602,298.250 103.532,298.174 103.579 C 298.097 103.626,297.990 103.548,297.935 103.405 C 297.881 103.262,297.768 103.187,297.685 103.238 C 297.603 103.290,297.498 103.236,297.453 103.119 C 297.366 102.892,295.558 101.947,295.208 101.945 C 295.094 101.945,295.000 101.885,295.000 101.812 C 295.000 101.703,294.319 101.464,293.417 101.256 C 293.325 101.235,293.050 101.136,292.805 101.035 C 292.561 100.934,292.223 100.853,292.055 100.853 C 291.514 100.856,291.086 100.754,290.972 100.596 C 290.864 100.446,284.562 100.327,284.417 100.472 M326.167 100.511 C 326.167 100.576,326.073 100.621,325.958 100.611 C 325.606 100.581,324.333 101.044,324.333 101.203 C 324.333 101.285,324.258 101.307,324.167 101.250 C 324.075 101.193,324.000 101.231,324.000 101.333 C 324.000 101.436,323.925 101.473,323.833 101.417 C 323.742 101.360,323.667 101.398,323.667 101.500 C 323.667 101.602,323.597 101.643,323.511 101.590 C 323.426 101.538,323.239 101.662,323.095 101.868 C 322.951 102.073,322.831 102.168,322.828 102.079 C 322.825 101.990,322.713 102.062,322.578 102.240 C 322.443 102.418,322.333 102.500,322.333 102.423 C 322.333 102.210,321.677 102.836,321.162 103.539 L 320.706 104.162 320.632 103.139 C 320.560 102.136,320.061 101.339,319.661 101.587 C 319.585 101.634,319.478 101.599,319.422 101.509 C 319.115 101.011,312.562 101.428,312.479 101.950 C 312.467 102.023,312.416 102.271,312.365 102.500 C 312.234 103.098,312.142 140.867,312.272 141.167 C 312.331 141.304,312.395 141.561,312.414 141.736 C 312.514 142.669,313.057 142.807,316.655 142.815 C 319.318 142.821,320.035 142.775,320.224 142.586 C 320.354 142.456,320.496 142.385,320.540 142.429 C 320.674 142.563,321.041 142.019,321.142 141.538 C 321.194 141.288,321.240 135.796,321.244 129.333 C 321.247 122.871,321.313 117.537,321.390 117.481 C 321.467 117.424,321.560 116.948,321.597 116.423 C 321.633 115.898,321.774 115.094,321.910 114.637 C 322.046 114.179,322.143 113.755,322.127 113.694 C 322.110 113.633,322.179 113.433,322.281 113.250 C 322.383 113.067,322.493 112.768,322.525 112.587 C 322.557 112.406,322.696 112.123,322.833 111.958 C 322.971 111.793,323.240 111.378,323.432 111.037 C 323.623 110.696,323.873 110.417,323.987 110.417 C 324.100 110.417,324.281 110.297,324.388 110.150 C 324.496 110.004,324.621 109.887,324.667 109.891 C 324.854 109.907,325.833 109.410,325.833 109.298 C 325.833 109.231,325.938 109.217,326.066 109.267 C 326.195 109.316,326.350 109.275,326.411 109.175 C 326.473 109.076,326.575 109.027,326.638 109.066 C 326.701 109.105,327.073 109.078,327.463 109.007 C 327.878 108.931,328.214 108.942,328.270 109.033 C 328.324 109.119,328.472 109.149,328.600 109.100 C 328.728 109.051,328.833 109.092,328.833 109.191 C 328.833 109.291,328.983 109.333,329.167 109.285 C 329.350 109.237,329.500 109.274,329.500 109.367 C 329.500 109.460,329.612 109.492,329.750 109.440 C 329.887 109.387,330.000 109.421,330.000 109.515 C 330.000 109.609,330.075 109.640,330.167 109.583 C 330.258 109.527,330.333 109.555,330.333 109.646 C 330.333 109.811,330.974 110.095,331.208 110.033 C 331.277 110.015,331.333 110.079,331.333 110.177 C 331.333 110.274,331.408 110.307,331.500 110.250 C 331.592 110.193,331.667 110.226,331.667 110.323 C 331.667 110.588,332.774 110.536,333.052 110.258 C 333.185 110.125,333.340 110.062,333.397 110.119 C 333.488 110.210,333.527 110.038,333.486 109.727 C 333.478 109.668,333.551 109.571,333.648 109.511 C 333.745 109.451,333.859 109.218,333.900 108.993 C 333.941 108.768,333.990 108.546,334.007 108.500 C 334.025 108.454,334.031 108.360,334.020 108.292 C 334.009 108.223,334.069 108.167,334.154 108.167 C 334.296 108.167,334.626 107.358,334.753 106.698 C 334.783 106.543,334.822 106.379,334.840 106.333 C 334.858 106.287,334.864 106.194,334.853 106.125 C 334.842 106.056,334.902 106.000,334.987 106.000 C 335.134 106.000,335.431 105.051,335.365 104.792 C 335.348 104.723,335.397 104.667,335.474 104.667 C 335.587 104.667,335.623 103.293,335.524 102.800 C 335.485 102.609,333.379 101.483,333.008 101.455 C 332.820 101.441,332.667 101.380,332.667 101.320 C 332.667 101.212,331.246 100.750,330.917 100.750 C 330.825 100.750,330.701 100.683,330.642 100.601 C 330.514 100.425,326.167 100.337,326.167 100.511 M351.738 100.519 C 351.703 100.576,351.485 100.586,351.254 100.542 C 351.023 100.497,350.833 100.529,350.833 100.612 C 350.833 100.757,350.590 100.803,349.628 100.839 C 349.377 100.848,349.131 100.922,349.081 101.004 C 349.031 101.085,348.887 101.113,348.762 101.065 C 348.636 101.017,348.486 101.054,348.428 101.148 C 348.370 101.242,348.213 101.277,348.078 101.225 C 347.943 101.173,347.833 101.218,347.833 101.325 C 347.833 101.432,347.770 101.481,347.693 101.433 C 347.482 101.303,346.333 101.656,346.333 101.851 C 346.333 101.944,346.267 101.979,346.186 101.928 C 345.984 101.804,345.000 102.161,345.000 102.359 C 345.000 102.448,344.926 102.474,344.835 102.418 C 344.642 102.298,342.333 103.631,342.333 103.862 C 342.333 103.949,342.269 103.980,342.190 103.931 C 342.027 103.830,339.940 105.663,340.070 105.793 C 340.117 105.839,339.970 106.024,339.743 106.202 C 339.516 106.381,339.369 106.589,339.416 106.666 C 339.463 106.742,339.444 106.830,339.373 106.861 C 339.113 106.973,338.507 107.877,338.595 108.020 C 338.645 108.100,338.602 108.167,338.500 108.167 C 338.398 108.167,338.360 108.242,338.417 108.333 C 338.473 108.425,338.436 108.500,338.333 108.500 C 338.231 108.500,338.193 108.575,338.250 108.667 C 338.307 108.758,338.282 108.833,338.195 108.833 C 338.044 108.833,337.809 109.472,337.882 109.683 C 337.901 109.737,337.814 109.906,337.688 110.058 C 337.562 110.209,337.517 110.333,337.589 110.333 C 337.660 110.333,337.604 110.465,337.464 110.625 C 337.249 110.871,336.968 111.799,336.921 112.417 C 336.914 112.508,336.848 112.679,336.775 112.796 C 336.443 113.326,337.378 114.865,337.853 114.571 C 337.934 114.521,338.000 114.569,338.000 114.676 C 338.000 114.790,338.140 114.836,338.333 114.785 C 338.516 114.737,338.711 114.771,338.766 114.860 C 338.821 114.949,339.065 115.001,339.308 114.975 C 339.551 114.950,339.846 114.988,339.962 115.060 C 340.079 115.132,340.379 115.170,340.629 115.143 C 340.879 115.117,341.173 115.151,341.283 115.219 C 341.393 115.287,341.828 115.369,342.251 115.403 C 342.673 115.436,343.065 115.509,343.121 115.565 C 343.285 115.730,344.000 115.681,344.000 115.505 C 344.000 115.416,344.112 115.387,344.250 115.440 C 344.595 115.572,345.449 114.621,345.584 113.954 C 345.643 113.658,345.835 113.101,346.011 112.715 C 346.186 112.328,346.349 111.919,346.373 111.804 C 346.397 111.689,346.581 111.410,346.783 111.184 C 346.984 110.958,347.131 110.730,347.110 110.678 C 347.088 110.626,347.317 110.346,347.619 110.056 C 347.920 109.766,348.167 109.565,348.167 109.609 C 348.167 109.653,348.384 109.534,348.651 109.345 C 348.917 109.155,349.217 109.000,349.317 109.000 C 349.418 109.000,349.500 108.921,349.500 108.823 C 349.500 108.726,349.573 108.692,349.663 108.748 C 349.753 108.803,349.997 108.757,350.205 108.644 C 350.413 108.531,350.783 108.453,351.027 108.471 C 351.271 108.489,351.683 108.422,351.942 108.324 C 352.441 108.134,356.378 108.071,356.665 108.249 C 356.757 108.306,356.908 108.307,357.000 108.250 C 357.092 108.193,357.167 108.232,357.167 108.336 C 357.167 108.440,357.373 108.509,357.625 108.488 C 357.877 108.468,358.308 108.543,358.583 108.655 C 358.858 108.767,359.215 108.869,359.375 108.881 C 359.535 108.894,359.667 108.958,359.667 109.024 C 359.667 109.155,360.393 109.424,360.455 109.316 C 360.476 109.280,360.613 109.420,360.758 109.628 C 360.904 109.836,361.074 109.981,361.136 109.950 C 361.199 109.920,361.416 110.069,361.619 110.281 C 361.822 110.493,361.935 110.669,361.869 110.672 C 361.804 110.675,361.896 110.787,362.074 110.922 C 362.251 111.057,362.353 111.167,362.299 111.167 C 362.246 111.167,362.336 111.599,362.501 112.128 C 362.833 113.197,362.877 113.576,362.851 115.203 C 362.837 116.089,362.785 116.304,362.600 116.233 C 362.472 116.184,362.322 116.217,362.267 116.306 C 362.211 116.396,362.016 116.430,361.833 116.382 C 361.650 116.334,361.500 116.376,361.500 116.475 C 361.500 116.575,361.387 116.613,361.250 116.560 C 361.113 116.508,361.000 116.531,361.000 116.613 C 361.000 116.757,360.755 116.803,359.795 116.839 C 359.544 116.848,359.298 116.922,359.248 117.004 C 359.197 117.085,359.053 117.113,358.928 117.065 C 358.803 117.017,358.653 117.054,358.595 117.148 C 358.537 117.242,358.397 117.283,358.285 117.240 C 358.172 117.197,357.706 117.240,357.248 117.337 C 356.791 117.433,356.267 117.537,356.083 117.568 C 355.900 117.599,355.750 117.640,355.750 117.659 C 355.750 117.720,353.377 117.994,352.750 118.006 C 352.567 118.009,352.142 118.086,351.806 118.175 C 351.469 118.265,350.794 118.347,350.306 118.357 C 349.817 118.368,349.229 118.450,349.000 118.540 C 348.771 118.630,348.321 118.723,348.000 118.746 C 347.142 118.810,346.147 118.992,345.935 119.125 C 345.833 119.189,345.675 119.245,345.583 119.250 C 345.160 119.274,344.333 119.539,344.333 119.652 C 344.333 119.721,344.221 119.778,344.085 119.778 C 343.742 119.778,341.333 121.031,341.333 121.209 C 341.333 121.288,341.259 121.307,341.168 121.251 C 341.077 121.195,340.815 121.337,340.585 121.567 C 340.355 121.797,340.164 121.932,340.161 121.867 C 340.158 121.803,340.017 121.916,339.848 122.118 C 339.680 122.320,339.495 122.439,339.437 122.382 C 339.380 122.325,339.333 122.397,339.333 122.543 C 339.333 122.690,339.076 123.021,338.761 123.281 C 338.169 123.769,337.201 125.005,337.126 125.368 C 337.102 125.482,336.989 125.677,336.873 125.801 C 336.758 125.925,336.706 126.096,336.758 126.180 C 336.810 126.264,336.769 126.333,336.667 126.333 C 336.564 126.333,336.527 126.408,336.583 126.500 C 336.640 126.592,336.602 126.667,336.500 126.667 C 336.398 126.667,336.356 126.735,336.408 126.819 C 336.460 126.903,336.423 126.998,336.327 127.030 C 336.231 127.062,336.132 127.278,336.107 127.509 C 336.083 127.741,336.006 128.021,335.938 128.132 C 335.870 128.243,335.874 128.334,335.948 128.336 C 336.023 128.337,335.971 128.410,335.833 128.496 C 335.534 128.686,335.456 134.255,335.750 134.464 C 335.842 134.530,335.938 134.771,335.965 135.000 C 336.030 135.569,336.516 136.667,336.702 136.667 C 336.785 136.667,336.810 136.736,336.758 136.820 C 336.706 136.904,336.773 137.083,336.907 137.217 C 337.041 137.351,337.104 137.507,337.048 137.563 C 336.991 137.620,337.036 137.667,337.149 137.667 C 337.261 137.667,337.307 137.741,337.251 137.832 C 337.195 137.923,337.337 138.185,337.567 138.415 C 337.797 138.645,337.934 138.833,337.873 138.833 C 337.811 138.833,338.202 139.280,338.742 139.825 C 339.282 140.371,339.786 140.779,339.862 140.732 C 339.938 140.685,340.000 140.712,340.000 140.792 C 340.000 140.990,341.009 141.722,341.281 141.722 C 341.401 141.722,341.500 141.789,341.500 141.871 C 341.500 141.953,341.569 141.977,341.652 141.925 C 341.736 141.874,341.830 141.901,341.861 141.986 C 341.892 142.072,342.027 142.166,342.163 142.196 C 342.298 142.226,342.501 142.336,342.615 142.440 C 342.853 142.660,345.077 143.362,345.380 143.313 C 345.492 143.295,345.771 143.357,346.000 143.452 C 347.189 143.943,353.486 143.776,355.000 143.213 C 355.137 143.162,355.363 143.107,355.500 143.090 C 356.062 143.022,357.667 142.444,357.667 142.311 C 357.667 142.231,357.723 142.182,357.792 142.201 C 358.045 142.270,359.167 141.801,359.167 141.626 C 359.167 141.526,359.215 141.493,359.275 141.552 C 359.407 141.684,360.667 140.997,360.667 140.793 C 360.667 140.713,360.732 140.688,360.812 140.737 C 360.892 140.787,361.150 140.649,361.385 140.431 C 361.620 140.213,361.853 140.075,361.902 140.125 C 361.952 140.174,362.039 140.092,362.097 139.941 C 362.154 139.791,362.264 139.707,362.339 139.754 C 362.415 139.801,362.583 139.688,362.712 139.504 C 362.841 139.320,362.985 139.208,363.033 139.255 C 363.080 139.303,363.214 139.227,363.330 139.087 C 363.684 138.660,364.097 139.087,364.011 139.792 C 363.997 139.906,364.051 140.000,364.132 140.000 C 364.271 140.000,364.328 140.232,364.346 140.875 C 364.350 141.035,364.429 141.167,364.520 141.167 C 364.612 141.167,364.640 141.242,364.583 141.333 C 364.527 141.425,364.564 141.500,364.667 141.500 C 364.769 141.500,364.810 141.570,364.757 141.655 C 364.705 141.740,364.844 142.021,365.066 142.280 L 365.471 142.750 369.027 142.790 C 372.620 142.830,373.486 142.711,373.375 142.195 C 373.352 142.088,373.408 142.000,373.500 142.000 C 373.592 142.000,373.667 141.752,373.667 141.450 C 373.667 140.864,373.339 140.003,373.115 140.001 C 373.041 140.001,373.027 139.925,373.083 139.833 C 373.140 139.742,373.123 139.667,373.045 139.667 C 372.968 139.667,372.892 139.505,372.877 139.307 C 372.862 139.109,372.753 138.885,372.633 138.809 C 372.514 138.734,372.468 138.671,372.530 138.669 C 372.592 138.668,372.569 138.423,372.478 138.125 C 372.388 137.827,372.287 137.358,372.256 137.083 C 372.224 136.808,372.151 136.271,372.093 135.890 C 372.035 135.508,371.946 134.908,371.895 134.556 C 371.820 134.045,371.746 127.091,371.648 111.274 C 371.647 111.013,371.569 110.600,371.475 110.358 C 371.382 110.115,371.281 109.692,371.252 109.417 C 371.223 109.142,371.105 108.692,370.990 108.417 C 370.875 108.142,370.766 107.842,370.748 107.750 C 370.650 107.262,370.443 106.833,370.304 106.833 C 370.218 106.833,370.186 106.771,370.233 106.695 C 370.438 106.362,367.791 103.237,367.471 103.434 C 367.395 103.481,367.333 103.444,367.333 103.351 C 367.333 102.892,363.051 101.060,361.654 100.921 C 361.326 100.888,360.742 100.777,360.358 100.673 C 359.974 100.570,359.586 100.530,359.496 100.586 C 359.407 100.641,359.333 100.625,359.333 100.551 C 359.333 100.395,351.834 100.364,351.738 100.519 M216.362 101.538 C 216.255 101.645,216.167 101.666,216.167 101.585 C 216.167 101.503,216.049 101.582,215.904 101.760 C 215.760 101.938,215.691 101.971,215.750 101.833 C 215.809 101.696,215.740 101.729,215.596 101.907 C 215.360 102.197,215.333 104.262,215.333 122.009 L 215.333 141.788 215.680 142.229 C 215.871 142.472,216.096 142.627,216.180 142.575 C 216.264 142.523,216.333 142.555,216.333 142.646 C 216.333 142.750,217.596 142.812,219.745 142.812 C 223.323 142.812,223.756 142.727,223.900 142.000 C 223.927 141.862,223.999 141.637,224.060 141.499 C 224.121 141.362,224.151 132.457,224.127 121.712 L 224.083 102.176 223.704 101.796 C 223.259 101.351,216.777 101.123,216.362 101.538 M228.958 101.602 C 228.706 101.735,228.493 101.898,228.484 101.964 C 228.391 102.687,228.388 103.500,228.480 103.500 C 228.544 103.500,228.608 103.662,228.623 103.860 C 228.638 104.058,228.735 104.273,228.839 104.337 C 228.943 104.401,229.016 104.503,229.002 104.563 C 228.950 104.775,229.201 105.694,229.431 106.136 C 229.560 106.382,229.665 106.677,229.666 106.792 C 229.666 106.906,229.726 107.000,229.798 107.000 C 229.870 107.000,229.940 107.143,229.953 107.318 C 229.979 107.668,230.824 109.867,230.983 110.000 C 231.038 110.046,231.106 110.233,231.134 110.417 C 231.163 110.600,231.310 111.013,231.461 111.333 C 231.777 112.001,231.747 111.916,231.914 112.625 C 231.984 112.923,232.107 113.167,232.188 113.167 C 232.268 113.167,232.319 113.223,232.302 113.292 C 232.233 113.560,232.535 114.500,232.690 114.500 C 232.780 114.500,232.815 114.562,232.768 114.637 C 232.722 114.712,232.792 114.983,232.925 115.239 C 233.058 115.495,233.167 115.781,233.167 115.873 C 233.167 115.966,233.362 116.501,233.600 117.062 C 233.839 117.624,234.113 118.271,234.209 118.500 C 234.306 118.729,234.404 119.029,234.428 119.167 C 234.495 119.543,234.922 120.644,235.052 120.775 C 235.115 120.837,235.167 121.026,235.167 121.194 C 235.167 121.362,235.254 121.500,235.361 121.500 C 235.468 121.500,235.510 121.546,235.454 121.602 C 235.352 121.704,235.961 123.509,236.150 123.667 C 236.205 123.712,236.271 123.862,236.296 124.000 C 236.339 124.235,236.645 125.052,237.046 126.000 C 237.143 126.229,237.240 126.492,237.261 126.583 C 237.283 126.675,237.394 126.975,237.509 127.250 C 237.625 127.525,237.730 127.825,237.744 127.917 C 237.777 128.139,237.988 128.681,238.179 129.039 C 238.264 129.199,238.333 129.442,238.333 129.581 C 238.333 129.720,238.408 129.833,238.500 129.833 C 238.592 129.833,238.653 129.890,238.636 129.958 C 238.574 130.217,239.060 131.500,239.221 131.500 C 239.313 131.500,239.342 131.547,239.284 131.605 C 239.226 131.663,239.267 131.869,239.375 132.064 C 239.483 132.258,239.584 132.473,239.598 132.542 C 239.613 132.610,239.644 132.704,239.667 132.750 C 239.690 132.796,239.722 132.890,239.739 132.958 C 239.755 133.027,239.827 133.327,239.898 133.625 C 239.969 133.923,240.096 134.167,240.180 134.167 C 240.264 134.167,240.324 134.223,240.314 134.292 C 240.303 134.360,240.308 134.454,240.326 134.500 C 240.344 134.546,240.392 134.768,240.433 134.993 C 240.475 135.218,240.600 135.461,240.713 135.532 C 240.825 135.603,240.851 135.663,240.771 135.664 C 240.691 135.666,240.719 135.779,240.833 135.917 C 240.947 136.054,240.991 136.167,240.931 136.167 C 240.871 136.167,240.914 136.335,241.028 136.542 C 241.141 136.748,241.258 137.063,241.288 137.243 C 241.317 137.422,241.421 137.618,241.518 137.678 C 241.616 137.738,241.689 137.854,241.681 137.935 C 241.657 138.195,242.187 139.659,242.339 139.753 C 242.419 139.803,242.447 139.944,242.400 140.067 C 242.353 140.190,242.418 140.394,242.544 140.520 C 242.670 140.647,242.787 140.806,242.804 140.875 C 242.820 140.944,242.840 141.019,242.847 141.042 C 242.855 141.065,242.881 141.263,242.905 141.483 C 242.928 141.703,243.071 141.973,243.221 142.083 C 243.372 142.193,243.446 142.332,243.386 142.391 C 243.287 142.491,243.576 142.567,243.875 142.520 C 243.944 142.509,244.000 142.570,244.000 142.655 C 244.000 142.746,245.353 142.811,247.250 142.811 C 249.286 142.811,250.500 142.749,250.500 142.645 C 250.500 142.555,250.575 142.527,250.667 142.583 C 250.758 142.640,250.833 142.602,250.833 142.500 C 250.833 142.398,250.900 142.355,250.981 142.405 C 251.062 142.455,251.222 142.385,251.335 142.248 C 251.448 142.112,251.475 141.999,251.395 141.997 C 251.315 141.996,251.348 141.933,251.467 141.857 C 251.586 141.782,251.696 141.558,251.710 141.360 C 251.725 141.162,251.791 141.000,251.856 141.000 C 251.970 141.000,252.219 140.114,252.165 139.896 C 252.150 139.836,252.203 139.741,252.283 139.685 C 252.454 139.565,253.389 137.197,253.389 136.883 C 253.389 136.764,253.443 136.667,253.510 136.667 C 253.622 136.667,253.882 135.967,253.912 135.583 C 253.919 135.492,253.984 135.323,254.056 135.208 C 254.128 135.094,254.133 135.000,254.067 135.000 C 254.002 135.000,254.080 134.855,254.240 134.677 C 254.401 134.500,254.487 134.280,254.430 134.189 C 254.374 134.098,254.405 133.975,254.500 133.917 C 254.595 133.858,254.629 133.740,254.576 133.655 C 254.523 133.570,254.554 133.500,254.644 133.500 C 254.798 133.500,255.086 132.573,254.971 132.445 C 254.941 132.412,255.020 132.261,255.145 132.109 C 255.271 131.957,255.316 131.833,255.245 131.833 C 255.173 131.833,255.243 131.692,255.400 131.519 C 255.556 131.346,255.697 131.046,255.711 130.852 C 255.726 130.658,255.791 130.500,255.856 130.500 C 255.976 130.500,256.256 129.517,256.198 129.292 C 256.181 129.223,256.234 129.167,256.315 129.167 C 256.443 129.167,256.657 128.648,256.764 128.083 C 256.781 127.992,256.812 127.842,256.834 127.750 C 256.855 127.658,256.864 127.527,256.853 127.458 C 256.842 127.390,256.902 127.333,256.987 127.333 C 257.134 127.333,257.431 126.384,257.365 126.125 C 257.348 126.056,257.392 126.000,257.464 126.000 C 257.582 126.000,258.041 124.686,258.029 124.380 C 258.026 124.308,258.135 124.127,258.271 123.977 C 258.407 123.827,258.530 123.546,258.544 123.352 C 258.559 123.158,258.630 123.000,258.702 123.000 C 258.774 123.000,258.833 122.899,258.833 122.776 C 258.833 122.652,258.950 122.317,259.093 122.030 C 259.236 121.743,259.365 121.357,259.379 121.171 C 259.393 120.985,259.471 120.833,259.553 120.833 C 259.635 120.833,259.660 120.723,259.608 120.589 C 259.557 120.454,259.588 120.299,259.677 120.244 C 259.766 120.189,259.796 120.074,259.743 119.988 C 259.690 119.903,259.717 119.833,259.803 119.833 C 259.946 119.833,260.240 118.913,260.189 118.625 C 260.177 118.556,260.250 118.500,260.351 118.500 C 260.453 118.500,260.493 118.390,260.442 118.255 C 260.390 118.121,260.421 117.966,260.510 117.910 C 260.599 117.855,260.629 117.740,260.576 117.655 C 260.523 117.570,260.564 117.500,260.667 117.500 C 260.769 117.500,260.811 117.431,260.759 117.348 C 260.707 117.264,260.733 117.170,260.817 117.139 C 260.901 117.108,260.995 116.933,261.026 116.750 C 261.058 116.567,261.143 116.372,261.217 116.318 C 261.290 116.264,261.362 116.058,261.377 115.860 C 261.392 115.662,261.455 115.500,261.517 115.500 C 261.616 115.500,261.834 114.926,261.930 114.417 C 261.947 114.325,261.979 114.175,262.001 114.083 C 262.022 113.992,262.031 113.860,262.020 113.792 C 262.009 113.723,262.079 113.667,262.177 113.667 C 262.274 113.667,262.307 113.592,262.250 113.500 C 262.193 113.408,262.210 113.333,262.287 113.333 C 262.407 113.333,262.964 111.733,263.012 111.250 C 263.021 111.158,263.106 110.990,263.201 110.875 C 263.296 110.760,263.316 110.667,263.245 110.667 C 263.173 110.667,263.243 110.525,263.400 110.352 C 263.556 110.179,263.697 109.879,263.711 109.685 C 263.726 109.492,263.805 109.333,263.887 109.333 C 263.969 109.333,263.993 109.223,263.942 109.089 C 263.890 108.954,263.921 108.799,264.010 108.744 C 264.099 108.689,264.129 108.574,264.076 108.488 C 264.023 108.403,264.064 108.333,264.167 108.333 C 264.269 108.333,264.307 108.258,264.250 108.167 C 264.193 108.075,264.217 108.000,264.302 108.000 C 264.448 108.000,264.953 106.489,264.852 106.352 C 264.826 106.316,264.877 106.241,264.965 106.185 C 265.444 105.881,266.400 102.167,266.000 102.167 C 265.908 102.167,265.852 102.079,265.875 101.972 C 265.979 101.485,265.098 101.348,261.856 101.348 C 258.657 101.348,257.304 101.548,257.570 101.979 C 257.622 102.063,257.545 102.178,257.398 102.234 C 257.250 102.291,257.173 102.444,257.225 102.579 C 257.277 102.713,257.246 102.868,257.157 102.923 C 257.068 102.978,257.038 103.093,257.090 103.178 C 257.143 103.264,257.122 103.333,257.044 103.333 C 256.916 103.333,256.397 104.715,256.292 105.333 C 256.269 105.471,256.209 105.621,256.159 105.667 C 256.085 105.733,255.659 106.980,255.588 107.333 C 255.579 107.379,255.478 107.585,255.363 107.792 C 255.249 107.998,255.204 108.167,255.265 108.167 C 255.325 108.167,255.281 108.279,255.167 108.417 C 255.053 108.554,255.025 108.668,255.105 108.669 C 255.185 108.671,255.168 108.727,255.069 108.794 C 254.834 108.953,253.955 111.331,253.761 112.333 C 253.752 112.379,253.685 112.510,253.613 112.625 C 253.540 112.740,253.534 112.833,253.599 112.833 C 253.665 112.833,253.582 112.984,253.416 113.168 C 253.249 113.352,253.162 113.551,253.222 113.611 C 253.282 113.670,253.258 113.807,253.169 113.914 C 253.079 114.022,252.973 114.291,252.932 114.513 C 252.892 114.735,252.844 114.954,252.826 115.000 C 252.808 115.046,252.803 115.140,252.814 115.208 C 252.824 115.277,252.766 115.333,252.683 115.333 C 252.492 115.333,252.140 116.323,252.262 116.519 C 252.312 116.600,252.288 116.667,252.209 116.667 C 252.060 116.667,251.444 118.232,251.444 118.614 C 251.444 118.735,251.374 118.833,251.288 118.833 C 251.202 118.833,251.171 118.937,251.219 119.063 C 251.268 119.189,251.223 119.377,251.120 119.480 C 251.017 119.583,251.005 119.668,251.092 119.669 C 251.179 119.671,251.157 119.731,251.042 119.804 C 250.928 119.876,250.818 120.142,250.797 120.395 C 250.776 120.648,250.663 120.934,250.546 121.031 C 250.429 121.128,250.333 121.371,250.333 121.570 C 250.333 121.770,250.268 122.005,250.187 122.092 C 249.950 122.349,249.343 124.121,249.454 124.231 C 249.510 124.288,249.478 124.333,249.383 124.333 C 249.217 124.333,248.719 125.784,248.796 126.042 C 248.816 126.110,248.762 126.167,248.674 126.167 C 248.526 126.167,248.281 127.064,248.337 127.398 C 248.351 127.479,248.285 127.593,248.192 127.651 C 248.098 127.709,247.986 127.980,247.941 128.253 C 247.897 128.526,247.845 128.769,247.826 128.792 C 247.807 128.815,247.773 128.908,247.750 129.000 C 247.727 129.092,247.690 129.204,247.667 129.250 C 247.644 129.296,247.616 129.427,247.604 129.542 C 247.593 129.656,247.440 129.750,247.266 129.750 C 246.970 129.750,246.834 129.483,246.801 128.833 C 246.794 128.696,246.718 128.495,246.633 128.387 C 246.548 128.279,246.448 127.947,246.410 127.649 C 246.373 127.352,246.284 127.065,246.213 127.012 C 246.141 126.960,246.057 126.729,246.024 126.500 C 245.992 126.271,245.880 126.028,245.774 125.961 C 245.669 125.894,245.655 125.837,245.742 125.836 C 245.829 125.834,245.816 125.749,245.713 125.646 C 245.610 125.544,245.566 125.356,245.614 125.230 C 245.663 125.103,245.635 125.000,245.553 125.000 C 245.471 125.000,245.392 124.832,245.376 124.627 C 245.361 124.423,245.274 124.230,245.183 124.200 C 245.093 124.170,245.060 124.037,245.111 123.906 C 245.161 123.774,245.115 123.667,245.008 123.667 C 244.901 123.667,244.849 123.610,244.892 123.540 C 244.935 123.470,244.853 123.152,244.709 122.832 C 244.566 122.512,244.463 122.156,244.481 122.042 C 244.500 121.927,244.436 121.833,244.341 121.833 C 244.245 121.833,244.181 121.777,244.198 121.708 C 244.267 121.440,243.965 120.500,243.810 120.500 C 243.720 120.500,243.690 120.430,243.743 120.345 C 243.796 120.260,243.766 120.145,243.677 120.090 C 243.588 120.034,243.557 119.879,243.608 119.745 C 243.660 119.610,243.619 119.500,243.518 119.500 C 243.416 119.500,243.348 119.444,243.365 119.375 C 243.433 119.107,243.131 118.167,242.977 118.167 C 242.887 118.167,242.857 118.097,242.910 118.012 C 242.962 117.926,242.932 117.811,242.843 117.756 C 242.754 117.701,242.723 117.546,242.775 117.411 C 242.827 117.277,242.786 117.167,242.684 117.167 C 242.583 117.167,242.514 117.110,242.532 117.042 C 242.589 116.817,242.310 115.833,242.189 115.833 C 242.124 115.833,242.059 115.671,242.044 115.473 C 242.029 115.275,241.957 115.069,241.883 115.015 C 241.810 114.961,241.724 114.729,241.691 114.500 C 241.659 114.271,241.559 114.037,241.469 113.981 C 241.379 113.925,241.319 113.829,241.337 113.768 C 241.365 113.672,241.206 113.076,241.087 112.833 C 241.065 112.787,240.989 112.506,240.919 112.208 C 240.849 111.910,240.726 111.667,240.646 111.667 C 240.566 111.667,240.515 111.610,240.534 111.542 C 240.608 111.267,240.308 110.167,240.159 110.167 C 240.072 110.167,240.009 110.110,240.020 110.042 C 240.031 109.973,240.025 109.879,240.007 109.833 C 239.990 109.787,239.941 109.566,239.900 109.341 C 239.859 109.115,239.733 108.873,239.621 108.801 C 239.509 108.730,239.469 108.671,239.533 108.669 C 239.684 108.666,239.325 107.614,239.129 107.484 C 239.046 107.429,238.939 107.129,238.890 106.817 C 238.841 106.505,238.752 106.212,238.692 106.167 C 238.632 106.121,238.559 105.911,238.530 105.700 C 238.500 105.490,238.356 105.040,238.209 104.700 C 237.872 103.923,237.853 103.865,237.730 103.208 C 237.674 102.910,237.558 102.667,237.471 102.667 C 237.385 102.667,237.360 102.592,237.417 102.500 C 237.473 102.408,237.436 102.333,237.333 102.333 C 237.231 102.333,237.188 102.267,237.238 102.186 C 237.341 102.019,236.963 101.657,236.633 101.607 C 236.514 101.589,236.334 101.523,236.234 101.460 C 235.852 101.220,229.444 101.346,228.958 101.602 M289.394 108.324 C 289.656 108.424,289.956 108.493,290.060 108.477 C 290.273 108.444,290.599 108.560,291.619 109.032 C 292.006 109.211,292.381 109.363,292.453 109.371 C 292.524 109.378,292.675 109.504,292.786 109.650 C 292.898 109.797,292.993 109.842,292.997 109.750 C 293.002 109.658,293.076 109.696,293.163 109.833 C 293.250 109.971,293.418 110.087,293.536 110.091 C 293.654 110.095,293.731 110.189,293.708 110.299 C 293.685 110.410,293.766 110.500,293.888 110.500 C 294.144 110.500,294.737 111.118,294.887 111.542 C 294.943 111.702,295.071 111.833,295.171 111.833 C 295.271 111.833,295.306 111.909,295.249 112.001 C 295.192 112.093,295.262 112.214,295.405 112.269 C 295.548 112.323,295.623 112.436,295.572 112.519 C 295.521 112.601,295.580 112.708,295.704 112.756 C 295.828 112.803,295.942 113.002,295.957 113.198 C 295.971 113.393,296.081 113.615,296.200 113.691 C 296.319 113.766,296.356 113.829,296.282 113.831 C 296.208 113.832,296.206 113.927,296.277 114.042 C 296.349 114.156,296.425 114.325,296.447 114.417 C 296.469 114.508,296.624 115.183,296.791 115.917 L 297.095 117.250 287.329 117.250 L 277.563 117.250 277.712 116.417 C 277.942 115.129,277.945 115.119,278.182 114.500 C 278.305 114.179,278.390 113.860,278.370 113.792 C 278.350 113.723,278.413 113.667,278.510 113.667 C 278.607 113.667,278.640 113.592,278.583 113.500 C 278.527 113.408,278.564 113.333,278.667 113.333 C 278.769 113.333,278.807 113.258,278.750 113.167 C 278.693 113.075,278.731 113.000,278.833 113.000 C 278.936 113.000,278.973 112.925,278.917 112.833 C 278.860 112.742,278.874 112.667,278.948 112.667 C 279.023 112.667,279.303 112.392,279.571 112.055 C 279.839 111.719,279.952 111.509,279.821 111.588 C 279.690 111.667,279.883 111.439,280.250 111.083 C 280.617 110.726,280.967 110.430,281.029 110.425 C 281.091 110.420,281.413 110.177,281.745 109.883 C 282.076 109.589,282.385 109.353,282.431 109.359 C 282.649 109.383,283.500 108.941,283.500 108.803 C 283.500 108.717,283.573 108.692,283.663 108.748 C 283.753 108.803,283.996 108.758,284.204 108.647 C 284.412 108.535,284.796 108.428,285.056 108.407 C 285.317 108.386,285.595 108.305,285.673 108.227 C 285.874 108.026,288.815 108.103,289.394 108.324 M362.659 127.724 C 362.557 128.380,362.448 129.104,362.418 129.333 C 362.387 129.563,362.242 130.031,362.096 130.375 C 361.949 130.719,361.882 131.000,361.946 131.000 C 362.011 131.000,361.918 131.110,361.740 131.245 C 361.562 131.379,361.473 131.492,361.543 131.495 C 361.612 131.498,361.462 131.734,361.210 132.021 C 360.957 132.307,360.771 132.613,360.796 132.700 C 360.821 132.787,360.778 132.819,360.701 132.771 C 360.575 132.694,359.944 133.287,359.924 133.500 C 359.920 133.546,359.866 133.566,359.803 133.546 C 359.741 133.525,359.500 133.733,359.268 134.009 C 359.036 134.285,358.787 134.508,358.715 134.504 C 358.642 134.500,358.433 134.626,358.250 134.783 C 358.067 134.940,357.879 135.054,357.833 135.036 C 357.680 134.977,357.167 135.188,357.167 135.309 C 357.167 135.375,357.005 135.441,356.807 135.456 C 356.609 135.471,356.394 135.568,356.330 135.673 C 356.265 135.777,356.184 135.842,356.148 135.817 C 356.112 135.793,355.896 135.831,355.667 135.903 C 355.438 135.975,355.088 136.022,354.891 136.007 C 354.693 135.992,354.482 136.061,354.421 136.160 C 354.360 136.258,354.237 136.293,354.147 136.238 C 354.057 136.182,353.856 136.194,353.700 136.263 C 353.275 136.451,349.948 136.473,349.710 136.289 C 349.597 136.201,349.391 136.173,349.252 136.226 C 349.113 136.279,349.000 136.246,349.000 136.151 C 349.000 136.056,348.869 135.998,348.708 136.022 C 348.548 136.046,348.098 135.899,347.708 135.696 C 347.319 135.493,347.000 135.382,347.000 135.450 C 347.000 135.518,346.882 135.406,346.739 135.201 C 346.595 134.996,346.396 134.878,346.296 134.940 C 346.188 135.006,346.163 134.974,346.234 134.859 C 346.305 134.745,346.247 134.667,346.093 134.667 C 345.950 134.667,345.849 134.610,345.869 134.542 C 345.889 134.473,345.712 134.117,345.477 133.750 C 344.348 131.993,344.398 130.289,345.625 128.681 C 345.865 128.367,345.953 128.174,345.822 128.253 C 345.618 128.376,345.617 128.356,345.811 128.117 C 345.936 127.963,346.106 127.879,346.190 127.931 C 346.273 127.983,346.321 127.929,346.296 127.812 C 346.271 127.694,346.346 127.595,346.464 127.591 C 346.582 127.587,346.741 127.483,346.816 127.361 C 346.892 127.238,347.021 127.144,347.102 127.150 C 347.386 127.174,347.833 126.976,347.833 126.827 C 347.833 126.745,347.946 126.720,348.083 126.773 C 348.221 126.826,348.333 126.788,348.333 126.690 C 348.333 126.591,348.446 126.554,348.583 126.606 C 348.721 126.659,348.833 126.622,348.833 126.523 C 348.833 126.424,348.938 126.384,349.066 126.433 C 349.195 126.482,349.347 126.446,349.405 126.352 C 349.463 126.258,349.613 126.221,349.738 126.269 C 349.864 126.317,350.017 126.275,350.078 126.175 C 350.139 126.076,350.255 126.035,350.334 126.084 C 350.414 126.133,350.802 126.091,351.198 125.991 C 351.593 125.891,352.155 125.817,352.446 125.826 C 352.737 125.835,353.023 125.764,353.082 125.668 C 353.141 125.573,353.258 125.537,353.341 125.588 C 353.424 125.640,353.813 125.594,354.204 125.488 C 354.596 125.381,355.322 125.269,355.818 125.239 C 356.314 125.208,356.764 125.123,356.818 125.050 C 356.872 124.977,357.104 124.908,357.333 124.896 C 357.989 124.865,358.993 124.691,359.176 124.578 C 359.268 124.521,359.622 124.451,359.963 124.423 C 360.304 124.395,360.808 124.278,361.083 124.164 C 361.358 124.049,361.763 123.932,361.983 123.903 C 362.203 123.874,362.465 123.768,362.566 123.666 C 362.831 123.401,362.896 126.217,362.659 127.724 " stroke="none" fill="#dcdcdc" fill-rule="evenodd"></path></g></svg>