<?xml version="1.0" encoding="utf-8"?>
<!-- Generator: Adobe Illustrator 25.0.0, SVG Export Plug-In . SVG Version: 6.00 Build 0)  -->
<svg version="1.1" id="Layer_1" xmlns="http://www.w3.org/2000/svg" xmlns:xlink="http://www.w3.org/1999/xlink" x="0px" y="0px"
	 viewBox="0 0 1234.3 475" style="enable-background:new 0 0 1234.3 475;" xml:space="preserve">
<style type="text/css">
	.st0{fill:#F7F8FF;}
	.st1{fill:#CCCCCC;}
</style>
<path class="st0" d="M841.1,13.2h-1.9H718.1L565.8,358H392.2v-80.6h196V184h-196v-74.3h222.6V13.2h-346l0,0l-36.6-2.1L204,99.3
	l64.7,15.6v151.3h-139l-41.2,90.1h180.2v98h254.7h99.7h27.7l34.7-85.7H872l34.7,85.7h68h61.7h63.1V112.1h134.8v-99L841.1,13.2
	L841.1,13.2z M722.1,276.7l56.8-141.1l56.8,141.1H722.1z M884.8,112.1h89.9v202.8L884.8,112.1z"/>
<path class="st1" d="M252.9,16.7C214-2.2,160.7,27.4,133.7,82.8c-12.1,25.1-17,51.2-14.9,74l0,0c6.5,94.8-50.5,152-98.5,227.2
	S18,485.4,67.1,406.9c49.4-78.5,93.8-151.6,162.3-201.2l0,0c17.7-12.6,33.5-31.2,44.9-54.5C301.1,95.8,291.6,35.5,252.9,16.7z"/>
</svg>
