<?xml version="1.0" encoding="utf-8"?>
<!-- Generator: Adobe Illustrator 25.0.0, SVG Export Plug-In . SVG Version: 6.00 Build 0)  -->
<svg version="1.1" id="Layer_1" xmlns="http://www.w3.org/2000/svg" xmlns:xlink="http://www.w3.org/1999/xlink" x="0px" y="0px"
	 viewBox="0 0 1234.3 570" style="enable-background:new 0 0 1234.3 570;" xml:space="preserve">
<style type="text/css">
	.st0{fill:#FFFFFF;}
</style>
<path class="st0" d="M859.1,291.1c-1.4,3.6-2.6,6.8-3.6,10.1c-2.3,7.9-5,15.8-7.9,23.6c-3.6,9.7-3.6,19.6-1.8,29.7
	c2.2,12.2,4.2,24.6,0.4,37c-1.8,5.9-4.6,11.4-9.1,15.7c-4.9,4.8-10.8,7.8-17.8,8.2c-14.4,1.1-28.8,0.3-43.1,0.3
	c-9.1,0-18.1-0.9-27-2.9c-2.9-0.7-5.9-1.4-8.4-3.4c-6-4.8-4.2-13.3,0.5-17.8c6.8-6.4,15.1-10.3,23-15c6.4-3.9,12.2-8.5,15.1-15.9
	c1.9-4.8,2.1-9.7,0.1-14.4c-2.1-4.9-5.4-9.1-8.8-13.2c-4.8-5.5-10.5-10.3-13.5-17.2c-1.7-3.9-1.8-8-0.3-11.8
	c3-7.9,4.8-15.9,6.1-24.3c1.1-7.3,1.7-14.5,1.3-21.8c-0.4-6.1-1.4-12.2-1.7-18.3c-0.5-8.2-1.9-16.3-2.8-24.5
	c-0.8-7.6-1.7-15.2-2.9-22.7c-1.2-6.8-1.5-13.8-2.3-20.7c-0.7-7-1-14-2.2-20.9c-0.5-2.6-0.3-5.1-0.6-7.7c-0.6-6-0.4-12-1.1-17.9
	c-1.1-8.4-1.4-16.9-2.6-25.3c-1.1-7.9-1.1-16-0.3-24c0.5-4.2,0.2-8.5-0.7-12.5c-1.6-8.7-3.2-17.4-5.2-26c-1-4.1-1.4-8.2-1.7-12.4
	c-0.6-5.7,1-11.2,5-15.3c1.9-2,4.9-2.6,7.7-3.2c5.5-1.4,11.2-1.5,16.9-1.4c5.4,0.1,10.9,0.2,16.3-0.1c6.6-0.4,12.8,1.1,19.2,2.2
	c4.8,0.8,9.7,1.4,14.4,2.9c8.3,2.5,16.7,4.6,24.8,7.7c6.2,2.3,12.2,4.9,18.3,7.6c7.9,3.6,15.5,7.9,22.9,12.5
	c6.9,4.2,13.5,8.8,19.9,13.7c6.7,5.1,13.3,10.5,19,16.8c7.6,8.5,14.1,17.8,19.3,28c2.9,5.5,5.3,11.2,8,16.7c0.9,1.8,1.5,3.8,2,5.7
	c2.3,9,4.8,18,5.6,27.4c0.5,5.7,1.8,11.4,2.7,17.1c2,13.1,2,26.1-2.3,39c-2.2,6.6-4.8,13-7.9,19.2c-5.1,10.3-11.9,19-21.6,25.5
	c-3.5,2.3-7.3,4.8-7.6,9.7c-0.2,3.2,0.4,6.3,1.1,9.3c2.7,11.1,6.3,21.9,10.8,32.5c3.2,7.7,7.7,14.8,12.2,21.9
	c2.9,4.5,5.1,9.5,7.2,14.4c2.7,6.3,5.6,12.5,8.5,18.7c1.6,3.5,2.2,7.3,2.6,11c0.5,5.4,0.1,10.9-1.4,16.2
	c-1.7,6.2-5.3,11.1-10.7,14.8c-10.4,7.2-21.5,12.4-33.9,14.7c-5.6,1.1-11.5,1.6-17.1,0.1c-9.1-2.3-12.8-10.7-8-19
	c2-3.4,4.2-6.7,6.2-10.1c2.1-3.6,1.6-6.8-0.9-10.1c-3.4-4.3-7.3-8.2-11.4-11.9c-8.8-7.9-15.1-17.4-19.3-28.4
	c-2.9-7.5-4.8-15.1-6.6-22.8c-1.1-4.4-1.1-8.9-1.6-13.5C859.9,293.7,859.8,292.7,859.1,291.1z M806.9,112.7
	c0.5,4.8,0.8,9.9,1.7,14.8c1.8,9,3.6,18.1,7,26.7c2.2,5.4,4.7,10.7,7,16.2c2.8,6.6,7.9,10.2,15.3,9.7c5-0.4,9.9-1.5,14.6-3.1
	c7.5-2.6,13.9-6.9,19.9-12.1c7.5-6.6,12.5-14.7,13.1-24.9c0.6-8.5-2.6-15.9-7.9-22.4c-4.4-5.4-9.8-9.4-15.8-13.1
	c-9.4-5.8-19.4-9.9-30.2-12.3c-3.5-0.8-7-1.1-10.5-1.6c-7.3-0.9-10.8,1-12.2,7C807.7,102.5,807.5,107.6,806.9,112.7z"/>
<path class="st0" d="M474.4,212.4c2.3-3,5.5-4.8,8.4-6.7c5.6-3.9,10.5-8.5,14.9-13.5c7.9-9.1,13.1-19.7,16.5-31.4
	c3.3-11.6,4.1-23.5,4-35.4c-0.1-10.4-1.1-20.6-3.2-30.8c-1.9-8.8-3.8-17.8-7-26.3c-1.1-2.8-1.7-5.7-2.1-8.7
	c-0.4-2.9,1.4-5.3,3.4-7.2c6-5.6,11.6-11.5,18-16.6c5-4.1,10.4-6.4,17-6.3c6.1,0.1,12.2-0.9,18.3-1.6c10.6-1.2,21.1-2.9,31.7-3.7
	c15.3-1.1,30.7-1.1,45.9-1.4c8.6-0.2,17-2.3,25.1-5.6c5-2,10.1-3.9,15.5-4.5c7.3-0.7,17.8,3.6,20.3,11.9c1.4,4.7,2.9,9.3,4.3,14
	c1.1,4.1,3.2,7.7,5.4,11.3c3.3,5.6,6.9,11.1,9.7,17c1.1,2.3,1.7,4.7-0.2,6.8c-2.5,2.7-5.3,5-9.2,4.1c-4.4-1.1-8.4-3.2-12.2-5.6
	c-6-3.9-12.2-7.1-18.8-9.8c-7.5-3.1-15.2-5.5-23.1-6.6c-7.2-1-14.5-1.5-21.8,0.3c-4,1-7.3,3.3-9.8,6.6c-4.4,5.4-6,11.8-6.7,18.6
	c-0.8,7.9,0.2,15.8,0.9,23.7c0.5,5.7,0.6,11.3,1.2,16.9c0.6,5.4,1.1,11,3.9,16.1c3.4,6,8.3,8,15,5.7c5.9-2,11.9-3.3,18.1-4.2
	c7-1,13.7-2.7,19-7.9c2.3-2.2,4.9-4.1,8-5.2c1.7-0.6,3-0.3,4.4,0.5c5.8,3.4,9.7,8.2,10.1,15.2c0.5,7.9,1.1,15.6,1.6,23.5
	c0.2,2.1-0.1,4.2-0.5,6.3c-1.2,6.7-7.9,8.8-13.7,7.6c-4.1-0.8-7.9-2.5-11.3-4.7c-4.2-2.7-8.8-4.5-13.8-4.8c-9.5-0.7-19-0.2-28.2,2
	c-8.7,2-9.4,6-10.2,13.3c-0.8,6.9,0.5,13.7,1.7,20.4c1.4,7.4,2.5,14.9,4.5,22.2c1.1,3.7,2.3,7.5,4.6,10.6c1.9,2.6,5.1,4,8.2,4.7
	c6.4,1.3,12.8,0.3,19.3-0.3c4.1-0.4,8.2-1.2,12.2-1.5c6.1-0.5,11.5-2.7,16.9-5.4c6.3-3.1,12.4-6.8,18.9-9.7c5.3-2.4,10.7-5,16.8-5
	c6.2-0.1,10.3,7.4,7.3,12.8c-2.4,4.4-5.9,7.9-8.7,11.9c-2.6,3.7-4.5,7.7-6,11.8c-2.7,7.4-6.2,14.1-11.9,19.6
	c-3.2,3.1-4.4,7.2-4.4,11.6c0,4.6-0.2,9.3,0,13.9c0.3,7.4-1.4,14.6-2,21.9c-0.4,5.3-1.2,10.6-1.6,15.9c-1,12.2-0.6,24.5-1,36.7
	c-0.2,4.4-1.6,8.2-5.7,11.3c-10.1,7.2-21,11.5-33.2,12.5c-7.2,0.6-13.6-2.1-19-7c-2.3-2.1-4.7-4.2-6-7.2c-2.6-5.5-2-8.6,2-12.8
	c4.5-4.7,10.1-8.5,13.1-14.5c2-4.2,2.4-8.7,2-13.4c-0.7-7.1-2-14.1-3.2-21c-1.4-8.5-2.2-17.1-6-24.9c-1.2-2.5-2.9-4.8-4.5-7.2
	c-1.1-1.5-2-1.2-2.9-0.2c-2.6,3-5.6,5.7-7.9,9.1c-4,5.7-7.2,11.9-9.5,18.4c-4.8,13.2-10.6,26-17.3,38.3c-3.6,6.6-7.7,13-12,19.3
	c-6.7,9.7-13.5,19.3-19.3,29.5c-2.9,5.2-6.1,10.3-10.5,14.5c-2.9,2.7-6.2,5.1-9.8,6.6c-4.8,2-9.6,4.2-14.8,5c-6,0.9-11.9,1-17.9,0.4
	c-6.3-0.5-12.1-2.5-17.8-4.9c-3.6-1.5-6.7-3.8-10.3-5.3c-4.9-2.1-10.1-2.3-15.2-2.6c-2.7-0.2-5.5-0.2-8.2-0.8
	c-4.1-1.1-6.5-3.7-6.9-7.5c-0.4-3.9,2.3-6.1,5.1-7.8c6.8-4,14.3-6.1,22.1-7.4c5.7-1,11.3-2.4,16.7-4.4c5.2-1.9,7.6-6.2,8.8-11.3
	c2-8.6,1.4-17.3,1.1-26.1c-0.2-8.2,0.6-16.3,3.5-24.1c1.9-5.1,3.7-10.3,5.7-15.3c3.7-9.8,7.4-19.7,11.2-29.5
	c2.6-6.9,5.2-13.8,5.3-21.2c0.1-6.6-1.7-12.8-5.5-18.4c-2.9-4.2-5.1-8.8-7.8-13.1c-3.2-5.1-7.6-8.8-12.7-11.9
	c-7.3-4.4-15.4-5.3-23.3-7.3C482.9,214.2,478.7,213.4,474.4,212.4z"/>
<path class="st0" d="M483.3,91c0.4,9.7-1.7,16.7-7.9,22.4c-3,2.7-6.3,5.3-8.8,8.7c-2.2,2.9-2.4,4.5-0.1,7.3c3.3,4,7.3,7.3,10.6,11.3
	c1.7,2,2.7,4.2,3.7,6.5c2.6,6.5,2.5,13.1,0.6,19.9c-2.3,7.7-6,14.5-10.8,20.9c-5.1,6.6-12.3,9.7-20,12.3c-9.9,3.3-19.9,3.1-30.2,2.3
	c-8.6-0.6-17.1-2-25.5-3.6c-5.8-1-11.6-2.5-17.5-3.6c-6.8-1.3-13.5-2.9-20-5.1c-9.1-3-18.1-6.3-27.1-9.5c-4.8-1.7-9.7-2.8-14.7-2.6
	c-9.6,0.2-19-0.7-28.3-3c-2.6-0.6-2.9-2.1-1.3-4.2c2-2.6,5.1-4,6.6-7.1c1.6-3.3,1.6-3.4-1.7-4.7c-4.3-1.7-8.9-1.8-13.5-2.4
	c-1.2-0.2-1.7-0.5-2-1.5c-1.6-4.3-3.5-8.5-6-12.3c-1.7-2.8-3.8-5.4-5.9-7.9c-2.1-2.4-2-5.8,0.7-7.6c6.1-4.1,12.8-7,19.6-9.9
	c7.3-3.1,15-5.2,22-9.1c5.7-3.2,9.5-8,12.5-13.7c3.8-7,7.4-14.2,13.2-19.9c4.4-4.2,9.8-6.3,15.3-8.5c7.8-3,15.9-5.1,23.1-9.7
	c2.9-1.8,3.9-4.9,5-8c1.1-3.1,1.5-6.5,4.5-8.6c4.7-3.5,9.8-4.3,15.3-2.2c7.7,3,15.5,5.5,23.9,6.3c4.9,0.5,9.8,1.5,14.7,3
	c5.9,1.8,12,2.8,18.1,4.2c7.8,1.9,14.5,5.8,20.2,11.3c5.2,5.1,9.1,11,10.7,18.6C482.7,85,483.3,88.8,483.3,91z M453.5,154
	c0-1.7-0.1-2.8,0-3.9c0.2-4.5-1.9-7.9-5.5-9.7c-6.4-3.2-13.1-5.8-20.6-5.8c-4.5,0-7.4,2-9.7,5.3c-3,4.4-4.5,9.4-5.6,14.5
	c-0.8,3.7-1,7.6-1.7,11.3c-0.8,4.1-0.4,8,1,11.9c1.1,3.2,3.4,4.7,6.6,5.1c6.4,0.9,12.5-0.2,18.5-2.3c4.5-1.7,8.7-3.7,11.6-7.7
	C452.4,166.9,453.8,160.4,453.5,154z M438.4,74c-10.4,0.3-13.9,2.5-15.8,12.4c-0.6,3.2-1.3,6.5-1.7,9.7c-0.8,5.3-1,10.6,0.3,15.8
	c0.5,2.1,1.3,4.4,3.3,5.4c2.8,1.4,5.8,2.4,9.1,1.5c2.3-0.7,4.7-1.1,7-1.9c3-1.1,6.6-2.1,8.1-5c4.6-8.5,7.3-17.7,5.1-27.6
	c-0.9-3.9-2.9-7.3-7.1-8.8C443.9,74.7,441,73.8,438.4,74z"/>
<path class="st0" d="M323.4,532.2c0.8-0.6,0.6-1.2,0.6-1.7c0-19.7,0-39.4-0.1-59.1c0-2.3,0.6-3,2.9-2.8c2.4,0.2,4.9,0.2,7.3,0
	c2-0.2,2.8,0.4,2.8,2.6c-0.2,13.5-0.1,26.8-0.1,40.3c0,16.7,0,33.3,0,50c0,1,0.7,2.5-1,2.9c-1.6,0.4-3.1,0.4-4.3-1.3
	c-10.4-14.9-21-29.7-31.4-44.6c-4.8-6.8-9.6-13.7-14.4-20.5c-0.3-0.5-0.6-1-1.6-1.1c0,0.9,0,1.7,0,2.6c0,20.3,0,40.7,0.1,61
	c0,2-0.4,2.7-2.5,2.6c-2.6-0.2-5.4-0.1-8.1,0c-1.4,0-2-0.4-2-2c0.1-30.2,0.1-60.4,0-90.5c0-1.4,0.4-1.9,1.9-2
	c2.6-0.2,4.2,0.7,5.8,2.9c14.4,19.9,28.9,39.9,43.4,59.8C322.8,531.5,323.1,531.8,323.4,532.2z"/>
<path class="st0" d="M852.6,515.7c0-14.8,0.1-29.6-0.1-44.4c0-2,0.4-2.8,2.6-2.8c17.2,0.1,34.3,0.1,51.5,0c2,0,2.8,0.4,2.6,2.5
	c-0.2,2.3-0.2,4.5-0.1,6.8c0.2,2-0.6,2.6-2.6,2.6c-12.6-0.1-25.2,0.1-37.9-0.1c-2.5,0-3.1,0.6-3.1,3.1c0.2,6.8,0.2,13.7,0,20.5
	c0,1.9,0.5,2.3,2.3,2.3c8.8-0.1,17.6,0,26.4-0.2c2,0,2.6,0.5,2.5,2.5c-0.2,2.2-0.2,4.4,0,6.6c0.2,1.7-0.5,2.2-2.2,2.2
	c-8.6-0.1-17.2,0.1-25.8-0.1c-2.3,0-3.2,0.4-3.2,3c0.2,9.4,0.2,18.9,0,28.3c0,2.2,0.7,2.7,2.8,2.7c12.5-0.1,25.1-0.1,37.6-0.2
	c2,0,2.6,0.5,2.5,2.5c-0.2,2.3-0.2,4.5-0.1,6.8c0.2,2-0.5,2.5-2.4,2.5c-10.7-0.1-21.5-0.1-32.2,0c-6.2,0-12.4-0.1-18.5,0.1
	c-2,0.1-2.8-0.4-2.8-2.6C852.6,545.5,852.6,530.6,852.6,515.7z"/>
<path class="st0" d="M505.3,515.6c0-14.9,0-29.8-0.1-44.7c0-1.9,0.5-2.5,2.4-2.5c17.3,0.1,34.7,0.1,52,0c1.8,0,2.4,0.5,2.3,2.3
	c-0.2,2.4-0.2,4.9,0,7.3c0.2,2.2-1,2.3-2.6,2.3c-12.6,0-25.2,0.1-37.9-0.1c-2.6,0-3.1,0.8-3,3.2c0.2,6.8,0.2,13.7,0,20.5
	c0,1.9,0.6,2.3,2.3,2.3c8.8-0.1,17.6,0,26.4-0.2c2,0,2.6,0.6,2.5,2.6c-0.2,2.2-0.2,4.4-0.1,6.6c0.1,1.8-0.6,2.1-2.3,2.1
	c-8.8-0.1-17.8,0-26.6-0.1c-1.8,0-2.3,0.5-2.3,2.3c0.1,9.7,0.1,19.5,0,29.3c0,2,0.8,2.4,2.6,2.4c12.5-0.1,25.1,0,37.6-0.2
	c2.1,0,2.6,0.7,2.5,2.6c-0.2,2.3-0.2,4.8,0,7.1c0.1,1.7-0.5,2-2.1,2c-7.9-0.1-15.8,0-23.7,0c-9.2,0-18.4,0-27.6,0.1
	c-1.9,0-2.4-0.5-2.4-2.4C505.3,545.6,505.3,530.7,505.3,515.6z"/>
<path class="st0" d="M355.8,515.7c0-14.9,0.1-29.8-0.1-44.7c0-2,0.5-2.6,2.6-2.6c17.2,0.1,34.3,0.1,51.5,0c2.1,0,2.9,0.5,2.6,2.7
	c-0.2,1.7-0.1,3.6-0.1,5.4c-0.1,4,0.8,3.9-4,3.9c-12,0-24.1,0-36.1,0c-3.3,0-3.3,0-3.3,3.2c0,6.7,0.1,13.5-0.1,20.3
	c-0.1,2,0.7,2.4,2.5,2.4c8.7-0.1,17.4,0,26.1-0.2c1.9,0,2.6,0.5,2.5,2.4c-0.2,2.3-0.2,4.5-0.1,6.8c0.1,1.7-0.6,2-2.1,2
	c-8.8-0.1-17.8,0-26.6-0.1c-1.7,0-2.3,0.4-2.3,2.3c0.1,9.7,0.1,19.5,0,29.3c0,2,0.6,2.5,2.5,2.5c12.5-0.1,25.1-0.1,37.6-0.2
	c2,0,2.7,0.5,2.6,2.6c-0.2,2.3-0.2,4.5,0,6.8c0.2,1.8-0.4,2.6-2.3,2.3c-0.5-0.1-1.1,0-1.7,0c-16.3,0-32.7,0-49,0.1
	c-2.3,0-2.8-0.8-2.8-2.9C355.8,545.3,355.8,530.5,355.8,515.7z"/>
<path class="st0" d="M461.7,564.7c-17.4,0-30.5-9.2-36.2-25.8c-5.5-16-5.6-32.1,1.3-47.8c5-11.4,13.2-19.7,25.8-23.1
	c6.2-1.7,12.5-1.5,18.9-0.8c4.7,0.6,9.2,1.7,13.5,3.6c1.4,0.7,2,1.4,1.2,2.9c-1.1,2.4-2,4.9-2.9,7.5c-0.5,1.5-1.1,1.7-2.6,0.9
	c-7.5-3.9-15.5-4.4-23.5-2.8c-7.4,1.4-12.6,6.4-15.9,13c-7.3,14.7-8.1,29.8-1.3,44.7c7.9,17.6,26.1,18.7,37.9,11.4
	c1.7-1.1,3.1-2.6,4.5-4.1c0.9-1,1.5-1,2.3,0.2c1.7,2.6,3.6,5.1,5.4,7.5c0.9,1.2,0.2,1.9-0.7,2.6c-7,6.4-15.5,9.3-24.9,9.8
	C463.5,564.8,462.6,564.7,461.7,564.7z"/>
<path class="st0" d="M941.3,564.8c-7.8,0-14.3-1.4-20.4-4.7c-1.6-0.8-2-1.7-1.2-3.5c1.3-2.7,2.3-5.6,3.3-8.4c0.5-1.3,1-1.4,2.3-0.7
	c5.7,3.5,11.9,5.4,18.7,5.1c6.6-0.2,12.5-4.3,14.3-9.9c1.9-6.2-0.5-13-5.7-16.9c-5-3.6-10.7-5.8-16.2-8.5c-6.3-3-12.2-6.6-15.2-13.4
	c-6.2-14.4-1.4-30.7,15-35.8c5.9-1.9,12-1.6,18.1-0.8c4,0.5,7.9,1.4,11.5,3.6c1.3,0.8,1.6,1.5,1.1,2.9c-1,2.6-1.9,5.2-2.6,7.9
	c-0.5,1.5-1,1.7-2.4,0.9c-5.1-2.6-10.4-4.4-16.3-4.3c-6.2,0.1-11,3-12.8,8c-2.1,6-0.4,12.8,4.5,16.5c3.6,2.8,7.7,4.4,11.7,6.4
	s8.2,3.7,12,6.3c9.5,6.6,11.9,16,10.9,26.7c-1.1,11.2-11,19.3-21.8,21.5C946.9,564.5,943.6,565,941.3,564.8z"/>
<path class="st0" d="M593.9,564.7c-7.7,0.1-14.3-1.4-20.5-4.7c-1.6-0.8-2-1.7-1.2-3.5c1.3-2.7,2.3-5.6,3.3-8.4
	c0.5-1.2,1.1-1.4,2.3-0.7c5.7,3.4,11.7,5.4,18.4,5.1c7-0.2,12.6-4.1,14.5-10.2c1.9-6-0.5-12.8-6-16.8c-4.9-3.6-10.6-5.7-15.9-8.3
	c-6-2.9-11.7-6.2-14.7-12.5c-6.9-14.4-2.3-31.5,14.8-36.8c5.8-1.8,11.9-1.5,17.8-0.8c4,0.5,7.9,1.4,11.5,3.6
	c1.4,0.8,1.7,1.6,1.1,3.2c-1.1,2.6-1.9,5.1-2.7,7.8c-0.5,1.4-1,1.5-2.3,0.8c-5.2-2.8-10.7-4.5-16.8-4.4c-6,0.2-10.7,3.2-12.4,8.1
	c-2,5.7-0.4,12.4,3.9,16c3.6,3.1,8.1,4.8,12.3,6.9c3.9,2,7.9,3.6,11.4,5.9c7.7,5.1,10.9,12.4,11.6,21.4c1.2,15-10.2,25.2-22.7,27.4
	C599,564.4,596.1,564.8,593.9,564.7z"/>
<path class="st0" d="M657.3,564.8c-7.7,0.1-14.3-1.4-20.5-4.8c-1.7-0.9-2-1.8-1.1-3.5c1.2-2.6,2.1-5.2,3.1-7.9
	c0.5-1.5,1.1-1.9,2.7-0.9c5.6,3.3,11.6,5.2,18.3,5c6.7-0.2,12.5-4,14.4-9.7c2-6.3-0.3-13.2-5.8-17.2c-4.9-3.6-10.6-5.7-15.9-8.3
	c-6.6-3.2-12.8-7-15.6-14.3c-5.7-14.7-0.5-29.9,15.5-35c5.9-1.9,12-1.6,18.1-0.8c4,0.5,7.9,1.4,11.5,3.6c1.4,0.8,1.7,1.7,1,3.2
	c-1,2.3-1.7,4.7-2.5,7.1c-0.5,1.7-1,2.3-2.9,1.3c-5.1-2.7-10.5-4.3-16.3-4.2c-6,0.2-10.6,3.1-12.4,8.2c-2,5.6-0.4,12.5,4,16
	c3.7,3,8.1,4.8,12.3,6.9c5.7,2.8,11.6,5.1,16.1,9.8c4.7,4.8,6.3,10.7,6.9,17c1.5,15.6-10.2,25.5-22.5,27.7
	C662.5,564.5,659.6,564.9,657.3,564.8z"/>
<path class="st0" d="M773.9,521.9c0,12.9-0.1,25.8,0.1,38.8c0,1.9-0.5,2.3-2.3,2.3c-2.6-0.2-5.4-0.2-8.1,0.1
	c-2.2,0.2-2.9-0.6-2.9-2.9c0.1-19.1,0.1-38.2,0.1-57.4c0-6.6-0.1-13.4,0.1-20c0.1-2.1-0.7-2.4-2.5-2.3c-8.2,0.1-16.4,0-24.6,0.2
	c-2.3,0.1-3.2-0.7-3-3c0.2-2,0.2-4.1,0-6.1c-0.2-2.1,0.5-2.9,2.8-2.9c9.7,0.2,19.3,0.1,29,0.1c13.5,0,26.8,0.1,40.3-0.1
	c2.1,0,2.9,0.5,2.8,2.7c-0.2,2.2-0.2,4.4-0.1,6.6c0.2,2-0.6,2.7-2.6,2.7c-8.7-0.1-17.4,0.1-26.1-0.1c-2.3-0.1-2.9,0.8-2.9,2.9
	C774,496.2,773.9,509.1,773.9,521.9z"/>
<path class="st0" d="M831.2,515.7c0,14.9,0,29.8,0.1,44.7c0,2-0.5,2.7-2.6,2.6c-2.9-0.2-5.7-0.1-8.5,0c-1.7,0.1-2.3-0.5-2.3-2.3
	c0.1-6.5,0-13,0-19.5c0-23.2,0-46.3,0-69.5c0-3.2,0-3.2,3.2-3.2c2.6,0,5.2,0.2,7.8-0.1c2-0.2,2.4,0.7,2.4,2.5
	C831.3,486,831.3,500.8,831.2,515.7C831.3,515.7,831.3,515.7,831.2,515.7z"/>
<path class="st0" d="M704.7,515.6c0-14.7,0.1-29.4-0.1-44.1c0-2.3,0.7-3.1,3-2.9c2.7,0.2,5.5,0.1,8.3,0c1.5-0.1,2.1,0.4,2.1,2
	c-0.1,30.1-0.1,60.1-0.1,90.2c0,1.6-0.5,2.2-2.1,2.1c-2.9-0.1-5.9-0.1-8.8,0.1c-2,0.1-2.5-0.6-2.5-2.5
	C704.7,545.6,704.7,530.6,704.7,515.6z"/>
</svg>
