<svg id="svg" xmlns="http://www.w3.org/2000/svg" xmlns:xlink="http://www.w3.org/1999/xlink" viewBox="0, 0, 400,160.41308089500862"><g id="svgg"><path id="path0" d="M211.765 17.249 C 192.261 22.142,189.628 53.260,207.923 62.666 C 212.946 65.248,228.571 65.185,228.571 62.582 C 228.571 62.241,228.975 61.962,229.469 61.962 C 231.909 61.962,237.522 53.080,237.522 49.218 C 237.522 47.020,227.435 47.828,226.872 50.072 C 225.857 54.116,220.534 57.067,216.034 56.078 C 204.833 53.618,202.439 32.294,212.737 26.698 C 217.902 23.891,225.566 26.453,226.808 31.401 C 227.216 33.029,237.542 34.118,237.511 32.530 C 237.311 22.173,223.890 14.208,211.765 17.249 M308.090 17.441 C 289.208 22.315,286.724 53.620,304.493 62.760 C 310.965 66.089,321.258 65.160,325.473 60.867 L 327.711 58.588 327.711 61.308 L 327.711 64.028 331.497 64.028 L 335.284 64.028 335.284 51.635 L 335.284 39.243 325.301 39.243 L 315.318 39.243 315.318 43.029 L 315.318 46.816 320.762 46.816 C 326.828 46.816,327.203 47.378,324.106 51.823 C 314.410 65.737,296.971 47.392,304.976 31.699 C 309.010 23.792,321.394 23.223,324.325 30.809 C 324.837 32.135,335.284 33.438,335.284 32.176 C 335.284 22.002,320.807 14.158,308.090 17.441 M361.412 17.461 C 342.155 22.654,339.789 54.138,357.999 62.882 C 362.973 65.270,374.407 65.063,378.670 62.506 C 387.693 57.096,391.614 47.775,389.793 36.063 C 388.663 28.798,383.453 19.966,380.296 19.966 C 379.837 19.966,379.357 19.670,379.231 19.310 C 378.481 17.165,366.946 15.968,361.412 17.461 M121.170 40.620 L 121.170 64.028 126.334 64.028 L 131.497 64.028 131.497 54.045 L 131.497 44.062 139.759 44.062 L 148.021 44.062 148.021 54.045 L 148.021 64.028 153.184 64.028 L 158.348 64.028 158.348 40.620 L 158.348 17.212 153.184 17.212 L 148.021 17.212 148.021 26.162 L 148.021 35.112 139.759 35.112 L 131.497 35.112 131.497 26.162 L 131.497 17.212 126.334 17.212 L 121.170 17.212 121.170 40.620 M172.806 40.620 L 172.806 64.028 177.969 64.028 L 183.133 64.028 183.133 40.620 L 183.133 17.212 177.969 17.212 L 172.806 17.212 172.806 40.620 M260.307 18.761 C 259.500 20.883,252.174 42.069,250.487 47.160 C 249.734 49.432,248.845 51.910,248.511 52.668 C 247.697 54.516,245.095 62.730,245.095 63.453 C 245.095 63.769,247.375 64.028,250.162 64.028 L 255.230 64.028 256.751 59.208 L 258.272 54.389 266.006 54.389 L 273.739 54.389 275.291 59.208 L 276.844 64.028 281.967 64.028 C 287.536 64.028,287.778 63.810,286.334 60.114 C 285.247 57.333,279.814 41.990,277.482 35.112 C 276.390 31.893,274.514 26.549,273.312 23.236 L 271.126 17.212 266.011 17.212 C 261.339 17.212,260.844 17.346,260.307 18.761 M39.931 18.361 C 27.334 22.660,24.785 28.154,24.785 51.000 L 24.785 66.621 20.459 66.896 C 14.994 67.244,11.402 69.673,10.301 73.764 C 8.833 79.215,9.744 112.489,11.423 114.753 C 14.133 118.408,16.983 119.793,21.789 119.793 C 24.194 119.793,26.162 120.040,26.162 120.342 C 26.162 120.804,32.327 129.215,35.435 132.992 C 35.956 133.625,36.727 134.786,37.148 135.574 C 37.659 136.529,38.593 137.005,39.955 137.005 L 41.997 137.005 41.997 128.399 L 41.997 119.793 48.435 119.793 C 58.399 119.793,61.920 116.788,62.497 107.791 L 62.832 102.582 78.833 102.582 C 104.482 102.582,109.466 98.647,109.466 78.398 L 109.466 68.847 100.516 68.847 L 91.566 68.847 91.566 72.619 C 91.566 82.469,89.188 83.993,73.825 83.993 L 62.832 83.993 62.488 79.002 C 61.854 69.787,59.263 67.249,50.115 66.885 L 44.062 66.644 44.062 55.331 C 44.062 36.551,43.254 37.177,67.480 37.177 C 90.418 37.177,90.585 37.246,91.474 47.003 L 91.910 51.803 99.828 57.228 C 104.182 60.212,108.089 63.117,108.510 63.685 C 108.930 64.252,109.395 64.716,109.542 64.717 C 110.675 64.720,109.270 32.702,108.008 29.749 C 106.126 25.345,100.856 20.507,96.357 19.054 C 92.867 17.927,42.999 17.315,39.931 18.361 M375.092 27.908 C 380.944 33.379,381.289 49.985,375.617 53.159 C 375.055 53.474,374.123 54.202,373.547 54.779 C 368.409 59.917,358.180 53.980,356.487 44.877 C 353.810 30.485,365.979 19.387,375.092 27.908 M267.774 35.456 C 268.539 37.094,270.568 44.296,270.568 45.373 C 270.568 45.849,268.771 46.127,265.702 46.127 C 261.391 46.127,260.877 45.990,261.195 44.923 C 261.391 44.260,261.765 42.788,262.024 41.652 C 262.284 40.516,262.721 39.277,262.995 38.898 C 263.269 38.520,263.708 37.281,263.971 36.145 C 264.233 35.009,264.789 32.840,265.206 31.325 L 265.964 28.571 266.548 31.325 C 266.869 32.840,267.421 34.699,267.774 35.456 M41.437 74.979 C 41.979 82.480,45.460 85.370,53.953 85.370 L 57.831 85.370 57.831 93.711 L 57.831 102.053 48.709 101.739 C 32.212 101.171,26.207 95.111,26.177 79.002 L 26.162 70.912 33.652 70.912 L 41.143 70.912 41.437 74.979 M195.374 75.079 C 192.299 76.703,191.394 78.214,191.394 81.729 C 191.394 86.461,193.019 87.667,202.752 90.163 C 207.822 91.463,209.362 93.614,207.627 96.971 C 205.115 101.828,196.699 100.740,194.410 95.263 C 193.159 92.269,190.704 91.986,190.708 94.836 C 190.719 102.718,204.014 106.549,209.726 100.316 C 215.691 93.808,211.739 87.715,200.293 85.771 C 195.361 84.933,193.618 81.707,196.526 78.798 C 199.777 75.548,206.418 77.226,207.509 81.573 C 208.004 83.545,210.454 83.983,211.131 82.220 C 213.271 76.642,202.047 71.555,195.374 75.079 M229.255 75.348 C 221.042 79.628,220.012 95.166,227.559 100.923 C 234.368 106.116,246.731 102.009,248.223 94.058 C 250.971 79.408,240.770 69.346,229.255 75.348 M334.251 74.810 C 325.389 79.482,323.686 93.344,331.147 100.084 C 338.685 106.895,351.072 102.145,351.115 92.427 C 351.124 90.497,347.798 91.509,347.345 93.573 C 346.286 98.397,340.747 101.171,336.158 99.178 C 328.377 95.797,328.821 80.127,336.767 77.699 C 341.408 76.280,346.988 78.929,346.988 82.550 C 346.988 82.965,347.762 83.305,348.709 83.305 C 352.443 83.305,349.624 77.148,344.784 74.733 C 342.053 73.370,336.911 73.408,334.251 74.810 M121.859 88.468 C 121.859 102.123,121.904 102.582,123.236 102.582 C 124.505 102.582,124.613 102.123,124.613 96.730 L 124.613 90.878 130.426 90.878 C 137.276 90.878,138.382 91.753,138.382 97.171 C 138.382 101.668,138.867 102.582,141.256 102.582 C 142.877 102.582,143.220 102.335,142.930 101.377 C 142.729 100.714,142.263 98.253,141.895 95.907 C 141.526 93.561,140.879 90.996,140.457 90.207 C 139.835 89.045,139.957 88.434,141.101 86.979 C 142.824 84.789,142.997 79.864,141.435 77.480 C 139.860 75.077,136.983 74.355,128.985 74.355 L 121.859 74.355 121.859 88.468 M156.282 88.468 L 156.282 102.582 166.609 102.582 L 176.936 102.582 176.936 100.861 L 176.936 99.139 168.675 99.139 L 160.413 99.139 160.413 94.320 L 160.413 89.501 167.642 89.501 C 174.412 89.501,174.871 89.413,174.871 88.124 C 174.871 86.834,174.412 86.747,167.642 86.747 L 160.413 86.747 160.413 82.272 L 160.413 77.797 168.330 77.797 L 176.248 77.797 176.248 76.076 L 176.248 74.355 166.265 74.355 L 156.282 74.355 156.282 88.468 M259.552 85.267 C 259.552 100.507,261.136 103.270,269.869 103.270 C 278.936 103.270,280.483 100.806,280.781 85.886 L 281.011 74.355 278.888 74.355 L 276.764 74.355 276.764 84.970 C 276.764 98.278,276.053 99.828,269.946 99.828 C 264.005 99.828,262.995 97.562,262.995 84.235 L 262.995 74.355 261.274 74.355 L 259.552 74.355 259.552 85.267 M293.287 88.468 L 293.287 102.582 295.353 102.582 L 297.418 102.582 297.418 96.730 L 297.418 90.878 302.842 90.878 C 309.494 90.878,310.925 92.800,311.174 102.065 C 311.181 102.349,312.095 102.582,313.205 102.582 C 315.153 102.582,315.200 102.505,314.582 100.349 C 314.230 99.121,313.941 96.967,313.941 95.562 C 313.941 92.677,312.720 89.512,311.593 89.479 C 311.181 89.467,311.335 89.080,311.936 88.618 C 313.633 87.315,314.630 85.000,314.630 82.362 C 314.630 75.863,312.041 74.355,300.883 74.355 L 293.287 74.355 293.287 88.468 M363.511 88.468 L 363.511 102.582 373.494 102.582 L 383.477 102.582 383.477 100.861 L 383.477 99.139 375.215 99.139 L 366.954 99.139 366.954 94.320 L 366.954 89.501 374.182 89.501 C 380.952 89.501,381.411 89.413,381.411 88.124 C 381.411 86.834,380.952 86.747,374.182 86.747 L 366.954 86.747 366.954 82.272 L 366.954 77.797 374.871 77.797 L 382.788 77.797 382.788 76.076 L 382.788 74.355 373.150 74.355 L 363.511 74.355 363.511 88.468 M239.149 78.058 C 248.271 81.869,246.368 98.544,236.687 99.635 C 230.438 100.340,226.170 95.808,226.170 88.468 C 226.170 80.085,232.278 75.187,239.149 78.058 M137.255 78.834 C 141.759 83.338,138.011 87.435,129.387 87.435 L 124.613 87.435 124.613 82.616 L 124.613 77.797 130.416 77.797 C 134.666 77.797,136.496 78.074,137.255 78.834 M309.811 79.174 C 313.747 83.111,310.507 86.987,302.993 87.328 L 297.418 87.581 297.418 82.689 L 297.418 77.797 302.926 77.797 C 307.516 77.797,308.663 78.026,309.811 79.174 M211.015 110.103 C 202.081 112.310,197.825 120.351,199.748 131.391 C 202.221 145.594,221.074 148.342,227.505 135.437 C 233.969 122.465,223.858 106.930,211.015 110.103 M121.859 126.678 L 121.859 143.201 123.580 143.201 C 125.300 143.201,125.301 143.196,125.301 136.395 L 125.301 129.588 132.492 129.322 C 142.187 128.963,145.440 125.872,144.277 118.121 C 143.383 112.155,139.575 110.155,129.110 110.155 L 121.859 110.155 121.859 126.678 M160.413 126.678 L 160.413 143.201 162.478 143.201 L 164.544 143.201 164.544 136.317 L 164.544 129.432 170.609 129.432 C 178.298 129.432,178.757 129.778,179.759 136.317 C 180.838 143.358,180.762 143.201,183.111 143.201 C 185.109 143.201,186.043 141.739,184.610 140.854 C 184.287 140.654,183.844 138.123,183.625 135.228 C 183.311 131.072,182.902 129.620,181.683 128.322 C 180.834 127.418,180.507 126.678,180.957 126.678 C 182.294 126.678,184.504 122.389,184.506 119.793 C 184.510 112.579,180.687 110.234,168.847 110.188 L 160.413 110.155 160.413 126.678 M256.110 122.859 C 256.110 137.208,255.737 138.820,252.267 139.471 C 248.694 140.141,246.012 138.176,245.458 134.483 C 244.826 130.267,241.652 129.930,241.653 134.079 C 241.656 139.864,244.956 143.173,250.742 143.191 C 259.041 143.217,260.241 140.700,260.241 123.263 L 260.241 110.155 258.176 110.155 L 256.110 110.155 256.110 122.859 M278.830 126.678 L 278.830 143.201 290.189 143.201 L 301.549 143.201 301.549 141.136 L 301.549 139.071 292.255 139.071 L 282.960 139.071 282.960 133.563 L 282.960 128.055 291.566 128.055 L 300.172 128.055 300.172 126.334 L 300.172 124.613 291.566 124.613 L 282.960 124.613 282.960 119.449 L 282.960 114.286 292.255 114.286 L 301.549 114.286 301.549 112.220 L 301.549 110.155 290.189 110.155 L 278.830 110.155 278.830 126.678 M325.935 111.453 C 313.774 118.869,316.083 140.430,329.333 143.181 C 337.918 144.963,346.251 139.476,346.293 132.014 C 346.306 129.706,342.359 130.439,341.832 132.842 C 340.721 137.899,335.111 141.293,330.422 139.745 C 321.706 136.868,319.318 122.396,326.496 115.957 C 331.029 111.892,341.480 114.378,341.480 119.522 C 341.480 120.130,342.238 120.482,343.546 120.482 C 346.190 120.482,346.258 119.001,343.787 115.190 C 340.569 110.227,331.171 108.260,325.935 111.453 M358.003 112.220 L 358.003 114.286 363.167 114.286 L 368.330 114.286 368.330 128.744 L 368.330 143.201 370.396 143.201 L 372.461 143.201 372.461 128.744 L 372.461 114.286 377.625 114.286 L 382.788 114.286 382.788 112.220 L 382.788 110.155 370.396 110.155 L 358.003 110.155 358.003 112.220 M220.232 115.607 C 226.142 119.815,226.823 131.767,221.444 136.857 C 211.312 146.444,198.399 133.068,205.013 119.837 C 208.136 113.591,214.800 111.739,220.232 115.607 M138.019 115.369 C 144.378 119.536,139.517 125.990,130.018 125.990 L 125.301 125.990 125.301 120.138 L 125.301 114.286 130.833 114.286 C 134.706 114.286,136.861 114.611,138.019 115.369 M178.785 115.783 C 183.820 120.512,179.725 125.301,170.647 125.301 L 164.544 125.301 164.544 119.793 L 164.544 114.286 170.868 114.286 C 176.413 114.286,177.388 114.470,178.785 115.783 " stroke="none" fill="#000000" fill-rule="evenodd"></path></g></svg>