<svg id="Layer_1" data-name="Layer 1" xmlns="http://www.w3.org/2000/svg" viewBox="0 0 552.1 183.54"><defs><style>.cls-1{fill:#343434;}.cls-2{fill:#353535;}.cls-3{fill:#393939;}.cls-4{fill:#383838;}.cls-5{fill:#363636;}.cls-6{fill:#373737;}.cls-7{fill:#3b3b3b;}.cls-8{fill:#3a3a3a;}.cls-9{fill:#fefefe;}.cls-10{fill:#fbfbfb;}.cls-11{fill:#a9a9a9;}.cls-12{fill:#fdfdfd;}.cls-13{fill:#fcfcfc;}</style></defs><path class="cls-1" d="M760.57,572.26c-.78,3.14-.33,6-.46,8.79-.42,8.94-6.37,14.86-15.35,15.07-4.45.1-8.9,0-13.76,0-.32,8.52-.63,16.44-.92,24.21-3.17,1.71-4.62-.17-6.06-2.08q-7.5-10-15-20c-.49-.66-1-1.27-1.79-2.16-2.2,0-4.52,0-6.84,0C691,595.93,685,590.49,684.6,581c-.38-9.66-.14-19.33-.12-29,0-5.33.13-10.66.23-16,.17-9.34,6-15.12,15.39-15.36,2.12-.06,4.33.5,6.35-.6.91-1.78.51-3.64.51-5.44,0-11.83,0-23.66,0-35.5.06-17.46,11.69-29.17,29.16-29.24q31.74-.11,63.5,0c17.16.06,29,11.8,29.08,28.86.07,10.17,0,20.34,0,30.5,0,1.31.25,2.67-.57,4.26-4.62-1.85-8.28-5.24-12.39-7.87s-7.95-5.47-11.81-8.16c-.91-3.14-.39-6.15-.51-9.13-.33-7.77-4.84-12.54-12.57-12.61q-22.49-.23-45,0c-6.72.06-11.84,4.25-12.29,10.77-.77,11.1-.38,22.25-.16,33.53,3.56,1.14,6.89.57,10.16.62,10.59.16,16.37,5.83,16.55,16.36.05,2.65-.33,5.32.32,7.89.33.25.58.61.84.63,10.33.56,20.66.47,31,.11,6.45-.23,10.82-5.35,11.13-12,.15-3.13,0-6.27,0-9.68H827.5c1.54,1.34,1.21,2.76,1.22,4q.06,7.26,0,14.5c-.12,17-11.85,28.85-29,29.13-11.17.18-22.34,0-33.5.05C764.45,571.71,762.6,571.45,760.57,572.26Z" transform="translate(-684.39 -447.64)"/><path class="cls-1" d="M1156.27,514.8a29.55,29.55,0,0,1-9.1,0c-1.58-2.14-.49-4.66-1.3-6.83-.3,0-.71-.07-.87.09-12.07,12.5-32.91,10.51-43.21-4.15-8.89-12.67-8-33.37,1.54-45.52,11-13.91,33.22-12.64,42.73-5.46a23.32,23.32,0,0,1,9.6,16.47c-4.29.88-8.38.31-12.32.38a8.79,8.79,0,0,1-1-1.48c-2.56-6.62-7.65-9.37-14.46-9.35s-12.31,3-15.33,9.31c-4.52,9.43-4.57,19,.39,28.34a16.37,16.37,0,0,0,17.58,8.67c7.43-1.23,12.49-5.78,13.89-12.5a11.06,11.06,0,0,0,0-1.76c-4.8-1.67-9.88.13-14.87-1.14-1.16-3-.67-6.09-.37-9.56H1156C1157,483.71,1157.32,508,1156.27,514.8Z" transform="translate(-684.39 -447.64)"/><path class="cls-1" d="M1172.83,479.69a36.57,36.57,0,0,1,2.72-12.89c5.41-13.2,17.07-20,32.5-18.9,13,.88,23.57,9.83,26.94,23.1,2.31,9.08,2.09,18.18-1.6,26.94-5.34,12.7-17.54,19.59-31.25,18.59C1184.85,515.26,1172.57,501.86,1172.83,479.69Z" transform="translate(-684.39 -447.64)"/><path class="cls-1" d="M898.74,514.88a60.61,60.61,0,0,1-12.62-.11V486.45H860.5c-1,9.29.27,18.73-.69,28.38a66.33,66.33,0,0,1-12,.11c-1.23-3.49-1.69-57.33-.55-65.5,4-.94,8-.5,12.51-.22,1,8.34-.13,16.64.72,25.23h25.34V449.6c4.63-1.11,8.69-.65,12.68-.43C899.65,453.12,899.87,509.07,898.74,514.88Z" transform="translate(-684.39 -447.64)"/><path class="cls-1" d="M1049.41,449.2a84.36,84.36,0,0,1,14.13,0c7.62,21.65,15.28,43.39,23,65.45a58.85,58.85,0,0,1-13.68.17c-2.27-4.34-2.61-9.34-5.09-13.59h-23.23c-1.46,4.52-2.87,8.91-4.31,13.38-4.49.91-8.73.4-13.74.31Z" transform="translate(-684.39 -447.64)"/><path class="cls-1" d="M1013.79,469.58c-4.52.72-8.64.28-12.61.32-.41-.45-.73-.65-.82-.93-2.05-6.28-6.43-9.57-13-9.81-6.72-.25-12,2.38-15.31,8.39-3.75,6.91-3.87,14.34-2.57,21.87a22.17,22.17,0,0,0,3.86,9.11c7.35,10.47,24.79,8.37,27.22-3.11a5.37,5.37,0,0,1,.88-1.38c4-.14,8.16-.58,12.53.33-.92,8.62-5,14.86-12.47,18.81-12.29,6.55-29.27,3.34-38.42-7.12-11.37-13-10.87-36.73,1-49.21,9.48-9.93,27.08-12.23,38.69-4.93C1009.11,455.86,1012.69,461.62,1013.79,469.58Z" transform="translate(-684.39 -447.64)"/><path class="cls-1" d="M922.33,449.13c4.51-.19,8.46-.46,12.69.18v65.26c-4.16,1-8.24.53-12.69.31Z" transform="translate(-684.39 -447.64)"/><path class="cls-2" d="M1002.74,606.42c-.36,9.53-2.87,17.57-11.5,22.18a20.82,20.82,0,0,1-30.21-13,31,31,0,0,1-.25-15.77c2.52-10.33,10.74-16.87,20.79-16.63s18.19,7,20.38,17.24C1002.4,602.51,1002.52,604.68,1002.74,606.42Z" transform="translate(-684.39 -447.64)"/><path class="cls-2" d="M908.61,610.27c-1,6.38.1,12.71-.62,18.81-1,1.24-2.16,1-3.29.63-1-3.55-1.26-37.84-.4-44.71.71-.93,1.75-.87,2.73-.87,5.83,0,11.67-.16,17.49,0,9.32.29,14,6,12.62,15.14-.55,3.66-1.52,5-6.27,8.32,7.85,5.61,4.22,14.58,6.85,21.72a4.21,4.21,0,0,1-4.16.32,5.34,5.34,0,0,1-.77-1.18c-1.08-3.05-.58-6.26-.85-9.4-.57-6.84-3-9.22-9.76-9.21C917.73,609.86,913.25,609.39,908.61,610.27Z" transform="translate(-684.39 -447.64)"/><path class="cls-3" d="M1076.3,629.69v-45.2h30.21c.92,1,.84,1.94.14,3.46h-25.42c-1,5.53-.56,10.55-.3,15.94,8,1.18,15.82-.17,23.26.79,1.15,1,.86,2,.55,3.16-7.75.91-15.56-.26-23.69.7a95.83,95.83,0,0,0-.06,17.37h26.06c1.26,1.44,1,2.41.71,3.78Z" transform="translate(-684.39 -447.64)"/><path class="cls-4" d="M851.61,610v18.75c-1.38,1.55-2.49,1.33-4,.83V584.93c.6-.82,1.62-.81,2.62-.81,5.49,0,11-.23,16.47.1,8.22.5,12.59,5.3,12.51,13.17-.09,7.68-4.19,12.19-11.87,12.57C862.36,610.21,857.39,610,851.61,610Z" transform="translate(-684.39 -447.64)"/><path class="cls-5" d="M1171.11,596.53a3.63,3.63,0,0,1-3.83.2c-4.55-8.51-10.65-11.38-18.65-8.76a13.67,13.67,0,0,0-8.46,7.3,26.33,26.33,0,0,0-.29,23.15c2.84,6.17,8.19,9.05,15,8.6,6.18-.41,10.16-3.78,12.4-10.53a6.47,6.47,0,0,1,1.2-2.78,2.81,2.81,0,0,1,3.19.19c.27,9.11-6.38,16.25-15.87,17.05-10.74.9-18.85-4.6-21.75-15a30.68,30.68,0,0,1,1-20.08,20.21,20.21,0,0,1,27.84-10.58A14.83,14.83,0,0,1,1171.11,596.53Z" transform="translate(-684.39 -447.64)"/><path class="cls-6" d="M1120.94,552.3c3.36,2.17,4.26,5.25,4.64,8.66s.19,6.64,1.18,9.79c-1.21,1.38-2.41,1-3.79.26-1.47-2.5-.79-5.41-1.1-8.16-.82-7.32-2.48-8.9-9.73-8.94-3.45,0-6.89,0-10.94,0v16.78a2.88,2.88,0,0,1-3.62.32V531.77c7.22,0,14.19-.65,21.06.34,7.58,1.1,10.76,11.48,5.59,17.35A35.23,35.23,0,0,1,1120.94,552.3Z" transform="translate(-684.39 -447.64)"/><path class="cls-6" d="M876.54,571.15c-1.73.68-2.82.64-4.09-.68-.93-2.63-.52-5.85-1-8.94-.88-5.95-2.52-7.52-8.37-7.61-3.33-.06-6.66,0-10,.05a9.29,9.29,0,0,0-1.73.41c-.88,5.49.13,11.15-.55,16.43-1.14,1.08-2.05.75-3.31.29V531.84c7.28-.07,14.44-.84,21.43.39,7.34,1.3,10.11,11.59,5,17.29a31.89,31.89,0,0,1-2.91,2.52C877.09,557.18,874.88,564.55,876.54,571.15Z" transform="translate(-684.39 -447.64)"/><path class="cls-5" d="M993.73,551.6a23.83,23.83,0,0,1,2-10.19c3.11-6.66,8.26-10.23,15.63-10.51,7.74-.3,13.57,2.81,17.05,9.82a23.81,23.81,0,0,1,.48,20.77c-3.5,8.15-10.61,11.79-20,10.54-7.51-1-13.44-7.14-14.83-15.46C993.87,554.94,993.86,553.26,993.73,551.6Z" transform="translate(-684.39 -447.64)"/><path class="cls-7" d="M1198.91,532.05h26.38c.83,2.46-.41,2.91-2.13,2.92-4.66,0-9.31,0-14,0-2,0-4-.29-6.46.53-.57,4.21-.29,8.59-.07,13.54h20.14c1.2,1.52,1.08,2.38-.29,3.65H1202.7a74.46,74.46,0,0,0,.16,15.21h22.45c.93,1.36,1,2.13.32,3.36H1199.3C1198.2,567.76,1197.87,539.65,1198.91,532.05Z" transform="translate(-684.39 -447.64)"/><path class="cls-7" d="M898.73,532H924.2c1.13.64,1,1.44.56,2.67-7.17,1-14.65-.28-22.29.74a65,65,0,0,0-.05,13.23c6.83,1.24,13.66-.18,20.17.84a1.92,1.92,0,0,1-.28,3c-6.31.75-13-.32-19.72.62-.81,4.8-.4,9.39-.28,14.38,7.84,1.2,15.65-.2,23.12.8a2.52,2.52,0,0,1,.1,3h-26.8Z" transform="translate(-684.39 -447.64)"/><path class="cls-6" d="M976,542a2.78,2.78,0,0,1-2.9.46c-4-8.58-8.11-9.09-15-7.7a7.44,7.44,0,0,0-2.29.92,6.33,6.33,0,0,0-3.36,5.75,5.49,5.49,0,0,0,3.81,5.36,47.69,47.69,0,0,0,7.17,2,40.77,40.77,0,0,1,6.73,1.82c5.08,2,7.06,4.7,7.15,9.65a10.6,10.6,0,0,1-6.77,10.64c-10.58,4.75-21.85-.9-23.12-11.57.67-1,1.66-.87,2.8-.71.22.31.71.66.76,1.07.84,6.58,7,10.48,15.29,9.06,4.34-.75,7-3.81,7.05-7.82.1-3.84-1.54-5.92-6.14-7.27-3.5-1-7.13-1.66-10.62-2.73-5.53-1.7-7.83-4.69-7.77-9.61s2.92-8.44,8.28-9.86a18.64,18.64,0,0,1,10.34.1C972.55,533.15,975.44,536.57,976,542Z" transform="translate(-684.39 -447.64)"/><path class="cls-4" d="M1073.12,532.57c1.72-.87,2.63-.75,3.82-.08,0,9.6,0,19.22,0,28.85a9.07,9.07,0,0,1-.74,2.88c-2.22,6-7.64,8.51-16.69,7.78-6.15-.49-10.22-3.81-11.46-9.36-.77-3.48-.7-26.35.09-30.33a2.72,2.72,0,0,1,2.71-.13c1,1.88.64,3.75.66,5.54.06,7,0,14,.1,21,.07,3.81,1,7.39,5,9,4.4,1.79,8.84,1.81,12.91-.88,2.92-1.93,3.59-5.07,3.6-8.36q0-10.25,0-20.49Z" transform="translate(-684.39 -447.64)"/><path class="cls-5" d="M1176,557.52c1.2-.54,2-.64,2.88,0a3.35,3.35,0,0,1,.34,1.26c-.74,6.64-5.15,11.73-11.24,13-8.45,1.82-16.21-1.15-19.76-8a25.34,25.34,0,0,1-.11-24c4.26-8.43,15.43-11.61,23.72-7a12.46,12.46,0,0,1,6.69,9.18c-.73,1.37-1.77,1-3,.88-1.75-3.64-3.89-7.06-8.45-8.15-6.75-1.61-12.85,1-15.69,7.38a22.77,22.77,0,0,0-.31,18.44,12.91,12.91,0,0,0,12.86,8.45c5.66-.22,9.4-3.32,11.38-9.42C1175.46,558.87,1175.7,558.26,1176,557.52Z" transform="translate(-684.39 -447.64)"/><path class="cls-8" d="M1021.82,615.78a2,2,0,0,1,1.78-.68,12.75,12.75,0,0,1,1.72.27c1,1.22.61,2.44.76,3.57.57,4.54,2.2,6.59,6.05,7.54,5.82,1.44,10-1.54,10.15-7.55.17-9.66,0-19.33.07-29a18.48,18.48,0,0,1,.29-5.25c1.39-1.2,2.6-.81,3.72-.43,1,1.79.6,3.49.6,5.12,0,9.34.09,18.67,0,28-.1,10.68-8.62,16.19-18.55,12.1C1023.5,627.45,1021.42,623.13,1021.82,615.78Z" transform="translate(-684.39 -447.64)"/><path class="cls-6" d="M1225,584.45c.86,1.23.94,2.14-.17,3.57h-14.45v40.61c-1.5,1.67-2.62,1.43-4.53.83V588.08h-14.59c-1.28-1.38-1-2.33-.56-3.63Z" transform="translate(-684.39 -447.64)"/><path class="cls-9" d="M707.23,526.1H730.7c.76,2.51.37,4.84.47,7.13.33,7.61,5,12.46,12.56,12.81,3.46.16,6.94,0,10.8,0V571.4c-9.7-.17-19.6,1.71-29-1.74-10.59-3.88-16.91-11.87-18.13-23.09C706.65,540,707.23,533.31,707.23,526.1Z" transform="translate(-684.39 -447.64)"/><path class="cls-9" d="M1222.63,482.85c-.19,4.36-.72,8.63-2.61,12.62-3.07,6.46-8.16,10-15.35,10-7,0-12.21-3.26-15.16-9.52a31.43,31.43,0,0,1-.24-27c3.06-6.91,8.67-10.27,16.32-10,7.08.27,12.7,4.58,15.18,11.68a25.19,25.19,0,0,1,1.24,4.81C1222.34,477.87,1222.43,480.36,1222.63,482.85Z" transform="translate(-684.39 -447.64)"/><path class="cls-10" d="M1057,464c2.53,8.72,5.06,17.43,7.66,26.41h-16.76c2.82-9.18,5.49-17.86,8.15-26.53l.56-.59Z" transform="translate(-684.39 -447.64)"/><path class="cls-11" d="M1057,464c-.32,0-.63-.07-1-.12,0-.5,0-.92.59-1.1A1,1,0,0,1,1057,464Z" transform="translate(-684.39 -447.64)"/><path class="cls-9" d="M998,607.34a23.31,23.31,0,0,1-2.77,11.53c-6.13,10.81-21.33,11.22-27.55.49-4.7-8.1-4.6-16.69.17-24.75,5.88-10,20.58-9.9,26.82-.15A22.77,22.77,0,0,1,998,607.34Z" transform="translate(-684.39 -447.64)"/><path class="cls-12" d="M908.46,605.88V588.14c6.26,0,12.35-.64,18.39.42,4,.7,5.7,3.24,6,7.52s-1.45,7.47-5,8.87a11.54,11.54,0,0,1-3.86.89C919,605.94,914,605.88,908.46,605.88Z" transform="translate(-684.39 -447.64)"/><path class="cls-12" d="M851.79,605.86a127.29,127.29,0,0,1,.17-17.49c5.48-.44,10.61-.74,15.67.09s7.44,4.33,7.21,9.23-3,8-8.11,8.39A69,69,0,0,1,851.79,605.86Z" transform="translate(-684.39 -447.64)"/><path class="cls-13" d="M1101.41,550.28a91.6,91.6,0,0,1,.12-15.1c5.32-.29,10.57-.64,15.77.2,3.64.59,5.21,3.23,5.18,7.38,0,4-1.78,6.56-5.41,7.27C1112,551,1106.91,550.7,1101.41,550.28Z" transform="translate(-684.39 -447.64)"/><path class="cls-12" d="M851.34,535c4.89,0,9.21-.14,13.51,0,4.93.21,7.18,2.45,7.43,6.93.27,5-1.9,7.76-7.1,8.35a66.27,66.27,0,0,1-13.72,0A68.83,68.83,0,0,1,851.34,535Z" transform="translate(-684.39 -447.64)"/><path class="cls-9" d="M997.83,551.51a20.07,20.07,0,0,1,1.83-9.19,13,13,0,0,1,12.21-8c5.84-.13,10.35,2.39,12.9,7.71a21.4,21.4,0,0,1,.15,18.8c-2.52,5.49-7.11,8.22-13.19,8.08-5.85-.14-10.64-3.84-12.71-9.57A21.07,21.07,0,0,1,997.83,551.51Z" transform="translate(-684.39 -447.64)"/></svg>