<?xml version="1.0" encoding="utf-8"?>
<!-- Generator: Adobe Illustrator 25.0.0, SVG Export Plug-In . SVG Version: 6.00 Build 0)  -->
<svg version="1.1" id="Layer_1" xmlns="http://www.w3.org/2000/svg" xmlns:xlink="http://www.w3.org/1999/xlink" x="0px" y="0px"
	 viewBox="0 0 1234.3 570" style="enable-background:new 0 0 1234.3 570;" xml:space="preserve">
<style type="text/css">
	.st0{fill:#FFFFFF;}
</style>
<path d="M1058.8,560.7c-294.6,0-588.9,0-883.1,0c-0.1-0.2-0.2-0.4-0.2-0.6c0-0.2,0-0.4,0-0.5c0.3-0.4,0.5-0.9,0.9-1.3
	c63.7-63.8,127.5-127.5,191.2-191.3c0.2-0.2,0.5-0.5,1.3-1.4c0-104.5,0-209.6,0-315c2.1-0.2,3.6-0.4,5.1-0.4
	c45.6-1.4,90.4-7.9,134.4-20.2c15.5-4.3,30.7-9.5,45.7-15c7.2-2.7,14.4-3.9,21.9-4.4c27.2-1.9,54.4-1.9,81.7,0
	c7.7,0.5,15.1,1.7,22.4,4.6C721,31.1,763.5,41.1,807,46.1c17.8,2.1,35.8,2.8,53.8,4.2c1,0.1,2.1,0.2,2.9,0.2
	c0.3,0.3,0.4,0.4,0.6,0.5c0.1,0.1,0.2,0.3,0.3,0.4c0.1,0.2,0.1,0.3,0.2,0.5c0.1,0.3,0.1,0.7,0.1,1s0,0.7,0,1
	c0.1,103.8,0.1,207.6,0.2,311.4c0,0.2,0.1,0.3-0.4,1.1C929.2,431.1,993.7,495.7,1058.8,560.7z M809.1,489.7c0.6,0.3,1.3,0.5,1.9,0.9
	c24.7,16.9,51.1,30.7,77.4,44.8c3.9,2.1,11.8,2.2,16.3,0.2c-14.7-19.1-29.4-38.1-43.8-56.8c-3.9,0-7.2,0-11.2,0
	c1.3,1.9,2.1,3.2,3,4.5c4.1,5.6,8.2,11.3,12.4,16.9c6.1,8.1,12.2,16.1,18.3,24.1l0.1-0.1c-1.1-0.3-2.4-0.5-3.4-1
	c-23.9-14-47.9-27.9-71.7-42.2c-5.6-3.4-11-2.5-17.6-2.3c10.9,19.8,21.4,38.9,31.9,57.9c4.4,0,8.5,0,13.1,0c-0.6-1.4-1-2.4-1.5-3.2
	c-7.7-12.9-15.4-25.7-23-38.6c-0.9-1.6-1.4-3.4-2.1-5.1L809.1,489.7z M732.9,203c0.4,0,0.8,0.1,1.2,0.1c0.9-1.8,1.8-3.7,2.6-5.5
	c6.6-15.7,8.3-32,6.4-48.8c-4.2-36.5-22.1-63.4-55.4-79.6c-15.9-7.7-32.9-11.6-50.4-13c-26.7-2.2-53.1-0.9-78.6,8.1
	c-22.6,8-41.2,21.3-53.6,42.2c-10.7,17.9-14.7,37.6-14.2,58.3c0.2,11.3,2.6,22.2,6.9,32.6c0.7,1.6,1.6,3.2,2.8,5.7
	c1.9-4.7,3.1-8.4,4.7-11.8c2.4-5,8.4-6.8,14-4.5c5.3,2.2,6.8,6,4.6,11.9c-3.2,8.5-6.6,16.9-9.4,25.6c-1.7,5.3-2.9,10.8-3.4,16.3
	c-0.9,8.8,4.6,17.4,12.4,21.4c6.2,3.2,12.2,6.7,18.3,10c4.9,2.6,8.3,6.4,10.1,11.6c1.3,3.9,2.2,8,2.8,12.1c0.6,3.8,0.7,7.6,3.4,10.6
	c0.5,0,0.9,0,1.2-0.1c8.3-2.9,12.5,0,12.7,8.6c0,1.9,0.2,3.7,0.3,5.5c1.3,0.8,2.2,1.4,3.1,1.8c1.1,0.5,2.2,0.8,3.4,1.2
	c0.4-0.9,0.7-1.5,1-2.1c2.2-4.5,5-6.1,9-5.4c3.9,0.7,6.1,3.5,6.5,8.3c0.1,1.5,0.2,3.1,0.4,5.3c4.2,0.4,8.2,0.9,12.6,1.3
	c0.4-6,1.2-11.2,7.9-11.7c1.6-0.1,3.5,0.5,4.9,1.4c3.6,2.1,3.3,6.2,4.1,10.2c4.1-0.4,7.9-0.7,11.8-1c0.4-6.3-0.4-12.6,7.3-13.8
	c4.7-0.7,7.1,1.6,9.7,9.4c2.9-1.5,5.7-3,8.2-4.3c1-4.7-0.5-9.2,2.7-12.7c3.6-3.8,7.6-2.1,12.2-0.7c1-3.2,2.1-6.1,2.9-9.1
	c0.6-2.4,0.7-4.8,1.3-7.2c1.6-6.7,3.7-13.4,9.8-17.4s12.4-7.8,18.9-11c8.8-4.3,14.7-13.6,13.3-23.4c-0.7-5.1-2.1-10.3-3.7-15.2
	c-3-8.9-6.5-17.7-9.6-26.6c-1.7-4.7-0.1-8.1,4.4-10.3c6-2.9,12.4-0.4,14.8,6C730.5,196.4,731.7,199.7,732.9,203z M478.8,478.4
	c-8.5,19.4-16.9,38.5-25.5,58.1c4.9,0,9,0,13.6,0c6.3-15.9,12.5-31.7,18.9-47.9c9.2,18.6,22.2,33.5,35.5,47.9c5,0,9.5,0,14.5,0
	c4.2-19.3,8.7-38.3,12.5-58c-4.1,0-7.4,0-11.4,0c-3.7,15.4-7.3,30.9-11.2,46.9c-11.6-15.8-23-31.3-34.5-47
	C487.5,478.4,483.5,478.4,478.8,478.4z M385,537.9c4-0.5,9.7-1,15.4-2c12.8-2.2,25.1-6.2,35.8-14c5.7-4.2,10.5-9.2,13.6-15.6
	c4.6-9.5,2.3-17.9-6.7-23.5c-7.2-4.5-15.2-6.2-23.6-5.4c-18.1,1.7-34.7,7.9-49.4,18.5c-4.8,3.4-9,7.7-13.4,11.7
	c-1.2,1-2.1,2.4-3,3.6c-5,7.3-3.9,14.1,3.2,19.1C364.8,535.8,373.8,537.7,385,537.9z M805.3,536.5c-0.4-0.8-0.6-1.4-0.9-1.7
	c-4.8-5-9.7-10-14.6-15.1c-4.2-4.4-9.1-7.6-14.8-9.6c-1-0.4-2-0.7-3.4-1.3c2.7-1.4,4.8-2.2,6.7-3.4c4.4-2.8,5.8-7.2,3.1-11.7
	c-1.6-2.8-4-5.3-6.5-7.3c-5-4-11-6-17.3-7c-12.7-2.2-25.4-1.4-38.1-0.6c-0.6,0-1.2,0.6-2.3,1.1c6,19,12,37.9,17.9,56.6
	c5,0,9.3,0,14.2,0c-2.9-8.3-5.6-16.2-8.6-24.9c3.8,0,6.8,0.1,9.9,0c12.4-0.6,22.4,3.7,30,13.8c3.2,4.3,7.3,7.9,10.6,11.3
	C796.5,536.5,800.7,536.5,805.3,536.5z M664.7,503c-0.9-6.3-1.6-12-2.5-18.5c13.3,0,25.8,0,38.8,0c-0.7-2.5-1.2-4.3-1.7-5.8
	c-10.2-1-46-0.6-50,0.7c1.9,18.9,3.9,37.9,5.8,57.1c20.9,0,41,0,61.8,0c-0.7-2.3-1.2-4-1.9-6.3c-15.5,0-30.8,0-46.5,0
	c-1-7.1-1.9-13.6-2.9-20.5c13.4-0.6,26.2,0.3,39.4-0.5c-0.7-2.4-1.1-4-1.7-6.1C690.4,503,677.8,503,664.7,503z M931.1,480.4
	c-9.9-2.3-19.6-3.7-29.4-2.5c-2.2,0.3-4.5,0.6-6.7,1.3c-7.9,2.5-9.4,8-4.1,14.3c3.7,4.4,8.5,7.4,13.8,9.3c6.4,2.3,13,4.1,19.5,5.8
	c7.6,1.9,15.4,3,22.9,5.3c4.6,1.4,8.9,4,13,6.4c2.2,1.3,4,3.4,3.9,6.5c-1.2,3-4,3.9-6.8,4.1c-5.2,0.4-10.5,0.7-15.7,0.3
	c-6.7-0.5-13.4-1.7-20.9-2.7c0.7,2.3,1.3,4.1,1.9,5.9c13.1,3,25.9,4.4,38.9,3.3c4.1-0.3,8.4-1.1,12.2-2.6c6.4-2.4,7.7-7.2,2.9-12.2
	c-3.3-3.5-7.3-6.5-11.5-8.9c-8.7-5-18.5-7.1-28.3-9.2c-7.5-1.7-15.1-3.1-22.4-5.3c-3.7-1.1-7.1-3.5-10.4-5.7
	c-1.8-1.2-3.3-3.2-2.5-6.5c0.9-0.6,2-1.7,3.4-2.1c9.2-2.7,18.3,0,28.1,1.2C932.3,484,931.8,482.4,931.1,480.4z M634.5,479.6
	c-5.1-0.7-9.3-1.5-13.6-1.9c-16.4-1.7-32,1.1-46.3,9.6c-5.6,3.4-10.3,7.8-13.4,13.7c-5.3,10.1-3,19.6,6.3,26.2
	c2,1.4,4.1,2.8,6.3,3.6c5.7,2,11.5,4,17.5,5.3c13.7,2.9,27.4,1.2,41.2-0.2c1.4-0.2,2.8-0.9,4.6-1.5c-1.2-2.1-2.1-3.7-3-5.2
	c-5.3,0.6-10.1,1.4-14.9,1.7c-4.9,0.3-9.8,0.3-14.6,0.1c-7.4-0.3-14.5-1.9-21.2-5.3c-11.4-5.9-14-17.2-6.5-27.7
	c3.6-5,8.6-8.1,14.2-10.3c9.8-3.8,20-4.6,30.4-3.3c3.4,0.4,6.8,1,10.5,1.5C632.7,483.8,633.4,482.3,634.5,479.6z M515.1,425.6
	c-7.9,1.7-15.2,2.1-22.5,0.6c-10.4-2.2-14.1-8.9-10.1-18.6c9.4-22.2,33.3-31.6,51.4-25.8c0.8,0.2,1.6,0.3,2.6,0.4
	c1.2-1.8,2.3-3.5,3.4-5.2c-4.2-2.5-8.5-3.7-14.4-3.3c-23.6,1.7-41.4,12.9-52.8,33.5c-7,12.6-2.4,21.8,11.6,24.9
	c8.5,1.9,17,1.5,25.5,0.5c4.5-0.5,8.9-1.5,13.5-2.3c3.3-9.3,6.4-18.3,9.8-27.9c-8.1,0-15.5,0-23.2,0c-0.7,1.7-1.3,3.3-2.1,5.4
	c5,0.3,9.2,0.5,13.9,0.7C519.3,414.8,517.2,420.1,515.1,425.6z M578.5,405.2c3.5-2.6,7.1-4.5,9.7-7.4c6.6-7.3,4.4-18.3-4.4-21.7
	c-9.4-3.7-19.1-2.2-28.5-0.9c-5.2,13.8-16.4,53.4-16.2,57.4c3,0,6.1,0,9.3,0c2.2-8.4,4.3-16.4,6.5-24.6c4.2,0,8-0.3,11.8,0.1
	c5.2,0.5,7.6,3,8.8,8.2c0.5,2,0.6,4.2,1,6.2c0.8,3.5,0.6,7.3,2.9,10c3.4,0,6.4,0,9.7,0c-0.9-4.3-1.9-8-2.5-11.7
	C585.4,414.6,584.2,408.7,578.5,405.2z M329.6,529.4c-2.1,0.2-3.8,0.2-5.5,0.5c-9.5,1.5-19.1,2.1-28.7,0.8
	c-3.9-0.5-7.9-1.6-11.4-3.3c-4.7-2.2-6-6.4-3.7-11c1.5-3.1,3.6-6.1,6.1-8.4c19.6-18.4,42.7-26.3,69.5-23.4c2.6,0.3,5.1,0.9,7.8,1.4
	c2.2-1.8,4.3-3.5,7.1-5.8c-2.4-0.8-3.8-1.5-5.3-1.7c-5.9-0.5-11.9-1.4-17.7-1c-28.7,2.1-54,13.1-76.2,31.2c-2.3,1.8-4.3,4.1-5.9,6.6
	c-3.4,5.2-2.7,10.1,2.4,13.7c3.4,2.3,7.3,4.2,11.2,5.5c13.2,4.5,26.8,4.1,40.4,2.1c2.9-0.4,5.7-1.1,8.6-1.7
	C328.7,533,329.1,531.5,329.6,529.4z M622.5,374.6c-8.6,19.5-17,38.5-25.5,57.8c3.1,0,6.3,0,9.8,0c2.8-6,5.6-12,8.4-17.8
	c8.8,0,17.3,0,25.8,0c3.6,6.2,7,12.3,10.2,17.9c6.9,0.7,6.9,0.7,9.7-0.7c-10.1-19-20.2-38.1-30.3-57.2
	C627.8,374.6,624.9,374.6,622.5,374.6z M708.2,374.6c8.5,19.8,16.7,38.9,24.8,57.6c7.5,1.3,40.7,0.9,44.3-0.6
	c-1.1-1.8-2.2-3.5-3.5-5.4c-11.1,0-22.1,0-33.2,0c-3.1-6.9-6.6-13.2-9.5-21c9.4,0,17.8,0,27.1,0c-1.5-2.6-2.4-4.1-3.6-6.3
	c-9,0-18,0-26.9,0c-2.8-6.2-5.4-11.8-8.4-18.3c9.1,0,17,0,25.9,0c-1.4-2.5-2.4-4.3-3.4-6.1C730.9,374.6,720.1,374.6,708.2,374.6z
	 M696.4,432.6c3-19.3,5.1-38.4,4.8-57.8c-3.1,0-5.4,0-7.7,0c-1.4,16.3-2.8,32.2-4.1,48.1c-0.4,0.1-0.8,0.2-1.2,0.3
	c-10-16-20.5-31.8-29.1-48.4c-3,0-5.5,0-8.8,0c10.3,20.6,21.9,39.6,34.6,57.8C688.9,432.6,692.5,432.6,696.4,432.6z"/>
<path class="st0" d="M732.9,203c-1.2-3.3-2.4-6.5-3.6-9.8c-2.5-6.4-8.8-8.9-14.8-6c-4.5,2.2-6,5.6-4.4,10.3
	c3.1,8.9,6.6,17.7,9.6,26.6c1.6,4.9,3,10.1,3.7,15.2c1.4,9.8-4.5,19.1-13.3,23.4c-6.5,3.2-12.8,7-18.9,11c-6.1,4-8.2,10.7-9.8,17.4
	c-0.6,2.4-0.7,4.9-1.3,7.2c-0.8,3-1.9,5.9-2.9,9.1c-4.6-1.5-8.6-3.1-12.2,0.7c-3.3,3.5-1.7,8-2.7,12.7c-2.5,1.3-5.3,2.8-8.2,4.3
	c-2.7-7.8-5-10.1-9.7-9.4c-7.7,1.2-6.9,7.5-7.3,13.8c-3.9,0.3-7.7,0.7-11.8,1c-0.8-4-0.5-8.1-4.1-10.2c-1.4-0.9-3.3-1.5-4.9-1.4
	c-6.7,0.5-7.4,5.8-7.9,11.7c-4.4-0.5-8.4-0.9-12.6-1.3c-0.2-2.2-0.3-3.7-0.4-5.3c-0.3-4.8-2.5-7.6-6.5-8.3c-4-0.7-6.8,1-9,5.4
	c-0.3,0.6-0.6,1.2-1,2.1c-1.2-0.4-2.4-0.7-3.4-1.2c-0.9-0.4-1.8-1-3.1-1.8c-0.1-1.7-0.3-3.6-0.3-5.5c-0.2-8.6-4.4-11.4-12.7-8.6
	c-0.3,0.1-0.7,0-1.2,0.1c-2.8-2.9-2.9-6.8-3.4-10.6c-0.6-4.1-1.5-8.2-2.8-12.1c-1.7-5.1-5.2-9-10.1-11.6c-6.1-3.3-12.1-6.8-18.3-10
	c-7.8-4-13.3-12.6-12.4-21.4c0.6-5.5,1.7-11.1,3.4-16.3c2.8-8.6,6.2-17,9.4-25.6c2.2-5.9,0.7-9.7-4.6-11.9c-5.6-2.3-11.6-0.5-14,4.5
	c-1.6,3.4-2.8,7.1-4.7,11.8c-1.3-2.5-2.2-4.1-2.8-5.7c-4.4-10.4-6.7-21.3-6.9-32.6c-0.4-20.7,3.5-40.3,14.2-58.3
	c12.4-20.9,31-34.2,53.6-42.2c25.5-9,51.9-10.3,78.6-8.1c17.5,1.4,34.5,5.3,50.4,13c33.3,16.2,51.2,43.1,55.4,79.6
	c1.9,16.8,0.2,33.1-6.4,48.8c-0.8,1.9-1.7,3.7-2.6,5.5C733.7,203.1,733.3,203,732.9,203z M566.6,255.9c12.5,0.1,27.2-8.7,32.2-18.5
	c6.7-12.9,7.1-26-0.1-39c-3.8-6.9-9-11.9-17.1-13.3c-2.7-0.5-5.4-1.6-8.1-2.1c-1.9-0.4-3.8-0.7-5.7-0.6
	c-11.2,0.5-24.3,10.5-27.6,21.1c-1.9,6.2-3.4,12.4-4.8,18.7c-2.1,9,0.4,17,6,24c1.7,2.1,4,4.3,6.5,5
	C554.8,253.3,561.8,254.7,566.6,255.9z M698.3,225.4c-1.1-4.3-2.8-11.6-4.6-18.8c-3.2-13.2-12.5-20.1-24.7-23.7
	c-6.3-1.8-23,2.3-27.7,6.9c-8.5,8.2-12.9,18.8-11.9,30.3c1.4,15.4,9.1,27.2,24.1,33.4c5.7,2.3,11.3,3.2,17.3,1.5
	c3.2-0.9,6.6-1.1,9.7-2.2c3.2-1.1,6.7-2.4,9.2-4.6C695.3,243,698.2,236.3,698.3,225.4z M616.1,296.6c1.7,1.6,2.6,2.6,3.7,3.4
	c4.7,3.9,10.8,3.8,15.3-0.1c4.2-3.6,5.5-9.9,2.2-14.7c-3.8-5.4-7.9-10.7-12.5-15.5c-4.8-5.1-13.1-5.1-17.3-0.1
	c-4.4,5.2-8.4,10.7-12,16.4c-3,4.7-1.4,10.7,2.8,14.2c4.4,3.7,10.5,3.8,14.9,0.1C614.3,299.5,615.1,298,616.1,296.6z"/>
<path class="st0" d="M883.4,524.3c-6.1-8-12.2-16.1-18.3-24.1c-4.2-5.6-8.3-11.2-12.4-16.9c-0.9-1.2-1.7-2.6-3-4.5
	c3.9,0,7.2,0,11.2,0c14.4,18.7,29,37.7,43.8,56.8c-4.5,2-12.4,1.9-16.3-0.2c-26.3-14.1-52.7-27.9-77.4-44.8
	c-0.6-0.4-1.2-0.6-1.9-0.9l-0.2-0.1h0.3c0.7,1.7,1.2,3.5,2.1,5.1c7.6,12.9,15.4,25.7,23,38.6c0.5,0.9,0.8,1.8,1.5,3.2
	c-4.6,0-8.7,0-13.1,0c-10.4-19-20.9-38-31.9-57.9c6.6-0.2,12-1.1,17.6,2.3c23.7,14.3,47.7,28.2,71.7,42.2c1,0.6,2.2,0.7,3.4,1
	c0.1,0.2,0.1,0.4,0.1,0.5C883.7,524.6,883.5,524.5,883.4,524.3z"/>
<path class="st0" d="M478.8,478.4c4.7,0,8.7,0,12.4,0c11.5,15.7,22.9,31.2,34.5,47c3.8-16,7.5-31.5,11.2-46.9c4,0,7.3,0,11.4,0
	c-3.8,19.7-8.3,38.7-12.5,58c-5,0-9.5,0-14.5,0c-13.3-14.4-26.3-29.4-35.5-47.9c-6.4,16.3-12.6,32-18.9,47.9c-4.6,0-8.7,0-13.6,0
	C462,516.9,470.3,497.8,478.8,478.4z"/>
<path class="st0" d="M385,537.9c-11.2-0.3-20.2-2.1-28-7.6c-7.2-5-8.2-11.8-3.2-19.1c0.9-1.3,1.8-2.6,3-3.6c4.4-4,8.6-8.2,13.4-11.7
	c14.8-10.6,31.3-16.8,49.4-18.5c8.4-0.8,16.4,0.9,23.6,5.4c9,5.6,11.3,14,6.7,23.5c-3.1,6.4-7.9,11.5-13.6,15.6
	c-10.7,7.8-22.9,11.7-35.8,14C394.7,536.9,389,537.4,385,537.9z M385.7,531.7c15.8-0.5,28.5-3.7,39.3-12.3
	c4.9-3.8,8.8-8.5,11.3-14.2c4.5-10.1,0.5-18.2-10.2-20.7c-2.2-0.5-4.5-0.9-6.7-0.8c-20.1,0.2-36.4,8.3-48.8,24.1
	c-1.3,1.6-2.4,3.5-3.2,5.4c-3.2,7.2-0.8,13.4,6.6,16C378.5,530.7,383.2,531.2,385.7,531.7z"/>
<path class="st0" d="M805.3,536.5c-4.6,0-8.8,0-14,0c-3.3-3.4-7.4-7-10.6-11.3c-7.6-10.1-17.6-14.4-30-13.8c-3.1,0.2-6.2,0-9.9,0
	c3,8.7,5.7,16.6,8.6,24.9c-4.9,0-9.2,0-14.2,0c-5.9-18.7-11.9-37.6-17.9-56.6c1.1-0.5,1.7-1.1,2.3-1.1c12.7-0.9,25.4-1.6,38.1,0.6
	c6.2,1.1,12.3,3,17.3,7c2.5,2,4.9,4.6,6.5,7.3c2.7,4.5,1.3,8.9-3.1,11.7c-1.9,1.2-4,2.1-6.7,3.4c1.5,0.5,2.5,0.9,3.4,1.3
	c5.7,2,10.6,5.3,14.8,9.6c4.8,5,9.7,10,14.6,15.1C804.7,535.2,804.9,535.7,805.3,536.5z M738.4,505.1c7.4,0,14.1,0.2,20.9-0.1
	c2.3-0.1,4.8-1,6.9-2.1c4-2,5.1-5.5,2.6-9.1c-1.8-2.6-4.5-5-7.3-6.4c-9.3-4.3-19.1-4.6-29.1-2.9c-0.3,0-0.4,0.5-0.9,1
	C733.7,491.9,736,498.5,738.4,505.1z"/>
<path class="st0" d="M664.7,503c13.1,0,25.7,0,38.6,0c0.6,2.1,1.1,3.7,1.7,6.1c-13.2,0.8-26-0.1-39.4,0.5c1,6.9,1.9,13.4,2.9,20.5
	c15.6,0,30.9,0,46.5,0c0.7,2.3,1.2,4,1.9,6.3c-20.8,0-40.9,0-61.8,0c-2-19.2-3.9-38.2-5.8-57.1c4-1.3,39.8-1.7,50-0.7
	c0.5,1.6,1,3.3,1.7,5.8c-13,0-25.5,0-38.8,0C663.1,491,663.8,496.7,664.7,503z"/>
<path class="st0" d="M931.1,480.4c0.7,2.1,1.3,3.6,2,5.7c-9.8-1.2-18.9-3.9-28.1-1.2c-1.4,0.4-2.6,1.6-3.4,2.1
	c-0.8,3.3,0.7,5.3,2.5,6.5c3.3,2.2,6.7,4.6,10.4,5.7c7.3,2.2,14.9,3.7,22.4,5.3c9.7,2.2,19.5,4.2,28.3,9.2c4.2,2.4,8.2,5.4,11.5,8.9
	c4.7,5,3.5,9.8-2.9,12.2c-3.9,1.4-8.1,2.3-12.2,2.6c-13,1-25.8-0.3-38.9-3.3c-0.6-1.8-1.1-3.6-1.9-5.9c7.5,1,14.1,2.2,20.9,2.7
	c5.2,0.4,10.4,0,15.7-0.3c2.8-0.2,5.5-1.1,6.8-4.1c0.1-3.1-1.7-5.2-3.9-6.5c-4.2-2.4-8.5-5-13-6.4c-7.5-2.2-15.3-3.4-22.9-5.3
	c-6.6-1.7-13.1-3.5-19.5-5.8c-5.3-1.9-10.1-4.9-13.8-9.3c-5.3-6.4-3.7-11.8,4.1-14.3c2.1-0.7,4.4-1,6.7-1.3
	C911.5,476.7,921.1,478.1,931.1,480.4z"/>
<path class="st0" d="M634.5,479.6c-1.2,2.7-1.8,4.3-2.6,6.1c-3.6-0.5-7.1-1-10.5-1.5c-10.4-1.3-20.6-0.5-30.4,3.3
	c-5.6,2.2-10.6,5.3-14.2,10.3c-7.6,10.5-5,21.8,6.5,27.7c6.6,3.4,13.8,5,21.2,5.3c4.9,0.2,9.8,0.2,14.6-0.1c4.9-0.3,9.7-1,14.9-1.7
	c0.9,1.5,1.8,3.2,3,5.2c-1.8,0.6-3.1,1.3-4.6,1.5c-13.7,1.5-27.5,3.1-41.2,0.2c-5.9-1.2-11.7-3.3-17.5-5.3c-2.3-0.8-4.4-2.2-6.3-3.6
	c-9.3-6.5-11.6-16.1-6.3-26.2c3.1-5.9,7.7-10.3,13.4-13.7c14.3-8.5,29.9-11.3,46.3-9.6C625.2,478.1,629.5,478.8,634.5,479.6z"/>
<path class="st0" d="M515.1,425.6c2.2-5.5,4.2-10.8,6.6-17c-4.7-0.3-8.9-0.5-13.9-0.7c0.8-2.1,1.5-3.7,2.1-5.4c7.7,0,15.1,0,23.2,0
	c-3.4,9.6-6.5,18.6-9.8,27.9c-4.6,0.8-9,1.8-13.5,2.3c-8.5,1-17.1,1.4-25.5-0.5c-14-3.2-18.6-12.3-11.6-24.9
	c11.4-20.6,29.2-31.9,52.8-33.5c5.9-0.4,10.2,0.7,14.4,3.3c-1.1,1.7-2.2,3.4-3.4,5.2c-1-0.1-1.8-0.1-2.6-0.4
	c-18.1-5.8-42,3.6-51.4,25.8c-4.1,9.6-0.3,16.4,10.1,18.6C499.9,427.7,507.2,427.3,515.1,425.6z"/>
<path class="st0" d="M578.5,405.2c5.7,3.5,6.9,9.4,8,15.5c0.6,3.7,1.6,7.4,2.5,11.7c-3.2,0-6.3,0-9.7,0c-2.2-2.7-2.1-6.5-2.9-10
	c-0.5-2-0.6-4.2-1-6.2c-1.2-5.2-3.7-7.7-8.8-8.2c-3.8-0.4-7.6-0.1-11.8-0.1c-2.2,8.2-4.3,16.3-6.5,24.6c-3.2,0-6.2,0-9.3,0
	c-0.2-4,11-43.6,16.2-57.4c9.3-1.3,19-2.8,28.5,0.9c8.8,3.5,11.1,14.4,4.4,21.7C585.6,400.6,582,402.6,578.5,405.2z M556.4,401.3
	c5.1,0,9.3,0.3,13.4-0.1c3.9-0.3,7.5-1.9,10.2-4.8c5.6-6.1,3.2-14.2-4.9-16c-4.3-1-8.6-1-13.5,0.4C560,387.4,558.3,394,556.4,401.3z
	"/>
<path class="st0" d="M329.6,529.4c-0.5,2.1-0.9,3.5-1.3,5.5c-2.9,0.6-5.7,1.2-8.6,1.7c-13.6,2-27.1,2.4-40.4-2.1
	c-3.9-1.3-7.8-3.1-11.2-5.5c-5.1-3.6-5.9-8.5-2.4-13.7c1.6-2.4,3.7-4.7,5.9-6.6c22.2-18.1,47.5-29.1,76.2-31.2
	c5.9-0.4,11.8,0.5,17.7,1c1.4,0.1,2.8,0.9,5.3,1.7c-2.8,2.3-4.9,4-7.1,5.8c-2.7-0.5-5.2-1.1-7.8-1.4c-26.7-2.9-49.9,5-69.5,23.4
	c-2.5,2.3-4.6,5.3-6.1,8.4c-2.3,4.6-1,8.8,3.7,11c3.5,1.7,7.5,2.8,11.4,3.3c9.6,1.3,19.1,0.7,28.7-0.8
	C325.8,529.7,327.5,529.6,329.6,529.4z"/>
<path class="st0" d="M622.5,374.6c2.4,0,5.3,0,8.1,0c10.1,19.1,20.2,38.2,30.3,57.2c-2.8,1.3-2.8,1.3-9.7,0.7
	c-3.2-5.6-6.6-11.7-10.2-17.9c-8.5,0-17,0-25.8,0c-2.8,5.9-5.6,11.8-8.4,17.8c-3.5,0-6.7,0-9.8,0
	C605.5,413.1,613.9,394.1,622.5,374.6z M626.6,382.7c-3.1,8.7-6.1,16.8-9.1,25.2c7,0,13.5,0,20.4,0
	C634.1,399.4,630.6,391.5,626.6,382.7z"/>
<path class="st0" d="M708.2,374.6c11.9,0,22.6,0,33.7,0c1,1.8,2,3.6,3.4,6.1c-8.9,0-16.8,0-25.9,0c3,6.4,5.5,12.1,8.4,18.3
	c8.9,0,17.9,0,26.9,0c1.2,2.1,2.1,3.7,3.6,6.3c-9.3,0-17.8,0-27.1,0c2.9,7.8,6.3,14.1,9.5,21c11.1,0,22.1,0,33.2,0
	c1.3,2,2.4,3.7,3.5,5.4c-3.6,1.5-36.8,1.9-44.3,0.6C725,413.5,716.8,394.5,708.2,374.6z"/>
<path class="st0" d="M696.4,432.6c-4,0-7.5,0-11.5,0c-12.7-18.2-24.3-37.1-34.6-57.8c3.3,0,5.8,0,8.8,0
	c8.6,16.6,19.1,32.4,29.1,48.4c0.4-0.1,0.8-0.2,1.2-0.3c1.4-15.9,2.7-31.8,4.1-48.1c2.2,0,4.6,0,7.7,0
	C701.6,394.1,699.5,413.2,696.4,432.6z"/>
<path d="M566.6,255.9c-4.8-1.2-11.8-2.6-18.6-4.7c-2.5-0.8-4.8-2.9-6.5-5c-5.6-7-8.1-15-6-24c1.5-6.3,2.9-12.6,4.8-18.7
	c3.3-10.7,16.4-20.6,27.6-21.1c1.9-0.1,3.8,0.2,5.7,0.6c2.7,0.6,5.3,1.7,8.1,2.1c8.1,1.4,13.2,6.4,17.1,13.3c7.2,13,6.8,26.1,0.1,39
	C593.8,247.2,579.2,256,566.6,255.9z"/>
<path d="M698.3,225.4c-0.1,10.9-2.9,17.6-8.7,22.7c-2.5,2.2-6,3.5-9.2,4.6c-3.1,1.1-6.5,1.3-9.7,2.2c-6,1.7-11.6,0.8-17.3-1.5
	c-15-6.1-22.8-18-24.1-33.4c-1-11.5,3.4-22,11.9-30.3c4.7-4.6,21.5-8.7,27.7-6.9c12.3,3.6,21.5,10.6,24.7,23.7
	C695.4,213.9,697.2,221.1,698.3,225.4z"/>
<path d="M616.1,296.6c-1,1.4-1.8,2.8-2.9,3.8c-4.4,3.7-10.5,3.5-14.9-0.1c-4.2-3.5-5.7-9.5-2.8-14.2c3.6-5.7,7.6-11.3,12-16.4
	c4.2-5,12.5-4.9,17.3,0.1c4.6,4.8,8.7,10,12.5,15.5c3.3,4.8,2,11.1-2.2,14.7c-4.5,3.9-10.7,4-15.3,0.1
	C618.7,299.2,617.7,298.2,616.1,296.6z"/>
<polygon points="809.2,489.6 808.9,489.6 809.1,489.7 "/>
<path d="M883.4,524.3c0.1,0.2,0.3,0.3,0.3,0.3s-0.1-0.2-0.1-0.5L883.4,524.3z"/>
<path d="M385.7,531.7c-2.5-0.5-7.2-1-11.6-2.5c-7.4-2.6-9.8-8.8-6.6-16c0.8-1.9,1.9-3.7,3.2-5.4c12.4-15.8,28.7-23.9,48.8-24.1
	c2.2,0,4.5,0.3,6.7,0.8c10.7,2.5,14.7,10.7,10.2,20.7c-2.5,5.7-6.5,10.3-11.3,14.2C414.1,528,401.5,531.2,385.7,531.7z"/>
<path d="M738.4,505.1c-2.3-6.6-4.7-13.1-6.9-19.5c0.5-0.6,0.7-1,0.9-1c10-1.7,19.8-1.5,29.1,2.9c2.8,1.3,5.4,3.8,7.3,6.4
	c2.6,3.6,1.4,7.1-2.6,9.1c-2.1,1.1-4.6,2-6.9,2.1C752.5,505.2,745.8,505.1,738.4,505.1z"/>
<path d="M556.4,401.3c1.9-7.3,3.6-14,5.3-20.5c4.8-1.4,9.2-1.4,13.5-0.4c8.1,1.8,10.5,9.9,4.9,16c-2.7,3-6.3,4.5-10.2,4.8
	C565.7,401.6,561.6,401.3,556.4,401.3z"/>
<path d="M626.6,382.7c3.9,8.8,7.5,16.7,11.3,25.2c-6.9,0-13.3,0-20.4,0C620.6,399.5,623.5,391.5,626.6,382.7z"/>
</svg>
