<?xml version="1.0" encoding="utf-8"?>
<!-- Generator: Adobe Illustrator 22.1.0, SVG Export Plug-In . SVG Version: 6.00 Build 0)  -->
<svg version="1.1" id="Layer_1" xmlns="http://www.w3.org/2000/svg" xmlns:xlink="http://www.w3.org/1999/xlink" x="0px" y="0px"
	 viewBox="0 0 989 450" style="enable-background:new 0 0 989 450;" xml:space="preserve">
<style type="text/css">
	.st0{fill:#FEFEFE;}
	.st1{fill:#FE4E91;}
	.st2{fill:#CE0F58;}
</style>
<path d="M979.1,297c0-3.2,0-6.5,0-9.9c0,0,0,0,0,0c-3.1,0-5.9,0-9,0c0-3.1,0-6,0-9.1c-19.5,0-38.6,0-57.9,0c0-3.3,0-6.4,0-9.3
	c-0.3-0.3-0.4-0.5-0.5-0.6c-0.1-0.1-0.3-0.2-0.4-0.2c-18.6,0-37.3,0-56.1,0c0-3.3,0-6.4,0-9.9c-35.4,0-70.6,0-106,0
	c0-12.8,0-25.2,0-37.9c6.2,0,12.4,0,18.8,0c0,3.2,0,6.3,0,9.6c19.3,0,38.4,0,58,0c0.1,3,0,6,0.1,9c44.6,0,89.1,0,133.9,0
	c0-6.1,0-12.3,0-18.8c3.5,0,6.6,0,10.1,0c0-22.4,0-44.6,0-67.1c3.1,0,5.9,0,8.9,0c0-44.3,0-88.4,0-132.5c-3.9-0.7-72.4-0.9-85.7-0.3
	c0,9.1,0,18.2,0,27.7c-3.4,0-6.6,0-10,0c0,0-0.1,0.1-0.1,0.1c0,6.4,0,12.5,0,18.8c-3.1,0-6,0-9.1,0c0-2.9,0-5.7,0-8.6
	c-32,0-63.7,0-95.9,0c0-16.1,0-32,0-48c-32.1,0-63.9,0-96.1,0c0,12.5,0,25.1,0,37.7c-35.5,0-70.6,0-105.9,0c0-2.8,0-5.5,0-8.3
	c-4.4-0.9-87.2-1.2-105-0.4c0,2.8,0,5.6,0,8.6c-3.4,0-6.6,0-10.1,0c0-9.1,0-18.2,0-27.7c0,0,0,0,0,0c-3.4,0-6.6,0-10.1,0
	c0-3.5,0-6.6,0-9.9c-25.3,0-50.4,0-75.8,0c-0.5,1.3-0.1,3-0.2,4.6c-0.1,1.6,0,3.3,0,5.1c-3.3,0-6.4,0-9.9,0c0,9.4,0,18.6,0,28
	c-41.8,0-83.2,0-125,0c0-12.5,0-25,0-37.7c-0.1,0-0.1-0.1-0.2-0.1c-3.1,0-5.8,0-8.9,0c0-3.5,0-6.7,0-10c-25.7,0-51.3,0-77,0
	c0,3.2,0,6.3,0,9.8c-3.2,0.5-6.5,0-9.9,0.3c0,6.2,0,12.3,0,18.8c-3,0-5.9,0-9,0c0,0,0,0,0,0c0,6.4,0,12.6,0,19c-3.4,0-6.6,0-10,0
	c0,3.5,0,6.6,0,9.9c-3.4,0-6.6,0-10,0c0-3.2,0-6.3,0-9.6c-2.9,0-5.7,0-8.3,0c-0.3-0.3-0.5-0.4-0.6-0.5c-0.1-0.1-0.2-0.3-0.2-0.4
	c0-6,0-11.9,0-18.1c-3.3,0-6.4,0-9.9,0c0-3.1,0-6,0-9c-28.9,0-57.4,0-86.1,0c0,2.9,0,5.7,0,8.8c-3.4,0-6.7,0-10,0
	c0,28.7,0,57.3,0,86c3.2,0,6.3,0,9.8,0c0.3,7.4,0.1,14.9,0.2,22.3c0,7.3,0,14.7,0,22c0,7.5,0,14.9,0,22.6c3,0,5.8,0,8.9,0
	c0,19.1,0,38,0,57c0,0,0,0,0,0c6.8,0,13.2,0,19.9,0c0,6.3,0,12.4,0,18.9c-3,0.5-6.3-0.1-9.7,0.3c0,9.5,0,19,0,28.8
	c-3.4,0-6.6,0-10.1,0c0,9.8,0,19.3,0,29.1c-3.1,0-6,0-9.1,0c0,0,0,0,0,0c0,12.8,0,25.3,0,38.1c-3.5,0-6.7,0-10,0c0,32,0,64,0,96
	c29,0,58,0,87,0c0-6.5,0-13,0-19.9c2.9,0,5.7,0,8.8,0c0,0,0.1,0,0.1-0.1c0-9.4,0-18.5,0-27.9c6.4,0,12.6,0,19.1,0
	c0,6.2,0,12.3,0,18.6c3.3,0,6.4,0,9.8,0c0.7,3-0.1,6,0.5,9c44.4,0,88.9,0,133.7,0c0-2.7,0-5.7,0-8.7c29.1,0,57.9,0,87.1,0
	c0-3.4,0-6.6,0-10c3.1,0,5.9,0,8.9,0c0,3.1,0,6.2,0,9.3c4.4,0.8,90.6,1.1,106,0.4c0-3.1,0-6.2,0-9.6c9.7,0,19.3,0,29.1,0
	c0,3.1,0,6.2,0,9.6c80.1,0,160,0,240,0c0-3.2,0-6.3,0-9.6c6.3,0,12.4,0,18.9,0c0.5,3,0,6.3,0.2,9.7c22.2,0,44.4,0,66.8,0
	c0,3.1,0,6,0,9c0,0,0,0,0,0c3.5,0,6.6,0,10,0c0,3.4,0,6.7,0,10.1c22.5,0,44.6,0,67.1,0c0,3.4,0,6.7,0,10c25.7,0,51.3,0,77,0
	c0-3.3,0-6.5,0-10c3.1,0,5.8,0,8.9,0c0-6.3,0-12.6,0-19c3.6,0,6.8,0,10.1,0c0-41.3,0-82.7,0-124C985.8,297,982.7,297,979.1,297z
	 M162.8,267.9c-2.7,0.2-5.6,0-8.7,0.1c0-6.3,0-12.4,0-19c-3.6,0-6.7,0-10,0c0-3.3,0-6.4,0-9.8c-3.1,0-6,0-9,0c0-3.1,0-5.9,0-8.9
	c9.1,0,18.3,0,27.7,0C162.8,242.6,162.8,255,162.8,267.9z M653,219.5c-0.1,0.1-0.2,0.2-0.4,0.3c-0.1,0.1-0.3,0.2-0.4,0.2
	c-22,0-43.9,0-66.1,0c0,6.3,0,12.4,0,18.9c-32.1,0-63.9,0-96,0c0,3.4,0,6.6,0,10c-6.4,0-12.6,0-19,0c0,3.1,0,5.9,0,8.9
	c-3.4,0-6.6,0-10.1,0c0-2.9,0-5.6,0-8.8c-22.4,0-44.6,0-66.9,0c0-12.8,0-25.2,0-37.9c18.8,0,37.6,0,56.7,0c0.5-3.4,0-6.6,0.4-10
	c3.2,0,6.3,0,9.8,0c0,3.1,0,6.3,0,9.7c64.3,0,128.2,0,192.1,0C653,213.8,653,216.7,653,219.5z M681.8,210.8c-9.6,0-19.2,0-28.8,0
	c0-3,0-6.2,0-9.6c3.2-0.5,6.5,0,10-0.3c0-18.9,0-37.8,0-56.8c6.4,0,12.5,0,18.8,0C681.8,166.3,681.8,188.5,681.8,210.8z"/>
<path class="st0" d="M970,305.8c0-3,0-5.7,0-8.9c-3.4,0-6.7,0-10.1,0c0-3.5,0-6.6,0-10.1c-19.1,0-38,0-57.1,0c0-3.1,0-5.9,0-8.9
	c-19.2,0-38.1,0-57.1,0c-0.1,0-0.3-0.1-0.4-0.2c-0.1-0.1-0.2-0.2-0.5-0.6c0-2.9,0-6,0-9.3c-35.3,0-70.4,0-105.9,0
	c0-12.7,0-25.3,0-38.1c-3.1,0-5.9,0-9.1,0c0-3.4,0-6.7,0-9.7c-22.5,0-44.6,0-66.9,0c0,6.3,0,12.4,0,18.6c-3.4,0-6.7,0-10.1,0
	c0-3,0-5.8,0-8.6c-19.4,0-38.6,0-58.1,0c0,9.4,0,18.5,0,27.8c-6.4-0.2-12.6,0.2-19-0.2c0-3.1,0-5.9,0-8.7c-25.6,0-51.1,0-76.9,0
	c0,3,0,5.9,0,9c-6.5,0-12.6,0-19.1,0c0,3.4,0,6.7,0,9.7c-9.8,0-19.3,0-28.9,0c0-3.3,0-6.4,0-9.9c-22.4,0-44.6,0-67.1,0
	c0-12.8,0-25.3,0-38.1c-3.1,0-6,0-8.8,0c0-6.5,0-12.6,0-18.9c22.1,0,44.1,0,66.1,0c0.1,0,0.3-0.1,0.4-0.2c0.1-0.1,0.2-0.2,0.5-0.6
	c0-2.6,0-5.4,0-8.1c9.6,0,19.1,0,28.9,0c0,3,0,5.9,0,8.7c35.1,0,69.9,0,105.1,0c0-3.1,0-6,0-8.7c3.5,0,6.6,0,9.9,0c0,3,0,5.7,0,8.6
	c19.1,0,38,0,57.1,0c0-3,0-5.8,0-8.9c3.4,0,6.7,0,9.9,0c0-9.8,0-19.3,0-28.8c0-9.6,0-19.2,0-28.9c13.2-0.6,34.1-0.4,38.2,0.4
	c0,25.4,0,50.9,0,76.5c29,0,57.8,0,86.9,0c0,3.1,0,6,0,9.1c19.1,0,37.9,0,56.9,0c0,3.3,0,6.4,0,9.7c39,0,77.4,0,116.1,0
	c0-6.3,0-12.4,0-18.9c3.1,0,6,0,9.1,0c0-22.5,0-44.6,0-67.1c3.4,0,6.7,0,9.7,0c0-38.5,0-76.6,0-114.7c-15.3-0.7-62.8-0.4-67,0.4
	c0,9.4,0,18.9,0,28.5c-3.3,0-6.4,0-9.9,0c0,6.4,0,12.7,0,18.8c-9.8,0-19.3,0-29.1,0c0-3.4,0-6.6,0-10c-32.1,0-63.9,0-95.9,0
	c0-15.6,0-31.1,0-46.6c-25.7,0-51.3,0-77.1,0c0,12.7,0,25.1,0,37.9c-32.1,0-64,0-96.1,0c0,3.1,0,5.9,0,8.9c-3.1-0.1-6,0.1-9-0.1
	c0-3.2,0-6,0-8.9c-6.3,0-12.4,0-18.9,0c0-3.4,0-6.7,0-9.8c-29.1,0-57.9,0-87.1,0c0,3.4,0,6.6,0,9.7c-9.8,0-19.3,0-28.9,0
	c0-9.6,0-19.1,0-28.9c-3.1,0-6,0-9.1,0c0-3.1,0-5.9,0-8.7c-19.4,0-38.6,0-58.1,0c0,3,0,5.8,0,8.8c-1.6,0-3.1-0.1-4.6,0
	c-1.4,0.1-2.9-0.4-4.4,0.5c0,9.5,0,18.9,0,28.5c-41.6,0-83.1,0-124.9,0c0,3.1,0,6,0,9.1c-3.5,0-6.6,0-9.8,0
	c-0.3,3.4,0.2,6.7-0.3,9.7c-3.1,0-5.9,0-8.9,0c0-19,0-37.8,0-56.9c-3.4,0-6.7,0-10.1,0c0-3.5,0-6.6,0-9.7c-19.4,0-38.6,0-58.1,0
	c0,3.4,0,6.5,0,9.8c-3,0-5.7,0-8.9,0c0,6.4,0,12.7,0,19.1c-3.5,0-6.6,0-10.1,0c0,6.4,0,12.7,0,19.1c-3.1,0-5.9,0-8.9,0
	c0,9.1,0,18.1,0,27.1c0,0.1-0.1,0.3-0.2,0.4c-0.1,0.1-0.2,0.2-0.2,0.2c-6.6,0-13.1,0-19.7,0c0-6.3,0-12.4,0-18.9c-3.1,0-6,0-9.1,0
	c0-3.1,0-5.9,0-9.1c-3.4,0-6.7,0-10.1,0c0-6.5,0-12.6,0-18.9c-3,0-5.7,0-8.9,0c0-3.4,0-6.7,0-9.9c-22.8,0-45.3,0-68.1,0
	c0,3.4,0,6.6,0,10c-3.1,0-5.9,0-8.7,0c-0.7,13.8-0.4,62.8,0.4,67c2.8,0,5.5,0,8.5,0c0,22,0,43.8,0,65.9c3.4,0,6.7,0,10.1,0
	c0,19.5,0,38.6,0,58.1c9.7,0,19.3,0,28.7,0c0,3.1,0,5.9,0,8.9c-3.3,0-6.4,0-9.9,0c0,9.7,0,19.3,0,29.1c-3.1,0-5.9,0-9.1,0
	c0,9.7,0,19.3,0,29.1c-3.5,0-6.6,0-9.9,0c0,9.2,0,18.1,0,27.1c0,0.1-0.1,0.3-0.2,0.4c-0.1,0.1-0.2,0.2-0.6,0.5c-2.9,0-6,0-9.3,0
	c0,13,0,25.8,0,38.9c-3.1,0-6,0-8.8,0c0,25.5,0,50.6,0,75.7c22.4,0,44.6,0,67,0c0-6.4,0-12.5,0-18.8c3.3,0,6.4,0,9.9,0
	c0-9.7,0-19.3,0-28.8c12.8,0,25.3,0,38.1,0c0,6.4,0,12.6,0,19c3.5,0,6.6,0,9.8,0c0.4,3.4-0.2,6.7,0.3,9.7c38.5,0,76.6,0,114.9,0
	c0-3.3,0-6.4,0-9.9c3.1,0,6,0,8.8,0c0-22.5,0-44.6,0-67.1c-3.1,0-6,0-8.7,0c0-6.5,0-12.6,0-18.8c6.3,0,12.4,0,18.9,0
	c0,25.7,0,51.2,0,77c3.5,0,6.6,0,10.1,0c0,3.1,0,6,0,8.8c19.1,0,37.9,0,56.7,0c0.5-3-0.2-6,0.4-8.6c9.8,0,19.2,0,28.9,0
	c0,3,0,5.8,0,8.6c28.7,0,57.3,0,86.1,0c0-3,0-5.8,0-8.8c1.8,0,3.5,0,5.1,0c1.6-0.1,3.3,0.3,5-0.3c0-3.3,0-6.4,0-9.6
	c6.3,0,12.4,0,18.9,0c0,3.3,0,6.6,0,10c6.5,0,12.6,0,19.1,0c0,3.1,0,6,0,8.7c25.8,0,51.3,0,76.7,0c0.5-3-0.2-6,0.4-8.6
	c6.5,0,12.6,0,18.9,0c0,3,0,5.8,0,8.6c19.4,0,38.6,0,58.1,0c0-3,0-5.8,0-8.8c1.8,0,3.5,0,5.1,0c1.6,0.1,3.3-0.3,5,0.3
	c0,3,0,5.7,0,8.5c19,0,37.7,0,56.9,0c0-3,0-5.9,0-9c3.5,0,6.6,0,10.1,0c0-9.7,0-19.3,0-28.7c3.1,0,5.9,0,8.9,0c0,6.1,0,12.1,0,18.1
	c0,0.1,0.1,0.3,0.2,0.4c0.1,0.1,0.2,0.2,0.6,0.5c2.9,0,6,0,9.3,0c0,3.3,0,6.4,0,9.9c3.4,0,6.7,0,10.1,0c0,3.1,0,5.9,0,8.7
	c12.2,0.6,43.8,0.4,48.1-0.3c0-6.1,0-12.2,0-18.5c3,0,5.8,0,8.9,0c0-3.1,0-6,0-8.8c3.5,0,6.6,0,10.1,0c0,12.7,0,25.3,0,38
	c3.1,0,5.9,0,8.9,0c0,3,0,5.7,0,8.6c19.4,0,38.6,0,58.1,0c0-3,0-5.8,0-8.6c3.4,0,6.7,0,10.1,0c0,6.3,0,12.5,0,18.6
	c13.1,0.6,52.8,0.4,57.1-0.4c0-3.1,0-6.2,0-9.5c3.3,0,6.4,0,9.9,0c0-6.4,0-12.7,0-19.1c3.1,0,5.9,0,8.7,0c0-35.1,0-70,0-105.1
	C975.7,305.8,972.9,305.8,970,305.8z M182.9,229.9c-3.2,0-6.4,0-9.8,0c0,16.1,0,31.9,0,47.9c-3.3,0-6.4,0-9.3,0
	c-0.3,0.3-0.5,0.4-0.6,0.5c-0.1,0.1-0.2,0.3-0.2,0.4c0,6,0,11.9,0,18.1c-2.9,0-5.7,0-8.9,0c0-6.1,0-12.3,0-18.7c-3.5,0-6.6,0-10,0
	c0-6.7,0-13.3,0-20c-3.1,0-5.9,0-9,0c0-3.1,0-6,0-9c-3.5,0-6.6,0-9.9,0c0-6.3,0-12.4,0-19c-6.6,0-12.8,0-19,0c0-3.3,0-6.4,0-9.9
	c18.8,0,37.7,0,56.7,0c0-3.1,0-5.9,0-8.9c6.7,0,13.3,0,20,0C182.9,217.4,182.9,223.5,182.9,229.9z"/>
<path class="st1" d="M461.2,383c-3.6,0-6.8,0-10.1,0c0,3,0,5.7,0,8.9c-3.1,0-6,0-9.1,0c0,3.5,0,6.6,0,9.9c-22.3,0-44.4,0-66.9,0
	c-0.5-3,0.1-6.3-0.3-9.7c-6.5,0-13,0-19.8,0c0-3.1,0-6,0-9.1c-3.1,0-5.9,0-9.1,0c0-3.4,0-6.7,0-10c-3.5,0-6.6,0-9.9,0
	c0,6.2,0,12.3,0,18.8c-3.1,0-6,0-9.1,0c0,3.5,0,6.6,0,9.9c-13.1,0-26,0-39.1,0c0-3.2,0-6.3,0-9.6c-2.9,0-5.7,0-8.3,0
	c-0.3-0.3-0.5-0.4-0.6-0.5c-0.1-0.1-0.2-0.3-0.2-0.4c0-25,0-49.9,0-75.1c-3.3,0-6.4,0-9.9,0c0-12.7,0-25.3,0-38c-3.5,0-6.6,0-10.1,0
	c0,12.5,0,25.1,0,37.8c-6.5,0-12.6,0-18.9,0c0,12.6,0,25.1,0,37.8c1.4,0.5,3,0.1,4.6,0.2c1.6,0.1,3.3,0,5.1,0c0,16,0,31.8,0,47.9
	c-3.1,0-6.4,0-9.8,0c0,3.1,0,5.9,0,8.9c-12.6,0-25.1,0-37.9,0c-0.6-2.6,0.1-5.6-0.4-8.6c-3.1,0-6.2,0-9.7,0c0,2.8,0,5.7,0,8.7
	c-16.1,0-31.9,0-48.1,0c0-2.8,0-5.8,0-8.8c-3.1,0-5.9,0-8.9,0c0-6.3,0-12.4,0-18.5c-4.2-0.7-46.4-0.9-58.1-0.3c0,9.1,0,18.2,0,27.7
	c-3.4,0-6.6,0-10.1,0c0,6.5,0,12.6,0,18.9c-16,0-31.7,0-47.6,0c-0.8-3.9-1-41.5-0.3-56.7c3.1,0,6.2,0,9.8,0c0-6.4,0-12.7,0-19
	c0-6.3,0-12.6,0-19.1c3.3,0,6.5,0,9.9,0c0-9.7,0-19.3,0-29.1c3.1,0,5.9,0,8.9,0c0-9.3,0-18.4,0-27.8c3.4-0.5,6.7,0,10.1-0.3
	c0-9.5,0-19,0-28.8c3.1,0,6,0,9.1,0c0-3.5,0-6.6,0-9.9c16,0,31.7,0,47.7,0c-0.1-0.1,0,0,0.1,0.1c0.1,0.1,0.2,0.3,0.2,0.4
	c0,6,0,12,0,18.1c3.3,0,6.4,0,9.9,0c0,3.4,0,6.6,0,10.1c3.5,0,6.6,0,10.1,0c0,6.4,0,12.6,0,19.1c3.1,0,5.9,0,8.9,0
	c0,6.3,0,12.4,0,18.9c3.4,0,6.6,0,10.1,0c0,3.5,0,6.6,0,10.1c3.1,0,6,0,9.1,0c0,6.5,0,12.6,0,18.9c3.3,0,6.4,0,9.3,0
	c0.3,0.3,0.5,0.4,0.6,0.5c0.1,0.1,0.2,0.3,0.2,0.4c0,6,0,12,0,18.1c3.3,0,6.4,0,9.9,0c0,3.4,0,6.6,0,10c3.1,0,5.9,0,8.9,0
	c0-12.9,0-25.8,0-38.8c-2.9,0-5.7,0-8.6,0c0-3,0-5.7,0-8.9c-3.4,0-6.6,0-10,0c0-9.8,0-19.3,0-29.1c3.1,0,6.4,0,9.8,0
	c0-16.1,0-31.9,0-47.9c2.9,0,5.7,0,8.8,0c0.7-3-0.1-6,0.5-9c3.1,0,6.2,0,9.7,0c0-3.4,0-6.6,0-10c22.5,0,44.6,0,67.1,0
	c0,3.2,0,6.4,0,9.8c6.5,0,12.6,0,18.9,0c0-3.1,0-6.3,0-9.6c1.7-0.6,3.4-0.3,5-0.3c1.6-0.1,3.3,0,5.1,0c0-3,0-5.8,0-8.8
	c16.1,0,32,0,48.1,0c0,2.8,0,5.6,0,8.6c6.3,0,12.4,0,18.8,0c0.6,3.4,0,6.7,0.4,10c3.2,0,6.3,0,9.8,0c0,12.7,0,25.3,0,38.1
	c22.5,0,44.6,0,67.1,0c0,3.4,0,6.7,0,10.1c6.5,0,12.6,0,18.9,0c0,6.3,0,12.4,0,18.9c3.4,0.4,6.6,0,10.1,0.2c0-3.4,0-6.5,0-10
	c3.1,0,6,0,9.1,0c0-3.1,0-5.9,0-8.9c3.3,0,6.4,0,9.7,0c0.7-1.7,0.3-3.3,0.4-4.9c0.1-1.6,0-3.3,0-5.1c6.3,0,12.4,0,18.9,0
	c0-3.4,0-6.6,0-10c19.5,0,38.6,0,58.1,0c0,3.2,0,6.4,0,9.8c12.8,0,25.3,0,37.9,0c0-9.5,0-18.9,0-28.4c4.2-0.7,27-0.9,38.1-0.3
	c0,3.1,0,6.2,0,9.7c3.4,0,6.6,0,10.1,0c0,6.5,0,12.6,0,18.9c6.3,0,12.4,0,18.9,0c0.4-6,0.1-12.3,0.2-18.6c0.1-6.3,0-12.6,0-19.1
	c16,0,31.7,0,47.9,0c0,2.7,0,5.7,0,8.7c3.5,0,6.6,0,9.9,0c0,9.7,0,19.3,0,29.1c-3.2,0-6.3,0-9.6,0c0,6.3,0,12.4,0,18.9
	c3,0.3,6.3,0,9.7,0.2c0-3,0-5.8,0-8.8c16.1,0,32,0,48.1,0c0,2.8,0,5.6,0,8.6c2.9,0,5.7,0,8.9,0c0.6-2.6-0.1-5.6,0.4-8.6
	c15.8,0,31.6,0,47.7,0c0,2.7,0,5.7,0,8.7c3.5,0,6.6,0,10.1,0c0,3.4,0,6.7,0,10c3.5,0,6.6,0,9.9,0c0-3.1,0-6.3,0-9.4
	c4.2-0.7,27.1-0.9,38.1-0.3c0,3.1,0,6.2,0,9.7c19.4,0,38.6,0,58.1,0c0,3.1,0,5.9,0,8.9c2.9,0,5.7,0,8.8,0c0.6,3.4,0,6.7,0.4,10
	c3.2,0,6.3,0,9.6,0c0,28.7,0,57.3,0,86.1c-3.1,0-6.2,0-9.7,0c0,6.4,0,12.6,0,19.1c-3.1,0-5.9,0-8.9,0c0,3,0,5.7,0,8.5
	c-4.2,0.7-27.9,0.9-39,0.3c0-18.8,0-37.6,0-56.7c3.1,0,6.4,0,9.7,0c0-9.8,0-19.3,0-28.9c-9.4,0-18.9,0-28.6,0c0.1-0.1,0,0-0.1,0.1
	c-0.1,0.1-0.2,0.3-0.2,0.4c0,22,0,44,0,66.1c-3.3,0-6.4,0-9.9,0c0,3.4,0,6.6,0,10c-12.8,0-25.3,0-38.1,0c0-3.2,0-6.4,0-9.8
	c-3.5,0-6.6,0-9.9,0c0-12.6,0-25.1,0-37.9c3-0.4,6.3,0,9.7-0.3c0-9.5,0-19,0-28.7c-3.1,0-6.4,0-9.8,0c0,3.1,0,6.3,0,9.6
	c-2.9,0-5.7,0-8.7,0c-0.7,1.7-0.3,3.3-0.4,4.9c-0.1,1.6,0,3.3,0,5.1c-3.3,0-6.4,0-9.9,0c0,3.1,0,6,0,9.1c-3.1,0-5.9,0-9.1,0
	c0,3.4,0,6.7,0,10.1c-3.5,0-6.6,0-9.9,0c0,6.3,0,12.4,0,18.4c-0.3,0.3-0.4,0.4-0.5,0.5c-0.1,0.1-0.3,0.2-0.4,0.2
	c-9.3,0-18.6,0-28.1,0c0-3.3,0-6.4,0-9.9c-3.1,0-6,0-9.1,0c0-3.1,0-5.9,0-8.9c-3.3,0-6.4,0-9.3,0c-0.3-0.3-0.5-0.4-0.6-0.5
	c-0.1-0.1-0.2-0.3-0.2-0.4c0-6,0-12,0-18.1c-3.3,0-6.4,0-9.9,0c0-3.4,0-6.6,0-10.1c-3.1,0-5.9,0-9.1,0c0-6.4,0-12.6,0-19
	c-3.5,0-6.6,0-9.9,0c0,18.8,0,37.6,0,56.7c-3.1,0-6,0-9.1,0c0,3.5,0,6.6,0,9.9c-13.1,0-26,0-39.1,0c0-3.2,0-6.3,0-9.6
	c-2.9,0-5.7,0-8.5,0c-0.8-4.2-1.1-33.6-0.4-48.2c1.4,0,2.9,0,4.3,0c1.3,0,2.7,0,4.2,0c0-12.6,0-25.2,0-37.9c-2.8,0-5.6,0-8.7,0
	c0,3.2,0,6.4,0,9.8c-3.5,0-6.6,0-9.9,0c0,25.3,0,50.4,0,75.7c-1.7,0.6-3.4,0.3-5,0.3c-1.6,0.1-3.3,0-5.1,0c0,3.3,0,6.4,0,9.8
	c-12.7,0-25.3,0-38.1,0c0-31.8,0-63.6,0-95.6c-3.3,0-6.4,0-9.9,0c-0.5,3,0.1,6.3-0.3,9.6c-2.8,0-5.6,0-8.7,0c0,3.1,0,6,0,9
	c-13.1,0-25.9,0-39.1,0c0-2.8,0-5.8,0-8.8c-6.5,0-12.6,0-18.9,0c0,2.8,0,5.6,0,8.7c-3.1,0-6,0-9,0c0,3.5,0,6.6,0,10.1
	c2.8,0,5.7,0,8.8,0c0,3.1,0,5.9,0,8.9c6.3,0,12.4,0,18.9,0c0.6-2.6-0.1-5.6,0.4-8.6c12.8,0,25.5,0,38.7,0c0,2.7,0,5.7,0,8.7
	c3.1,0,5.9,0,8.9,0c0,13.1,0,26,0,39.1c-2.9,0-5.6,0-8.6,0c0,2.9,0,5.7,0,9c-2.3,0-4.4,0-6.5,0c-2,0-4,0-6,0c-2.1,0-4.3,0-6.6,0
	c0,3.3,0,6.4,0,9.8c-19.4,0-38.6,0-58.1,0c0-3.1,0-6.3,0-9.6c-6.3,0-12.4,0-18.5,0c-0.9-1.5-0.4-3-0.5-4.4c-0.1-1.5,0-3,0-4.6
	c-3.3,0-6.4,0-9.9,0c0-3.4,0-6.6,0-10.1c-3.1,0-5.9,0-9.1,0c0-9.7,0-19.3,0-29c-3.5,0-6.6,0-9.9,0
	C461.2,356.9,461.2,369.7,461.2,383z"/>
<path class="st1" d="M855,77.2c0,3,0,5.7,0,8.7c16,0,31.7,0,47.9,0c0-6.1,0-12.4,0-18.8c3.1,0,5.9,0,8.9,0c0-9.3,0-18.4,0-27.5
	c4.2-0.8,34.1-1,48-0.4c0,31.4,0,62.9,0,94.7c-2.8,0-5.7,0-8.7,0c0,22.5,0,44.6,0,67.1c-3.4,0-6.7,0-10.1,0c0,6.5,0,12.6,0,18.9
	c-16,0-31.7,0-47.9,0c0-2.7,0-5.6,0-8.7c-3.5,0-6.6,0-10.1,0c0,2.8,0,5.7,0,8.7c-12.8,0-25.3,0-37.9,0c0-2.8,0-5.5,0-8.1
	c-0.3-0.3-0.4-0.5-0.5-0.6c-0.1-0.1-0.3-0.2-0.4-0.2c-19,0-38,0-57.1,0c0-3.3,0-6.4,0-9.9c-6.4,0-12.6,0-19.1,0c0-3.1,0-5.9,0-9.1
	c-3.1,0-6,0-9.1,0c0-9.8,0-19.3,0-28.9c-3.3,0-6.4,0-9.7,0c0.1-0.1-0.1,0-0.2,0.2c-0.1,0.1-0.2,0.3-0.2,0.4c0,12.2,0,24.3,0,36.5
	c0,0.1-0.1,0.3-0.3,0.6c-15.7,0-31.5,0-47.6,0c0-25.1,0-50.4,0-75.8c-12.8,0-25.3,0-37.9,0c0-3.3,0-6.4,0-9.9
	c-6.7-0.4-13.3-0.1-20-0.2c0,22.3,0,44.4,0,66.9c-3.1,0-6,0-9.1,0c0,3.5,0,6.6,0,9.9c-13.1,0-26,0-39.1,0c0-22.2,0-44.3,0-66.6
	c-2.9,0-5.7,0-8.7,0c0.1-0.1-0.1,0-0.1,0.2c-0.1,0.1-0.2,0.3-0.2,0.4c0,6,0,11.9,0,18.1c-3.3,0-6.4,0-9.9,0c0,12.7,0,25.3,0,38.1
	c-3.1,0-5.9,0-8.9,0c0,3.3,0,6.4,0,9.5c-4.3,0.9-70,1.2-87,0.4c0-3.1,0-6.2,0-9.7c-6.4,0-12.6,0-19.1,0c0-6.5,0-12.6,0-19.1
	c-3.4,0-6.7,0-10.1,0c0-16.1,0-31.9,0-47.9c-2.9,0-5.7,0-8.7,0c0.1-0.1-0.1,0-0.1,0.2c-0.1,0.1-0.2,0.3-0.2,0.4c0,22,0,43.9,0,66.1
	c-3.3,0-6.4,0-9.9,0c0,3.4,0,6.6,0,10c-12.8,0-25.3,0-38.1,0c0-3.2,0-6.5,0-9.9c-3.5,0-6.6,0-9.9,0c0-22.3,0-44.4,0-66.8
	c-3.1,0-6,0-9.1,0c0,25.4,0,50.9,0,76.7c-3.4,0-6.6,0-10.1,0c0,3.1,0,5.9,0,8.9c-35.3,0-70.4,0-105.9,0c0-2.7,0-5.6,0-8.7
	c-3.1,0-5.9,0-9.1,0c0-3.4,0-6.6,0-10.1c-3.5,0-6.6,0-10.1,0c0-3.4,0-6.7,0-10c-3.1,0-5.9,0-8.9,0c0,9.5,0,19,0,28.8
	c-3.4,0-6.6,0-10.1,0c0,3.5,0,6.6,0,9.9c-9.7,0-19.3,0-29.1,0c0-3.2,0-6.3,0-9.6c-2.9,0-5.7,0-8.3,0c-0.3-0.3-0.5-0.4-0.5-0.5
	c-0.1-0.1-0.2-0.3-0.2-0.4c0-9.3,0-18.6,0-28.1c-3.3,0-6.4,0-9.9,0c0,6.5,0,13,0,19.8c-3.5,0-6.6,0-10.1,0c0,3.1,0,6,0,9.1
	c-3.1,0-5.9,0-8.9,0c0,3.3,0,6.4,0,9.8c-13.1,0-26,0-39.1,0c0-3.1,0-6.2,0-9.7c-3.1,0-6,0-9.1,0c0-3.1,0-5.9,0-8.9
	c-3.3,0-6.4,0-9.7,0c0.1-0.1-0.1,0-0.1,0.2c-0.1,0.1-0.2,0.3-0.2,0.4c0,9,0,17.9,0,27.1c-19,0-37.8,0-56.9,0c0-18.8,0-37.7,0-56.8
	c-3.5,0-6.6,0-10.1,0c0-22.4,0-44.6,0-67.1c-3.5,0-6.6,0-9.9,0c0-16,0-31.7,0-47.9c3.1,0,6.3,0,9.7,0c0-3.1,0-5.9,0-8.9
	c16.1,0,32,0,48.1,0c0,2.9,0,5.6,0,8.6c3.3,0,6.4,0,9.3,0c0.3,0.3,0.5,0.4,0.5,0.5c0.1,0.1,0.2,0.3,0.2,0.4c0,6,0,11.9,0,18.1
	c3,0,5.8,0,8.9,0c0,3.4,0,6.6,0,10.1c3.5,0,6.6,0,9.9,0c0,6.3,0,12.4,0,18.5c1.5,1,3,0.4,4.4,0.5c1.5,0.1,3,0,4.6,0
	c0,3.3,0,6.4,0,9.9c3.4,0,6.6,0,10.1,0c0,6.5,0,12.6,0,18.9c3.4,0,6.6,0,10.1,0c0-9.5,0-19,0-28.6c2.9,0,5.7,0,8.4,0
	c0.3-0.3,0.4-0.4,0.5-0.5c0.1-0.1,0.2-0.3,0.2-0.4c0-9.2,0-18.3,0-27.5c0-0.1,0.1-0.3,0.3-0.6c3,0,6.1,0,9.6,0c0-6.4,0-12.6,0-19.1
	c3.1,0,5.9,0,8.9,0c0-6.3,0-12.4,0-18.8c3.4-0.6,6.7,0,10-0.4c0-2.8,0-5.6,0-8.6c12.7,0,25.3,0,38.1,0c0,2.8,0,5.6,0,8.7
	c3.4,0,6.7,0,10.1,0c0,19.1,0,37.9,0,56.9c3.3,0,6.4,0,9.9,0c0,3.4,0,6.6,0,10c3.1,0,5.9,0,9.1,0c0-3.1,0-6.4,0-9.8
	c3.5,0,6.6,0,9.9,0c0-2.9,0-5.7,0-8.8c3-0.7,6,0.1,9-0.5c0-3.1,0-6.2,0-9.6c35.4,0,70.6,0,106.1,0c0,3.1,0,6.2,0,9.6
	c3.4,0,6.6,0,10.1,0c0-3.2,0-6.3,0-9.6c3,0,5.7,0,8.4,0c0.3-0.3,0.4-0.4,0.5-0.5c0.1-0.1,0.2-0.3,0.2-0.4c0-8.8,0-17.7,0-26.5
	c0-0.1,0.1-0.3,0.3-0.6c3,0,6.1,0,9.6,0c0-3.4,0-6.6,0-10c12.8,0,25.3,0,37.9,0c0,3.1,0,6.2,0,9.8c3.4,0.2,6.6,0,10,0.1
	c0,9.3,0,18.4,0,27.9c3.1,0,6,0,9.1,0c0,3.5,0,6.6,0,9.9c6.7,0,13.3,0,20.1,0c0-3.2,0-6.3,0-9.6c6.3,0,12.4,0,18.5,0
	c0.9-1.5,0.4-3,0.5-4.5c0.1-1.5,0-2.9,0-4.6c22.3,0,44.4,0,66.9,0c0,2.8,0,5.7,0,8.8c6.5,0,12.6,0,18.9,0c0,3.3,0,6.4,0,9.8
	c3.4,0.6,6.7,0,10,0.4c0,6.2,0,12.3,0,18.6c3.1,0,6,0,9.1,0c0-6.1,0-12.2,0-18.7c3.4,0,6.7,0,10.1,0c0-3.5,0-6.6,0-9.9
	c28.6,0,57.1,0,85.9,0c0,3,0,6.3,0,9.7c6.8,0,13.3,0,19.9,0c0-3.1,0-6.4,0-9.8c-3.2,0-6.3,0-9.6,0c0-12.6,0-25.1,0-37.6
	c3.9-0.7,43.1-1,57.7-0.3c0,22.1,0,44.2,0,66.6c3.1,0,6,0,9.1,0c0-3.1,0-6.2,0-9.7c3.4,0,6.7,0,10.1,0c0-3.1,0-5.9,0-8.9
	C803.6,77.2,829,77.2,855,77.2z"/>
<path d="M249.8,210.9c-3.3,0-6.4,0-9.7,0c0-3.2,0-6.3,0-9.7c1.4-0.5,3-0.1,4.6-0.2c1.6-0.1,3.3,0,5.1,0
	C249.8,204.3,249.8,207.4,249.8,210.9z"/>
<path d="M911.8,363.9c-3,0-5.7,0-8.7,0c0-3.2,0-6.3,0-9.8c2.7-0.2,5.6,0,8.7-0.1C911.8,357.3,911.8,360.4,911.8,363.9z"/>
<path class="st2" d="M153.8,344c3.3,0,6.1,0,9.1,0c0,6.6,0,13.1,0,19.9c3.4,0,6.6,0,10.1,0c0,3.1,0,5.9,0,8.9c3.3,0,6.4,0,9.3,0
	c0.3,0.3,0.5,0.4,0.6,0.5c0.1,0.1,0.2,0.3,0.2,0.4c0,9.3,0,18.6,0,28.1c-9.6,0-19.1,0-28.9,0c0-3.1,0-6.3,0-9.7c-3.5,0-6.6,0-10.1,0
	c0-6.4,0-12.6,0-19c-25.8,0-51.2,0-76.9,0c0,9.5,0,18.9,0,28.6c-3,0.7-6,0-9,0.5c0,6.1,0,12.2,0,18.6c-9.7,0-19.3,0-29,0
	c0-12.5,0-24.9,0-37.7c3.2,0,6.4,0,9.8,0c0-13.1,0-25.9,0-38.9c2.9,0,5.7,0,8.4,0c0.3-0.3,0.4-0.4,0.5-0.5c0.1-0.1,0.2-0.3,0.2-0.4
	c0-9,0-17.9,0-27.1c3.3,0,6.4,0,9.9,0c0-9.7,0-19.3,0-29.1c3.1,0,5.9,0,9.1,0c0-9.7,0-19.3,0-29.1c3.5,0,6.6,0,9.9,0
	c0-3,0-5.7,0-8.8c9.7,0,19.3,0,29.1,0c0,6.1,0,12.2,0,18.7c3.1,0,6,0,9.1,0c0,3.5,0,6.6,0,9.9c3.3,0,6.4,0,9.3,0
	c0.3,0.3,0.5,0.4,0.6,0.5c0.1,0.1,0.2,0.3,0.2,0.4c0,6,0,11.9,0,18.1c3.3,0,6.4,0,9.9,0c0,6.4,0,12.6,0,19.1c3.1,0,5.9,0,9.1,0
	c0,3.1,0,6,0,9.1c3.5,0,6.6,0,9.9,0C153.8,331.3,153.8,337.4,153.8,344z"/>
<path class="st2" d="M450.8,306c3.6,0,6.8,0,10,0c0,9.6,0,19.1,0,28.9c-12.5,0-25,0-37.8,0c0,3.1,0,5.9,0,9c-16.1,0-32,0-48,0
	c0,3.5,0,6.6,0,9.9c6.1,0,12.2,0,18.5,0c0.8,3.4,0.1,6.7,0.5,10c9.5,0,19,0,28.8,0c0-3.1,0-6.3,0-9.7c9.5,0,18.6,0,27.9,0
	c0,6.1,0,12.4,0,18.8c-2.8,0-5.6,0-8.7,0c0,3.4,0,6.6,0,10.1c-3.5,0-6.6,0-9.9,0c0,2.9,0,5.7,0,8.8c-16.1,0-32,0-48,0
	c0-2.7,0-5.5,0-8.6c-6.4,0-12.6,0-19,0c0-3.5,0-6.6,0-10.1c-3.4,0-6.6,0-10.1,0c0-3.1,0-5.9,0-8.9c-2.9,0-5.7,0-8.5,0
	c-0.8-4.4-1-44.3-0.4-58c2.8,0,5.6,0,8.7,0c0-6.4,0-12.6,0-19c6.8,0,13.2,0,20,0c0-3.1,0-6,0-9c19.1,0,37.9,0,57,0
	c0,2.9,0,5.8,0,8.9c6.5,0,12.6,0,18.9,0C450.8,293.3,450.8,299.4,450.8,306z"/>
<path class="st2" d="M585.9,353.8c0,6.6,0,12.8,0,19c-3.2,0-6.3,0-9.8,0c0,3.4,0,6.6,0,10.1c-6.5,0-12.6,0-19,0c0,3.1,0,6,0,9
	c-12.8,0-25.2,0-37.9,0c0-2.8,0-5.6,0-8.2c-0.3-0.3-0.4-0.5-0.5-0.5c-0.1-0.1-0.3-0.2-0.4-0.2c-6.3,0-12.6,0-19.1,0
	c0-3.3,0-6.4,0-9.9c-3.1,0-6,0-9.1,0c0-3.1,0-5.9,0-9.1c-3.4,0-6.6,0-10,0c0-22.5,0-44.6,0-66.9c3.1,0,6.2,0,9.6,0
	c0.6-3.4,0-6.7,0.4-10c2.8,0,5.6,0,8.7,0c0-3.1,0-6,0-9.1c6.8,0,13.2,0,20,0c0-3.4,0-6.6,0-10c12.8,0,25.2,0,38,0c0,3.2,0,6.5,0,9.9
	c6.5,0,12.6,0,18.9,0c0,2.9,0,5.7,0,8.9c3.4,0,6.6,0,10,0c0,6.5,0,12.6,0,19c-3.1,0-6.4,0-9.8,0c0,3.5,0,6.6,0,9.9
	c-6.4,0-12.6,0-19,0c0-3.2,0-6.3,0-9.6c-12.6,0-25.1,0-37.9,0c0,3.1,0,6.3,0,9.7c-3.5,0-6.6,0-9.9,0c0,9.4,0,18.6,0,28
	c3.1,0,6.3,0,9.7,0c0,3.4,0,6.6,0,10.1c3.1,0,5.9,0,8.9,0c0,3.3,0,6.4,0,10c6.4,0.1,12.6,0,19,0c0-3.3,0-6.4,0-9.9
	c3.4,0,6.6,0,10.1,0c0-3.5,0-6.6,0-9.9c6.4,0,12.6,0,19,0c0,3.2,0,6.3,0,9.6C579.3,353.8,582.4,353.8,585.9,353.8z"/>
<path class="st2" d="M883.2,402c-3.3,0-6.1,0-9,0c0,3,0,5.7,0,8.8c-6.4,0-12.6,0-19,0c0-2.8,0-5.6,0-8.7c-3.4,0-6.6,0-10,0
	c0-6.5,0-12.6,0-18.9c3.1,0,6.2,0,9.2,0c0.3-0.3,0.5-0.4,0.6-0.5c0.1-0.1,0.2-0.3,0.2-0.4c0-25.3,0-50.6,0-76.1c2.9,0,5.7,0,8.9,0
	c0-3.1,0-6,0-9c6.5,0,12.6,0,19,0c0,2.8,0,5.7,0,8.8c19.5,0,38.6,0,58,0c0,3.4,0,6.6,0,10c3.5,0,6.6,0,9.9,0c0,2.9,0,5.7,0,8.9
	c3.1,0,6,0,9,0c0,22.5,0,44.6,0,67c-2.8,0-5.7,0-8.7,0c0,6.5,0,12.6,0,19c-3.4,0-6.6,0-10.1,0c0,3.5,0,6.6,0,9.9
	c-6.3,0-12.4,0-18.5,0c-0.7-3.8-0.9-24-0.3-37.7c2.8,0,5.6,0,8.6,0c0-16.1,0-32,0-48c-6.1,0-12.2,0-18.7,0c0-3.4,0-6.6,0-10
	c-6.5,0-12.6,0-19,0c0,3.2,0,6.4,0,9.9c-3.5,0-6.6,0-9.9,0C883.2,357.3,883.2,379.4,883.2,402z"/>
<path class="st2" d="M317.2,354c3.3,0,6.4,0,9.7,0c0,9.6,0,19.1,0,28.9c-3.1,0-6.4,0-9.8,0c0,3.1,0,5.9,0,8.9c-6.3,0-12.4,0-18.9,0
	c-0.6-2.6,0.1-5.6-0.4-8.7c-3.1,0-6.2,0-9.7,0c0-25.7,0-51.3,0-77.1c-3.1,0-5.9,0-8.9,0c0-6.4,0-12.6,0-19.1c2.9,0,5.7,0,8.6,0
	c0-16,0-31.7,0-47.9c3.4,0,6.6,0,10.1,0c0-3.1,0-5.9,0-9.1c3.1,0,6,0,9.1,0c0-3.5,0-6.6,0-9.9c9.6,0,19.1,0,28.8,0
	c0.5,1.3,0.1,3,0.2,4.6c0.1,1.6,0,3.3,0,5.1c6.3,0,12.4,0,18.9,0c0,3.1,0,6,0,9.1c3.5,0,6.6,0,9.9,0c0,6.4,0,12.6,0,19.1
	c-3.2,0-6.3,0-9.6,0c0,3.3,0,6.4,0,10c-6.4,0.1-12.6,0-19.1,0c0-3.3,0-6.4,0-9.8c-6.4,0-12.6,0-19,0c0,6.5,0,12.9,0,19.6
	c6.1,0,12.2,0,18.6,0c0.7,3-0.1,6,0.5,9c3.1,0,6.2,0,9.6,0c0,3.4,0,6.6,0,10.1c-3.1,0-6.2,0-9.7,0c0,3.1,0,6,0,9.1
	c-6.5,0-12.6,0-18.9,0C317.2,321.9,317.2,337.7,317.2,354z"/>
<path class="st2" d="M259,230.2c0,3,0,5.8,0,8.7c3.3,0,6.4,0,9.7,0c0,9.7,0,19.3,0,29c-6.1,0-12.3,0-18.7,0c0-3.2,0-6.4,0-9.8
	c-6.5,0-12.6,0-18.9,0c0,9.5,0,18.9,0,28.6c-0.1-0.1,0,0.1,0.2,0.1c0.1,0.1,0.3,0.2,0.4,0.2c6,0,11.9,0,18.1,0c0,6.3,0,12.4,0,18.9
	c-6.1,0-12.4,0-18.7,0c0,19.5,0,38.6,0,58c2.8,0,5.7,0,8.8,0c0,9.5,0,18.6,0,27.9c-2.8,0-5.6,0-8.5,0c-0.7,1.7-0.3,3.3-0.4,4.9
	c-0.1,1.6,0,3.3,0,5.1c-6.6,0-13.1,0-19.9,0c0-3.1,0-6.3,0-9.7c-3.1,0-5.9,0-9,0c0-25.4,0-50.6,0-76c-3.5,0-6.6,0-10,0
	c0-3.4,0-6.6,0-10.1c-3.1,0-5.9,0-8.9,0c0-2.9,0-5.7,0-8.9c2.7,0,5.6,0,8.7,0c0-16.1,0-31.9,0-48c3.4,0,6.6,0,10,0
	c0-3.5,0-6.6,0-10.1c3.1,0,6,0,9.1,0c0-3.1,0-5.9,0-8.9C226.9,230.2,242.7,230.2,259,230.2z"/>
<path class="st2" d="M834.8,335c-3,0-5.7,0-8.7,0c0,3,0,5.7,0,8.9c-3.4,0-6.6,0-10.1,0c0,3.5,0,6.6,0,9.9c-2.9,0-5.7,0-8.7,0
	c-0.7,1.7-0.3,3.4-0.4,4.9c-0.1,1.6,0,3.3,0,5.1c-3.3,0-6.4,0-9.9,0c0,3.1,0,6,0,9.1c-3.5,0-6.6,0-10.1,0c0,6.4,0,12.6,0,19
	c-3.1,0-5.9,0-8.9,0c0-2.8,0-5.6,0-8.8c-3.4,0-6.6,0-10.1,0c0-3.5,0-6.6,0-10.1c-3.1,0-6,0-9.1,0c0-6.5,0-12.6,0-18.9
	c-3.3,0-6.4,0-9.9,0c-0.4-3.4,0-6.6-0.2-10c-3.2,0-6.4,0-9.8,0c0-6.4,0-12.6,0-19.1c-3.1,0-5.9,0-8.9,0c0-9.4,0-18.6,0-28.1
	c2.9,0,5.7,0,8.6,0c0-3.3,0-6.4,0-9.8c9.7,0,19.3,0,29.1,0c0,3.1,0,6.2,0,9.7c3.4,0,6.6,0,10.1,0c0,3.1,0,5.9,0,8.9
	c2.9,0,5.7,0,8.9,0c0.6-2.6-0.1-5.6,0.4-8.7c3.1,0,6.2,0,9.7,0c0-3.4,0-6.6,0-10c9.8,0,19.3,0,29.1,0c0,3.2,0,6.4,0,9.8
	c3.1,0,5.9,0,8.9,0C834.8,309.6,834.8,322,834.8,335z"/>
<path class="st2" d="M615.2,297c-6.9,0-13.4,0-20,0c0-6.3,0-12.4,0-18.9c6.4,0,13,0,19.7,0c0-9.8,0-19.2,0-28.9c6.4,0,12.6,0,19,0
	c0,2.8,0,5.6,0,8.7c3.1,0,6,0,9.1,0c0,6.8,0,13.2,0,19.9c6.6,0,13.1,0,20,0c0.1,6.4,0,12.6,0,19c-3.3,0-6.4,0-9.9,0c0,3.1,0,6,0,9.1
	c-3.5,0-6.6,0-10,0c0,25.7,0,51.3,0,77c-3.1,0-5.9,0-8.9,0c0,2.9,0,5.7,0,8.8c-6.4,0.4-12.6,0.1-19,0.2
	C615.2,360.4,615.2,329,615.2,297z"/>
<path class="st2" d="M690.8,278.1c3.6,0,6.8,0,10.1,0c0,2.9,0,5.7,0,8.8c3.4,0,6.6,0,10,0c0,32.1,0,63.9,0,96c-3.2,0-6.4,0-9.9,0
	c0,3.1,0,5.9,0,8.9c-6.3,0-12.4,0-18.7,0c-0.7-1.2-0.2-2.7-0.3-4.1c-0.1-1.5,0-2.9,0-4.6c-3.3,0-6.4,0-9.8,0c0-9.7,0-19.3,0-29.1
	c3.1,0,6.3,0,9.7,0c0-22.4,0-44.6,0-67c3.1,0,5.9,0,8.9,0C690.8,284.1,690.8,281.3,690.8,278.1z"/>
<path class="st2" d="M682.1,267.8c0-9.6,0-19,0-28.6c9.6,0,19.1,0,28.8,0c0,3.2,0,6.3,0,9.8c3.1,0,6,0,9,0c0,3.1,0,5.9,0,8.9
	c-2.8,0-5.6,0-8.6,0c-0.6,3.4,0,6.6-0.4,10C701.4,267.8,692,267.8,682.1,267.8z"/>
<path class="st0" d="M335.9,316.2c0,9.3,0,18.4,0,27.6c-2.8,0-5.6,0-8.6,0c0.1,0.1-0.1,0-0.2-0.2c-0.1-0.1-0.2-0.3-0.2-0.4
	c0-9,0-17.9,0-27.1C329.9,316.2,332.7,316.2,335.9,316.2z"/>
<path class="st2" d="M173,58.2c0-6.6,0-12.8,0-19.1c3.3,0,6.4,0,9.9,0c0-3.4,0-6.6,0-10c6.5,0,12.6,0,18.9,0c0,3.1,0,6.2,0,9.6
	c3,0.7,6-0.1,9,0.5c0,18.8,0,37.6,0,56.7c3.4,0,6.6,0,10,0c0,32.1,0,63.9,0,96.1c-3.2,0-6.4,0-9.9,0c0,3.1,0,5.9,0,8.9
	c-3,0-5.7,0-8.9,0c0-2.7,0-5.6,0-8.7c-3.5,0-6.6,0-10.1,0c0-9.7,0-19.3,0-29.1c-3.1,0-5.9,0-8.9,0c0-12.6,0-25.1,0-37.7
	c-1.7-0.7-3.4-0.3-5-0.3c-1.6-0.1-3.3,0-5.1,0c0,9.3,0,18.4,0,27.9c-3.4,0-6.6,0-10.1,0c0,9.8,0,19.3,0,29.1c-3.1,0-6,0-9.1,0
	c0,3.5,0,6.6,0,9.9c-3.3,0-6.4,0-9.9,0c0,3.1,0,6,0,9c-6.5,0-12.6,0-19.1,0c0-2.8,0-5.8,0-8.8c-3.5,0-6.6,0-9.9,0c0-3.3,0-6.4,0-9.5
	c-1.5-0.9-3-0.4-4.5-0.5c-1.5-0.1-2.9,0-4.6,0c0-3.3,0-6.4,0-9.9c-3.4,0-6.7,0-10.1,0c0-6.5,0-12.6,0-18.9c-2.9,0-5.7,0-8.3,0
	c-0.3-0.3-0.5-0.4-0.6-0.5c-0.1-0.1-0.2-0.3-0.2-0.4c0-6,0-12,0-18.1c-3.3,0-6.4,0-9.8,0c0,15.8,0,31.7,0,47.8c3.1,0,6.2,0,9.6,0
	c0,9.7,0,19.3,0,29c-12.9,0-25.7,0-38.6,0c0-19.2,0-38.3,0-57.8c-3.1,0-6,0-9.1,0c0-22.5,0-44.6,0-67.1c-3.4,0-6.7,0-10,0
	c0-9.5,0-18.6,0-27.9c3.1,0,6.2,0,9.5,0c0.7-1.7,0.3-3.4,0.3-5c0.1-1.6,0-3.3,0-5.1c9.3,0,18.4,0,27.9,0c0,3.1,0,6.4,0,9.8
	c3.5,0,6.6,0,10.1,0c0,6.4,0,12.7,0,19.1c3.5,0,6.6,0,9.9,0c0,3,0,5.7,0,8.9c3.1,0,6,0,9.1,0c0,6.8,0,13.3,0,20.1
	c3.4,0,6.7,0,10.1,0c0,3.1,0,5.9,0,8.9c2.9,0,5.7,0,8.4,0c0.2,0.3,0.4,0.4,0.5,0.5c0.1,0.1,0.2,0.3,0.2,0.4c0,6,0,11.9,0,18.1
	c3.3,0,6.4,0,9.9,0c0,3.4,0,6.6,0,10c3.5,0,6.6,0,9.9,0c0-3.1,0-6.2,0-9.6c3-0.7,6,0.1,9-0.5c0-9.1,0-18.2,0-27.7
	c3.4,0,6.6,0,10.1,0c0-9.8,0-19.3,0-29.1c3.1,0,6,0,9.1,0c0-6.5,0-12.6,0-18.9C166.3,58.2,169.4,58.2,173,58.2z"/>
<path class="st2" d="M240.2,106c3.3,0,6.4,0,9.7,0c0-3.3,0-6.4,0-9.9c3.1,0,6,0,9.1,0c0-3.5,0-6.6,0-9.9c3.3,0,6.4,0,9.8,0
	c0.7-3-0.1-6,0.5-9c28.4,0,56.9,0,85.7,0c0,2.8,0,5.7,0,8.8c3.5,0,6.6,0,9.9,0c0,32.1,0,64,0,96.1c-3.2,0-6.3,0-9.6,0
	c0,3.3,0,6.4,0,10c-6.4,0.1-12.6,0-19.1,0c0-3.3,0-6.4,0-9.8c-6.4,0-12.6,0-19.1,0c0,3.2,0,6.3,0,9.6c-16,0-31.7,0-47.9,0
	c-0.5-3,0.1-6.3-0.3-9.7c-3.2,0-6.3,0-9.8,0c0-3.4,0-6.6,0-10.1c-3.1,0-5.9,0-9.1,0c0-3.1,0-6,0-9.1c-3.5,0-6.6,0-9.9,0
	C240.2,144.1,240.2,125.3,240.2,106z"/>
<path class="st2" d="M883.2,201c-3.3,0-6.1,0-9.1,0c0,3.3,0,6.4,0,9.8c-6.4,0-12.6,0-19.1,0c0-6.2,0-12.3,0-18.6c-3.3,0-6.4,0-9.9,0
	c-0.6,2.6,0.1,5.6-0.4,8.6c-15.8,0-31.5,0-47.7,0c0-2.7,0-5.7,0-8.7c-6.5,0-12.6,0-19.1,0c0-3.4,0-6.6,0-10.1c-3.5,0-6.6,0-9.9,0
	c0-9.6,0-19.1,0-28.8c-3-0.7-6,0-9-0.5c0-6.1,0-12.2,0-18.7c2.8,0,5.7,0,8.8,0c0-9.5,0-18.6,0-28.1c3.4,0,6.6,0,10.1,0
	c0-3.5,0-6.6,0-9.9c2.9,0,5.7,0,8.9,0c0-3.4,0-6.6,0-10c19.5,0,38.6,0,58.1,0c0,3.1,0,6.4,0,9.8c16.1,0,31.9,0,47.9,0
	c0,16.1,0,32,0,48c-3.2,0-6.3,0-9.6,0C883.2,162.9,883.2,181.7,883.2,201z"/>
<path class="st2" d="M547,67.2c0,3.3,0,6.4,0,9.7c6.6,0,13.1,0,19.9,0c0,3.1,0,6,0,9.1c3.1,0,5.9,0,9.1,0c0,6.7,0,13.3,0,20
	c3.5,0,6.6,0,9.9,0c0,2.9,0,5.7,0,8.8c-1.4,0.5-3,0.1-4.6,0.2c-1.6,0.1-3.3,0-5.1,0c0,6.3,0,12.4,0,18.9c-28.7,0-57.3,0-86,0
	c0,3.4,0,6.6,0,10c2.8,0,5.7,0,8.8,0c0,3.1,0,5.9,0,8.9c16.1,0,32,0,48,0c0-2.9,0-5.7,0-8.6c6.6,0,13.1,0,19.8,0
	c0,9.1,0,18.3,0,27.7c-3.1,0-6.2,0-9.7,0c0,3.4,0,6.6,0,10c-22.5,0-44.6,0-67,0c0-3.2,0-6.4,0-9.8c-6.5,0-12.6,0-18.9,0
	c0-6.3,0-12.4,0-18.8c-3.4-0.5-6.6,0-10-0.4c0-18.8,0-37.6,0-56.7c3.1,0,6.3,0,9.7,0c0-3.5,0-6.6,0-10.1c3.1,0,6,0,9.1,0
	c0-3.1,0-5.9,0-9.1c6.4,0,12.6,0,19,0c0-3.5,0-6.6,0-9.9C514.9,67.2,530.7,67.2,547,67.2z"/>
<path class="st2" d="M442,76.8c0,3.3,0,6.1,0,9.1c3,0,5.7,0,8.7,0c0,3.4,0,6.6,0,10.1c-2.8,0-5.6,0-8.7,0c0,3.4,0,6.7,0,10.1
	c-3.5,0-6.6,0-9.9,0c0,22,0,43.7,0,65.9c-3.1,0-6,0-9,0c0,3.5,0,6.6,0,9.9c-6.7,0-13.3,0-20.1,0c0-3.1,0-6.3,0-9.7c-3.1,0-6,0-9,0
	c0-22.1,0-43.9,0-65.9c-3.3,0-6.4,0-9.8,0c-0.5-3.4,0-6.7-0.3-10c-2.9,0-5.6,0-8.7,0c0-3.4,0-6.6,0-10.1c2.8,0,5.6,0,8.7,0
	c0-3.1,0-6,0-9.1c3.5,0,6.6,0,9.9,0c0-9.6,0-19.1,0-28.9c3.1,0,6,0,9,0c0-3.1,0-5.9,0-8.9c6.7,0,13.3,0,20.1,0c0,2.8,0,5.6,0,8.7
	c3.1,0,6,0,9.1,0c0,9.8,0,19.2,0,28.9C435.3,76.8,438.4,76.8,442,76.8z"/>
<path class="st2" d="M950.8,125c-3.3,0-6.4,0-9.7,0c0,22.3,0,44.4,0,66.9c-3.4,0-6.6,0-10.1,0c0,6.5,0,12.6,0,18.9
	c-9.3,0-18.4,0-27.6,0c-0.7-3.9-1-43.3-0.3-57.7c2.8,0,5.6,0,8.7,0c0-25.4,0-50.6,0-76.1c3.5,0,6.6,0,10.1,0c0-9.7,0-19.3,0-29
	c9.8,0,19.3,0,28.9,0C950.8,73.6,950.8,99,950.8,125z"/>
<path class="st2" d="M605.1,181.8c0-31.9,0-63.7,0-95.7c3.2,0,6.3,0,9.8,0c0-3.1,0-6,0-9c6.5,0,12.6,0,19,0c0,2.8,0,5.7,0,8.7
	c3.1,0,5.9,0,9.1,0c0-2.9,0-5.8,0-8.8c13.1,0,25.9,0,38.9,0c0,2.8,0,5.6,0,8.8c3.1,0,6,0,9,0c0,9.8,0,19.2,0,28.9
	c-6.1,0-12.4,0-18.8,0c0-2.8,0-5.6,0-8.6c-12.7,0-25.3,0-38,0c0,21.8,0,43.6,0,65.7c-3.4,0-6.6,0-10,0c0,3.5,0,6.6,0,9.9
	C617.7,181.8,611.6,181.8,605.1,181.8z"/>
<path class="st2" d="M738.8,86c3.6,0,6.8,0,10,0c0,15.9,0,31.7,0,47.8c-3.1,0-6.3,0-9.7,0c0,19.4,0,38.5,0,57.6
	c-0.2,0.2-0.4,0.3-0.5,0.4c-0.1,0.1-0.3,0.2-0.4,0.2c-9,0-17.9,0-27.1,0c0-35.4,0-70.6,0-105.9c2.9,0,5.7,0,8.8,0c0-3.1,0-6,0-9
	c6.5,0,12.6,0,18.9,0C738.8,79.9,738.8,82.7,738.8,86z"/>
<path class="st2" d="M720,66.8c0-2.9,0-5.7,0-8.7c-2.9,0-5.7,0-8.8,0c0-6.4,0-12.6,0-19c12.4,0,24.8,0,37.4,0c0-0.1,0.1,0.1,0.2,0.2
	c0.1,0.1,0.2,0.3,0.2,0.4c0,9,0,17.9,0,27C739.4,66.8,730,66.8,720,66.8z"/>
<path d="M162.9,211.2c0,3,0,5.8,0,8.9c-19.1,0-38,0-56.7,0c0,3.5,0,6.6,0,9.9c6.3,0,12.4,0,19,0c0,6.6,0,12.8,0,19
	c3.3,0,6.4,0,9.9,0c0,3.1,0,6,0,9c3.1,0,5.9,0,9,0c0,6.7,0,13.3,0,20c3.5,0,6.6,0,10,0c0,6.4,0,12.6,0,18.7c3.1,0,5.9,0,8.9,0
	c0-6.1,0-12.1,0-18.1c0-0.1,0.1-0.3,0.2-0.4c0.1-0.1,0.2-0.2,0.6-0.5c2.9,0,6,0,9.3,0c0-16,0-31.7,0-47.9c3.4,0,6.6,0,9.8,0
	c0-6.5,0-12.6,0-18.7C176.2,211.2,169.6,211.2,162.9,211.2z M162.8,267.9c-2.7,0.2-5.6,0-8.7,0.1c0-6.3,0-12.4,0-19
	c-3.6,0-6.7,0-10,0c0-3.3,0-6.4,0-9.8c-3.1,0-6,0-9,0c0-3.1,0-5.9,0-8.9c9.1,0,18.3,0,27.7,0C162.8,242.6,162.8,255,162.8,267.9z"/>
<path class="st1" d="M77.1,343.8c0-2.9,0-5.7,0-8.7c3.2,0,6.3,0,9.2,0c0.3-0.3,0.5-0.4,0.5-0.5c0.1-0.1,0.2-0.3,0.2-0.4
	c0-9.3,0-18.6,0-28.1c2.9,0,5.7,0,8.8,0c0.5,3-0.1,6.3,0.3,9.6c3.1,0,6.2,0,9.3,0c1,1.5,0.4,3,0.5,4.4c0.1,1.5,0,2.9,0,4.6
	c2.9,0,5.7,0,8.8,0c0,6.4,0,12.6,0,19C102.3,343.8,89.7,343.8,77.1,343.8z"/>
<path class="st1" d="M375.1,315.8c0-3.2,0-6.3,0-9.8c6.2,0,12.5,0,18.9,0c0-3.1,0-5.9,0-8.9c6.4,0,12.6,0,19,0c0,2.9,0,5.7,0,8.6
	c3.3,0,6.4,0,9.7,0c0.7,1.7,0.3,3.3,0.3,4.9c0.1,1.6,0,3.3,0,5.1C407,315.8,391.1,315.8,375.1,315.8z"/>
<path class="st1" d="M317,152.8c0,3.6,0,6.8,0,10c-9.6,0-19.1,0-28.9,0c0-3.1,0-6.4,0-9.8c-3.1,0-5.9,0-9.1,0c0-3.1,0-6,0-9.1
	c-3.5,0-6.6,0-9.9,0c0-6.3,0-12.4,0-18.9c3.1,0,6.3,0,9.7,0c0-6.5,0-12.6,0-18.9c12.7,0,25.3,0,38,0c0,2.8,0,5.6,0,8.7
	c3.4,0,6.6,0,10,0c0,12.8,0,25.2,0,37.9C323.7,152.8,320.6,152.8,317,152.8z"/>
<path class="st1" d="M807,171.8c0-3,0-5.7,0-8.7c-3.3,0-6.4,0-9.8,0c0-12.7,0-25.3,0-38.1c3.2,0,6.3,0,9.6,0c0-3.3,0-6.4,0-9.3
	c0.3-0.3,0.4-0.5,0.5-0.6c0.1-0.1,0.3-0.2,0.4-0.2c9,0,18,0,27.1,0c0,3.3,0,6.4,0,9.9c6.7,0,13.3,0,20,0c0,12.8,0,25.3,0,38.1
	c-3.2,0-6.4,0-9.8,0c0,3.1,0,5.9,0,8.9C832.4,171.8,820,171.8,807,171.8z"/>
<path class="st1" d="M538,96.2c0,3.3,0,6.4,0,9.7c2.9,0,5.7,0,8.9,0c0.2,3,0.1,6,0.1,9c-19.1,0-37.9,0-56.9,0c0-2.9,0-5.7,0-8.7
	c2.8,0,5.6,0,8.7,0c0.5-3.4,0-6.6,0.3-10C511.9,96.2,524.7,96.2,538,96.2z"/>
<path class="st0" d="M288.2,115.1c6.3,0,12.4,0,18.7,0c0,3.2,0,6.3,0,9.7c3.4,0.6,6.6,0,10,0.4c0,6.1,0,12.2,0,18.6
	c-3,0.8-6.3,0-9.7,0.4c0,2.8,0,5.6,0,8.8c-3,0.2-5.9,0.1-9,0.1c0-3,0-5.7,0-8.9c-3.4,0-6.6,0-10,0
	C288.2,134.4,288.2,125,288.2,115.1z"/>
<path class="st0" d="M844.9,133.8c0,6.6,0,12.8,0,19.1c-3.2,0-6.3,0-9.8,0c0,3.4,0,6.6,0,10c-6.5,0-12.6,0-18.9,0c0-3.1,0-6.2,0-9.6
	c-3-0.7-6,0.1-9-0.5c0-6.1,0-12.2,0-18.7c2.8,0,5.7,0,8.7,0c0-3.1,0-5.9,0-8.9c3.4,0,6.6,0,10.1,0c0,2.9,0,5.7,0,8.6
	C832.3,133.8,838.4,133.8,844.9,133.8z"/>
</svg>
