<?xml version="1.0" encoding="utf-8"?>
<!-- Generator: Adobe Illustrator 25.0.0, SVG Export Plug-In . SVG Version: 6.00 Build 0)  -->
<svg version="1.1" id="Layer_1" xmlns="http://www.w3.org/2000/svg" xmlns:xlink="http://www.w3.org/1999/xlink" x="0px" y="0px"
	 viewBox="0 0 1234.3 213" style="enable-background:new 0 0 1234.3 213;" xml:space="preserve">
<style type="text/css">
	.st0{fill:#ECEBEC;}
	.st1{fill:#B1AEB0;}
</style>
<path class="st0" d="M638.2,175.8c-2-6.5,3.2-4.8,6.2-5.1c6.8-0.5,12.4-2.5,14.2-10.1c2.3-4,1.9-8.5,1.9-12.9c0-35.5,0-71-0.2-106.6
	c-0.1-18.3-4-21.8-23-22.1c-0.8-2.9,0.1-4.7,3.2-4.7c28.3,0.5,56.8-2.8,84.9,1.6c26.7,4.2,38.2,19.4,38.3,46.4
	c-3.7,12.7-10.5,23-22.6,29.4c-15.9,8.4-15.9,8.5-4.5,22.8c1,1.2,2.2,2.3,3.3,3.4c8,13.8,17.5,26.5,27.8,38.6
	c5.3,6.2,11.9,10.1,19.9,12.4c3.4,1,9.7-0.7,9.5,6.4c-8.4,0.1-16.9-0.6-25.2,0.4c-13.5,1.6-22.1-3.4-29.5-14.9
	c-11.9-18.5-25.6-35.8-38.4-53.7c-3.8-5.3-8.6-7-14.6-5.7c-6.9,1.5-4.6,7.5-4.9,11.8c-0.3,4.8,0.2,9.6,0.3,14.4
	c-0.1,8.4-0.3,16.7-0.2,25.1c0.2,10.3,3.6,18,15.8,18c3.2,0,6.8-0.1,5.9,5C683.6,175.7,660.9,175.8,638.2,175.8z M733,67.6
	c4.5-14.9,0.5-29.9-10.7-37.5c-10.2-6.9-22.2-9.3-33.1-4c-9.3,4.5-3.3,15.1-4.4,23c-0.1,0.8,0.2,1.6,0.3,2.4
	c-0.1,11.6-0.4,23.1-0.4,34.7c0,3-0.6,6.2,3.9,7.5C704.1,98.2,728.4,84.2,733,67.6z"/>
<path class="st0" d="M28.4,175.7c-1.7-6.6,3.5-4.7,6.5-5c7.4-0.9,13.3-3.2,13.8-11.9c2.2-4.5,1.6-9.4,1.6-14.2c0-31.2,0-62.3,0-93.5
	c0-21.6-8.5-30.4-30.9-32.1c0-0.4-0.2-1,0-1.2c8.1-7.2,43.5-4.6,50.3,3.9c27.2,33.6,54.4,67.3,81.6,101c1.9,2.4,4,4.5,7.8,8.7
	c0-27.8,0-53.1,0-78.4c0.1-4,0.3-8,0.3-12c-0.3-17.9-3.7-21.3-21.9-22.1c-0.5-3.9,2-4.7,5.1-4.7c15.5,0,31,0,46.4,0
	c3,0,5.8,0.6,4.3,4.8c-18.1,0.5-21.7,3.9-21.7,22.2c-0.2,41.7-0.1,83.4-0.3,125c0,3.7,1.8,8.9-3.3,10.4c-4,1.1-6.1-3.1-8.3-5.9
	c-17.2-21.2-34.3-42.4-51.5-63.5C94,89.7,79.6,72.2,63.9,53c-2.2,10.7-1.5,18.6-1.1,26.5c0,23.5-0.1,46.9-0.1,70.4
	c0.1,16.8,0.6,17.3,17.4,20.7c2.8,0.6,4.4,1.6,4,4.6C65.6,175.5,47,175.6,28.4,175.7z"/>
<path class="st0" d="M248.4,50.7c0,9.2,0.2,18.5-0.2,27.7c-0.3,6.4,2.4,8.5,8.5,8.2c7.6-0.4,15.3,0,22.9-0.1
	c17.8-0.2,20-1.8,26.1-18.4c0.8-2.2,0.8-5.3,4.1-4.8c3.1,0.4,3,3.4,3,5.7c0.2,16.8,0.2,33.7,0.3,50.5c-7.3,1.5-7.7-4-8.6-8.6
	c-2.1-10.5-8.9-14.6-18.9-14.7c-4,0-8-0.2-12-0.1c-26.1,0.8-26.5-6.6-25.1,26.9c0,10.8,0.1,21.6-0.1,32.4c-0.1,7.7,3.5,10.9,11,10.8
	c8-0.2,16.1-0.8,24,0.2c21.5,2.6,36.5-5.7,45.8-25c1.3-2.7,2.4-7,6.5-5.9c4.6,1.3,1,5.5,1.8,8.2c-4.5,6.8-6.2,14.8-8.5,22.3
	c-2.2,7.4-6.4,9.9-14,9.8c-38.1-0.4-76.1-0.3-114.2-0.4c-0.3-5.8,4.2-4.2,7.3-4.7c6.3-0.9,12.3-2.3,14-9.8c2.1-4.5,1.7-9.4,1.7-14.2
	c0-34.4,0-68.8-0.1-103.2c-0.1-20.9-2.4-23.4-22.9-24.8c0.6-6.6,5.8-4.3,9.2-4.3c35.2-0.2,70.4,0.1,105.6-0.2
	c7.1-0.1,10.1,2,10.1,9.3c0,8.8,1,17.5,1.6,26.3c-4.4,0.9-7.2-1.1-7.9-5.2c-3.2-18.4-15.7-22.2-31.9-20.8c-4.8,0.4-9.6-0.1-14.4,0.1
	C247.2,24.6,247.2,17.6,248.4,50.7z"/>
<path class="st0" d="M1108,135c0.1-1.6,0-3.2,0.3-4.8c0.5-2.5-1-6.4,2.9-6.9c4.7-0.5,4.3,3.9,4.8,6.8c3.9,20.1,15.4,32.9,35.6,37.4
	c15.8,3.5,28.2-1.1,36.5-13.4c6.2-14.7,3.3-25.6-10.9-34.9c-12.7-8.3-26.2-15.5-39.3-23.2c-13.8-8.1-25.3-18.3-30.9-33.8
	c-4.5-33.4,26.2-58.8,64-48c5,1.4,9.8,3.5,14.6,5.4c3.5,1.4,6.7,2.4,9.9-0.9c2-2.1,2.1-7.5,6.2-5.9c4.6,1.8,2.9,7,3,10.7
	c0.3,14.4,0.1,28.8,0.1,43.1c-8.9,0.9-7.5-6.7-8.9-11.4c-6.3-21.6-24-35.3-43.6-33.5c-19.4,1.8-29.4,19-19.8,34.3
	c2,7.9,9.2,10.8,15.1,14.4c12.9,8,26.2,15.3,39.4,22.7c20,11.2,30.7,27.4,27.6,51c-10.5,25-29.5,35.6-56.3,34
	c-9.4-0.6-17.9-4.2-26.8-6.6c-5.9-1.6-11.4-4.8-16.8,3.1c-4.1,6.1-5.5-0.3-5.6-3.6C1108.4,159.1,1108.2,147,1108,135z"/>
<path class="st0" d="M1067.9,57.2c-0.2,24.9-0.4,49.8-0.6,74.7c-11,32-26,45.1-53.2,46.1c-42.4,1.5-57.2-7-71.5-41.3
	c-0.1-0.6-0.1-1.3-0.1-1.9c-0.1-31.5,0.1-62.9-0.5-94.4c-0.3-17.4-4.3-20.6-22.8-21.5c-0.3-5.1,3.4-4.5,6.5-4.5
	c19.1-0.1,38.2-0.1,57.4,0c2.9,0,7.2-0.8,5.3,4.8c-17.5,0.3-21.6,4.3-22,21.5c-0.1,4.7,0.2,9.4,0.2,14.2c0.2,25.5-2.1,51.1,1.5,76.5
	c3.5,25.3,17,37,40.4,36.2c26.3-0.9,42.6-14.6,45.4-38.2c4-29.3,1.2-58.7,1.5-88.1c0.2-18.3-4.2-22.1-22.7-22
	c-0.9-2.8-0.3-4.7,3-4.7c17.1-0.1,34.1-0.1,51.2,0c3,0,4.2,1.8,2.6,4.7c-15.9,0.4-20.7,4.8-21.5,20.2
	C1067.5,45.3,1067.9,51.3,1067.9,57.2z"/>
<path class="st0" d="M462.1,176.1c-1.7-2.3-2.2-4.7,1.3-5.3c12.1-2,16.9-11.3,21.1-20.9c10.7-24.9,21-50,31.6-74.9
	c8.1-19.1,16.5-38,24.8-57c1.1-2.5,2-5.8,5.5-5.6c4.7,0.2,5,4.7,6.3,7.8c16.1,38.4,32,76.8,48.2,115.1c6.4,15.2,10.5,32.6,30.5,37
	c0.3,0.1,0.2,2.2,0.3,3.4c-21,0-42,0.1-63,0.1c-1.8-8.5,7.3-3.3,9.1-7.2c7.1-2.8,6.4-8.5,4.6-14c-2.5-7.6-6-14.8-8.5-22.4
	c-2.3-7.1-6.5-10.1-14.2-9.8c-13.6,0.5-27.2,0.4-40.7,0c-6.9-0.2-11.8,2-13.5,8.9c-2.9,11.7-15.3,21.4-7.3,35.3
	c0.5,0.9,2,1.2,3.1,1.7c2.8,4,11.2-0.8,11.5,7.1C495.9,175.6,479,175.8,462.1,176.1z M525.4,112.7c9.7,0,19.4,0,29.1,0
	c4.7,0,11.5,1.2,8.4-6.8c-6.6-17.3-14.2-34.3-21.3-51.4c-10.1,16.2-16.7,32.4-24.1,48.2C512.9,112.3,517,113.8,525.4,112.7z"/>
<path class="st0" d="M347.5,175.5c-0.7-4,1.8-4.8,4.9-4.8c13.3,0,16.8-7.8,16.7-19.6c-0.3-32.7-0.2-65.5-0.3-98.2
	c0.1-4,0.4-8,0.3-11.9c-0.1-18-3.1-21-21.6-22.1c-0.5-5.1,3.2-4.6,6.3-4.6c35.1,0,70.3,0.1,105.4-0.1c6.4,0,8.3,2.7,8.3,8.6
	c-0.1,9.1,0.4,18.3,0.6,27.5c-3.8,0-5.9-2.3-6.9-5.5c-5.4-17.1-18-22.1-34.6-21c-8,0.5-16,0.1-24,0.1c-4.3,0-8.7,0.6-8.6,6
	c0.2,18.7-2.8,37.4,1.5,56c8.8,0.2,17.5,0.6,26.3,0.5c9.8-0.1,16.8-4.2,19.1-14.5c0.6-2.5,0.2-6.5,4.1-6.2c4.9,0.3,3.2,4.8,3.2,7.6
	c0.2,14.7,0,29.5-0.1,44.2c-5.8,0.6-6.2-3.6-7-7.6c-1.4-7-5.9-11.2-12.8-12.6c-9.5-1.9-19.1-0.9-28.7-0.8c-3.9,0.1-5.9,2.5-5.8,6.2
	c0.3,18.7-2.2,37.4,1.3,56c0.4,8.8,6.7,10.8,13.7,12c3.1,0.5,7.9-1.4,7.6,4.7C393.5,175.4,370.5,175.5,347.5,175.5z"/>
<path class="st0" d="M800.9,18.9c-0.4-4,2.1-4.5,5.2-4.5c19.4,0,38.9,0,58.3,0c3.1,0,5.6,0.6,5.1,4.6c-18.6,1-21.7,4.2-21.6,22.9
	c0,3.1,0.4,6.3,0.6,9.4c-0.1,34.6,0,69.2-0.4,103.8c-0.1,10.1,5,14.3,14.1,15.6c3.1,0.4,7.9-1.4,7.3,4.8c-22.9,0-45.8,0-68.7,0
	c-0.7-5.2,3.1-4.7,6.2-4.7c11.2-0.3,15.3-6.4,15.2-17c-0.2-33.5-0.2-67-0.2-100.6c0.2-4,0.5-8,0.4-11.9
	C822.4,23.1,819.5,20.1,800.9,18.9z"/>
<path class="st1" d="M62.8,79.6c-0.4-7.9-1.1-15.8,1.1-26.5c15.7,19.3,30.1,36.7,44.3,54.2c17.2,21.2,34.3,42.4,51.5,63.5
	c2.2,2.7,4.3,7,8.3,5.9c5.1-1.5,3.3-6.7,3.3-10.4c0.2-41.7,0.1-83.4,0.3-125c0.1-18.2,3.7-21.7,21.7-22.2c0.2,5.2,0.2,10.4,0.8,15.5
	c0.8,6.6-0.4,11.1-8.4,11c-10.5-0.1-12.2,6.7-12.2,15.3c0.1,35.6,0.2,71.3,0,106.9c0,9.2-0.8,18.4-1.5,27.5c-0.2,3,0.1,7-3.8,8.1
	c-4.8,1.3-7.4-2.7-9.5-5.9c-15.1-22.3-33-42.3-49.9-63.1C93.9,116,80.2,96.3,62.8,79.6z"/>
<path class="st1" d="M200.9,175.3c38.1,0.1,76.1,0,114.2,0.4c7.6,0.1,11.8-2.4,14-9.8c2.3-7.6,4-15.5,8.5-22.3
	c3.7,18.8-4.6,35.2-10.2,52.2c-1.6,5-5.4,6.3-10.3,6.3c-35.6,0-71.3-0.1-106.9,0.1c-7.3,0-10.2-3.1-9.7-10.1
	C200.7,186.5,200.7,180.9,200.9,175.3z"/>
<path class="st1" d="M942.6,136.7c14.3,34.3,29,42.9,71.5,41.3c27.2-1,42.3-14,53.2-46.1c1,10,0.2,19.9-1.8,29.8
	c-4.4,21.6-17.6,34.6-38.3,40.2c-14.2,3.8-28.6,3.7-42.9,0.6c-25.1-5.5-40.2-23.3-41.6-49C942.3,147.9,942.6,142.3,942.6,136.7z"/>
<path class="st1" d="M684.8,127.7c-0.2-4.8-0.7-9.6-0.3-14.4c0.3-4.4-2-10.3,4.9-11.8c6-1.3,10.8,0.4,14.6,5.7
	c12.8,17.9,26.5,35.2,38.4,53.7c7.4,11.5,16,16.5,29.5,14.9c8.3-1,16.8-0.3,25.2-0.4c1.8,26.6,1.8,25.9-25,27
	c-13.6,0.6-22.2-3.7-29.5-15.2c-10.5-16.5-23.2-31.6-34-48C702.6,130,695.6,125.7,684.8,127.7z"/>
<path class="st1" d="M1108,135c0.3,12,0.4,24,0.9,36c0.1,3.3,1.6,9.7,5.6,3.6c5.3-7.9,10.9-4.7,16.8-3.1c8.9,2.4,17.3,6,26.8,6.6
	c26.8,1.6,45.8-9,56.3-34c1.8,34.4-12,55.2-40,59.7c-13.8,2.2-27.2-0.1-40-5.2c-8.5-3.4-16.8-6.2-23.5,8.4
	C1105.3,180.7,1105.6,157.9,1108,135z"/>
<path class="st1" d="M501.3,168.2c-1-0.6-2.6-0.8-3.1-1.7c-8-13.9,4.4-23.6,7.3-35.3c1.7-6.9,6.6-9,13.5-8.9
	c13.6,0.4,27.2,0.5,40.7,0c7.7-0.3,11.8,2.7,14.2,9.8c2.5,7.6,6,14.8,8.5,22.4c1.8,5.5,2.4,11.2-4.6,14
	c-8.7-23.5-5.6-19.2-28.6-19.6c-7.2-0.1-14.3,0-21.5,0C508,148.9,508,148.9,501.3,168.2z"/>
<path class="st1" d="M1106.9,62.2c5.7,15.5,17.2,25.7,30.9,33.8c13.1,7.7,26.6,14.9,39.3,23.2c14.2,9.3,17.2,20.2,10.9,34.9
	c-14.2-13.9-32.1-22.3-49.3-31.3C1113.5,109.7,1103.6,89.7,1106.9,62.2z"/>
<path class="st1" d="M248.4,50.7c-1.2-33.1-1.2-26.1,25-26.9c4.8-0.1,9.6,0.3,14.4-0.1c16.2-1.4,28.7,2.4,31.9,20.8
	c0.7,4.2,3.5,6.1,7.9,5.2c0,6.8,0.1,13.6-0.1,20.3c-0.1,2.4-1,5-3.8,5.4s-3.9-1.7-4.9-4.2c-8.6-21.1-8.6-21.2-30.8-21.1
	C274.8,50.2,261.6,50.5,248.4,50.7z"/>
<path class="st1" d="M395.4,85.9c-4.2-18.6-1.3-37.3-1.5-56c-0.1-5.4,4.4-6,8.6-6c8,0,16.1,0.4,24-0.1c16.6-1.1,29.2,3.9,34.6,21
	c1,3.3,3.1,5.6,6.9,5.5c2.9,8.4-0.3,16.4-1.4,24.8c-6.6-0.5-5.8-6.1-7.5-9.6c-4.7-9.4-11.7-15-22.5-15.1s-21.5,0-32.3-0.2
	c-6.7-0.2-9.2,2.9-9,9.4C395.8,68.3,395.5,77.1,395.4,85.9z"/>
<path class="st1" d="M1132.2,56c-9.5-15.3,0.5-32.5,19.8-34.3c19.6-1.8,37.3,11.9,43.6,33.5c1.4,4.7,0,12.3,8.9,11.4
	c0,6.8,0.1,13.5-0.2,20.3c-0.1,2.2-0.5,5.1-3.7,5.1c-2.5,0-2.6-2.6-3.3-4.4c-0.6-1.9-1.3-3.8-1.6-5.7
	C1191.8,54.5,1156.6,36.3,1132.2,56z"/>
<path class="st0" d="M896.4,105.7c-10.2-26.7-12-54.3-12.3-82c-0.1-6.5,3.3-11.4,10.9-11.8c6.9-0.3,12.6,2.6,13.1,9.4
	C910.2,50.2,904.2,78,896.4,105.7z"/>
<path class="st1" d="M800.9,175.5c22.9,0,45.8,0,68.7,0c1.7,26.5,1.7,26.5-24.8,26.5c-10.4,0-20.8-0.6-31.1,0.2
	c-10.6,0.8-14.7-3.2-13.3-13.6C801,184.3,800.8,179.8,800.9,175.5z"/>
<path class="st1" d="M347.5,175.5c23-0.1,46-0.1,69-0.2c1.8,26.8,1.8,26.8-24.8,26.8c-10,0-20-0.7-30,0.2
	c-11.6,1-16.3-3.3-14.7-14.8C347.5,183.5,347.3,179.5,347.5,175.5z"/>
<path class="st1" d="M638.2,175.8c22.7,0,45.4-0.1,68.1-0.1c1.5,26.4,1.5,26.4-24.2,26.4c-10.4,0-20.9-0.5-31.3,0.1
	c-10.1,0.6-15.5-2.1-13.4-13.3C638.1,184.6,638,180.2,638.2,175.8z"/>
<path class="st1" d="M248.5,122.9c-1.4-33.4-1-26,25.1-26.9c4-0.1,8,0,12,0.1c10.1,0.1,16.8,4.3,18.9,14.7c0.9,4.6,1.4,10.2,8.6,8.6
	c-0.1,7.1,0,14.3-0.3,21.4c-0.1,1.9-1,4.1-3.3,4.3c-2.6,0.3-3.5-2-3.7-3.9c-2.2-18.6-15.3-19.6-29.9-18.9
	C266.8,122.8,257.6,122.7,248.5,122.9z"/>
<path class="st1" d="M568.6,175.7c21,0,42-0.1,63-0.1C633,202,633,202,606.2,202c-8.8,0-17.7-0.4-26.4,0.1
	c-9.1,0.5-13.8-2.1-12-12.2C568.6,185.3,568.4,180.5,568.6,175.7z"/>
<path class="st1" d="M395.1,158.6c-3.5-18.6-1-37.3-1.3-56c-0.1-3.6,1.9-6.1,5.8-6.2c9.6-0.2,19.2-1.1,28.7,0.8
	c6.9,1.4,11.4,5.6,12.8,12.6c0.8,4,1.2,8.2,7,7.6c0.1,6.7,0.2,13.5,0.2,20.2c0,2-0.3,4.3-2.6,4.8c-2.4,0.6-3.7-1.4-4-3.4
	c-1.1-7.2-3.7-13.4-11.4-15.2c-10.2-2.4-20.6-1.7-30.8-0.5c-4.2,0.5-3.7,4.7-3.8,7.7C395.4,140.3,395.3,149.5,395.1,158.6z"/>
<path class="st1" d="M28.4,175.7c18.6-0.1,37.2-0.3,55.7-0.4c1.7,26.9,1.7,26.9-24.6,26.8c-2.8,0-5.6,0-8.4,0
	C24.7,202.1,24.7,202.1,28.4,175.7z"/>
<path class="st1" d="M462.1,176.1c16.9-0.2,33.8-0.5,50.7-0.7c1.8,26.7,1.8,26.7-24.7,26.7c-1.2,0-2.4,0-3.6,0
	C458.7,202.1,458.7,202.1,462.1,176.1z"/>
<path class="st1" d="M19.5,19c22.3,1.7,30.9,10.5,30.9,32.1c0,31.2,0,62.3,0,93.5c0,4.8,0.6,9.6-1.6,14.2
	c-0.2-29.3-0.9-58.5-0.2-87.8c0.3-12.7-5.1-20.9-16.3-23.1c-12.1-2.4-14.4-9-13.2-19.3C19.4,25.4,19.3,22.2,19.5,19z"/>
<path class="st1" d="M637.3,19.2c19,0.2,22.9,3.8,23,22.1c0.2,35.5,0.2,71,0.2,106.6c0,4.4,0.5,8.8-1.9,12.9
	c-0.1-31.9-0.4-63.7-0.2-95.6c0.1-11-2.7-18.9-15.3-19.6c-4.7-0.3-6.1-3.1-6.1-7.2C637.1,31.9,637.2,25.5,637.3,19.2z"/>
<path class="st1" d="M200.9,18.7c20.5,1.4,22.9,3.9,22.9,24.8c0.1,34.4,0.1,68.8,0.1,103.2c0,4.8,0.4,9.6-1.7,14.2
	c-0.1-32.3-0.6-64.7-0.2-97c0.1-10.8-2.1-18.1-14.5-18.3c-5.9-0.1-7.2-4-7-8.9C200.7,30.7,200.8,24.7,200.9,18.7z"/>
<path class="st1" d="M739.9,118.1c-1.1-1.1-2.4-2.1-3.3-3.4c-11.4-14.3-11.4-14.4,4.5-22.8c12.1-6.4,18.9-16.6,22.6-29.4
	c1.4,17.3,1,34.1-12.1,47.7C748.3,113.7,744.7,116.7,739.9,118.1z"/>
<path class="st1" d="M919.2,18.9c18.5,0.9,22.4,4,22.8,21.5c0.6,31.5,0.4,62.9,0.5,94.4c-4.4-21.7-1.7-43.7-2-65.5
	c-0.2-12.4-0.2-23.6-16.9-24.2c-4-0.1-4.8-3.7-4.8-7.1C918.9,31.6,919.1,25.3,919.2,18.9z"/>
<path class="st1" d="M1032.6,19.3c18.5,0,22.9,3.7,22.7,22c-0.3,29.4,2.6,58.8-1.5,88.1c-0.1-22.4-0.4-44.8-0.2-67.2
	c0.1-9.8-2.3-16.7-13.6-16.6c-6.6,0-8-3.8-7.7-9.4C1032.6,30.5,1032.5,24.9,1032.6,19.3z"/>
<path class="st1" d="M966.6,54.9c-0.1-4.7-0.3-9.5-0.2-14.2c0.4-17.2,4.5-21.2,22-21.5c0.2,4.4,0.2,8.7,0.8,13
	c1.1,8.3,0.1,14.2-10.6,13.7C972.9,45.7,969.7,50.6,966.6,54.9z"/>
<path class="st1" d="M1067.9,57.2c-0.1-5.9-0.4-11.9-0.1-17.8c0.8-15.4,5.6-19.8,21.5-20.2c0.3,4.7,0.3,9.4,1,14
	c1.3,8.1-0.6,12.6-10,12.8C1073.7,46.1,1070.6,51.8,1067.9,57.2z"/>
<path class="st1" d="M137.6,19c18.2,0.8,21.6,4.2,21.9,22.1c0.1,4-0.2,8-0.3,12c-1.9-1.4-3.7-3.9-5.8-4.1
	C133.3,46.6,136.9,32.1,137.6,19z"/>
<path class="st1" d="M347.5,19c18.5,1,21.6,4.1,21.6,22.1c0,4-0.2,8-0.3,11.9c-1.8-1.6-3.5-4.4-5.4-4.5
	C343.1,46.5,346.7,32.1,347.5,19z"/>
<path class="st1" d="M800.9,18.9c18.5,1.1,21.5,4.2,21.6,22.3c0,4-0.3,8-0.4,11.9c-2.1-1.8-4-5.1-6.2-5.3
	C795.1,46.1,800.8,31.2,800.9,18.9z"/>
<path class="st1" d="M848.6,51.3c-0.2-3.1-0.6-6.3-0.6-9.4c-0.1-18.7,3-21.9,21.6-22.9c0.1,4,0.1,8,0.5,12c1,9.1-0.5,15.7-12.1,15.3
	C854.8,46.1,851.7,49.5,848.6,51.3z"/>
<path class="st1" d="M733,67.6c-11.6-18.5-29.2-19.1-48-16.2c-0.1-0.8-0.4-1.6-0.3-2.4c1.1-7.8-4.9-18.5,4.4-23
	c10.9-5.2,22.9-2.9,33.1,4C733.5,37.8,737.5,52.7,733,67.6z"/>
<path class="st1" d="M525.4,112.7c-8.4,1.1-12.5-0.4-7.9-10.1c7.4-15.8,14-32,24.1-48.2c7.2,17.1,14.7,34.1,21.3,51.4
	c3.1,8.1-3.7,6.8-8.4,6.8c-3.5-8.9-6.9-17.9-10.5-26.8c-0.7-1.7-2-4.1-3.5-4.4c-3-0.7-3.7,2.5-4.6,4.5
	C532.3,94.8,528.9,103.8,525.4,112.7z"/>
</svg>
