<?xml version="1.0" encoding="utf-8"?>
<!-- Generator: Adobe Illustrator 22.1.0, SVG Export Plug-In . SVG Version: 6.00 Build 0)  -->
<svg version="1.1" id="Layer_1" xmlns="http://www.w3.org/2000/svg" xmlns:xlink="http://www.w3.org/1999/xlink" x="0px" y="0px"
	 viewBox="0 0 1074.8 358" style="enable-background:new 0 0 1074.8 358;" xml:space="preserve">
<style type="text/css">
	.st0{fill:#C51AFE;}
	.st1{fill:#9800CB;}
	.st2{fill:#009873;}
	.st3{fill:#E7A3FE;}
	.st4{fill:#70C5AF;}
	.st5{fill:#96D5C5;}
	.st6{fill:#00E5AB;}
	.st7{fill:#16D4B0;}
	.st8{fill:#5CD0C9;}
	.st9{fill:#8DC6D9;}
	.st10{fill:#03E5AC;}
	.st11{fill:#019873;}
	.st12{fill:#01E4AB;}
	.st13{fill:#029873;}
	.st14{fill:#DBD1EC;}
	.st15{fill:#CD8FE5;}
	.st16{fill:#93BBC1;}
	.st17{fill:#49A699;}
	.st18{fill:#6BB6AA;}
	.st19{fill:#EDEAF5;}
	.st20{fill:#F2F9F8;}
	.st21{fill:#DFE9ED;}
	.st22{fill:#D5D9E8;}
	.st23{fill:#A884D1;}
	.st24{fill:#94B0C4;}
	.st25{fill:#AC9BD0;}
	.st26{fill:#A586CC;}
	.st27{fill:#EEF8F5;}
	.st28{fill:#52B8C5;}
	.st29{fill:#02E4AC;}
	.st30{fill:#F1D6FA;}
	.st31{fill:#03E3AC;}
	.st32{fill:#FAF1FD;}
	.st33{fill:#8B6FD6;}
	.st34{fill:#01E5AB;}
	.st35{fill:#00E4AB;}
	.st36{fill:#019973;}
	.st37{fill:#EFF0F6;}
	.st38{fill:#E5EBF1;}
	.st39{fill:#DFE8ED;}
	.st40{fill:#F9F1FB;}
	.st41{fill:#21CCAD;}
	.st42{fill:#19C3A5;}
</style>
<g>
	<path class="st0" d="M891.1,0c13.3,0,26.7,0,40,0c1,0.3,2,0.6,3.1,0.9c32.4,6.1,57.6,23,75,51.1c0.3,0.4,0.6,0.7,0.9,1.1
		c0,0-0.1-0.1-0.1-0.1c0.7,1.3,1.4,2.7,2,4c19.7,44.7,16,86.6-15.2,125.1c-12.4,13-26.9,23-43.8,29.4c-2.6,0.9-5.3,1.8-7.9,2.7
		c-43.8,10.6-82.8,2-116-29.4c-12.1-14.2-21.5-29.9-26-48.2c-5.1-25.5-3.8-50.4,6.4-74.6C826,27.4,854.3,8.1,891.1,0z M895.7,144.1
		c13.1,6.3,26.2,6,37.4-3.3c15.1-12.5,15.9-29.3,11.6-47c-5.6-17.1-17.4-25.7-35.3-24.7c-17.2,1-27.7,11.3-31,27.6
		C874.6,115.6,876.9,133.1,895.7,144.1z"/>
	<path class="st1" d="M-0.9,185c13.3-0.1,26.6-0.1,39.9-0.2c0,9.2,0,18.4,0,28.3c6.8,0,12.5,0,18.1,0c1.4,7.3,2.7,14.6,4.1,21.9
		c2.1,14.1,4.2,28.3,6.2,41.5c1.9-10.9,4-22.7,6-34.4c0.5-2.5,1.1-5,1.6-7.4c1.5-7.2,3-14.4,4.5-21.6c10.6,0,21.2,0,32.9,0
		c0-10.1,0-19.1,0-28.2c3.5,0,6.9,0,10.5,0c2,9.4,4,18.4,5.9,27.5c4.2,21.4,8.3,42.8,12.3,63.5c1.4-9.8,2.9-20.4,4.4-31.1
		c0.2-1,0.3-2.1,0.5-3.1c3.5-18.9,7-37.9,10.5-56.8c5.7,9.3,11.4,18.6,17.4,28.3c9.2,0,18.3,0,27.4,0c-2,7.2-3.9,14.4-5.9,21.7
		c-9.6,32.4-19.2,64.9-28.9,97.8c-12.1,0-23.9,0-35.7,0c-3.4-0.2-6.9-0.3-10.7-0.5c-1.7-7.8-3.4-15.5-5.2-23.2
		c-0.2-1-0.5-1.9-0.7-2.9c-3.4-15.9-6.8-31.9-10.1-47.8c-5.4,24.7-10.7,49.4-16.1,74.4c-13.1,0-25.4,0-37.7,0
		c-2.9-0.2-5.9-0.4-8.7-0.5c-14.3-48-28.4-95.6-42.6-143.2C-0.9,187.7-0.9,186.3-0.9,185z"/>
	<path class="st2" d="M1063.2,272.9c4.3,6,8.6,12.1,12.9,18.1c0,9,0,18,0,27c-6.8,22-22.8,33.9-44,40c-13,0-26,0-39,0
		c-6.4-2-12.8-4.1-19.3-6.1c0.1,1.2,0.2,2.2,0.2,3c-20,0-39.5,0-59.2,0c-3.9-7.5-7.8-14.8-11.6-22.1c18.7-0.4,37.4-0.9,56-1.3
		c0.4-0.5,0.9-1.1,1.3-1.6c1.9,0.6,3.8,1.1,5.7,1.7c53.8,16.6,96-7.9,95.6-55.4C1062.3,275.1,1062.7,274,1063.2,272.9z"/>
	<path class="st2" d="M733,357.1c-23.6-6.2-41.7-19.3-51.9-42.2c38.2,25.8,71.9,28.4,102.1,7.9c27.9-18.9,38.4-49.6,30.1-87.8
		c1.3,0,2.5,0,3.8,0c1.5,2.4,3.1,4.8,4.6,7.2c0,26.3,0,52.7,0,79c-11.5,18.9-28,30.9-49.5,35.9c-1,0.3-2.1,0.6-3.1,0.9
		c-11.3,0-22.7,0-34,0C734.4,357.7,733.7,357.4,733,357.1z"/>
	<path class="st3" d="M934.1,0c0,0.3,0,0.6,0.1,0.9c-1-0.3-2-0.6-3.1-0.9C932.1,0,933.1,0,934.1,0z"/>
	<path class="st4" d="M772.2,357.1c-0.1,0.3-0.1,0.6-0.1,0.9c-1,0-2,0-3,0C770.2,357.7,771.2,357.4,772.2,357.1z"/>
	<path class="st5" d="M733,357.1c0.7,0.3,1.4,0.6,2.1,0.9c-0.7,0-1.3,0-2,0C733.1,357.7,733.1,357.4,733,357.1z"/>
	<path class="st1" d="M903.2,332.8c-9.1-3.1-8.3-13.3-13.7-19c-4.8-9.2-9.6-18.4-15.4-29.5c0,17.3,0,32.5,0,48.6
		c-12.6,0-24.7,0-36.8,0c-4.9,0-9.9,0-15.6,0c0-4.3,0-7.9,0-11.5c0-26.3,0-52.7,0-79c0-2.5,0-5,0-7.5c0-5.5,0-10.9,0-16.4
		c0-11.1,0-22.2,0-33.5c3,0,5.1,0,7.3,0c33.2,31.3,72.2,40,116,29.4c1.1,3.6,2.1,7.2,3.2,11c1.6-4.8,3.2-9.2,4.7-13.7
		c16.9-6.3,31.3-16.3,43.8-29.4c10.6,0.3,21.2,0.6,31.9,0.8c10.3,3.6,20.6,7.2,31.3,10.9c-2.3,5.9-4,10.5-5.8,15.1
		c-3.6,8.1-7.1,16.3-10.8,24.7c-9.8-6.6-19.4-11.7-31-11.4c-4.3,0.1-9.4,0.4-10.3,5.8c-1,5.3,4.1,6.3,7.6,7.8
		c12.6,5.3,27.4,4.6,38.5,14.2c0.4,0.3,0.7,0.6,1.1,0.9l-0.1-0.1c0.7,0.7,1.3,1.3,2,2c0.4,0,0.7,0.1,1.1,0.1c0,0-0.1,0-0.1,0
		c3,6.1,6.1,12.2,9.1,18.3c0.3,1.6,0.5,3.3,0.8,4.9c0.4,47.5-41.8,72-95.6,55.4c-1.9-0.6-3.8-1.2-5.7-1.7c-0.6-0.3-1.3-0.6-2.8-1.2
		c0.8,1.5,1.2,2.2,1.5,2.8C940.6,331.9,921.9,332.3,903.2,332.8z M978.1,289.9c0.7,0.3,1.4,0.7,2,1c8.6,2,19.7,7.7,24.2-3.1
		c3.6-8.4-7.6-8.5-13.3-10.6c-8.8-3.4-17.7-6.2-26.6-9.2c-0.4-0.3-0.8-0.6-1.2-0.8c-7.3-5.8-12.4-13.1-14.9-24.1
		c-3.9,16.1-12,26.4-28.1,29.5c5.5,8.1,10.5,15.7,15.6,23.2c2.7,4.1,5.4,8.2,8.6,13c2.9-7.4,5.3-13.6,7.8-19.9
		c0.3-0.6,0.5-1.2,0.8-1.8c1.9-2.6,3.9-5.1,5.8-7.7c5,3,10,5.9,15,8.9C975.3,288.8,976.8,289.4,978.1,289.9L978.1,289.9z
		 M897.6,234.4c-2.8-13.7-13.5-11-23.3-11.4c0,1.5,0,2.8,0,4.1c0,8,0,16,0,25c5.5-0.8,10.4-1.4,15.2-2.1c1.9-1.4,3.8-2.8,5.7-4.2
		c0.8-3.2,1.7-6.4,2.5-9.6C897.7,235.6,897.6,235,897.6,234.4L897.6,234.4z"/>
	<path class="st6" d="M1028.7,183c-10.6-0.3-21.2-0.6-31.9-0.8c31.2-38.5,35-80.4,15.2-125.1c0.3-0.4,0.7-0.7,1-1.1
		C1045.9,94.9,1049.1,137.5,1028.7,183z"/>
	<path class="st6" d="M944.8,93.8c-33.9-11-56.7,12.3-49,50.3c-18.9-11-21.2-28.5-17.3-47.3c3.3-16.3,13.8-26.6,31-27.6
		C927.4,68.1,939.2,76.7,944.8,93.8z"/>
	<path class="st6" d="M821.8,218.3c0,5.5,0,10.9,0,16.4c-1.6,0.1-3.1,0.2-4.7,0.3c-1.3,0-2.5,0-3.8,0c-3.7-7.2-7.3-14.5-11-21.7
		c4-0.2,8-0.4,12.7-0.6c-18.7-28.5-37-56.3-55.5-84.3c36.7-11.3,48.6-41.5,34.4-85.3c5.2,6.3,10.3,12.6,15.5,18.9
		c-10.2,24.2-11.5,49.1-6.4,74.6c-7.2,7.1-16,11.4-26.5,13.3C791.9,173.2,806.9,195.7,821.8,218.3z"/>
	<path class="st7" d="M953.1,211.5c-1.5,4.5-3.1,8.9-4.7,13.7c-1.1-3.8-2.2-7.4-3.2-11C947.8,213.3,950.4,212.4,953.1,211.5z"/>
	<path class="st8" d="M1013.1,55.9c-0.3,0.4-0.7,0.7-1,1.1c-0.7-1.3-1.4-2.7-2-4C1011,54,1012.1,54.9,1013.1,55.9z"/>
	<path class="st9" d="M1009.2,52c0.3,0.4,0.6,0.7,0.9,1.1C1009.8,52.7,1009.5,52.3,1009.2,52z"/>
	<path class="st0" d="M57.1,213.1c-5.6,0-11.3,0-18.1,0c0-9.9,0-19.1,0-28.3c0-60.1,0-120.2,0-180.6c24.9,0,49.3,0,74,0
		c4.3,7,8.7,14.2,13.1,21.4c16.4,27.7,32.8,55.5,49.2,83.2c0.3,0.6,0.7,1.2,2.5,4.5c-0.9-4.9-1.3-6.7-1.6-8.6
		c-0.1-0.9-0.2-1.8-0.3-2.7c0-32.5,0-65.1,0-97.9c23.8,0,47.6,0,72.3,0c0,7.2,0,14.3,0,21.4c0,53.1,0,106.3,0.1,159.4
		c0,9.2,0,18.4,0,28.3c-9.9,0-18.5,0-27.1,0c-6.7,0-13.3,0.1-20,0.1c-9.1,0-18.2,0-27.4,0c-6-9.7-11.7-19-17.4-28.3
		c-9.4-15.9-18.8-31.9-28.3-47.8c-5.7-9.9-11.5-19.8-16-27.6c0,24,0,49.7,0,75.4c0,9.1,0,18.2,0,28.2c-11.7,0-22.3,0-32.9,0
		C72,213.2,64.5,213.1,57.1,213.1z"/>
	<path class="st0" d="M794,43.1c14.2,43.8,2.2,74-34.4,85.3c18.4,28,36.7,55.8,55.5,84.3c-4.6,0.2-8.6,0.4-12.7,0.6
		c-23.9,0-47.8,0-71.2,0c-6-10.1-11.4-19.4-16.8-28.6c-1-2.4-1.9-4.9-2.9-7.3c-5.3-10.2-10.7-20.4-16.9-32.5c0,17.5,0,32.7,0,48
		c0,6.5,0,13,0,20.3c-8.4,0-15.3,0-22.2,0c-7,0-14,0.1-20.9,0.1c-10.2,0-20.3,0-31.3,0c0-10.4,0-19.4,0-28.4c0-6.8,0-13.5,0-20.3
		c0-46.3,0-92.6,0-139c0-7,0-13.9,0-22.6c46.7,4.7,93.7-6.7,139.2,8.2C775.3,16.4,786.7,27.8,794,43.1z M711.6,97.8
		c10.3-1.7,15.5-7.8,16.1-18.2c-0.3-23.8-16.9-22.1-33.1-21.7c0,13.7,0,26.8,0,40.7C700.4,98.4,706,98.1,711.6,97.8z"/>
	<path class="st0" d="M504.4,152c18.7,2.2,23.3-10.2,23.5-24.7c0.5-40.9,0.2-81.9,0.2-123.2c25.5,0,50.2,0,75.7,0
		c0,7.3,0,14.4,0,21.6c-0.1,31.1-0.4,62.3-0.1,93.4c0.2,29.5-4.1,57.2-28.2,77.8c-34.2,24.6-71.4,26.8-110.4,14.4
		c-3.7-1.6-7.4-3.2-11.1-4.8c-0.1-0.2-0.3-0.3-0.5-0.4c-0.5-0.3-1-0.6-1.4-0.9c-7-5.2-14-10.3-21-15.5c-2.7-3.9-5.4-7.7-8.1-11.6
		c-2.9-7.4-5.7-14.7-8.6-22.1c-1.1-17.9-2.3-35.7-3.4-53.6c0-6.6,0-13.2,0-19.8c0-18.9,0-37.9,0-56.8c0-7,0-13.9,0-21.3
		c25.3,0,50.1,0,76,0c0,6.9,0,13.9,0,20.8c0,0,0.1-0.1,0.1-0.1c-0.1,0.2-0.3,0.5-0.4,0.7c0.1,34-0.2,67.9,0.5,101.9
		C487.5,138.8,489.1,150.7,504.4,152z"/>
	<path class="st0" d="M264,25.5c0-7,0-13.9,0-21.3c46.8,0,93.2,0,140.3,0c0,7.1,0,14.2,0,21.3c0,11.6,0,23.2,0,35.4
		c-22.4,0-44.1,0-65.9,0c0,6.8,0,13.1,0,19.6c5.1,0,9.9-0.2,14.7,0c15,0.6,30,1.3,45,1.9c0,6.6,0,13.2,0,19.8c0,10.6,0,21.1,0,32.2
		c-20.6,0-40.1,0-59.8,0c0,7.4,0,14.3,0,21.8c22.7,0,45.1,0,67.6,0c0.1,7.2,0.1,14.5,0.2,21.7c0.1,2.4,0.1,4.7,0.2,7.1
		c0,9.1,0,18.2,0,28.3c-24.8,0-48.6,0-72.3,0c-11,0-22,0-33-0.1c-12,0-24.1,0-37.1,0c0-10.1,0-19.2,0-28.3
		C263.9,131.8,263.9,78.6,264,25.5z"/>
	<path class="st6" d="M575.5,196.9c24-20.6,28.4-48.3,28.2-77.8c-0.3-31.1,0.1-62.3,0.1-93.4c5.4,0,10.9-0.1,16.3-0.1
		c0,46.3,0,92.6,0,139c-1.4,6.7-2.9,13.4-4.3,20.1c-5.9,0-11.9,0-18.7,0c0,10.4,0,20.1,0,29.8c-2.1,1.7-4.1,3.5-6.2,5.2
		c-0.1,0.1-0.3,0.3-0.4,0.4C587.8,211,583.6,202.7,575.5,196.9z"/>
	<path class="st6" d="M264,25.5c0,53.1,0,106.3-0.1,159.4c-5.2,0-10.4,0-15.5,0c0-53.1,0-106.3-0.1-159.4
		C253.5,25.5,258.7,25.5,264,25.5z"/>
	<path class="st6" d="M504.4,152c-15.3-1.3-16.9-13.2-17.1-24.4c-0.6-34-0.4-67.9-0.5-101.9c0.4-0.1,0.5-0.4,0.4-0.7
		c0,0-0.1,0.1-0.1,0.1c5.4,0.2,10.9,0.5,17.3,0.8C504.4,68,504.4,110,504.4,152z"/>
	<path class="st6" d="M398.1,82.4c-15-0.6-30-1.3-45-1.9c-4.8-0.2-9.6,0-14.7,0c0-6.6,0-12.8,0-19.6c21.8,0,43.5,0,65.9,0
		c0-12.2,0-23.8,0-35.4c2.3,0,4.6,0.1,6.8,0.1c0,18.9,0,37.9,0,56.8C406.8,82.4,402.5,82.4,398.1,82.4z"/>
	<path class="st10" d="M175.3,108.8c-16.4-27.7-32.8-55.5-49.2-83.2c2.1,1.2,5,1.8,6,3.6c14.7,24.2,29.2,48.5,43.8,72.8
		c0.1,0.9,0.2,1.8,0.3,2.7C175.9,106.1,175.6,107.4,175.3,108.8z"/>
	<path class="st2" d="M188.7,332.8c-2.1,7.3-4.2,14.6-6.3,22.1c-15.6,0-31,0-46.9,0c-1.5-7.3-3.1-14.7-4.6-22.1
		c11.8,0,23.6,0,35.7,0c9.7-32.9,19.3-65.4,28.9-97.8c5.9,0.1,11.9,0.1,17.8,0.2c-11.3,32.3-22.7,64.5-34.1,97.1
		C182.7,332.5,185.7,332.6,188.7,332.8z"/>
	<path class="st2" d="M114.1,308.6c-3.5,15.4-7.1,30.7-10.7,46.3c-15.4,0-30.7,0-46.6,0c-2.1-7.2-4.3-14.7-6.5-22.1
		c12.3,0,24.6,0,37.7,0c5.4-25,10.7-49.7,16.1-74.4c3.4,15.9,6.8,31.8,10.1,47.8C114.3,307,114.2,307.8,114.1,308.6z"/>
	<path class="st6" d="M128.3,137.1c0,23.3,0,46.6,0,70c3.8,0.2,6.5,0.4,9.1,0.6c-2.4,0.2-4.9,0.4-7.7,0.6c-0.3,1.4-0.6,2.8-1,4.2
		c-2-9.1-3.9-18.2-5.9-27.5c-3.6,0-7.1,0-10.5,0c0-25.7,0-51.4,0-75.4C116.8,117.3,122.5,127.2,128.3,137.1z"/>
	<path class="st11" d="M128.8,212.5c0.3-1.4,0.6-2.8,1-4.2c2.8-0.2,5.2-0.4,7.7-0.6c2.6,11.4,5.3,22.8,7.9,34.3
		c0.1,1,0.1,1.9,0.2,2.9c-1.5,10.6-3,21.3-4.4,31.1C137.1,255.2,132.9,233.8,128.8,212.5z"/>
	<path class="st12" d="M213.2,235.1c-5.9-0.1-11.9-0.1-17.8-0.2c2-7.2,3.9-14.4,5.9-21.7c6.7,0,13.3-0.1,20-0.1
		C218.6,220.5,215.9,227.8,213.2,235.1z"/>
	<path class="st12" d="M57.1,213.1c7.4,0,14.9,0,22.3,0c-1.5,7.2-3,14.4-4.4,21.6c-1,0.1-1.9,0.3-2.9,0.4c-3.6,0-7.3-0.1-10.9-0.1
		C59.8,227.7,58.4,220.4,57.1,213.1z"/>
	<path class="st13" d="M61.1,235c3.6,0,7.3,0.1,10.9,0.1c0.4,2.3,0.9,4.7,1.3,7c-2.1,11.7-4.1,23.5-6,34.4
		C65.4,263.3,63.3,249.2,61.1,235z"/>
	<path class="st14" d="M73.4,242.2c-0.4-2.3-0.9-4.7-1.3-7c1-0.1,1.9-0.3,2.9-0.4C74.4,237.2,73.9,239.7,73.4,242.2z"/>
	<path class="st15" d="M114.1,308.6c0.1-0.8,0.1-1.6,0.2-2.4c0.2,1,0.5,1.9,0.7,2.9C114.7,308.9,114.4,308.8,114.1,308.6z"/>
	<path class="st16" d="M145.5,244.8c-0.1-1-0.1-1.9-0.2-2.9c0.2-0.1,0.4-0.2,0.7-0.2C145.9,242.8,145.7,243.8,145.5,244.8z"/>
	<path class="st2" d="M1048.1,250.1c-11-9.6-25.9-9-38.5-14.2c-3.5-1.5-8.5-2.5-7.6-7.8c1-5.4,6-5.7,10.3-5.8
		c11.5-0.3,21.2,4.8,31,11.4c3.7-8.5,7.3-16.6,10.8-24.7c6.9,2.7,13.8,5.4,21.2,8.4c-5.6,13.4-10.9,26.1-16.3,39
		c-2.5-1.2-4.8-2.3-7.1-3.3c0,0,0.1,0,0.1,0c-0.4-0.4-0.7-0.7-1.1-1.1c-0.7-0.3-1.3-0.7-2-1c0,0,0.1,0.1,0.1,0.1
		C1048.8,250.7,1048.5,250.4,1048.1,250.1z"/>
	<path class="st17" d="M1061.9,276.2c-0.3-1.6-0.5-3.3-0.8-4.9c0.7,0.6,1.3,1.1,2,1.7C1062.7,274,1062.3,275.1,1061.9,276.2z"/>
	<path class="st1" d="M213.2,235.1c2.7-7.3,5.3-14.6,8-22c8.6,0,17.2,0,27.1,0c0-9.9,0-19.1,0-28.3c5.2,0,10.4,0,15.5,0
		c0,9.1,0,18.1,0,28.3c13,0,25.1,0,37.1,0c2.6,7.3,5.3,14.7,7.9,22c7.9,23.2,15.9,46.3,24.9,72.6c0-9.6,0-15.8,0-21.9
		c0-17,0-34.1,0-51.1c0.1-7.2,0.2-14.3,0.2-21.5c23.7,0,47.4,0,72.3,0c0-10.1,0-19.2,0-28.3c5.6,0.6,11.2,1.3,16.7,1.9
		c2.7,0.9,5.4,1.8,8.1,2.7c7,5.2,14,10.3,21,15.5c0.5,0.3,1,0.6,1.4,0.9c0.2,0.1,0.3,0.3,0.5,0.4c1.7,4.6,3.5,9.2,5.2,13.8
		c3.5,23.5,1.2,44.2-26.7,52.8c5.2,7.7,10.3,15.2,15.3,22.7c5.4,8.3,10.9,16.5,17.1,26c0-12.3,0-23.2,0-34c0-21.1-0.1-42.2-0.1-63.3
		c0.1-4.4,0.2-8.8,0.3-13.1c39,12.4,76.2,10.2,110.4-14.4c8,5.8,12.2,14.1,15,23.3c3.5,23.7,1.2,44.5-26.7,52.9
		c5.2,7.7,10.2,15.2,15.2,22.6c5.7,8.7,11.5,17.4,18,27.4c0-13.1,0-24.6,0-36.2c0-20.6,0-41.1,0-61.7c0-3.5,0-7.1,0-10.6
		c0-9.7,0-19.5,0-29.8c6.8,0,12.8,0,18.7,0c1.4,0.1,2.9,0.1,4.3,0.2c0,9,0,18.1,0,28.4c11,0,21.1,0,31.3,0
		c0.2,7.3,0.4,14.5,0.6,21.8c0,32.3,0,64.6,0,97.6c-13.7,0-26.3,0-38.9,0c-3.1,0-6.3,0-9.4,0c-19,0-38,0-57.1,0.1
		c-9.1-2.7-8-12.9-13.4-18.3c-4.9-9.5-9.8-19-16-30.9c0,18,0,33.1,0,49c-12.5,0-24.4,0-36.4,0c-2.9,0-5.8,0-8.7,0c-19,0-38,0-56.9,0
		c-9.2-3-8.3-13.3-13.7-19c-4.8-9.2-9.6-18.4-15.4-29.6c0,17.4,0,32.6,0,48.1c-33.9,0-67.3,0-101,0c-1.6-6-3.2-11.9-4.8-18
		c-13.4,0-26.5,0-39.8,0c-1.5,6.1-3,12-4.7,18.5c-11.4,0-22.5,0-33.7,0c-4.6,0-9.1,0-13.7,0c-3-0.1-5.9-0.3-9.6-0.5
		C190.6,299.7,201.9,267.4,213.2,235.1z M533,250c1.8-1.3,3.6-2.7,5.4-4c0.9-2.3,1.7-4.5,2.6-6.8c0.6-17.9-11.6-16.3-23.4-16
		c0,6.1,0,11.5,0,17c0,3.6,0,7.1,0,11.9C523.1,251.3,528,250.6,533,250z M407.2,245.8c0.7-3.9,1.5-7.7,2.2-11.6
		c-2.9-13.7-13.5-10.9-23.1-11.2c0,4.2,0,8,0,11.8c0,5.4,0,10.8,0,17.2c5.5-0.8,10.3-1.4,15.2-2.1
		C403.4,248.6,405.3,247.2,407.2,245.8z M261,234.9c0-1.3,0-2.6,0-4c-0.4,0-0.7,0-1.1,0c0,1.4,0,2.8,0,4.2
		c-3.2,14.3-6.4,28.7-9.7,43.3c6.9,0,13.7,0,20.3,0C267.3,263.7,264.2,249.3,261,234.9z"/>
	<path class="st1" d="M714.3,184.7c5.4,9.2,10.9,18.5,16.8,28.6c23.4,0,47.3,0,71.2,0c3.7,7.2,7.3,14.5,11,21.7
		c8.3,38.3-2.2,68.9-30.1,87.8c-30.2,20.5-63.9,17.9-102.1-7.9c0,0,0,0.1,0,0.1c-0.3-0.4-0.6-0.8-0.9-1.3c-4.3-5.7-8.6-11.4-12.9-17
		c-9.7-19.8-11.1-40.4-5.7-61.6c3.6-7.3,7.1-14.7,10.7-22c6.9,0,13.8,0,22.2,0c0-7.2,0-13.7,0-20.3c5.7-2.6,11.4-5.2,17-7.8
		C712.5,184.9,713.4,184.8,714.3,184.7z M728.1,284.8c19.2,7.5,35.2-6.6,33.6-29.6c-0.8-8.2-3.6-15.4-10.9-20.2
		c-1.3-0.7-2.6-1.4-3.9-2.1c-14.5-4.9-26.4-1.1-31.6,13.4C709.9,261.5,711,276.3,728.1,284.8z"/>
	<path class="st2" d="M202.3,332.8c11.1,0,22.3,0,33.7,0c1.6-6.5,3.1-12.4,4.7-18.5c13.3,0,26.4,0,39.8,0c1.6,6,3.2,11.9,4.8,18
		c33.7,0,67.1,0,101,0c0-15.5,0-30.7,0-48.1c5.8,11.1,10.6,20.3,15.4,29.6c0,13.6,0,27.2,0,41.1c-33.8,0-67.1,0-101,0
		c-1.6-5.9-3.1-11.9-4.8-17.9c-13.3,0-26.3,0-39.6,0c-1.5,5.9-3,11.8-4.5,17.9c-18.9,0-37.6,0-57.1,0
		C197.2,347.3,199.8,340.1,202.3,332.8z"/>
	<path class="st2" d="M661.6,235.1c-5.4,21.2-4,41.8,5.7,61.6c0,19.3,0,38.5,0,58.1c-36.5,0-72.5,0-109.2,0
		c-3.7-7.1-7.6-14.5-11.5-22c19,0,38,0,57.1-0.1c2.8,4.2,5.5,8.5,9.4,14.4c0-6.4,0-10.4,0-14.5c12.6,0,25.2,0,38.9,0
		c0-33,0-65.3,0-97.6C655.2,235.1,658.4,235.1,661.6,235.1z"/>
	<path class="st2" d="M480.9,332.7c11.9,0,23.9,0,36.4,0c0-15.9,0-31.1,0-49c6.2,11.9,11.1,21.4,16,30.9c0,13.3,0,26.6,0,40.3
		c-35.6,0-70.7,0-106.4,0c-3.7-7.1-7.6-14.6-11.6-22c19,0,38,0,56.9,0c2.5,3.7,5,7.4,8.7,12.9C480.9,339.9,480.9,336.3,480.9,332.7z
		"/>
	<path class="st18" d="M680.2,313.8c0.3,0.4,0.6,0.8,0.9,1.3C680.8,314.6,680.5,314.2,680.2,313.8z"/>
	<path class="st19" d="M959.3,331.4c-0.4-0.6-0.7-1.3-1.5-2.8c1.6,0.7,2.2,0.9,2.8,1.2C960.2,330.3,959.7,330.9,959.3,331.4z"/>
	<path class="st20" d="M817.1,235c1.6-0.1,3.1-0.2,4.7-0.3c0,2.5,0,5,0,7.5C820.2,239.8,818.7,237.4,817.1,235z"/>
	<path class="st2" d="M837.4,332.8c12.1,0,24.2,0,36.8,0c0-16.1,0-31.3,0-48.6c5.8,11.1,10.6,20.3,15.4,29.5c0,13.6,0,27.2,0,41.1
		c-17.4,0-34.4,0-52.2,0C837.4,347.5,837.4,340.2,837.4,332.8z"/>
	<path class="st2" d="M935.9,295.8c-5.1-7.5-10.1-15.1-15.6-23.2c16.1-3.1,24.2-13.4,28.1-29.5c2.4,11,7.6,18.2,14.9,24.1
		c-1.5,4.1-2.9,8.1-4.4,12.2c-1.9,2.6-3.9,5.1-5.8,7.7c-0.6,0.6-1.2,1.2-1.9,1.8C946.1,291.2,941,293.5,935.9,295.8z"/>
	<path class="st11" d="M964.5,268c8.9,3,17.9,5.9,26.6,9.2c5.7,2.2,16.9,2.2,13.3,10.6c-4.6,10.8-15.6,5.1-24.2,3.1
		c-0.7-0.3-1.4-0.7-2-1c0,0,0.1,0.1,0.1,0.1c-1-1-2.1-1.9-3.1-2.9C971.6,280.7,968,274.4,964.5,268z"/>
	<path class="st2" d="M889.5,250c-4.8,0.7-9.7,1.3-15.2,2.1c0-9,0-17,0-25c7.8,3.1,15.6,6.1,23.4,9.2c-0.8,3.2-1.7,6.4-2.5,9.6
		c-1.7,0-3.4,0-5.4,0C889.7,247.5,889.6,248.7,889.5,250z"/>
	<path class="st12" d="M897.7,236.2c-7.8-3.1-15.6-6.1-23.4-9.2c0-1.3,0-2.5,0-4.1c9.8,0.3,20.5-2.3,23.3,11.4c0,0,0,0,0,0
		C897.6,235,897.7,235.6,897.7,236.2z"/>
	<path class="st21" d="M889.5,250c0.1-1.2,0.2-2.5,0.3-4.2c2,0,3.7,0,5.4,0C893.3,247.2,891.4,248.6,889.5,250z"/>
	<path class="st22" d="M973.9,288.3c0.4-0.4,0.8-0.8,1.2-1.2c1,1,2.1,2,3.1,2.9C976.8,289.4,975.3,288.8,973.9,288.3z"/>
	<path class="st23" d="M1049.1,250.9c0.7,0.3,1.3,0.7,2,1c0,0.3,0,0.6,0,1C1050.5,252.3,1049.8,251.6,1049.1,250.9z"/>
	<path class="st24" d="M952.3,288.9c-0.4,0-0.7,0-1.1,0c0.6-0.6,1.2-1.2,1.9-1.8C952.8,287.7,952.5,288.3,952.3,288.9z"/>
	<path class="st25" d="M978.1,289.9c0.7,0.3,1.4,0.7,2,1C979.5,290.6,978.8,290.3,978.1,289.9z"/>
	<path class="st2" d="M897.5,234.4C897.5,234.4,897.5,234.4,897.5,234.4C897.6,234.4,897.5,234.4,897.5,234.4z"/>
	<path class="st26" d="M1048.1,250.1c0.4,0.3,0.7,0.6,1.1,0.9C1048.8,250.7,1048.5,250.4,1048.1,250.1z"/>
	<path class="st27" d="M1051.1,252.9c0-0.3,0-0.6,0-1c0.4,0.4,0.7,0.7,1.1,1.1C1051.8,253,1051.5,253,1051.1,252.9z"/>
	<path class="st28" d="M175.3,108.8c0.3-1.4,0.6-2.7,0.9-4.1c0.4,1.9,0.7,3.7,1.6,8.6C176,110,175.7,109.4,175.3,108.8z"/>
	<path class="st6" d="M711.6,97.8c-5.6,0.3-11.2,0.5-17,0.8c0-13.9,0-27,0-40.7c16.2-0.4,32.8-2.1,33.1,21.7c-5.2,0-10.4,0-16.1,0
		C711.6,86.1,711.6,91.9,711.6,97.8z"/>
	<path class="st29" d="M711.5,185.1c-5.7,2.6-11.4,5.2-17,7.8c0-15.2,0-30.5,0-48c6.3,12,11.6,22.2,16.9,32.5
		C711.5,179.9,711.5,182.5,711.5,185.1z"/>
	<path class="st29" d="M661.6,235.1c-3.2,0-6.4,0-9.6,0c-0.2-7.3-0.4-14.5-0.6-21.8c7,0,14-0.1,20.9-0.1
		C668.7,220.5,665.2,227.8,661.6,235.1z"/>
	<path class="st30" d="M711.5,185.1c0-2.6-0.1-5.1-0.1-7.7c1,2.4,1.9,4.9,2.9,7.3C713.4,184.8,712.5,184.9,711.5,185.1z"/>
	<path class="st6" d="M406,156.2c-22.4,0-44.9,0-67.6,0c0-7.5,0-14.4,0-21.8c19.6,0,39.2,0,59.8,0c0-11,0-21.6,0-32.2
		c4.3,0,8.6,0,13,0c1.1,17.9,2.3,35.7,3.4,53.6C411.6,155.9,408.8,156.1,406,156.2z"/>
	<path class="st31" d="M459.3,220.3c-1.7-4.6-3.5-9.2-5.2-13.8c3.7,1.6,7.4,3.2,11.1,4.8c-0.1,4.4-0.2,8.8-0.3,13.1
		C463,223,461.1,221.6,459.3,220.3z"/>
	<path class="st32" d="M431.2,189.5c-2.7-0.9-5.4-1.8-8.1-2.7c0-2.9,0-5.9,0.1-8.8c0,0,0-0.1,0-0.1
		C425.8,181.8,428.5,185.7,431.2,189.5z"/>
	<path class="st33" d="M453.6,206c-0.5-0.3-1-0.6-1.4-0.9C452.6,205.4,453.1,205.7,453.6,206z"/>
	<path class="st34" d="M308.9,235.2c-2.6-7.3-5.3-14.7-7.9-22c11,0,22,0,33,0.1c-0.1,7.2-0.2,14.3-0.2,21.5
		c-5.9,0.1-11.8,0.2-17.7,0.3C313.7,235.1,311.3,235.1,308.9,235.2z"/>
	<path class="st29" d="M423.1,178c0,2.9,0,5.9-0.1,8.8c-5.6-0.6-11.2-1.3-16.7-1.9c-0.1-2.4-0.1-4.7-0.2-7.1
		C411.8,177.9,417.4,178,423.1,178z"/>
	<path class="st2" d="M597.1,225.1c0,20.6,0,41.1,0,61.7c-6,2.9-12,5.9-18,8.8c-5-7.4-10-14.8-15.2-22.6
		c27.9-8.3,30.3-29.1,26.7-52.9c0.1-0.2,0.2-0.3,0.4-0.4C593,221.5,595,223.3,597.1,225.1z"/>
	<path class="st2" d="M459.3,220.3c1.9,1.4,3.7,2.8,5.6,4.1c0,21.1,0.1,42.2,0.1,63.3c-5.7,2.7-11.4,5.4-17.1,8.1
		c-5.1-7.5-10.1-15-15.3-22.7C460.4,264.5,462.7,243.8,459.3,220.3z"/>
	<path class="st11" d="M261,234.9c3.2,14.4,6.3,28.8,9.5,43.5c-6.6,0-13.4,0-20.3,0c3.3-14.6,6.5-29,9.7-43.3
		C260.3,235,260.7,235,261,234.9z"/>
	<path class="st11" d="M316.1,235c5.9,16.9,11.8,33.9,17.7,50.8c0,6.1,0,12.3,0,21.9c-9-26.3-16.9-49.4-24.9-72.6
		C311.3,235.1,313.7,235.1,316.1,235z"/>
	<path class="st12" d="M517.5,240.2c0-5.5,0-10.9,0-17c11.7-0.3,24-1.9,23.4,16C533.1,239.5,525.3,239.8,517.5,240.2z"/>
	<path class="st11" d="M409.4,234.2c-0.7,3.9-1.5,7.7-2.2,11.6c-1.7,0-3.5,0-5.4,0c-0.1,1.7-0.2,2.9-0.3,4.2
		c-4.8,0.7-9.7,1.3-15.2,2.1c0-6.4,0-11.8,0-17.2C394,234.7,401.7,234.4,409.4,234.2z"/>
	<path class="st35" d="M409.4,234.2c-7.7,0.2-15.4,0.4-23.1,0.7c0-3.8,0-7.6,0-11.8C395.9,223.4,406.5,220.5,409.4,234.2z"/>
	<path class="st36" d="M517.5,240.2c7.8-0.3,15.6-0.7,23.4-1c-0.9,2.3-1.7,4.5-2.6,6.8c-1.6,0-3.2,0-5.4,0c0,1.5,0,2.7,0,4
		c-5,0.7-9.9,1.3-15.4,2.1C517.5,247.3,517.5,243.7,517.5,240.2z"/>
	<path class="st37" d="M613.1,332.7c0,4.1,0,8.1,0,14.5c-3.9-6-6.6-10.2-9.4-14.4C606.8,332.8,609.9,332.8,613.1,332.7z"/>
	<path class="st38" d="M480.9,332.7c0,3.6,0,7.2,0,12.9c-3.7-5.5-6.2-9.2-8.7-12.9C475.1,332.7,478,332.7,480.9,332.7z"/>
	<path class="st39" d="M401.5,250c0.1-1.2,0.2-2.5,0.3-4.2c2,0,3.7,0,5.4,0C405.3,247.2,403.4,248.6,401.5,250z"/>
	<path class="st40" d="M533,250c0-1.3,0-2.5,0-4c2.1,0,3.8,0,5.4,0C536.6,247.3,534.8,248.6,533,250z"/>
	<path class="st41" d="M261,234.9c-0.4,0.1-0.7,0.1-1.1,0.2c0-1.4,0-2.8,0-4.2c0.4,0,0.7,0,1.1,0C261,232.3,261,233.6,261,234.9z"/>
	<path class="st2" d="M750.9,235c7.3,4.8,10.1,11.9,10.9,20.2c-24-4.6-33.1,7.6-33.6,29.6c-17.1-8.6-18.2-23.3-12.8-38.5
		c5.2-14.5,17.1-18.3,31.6-13.4C748.3,233.6,749.6,234.3,750.9,235z"/>
	<path class="st42" d="M750.9,235c-1.3-0.7-2.6-1.4-3.9-2.1C748.3,233.6,749.6,234.3,750.9,235z"/>
</g>
</svg>
