<?xml version="1.0" encoding="utf-8"?>
<!-- Generator: Adobe Illustrator 25.0.0, SVG Export Plug-In . SVG Version: 6.00 Build 0)  -->
<svg version="1.1" id="Layer_1" xmlns="http://www.w3.org/2000/svg" xmlns:xlink="http://www.w3.org/1999/xlink" x="0px" y="0px"
	 viewBox="0 0 1234.3 208" style="enable-background:new 0 0 1234.3 208;" xml:space="preserve">
<style type="text/css">
	.st0{fill:#FFFFFF;}
	.st1{fill:#050505;}
	.st2{fill:#FE0505;}
</style>
<path class="st0" d="M535.3,199.1c-30.5,0-60.1,0-90.1,0c0-2.6,0-5,0-6.9c-0.8-1.3-1.7-1.2-2.5-1.2c-0.4-0.4-1-0.7-1-1.1
	c-0.1-11,0-22,0-33.1c1.1-0.4,2.1-0.8,3.1-1.1c0.1-1.3,0.3-2.6,0.5-4.6c4.4,1.2,8.2-1.1,12.6-1.8c1.8-2.5-1.3-6.5,3-9.4
	c-5.7,0-10.6,0-15.7,0c0-3,0-5.4,0-7.3c-0.8-1.3-1.7-1.2-3.3-1.2c-0.6-8.1,0-16.2-0.3-24.8c-11.6,0-23.1,0-34.5,0
	c-0.3-1.3-0.5-2.1-0.8-3.1c-4.6,0-9.2,0-14.1,0c-0.2,0.7-0.6,1.6-1,2.8c-10.1,0-20.3,0-30.7,0c-0.3-0.8-0.6-1.8-1.1-2.9
	c-3.5,0-7,0-10.4,0c-1.1,0.6-0.6,1.5-0.7,2.3c-0.4,0.3-0.9,0.8-1.3,0.8c-15.5,0-31,0-46.4,0c-0.5-1.3-0.8-2.2-1.1-3.1
	c-4.2,0-8.3,0-12.4,0c-0.2,1-0.4,1.7-0.7,2.8c-25.3,0-50.7,0-76,0c-0.2-0.9-0.4-1.7-0.7-2.7c-4,0-8.1,0-12.5,0
	c-0.2,0.7-0.6,1.6-1,2.8c-30.7,0-61.4,0-92.3,0c-1.1-0.6,0.2-3.5-2.5-3.1c-2.4-0.1-0.5,2.5-2.2,3.2c-11,0-22.3,0-33.3,0
	c-1.5-0.8-0.1-2.5-1.7-2.9c-3.3,0-6.8,0-10.4,0c-0.2,0.9-0.4,1.7-0.6,2.8c-14,0-28.1,0-42.9,0c-0.5-0.2,0-1.5-0.6-2.7
	c-2.2,0-4.7,0-7.5,0c0-28.3,0-56.3,0-84.5c2.4,0,4.8,0,7,0c2.2-2.5-1.2-6.8,5.8-8.5c8.6,0,20,0.2,31.3-0.1c2.7-0.1,4.3,2,6.9,2.2
	c0.1,1.8,0.2,3.7,0.3,5.9c3.5,0,7,0,11.1,0c1.7-1.8-1.3-5.9,3.2-7.7c10,0,20.7,0,32.1,0c0,2.5,0,5.1,0,7.8c1.3,0.1,2.1,0.1,2.8,0.2
	c1.3-1.9,0.4-3.8,0.7-5.7c0.4-0.3,0.8-0.8,1.3-0.9c14.9-3.1,30.1-1.3,45.1-1.6c15.5-0.3,31-0.1,46.8-0.1c0,2.8,0,5.2,0,7.3
	c1.4,1.6,2.9,0.7,4.4,1.1c1.6-2.4,0.2-5.3,1-8.1c15.2,0,30.4,0,45.7,0c3.7,1.3,1.8,5,2.7,7.8c3.1,0,6.1,0,9.4,0c0-2.4,0-4.8,0-7
	c0.7-0.5,1.2-1.1,1.6-1.1c11.1,0,22.1,0,33.5,0c0,2.7,0,5.1,0,7.2c1.7,1.6,3.3,1.1,5.1,0.6c0-2.3,0-4.7,0-7.8c2.7,0,5.1,0,7.5,0
	c22.5,0,45,0,67.5,0c3.5,0,6.9,0,10.2,2.5c0,1.6,0,3.5,0,5.6c2.2,0,4,0,5.9,0c0.4,1.2,0.8,2.2,1.2,3.3c4.6,0,9.2,0,14.2,0
	c0-3.5,0-7,0-10.4c7-1.3,50.2-1.7,72.9-0.7c3.5,1.7,2,4.8,2.6,7.7c2.9,0,5.8,0,9.3,0c1.7-1.3-0.3-3.8,0.8-5.7
	c6.3-3,13.1-2.2,19.9-2.2c9.7,0,19.4,0,29.2,0c1.6,2.5-0.2,5.4,1.1,7.9c0.7,0.2,1.5,0.4,2.6,0.7c0,8.9,0,17.9,0,26.6
	c2.2,2.4,4.4,0.5,6.7,1.6c0-9.1,0-17.6,0-25.8c1.3-1.3,2.3-2.2,3.5-3.5c0-1.6,0-3.4,0-5.5c3.5,0,6-2.2,9.4-2.1
	c8.9,0.2,17.7,0.1,26.7,0.1c1.6,2.5-0.2,5.4,1.2,8c1.2,0.1,2.5,0.3,4,0.5c0.3,0.9,0.7,1.9,1.1,3c2.4,0,4.8,0,7.5,0c0-3.1,0-6,0-8.7
	c1.1-1.1,1.9-1.9,2.7-2.7c20.7,0,41.5,0.1,62.3-0.1c2.8,0,5.1,1.3,8.2,2.2c0.4,2.8,0.2,6.3,2.5,9.3c2.8,0,5.8,0,8.9,0
	c0.3-0.9,0.7-1.9,1.1-2.8c0.8-0.2,1.5-0.4,2.5-0.7c0-2.3,0-4.7,0-7.5c29,0,57.7,0,86.7,0c0,2.4,0,4.8,0,7.5c4,0,7.7,0,11.8,0
	c0-2.5,0-4.9,0-7.6c28.3,0,56.2,0,84.5,0c1.5,2.1-0.2,5,1,7.7c4,0,8.1,0,12.3,0c1.4-2.3,0.1-5.1,0.9-8.2c15.9,1,31.8-1.5,47.3,1.7
	c1.3,2.2,0.5,4.1,0.9,5.7c1.4,5,7,0.7,9.1,4.5c1.7-3.1,0-6.5,1.1-9.6c0.6-0.6,1.2-1.2,2.2-2.2c11.2,0,22.8,0,34.4,0
	c10.6,0,21.1,0,31.7,0c3.2,0,6.5-0.2,9.1,2.4c1.2,1.3,0.4,3.2,0.7,5.5c3.6,0,7.4,0,11.4,0c0.1-1.8,0.2-3.7,0.3-5.5
	c0.8-0.8,1.6-1.6,2.4-2.3c26.7,0,53.3,0,80.1,0c1.7,2.4,0,5.3,1.2,8.1c2.8,0,5.8,0,8.3,0c1.3,0.8,1.3,1.6,1.2,3
	c3.6,1.2,7.3,0.2,11.6,0.7c0-4,0-7.7,0-11.6c27.4,0,54.3,0,81.4,0c0,2.5,0,4.9,0,7.2c2.7,1.8,5.6,0.2,8.4,1.4c0,7.8,0,15.7,0,23.3
	c-1.5,4.1-5.3,2-8.6,3.4c3,1.8,5.7,0.6,8.5,1.2c0,15.5,0,31.1,0,47.5c-1,3.2-4.7,1.4-7.4,2.1c-1.1,1.8-0.3,3.8-0.6,5.6
	c-2.3,0.4-3.6,1.7-4,4.1c-28.3,0-56.6,0-85.1,0c-1.5-0.4-0.2-2.6-1.7-3.2c-0.5,0-1.1,0-1.6,0c-1.2,0.6-0.7,1.9-1.3,3
	c-9.5,0-19.2,0-29.1,0c-0.2-0.7-0.6-1.7-1-2.8c-1.2-0.1-2.5-0.3-3.9-0.4c-1.6-1.8,0.2-4.3-1.5-6.6c-1.4,2-0.6,4.1-0.9,6.1
	c-3,1.5-6.4-0.1-9.6,1c-0.1,0.7-0.3,1.4-0.5,2.6c-15.3,0-30.6,0-46,0c-0.2-0.8-0.4-1.6-0.7-2.6c-3.4,0-7,0-11.1,0
	c-0.6,0.3-0.1,1.6-0.7,2.7c-25.6,0-51.4,0-77.4,0c-0.2-0.7-0.6-1.7-1-2.8c-2.9,0-5.9,0-8.9,0c-0.8,0.5-0.5,1.4-0.6,2.1
	c-0.2,0.2-0.3,0.4-0.5,0.6s-0.5,0.3-0.7,0.3c-15.5,0-31,0-46.1,0c-1.4-0.8-0.9-1.7-1-2.5c-1.4-1.5-2.9-0.8-4.7-0.4
	c-0.1,0.7-0.3,1.4-0.5,2.6c-9.5,0-19.1,0-29.7,0c-0.3-0.1,0.1-1.4-0.3-2.3c-1.1-1.2-2.6-0.3-4-0.6c-2.2-1.7,0.5-4.8-1.7-6.6
	c-1.9,1.8,0.1,4.3-1.4,6.5c-2.8,0-5.7,0-8.2,0c-1.4,0.8-1.1,1.7-1.2,2.5c-0.2,0.2-0.3,0.4-0.5,0.6s-0.5,0.3-0.7,0.3
	c-14.4,0-28.8,0-43.5,0c0,3.2,0,6.1,0,8.5c-0.9,1.8-2.3,1.1-3.4,1.9c0,2.3,0,4.7,0,7.3c0.4,0.6,1.3,0.5,2.4,0.5
	c1.2,4.2,2.7,8.2,2.4,12.9c-0.3,6.1-0.1,12.1-0.1,18.2c0,5.5-0.2,11,0,16.6c0.2,5.1-3.4,9.6-1.3,14.8c-2.9,0.3-3.8,1.6-4.3,3.8
	c-2.4,0-4.8,0-7.5,0c0,2.7,0,5.1,0,7.9c-21.2,0-42.2,0-63.4,0c0-2.3,0-4.7,0-7.5c-4.6,0-8.8,0-13.4,0c0,2.5,0,4.9,0,7.6
	c-7.7,0-15.1,0-22.9,0c-1.5-2,0.2-4.9-0.8-7.4c-2.3-0.3-3.2-2-4.1-3.9c-3.4,1.2-6.7,2.5-10.5,3.8c-0.1,1.7-0.2,3.6-0.2,5.4
	c-0.8,0.8-1.6,1.6-2.4,2.4c-11.6,0-23.3,0-35.1,0c-1.7-2.3-0.1-5.2-1.2-8c-2.8,0-5.8,0-9.4,0c0,2.4,0,5,0,7.8c-25.2,0-49.9,0-75.1,0
	c0-2.5,0-5.1,0-7.9c-3,0-5.4,0-8.1,0C535.3,193.6,535.3,196,535.3,199.1z"/>
<path class="st1" d="M1222,42.9c0,3.5,0,6,0,8.4c1.3,0.5,2.3,0.8,3.4,1.2c0,11.7,0,23.4,0,35.2c-0.4,1.2-1.8,0.8-2.8,1.1
	c-1.4,1.2-0.3,2.7-0.7,4.3c-2.4,1.8-5.5,0-8.5,1.2c0,2.4,0,4.9,0,7.9c-23,0-45.8,0-68.9,0c0-2.5,0-5,0-7.6c-2.9-1.4-5.9-0.3-8.8-0.9
	c0-5.7,0-11.2,0-17c2.5,0,5.1,0,7.6,0c1.9-2.8,0.4-5.9,1.4-9.1c16.8,0,33.7,0,50.6,0c-8.2-2-16.5-1.6-24.7-1.7c-8.5-0.1-17,0-26.1,0
	c0-2.9,0-5.6,0-8.7c-3.2,0-5.7,0-8.6,0c0-10.4,0-20.5,0-31.1c2.4-0.9,5.2-0.3,7.8-0.3c1.4,1.5,0.3,3,0.9,4.4
	c1.4,1.6,3.2,0.1,4.8,1.1c0.2-2.1,0.4-3.5,0.6-5.5c2.7,0,5.5,0,8.4,0c0-2,0-3.4,0-5c-2.7,0-5.2,0-7.5,0c-1.8-1.8-1.2-3.4-0.7-5.3
	c23.7,0,47.4,0,71.2,0c4.5,3.9,4.5,9.2,4,14.9c-0.9,0.3-1.9,0.7-3.2,1.1c0,2.4,0,5,0,8.1c-12.5,0-24.6,0-37,0c0,1.4,0,2.2,0,3.3
	C1197.1,42.9,1209.1,42.9,1222,42.9z"/>
<path class="st1" d="M541.3,57c1.4,0,2.2,0,2.9,0c1.3-1.4,0.3-3,0.9-4.7c2.6,0,5.3,0,8.1,0c1.3,1.4-0.5,3.6,1.3,4.8
	c0.5-2.3,2.1-3.5,4.5-4.2c0-11.8,0-23.6,0-35.2c10.5-4.8,20.8-1.8,31.4-0.4c0,25.1,0,50.3,0,75.9c-2.2,1.6-5.3-0.2-8.3,1
	c0,2.4,0,4.9,0,7.9c-6,0-11.7,0-17.7,0c0-2.6,0-5.1,0-8c-2.9-0.5-5.8-0.3-8.4-2c-1.5-4-3.1-8-4.7-12.2c-2,0-4,0-6.3,0
	c0,2.7,0,5.2,0,7.8c-1.3,0.4-2.3,0.8-3.6,1.2c-0.1,1.3-0.2,2.6-0.4,4.6c-2.7,0-5.5,0-8.6,0c0,3.1,0,5.7,0,8.5c-9.3,0-18.3,0-27.8,0
	c-1.3-2.2,0-5.2-0.8-8.2c-2.6,0-5.1,0-8.1,0c0-25.7,0-51.2,0-76.7c0.6-0.6,1.2-1.2,2.3-2.3c13.9,0.6,28.3-1.4,43.1,2.6
	C541.3,30.5,541.3,43.7,541.3,57z M504.6,20.6c0,3.9,0,7,0,9.9c1.4,0.7,2.4,0.6,3.2-0.5c0.3-1.3-0.6-2.9,0.6-4
	c2.1-1.1,4.6,0.8,6.5-1.2c-0.3-1.4,0.6-2.9-0.7-4.2C511.1,20.6,508,20.6,504.6,20.6z"/>
<path class="st1" d="M1131.7,52c-2.9,0-5.4,0-8.3,0c-0.1,1.7-0.2,3-0.3,4.6c-2.6,1.6-5.7-0.2-8.5,1.2c0,2.4,0,5,0,7.6
	c2.6,1.6,5.7-0.5,8.3,1.1c0.2,0.8,0.4,1.6,0.7,2.7c2.5,0,5,0,8,0c0,8.3,0,16.3,0,24.6c-2.6,0-5.1,0-8.3,0c0,3,0,5.8,0,8.7
	c-4.9,0-9.3,0-13.9,0c0-2.6,0-5.1,0-7.4c-2.2-2.2-4.8-0.3-7.2-1.7c-0.1-1.1-0.2-2.5-0.2-3.9c-1.2-1.7-3.4,0.1-5.1-1.5
	c0-2.2,0-4.8,0-6.8c-2.7-4.4-6.6-2.6-10.5-3c0,5.1,0,10.3,0,15.6c-3.2,0-5.7,0-8.2,0c-1.8,2.9,0.2,6-1.4,8.7c-10.1,0-20.3,0-30.8,0
	c0-2.6,0-5.1,0-7.4c-2.2-2.2-4.8-0.3-7.4-1.8c0-6.3,0-13,0-19.6c0-15.4,0.1-30.9,0-46.3c0-3.4,0.3-6.7,2.5-9.9
	c6.3-3.1,13.5-2.1,20.6-2.2c10.3-0.1,20.6,0,30.9,0c5.3,0,10.6,0.5,15.9-0.1c5.1-0.6,9.1,4.2,14.8,0.8c0,3.9,0,6.7,0,9.8
	c3.2,0,5.7,0,8.6,0C1131.7,34.3,1131.7,42.7,1131.7,52z M1101.9,31.3c-5.7,0-10.6,0-15.8,0c0.4,4.2-0.4,8.1,0.4,11.6
	c5.5,0,10.4,0,15.4,0C1101.9,38.9,1101.9,35.2,1101.9,31.3z M1058.4,31c-1.8-4,2.8-6.4,0.9-10.2c-3.2,0-6.5,0-9.7,0
	c0,3.6,0,6.9,0,10.2C1052.4,31,1054.7,31,1058.4,31z"/>
<path class="st1" d="M778.9,17.6c2.3,13.2,4.1,26.3,0,39.4c-1.6,0.2-3,0.3-4.6,0.5c0,2.6,0,5.1,0,7.9c1,1.2,2.6,0.2,3.1,0.4
	c2.7,0.7,1.3,3,2.8,3.7c1.7,0,3.5,0,5.2,0c0.2,0.2,0.6,0.4,0.6,0.6c0,7.8,0,15.6,0,23.4c-1.9,1.1-3.9,0.3-6,0.6
	c-1.7,2.5,0.1,5.6-1.2,8.4c-4.2,0-8.5,0-13.1,0c-1.5-2.4,0.4-5.5-1.2-8.4c-2.4,0-5,0-7.2,0c-1.6-1.5-0.7-3.1-1-4.3
	c-0.7-1.3-2.1-0.8-3.3-1.4c0-2.4,0-4.9,0-7.3c-3.1-2.5-7.4,0.9-10.3-3.2c-1.3,5.5,0,10.6-0.8,15.7c-1.2,1.3-2.8,0-4.6,1
	c-1.4,2,0.3,5.1-0.9,8c-11.3,0-22.6,0-34.2,0c-1.6-2.4,0.3-5.4-1.1-8.4c-2.4,0-5,0-7.9,0c0-24.6,0-48.9,0-73.4c2.7,0,5.3,0,8.1,0
	c0,3.1,0,6.3,0,9c1.7,2,3.4,1.2,5.1,0.9c1.2-1.2,0.1-2.8,0.7-4.3c2.5-1.6,5.6,0.2,8.4-1.2c0-2.4,0-5,0-8.1c-4.5,0-9,0-13.6,0
	c3.9-2.3,8-1.7,12-1.8c4.4-0.1,8.8,0,13.2,0s8.8,0,13.2,0c4.1,0,8.2,0,12.3,0c4.4,0,8.8,0.3,13.2-0.1
	C770.5,14.7,774.4,16.4,778.9,17.6z M756.3,31.3c-6.2,0-11.7,0-17,0c0,4.2,0,8.1,0,11.7c5.9,0,11.4,0,17,0
	C756.3,39,756.3,35.3,756.3,31.3z"/>
<path class="st1" d="M884.9,93.9c-2.9,0-5.4,0-8.3,0c0,2.8,0,5.4,0,8.3c-4.2,0-8.2,0-12.4,0c0-2.6,0-5.1,0-8.2c-3.1,0-5.8,0-8.6,0
	c-0.2-2-0.4-3.4-0.5-4.7c-1.3-1.3-2.8-0.3-4.3-0.7c-1.8-2.5,0-5.5-1.3-8.8c-3.1,0.4-6.3-0.1-10-2.7c0,6.2,0,11.3,0,16.6
	c-3.2,0-5.7,0-8.6,0c0,2.8,0,5.4,0,7.6c-0.5,0.5-0.7,0.9-0.9,0.9c-9.6,0-19.2,0-29.1,0c0-2.6,0-5.1,0-7.4c-2.2-2.2-4.8-0.4-7.1-1.4
	c0-24.2,0-48.3,0-72.6c2-0.9,4.2-0.7,6.7-0.2c0,3.2,0,6.3,0,9.2c1.6,1.3,2.4,3.2,4.6,2.7c1.9-1.9-0.1-4.5,1.4-6.8
	c1.8-0.1,3.7-0.2,6.1-0.3c0-2.7,0-5.4,0-8.2c-3.3-1.2-7,0.6-11.7-1.9c6.3-0.4,11.2-0.2,16-0.2c4.7,0,9.4,0,14.1,0c5,0,10,0,15,0
	c4.7,0,9.4,0.2,14.1-0.1c4.9-0.3,9.1,3.3,14,1.6c0.7,3.2,3.2,5.2,2.4,8.8c2.9,0,5.7,0,8.6,0c0,9,0,17.3,0,25.7
	c-2.7,1.7-5.8-0.4-8.4,1.3c-0.2,1.3-0.3,2.7-0.5,4.4c-2.6,0-5.2,0-8.1,0c0,3,0,5.8,0,8.8c2.6,0,5.1,0,7.2,0c1.5,0.9,1.2,1.8,1.3,2.8
	c2.5,1.8,5.5,0.1,8.5,1.2C884.9,77.5,884.9,85.2,884.9,93.9z M837.9,31.1c0,4.4,0,8.1,0,12.1c3.2,0,6.1,0.1,8.9,0
	c2.8-0.1,5.7,0.5,8.1-0.4c0-4.2,0-7.9,0-11.7C849.1,31.1,843.7,31.1,837.9,31.1z"/>
<path class="st1" d="M12.1,20.8c0,3.1,0,6.3,0,9.8c4.2,0,8.2,0,12.1,0c0.3-4.3,4.1-8.2,1.3-13.5c-2.6,0-6,0-9.4,0
	c4.5-2.4,9.3-1.6,13.9-1.8c5-0.1,10,0,14.8,0.2c3.4,0.6,4.8,3.7,7.7,7c0,5.4,0,12.6,0,19.7c2.8,2,5.9,0.3,8.6,1.3
	c1.6,2.6-0.5,5.7,1.1,8.3c2.4-1.1,1.1-3.1,1.1-4.5c0.2-6.7,0.2-13.4,0-20.1c-0.1-3.4,0.4-6.6,2.4-9.8c5.2-0.5,10.5-2.3,16.3-2.5
	c5.6-0.1,10.4,3.5,16.3,1.6c0,26,0,51.4,0,77.2c-2.6,0-5.2,0-8.4,0c0,3,0,5.8,0,8.7c-6.1,0-11.6,0-17.4,0c0-2.6,0-5.1,0-7.6
	c-2.9-2-5.9-0.2-8.9-1.5c0-4.7,0-9.6,0-14.2c-1.8-1.4-2.6-3.8-5.5-2.5c0-2.8,0-4.7,0-6.4c-1.5-1.6-3.1-0.4-5.1-1.4
	c0,8.5,0,16.5,0,23.9c-1.9,1.7-3.4,0.6-4.9,1.2c-1.6,2.4,0.3,5.5-1.2,8.3c-11.3,0-22.6,0-34.7,0c0.9-5.9-2.4-11.2-1.9-17.3
	c0.5-6.1,0.1-12.2,0.1-18.3c0-15.3,0-30.7,0-46C11.1,20.8,11.6,20.8,12.1,20.8z"/>
<path class="st1" d="M111.4,93.9c-3.5,0-6.1,0-8.9,0c0-24.4,0-48.5,0-73c2.6,0,5.3,0,8.4,0c0,3.2,0,6.3,0,9.7c3.4,0,6.6,0,10.3,0
	c1.4-0.8-0.3-2.9,0.7-4.3c1-0.4,2-0.8,3-1.2c0-2.6,0-5.1,0-8.3c-4.1,0-8.1,0-12.4,0c1.5-2.7,3.5-1.5,5-1.6
	c21.7-0.1,43.5,0.1,65.2-0.2c3.9-0.1,6.9,2.4,10.6,2.2c2.5,3.7,3.6,7.5-0.4,11.6c-7.2,3.2-15.7,1.9-23.9,2c-6.2,0.1-12.3,0-18.8,0
	c0,4,0,7.9,0,12.1c12.6,0,25.2,0,38.1,0c0,2.8,0,5.3,0,7.5c2.2,2.6,4.8,0.6,6.8,1.6c1.2,1.3,0.4,2.8,0.6,4.2
	c-1.9,1.9-4.5,0.1-6.9,1.2c0,2.6,0,5.1,0,8.3c-13.1,0-25.8,0-38.8,0c0,3.7,0,6.8,0,10.3c12.6,0,25.1,0,37,0c2,0.9,1.4,2.4,2.2,3.6
	c1.8,0,3.7,0,6.1,0c0,4.8,0,9.3,0,14c-2,0.1-4,0.2-6.1,0.3c-1.6,2.6,0.4,5.7-1.2,8.4c-25.4,0-50.8,0-76.6,0
	C111.4,99.9,111.4,97.3,111.4,93.9z"/>
<path class="st1" d="M285.6,93.7c-2.1,0.2-3.4,0.3-5.1,0.5c0,2.7,0,5.3,0,8.2c-22.3,0-44.2,0-66.5,0c-1.5-2.2,0-5.2-0.8-8.1
	c-0.8-0.2-1.6-0.3-2.6-0.5c-1.6-1.1,0.2-3.2-1.3-4.9c-2.3,0-4.9,0-7.8,0c0-24,0-47.7,0-71.4c15.7-2.6,31.3-3.7,47.1-0.2
	c0,19.7,0,39.1,0,58.9c3.4,0,6.6,0,10.1,0c-0.2,0.1,0.1,0,0.3-0.2c0.2-0.2,0.3-0.5,0.3-0.7c0-19.2,0-38.4,0-57.5
	c8.7-1.6,17.1-3.4,25.8-2.1c3.2,6.2,2.4,13.1,2.4,19.8c0.1,11.7,0,23.3,0,35c0,4.1-0.4,8.2,0.1,12.2
	C288.1,86.4,285.3,89.4,285.6,93.7z M213.4,26.5c2.6-2.2,6.2,0.6,8.8-1.7c-0.3-1.4,0.6-2.9-0.4-3.9c-4.1,0-8,0-11.6,0
	c0,3.6,0,6.7,0,9.6c1.4,0.7,2.4,0.6,3.2-0.5C213.4,28.9,213.4,27.8,213.4,26.5z"/>
<path class="st1" d="M396.9,89c0-21.5,0-42.1,0-63c2.7,0,5.3,0,8.1,0c1.5,1.1-0.3,3.2,1,4.6c1.3,0.7,2.7,0.3,4.1,0.2
	c1.4-1.2,0.2-2.8,1.2-4.8c1.3-1.4,3.9,0.6,5.9-0.6c1.1-1.2,0.3-2.7,0.5-4.1c-1.9-1.9-4.5,0-6.4-1c-1-1.5-0.5-2.9-0.4-4.3
	c0.5-0.2,1-0.7,1.5-0.7c19.7,0,39.4,0,59.1-0.1c3.4,0,6.9-0.2,9.9,3.9c0,1.1,0,3.6,0,5.6c1,1.7,2.8,0.3,3.4,2.4
	c0,19.8,0,40.1,0,60.6c-0.4,1.2-1.8,0.8-2.8,1.1c-1.4,1.2-0.2,2.8-0.7,4.1c-0.5,1.3-1.9,0.7-3.2,1.5c0,2.3,0,4.9,0,7.8
	c-22.5,0-44.6,0-67.1,0c0-2.5,0-5.1,0-7.3c-1.5-1.7-3.1-0.7-4.5-1.1c-2-1.1-0.3-3.2-1.4-4.9C402.8,89,400.2,89,396.9,89z M459.9,78
	c0-16.1,0-31.5,0-47.1c-6,0.4-11.7-0.3-17,0.4c0,16,0,31.3,0,46.8C448.7,78,454.2,78,459.9,78z"/>
<path class="st1" d="M689.2,93.9c-2.9,0-5.4,0-8.3,0c0,2.8,0,5.4,0,8.3c-4.8,0-9.3,0-14.2,0c0-2.5,0-5.1,0-7.1
	c-0.9-1.4-1.8-1.2-2.6-1.2c-0.3-0.4-1-0.8-1-1.2c-0.1-11.6,0-23.2,0-35.1c-6.3,0-12.4,0-19.1,0c-0.8,11.7,0.1,23.8-0.4,35.7
	c-1.4,1.5-3,0.2-4.7,1.2c-1.4,2.1,0.3,5.1-0.9,8c-10.7,0-21.4,0-32.5,0c-1.6-2.4,0.3-5.4-1.1-8.3c-2.4,0-5,0-7.9,0
	c0-22.8,0-45.4,0-68.1c3.2,0,6.4,0,9.6,0c1.3,1.2,0.3,2.7,0.8,4.6c2.5,1,5.3,0.3,8.1,0.4c0.5-4.5,5.2-8.8,0-13.3
	c-1.7-1.4-4.1-0.1-6.5-0.8c0.5-0.8,0.8-1.5,1-1.5c17.6-0.1,35.2,0,52.8-0.1c4.3,0,7.9,4.1,12.1,1.2c2,3.3,0.2,6.3,1.6,9.1
	c1.3,0.2,2.7,0.3,4.1,0.5c1.4,1.2,0.2,2.8,1.1,4.6c2.1,1.5,5.1-0.2,8.1,0.9C689.2,51.9,689.2,72.4,689.2,93.9z M643.8,42.9
	c6.8,0,12.9,0,18.8,0c0-4.2,0-8.1,0-11.7c-6.5,0-12.6,0-18.8,0C643.8,35.2,643.8,38.9,643.8,42.9z"/>
<path class="st1" d="M343.8,78.7c0,5,0,9.7,0,14.4c-1.9,2-4.5,0.1-6.8,1.3c0,2.5,0,5,0,7.9c-10.1,0-19.9,0-30.1,0c0-2.6,0-5.1,0-7.4
	c-2.2-2-4.9,0-7-1.6c0-23.9,0-48,0-72.1c1.8-1.4,3.9-0.4,6.5-0.7c0,3.9,0,7.9,0,11.1c1.9,1.9,3.4,0.7,4.9,1.4
	c0.4-1.2,0.8-2.2,1.2-3.6c1.3-0.1,2.6-0.2,4-0.3c1.6-0.9-0.3-5.1,4-3c0-3.1,0-5.6,0-8.7c-0.2-0.3-1-0.4-1.9-0.5
	c-4-0.2-8,0.4-12.3-0.5c2.3-2.1,4.4-1.2,6.3-1.2c20-0.1,39.9,0.1,59.9-0.2c4.2-0.1,7.5,2.2,11.4,2.3c2.3,13.1,4,26.2,0,39.6
	c-1.4,0.1-2.8,0.2-4.4,0.3c-1.4,2.4,0.1,5.1-0.7,7.3c1.6,2.8,6-0.7,7.2,3.3c0,5.7-0.5,11.6,0.1,17.2c0.7,5.9-3.2,10.9-1.7,17.1
	c-4.9,0-9.4,0-14.3,0c0-2.7,0-5.2,0-7.2c-0.9-1.5-1.9-1.1-2.7-1.2c-1.9-1.2-0.2-3.3-1.5-5c-2.3,0-4.9,0-7.4,0
	c-1.6-2.9-0.3-5.9-1.2-9.3C352.7,82.3,348.7,76.6,343.8,78.7z M344,42.9c8,0,15.2,0,22.3,0c0-4.2,0-8.1,0-11.7c-7.7,0-14.9,0-22.3,0
	C344,35.2,344,38.9,344,42.9z"/>
<path class="st1" d="M1024.5,17.2c0,3.2,0,5.5,0,7.9c2.6,1.6,5.7-0.2,8.6,1.2c0,20.5,0,41.1,0,62c-2.5,0-5.1,0-7.1,0
	c-2.5,1.5-0.8,3.6-1.9,5.1c-0.6,1.2-2.4-0.3-3.3,2.5c0,1.2,0,3.7,0,6.5c-20.5,0-40.7,0-61.5,0c0-2.6,0-5.4,0-8.5c-3.2,0-5.7,0-8,0
	c-1.5-1.5-0.6-3.1-0.9-4.3c-0.7-1.3-2.1-0.6-3.3-1.5c0-20.4,0-41,0-61.8c0.4-0.6,1.3-0.5,2.2-0.5c2.1,1,0.5,3.2,1.5,4.9
	c2.3,0,4.9,0,7.6,0c2.1-4.4,3.2-9.3-0.1-15.2c11.9-0.5,22.9-0.5,33.9-0.1C1002.8,15.6,1013.6,13.5,1024.5,17.2z M1003,76.3
	c0-15.5,0-30.3,0-45.3c-5.4,0.1-10.5-0.2-15.3,0.2c0,15.5,0,30.3,0,45.1C992.9,76.3,997.8,76.3,1003,76.3z"/>
<path class="st2" d="M444.7,169c2.9,0,5.4,0,8.1,0c0.2-1.1,0.4-1.9,0.6-2.8c1.1-1.6,3.3,0.2,5-1.4c0-2.2,0-4.8,0-7.7
	c2.8,0,5.4,0,7.4,0c2.5-1.5,0.8-3.6,1.8-5c1-0.4,2-0.8,3.3-1.2c0-2.5,0-5.1,0-7.9c2.9,0,5.4,0,7.4,0c1.5-0.9,1.2-1.8,1.3-2.6
	c1.1-2,3.2-0.4,5-1.5c0-2.3,0-4.9,0-8c-9.5,0-19.3,0-29.2,0c3.5-2.9,4.9-6.2,5.1-10.5c2,0,3.9,0,5.9,0c1.3-2.4,1-4.6,0.5-7.1
	c-3.8,0-7.5,0-11.4,0c-0.9-2.4-0.8-4.6-0.3-7c24.5,0,48.8,0,73.4,0c0,2.6,0,5.1,0,7.2c1.5,2.3,3.7,0.6,5.3,1.9c0,4.7,0,9.5,0,14.7
	c-0.9,1.6-2.9,2.2-5,2.9c0,1.9,0,3.8,0,6.1c-2.3,0-4.3,0-6.3,0c-0.4,1.3-0.8,2.3-1.2,3.5c-1.3,0.1-2.7,0.3-4.7,0.4
	c0,2.7,0,5.5,0,8.5c-3.2,0-5.7,0-8,0c-1.5,1.5-0.6,3.1-0.9,4.3c-0.7,1.3-2.1,0.6-3.3,1.5c0,2.4,0,4.9,0,7.8c7.7,0,15.5,0,22.3,0
	c2.4,0.9,2.1,2.2,2.3,3.1c1.3,1.4,2.9,0.4,4.2,0.8c0.2,0.2,0.6,0.4,0.6,0.6c0,6,0,12.1,0,18.1c-1.2,1.2-2.8,0.1-4.2,0.6
	c-1.7,1.2,0.1,3.3-1.4,4.9c-24.7,0-49.6,0-74.6,0c-1.6-1.2,0.3-3.3-1.4-5c-2.2,0-4.8,0-7.7,0C444.7,182,444.7,176,444.7,169z"/>
<path class="st2" d="M543.4,125.3c2.9,0,5.4,0,7.7,0c1.4-1.5,0.4-3.1,1-4.8c20.8,0,41.8,0,63.4,0c-1.6,3.5,3.5,6.3,1.1,9.4
	c-2.3,3-0.4,6.2-1.8,9.3c-11.2,0-22.6,0-33.5,0c-1.4,0.9-1.3,1.7-1.3,2.5c0.4,0.4,0.8,1.1,1.1,1.1c11.1,0.1,22.3,0,33.8,0
	c0,2.7,0,5.2,0,6.8c0.9,2.2,2.3,1.7,3.3,2.2c1.3,1.2,0,2.8,0.6,3.9c-0.8,1.4-2.2,0.8-3.4,1.6c0,2.3,0,4.9,0,8c-11.9,0-23.5,0-35.2,0
	c-0.1,1.4-0.2,2.2-0.3,3.6c11.8,0,23.3,0,35.2,0c0,3.1,0,5.7,0,7.4c0.9,2.2,2.8,0.5,3.4,2.5c0,2.6,0,5.7,0,9c-1,0.2-1.8,0.4-2.7,0.6
	c-1.5,1.2,0,3.3-1,4.8c-20.9,0-41.6,0-62.4,0c-1.4-1.1-0.2-2.7-1.1-4.6c-2.1-1.4-5.1,0.1-8.1-0.7
	C543.4,167.4,543.4,146.8,543.4,125.3z M552.2,129.1c0,3.8,0,6.9,0,10.1c1.1,0,1.9,0,2.6,0c1.7-2.7-0.4-5.7,1.2-8.3
	c0.9-0.5,2.3,0.1,2.9-1.2C556.9,128.3,554.7,128.9,552.2,129.1z"/>
<path class="st2" d="M705.1,169.2c0,6.5,0,12.5,0,18.9c-1.5,0.1-2.9,0.1-4.3,0.2c-1.7,1.2-0.1,3.3-1.2,4.9c-2.6,0-5.1,0-7.7,0
	c-1.3-1.1-0.3-2.7-0.7-4.4c-2.4-1.5-5.4-0.1-8.8-1c1.1-4.8-3.3-7.6-3.8-11.6c-1.3-0.4-2.3,0.3-3.2-1.7c0-1.1,0-3,0-5.3
	c-2.8,0-5.4,0-8.6,0c0,6,0,12.2,0,18.5c-1.4,0.3-2.2,0.5-3.1,0.7c-1.5,1.2,0,3.3-1.1,4.9c-9.7,0-19.3,0-28.9,0
	c-1.4-1.2-0.2-2.8-0.8-4.1c-1.1-1.9-3.2-0.3-4.9-1.5c0-19.2,0-38.6,0-58.4c1.1-1.3,2.8-0.5,4.8-0.2c0,3,0,6.2,0,9.7
	c3.1,0,5.8,0,8.9,0c0-2.6,0-5.1,0-7.1c0.9-1.5,1.8-1.2,2.7-1.2c2.1-1.3,0.2-3.1,1.6-5c-4.6,0-8.3,0-11.7,0c-1.9-1.7-1.2-3.4-0.8-5.3
	c18.9,0,37.9,0,57.2,0c1.5,1-0.3,3.2,1.2,4.8c2.3,0,4.9,0,7,0c2.2,1.5,0.2,3.7,1.8,5.1c1.3,0.1,2.7,0.3,4.4,0.5c0,6.6,0,13.2,0,20.3
	c-0.9,1.4-3-0.3-4.5,0.8c-1.1,1.2-0.1,2.7-0.6,4.2c-2.5,1.6-5.6-0.2-8.4,1.2c0,2.4,0,5,0,7.9c2.5,0,5,0,6.7,0
	c2.2,0.9,1.8,2.3,2.1,3.2C701.5,169.7,703.1,168.8,705.1,169.2z M666.4,139.5c0.2,1.5-0.3,2.5,0.5,2.9c5.4,0,10.5,0,15.6,0
	c-0.2-1.2,0.3-2.2-0.9-2.9C676.9,139.5,672,139.5,666.4,139.5z"/>
<path class="st2" d="M726.8,120.3c16.4,0,32.5,0,48.4,0c1.3,1.4,0.2,3,0.8,4.4c1.2,1.6,3.3,0,4.8,1.1c0.2,1.4,0.3,2.8,0.5,4.3
	c2.6,1.6,5.7-0.5,8.4,1.2c0,17,0,34.1,0,51.5c-2.7,0-5.3,0-7.4,0c-2.1,1.5-0.6,3.6-1.7,5.3c-1.3,0.1-2.7,0.2-4.2,0.4
	c-1.6,1.3,0,3.4-1.1,4.9c-16.1,0-32.2,0-48.2,0c-1.3-1.3-0.4-2.8-0.7-4.3c-2.5-1.6-5.6-0.2-8.1-0.9c-1.4-1.5-0.3-3-0.9-4.4
	c-1.2-1.6-3.3,0-4.9-1.1c0-17.1,0-34.2,0-51.4c1.2-1.3,2.8-0.3,4.3-0.7c1.7,2.6,0.2,5.6,1,8.5c2.6,0,5.2,0,8,0c1.6-2.3-0.3-5.4,1-8
	c1-0.4,2-0.7,3.1-1.1c-0.5-1.5-1.9-0.9-3.2-1.6C726.8,126.1,726.8,123.6,726.8,120.3z M766.9,139.7c-5.1,0-9.4,0-14,0
	c0,5.2,0,10.1,0,15c0,4.8-0.1,9.7,0.1,14.1c5.1,0,9.4,0,13.9,0C766.9,159,766.9,149.5,766.9,139.7z"/>
<path class="st1" d="M911.3,16.7c-4.8,0-9.3,0-13.8,0c12.3-1.2,24.6-2.6,36.8,0.9c0,25.2,0,50.4,0,75.7c-1.9,1.7-4.5-0.3-6.8,1.4
	c0,2.3,0,4.8,0,7.7c-9.9,0-19.5,0-29.4,0c-1.6-2.2,0.2-5.2-1-8.2c-1.8,0-3.8,0-6.2,0c0-24.6,0-48.8,0-73.4c1.9,0,3.9,0,6.5,0
	c0,3.1,0,6.5,0,10c5.2,0.9,9-3.8,14-0.6C911.3,25.3,911.3,21.6,911.3,16.7z"/>
<path class="st2" d="M444.6,115c2.9,0,5.4,0,8.2,0c0,3.2,0,6.3,0,9.9c-2.4,0-5.2,0-8.2,0C444.6,122,444.6,118.9,444.6,115z"/>
</svg>
