<?xml version="1.0" encoding="utf-8"?>
<!-- Generator: Adobe Illustrator 25.0.0, SVG Export Plug-In . SVG Version: 6.00 Build 0)  -->
<svg version="1.1" id="Layer_1" xmlns="http://www.w3.org/2000/svg" xmlns:xlink="http://www.w3.org/1999/xlink" x="0px" y="0px"
	 viewBox="0 0 1234.3 338" style="enable-background:new 0 0 1234.3 338;" xml:space="preserve">
<style type="text/css">
	.st0{fill:#C2E101;}
	.st1{fill:#171814;}
	.st2{fill:#363638;}
	.st3{fill:#383B3F;}
</style>
<path class="st0" d="M174.8,140.3c-0.1-28.6-0.2-57.1-0.3-85.7c0-12,0-24,0-36.6c9.3,0,17.2,0,25.5,0c18.9,23.2,37.9,46.5,58.8,72.3
	c0-25.9,0-48.7,0-72.9c9.5,0,17.8,0.1,26.1,0c2.9,0,3.8,1.8,4.5,4.1c0,39.6,0,79.2,0,119.4c-9.8,0-17.6,0-25.3,0
	c-17.4-21-34.8-42-52.1-63c-1.8-2.9-3.4-6.1-8.2-8.2c0,23.9,0,47.1,0,71c-4.7,0-8.2,0-11.8,0c-3.9,0.1-7.8,0.2-11.7,0.3
	C178.5,140.8,176.6,140.6,174.8,140.3z"/>
<path class="st0" d="M902.8,140.9c-2.3-20-0.4-40.1-1-60.1c-0.2-7.4-0.4-14.9-0.6-22.3c0-13.3,0-26.6,0-41.3
	c25.9,1.3,50.4-2.5,74.6,2.4c10.1,2,18.2,8.1,25.3,15.5c1,1.3,2,2.7,3,4l-0.2-0.2c0.7,1,1.4,2.1,2.1,3.1l-0.2,0.7
	c7.7,24.8,3.1,45.3-20.8,58.9c2.5,5.3,5.4,9.4,9.1,13c3.9,9.6,12.5,16.3,16.1,26.2c-9.3,0.1-18.6,0.2-27.8,0.3
	c-3.1-0.4-4.2-3.4-6.3-5.1l-0.2-0.3c-5.2-7.5-10.3-14.9-15.5-22.4c-1.5-2.4-2.2-5.5-6.7-6.4c-6.6,0.8-14.3-1.2-22.8,1.3
	c0,10.8,0,21.5,0,33c-8.7,0-16.5,0-24.2,0C905.4,141,904.1,141,902.8,140.9z M972.3,46.4c-12.3-11-26.7-4.4-40.9-6.2
	c0,13.7,0,26,0,38.3c0,3.2,0.3,6,4.7,5.1c9.9,0.3,19.9,1.3,29.6-1.8c7.4-2.3,12.2-7.4,13.2-15.1C979.8,59.2,980.5,51.2,972.3,46.4z"
	/>
<path class="st0" d="M24.9,125.9C6,106.2,1.3,83,8.5,57c13.8-31,38.3-43.7,71.1-41.5c29.1,2,48.5,17.7,59,44.9
	c9.8,43.8-15.5,71.1-43.2,79.4c-18.6,5.6-37,3.6-55-3.2v0.3c-0.7-0.6-1.5-1.2-2.2-1.7l-0.7-0.1c-1-0.7-2.1-1.3-3.1-2V133
	C31.2,130.6,28,128.2,24.9,125.9z M44.1,104.8c12.4,15.8,33.5,19,50.3,7.7c16.4-11,21.3-35.6,10.7-54.1c-0.8-1.4-1.7-2.8-2.5-4.2
	c-0.3-0.5-0.7-1.1-1-1.6c-14.7-16.2-36.8-18.2-52.8-4.9C32.6,61.2,30.5,87.1,44.1,104.8z"/>
<path class="st0" d="M474.5,126.7c-0.6-0.6-1.2-1.2-1.8-1.8c-3.9-4.9-7.7-9.8-11.6-14.7c-7-15.9-8.9-32.3-5-49.4
	C474.4,5.7,544.9,3.9,573,36.2c3,3.4,5.7,7,8.6,10.5c19.4,39.4,1.8,81.3-37.4,93C519.1,147.1,495.5,142.9,474.5,126.7z M491.9,103.5
	c0.6,0.9,1.3,1.7,1.9,2.6c13.6,15.3,35.4,17.3,51.3,4.8c15.6-12.3,19.1-36.9,7.6-54.5c-0.8-1.2-1.7-2.5-2.5-3.7l0,0
	c-14-16.2-36.2-18.4-52.5-5.2c-15.8,12.8-18.5,38.3-5.7,56.1C492,103.6,491.9,103.5,491.9,103.5z"/>
<path class="st0" d="M708.1,140.7c-0.2-13.7-0.5-27.3-0.7-41c0-0.7,0.1-1.5,0.1-2.2c0.5-2.3,1.3-4.7-0.3-7c-17.9,0-35.8,0-54.4,0
	c0,17,0,33.2,0,50.6c-8,0-15.4,0-22.8,0c-1.9-0.1-3.8-0.2-5.6-0.3c-0.3-20.2-0.7-40.5-1-60.7c0-20.4,0-40.8,0-61.9
	c10.1,0,19.3,0,29.2,0c0.3,1.4,0.7,3.2,1.1,5c0,14.1,0,28.2,0,42.9c2,0,3.8,0,5.6,0c15.8,0,31.5,0,48.3,0c0-16.2,0-31.7,0-47.9
	c10.1,0,19.4,0,29.2,0c0.4,1.5,0.8,3.3,1.2,5.1c0,38.9,0,77.8,0,117.9c-9.8,0-17.8,0-25.8,0C710.8,141,709.5,140.8,708.1,140.7z"/>
<path class="st0" d="M377.1,66.4c12.6,0,25.2,0,38,0c0.9,3.2,1.4,5.3,2,7.5C416.7,79,416.4,84,416,90c-18.8,0-37,0-55.7,0
	c0,9.6,0,18.2,0,26.7c2.4,1.5,4.7,1.1,6.9,0.6c16.7,0.2,33.4,0.3,50.2,0.6c3.7,0.1,8-1.3,10.1,3.5c0,1.7,0,3.3,0,5
	c-1.7,4.5,0.8,9.6-2.4,14.8c-29.4,0-59.1,0-88.8,0c-1.3,0-2.5,0-3.8,0c-3.2-2.9-1.6-6.8-1.7-10.1c-0.3-22.8-0.3-45.7-0.5-68.5
	c0-14.6,0-29.2,0-45.1c12.3,0,23.5,0,34.7,0c17.1,0,34.3,0,51.4,0c3.4,0,7.4-1,8.3,4.2c-0.4,6-0.9,12-1.4,19.1
	c-21.5,0-42.2,0-63.1,0c0,9.3,0,17.3,0,25c2.5,1.5,4.7,1.1,6.9,0.6C370.4,66.3,373.8,66.3,377.1,66.4z"/>
<path class="st0" d="M1194.7,141c-1.2-0.8-2.3-1.7-3.5-2.5c-2.4-3.4-4.8-6.8-7.2-10.2v-0.1c-4.2-7.3-8.7-14.3-14.4-20.6
	c-1.2-2.9-2.6-5.7-6.1-7.8c-9.3,13.6-18.6,27.1-28.3,41.2c-8.6,0-17.3,0-25.9,0c-1.4,0-2.7,0-4.1,0c-3.9-4.3,1.1-6.3,2.7-8.5
	c12.2-17.5,24.7-34.8,37.1-52.2c3.4-4.3-1-6.5-2.7-9.1c-12.1-17.5-24.5-34.9-37.6-53.4c11.8,0,22,0,33.1,0
	c8.6,12.2,17.6,24.9,27.3,38.7c9.3-13.4,18.1-26.2,27.3-39.3c10.4,1.3,21-2.4,31.3,2.1c-14.2,19.1-28.3,38.3-42.6,57.6
	c3.7,4.6,6.7,8.4,9.8,12.1c11.8,17.2,23.5,34.4,35.3,51.5C1215.7,140.8,1205.2,140.9,1194.7,141z"/>
<path class="st0" d="M805.4,140.9c-2.3-20-0.4-40.1-1-60.1c-0.2-7.4-0.4-14.9-0.6-22.3c0.8-3.3,0.9-6.7-0.1-10
	c0.5-2.5,1.3-5.1-0.7-7.7c-10.8,0-21.7,0-32.7,0c-6-3.8-6.5-6.2-4.1-22.8c35.2,0,70.6,0,106.6,0c0.3,1.5,0.6,3.3,1,5.1
	c-0.3,5.4-0.6,10.8-1,17.3c-13.1,0-25.5,0-39,0c0,34.1,0,67,0,100.7c-8.9,0-16.6,0-24.4,0C808.1,141,806.8,141,805.4,140.9z"/>
<path class="st0" d="M1044.9,140.8c-0.3-27.4-0.7-54.9-1-82.3c0-13.2,0-26.4,0-40.4c10.2,0,19.3,0,29.2,0c0.3,1.5,0.7,3.2,1.1,5
	c0,39.1,0,78.2,0,118c-9.8,0-17.5,0-25.3,0C1047.6,141,1046.3,140.9,1044.9,140.8z"/>
<path class="st1" d="M474.5,126.7c21,16.2,44.6,20.4,69.6,13c39.2-11.6,56.9-53.6,37.4-93c14.1,10.9,14.5,26.8,14.4,42.4
	c-0.1,12.2-4.9,23.4-10.7,34c-1.3,1.8-2.6,3.7-3.9,5.5c-1.9,0.8-3.3,2.2-3.9,4.2l0,0c-2.1,0.6-3.4,2-4.2,3.9
	c-17.2,10.8-35.6,16-56.2,14c-14.5-1.5-26.5-8-38.4-15.5C475.7,133.3,474.7,130.1,474.5,126.7z"/>
<path class="st1" d="M809.4,141.1c7.7,0,15.5,0,24.4,0c0-33.7,0-66.6,0-100.7c13.5,0,25.9,0,39,0c0.4-6.5,0.7-11.9,1-17.3
	c9.9,5.7,4.8,13.8,4.4,21.2c-8.6,4.1-16.9,2.3-24.8,2.3c-9,0-13.1,3.6-13,12.9c0.3,18.6,0.2,37.2,0.3,55.8
	c-0.1,9.8-0.2,19.5-0.3,29.3c-1.3,1.3-2.6,2.6-3.9,3.9c-7.8,0-15.5,0.1-23.3,0.1C812,146.1,810.7,143.6,809.4,141.1z"/>
<path class="st1" d="M712.2,141.1c8,0,16,0,25.8,0c0-40.1,0-79,0-117.9c7.6,2.2,6.7,8.8,6.7,14.3c0.3,18.1,0.2,36.2,0.2,54.2
	c0,5.9,0,11.7,0,17.6c-3.6,11.6-1,23.6-1.7,35.3c-10.4,6.1-20.9,5.9-31.3,0C712,143.5,712.1,142.3,712.2,141.1z"/>
<path class="st1" d="M40.4,136.6c18,6.8,36.3,8.8,55,3.2c27.7-8.3,52.9-35.6,43.2-79.4c11.3,14.4,6.9,50-8.6,66.3
	c-7.3,7.6-16.6,12.2-23.7,19.8c-3.2,0.3-6.3,0.6-9.5,1c-1.2,0.5-2.4,1.1-3.6,1.6c-2.1,0.1-4.1,0.2-6.2,0.3c-6.4,0-12.9,0-19.3-0.1
	c-2-0.1-4.1-0.3-6.1-0.4c-1.2-0.5-2.5-1-3.7-1.6c-2.5-0.3-5.1-0.5-7.6-0.8c-0.8-1.8-2-3-4.1-3.3C42.7,142.3,40.2,140.6,40.4,136.6z"
	/>
<path class="st1" d="M264.1,140.9c7.8,0,15.5,0,25.3,0c0-40.2,0-79.8,0-119.4c6.3,1.8,5.7,7.1,5.8,11.9c0.1,26.7,0.2,53.3,0.2,80
	c-0.1,10.4-0.2,20.8-0.3,31.2c-1.3,1.3-2.5,2.6-3.8,3.9c-9.3-1.2-19.9,3.9-27.4-5.7C264,142.1,264.1,141.5,264.1,140.9z"/>
<path class="st1" d="M1049,141.1c7.7,0,15.4,0,25.3,0c0-39.9,0-78.9,0-118c4,1.2,5.6,4.1,5.6,8.1c-0.1,36.6-0.1,73.2-0.3,109.9
	c0,1.9-1,3.7-1.5,5.6c-8.2,3.4-16.9,1.3-25.3,2C1051.5,146.1,1050.2,143.6,1049,141.1z"/>
<path class="st1" d="M367.1,66.3c-2.2,0.5-4.4,0.9-6.9-0.6c0-7.8,0-15.8,0-25c20.9,0,41.6,0,63.1,0c0.5-7.1,0.9-13.1,1.4-19.1
	c8.8,6.3,6.3,14.4,3.6,23.6c-19,7.6-39.5,0.3-58.6,4.7C365.8,55.2,367.7,61,367.1,66.3z"/>
<path class="st1" d="M1190.9,89.1c-3-3.8-6-7.5-9.8-12.1c14.3-19.3,28.4-38.5,42.6-57.6c1.3,2.2,2.5,4.4,4.3,7.6
	c-10.3,14.4-20.3,29.1-30.9,43.3C1192.8,76,1190.1,81.8,1190.9,89.1z"/>
<path class="st1" d="M994.2,114.6c-3.6-3.6-6.6-7.7-9.1-13c23.9-13.5,28.5-34.1,20.8-58.9c13.8,11.6,13.1,40-1.2,55.3
	C1000.1,102.8,993.7,106.5,994.2,114.6z"/>
<path class="st1" d="M1194.7,141c10.5-0.1,21-0.3,31.5-0.4c3.9,1.9,3.1,4.8,1.8,7.8c-7.4,0-14.8,0-22.2,0
	C1200.4,148.5,1196.3,146.6,1194.7,141z"/>
<path class="st1" d="M659.3,66c-1.8,0-3.6,0-5.6,0c0-14.7,0-28.8,0-42.9c5.6,1.7,5.7,6.3,5.7,10.9C659.3,44.7,659.3,55.4,659.3,66z"
	/>
<path class="st1" d="M770.3,40.8c11,0,21.9,0,32.7,0c2.1,2.7,1.2,5.2,0.7,7.7c-8-0.3-16-0.4-23.9-1.1
	C775.6,47.1,771.4,45.9,770.3,40.8z"/>
<path class="st1" d="M982.4,141.1c9.3-0.1,18.6-0.2,27.8-0.3c3.9,1.9,2.8,4.9,1.6,7.8c-9.7-0.6-19.5,1.7-29-2
	C982.7,144.7,982.6,142.9,982.4,141.1z"/>
<path class="st1" d="M1004.1,39.1c-1-1.3-2-2.7-3-4C1002.1,36.4,1003.1,37.8,1004.1,39.1z"/>
<path class="st1" d="M1006,42c-0.7-1-1.4-2.1-2.1-3.1C1004.6,39.9,1005.3,41,1006,42z"/>
<path class="st0" d="M595.5,317.5c-6-1.2-3.7-6.1-3.8-9.5c-0.3-30.9-0.4-61.8-0.5-92.8c0-6.7,0-13.4,0-21.5c10.5,1.4,20.4-3.9,29,4
	c2.4,4.7,5.8,8.5,9.7,12l-0.1-0.1c2.6,3.3,5.2,6.6,7.8,9.9h-0.1c2.6,4.5,5.9,8.4,9.8,11.8l-0.1-0.1c2.6,3.3,5.2,6.6,7.8,9.9
	l-0.1-0.1c2.7,3.3,5.4,6.5,8,9.8c0.5,0.6,1,1.3,1.6,1.9c2.2,2.9,4.5,5.8,6.7,8.7l0.1,0.5l0.5,0.2c0.7,1.3,1.1,2.9,3.1,2.4
	c1.1-1.4,0.9-2.8,0.2-4.2c0-21.9,0-43.8,0-66.1c10.8,0,19.7,0,29.2,0c0.5,1.8,1,3.6,1.5,5.4c0,39.1,0,78.2,0,118
	c-9.3,0-16.4,0-23.5,0c-4.4-1.9-6.5-6.2-9.3-9.6c-13.3-15.8-26.5-31.7-39.7-47.6c-3.7-4.7-7.3-9.4-13-16.7c0,26.5,0,49.6,0,73.9
	C611.5,317.5,603.5,317.5,595.5,317.5z"/>
<path class="st0" d="M1109.5,317.5c-5.4-0.9-3.8-5.3-3.8-8.5c-0.3-20.8-0.3-41.6-0.5-62.4c0-17.1,0-34.3,0-53
	c26.1,1.3,51.2-2.9,75.9,2.8c10.3,2.4,18.4,9.1,25.3,17c0.7,1,1.4,2,2.1,3c-0.4,1.9,0.6,3.2,1.8,4.5c6.5,24.3,1.5,44.4-22.2,57.4
	c3.9,5.1,7.2,9.5,10.5,13.9c5.3,8.3,10.5,16.5,15.8,24.8c-9.8,0.2-19.7,0.3-29.5,0.5c-0.5-0.3-1-0.5-1.6-0.5
	c-1.1-1.4-2.3-2.8-3.4-4.3l-0.3,0.6l0.3-0.6c-1.8-2.7-3.6-5.4-5.4-8l-0.1-0.2c-1.4-1.9-2.7-3.7-4.1-5.6v-0.1c-1-2.8-2.5-5.3-4.9-7
	c-1.6-2.7-3.3-5.5-4.9-8.2c-8.7,0.1-17-1.3-26,1c0,10.9,0,21.5,0,33.1C1125.5,317.5,1117.5,317.5,1109.5,317.5z M1177.3,224.8
	l0.6,0.2l0.2-0.6c-12.4-13.7-28.2-5.6-42.8-8.2c0,15.4,0,29.3,0,43.7c1.9,0,3.5,0,5.1,0c8,0.3,16,1,23.9-0.6
	c17-3.4,23.2-16.1,15.9-32.5C1179.6,225.7,1179.1,224.5,1177.3,224.8z"/>
<path class="st0" d="M1025.5,293.7c15.8,0.2,31.7,0.3,47.5,0.5c3.3,0.1,7.4-1.4,9.1,3.3c0,1.9,0,3.7-0.1,5.6
	c-0.3,4.4-0.5,8.9-0.9,14.3c-30.1,0-59.5,0-89,0c-1.9,0-3.7-0.1-5.6-0.1c-2.4-16.8-0.6-33.6-1-50.4c-0.4-15.9-0.5-31.8-0.7-47.7
	c0.4-8.1,0.7-16.1,1.1-24.8c30.9,0,61.4,0,92.5,0c0.4,1.5,0.9,3.3,1.4,5.1c-1.5,5.3,0.8,11-2.3,17.4c-20.4,0-41.2,0-62.1,0
	c0,9.3,0,17.3,0,25.9c2.3,0,4.1,0,5.9,0c14.2,0.2,28.4,0.4,42.7,0.5c4.2,0,7.9,0.1,8.3,5.6c-1.4,5.6,0.8,11.6-2.2,18
	c-18.2,0-36.5,0-54.7,0c0,9.4,0,17.8,0,25.8c2.1,2,4,1.4,5.9,1.1C1022.7,293.6,1024.1,293.6,1025.5,293.7z"/>
<path class="st0" d="M774.3,293.7c16.5,0.2,33,0.2,49.4,0.5c3.3,0.1,7.4-1.4,9.1,3.3c0,1.9,0,3.7-0.1,5.6c-0.3,4.4-0.5,8.9-0.9,14.3
	c-30.1,0-59.5,0-89,0c-1.9,0-3.7-0.1-5.6-0.1c-2.5-19.3-0.4-38.8-1.1-58.2c-0.3-8.7-0.4-17.5-0.6-26.2c0-12.6,0-25.2,0-38.5
	c32,0,62.4,0,93.6,0c0.4,1.5,0.9,3.3,1.4,5c-1.5,5.3,0.8,11-2.3,17.4c-20.4,0-41.2,0-62.1,0c0,9.3,0,17.3,0,24.9
	c2.1,1.9,4,1.3,5.9,1c2,0,4,0,6,0c14.8,2,29.9-1.5,44.7,1.9c0,2.5,0.1,5,0.1,7.5c-0.3,4.4-0.6,8.9-1,14.2c-18.9,0-37.2,0-56.2,0
	c0,8,0,15.1,0,22.2c0,3.2,0.2,6.1,4.7,5.2C771.8,293.7,773.1,293.7,774.3,293.7z"/>
<path class="st0" d="M893.1,317.4c-8.1-9.1-9.3-21.7-15.8-31.7c-0.6-1-1.1-2-1.7-3.1l0.3-0.4l-0.3-0.4c-0.6-1.1-1.3-2.1-1.9-3.2
	c-1.4-8.2-5.3-15.3-9.1-22.5c-8.4-20.4-16.9-40.7-25.7-61.9c10.3,0,19.9,0,32.1,0c0.5,0.1,0.2,3.7,2.2,5.2
	c10.8,26.3,21.6,52.6,32.3,78.9c0.8-0.2,1.7-0.4,2.5-0.7c0.4-1.5,0.9-2.9,1.3-4.4c11.6-26.4,23.2-52.8,35.1-79.6
	c7.8,0,15.6,0,23.3,0c2.8,0,5.2,0.3,4.9,4c-17.5,39.8-35.1,79.5-52.8,119.7C910.6,317.4,901.9,317.4,893.1,317.4z"/>
<path class="st0" d="M351.9,316.8c-0.1-17.5-0.2-35-0.3-52.5c0-23.1,0-46.2,0-68.9c5.7-3.3,9.4-1.1,12.7,2.4c1,1.3,2,2.6,3,4v-0.1
	c0.7,0.7,1.4,1.4,2.1,2.1l-0.3,0.1c3.9,6.4,8.5,12.3,13.7,17.7c0,0,0.1-0.3,0-0.3c0.1,1.3,0.8,2.2,2.1,2.3l-0.5,0.1
	c1.4,3.1,3.3,5.8,6.1,7.7l-0.1-0.1c1.8,3.9,4.5,7.2,7.7,10H398c2,2.6,4.1,5.1,6.1,7.7l-0.1-0.1c1.8,3.9,4.6,7.1,7.7,10l-0.1-0.1
	c2.1,3.7,4.4,7.3,7.8,9.9l-0.1-0.1c0.8,2.4,2.2,4.3,4.3,5.6v-0.1c0.7,0.7,1.4,1.4,2.1,2.2l-0.1-0.2c0.7,1,1.4,2.1,2.1,3.1
	c1.2,1.6,2.4,3.3,3.6,4.9c0.7,0.9,1.5,1.9,2.2,2.8c1.3,1.6,2.5,3.3,3.8,4.9c1.1,2.2,2,4.5,4.8,5.1c1.2-1.8,0.7-3.5,0.1-5.2
	c0-32.3,0-64.6,0-97.4c5.3-0.2,9.7-2.9,11.1,3.7c0,39.5,0,79.1,0,118.6c-3.6,0.3-5.9,0.5-8.1,0.7c-2.3-2.7-4.8-5.3-7-8.1
	c-21.3-26.8-42.6-53.7-64-80.5c-3.6-4.8-7.1-9.5-10.7-14.3c-0.7,0.3-1.3,0.6-2,0.9c0,33.7,0,67.5,0,101.2c-2.5,0.4-4.1,0.7-5.7,0.9
	C354.6,317.2,353.3,317,351.9,316.8z"/>
<path class="st0" d="M144,287.4c-4.3-9.3-7.4-18.9-8.4-29.1c2.6-36,20-58.4,51.6-63.8c28.5-4.9,52.4,4.1,69.5,28.6
	c0.6,0.7,1.2,1.4,1.8,2H258c17.4,39.2,0,77.8-36,89.1c-19.3,6.1-38.3,3.8-56.5-5.4l-0.1,0.2c-2-1.4-4.1-2.8-6.1-4.2l-0.4,0.3
	l0.3,0.4c-0.7-0.8-1.4-1.7-2.1-2.5c-1.2-1.2-2.5-2.4-3.7-3.6C150.2,295.4,147.1,291.4,144,287.4z M157,287.7
	c0.6,0.9,1.3,1.8,1.9,2.6c9.1,12,21.8,17.1,36,18.3c21.2,1.8,39.1-5.4,50.7-23.8c11.4-18,12.6-37.1,1.2-56c-0.8-1.2-1.5-2.5-2.3-3.7
	c-0.4-0.7-0.8-1.3-1.3-2c-0.9-1-1.8-2-2.7-3v-0.7l-0.7-0.2c-19.4-21.5-53.3-23.4-76-4.2c-20.9,17.7-24,50.4-6.9,72.9L157,287.7z"/>
<path class="st0" d="M23.2,317.5c-5-1.4-3.3-5.7-3.4-8.9c-0.4-17.4-0.5-34.8-0.7-52.2c0-20.4,0-40.9,0-62.9
	c22.9,1.2,44.4-2.4,65.7,2.5c12,2.8,20.5,10.7,26.6,21.2c9.3,36.3-7.8,58.7-45.1,58.7c-11.9,0-23.8,0-36.6,0c0,14.2,0,27.3,0,40.6
	C27,316.9,25.1,317.2,23.2,317.5z M94.7,213.1l0.5,0.2l0.2-0.5c-2.2-3.9-6-5.9-9.9-7.3c-18.1-6.4-36.7-3.5-55.2-3.9
	c0,22.7,0,44,0,65.1c2,2,4,1.2,5.8,1.1c13.9,0.2,27.8,1.4,41.6-1.4c24.4-4.8,34.5-30.1,20.1-51.1C97.2,214,96.4,212.9,94.7,213.1z"
	/>
<path class="st0" d="M521.2,317.1c-0.3-20.2-0.7-40.5-1-60.7c0.6-15.7,1-31.5-0.2-47.2c0.4-2.5,1.5-5-0.9-7.3c-12.8,0-25.7,0-38.5,0
	c-4.8-0.6-4.3-3.9-3.4-7.7c32,0,64.2,0,96.8,0c0.5,1.7,1,3.5,1.6,5.3c-2.7,3.5-6.6,1.9-9.9,2c-11.5,0.2-23,0.1-35.1,0.1
	c0,39.2,0,77.1,0,115c-2.2,0.4-3.8,0.7-5.4,0.9C523.9,317.3,522.5,317.2,521.2,317.1z"/>
<path class="st1" d="M893.1,317.4c8.7,0,17.5,0,26.7,0c17.7-40.2,35.3-80,52.8-119.7c6.9,5.1,3.5,11.2,1.2,16.7
	c-11.3,26.3-22.9,52.5-34.3,78.8c-2.8,6.5-5.1,13.4-7.6,20c0,1.1-0.1,2.2-0.1,3.3c-1.3,1.5-2.5,3-3.8,4.5
	C915.1,328.1,898.7,326.4,893.1,317.4z"/>
<path class="st1" d="M23.2,317.5c1.9-0.3,3.8-0.6,6.6-1c0-13.3,0-26.4,0-40.6c12.8,0,24.7,0,36.6,0c37.2-0.1,54.4-22.5,45.1-58.7
	c5.7,1.7,6.7,6.7,7.8,11.4c7,29.7-11.7,53.9-42.7,54.9c-12.5,0.4-25.1,0.1-37.8,0.1C34.3,297,37,309.2,36.1,321
	c-2,1.7-3.8,3.6-7.3,3.1C25.7,323.4,23.9,321,23.2,317.5z"/>
<path class="st1" d="M165.5,308.8c18.1,9.2,37.1,11.5,56.5,5.4c35.9-11.3,53.4-49.9,36-89.1c12.5,10.4,13.3,25,13.1,39.5
	c-0.2,12.4-5.1,23.9-10.9,34.8c-4.5,4.5-9,9-13.5,13.5c-3.5,0.9-6.6,2.5-8.3,5.9c-1.1,0.1-2.2,0.2-3.3,0.3
	c-5.9,1.9-11.7,3.8-17.6,5.7c-8.4,0-16.7,0-25.1-0.1c-1.3-0.5-2.7-1.1-4-1.6c-1.3-0.1-2.5-0.2-3.8-0.3c-1.3-0.6-2.7-1.2-4-1.7
	c-1.7-0.1-3.4-0.2-5.1-0.3C173.3,315.7,165.4,315.5,165.5,308.8z"/>
<path class="st0" d="M297.4,316.8c-0.1-17.5-0.2-35-0.3-52.5c0-23.3,0-46.5,0-69.2c3.9-1.6,6.3-1.6,9.3-0.6c0.4,1.6,0.9,3.4,1.4,5.2
	c0,39,0,77.9,0,116.8c-3.1,0.5-4.7,0.8-6.3,1C300.1,317.2,298.7,317,297.4,316.8z"/>
<path class="st1" d="M525.2,317.5c1.6-0.3,3.2-0.5,5.4-0.9c0-38,0-75.8,0-115c12.1,0,23.6,0.1,35.1-0.1c3.3-0.1,7.2,1.5,9.9-2
	c2.2,0.7,4.4,1.4,4.4,4.6c-1.4,4.5-5.3,5-9.2,5.1c-6.1,0.2-12.3,0.1-18.4,0.1c-13.4,0.1-15.6,2.1-15.6,16c-0.1,28.2-0.1,56.5,0,84.7
	c0,5.3-0.4,10.4-3.9,14.7c-1.8,0-3.6,0.1-5.4,0.1C526.7,322.4,526,319.9,525.2,317.5z"/>
<path class="st2" d="M264.1,140.9c-0.1,0.6-0.1,1.3-0.2,1.9c-13-4.5-17.6-17.5-25.8-26.7c-6.8-7.6-11.6-17-21.2-21.5
	c-4.4,3-3.3,6.8-3.4,10.2c-0.1,11.1-0.3,22.1,0,33.2c0.2,8.5-4.1,12.4-11.7,14c-15.8,3.2-24.5-0.5-27.1-11.7
	c1.9,0.3,3.7,0.5,5.6,0.8c5.4,7.2,17,8.2,29.3,1.4c0-11.5-0.3-24.1,0.1-36.7c0.3-9.3-1.9-18.9,2.2-27.9
	C229.4,98.9,246.8,119.9,264.1,140.9z"/>
<path class="st1" d="M682.5,317.4c7.1,0,14.2,0,23.5,0c0-39.8,0-78.9,0-118c6.7,2.2,5.8,7.9,5.8,13c0.1,29.7,0.2,59.4,0.2,89.1
	c0,5.9-0.1,11.7-0.1,17.6c-1.9,2-3.9,3.9-5.8,5.9c-5.8,0-11.7,0-17.5,0C686.3,322.7,683.3,321,682.5,317.4z"/>
<path class="st1" d="M301.4,317.5c1.6-0.3,3.2-0.5,6.3-1c0-38.9,0-77.8,0-116.8c6.3,1.5,6.6,6.8,6.6,11.6
	c-0.4,34.6-1,69.1-1.6,103.7c-0.1,3.8-1.8,6.9-3.9,9.8c-1.2,0-2.5,0-3.7,0C303.9,322.3,302.7,319.9,301.4,317.5z"/>
<path class="st1" d="M1021.3,293.6c-1.9,0.3-3.8,0.9-5.9-1.1c0-8,0-16.4,0-25.8c18.2,0,36.5,0,54.7,0c3-6.4,0.8-12.4,2.2-18
	c8.6,5.9,9.4,12,3,23.5c-16.5,6.3-34.5,0.9-50.8,4.6C1020,282.5,1021.9,288.3,1021.3,293.6z"/>
<path class="st1" d="M445.2,317.3c2.2-0.2,4.5-0.4,8.1-0.7c0-39.6,0-79.1,0-118.6c5.4,1.4,5.5,5.8,5.5,10.1c0,34.9,0,69.9,0,104.8
	c0,4.5-1.2,8.3-3.9,11.8c-2.6-0.6-5.1-1.1-7.7-1.7C446.6,321.1,445.9,319.2,445.2,317.3z"/>
<path class="st1" d="M367.1,117.3c-2.2,0.5-4.4,0.8-6.9-0.6c0-8.4,0-17.1,0-26.7c18.7,0,36.9,0,55.7,0c0.4-6,0.8-11,1.1-16.1
	c1-0.5,1.9-1,2.9-1.6c1.2,1.3,2.5,2.7,3.7,4c-0.5,6.3,1.4,12.9-2.7,20.4C405.6,99,389.3,97,373.2,98c-3.5,0.3-5.3,2.3-5.9,5.6
	C367.2,108.1,367.1,112.7,367.1,117.3z"/>
<path class="st1" d="M1021.4,242.7c-1.8,0-3.6,0-5.9,0c0-8.6,0-16.6,0-25.9c20.9,0,41.7,0,62.1,0c3.1-6.4,0.8-12.1,2.3-17.4
	c8.1,3.1,5.8,10,5.4,15.8c-0.4,6-5.3,7.6-10.3,8.5c-12.5,2.1-25.2,0.6-37.7,1.1c-4.4,0.2-9.1-0.9-13.4,2.1
	C1020.1,231.6,1022,237.3,1021.4,242.7z"/>
<path class="st1" d="M772.2,242.7c-1.9,0.3-3.8,0.9-5.9-1c0-7.6,0-15.6,0-24.9c20.9,0,41.7,0,62.1,0c3.1-6.4,0.8-12.1,2.3-17.4
	c8.1,3.1,5.8,10,5.4,15.8c-0.4,6-5.3,7.6-10.3,8.5c-12.5,2.1-25.2,0.6-37.7,1.1c-4.5,0.2-9.1-0.6-13,1.6
	C770.8,231.6,772.8,237.3,772.2,242.7z"/>
<path class="st1" d="M1109.4,141.1c8.7,0,17.3,0,25.9,0c9.7-14.1,18.9-27.6,28.3-41.2c3.5,2,4.9,4.8,6.1,7.8c-4.2,4.6-8,9.4-10,15.4
	c-2.6,1.8-3.8,4.3-4,7.4c-3,1.1-5.1,3.1-5.7,6.3l0,0c-2.2,1.4-3.5,3.4-4,5.9c-4.5,7.1-11.7,5.7-18.4,5.8c-5.5,0.1-11,0-16.5-0.1
	C1110.6,146,1110,143.6,1109.4,141.1z"/>
<path class="st1" d="M1198.7,292.1c-3.3-4.4-6.6-8.7-10.5-13.9c23.7-13,28.7-33.1,22.2-57.4c10.7,7.7,9.4,19,8.8,29.9
	c-0.4,7.6-4.8,14.1-7.2,21.1c-2.5,2.5-5.1,5.1-7.6,7.6C1198.2,281.7,1198.3,286.9,1198.7,292.1z"/>
<path class="st2" d="M707.5,97.5c0,0.7-0.1,1.5-0.1,2.2c-10.7,0-21.4-0.1-32.1,0.1c-7.6,0.1-11.9,3.6-12.1,12
	c-0.2,9.4-1.4,18.8-1.9,28.2c-0.4,7.3-4.2,10.6-11.2,10.6c-4.2,0-8.4-0.2-12.6,0.1c-7.2,0.4-11.9-2.3-13.2-9.8
	c1.9,0.1,3.8,0.2,5.6,0.3c5.2,6.9,14.7,8.1,26.7,2.7c2.1-11.2,0.9-23.2,0.9-35.1c0-9.1,3.8-13,12.8-12.8c11.9,0.3,23.8,0,35.8,0
	C706.6,96.4,707.1,96.9,707.5,97.5z"/>
<path class="st1" d="M906.8,141.1c7.8,0,15.5,0,24.2,0c0-11.6,0-22.2,0-33c8.5-2.6,16.2-0.5,22.8-1.3c4.4,0.9,5.2,4,6.7,6.4
	c-6.9,0.9-14.2-1.5-20.6,2.3c-3.1,5.1-1.9,10.3-1.9,15.5c-0.6,5,0.9,10.3-2.5,15.7c-7.7,3.8-16.5,1.1-24.9,2
	C909.3,146.1,908,143.6,906.8,141.1z"/>
<path class="st2" d="M332.3,141c1.3,0,2.5,0,3.8,0c1.6,5.8,6.3,5.8,10.9,5.8c23.8,0,47.7,0,71.5,0c4.9,0,10.2,0.1,12.2-5.6
	c1.9-5.5,1.8-10.9-3.3-15c0-1.7,0-3.3,0-5c9.6,3.8,8.6,12,7.3,19.7c-1.2,7.2-6.5,9.7-13.6,9.7c-25.2-0.1-50.3,0-75.5-0.1
	C339.2,150.5,333.1,149.4,332.3,141z"/>
<path class="st2" d="M909.4,273.3c-0.4,1.5-0.9,2.9-1.3,4.4c-0.8,0.2-1.7,0.4-2.5,0.7c-10.8-26.3-21.6-52.6-32.3-78.9
	c8.5,2.7,9.4,10.9,12.2,17.5C893.6,235.7,901.4,254.5,909.4,273.3z"/>
<path class="st1" d="M480.6,201.9c12.9,0,25.7,0,38.5,0c2.4,2.3,1.3,4.8,0.9,7.3c-10,0-20.1,0.1-30.1,0.1
	C484.9,209.2,480.8,208,480.6,201.9z"/>
<path class="st2" d="M938,131c0-5.1-1.2-10.4,1.9-15.5c6.4-3.8,13.7-1.4,20.6-2.3c5.2,7.5,10.3,14.9,15.5,22.4
	c-6.8,1-8.6-5.1-11.5-8.9c-5.3-6.9-11.4-9-18.7-6.4C941.5,123.4,942.5,129.2,938,131z"/>
<path class="st2" d="M1159.7,123.1c2-6,5.8-10.8,10-15.4c5.6,6.3,10.1,13.3,14.4,20.6c-7.6,1.1-8.3-8.2-14.5-9.8
	C1166.4,119.9,1163,121.5,1159.7,123.1z"/>
<path class="st2" d="M743.2,144.7c0.7-11.8-1.9-23.7,1.7-35.3C747.3,121.3,750.4,133.2,743.2,144.7z"/>
<path class="st2" d="M67.6,149.3c6.4,0,12.9,0,19.3,0.1C80.4,154.2,74,154.3,67.6,149.3z"/>
<path class="st2" d="M461.1,110.2c3.9,4.9,7.7,9.8,11.6,14.7C461.9,125.5,462.1,117.3,461.1,110.2z"/>
<path class="st2" d="M809.4,141.1c1.3,2.5,2.5,5,3.8,7.5c-8.1,3-7.2-3.2-7.8-7.7C806.8,141,808.1,141,809.4,141.1z"/>
<path class="st2" d="M906.8,141.1c1.3,2.5,2.5,5,3.8,7.5c-8.1,3-7.2-3.2-7.8-7.8C904.1,141,905.4,141,906.8,141.1z"/>
<path class="st2" d="M1184,128.3c2.4,3.4,4.8,6.8,7.2,10.2C1182.5,139.6,1184.3,133.2,1184,128.3z"/>
<path class="st2" d="M982.4,141.1c0.1,1.8,0.3,3.7,0.4,5.5c-5.6-1.4-8.4-4.5-6.7-10.6C978.2,137.7,979.3,140.6,982.4,141.1z"/>
<path class="st2" d="M1049,141.1c1.3,2.5,2.5,5,3.8,7.5c-6.9,1.7-6.1-4.3-7.8-7.8C1046.3,140.9,1047.6,141,1049,141.1z"/>
<path class="st2" d="M1109.4,141.1c0.6,2.5,1.2,4.9,1.8,7.4c-7.4,1.9-5-4-5.9-7.4C1106.7,141.1,1108,141.1,1109.4,141.1z"/>
<path class="st2" d="M24.9,125.9c3.1,2.3,6.3,4.6,9.4,7C29.3,133.1,25.5,131.7,24.9,125.9z"/>
<path class="st2" d="M442.2,291.6c0.6,1.7,1.1,3.5-0.1,5.2c-2.8-0.6-3.7-3-4.8-5.1C438.9,291.7,440.5,291.7,442.2,291.6z"/>
<path class="st2" d="M836.5,148.5c1.3-1.3,2.6-2.6,3.9-3.9C842.2,149.1,840.9,150.4,836.5,148.5z"/>
<path class="st2" d="M291.3,148.5c1.3-1.3,2.5-2.6,3.8-3.9c1,1.5,1.5,3.2-0.3,4.2C294,149.3,292.5,148.6,291.3,148.5z"/>
<path class="st2" d="M423.6,76.3c-1.2-1.3-2.5-2.7-3.7-4c1.2-0.1,2.7-0.7,3.5-0.2C425.2,73.1,424.7,74.8,423.6,76.3z"/>
<path class="st2" d="M367.3,103.6c0.6-3.4,2.5-5.4,5.9-5.6C372.5,101.1,370.4,103,367.3,103.6z"/>
<path class="st2" d="M1150,136.8c0.6-3.3,2.7-5.2,5.7-6.3C1155.4,134.1,1153.5,136.1,1150,136.8z"/>
<path class="st2" d="M675.3,260.2c0.7,1.4,0.9,2.8-0.2,4.2c-2.1,0.5-2.4-1.2-3.1-2.4C673.1,261.4,674.2,260.8,675.3,260.2z"/>
<path class="st2" d="M1146.1,142.7c0.5-2.5,1.8-4.5,4-5.9C1149.9,139.6,1148.9,141.8,1146.1,142.7z"/>
<path class="st2" d="M423.7,274.1c-2.2-1.3-3.5-3.2-4.3-5.6C422.5,269.1,423.6,271.2,423.7,274.1z"/>
<path class="st2" d="M93.1,149.1c1.2-0.5,2.4-1.1,3.6-1.6C96,149.1,94.8,149.8,93.1,149.1z"/>
<path class="st2" d="M57.8,147.4c1.2,0.5,2.5,1,3.7,1.6C59.7,149.8,58.5,149.1,57.8,147.4z"/>
<path class="st2" d="M46.1,143.3c2,0.3,3.3,1.5,4.1,3.3C48.3,146.2,46.9,145.1,46.1,143.3z"/>
<path class="st2" d="M712.2,141.1c-0.1,1.2-0.2,2.4-0.3,3.6c-1.9-0.7-3.2-2.1-3.8-4C709.5,140.8,710.8,141,712.2,141.1z"/>
<path class="st2" d="M573.3,136.7c0.9-1.9,2.2-3.3,4.2-3.9C576.9,135,575.5,136.3,573.3,136.7z"/>
<path class="st2" d="M577.5,132.8c0.6-2.1,2-3.4,3.9-4.2C580.9,130.8,579.6,132.2,577.5,132.8z"/>
<path class="st2" d="M367.3,201.6c-1-1.3-2-2.6-3-4C365.3,199,366.3,200.3,367.3,201.6z"/>
<path class="st2" d="M433.5,286.8c-0.7-0.9-1.5-1.9-2.2-2.8C432,284.9,432.7,285.9,433.5,286.8z"/>
<path class="st2" d="M427.7,279.1c-0.7-1-1.4-2.1-2.1-3.1C426.3,277,427,278,427.7,279.1z"/>
<path class="st1" d="M34.3,133c1,0.7,2.1,1.3,3.1,2C36.4,134.3,35.4,133.6,34.3,133z"/>
<path class="st2" d="M369.3,203.7c-0.7-0.7-1.4-1.4-2.1-2.1C367.9,202.3,368.6,203,369.3,203.7z"/>
<path class="st2" d="M38.2,135.1c0.7,0.6,1.5,1.2,2.2,1.7C39.6,136.2,38.9,135.6,38.2,135.1z"/>
<path class="st1" d="M1208.6,216.4c-0.7-1-1.4-2-2.1-3C1207.1,214.4,1207.9,215.4,1208.6,216.4z"/>
<path class="st1" d="M258.4,225.2c-0.6-0.7-1.2-1.4-1.8-2C257.2,223.8,257.8,224.5,258.4,225.2z"/>
<path class="st1" d="M595.5,317.5c8,0,16,0,25.1,0c0-24.3,0-47.5,0-73.9c5.7,7.3,9.3,12,13,16.7c-8.4,2-4.7,8.8-5.5,13.8
	c0,13,0,26-0.1,39c-0.7,3.3-1.4,6.5-2.1,9.8c-7.3,3.2-15,2-22.6,1.7C599.1,324.4,596.4,321.8,595.5,317.5z"/>
<path class="st1" d="M374.2,228.8c-4.9,1.3-4.9,5.3-5.4,9.2c-3,23.6-0.8,47.4-1.4,71.1c-0.1,5.6-0.1,11.1-4,15.6c-1.2,0-2.5,0-3.7,0
	c-1.2-2.4-2.5-4.9-3.7-7.3c1.6-0.3,3.2-0.5,5.7-0.9c0-33.7,0-67.5,0-101.2c0.7-0.3,1.3-0.6,2-0.9C367.1,219.2,370.7,224,374.2,228.8
	z"/>
<path class="st1" d="M1109.5,317.5c8,0,16,0,25,0c0-11.6,0-22.2,0-33.1c9.1-2.3,17.3-1,26-1c1.7,2.8,3.3,5.5,4.9,8.2
	c-1.2,0-2.5-0.1-3.7-0.1c-1.9,0-3.8-0.1-5.7-0.1c-1.4-1-2.7-1-4.1,0c-1.3,0-2.5,0-3.8,0.1c-3.8,0.2-5.8,2.1-5.9,6
	c0,6.5-0.1,13-0.1,19.5c-0.7,2-1.4,3.9-2.1,5.9c-7.3,3.1-15,2-22.6,1.7C1113.1,324.4,1110.4,321.8,1109.5,317.5z"/>
<path class="st2" d="M986.6,317.3c1.9,0,3.7,0.1,5.6,0.1c1.4,5.3,5.6,5.7,10,5.7c24.6,0,49.2,0,73.7,0c2.9,0,5.9-0.1,8.7-3.1
	c1.3-5.5,4.2-11.8-2.5-17c0-1.9,0-3.7,0.1-5.6c9.2,3.6,10,11.1,8.5,19.4c-1.5,8.5-7.6,10.2-15.2,10.1c-25.3-0.2-50.6-0.1-75.9-0.1
	C992.7,326.9,987.1,325.6,986.6,317.3z"/>
<path class="st2" d="M832.8,303.1c0-1.9,0-3.7,0.1-5.6c11.3,4.2,7.6,13.8,7,21.6c-0.6,7.7-7.4,7.8-13.4,7.8c-24.8,0-49.6-0.1-74.5,0
	c-7.2,0-12.7-2.1-14.8-9.7c1.9,0,3.7,0.1,5.6,0.1c1.4,5.3,5.6,5.7,10,5.7c24.6,0,49.2,0,73.7,0c2.9,0,5.9-0.1,9.1-3.5
	C836.1,314.5,839.7,308.2,832.8,303.1z"/>
<path class="st2" d="M774.3,293.7c-1.3,0-2.5,0-3.8,0c0.1-21.5,0.1-21.5,21.4-21.5c2.9,0,5.8,0.2,8.7,0c8.2-0.6,16.7,1.9,25.3-2.6
	c0.4-6.1,4-12.5-3-17.5c0-2.5-0.1-5-0.1-7.5c12.3,4.6,7.7,15.1,7.3,23.3c-0.4,8.3-7.9,8-14.1,8c-8.1,0-16.1,0-24.2,0
	C775.5,276,774.4,277.1,774.3,293.7z"/>
<path class="st1" d="M1185,317.4c9.8-0.2,19.7-0.3,29.5-0.5c2.5,1.3,3.5,3.4,3.6,6.1c-8.8,3.5-18,1.3-27.1,2c-1.3-0.7-2.6-1.3-3.9-2
	C1186.4,321.1,1185.7,319.2,1185,317.4z"/>
<path class="st3" d="M1218.1,322.9c-0.1-2.7-1.1-4.8-3.6-6.1c-5.3-8.3-10.5-16.5-15.8-24.8c-0.4-5.2-0.5-10.4,5.8-12.5
	c-3.4,12.2,6,19.3,11,28.2C1218,312.2,1225.9,316.5,1218.1,322.9z"/>
<path class="st3" d="M165.5,308.8c0,6.7,7.9,6.9,9.8,12c-7.1-1.5-14.1-3.3-16.1-11.9c2.1,0,4.1,0.1,6.2,0.1L165.5,308.8z"/>
<path class="st3" d="M217.3,324.8c5.9-1.9,11.7-3.8,17.6-5.7C230.3,324.9,224.6,327.3,217.3,324.8z"/>
<path class="st3" d="M1161.8,291.5c1.2,0,2.5,0.1,3.7,0.1c2.5,1.8,3.9,4.2,4.9,7C1165.3,299,1162.9,296.1,1161.8,291.5z"/>
<path class="st3" d="M301.4,317.5c1.2,2.4,2.5,4.9,3.7,7.3c-7.1,1.8-6.3-4.2-7.8-8C298.7,317,300.1,317.2,301.4,317.5z"/>
<path class="st3" d="M356,317.5c1.2,2.4,2.5,4.9,3.7,7.3c-7.1,1.8-6.3-4.2-7.8-8C353.3,317,354.6,317.2,356,317.5z"/>
<path class="st3" d="M625.9,322.9c0.7-3.3,1.4-6.5,2.1-9.8C630.5,317,631.3,320.6,625.9,322.9z"/>
<path class="st3" d="M706.1,324.9c1.9-2,3.9-3.9,5.8-5.9C713.5,324.5,711.5,326.4,706.1,324.9z"/>
<path class="st3" d="M525.2,317.5c0.7,2.5,1.5,4.9,2.2,7.4c-4.5-0.6-6-3.6-6.2-7.7C522.5,317.2,523.9,317.3,525.2,317.5z"/>
<path class="st3" d="M1142.2,297.5c0.1-3.9,2.1-5.9,5.9-6C1147.5,294.9,1145.5,296.9,1142.2,297.5z"/>
<path class="st3" d="M238.2,318.8c1.8-3.4,4.8-5,8.3-5.9C245.4,317.2,242.2,318.5,238.2,318.8z"/>
<path class="st3" d="M1174.6,304.6c1.8,2.7,3.6,5.4,5.4,8C1174.8,312.2,1173.4,309.3,1174.6,304.6z"/>
<path class="st3" d="M1140,322.9c0.7-2,1.4-3.9,2.1-5.9C1144.2,320,1143.4,321.9,1140,322.9z"/>
<path class="st1" d="M165.4,309c-2.1,0-4.1,0-6.2-0.1c0-1.4,0.1-2.8,0.1-4.2C161.3,306.2,163.4,307.6,165.4,309z"/>
<path class="st3" d="M1170.4,298.7c1.4,1.9,2.7,3.7,4.1,5.6C1170.7,304.2,1169.9,302,1170.4,298.7z"/>
<path class="st3" d="M1180,312.6c1.1,1.4,2.3,2.8,3.4,4.3C1178.7,318.2,1180,314.9,1180,312.6z"/>
<path class="st3" d="M1187.1,322.9c1.3,0.7,2.6,1.3,3.9,2C1188.7,326.3,1187.7,325,1187.1,322.9z"/>
<path class="st3" d="M1151.9,291.4c1.4-1,2.7-1,4.1,0C1154.7,292.7,1153.3,292.6,1151.9,291.4z"/>
<path class="st3" d="M928,321c1.3-1.5,2.5-3,3.8-4.5C931.4,318.8,930.2,320.3,928,321z"/>
<path class="st3" d="M180.4,321.1c1.3,0.6,2.7,1.2,4,1.7C182.2,324.3,181.1,323.2,180.4,321.1z"/>
<path class="st3" d="M188.2,323.1c1.3,0.5,2.7,1.1,4,1.6C190.1,326.2,189,325.3,188.2,323.1z"/>
<path class="st1" d="M157.1,302.9c0.7,0.8,1.4,1.7,2.1,2.5C158.5,304.6,157.8,303.8,157.1,302.9z"/>
<path class="st3" d="M873.6,278.7c0.6,1.1,1.3,2.1,1.9,3.2C874.9,280.8,874.3,279.8,873.6,278.7z"/>
<path class="st3" d="M875.6,282.7c0.6,1,1.1,2,1.7,3.1C876.7,284.7,876.2,283.7,875.6,282.7z"/>
<path class="st1" d="M212,77.9c-4.1,9-2,18.6-2.2,27.9c-0.4,12.6-0.1,25.2-0.1,36.7c-12.3,6.8-23.8,5.8-29.3-1.4
	c3.9-0.1,7.8-0.3,11.7-0.3c3.5-0.1,7,0,11.8,0c0-23.8,0-47.1,0-71C208.6,71.8,210.2,75,212,77.9z"/>
<path class="st1" d="M972.3,46.4c-8.3-0.4-16.6-0.9-25-1.2c-7.6-0.3-11.2,3.6-11.2,11.2c0.1,9.1-0.1,18.1-0.1,27.2
	c-4.4,0.9-4.7-1.9-4.7-5.1c0-12.3,0-24.6,0-38.3C945.6,42,959.9,35.4,972.3,46.4z"/>
<path class="st1" d="M101.6,52.6c-4.7-1.1-9.3-2.3-14-3.3c-27.5-5.9-48.8,13.9-45,42.1c0.6,4.5,1,9,1.5,13.5
	c-13.6-17.6-11.4-43.5,4.7-57C64.8,34.3,86.9,36.4,101.6,52.6z"/>
<path class="st1" d="M105.1,58.3c-0.8-1.4-1.7-2.8-2.5-4.2C103.4,55.6,104.3,56.9,105.1,58.3z"/>
<path class="st1" d="M550.3,52.7c-3.4-1.1-6.8-2-10.1-3.2C513,39.4,487,60.1,490.5,89.1c0.6,4.8,1,9.7,1.6,14.5
	c-12.7-17.8-10.1-43.3,5.7-56.1C514.1,34.3,536.3,36.5,550.3,52.7z"/>
<path class="st1" d="M552.8,56.4c-0.8-1.2-1.7-2.5-2.5-3.7C551.1,54,552,55.2,552.8,56.4z"/>
<path class="st1" d="M491.9,103.5c0.6,0.9,1.3,1.7,1.9,2.6C493.2,105.2,492.6,104.4,491.9,103.5z"/>
<path class="st1" d="M706.2,95.9c-11.9,0-23.9,0.3-35.8,0c-9-0.2-12.8,3.6-12.8,12.8c0,11.9,1.2,23.8-0.9,35.1
	c-12,5.4-21.4,4.2-26.7-2.7c7.4,0,14.7,0,22.8,0c0-17.4,0-33.5,0-50.6c18.6,0,36.5,0,54.4,0C706.8,92.3,706.5,94.1,706.2,95.9z"/>
<path class="st3" d="M706.2,95.9c0.3-1.8,0.6-3.6,1-5.4c1.6,2.3,0.8,4.6,0.3,7C707.1,96.9,706.6,96.4,706.2,95.9z"/>
<path class="st1" d="M427.3,126.3c5.1,4.1,5.3,9.5,3.3,15c-2,5.7-7.3,5.6-12.2,5.6c-23.8,0-47.7,0-71.5,0c-4.6,0-9.3,0-10.9-5.8
	c29.7,0,59.3,0,88.8,0C428.1,135.9,425.6,130.8,427.3,126.3z"/>
<path class="st1" d="M1178.1,224.5c-11.1,2.2-22.3-4.4-33.8,0.5c-5.5,11.1-3.2,23.3-3.9,35.1c-1.6,0-3.1,0-5.1,0
	c0-14.4,0-28.3,0-43.7C1149.9,218.9,1165.7,210.8,1178.1,224.5z"/>
<path class="st1" d="M1180.2,227c-1-0.7-1.9-1.4-2.9-2.2C1179.1,224.5,1179.6,225.7,1180.2,227z"/>
<path class="st1" d="M1082,303.1c6.7,5.2,3.8,11.4,2.5,17c-2.8,3-5.7,3.1-8.7,3.1c-24.6,0-49.2,0-73.7,0c-4.4,0-8.6-0.5-10-5.7
	c29.4,0,58.9,0,89,0C1081.5,311.9,1081.8,307.5,1082,303.1z"/>
<path class="st1" d="M832.8,303.1c6.9,5.1,3.3,11.5,2.9,16.5c-3.2,3.4-6.2,3.5-9.1,3.5c-24.6,0-49.2,0-73.7,0c-4.4,0-8.6-0.5-10-5.7
	c29.4,0,58.9,0,89,0C832.3,311.9,832.5,307.5,832.8,303.1z"/>
<path class="st1" d="M823,252.1c7,5.1,3.4,11.4,3,17.5c-8.6,4.4-17.1,1.9-25.3,2.6c-2.9,0.2-5.8,0-8.7,0c-21.4,0-21.4,0-21.4,21.5
	c-4.5,0.9-4.7-2-4.7-5.2c0-7.1,0-14.2,0-22.2c19,0,37.3,0,56.2,0C822.4,261,822.7,256.5,823,252.1z"/>
<path class="st1" d="M240,219.1c-8.9-0.8-15.8-6.9-24.7-8.2c-41.7-6.1-71.1,26.6-60,67.3c0.9,3.1,1.2,6.4,1.8,9.6
	c-17.1-22.5-14-55.1,6.9-72.9C186.7,195.8,220.6,197.6,240,219.1z"/>
<path class="st1" d="M246.9,228.8c-0.8-1.2-1.5-2.5-2.3-3.7C245.4,226.3,246.2,227.6,246.9,228.8z"/>
<path class="st1" d="M157,287.7c0.6,0.9,1.3,1.7,1.9,2.6C158.3,289.4,157.7,288.5,157,287.7z"/>
<path class="st1" d="M243.4,223.1c-0.9-1-1.8-2-2.7-3C241.6,221,242.5,222,243.4,223.1z"/>
<path class="st1" d="M95.4,212.9c-14.8-1-29.3-4.5-44.3-3.7c-12.8,0.7-14.7,2-14.9,14.7c-0.1,14.6-0.1,29.3-0.2,43.9
	c-1.9,0.1-3.8,0.9-5.8-1.1c0-21,0-42.4,0-65.1c18.5,0.4,37.1-2.5,55.2,3.9C89.4,207,93.2,209,95.4,212.9z"/>
<path class="st1" d="M97.9,215.3c-1-0.7-2.1-1.5-3.1-2.2C96.4,212.9,97.2,214,97.9,215.3z"/>
</svg>
