<?xml version="1.0" encoding="utf-8"?>
<!-- Generator: Adobe Illustrator 25.0.0, SVG Export Plug-In . SVG Version: 6.00 Build 0)  -->
<svg version="1.1" id="Layer_1" xmlns="http://www.w3.org/2000/svg" xmlns:xlink="http://www.w3.org/1999/xlink" x="0px" y="0px"
	 viewBox="0 0 1234.3 570" style="enable-background:new 0 0 1234.3 570;" xml:space="preserve">
<style type="text/css">
	.st0{fill:#FFFFFF;}
</style>
<path d="M383,256c-2.1-6.1-4.3-12.2-6.4-18.3c-0.9-2.5-2.1-4.9-3-7.4c-2.2-6.9-2.6-13.7,2.1-20c6.9-9.2,24.9-13.2,34.4,0.5
	c1.1,1.6,2.5,3,4,4.4c3.4,3.1,5.8,6.6,7.3,11.1c6.5,19.4,13.3,38.7,20.4,59.2c0.9-4,1.7-6.9,2.3-9.8c4.1-20.1,8-40.1,12.3-60.2
	c2.9-13.8,16.3-19.7,28.4-17.1c6.1,1.3,11,4.6,14.3,10.1c0.7,1.1,1.6,2.2,2.6,3c4.9,3.7,7.7,8.5,9.3,14.4
	c4.7,17.2,9.4,34.3,14.2,51.5c0.2,0.8,0.6,1.5,1.4,3.4c0.9-3.2,1.5-5.3,2-7.4c5.5-20.7,11-41.5,16.6-62.2c2.4-9,8.3-14.1,17.5-15.6
	c7.7-1.2,16.4,2.8,20.5,9.5c0.6,1,1.3,1.9,2.1,2.7c2.6,2.6,5.2,5,7.9,7.6c0.2-0.7,0.8-1.8,0.9-2.9c1.2-10.8,9.1-15.5,18.9-16.5
	c0.3,0,0.7,0,1,0c18.8,0.2,37.7,0.4,56.5,0.6c6.3,0.1,12.7,0.1,19,0.2c4.6,0.1,8.9,1.2,12.8,3.8c1.6,1.1,3.4,2.3,4.4,4
	c2.3,3.8,5.5,6.5,9.3,9.4c0.5-1.2,0.9-2.4,1.3-3.5c3-8,8.1-11.7,16.7-11.7c8.5,0,17,0.1,25.5,0.6c10.3,0.6,20.6,1.3,30.8,2.8
	c13.2,1.9,24,8.5,32.2,19.1c2.1,2.7,4.7,5.2,7,7.8c4.4,4.9,7.1,10.8,9.3,17c0.3,0.9,0.7,1.7,1.5,3.6c0.4-6.1,0.7-11.1,1-16.1
	c0.3-3.7,0.4-7.3,0.9-11c1.6-11.7,8.4-17.6,20.3-17.6c6.7,0,13.3,0.7,19.9,1.2c7.1,0.5,14.3,1,21.4,1.6c11.9,1,23.9,2,35.8,3.2
	c7.1,0.7,13,3.5,17,9.9c1.8,2.8,4.8,4.9,7.5,7.6c0.7-1.2,1.2-2,1.6-2.9c4.1-8,11.3-11,19.5-10.3c13.6,1.1,27.2,2.7,40.7,4.8
	c13.4,2,26.3,5.7,38.2,12.6c9,5.2,16.7,11.9,23.5,19.8c4.9,5.7,10.1,11,14.1,17.4c7.5,12.3,11.9,25.6,12.8,40c0,0.7,0.1,1.3,0.7,2
	c1.1-7.5,2.1-14.9,3.2-22.4c2.7-18.4,5.4-36.9,8.2-55.3c0.4-2.5,1.1-4.9,1.6-7.3c1.6-7.8,7.9-13.2,16.3-13.8
	c9.7-0.7,18.2,1.7,23.7,10.6c0.7,1.1,1.7,2.1,2.7,2.8c6.8,5,8.6,12,7.5,19.9c-2.3,16.3-4.9,32.6-7.4,48.9
	c-2.6,16.8-5.2,33.6-7.8,50.3c-0.4,2.6-1,5.2-1.9,7.8c-1.9,5.6-5.4,9.5-11.4,10.7c-1.6,0.3-3.2,0.8-5.5,1.5c1.8,2.1,3.2,4.2,5,5.8
	c10.8,9.4,12.3,23.9,3.2,34.7c-9.9,11.8-29.1,10.1-36.6-1.2c-1.1-1.6-2.3-3.3-3.9-4.5c-6.4-5.1-9-11.9-8.6-19.8
	c0.4-9.2,4.1-16.8,12.7-21.1c2.1-1,4.3-1.6,6.8-2.5c-0.4-2-1-3.8-2.8-4.9c-4.7-2.9-7.3-7.2-8.3-12.5c-0.1-0.3-0.3-0.5-0.7-1.1
	c-2.1,4.7-4,9.4-6.3,13.8c-6.2,11.8-14.9,21.5-25.9,29.3c-14.3,10.2-30.6,14.1-47.6,16.5c-5,0.7-9.9,0.4-14.9-0.2
	c-13.4-1.5-26.8-3.3-40.2-4.6c-7.8-0.7-12.9-4.7-16.1-11.1c-2.3-1.9-4.4-3.5-6.7-5.3c-3.3,7-8.9,11.2-16.6,12
	c-3.8,0.4-7.7,0.1-11.5-0.2c-11-0.8-21.9-1.8-32.8-2.7c-10-0.8-19.9-1.5-29.9-2.4c-2.8-0.3-5.6-1-8.3-1.7c-4.2-1.1-7.3-3.7-9.6-7.4
	c-0.9-1.4-1.8-2.9-3.1-3.7c-6.9-4.5-8.5-11.3-8-18.8c1.3-22.6,2.9-45.2,4.3-67.8c0-0.3-0.1-0.7-0.2-1.9
	c-5.9,12.3-14.1,21.5-26.3,27.2c2.5,5.8,5,11.5,7.4,17.3c3.6,8.4,7.2,16.8,10.6,25.3c2.1,5.4,3,10.8,0.9,16.5
	c-4.8,13-23.8,17.6-33.7,5.8c-2.4-2.9-4.7-5.9-7.7-8.4c-1.9-1.7-3.2-4.2-4.3-6.6c-6.3-13.4-12.4-26.9-18.7-40.3
	c-0.6-1.4-0.6-3.4-3.2-3.7c-0.3,0.8-0.8,1.7-0.9,2.5c-0.3,3.8-0.6,7.6-0.7,11.5c-0.4,9.3-0.5,18.7-1.1,28
	c-0.5,7.7-3.1,14.6-10.5,18.7c-8.5,4.8-22.2,1.5-27.2-6.6c-2.5-4-2.6-4-7.7-7.1c-0.4,0.8-0.9,1.7-1.3,2.5c-3.7,7.2-9.6,11-17.6,11
	c-13,0-26-0.2-39-0.3c-11.2-0.1-22.3-0.4-33.5-0.3c-8.7,0.1-15.2-3.1-19.1-11.3c-7.5-4.2-10.2-11.2-10.2-19.6
	c-0.1-24.2-0.4-48.3-0.5-72.5c-0.1-11.3-0.1-22.7-0.1-34c0-1.3,0-2.6-0.9-4.2c-1,3.3-2.1,6.5-3.1,9.8c-5.9,20-11.8,39.9-17.5,59.9
	c-5,17.4-9.8,34.9-14.7,52.4c-1.7,6.2-4.2,11.9-9.4,16.1c-10.6,8.7-27.5,6.3-35.4-5c-1.2-1.7-2.7-3.2-4.3-4.6
	c-3.3-3-5.6-6.6-6.9-10.8c-2.8-9.4-5.5-18.9-8.2-28.3c-1.7-5.9-3.4-11.8-5.3-18.6c-0.6,1.6-1.1,2.3-1.3,3.1
	c-3.8,18.4-7.3,36.9-11.6,55.2c-4.2,17.7-24.4,21.5-36,13.8c-2.6-1.7-4.5-4.4-6.7-6.6c-1.3-1.3-2.4-2.7-3.8-3.9
	c-3.4-3.1-6.1-6.6-7.7-10.9c-5.7-15.3-11.4-30.5-17.1-45.8c-2.3-6.2-4.5-12.3-7.4-18.3c0.1,1.8,0.2,3.6,0.3,5.4
	c1.7,33.2-10.9,59.7-37.7,79.2c-17.8,12.9-38.1,18.3-59.8,17c-26.2-1.5-48.6-11.6-66.1-31.7c-4.2-4.8-8.5-9.4-12.3-14.4
	c-10-13.4-15.6-28.5-16.4-45.3c0-0.5-0.1-1-0.3-2.3c-1.2,2.3-2.1,4-3,5.7c-6,12.1-15.1,21.2-27.3,26.7c-6.9,3.1-14.5,4.8-21.9,6.5
	c-6.5,1.5-13.1,2.3-19.7,3.4c-1.4,0.2-2.9,0.6-4.5,1c1.4,9.8,2.9,19.3,4.2,28.8c1,7.1,1.9,14.2,2.6,21.3c0.4,4.5-0.6,8.9-2.9,12.9
	c-5.1,8.7-22.8,14.2-33.8,5.1c-4.7-3.8-8.7-8.7-12.3-13.6c-3.6-4.9-4-11.2-5-17.1c-4.4-27.6-8.7-55.2-12.9-82.9
	c-2.7-17.6-5.4-35.2-8-52.8c-0.4-3-0.5-6-0.4-9c0.3-11.4,6.6-17.5,16.2-19.9c5.8-1.4,11.8-2.1,17.7-3c10.2-1.6,20.4-3.2,30.6-4.5
	c14.8-2,29.3-1,42.8,6.1c5,2.6,9.6,6,13.8,9.7c4.6,4.1,8.6,8.8,12.6,13.5c7.4,8.5,11.6,18.5,13.4,29.6c0.2,1.3,0.5,2.5,1,4.8
	c1.1-2.8,1.9-4.7,2.7-6.6c8-20.5,21.6-36.1,41.2-46.3c17.6-9.2,36.5-12.7,56.1-11c14.9,1.3,28.9,6.4,41.5,14.7
	c7.9,5.1,14.9,11.2,20.8,18.5c4,4.9,8.1,9.6,12.3,14.4c0.4,0.5,1.1,0.7,1.6,1c0.1,0.5,0.2,0.9,0.1,0.3
	C383.5,256.7,383.2,256.3,383,256z M441.5,308.7c-0.4,0.1-0.8,0.2-1.2,0.3c-0.6-1.3-1.2-2.6-1.6-3.9c-2.7-7.9-5.3-15.8-8-23.6
	c-7.3-21.2-14.6-42.4-21.9-63.7c-2.3-6.9-7-10.9-14.2-11.3c-8.4-0.5-16.2,3.6-18.1,12.3c-0.8,3.8,0.1,7.3,1.4,10.7
	c8.6,22.7,17.2,45.4,25.8,68.1c6,15.9,11.8,31.8,17.7,47.7c1.5,3.9,2.9,7.8,4.8,11.5c3.6,7,11.5,10.9,19.2,10
	c8.8-1.1,15-6.4,17.1-14.5c0.5-2.1,1-4.2,1.4-6.3c3.8-18.6,7.6-37.2,11.5-55.7c1.6-7.6,3.4-15.2,5.3-23.7c0.8,2.2,1.3,3.4,1.7,4.6
	c1.9,6.5,3.8,13.1,5.7,19.6c5.5,19.2,11.2,38.3,16.5,57.5c2,7.2,6.1,12.5,13.1,14.4c7.7,2.1,15.5,1.5,21-5.3c2.4-2.9,4.2-6.4,5.4-10
	c2.4-7.2,4.2-14.7,6.3-22.1c7.6-26.4,15.2-52.7,22.8-79.1c2.5-8.5,5.1-16.9,7.5-25.4c1.5-5.1,1.5-10.2-2-14.7
	c-4-5.2-11.6-7.5-18.5-5.6c-6.8,1.9-9.9,7-11.6,13.2c-2.7,9.6-5.1,19.3-7.7,28.9c-5.2,19.9-10.5,39.9-15.7,59.8
	c-0.3,1.2-0.9,2.3-1.7,4.5c-2-6.6-3.7-12.1-5.3-17.7c-6.7-24-13.2-48.1-19.9-72.2c-1.8-6.7-5.8-11.6-12.4-14
	c-8.9-3.2-22.3,0.1-25.6,13.9c-1.8,7.6-3.2,15.3-4.7,23c-3.8,18.8-7.6,37.5-11.4,56.3C443.3,300.3,442.4,304.5,441.5,308.7z
	 M292.8,379.3c20.9-0.3,38.3-4.6,53.6-15.4c28.7-20.5,41.3-48.3,36.5-83.4c-1.6-11.8-6.3-22.7-13.2-32.5
	c-10.6-15.1-24.8-25.3-42-31.7c-10.2-3.8-20.9-5.7-31.8-5.4c-5,0.2-9.9,1.3-14.8,1.9c-20.3,2.7-37.4,11.7-51.1,26.7
	c-15.6,17.1-23,37.5-22,60.8c0.8,16.6,6.3,31.6,16.4,44.7C242.2,368.2,266.4,378.5,292.8,379.3z M985.5,219.3
	c-6-0.1-11.4,1.1-15.1,6.3c-2.2,3-3.1,6.5-3.5,10.3c-2.1,22.2-4.2,44.4-6.4,66.6c-2,20-4.1,40.1-6.1,60.1c-1,9.9,4.3,16.3,14.2,17.5
	c11.6,1.3,23.1,2.6,34.7,3.8c4.6,0.5,9.4,1.6,13.9,1.1c9.1-1,18.3-2.2,27-4.7c22.4-6.7,39.3-20.6,49.6-41.8
	c9.8-20.2,10.5-41,2.3-61.9c-7.4-18.9-20-33.2-38.3-42.2c-9.9-4.9-20.3-8.3-31.3-9.7C1012.9,222.9,999.2,221.1,985.5,219.3z
	 M114.1,329.4c2-0.5,3.4-0.9,4.9-1.1c7.1-1.1,14.1-2.2,21.2-3.3c13.4-2.3,26.2-6,36.5-15.8c7.9-7.5,13.5-16.4,16.1-27
	c2.5-10.3,2-20.5-0.7-30.6c-2.6-9.8-7.5-18.5-15.1-25.4c-14-12.6-30.8-16.9-49.1-14.7c-16.7,2-33.2,4.9-49.8,7.5
	c-10.2,1.6-15.4,7.5-15.1,17.7c0.2,5.6,1.2,11.2,2,16.8c2.7,18.4,5.4,36.9,8.3,55.3c3.7,23.8,7.4,47.7,11.2,71.5
	c0.6,3.6,1.2,7.3,2.4,10.7c2.4,6.8,7.4,10.5,14.7,10.5c2.5,0,5-0.2,7.4-0.8c9.1-2.4,13.6-8.9,12.4-18.3c-1.2-10.1-2.7-20.1-4.1-30.2
	C116.2,344.7,115.2,337.3,114.1,329.4z M797.7,297.8c1.8-0.8,3.1-1.3,4.2-1.9c14.7-7.4,23.8-19.3,26.2-35.5
	c2.1-14.3-1.7-27.5-11.1-38.7c-6.5-7.8-14.7-12.9-24.7-14.8c-19.6-3.8-39.4-3.8-59.2-4c-6.1-0.1-10.5,3.3-12.2,9.2
	c-1,3.5-1.6,7.2-1.8,10.8c-0.9,24.1-1.5,48.3-2.3,72.4c-0.1,2.3-0.2,4.7-0.3,7c-0.5,15.3-1.1,30.6-1.4,45.9c-0.2,9.3,4,14.1,13,16.1
	c8.1,1.8,15.1-2,17.7-9.9c0.8-2.3,1.2-4.9,1.3-7.3c0.7-13.1,1.2-26.3,1.8-39.4c0.1-1.8,0.3-3.5,0.5-5.6c2.8,0,5.1,0,7.4,0
	c3.2,0,5.8,1.4,7.5,4.1c0.9,1.4,1.8,2.8,2.5,4.3c6.4,13.9,12.7,27.8,19.1,41.8c1.2,2.7,2.3,5.6,3.9,8.1c4.1,6.7,12.1,9.1,19.2,6.2
	c7.7-3.1,11.3-10,9.3-18.2c-0.7-2.7-1.6-5.4-2.7-8c-5.3-12.6-10.8-25.1-16.2-37.6C798.8,301.3,798.4,299.7,797.7,297.8z
	 M877.7,242.1c1.3-0.2,1.7-0.4,2.2-0.3c12.8,0.9,25.6,1.8,38.3,2.8c7,0.5,13.9,1.3,20.9,1.4c8.1,0.1,14.4-5.4,15.4-12.9
	c1.2-9-4.6-16.6-14.2-17.8c-7.9-1-15.9-1.5-23.9-2.2c-11.4-0.9-22.9-1.8-34.3-2.7c-6.6-0.5-13.3-0.9-19.9-1.3
	c-3.4-0.2-6.6,0.6-9.5,2.4c-5,3-6.4,7.8-6.7,13.2c-0.7,11.1-1.5,22.3-2.2,33.4c-1,14.6-2,29.2-3,43.9c-0.8,12.6-1.7,25.2-2.5,37.9
	c-0.3,5.5-0.7,11-0.5,16.5c0.3,7,4.3,11.4,11,12.9c2.1,0.5,4.3,0.8,6.4,0.9c9.5,0.8,18.9,1.5,28.4,2.2c13.4,1.1,26.9,2.4,40.3,3.3
	c6.9,0.5,12.8-1.9,16.3-8.4c5.1-9.7-1.5-21.2-12.8-22.3c-15.8-1.4-31.5-2.7-47.3-4.1c-3.1-0.3-6.2-0.7-9.7-1.1c1-13.6,2-26.6,3-40.1
	c4.7,0.3,8.9,0.5,13,0.8c13.4,1.1,26.9,2.3,40.3,3.4c2.2,0.2,4.3,0.3,6.5,0c6.5-0.6,11.7-5.5,12.6-11.6c0.9-5.9-1.1-12.2-8.1-14.9
	c-2.8-1.1-5.7-1.9-8.7-2.1c-16.6-1.5-33.2-2.7-49.8-4.1c-1.1-0.1-2.2-0.4-3.6-0.6C876.6,260.9,877.1,251.6,877.7,242.1z
	 M630.5,289.9c3.4,0,6.2,0,9.1,0c14.3,0.3,28.6,0.6,43,0.8c3.1,0,6.4-0.2,9.4-1c5.6-1.7,8.9-5.7,9.9-11.4c1-5.6-1.2-10.1-5.7-13.5
	c-3.1-2.3-6.6-2.9-10.4-3c-16.5-0.2-33-0.4-49.5-0.6c-1.8,0-3.6,0-5.2,0c-1.1-7-0.8-26.4,0.4-29.8c0.8,0,1.6-0.2,2.4-0.1
	c10.2,0.2,20.3,0.5,30.5,0.6c9,0.1,18,0.3,27,0.1c7.6-0.2,13.6-5.4,14.7-12.5c1.2-7.7-2.4-14.5-9.8-17.1c-2.7-1-5.8-1.3-8.8-1.3
	c-21.3-0.3-42.6-0.5-64-0.7c-4.3,0-8.6,0.3-13,0.5c-7.6,0.4-11.6,6.2-12.5,11.6c-0.4,2.4-0.7,5-0.7,7.4c0,13.2,0.2,26.3,0.2,39.5
	c0.1,21,0.1,42,0.1,63c0,8-0.1,16,0.3,24c0.5,9.5,5.9,15,15,15.5c1,0.1,2,0,3,0.1c19.3,0.2,38.7,0.4,58,0.6c4.7,0,9.3,0.2,14-0.1
	c7.8-0.4,13.9-6.5,14.7-14.4c0.7-7.1-4-13.7-11.3-15.6c-2.5-0.7-5.3-1-7.9-1c-15.8-0.2-31.7-0.2-47.5-0.3c-1.8,0-3.6,0-5.6,0
	C630.5,317,630.5,303.8,630.5,289.9z M1115.9,335.7c-0.7,7.1,3.2,11.4,8.9,14.3c1.6,0.8,3.5,1.3,5.2,1.5
	c12.9,1.2,18.3-2.6,20.1-14.3c1.1-7.2,2.1-14.5,3.2-21.7c4.1-26.3,8.3-52.6,12.4-78.9c1.2-7.4-1.8-14.3-7.9-16.8
	c-3.4-1.4-7.4-2.1-11.1-2.1c-8.9-0.2-13.2,3.3-15.3,11.9c-1,4.2-1.7,8.5-2.3,12.8c-3.6,24.9-7.3,49.7-10.8,74.6
	C1117.5,323.2,1116.7,329.5,1115.9,335.7z M884.2,337c8.6,0.7,16.5,1.3,24.5,2c7,0.6,13.9,1,20.8,2c5.4,0.8,10.2,3.4,13.1,8.2
	c2,3.2,4.8,5.3,8.1,8.1c1.6-15.7,3.6-30.6,4.5-46.1c-6.7,5-11.5,6.9-16.9,6.5c-12.4-1-24.8-2.1-37.3-3.1c-4.9-0.4-9.8-0.7-15-1
	C885.4,321.5,884.8,328.9,884.2,337z M643.2,326.8c1.9,0,3.2,0,4.5,0c12.7,0.1,25.3,0.1,38,0.3c8,0.1,14.4,3.2,18.8,10.2
	c1.4,2.2,3.9,3.8,6.5,6.4c0.5-16.5,1-31.9,1.5-48.1c-1.3,1-1.9,1.3-2.3,1.8c-4.2,5.1-9.9,6.6-16,6.6c-13.5-0.1-27-0.4-40.5-0.7
	c-3.4-0.1-6.9,0-10.5,0C643.2,311.2,643.2,318.6,643.2,326.8z M1107.3,381.9c0.1,11,8.1,19,18.9,18.9c10.7-0.1,19.7-9.1,19.5-19.9
	c-0.2-10-7.7-19.5-19.8-19.4C1114,361.6,1107.5,371.1,1107.3,381.9z M961.2,255c-2.1,1.1-3.2,1.9-4.4,2.2c-3.5,0.9-7.1,2.5-10.6,2.3
	c-12.8-0.7-25.5-2-38.3-3.1c-5.7-0.5-11.5-0.9-17.5-1.3c-0.4,4.5-0.7,8.4-1,12.2c0.9,0.3,1.4,0.5,1.8,0.6
	c12.8,1.1,25.5,2.1,38.3,3.2c8.8,0.7,16.2,3.6,19.5,11.2c3.2,3,5.6,5.3,8.5,8C958.7,278.4,959.9,267.1,961.2,255z M643.1,257.2
	c6.5,0,12.3-0.1,18.1,0c9,0.1,18,0.2,26.9,0.7c5.7,0.3,11.2,2.1,14.1,7.1c2.8,4.6,7.6,6.8,10.9,11c0.4-11.9,0.8-23.8,1.2-36.5
	c-5.8,4.3-11.4,6.5-17.8,6.3c-3.2-0.1-6.3,0-9.5-0.1c-13.3-0.2-26.6-0.5-39.9-0.7c-1.3,0-2.5,0.2-4.1,0.3c0,2.4,0,4.6,0,6.7
	C643.1,253.5,643.1,255,643.1,257.2z"/>
<path d="M559.2,404.1c7.1,3.2,12.2,7.8,13,15.6c0.3,3-0.2,6.3-1,9.3c-3.3,11.2-6.8,22.3-10.3,33.4c-6.7,21.1-13.5,42.2-20.2,63.2
	c-0.4,1.1-0.6,2.2-1.1,3.3c-4.2,10.5-12.4,14.9-23.6,12.5c-6.4-1.3-12-3.8-16-9.3c-0.6-0.9-1.7-1.6-2.7-2.1
	c-10.7-5.3-13.8-13.9-10.4-26c2.3-8.3,5.3-16.5,8-24.7c7.7-23.4,15.3-46.8,23.1-70.1c0.9-2.8,2.2-5.6,3.7-8.2
	c2.8-5,7.4-7.5,13.1-7.9C545,392.3,553.2,395.6,559.2,404.1z M509.3,528.6c7.2-0.1,11.2-2.5,14.2-9.1c1.4-3,2.5-6.2,3.5-9.3
	c3-9.3,5.9-18.7,8.9-28c5.2-16.5,10.5-32.9,15.7-49.4c1.7-5.2,3.3-10.4,4.8-15.7c1.5-5.2,0.4-9.7-3.5-13.8c-4-4.2-8.9-5.7-14.3-6
	c-8.3-0.6-13.2,2.9-15.8,10.8c-6.5,19.7-13,39.5-19.5,59.2c-4.2,12.8-8.4,25.6-12.5,38.4c-3.2,10.1,0.5,18,10.6,21.3
	C504,527.7,506.7,528,509.3,528.6z"/>
<path d="M607.1,550.7c-2.5-1.5-4.8-2.6-6.7-4.1c-5.6-4.4-7-10.7-7.1-17.4c-0.2-14.5-0.2-29-0.3-43.5c-0.1-18.8-0.2-37.6-0.1-56.5
	c0-3.1,0.6-6.3,1.1-9.4c0.6-3.3,2.4-6,5.1-7.7c9.4-6.2,20.1-7.4,29.3-0.1c4.2,3.4,8.5,6.8,12.6,10.2c4.4,3.6,5.7,8.8,5.8,14.3
	c0.2,8.5,0.2,17,0.3,25.5c0.3,21.5,0.7,43,1,64.4c0.1,5.5,0.3,11-0.2,16.4c-0.9,9.5-6.3,15-15.5,17.1c-8,1.7-15.2,0.7-21.5-4.8
	C609.5,553.8,608.2,552,607.1,550.7z M632,478.3c-0.1,0-0.1,0-0.2,0c0-6.7,0.1-13.3,0-20c-0.1-6.8-0.4-13.6-0.5-20.5
	c-0.1-4-0.1-8-0.2-12c-0.1-7.9-5-11.9-11.5-13.8c-4.1-1.2-8.2-0.7-12.3,0.6c-6.7,2.3-9.7,6.1-10.2,13.2c-0.1,1.3-0.1,2.7-0.1,4
	c0,18.3,0.1,36.6,0.2,54.9c0.1,15,0.3,30,0.5,44.9c0.1,9.1,3.9,14.6,11.4,16.6c5.1,1.4,10.2,0.9,15.2-1.1c4.4-1.8,7-5,7.8-9.6
	c0.5-2.8,0.8-5.6,0.7-8.4C632.6,510.9,632.2,494.6,632,478.3z"/>
<path d="M752.3,61.4c-0.9,3.1-2.1,8.1-3.7,13c-7.5,23.1-15.1,46.1-22.7,69.2c-2.2,6.6-4.4,13.2-6.6,19.9c-0.3,0.9-0.7,1.9-1.1,2.8
	c-3.7,8.6-8.9,12-18.2,11.8c-9.1-0.2-16.5-3.5-21.4-11.5c-0.5-0.8-1.2-1.6-2-2.2c-8.2-6.3-10.1-13.9-6.9-23.3
	c4.4-12.9,8.3-26,12.4-39c5.7-17.9,11.3-35.8,17-53.7c0.9-2.7,2-5.3,3-7.9c3.5-8.6,11.5-12.5,20.7-11.1c8,1.2,15,4.2,19.3,11.8
	c0.7,1.2,2,2.3,3.1,3.1C750.5,47.9,752.1,53.3,752.3,61.4z M692.3,164.7c6.2,0.1,10.6-2.6,13.1-8.2c0.9-2,1.7-4,2.4-6
	c2.8-8.4,5.4-16.8,8.2-25.1c7.1-21.6,14.3-43.3,21.4-64.9c0.9-2.8,1.5-5.8,2-8.7c0.9-5.7-0.7-10.4-5.6-13.9
	c-4.1-2.9-8.6-4.3-13.5-4.6c-6.1-0.4-10.7,2.2-13.5,7.6c-1.4,2.8-2.6,5.8-3.5,8.8c-2.6,8.1-5.1,16.2-7.6,24.3
	c-7.3,22.8-14.6,45.6-21.8,68.5c-0.5,1.7-0.8,3.6-1,5.4c-0.6,4.4,0.9,8.1,4.2,11.2C681.2,163,686.4,164.6,692.3,164.7z"/>
<path d="M714.3,531.9c-6.3-1.8-10.1-5.9-12.1-11.8c-3.8-11.2-7.5-22.4-11.1-33.6c-5.6-17.3-11-34.5-16.5-51.8
	c-1.7-5.2-3.2-10.5-4.8-15.8c-3.3-10.6,1.6-19.1,11.2-23.7c4.8-2.3,9.9-2.8,15.1-2.1c5.9,0.8,9.9,4.4,12.7,9.6
	c7,1.8,10.7,6.7,12.9,13.3c5.7,17.6,11.5,35.1,17.3,52.6c4.9,14.8,9.8,29.7,14.7,44.5c2.4,7.2,2.1,14.1-2.9,20.3
	c-1,1.3-2.2,2.5-3.6,3.4c-4.2,2.9-8.9,4.5-14,5C726.3,542.5,719.8,540.6,714.3,531.9z M721.3,528.3c2.7,0.1,6.8-1.1,10.7-3.3
	c5.2-3,8-7.5,7.4-13.6c-0.3-3-0.8-6-1.7-8.8c-9.2-28-18.5-55.9-27.7-83.9c-1.3-3.9-2.4-8-3.9-11.8c-3.1-7.7-8.3-10.7-16.5-9.5
	c-1.6,0.2-3.3,0.5-4.9,1.1c-8,2.7-14.5,9.9-10.7,20.3c0.1,0.3,0.1,0.7,0.2,1c9,28.2,17.9,56.5,27,84.7c1.8,5.7,3.8,11.4,6.2,16.8
	C709.6,526.3,714,528.3,721.3,528.3z"/>
<path d="M645.1,95c0,13.3,0,29.8,0,46.3c0,1.8,0,3.7-0.3,5.5c-2,11.9-13,19.2-25.1,16.7c-6.4-1.3-12-3.9-15.2-10.1
	c-0.6-1.1-1.7-2-2.8-2.8c-5.1-3.7-7.5-8.7-7.7-14.9c-0.1-3.8-0.1-7.7-0.1-11.5c-0.4-26.3-0.9-52.6-1.3-78.9
	c-0.1-5.8-0.3-11.7,0.3-17.4c1.1-10.1,6-14.9,16-17c6.9-1.4,13.2-0.4,19.1,3.5c0.4,0.3,1,0.4,1.2,0.8c3.4,4.9,8.2,8.7,11.8,13.4
	c2.6,3.3,3.1,7.7,3.2,11.9C644.6,57.5,644.8,74.7,645.1,95z M596.7,82.2c0.3,0,0.6,0,1,0c0,6.7-0.1,13.3,0,20
	c0.1,10.8,0.3,21.6,0.5,32.5c0.2,9.4,5.8,14.5,15,15.4c4.6,0.5,8.9-0.7,13-2.9c2.2-1.2,4-2.7,4.5-5.1c0.8-3.4,1.5-6.8,1.5-10.3
	c0-32.1-0.2-64.3-0.4-96.4c0-3.1-0.6-6.3-0.8-9.4c-0.5-5.7-7.5-11.4-12.9-11.2c-2.7,0.1-5.3-0.1-8,0.1c-7,0.6-12,5.4-13,12.3
	c-0.3,2.3-0.3,4.6-0.3,7C596.7,50.3,596.7,66.3,596.7,82.2z"/>
<path d="M545.9,178.1c-7.1,0.1-12.6-2.8-16.3-8.9c-0.7-1.1-1.4-2.4-2.4-3c-4.2-2.4-6.3-6.4-7.8-10.6c-2.9-8.1-5.5-16.4-8.3-24.6
	c-5.5-16.7-11-33.5-16.5-50.2c-2.5-7.6-5.2-15.1-7.4-22.8c-1-3.5-1.3-7.2-1.1-10.8c0.3-6.7,4.1-11.4,10-14.4c5.9-3,12.1-4.8,18.8-3
	c4.2,1.1,7.6,3.3,10,7c0.9,1.4,1.7,3,3,3.9c5.2,3.5,7.6,8.6,9.5,14.3c4.9,15.2,9.8,30.4,14.7,45.6c3.6,11.3,7.1,22.5,10.7,33.8
	c1.9,6,3.8,12,5.6,18.1c3.1,10.8-3.1,21.6-14,24.4C551.5,177.4,548.7,177.7,545.9,178.1z M489.9,51c0.2,1.2,0.5,3.4,1.2,5.4
	c6.1,18.6,12.3,37.3,18.4,55.9c2.4,7.4,4.8,14.9,7.2,22.3c2.2,6.6,4.3,13.3,6.6,19.9c2.1,5.7,5.7,9.8,12.3,10.1
	c4.6,0.3,9-0.5,12.9-2.9c7.1-4.3,9.5-10.3,7.2-18.3c-0.3-1.1-0.8-2.2-1.1-3.3c-4.6-14.4-9.2-28.8-13.7-43.2
	c-5.3-16.6-10.5-33.3-15.9-49.9c-0.6-1.9-1.4-3.7-2.2-5.6c-2.5-5.5-7.6-8.6-13.6-8.2c-4.7,0.3-9.1,1.7-13,4.5
	C491.8,40.6,489.9,44.8,489.9,51z"/>
<path class="st0" d="M441.5,308.7c0.9-4.2,1.8-8.4,2.6-12.6c3.8-18.7,7.6-37.5,11.4-56.3c1.5-7.7,2.9-15.4,4.7-23
	c3.4-13.8,16.7-17.1,25.6-13.9c6.6,2.4,10.5,7.4,12.4,14c6.6,24,13.2,48.1,19.9,72.2c1.5,5.6,3.3,11.1,5.3,17.7
	c0.9-2.2,1.4-3.3,1.7-4.5c5.3-19.9,10.5-39.9,15.7-59.8c2.5-9.7,5-19.3,7.7-28.9c1.7-6.2,4.9-11.3,11.6-13.2
	c6.8-1.9,14.5,0.4,18.5,5.6c3.5,4.5,3.5,9.6,2,14.7c-2.4,8.5-5.1,16.9-7.5,25.4c-7.6,26.4-15.2,52.7-22.8,79.1
	c-2.1,7.4-3.9,14.8-6.3,22.1c-1.2,3.5-3,7.1-5.4,10c-5.5,6.8-13.3,7.4-21,5.3c-7.1-1.9-11.2-7.2-13.1-14.4
	c-5.3-19.2-11-38.4-16.5-57.5c-1.9-6.6-3.8-13.1-5.7-19.6c-0.4-1.2-0.9-2.5-1.7-4.6c-1.9,8.5-3.7,16.1-5.3,23.7
	c-3.9,18.6-7.6,37.1-11.5,55.7c-0.4,2.1-0.9,4.2-1.4,6.3c-2,8.1-8.3,13.4-17.1,14.5c-7.7,1-15.5-2.9-19.2-10
	c-1.9-3.7-3.3-7.6-4.8-11.5c-5.9-15.9-11.7-31.8-17.7-47.7c-8.5-22.7-17.2-45.4-25.8-68.1c-1.3-3.5-2.3-6.9-1.4-10.7
	c1.9-8.7,9.7-12.8,18.1-12.3c7.2,0.4,11.9,4.5,14.2,11.3c7.3,21.2,14.6,42.4,21.9,63.7c2.7,7.9,5.3,15.8,8,23.6
	c0.5,1.3,1.1,2.6,1.6,3.9C440.7,308.9,441.1,308.8,441.5,308.7z"/>
<path class="st0" d="M292.8,379.3c-26.4-0.8-50.5-11.2-68.3-34.2C214.3,332,208.8,317,208,300.4c-1.1-23.3,6.3-43.7,22-60.8
	c13.7-15,30.8-24,51.1-26.7c4.9-0.6,9.9-1.8,14.8-1.9c10.9-0.4,21.5,1.6,31.8,5.4c17.1,6.3,31.4,16.6,42,31.7
	c6.9,9.9,11.6,20.7,13.2,32.5c4.8,35.1-7.8,63-36.5,83.4C331.1,374.8,313.6,379,292.8,379.3z M240.7,297.1
	c-0.4,19.9,13.7,41.5,36.5,49.3c21.9,7.4,54.9-0.9,67.3-25.3c6-11.8,9-24,5.8-37.1c-6.7-27.5-34.1-46.8-66.7-40.2
	c-8.6,1.7-16.3,5.6-23.1,11.3C248.1,265.5,240.6,278.4,240.7,297.1z"/>
<path class="st0" d="M985.5,219.3c13.7,1.7,27.4,3.5,41.1,5.2c11,1.4,21.4,4.8,31.3,9.7c18.3,9,30.9,23.3,38.3,42.2
	c8.2,20.9,7.5,41.7-2.3,61.9c-10.3,21.2-27.2,35.1-49.6,41.8c-8.7,2.6-17.9,3.7-27,4.7c-4.5,0.5-9.3-0.6-13.9-1.1
	c-11.6-1.2-23.2-2.5-34.7-3.8c-9.9-1.1-15.2-7.6-14.2-17.5c2-20,4.1-40.1,6.1-60.1c2.2-22.2,4.3-44.4,6.4-66.6
	c0.4-3.7,1.3-7.2,3.5-10.3C974.1,220.4,979.5,219.2,985.5,219.3z M988.1,350.7c2.7,0.4,4.6,0.8,6.6,0.9c8.5,0.6,16.9,1.6,25.4,1.4
	c15.6-0.4,28.6-6.8,38.4-19.1c13.1-16.4,14.1-38.1,2-55.7c-7.5-10.9-17.9-17.6-30.5-21.3c-8.8-2.6-18-3-27.1-3.9
	c-1.3-0.1-2.6,0-4.3,0C995.1,285.6,991.6,318,988.1,350.7z"/>
<path class="st0" d="M114.1,329.4c1.1,7.9,2.1,15.3,3.2,22.8c1.4,10.1,2.9,20.1,4.1,30.2c1.1,9.4-3.4,15.9-12.4,18.3
	c-2.4,0.6-4.9,0.8-7.4,0.8c-7.3,0-12.4-3.7-14.7-10.5c-1.2-3.4-1.8-7.1-2.4-10.7c-3.8-23.8-7.5-47.6-11.2-71.5
	c-2.8-18.4-5.6-36.9-8.3-55.3c-0.8-5.6-1.8-11.2-2-16.8c-0.3-10.2,4.9-16.1,15.1-17.7c16.6-2.6,33.2-5.4,49.8-7.5
	c18.3-2.2,35.1,2.1,49.1,14.7c7.6,6.9,12.5,15.5,15.1,25.4c2.7,10.1,3.2,20.4,0.7,30.6c-2.6,10.6-8.2,19.5-16.1,27
	c-10.3,9.8-23.1,13.5-36.5,15.8c-7,1.2-14.1,2.2-21.2,3.3C117.5,328.5,116.1,328.9,114.1,329.4z M109.1,296.7
	c9.4-1.3,18.2-2.6,27.1-3.8c8.3-1.2,14.6-5.4,18.4-13c4-7.9,3.2-15.8-1.4-23.3c-4.5-7.3-11.2-10.6-19.8-10
	c-4.8,0.3-9.6,0.9-14.4,1.4c-5.4,0.7-10.8,1.5-16.7,2.3C104.6,265.9,106.8,281,109.1,296.7z"/>
<path class="st0" d="M797.7,297.8c0.7,1.9,1.1,3.5,1.7,5c5.4,12.5,10.8,25,16.2,37.6c1.1,2.6,2,5.3,2.7,8c2,8.1-1.6,15.1-9.3,18.2
	c-7.1,2.9-15.1,0.4-19.2-6.2c-1.6-2.5-2.6-5.4-3.9-8.1c-6.4-13.9-12.7-27.9-19.1-41.8c-0.7-1.5-1.6-2.9-2.5-4.3
	c-1.7-2.7-4.3-4.1-7.5-4.1c-2.3,0-4.6,0-7.4,0c-0.2,2.1-0.4,3.9-0.5,5.6c-0.6,13.1-1.1,26.3-1.8,39.4c-0.1,2.5-0.5,5-1.3,7.3
	c-2.6,7.9-9.6,11.7-17.7,9.9c-9.1-2-13.2-6.8-13-16.1c0.3-15.3,0.9-30.6,1.4-45.9c0.1-2.3,0.2-4.7,0.3-7c0.7-24.1,1.4-48.3,2.3-72.4
	c0.1-3.6,0.8-7.3,1.8-10.8c1.6-5.9,6.1-9.3,12.2-9.2c19.8,0.3,39.7,0.2,59.2,4c10.1,1.9,18.3,7.1,24.7,14.8
	c9.4,11.2,13.2,24.4,11.1,38.7c-2.4,16.2-11.5,28.1-26.2,35.5C800.7,296.5,799.5,297,797.7,297.8z M750.1,274.9c10.3,0,20,0,29.6,0
	c0.8,0,1.6-0.3,2.4-0.5c8.6-2.6,14-10.8,13.5-20.4c-0.6-10.9-5.9-16.7-16.8-18c-7.6-0.9-15.2-1.3-22.9-1.9c-1.3-0.1-2.6,0.1-4.2,0.2
	C751.2,247.8,750.7,261,750.1,274.9z"/>
<path class="st0" d="M877.7,242.1c-0.6,9.5-1.2,18.8-1.8,28.3c1.4,0.3,2.5,0.6,3.6,0.6c16.6,1.4,33.2,2.6,49.8,4.1
	c2.9,0.3,5.9,1.1,8.7,2.1c7,2.7,9,9.1,8.1,14.9c-0.9,6.2-6.2,11-12.6,11.6c-2.1,0.2-4.3,0.1-6.5,0c-13.4-1.1-26.9-2.3-40.3-3.4
	c-4.1-0.3-8.3-0.5-13-0.8c-1,13.4-2,26.5-3,40.1c3.5,0.4,6.6,0.9,9.7,1.1c15.8,1.4,31.5,2.7,47.3,4.1c11.3,1,17.9,12.6,12.8,22.3
	c-3.4,6.5-9.4,8.9-16.3,8.4c-13.4-0.9-26.9-2.2-40.3-3.3c-9.5-0.8-18.9-1.4-28.4-2.2c-2.1-0.2-4.3-0.5-6.4-0.9
	c-6.7-1.5-10.8-6-11-12.9c-0.2-5.5,0.1-11,0.5-16.5c0.8-12.6,1.6-25.2,2.5-37.9c1-14.6,2-29.2,3-43.9c0.7-11.1,1.5-22.3,2.2-33.4
	c0.3-5.4,1.7-10.2,6.7-13.2c2.9-1.8,6.1-2.6,9.5-2.4c6.6,0.4,13.3,0.8,19.9,1.3c11.5,0.9,22.9,1.7,34.3,2.7c8,0.7,15.9,1.2,23.9,2.2
	c9.6,1.2,15.4,8.9,14.2,17.8c-1,7.5-7.3,13-15.4,12.9c-7-0.1-13.9-0.9-20.9-1.4c-12.8-0.9-25.6-1.8-38.3-2.8
	C879.5,241.7,879,241.9,877.7,242.1z"/>
<path class="st0" d="M630.5,289.9c0,13.8,0,27.1,0,41c2,0,3.8,0,5.6,0c15.8,0.1,31.7,0.1,47.5,0.3c2.6,0,5.3,0.4,7.9,1
	c7.3,1.9,12,8.5,11.3,15.6c-0.8,8-6.9,14.1-14.7,14.4c-4.7,0.2-9.3,0.1-14,0.1c-19.3-0.2-38.7-0.4-58-0.6c-1,0-2,0-3-0.1
	c-9-0.5-14.5-6-15-15.5c-0.4-8-0.3-16-0.3-24c-0.1-21-0.1-42-0.1-63c0-13.2-0.2-26.3-0.2-39.5c0-2.5,0.2-5,0.7-7.4
	c1-5.4,4.9-11.2,12.5-11.6c4.3-0.2,8.6-0.5,13-0.5c21.3,0.2,42.6,0.4,64,0.7c2.9,0,6.1,0.3,8.8,1.3c7.3,2.6,11,9.4,9.8,17.1
	c-1.1,7.1-7.1,12.3-14.7,12.5c-9,0.2-18,0-27-0.1c-10.2-0.1-20.3-0.4-30.5-0.6c-0.8,0-1.6,0.1-2.4,0.1c-1.2,3.4-1.5,22.8-0.4,29.8
	c1.7,0,3.5,0,5.2,0c16.5,0.2,33,0.4,49.5,0.6c3.8,0,7.3,0.7,10.4,3c4.5,3.4,6.7,7.9,5.7,13.5c-1,5.7-4.4,9.8-9.9,11.4
	c-3,0.9-6.2,1.1-9.4,1c-14.3-0.2-28.6-0.5-43-0.8C636.7,289.9,633.9,289.9,630.5,289.9z"/>
<path class="st0" d="M1115.9,335.7c0.8-6.3,1.6-12.5,2.5-18.8c3.6-24.9,7.2-49.7,10.8-74.6c0.6-4.3,1.3-8.6,2.3-12.8
	c2.1-8.6,6.4-12.1,15.3-11.9c3.7,0.1,7.7,0.7,11.1,2.1c6.1,2.6,9,9.4,7.9,16.8c-4.1,26.3-8.3,52.6-12.4,78.9
	c-1.1,7.2-2.1,14.5-3.2,21.7c-1.8,11.7-7.3,15.5-20.1,14.3c-1.8-0.2-3.6-0.7-5.2-1.5C1119,347.1,1115.2,342.8,1115.9,335.7z"/>
<path class="st0" d="M1107.3,381.9c0.3-10.8,6.7-20.2,18.6-20.4c12.1-0.1,19.6,9.4,19.8,19.4c0.2,10.8-8.7,19.8-19.5,19.9
	C1115.4,400.8,1107.4,392.8,1107.3,381.9z"/>
<path class="st0" d="M509.3,528.6c-2.6-0.6-5.3-0.9-7.8-1.7c-10.1-3.3-13.8-11.2-10.6-21.3c4.1-12.8,8.3-25.6,12.5-38.4
	c6.5-19.7,13-39.5,19.5-59.2c2.6-7.9,7.5-11.4,15.8-10.8c5.4,0.4,10.4,1.9,14.3,6c3.9,4.1,4.9,8.6,3.5,13.8
	c-1.5,5.3-3.2,10.5-4.8,15.7c-5.2,16.5-10.5,32.9-15.7,49.4c-3,9.3-5.9,18.7-8.9,28c-1,3.2-2.2,6.3-3.5,9.3
	C520.5,526.1,516.5,528.5,509.3,528.6z"/>
<path class="st0" d="M632,478.3c0.3,16.3,0.6,32.6,0.8,48.9c0,2.8-0.3,5.7-0.7,8.4c-0.8,4.6-3.4,7.9-7.8,9.6c-4.9,2-10,2.5-15.2,1.1
	c-7.6-2-11.3-7.5-11.4-16.6c-0.2-15-0.4-30-0.5-44.9c-0.1-18.3-0.1-36.6-0.2-54.9c0-1.3,0-2.7,0.1-4c0.5-7,3.5-10.9,10.2-13.2
	c4-1.4,8.1-1.8,12.3-0.6c6.5,1.9,11.4,5.9,11.5,13.8c0.1,4,0.1,8,0.2,12c0.2,6.8,0.4,13.6,0.5,20.5c0.1,6.7,0,13.3,0,20
	C631.9,478.3,631.9,478.3,632,478.3z"/>
<path class="st0" d="M692.3,164.7c-5.8-0.1-11.1-1.7-15.5-5.8c-3.3-3.1-4.7-6.8-4.2-11.2c0.2-1.8,0.5-3.6,1-5.4
	c7.2-22.8,14.6-45.6,21.8-68.5c2.6-8.1,5-16.2,7.6-24.3c1-3,2.1-6,3.5-8.8c2.8-5.4,7.4-8,13.5-7.6c4.9,0.3,9.4,1.7,13.5,4.6
	c4.9,3.5,6.6,8.2,5.6,13.9c-0.5,2.9-1.1,5.9-2,8.7c-7.1,21.7-14.3,43.3-21.4,64.9c-2.8,8.4-5.4,16.8-8.2,25.1c-0.7,2-1.5,4.1-2.4,6
	C702.8,162.1,698.4,164.8,692.3,164.7z"/>
<path class="st0" d="M721.3,528.3c-7.2,0-11.7-2-13.9-7.1c-2.4-5.5-4.4-11.1-6.2-16.8c-9.1-28.2-18-56.4-27-84.7
	c-0.1-0.3-0.1-0.7-0.2-1c-3.8-10.4,2.7-17.6,10.7-20.3c1.6-0.5,3.2-0.8,4.9-1.1c8.2-1.1,13.5,1.8,16.5,9.5c1.5,3.9,2.6,7.9,3.9,11.8
	c9.2,28,18.5,55.9,27.7,83.9c0.9,2.8,1.4,5.8,1.7,8.8c0.6,6.1-2.2,10.6-7.4,13.6C728.1,527.3,723.9,528.4,721.3,528.3z"/>
<path class="st0" d="M596.7,82.2c0-16,0-32,0-47.9c0-2.3,0-4.7,0.3-7c1-7,6-11.7,13-12.3c2.6-0.2,5.3,0,8-0.1
	c5.4-0.2,12.5,5.5,12.9,11.2c0.2,3.1,0.8,6.3,0.8,9.4c0.2,32.1,0.3,64.3,0.4,96.4c0,3.4-0.7,6.9-1.5,10.3c-0.6,2.3-2.3,3.9-4.5,5.1
	c-4.1,2.2-8.4,3.3-13,2.9c-9.2-0.9-14.8-6-15-15.4c-0.2-10.8-0.4-21.6-0.5-32.5c-0.1-6.7,0-13.3,0-20
	C597.4,82.2,597,82.2,596.7,82.2z"/>
<path class="st0" d="M489.9,51c-0.1-6.1,1.8-10.3,6.1-13.4c3.9-2.7,8.3-4.2,13-4.5c6.1-0.3,11.1,2.8,13.6,8.2
	c0.8,1.8,1.6,3.7,2.2,5.6c5.3,16.6,10.6,33.3,15.9,49.9c4.6,14.4,9.2,28.8,13.7,43.2c0.4,1.1,0.8,2.2,1.1,3.3c2.3,8-0.1,14-7.2,18.3
	c-4,2.4-8.4,3.2-12.9,2.9c-6.5-0.4-10.2-4.4-12.3-10.1c-2.4-6.6-4.5-13.2-6.6-19.9c-2.4-7.4-4.7-14.9-7.2-22.3
	c-6.1-18.6-12.3-37.3-18.4-55.9C490.4,54.3,490.2,52.2,489.9,51z"/>
<path d="M240.7,297.1c-0.1-18.7,7.4-31.6,19.9-42.1c6.7-5.7,14.5-9.6,23.1-11.3c32.6-6.5,60.1,12.8,66.7,40.2
	c3.2,13.1,0.2,25.4-5.8,37.1c-12.4,24.4-45.4,32.7-67.3,25.3C254.4,338.6,240.3,317,240.7,297.1z M304.5,255.8
	c-15.8-0.1-28.7,6.4-39.2,17.8c-6.4,7-10.5,15.2-11.7,24.9c-1.2,9.9,0.6,19.1,4.6,28.2c2.1,4.8,5.3,8.4,9.8,10.9
	c19.2,11,38.2,9.7,56.8-1.3c12-7.1,18.4-18.4,21.4-31.8c2.7-11.7,0.8-22.8-5.5-33c-1.2-1.9-2.9-3.7-4.7-5
	C326.8,259.2,316.2,255.8,304.5,255.8z"/>
<path d="M988.1,350.7c3.5-32.7,7-65,10.5-97.7c1.7,0,3-0.1,4.3,0c9.1,1,18.3,1.3,27.1,3.9c12.5,3.7,23,10.4,30.5,21.3
	c12.1,17.6,11.2,39.2-2,55.7c-9.9,12.4-22.8,18.7-38.4,19.1c-8.4,0.2-16.9-0.9-25.4-1.4C992.8,351.5,990.8,351,988.1,350.7z
	 M1011.6,266.8c-1.6,4.6-9.5,77.4-8.7,81.9c5.3,0.1,10.8,0.5,16.2,0.4c17-0.6,30.2-8.1,39.5-22.5c8.3-13,8.1-31.8-0.7-44.4
	c-1-1.5-2.4-2.7-3.9-3.7C1041.4,269.1,1026.7,267.2,1011.6,266.8z"/>
<path d="M109.1,296.7c-2.3-15.7-4.5-30.7-6.8-46.3c5.9-0.8,11.3-1.6,16.7-2.3c4.8-0.6,9.6-1.1,14.4-1.4c8.6-0.6,15.3,2.7,19.8,10
	c4.6,7.4,5.4,15.3,1.4,23.3c-3.8,7.5-10,11.8-18.4,13C127.3,294.1,118.5,295.4,109.1,296.7z M115.5,263c1.5,9.9,2.8,18.8,4.2,28.1
	c5.6-0.8,10.7-1.4,15.8-2.2c2.1-0.4,4.2-1,6.2-1.9c9.5-4.1,14.5-17,8.5-26.1c-2.5-0.2-5.4-1-8.3-0.8
	C133.3,260.8,124.8,261.9,115.5,263z"/>
<path d="M750.1,274.9c0.5-13.9,1-27.2,1.5-40.7c1.7-0.1,3-0.3,4.2-0.2c7.6,0.6,15.3,1,22.9,1.9c10.9,1.3,16.2,7.1,16.8,18
	c0.5,9.6-4.9,17.9-13.5,20.4c-0.8,0.2-1.6,0.5-2.4,0.5C770.1,274.9,760.5,274.9,750.1,274.9z M763.2,270.9c5.6,0,10.6,0.2,15.6-0.1
	c4.4-0.3,7.8-2.8,10.1-6.5c2.9-4.5,2.9-9.3,1.7-14.7c-8.8-1-17.4-2-26.3-1.7C763.9,255.8,763.6,263,763.2,270.9z"/>
</svg>
