<?xml version="1.0" encoding="utf-8"?>
<!-- Generator: Adobe Illustrator 25.0.0, SVG Export Plug-In . SVG Version: 6.00 Build 0)  -->
<svg version="1.1" id="Layer_1" xmlns="http://www.w3.org/2000/svg" xmlns:xlink="http://www.w3.org/1999/xlink" x="0px" y="0px"
	 viewBox="0 0 1234.3 570" style="enable-background:new 0 0 1234.3 570;" xml:space="preserve">
<style type="text/css">
	.st0{fill:#4A445A;}
	.st1{fill:#261E3C;}
</style>
<path class="st0" d="M580.8,563.8c0-92.8,0-185.6-0.1-278.3c0-23.9,0-47.7,0-71.6c-0.1-43.4-0.2-86.9-0.3-130.3
	c25.7-0.1,51.4-0.2,77.1-0.3c0.2,5.2,0.4,10.4,0.4,15.6c0,71,0,142.1,0.1,213.1c0,4.1-1.7,9.5,3.1,11.4c4.1,1.6,6.1-3.5,8.7-6
	c27.4-27.1,51.2-57.5,77.2-85.8c42.7-46.6,83.3-95.3,124.7-143.1c3.4-4,7.3-5.2,12.4-5.1c26.7,0.4,53.3,0.4,80,0.6
	c-1.2,2.4-2,5.2-3.7,7.3c-17.7,21-35.6,41.9-53.5,62.9c-19.9,22.3-40,44.5-59.7,67c-16.6,19-33,38.2-49.2,57.6
	c-5.9,7-7.4,13.5-0.7,22.3c11.7,15.4,21.5,32.2,32,48.5c24.7,38.3,48.1,77.4,74.5,114.7c21,33.3,42.1,66.6,63.1,99.9
	c-31.5,0-62.9,0-94.4,0c-0.3-1.4-0.1-3-0.8-4.1c-17.6-26.6-36.1-52.7-52.8-79.9c-24.2-39.2-49.5-77.7-74.3-116.6
	c-6.3-9.9-10.1-11.9-18.1-2.6c-21.5,24.7-43.4,49.2-65.4,73.5c-3.8,4.2-2.9,8.7-3,13.3c-0.1,38.8,0,77.6,0,116.4
	C632.2,563.8,606.5,563.8,580.8,563.8z"/>
<path class="st0" d="M337.5,450.4c-13.7,10.2-24.6,23.4-36.7,35.2c-5,4.9-9.9,7.3-17.3,7.3c-84.8-0.3-169.5-0.3-254.3,0
	c-9.1,0-12.4-2-12-11.6c0.8-16.1,0.8-32.2,0-48.3c-0.5-9.5,2.7-11.7,11.9-11.6c72.4,0.4,144.8,0.2,217.1,0.2c18.3,0,42.8-24,42.8-42
	c0-18,0-36,0-54c0-23.5-23.8-47.8-47.4-47.9c-52.4-0.2-104.8-0.3-157.1,0.2c-9.4,0.1-15.8-2.7-22.3-9.2
	c-20.3-20.4-41.3-40.3-62-60.4c0-41.7,0-83.4,0-125.1c13.3-13.6,27.9-25.9,40.4-40.4C59,21.7,79.5,9.8,111,11.2
	c75.5,3.4,151.2,1.5,226.8,1.7c-0.1,23.6-0.2,47.1-0.3,70.7c-72.4-0.1-144.8,0-217.1-0.4c-9.3-0.1-15.3,3.4-22.4,9
	c-16.8,13.2-24,29-20.8,50.2c1.3,8.3,0.2,17,0.2,25.5c0.1,16,25.1,40.6,41.4,40.6c53.8,0,107.6,0.2,161.4-0.2
	c7.3,0,12.3,2.1,17.4,7.1c13.1,12.9,25,27.1,39.8,38.2c5.1,5.6,9.5,11.9,15.3,16.5c11,8.8,14.3,19.4,13.8,33.2
	c-1,25.9-1.8,51.9,0.1,77.7c1.9,26.6-2.4,49.1-26,64.9C339.3,446.8,338.6,448.8,337.5,450.4z"/>
<path class="st1" d="M964,83.8c89.6-0.2,179.1-0.3,268.7-0.5c0,24.6,0,49.3,0,73.9c-11.4,8.6-17,21.8-25.9,32.3
	c-38,44.6-71.2,92.8-107.8,138.4c-20.4,25.4-40.1,51.3-59.8,77.3c-16.6,21.8-32.6,44.1-49.4,65.8c-4.8,6.2-3.9,13.1-2.3,18.8
	c1.7,6.1,9,2.8,13.7,2.8c77.2,0.2,154.4,0.2,231.5,0.2c0,20.8-0.4,41.7,0.2,62.5c0.2,7.1-1.6,8.7-8.8,8.7
	c-85.8-0.3-171.6-0.2-257.3-0.2c-21-33.3-42.1-66.6-63.1-99.9c12.9-16.9,25.7-33.9,38.7-50.7c25.6-33.1,51.2-66.1,76.9-99.1
	c16.8-21.6,33.8-43.1,50.6-64.7c18.5-23.8,36.3-48.1,55.4-71.5c5.4-6.6,5.7-13.1,3.7-19.5c-2.3-7.1-9.9-3.9-15.1-3.9
	c-69-0.4-138-0.4-206.9-0.6c17.8-20.9,35.7-41.8,53.5-62.9C962,89,962.8,86.2,964,83.8z"/>
<path class="st1" d="M337.8,12.9c43.8-0.2,87.6-0.6,131.4-0.6c59-0.1,118.1,0.2,177.1-0.2c9.2-0.1,12.2,2.1,11.8,11.6
	c-0.9,19.8-0.5,39.7-0.7,59.6c-25.7,0.1-51.4,0.2-77.1,0.3c-51.9-0.1-103.7,0-155.6-0.3c-6.7,0-10.2,0.6-10.1,8.9
	c0.5,36.9,0.4,73.8,0.1,110.7c-0.1,8.7,3.2,11.5,11.8,11.5c51.4-0.3,102.8-0.3,154.1-0.4c0,23.9,0,47.7,0,71.6
	c-50.9-0.1-101.7,0.1-152.6-0.5c-10.6-0.1-13.6,2.5-13.5,13.2c0.6,60.5,0,121,0.5,181.5c0.1,10.1-1.7,14.1-12.9,13.4
	c-17.5-1.1-35.2-0.7-52.7-0.1c-8.8,0.3-12.9-1.4-12-11.3c0.9-10.3,0.1-20.8,0-31.2c1-1.5,1.8-3.6,3.2-4.6
	c23.6-15.8,27.9-38.4,26-64.9c-1.9-25.8-1.1-51.8-0.1-77.7c0.5-13.8-2.7-24.5-13.8-33.2c-5.8-4.6-10.2-10.9-15.3-16.5
	c0-56.7,0-113.3,0.1-170C337.7,60,337.8,36.4,337.8,12.9z"/>
</svg>
