<?xml version="1.0" encoding="utf-8"?>
<!-- Generator: Adobe Illustrator 25.0.0, SVG Export Plug-In . SVG Version: 6.00 Build 0)  -->
<svg version="1.1" id="Layer_1" xmlns="http://www.w3.org/2000/svg" xmlns:xlink="http://www.w3.org/1999/xlink" x="0px" y="0px"
	 viewBox="0 0 1234.3 502" style="enable-background:new 0 0 1234.3 502;" xml:space="preserve">
<style type="text/css">
	.st0{fill:#FF0000;}
	.st1{fill:#1800FF;}
	.st2{fill:#484848;}
</style>
<path class="st0" d="M332.5,135.2H253v-17.6c6.7-5.3,12.8-10.4,18.1-15.1c5.3-4.7,10.1-9.2,14.1-13.5c5.3-5.6,9.1-10.5,11.5-14.7
	s3.6-8.5,3.6-13c0-5-1.5-8.9-4.5-11.6s-7.2-4-12.6-4c-2.8,0-5.4,0.3-7.8,1c-2.4,0.7-4.9,1.5-7.4,2.6s-4.6,2.3-6.3,3.4
	s-3.1,2-3.9,2.6h-2.1V31.7c3.1-1.5,7.8-2.9,14.3-4.5c6.5-1.5,12.7-2.3,18.7-2.3c12.8,0,22.6,2.9,29.2,8.6s9.9,13.8,9.9,24.1
	c0,6.4-1.5,12.7-4.5,18.8s-8,12.7-15,19.7c-4.4,4.3-8.6,8.1-12.7,11.5c-4.1,3.4-7.1,5.8-8.9,7.2h45.8L332.5,135.2L332.5,135.2z"/>
<path class="st0" d="M431.2,61.2c0,5-0.8,9.8-2.4,14.4s-3.9,8.4-6.9,11.4c-1.8,1.9-3.9,3.6-6.1,5.2s-4.6,3-7.3,4.1
	c-2.7,1.1-5.6,2-8.7,2.6s-6.6,0.9-10.5,0.9h-14.2v35.4H348V27h42c6.2,0,11.6,0.6,16.2,1.7c4.5,1.1,8.6,2.9,12.3,5.4
	c4.1,2.7,7.2,6.3,9.4,10.9C430.1,49.5,431.2,54.9,431.2,61.2z M403.3,61.8c0-3.1-0.7-5.7-2.2-7.9c-1.5-2.2-3.2-3.7-5.2-4.5
	c-2.6-1.1-5-1.8-7.4-1.9c-2.3-0.2-5.5-0.3-9.6-0.3h-3.8v32.4h1.9c2.6,0,5,0,7.3-0.1c2.3,0,4.3-0.2,6-0.5c1.5-0.2,3-0.7,4.6-1.4
	c1.6-0.7,2.9-1.5,3.7-2.4c1.8-1.8,3.1-3.7,3.7-5.6C403,67.7,403.3,65.1,403.3,61.8z"/>
<path class="st0" d="M510.1,135.2V47.7h-32V27h91.1v20.6h-32v87.5L510.1,135.2L510.1,135.2z"/>
<path class="st0" d="M580.4,135.2V27h73.1v20.6h-46.1v19h42.5v20.6h-42.5v27.3h46.1v20.6L580.4,135.2L580.4,135.2z"/>
<path class="st0" d="M692.7,135.2V47.7h-32V27h91.1v20.6h-32v87.5L692.7,135.2L692.7,135.2z"/>
<path class="st0" d="M863,135.2h-33.1l-30.1-39.7H790v39.7h-27V27h43.5c6,0,11.2,0.4,15.7,1.1c4.5,0.8,8.6,2.3,12.3,4.7
	c3.9,2.5,6.9,5.6,9.2,9.4s3.4,8.6,3.4,14.5c0,8.3-1.9,15-5.6,20.2s-8.7,9.3-15,12.3L863,135.2z M819.3,60.2c0-2.7-0.5-5-1.6-7
	c-1-2-2.8-3.5-5.2-4.5c-1.7-0.7-3.6-1.2-5.7-1.4c-2.1-0.2-4.7-0.3-7.8-0.3h-9v29.1h7.8c3.8,0,7-0.2,9.6-0.7s4.9-1.4,6.7-2.9
	c1.7-1.4,3-3,3.9-4.9C818.8,65.7,819.3,63.2,819.3,60.2z"/>
<path class="st0" d="M924.9,135.2h-58.2v-18.9h15.5V45.9h-15.5V27h58.2v18.9h-15.5v70.4h15.5V135.2z"/>
<path class="st0" d="M976.3,137.2c-8.3,0-15.6-0.8-21.8-2.4c-6.3-1.6-12.1-3.6-17.5-6v-25.7h2.5c5.4,4.6,11.4,8.1,17.9,10.6
	s12.9,3.7,19,3.7c1.5,0,3.6-0.2,6.1-0.5s4.6-0.9,6.1-1.6c1.9-0.8,3.5-2,4.8-3.5s2-3.4,2-5.8c0-2.7-1.1-4.9-3.2-6.6
	c-2.1-1.7-4.7-2.9-7.6-3.7c-3.7-1-7.6-1.9-11.8-2.8s-8.1-1.9-11.7-3.2c-8.4-3-14.4-6.9-18-11.9s-5.4-11.2-5.4-18.7
	c0-10.1,4.3-18.3,12.9-24.6c8.6-6.3,19.3-9.4,32.1-9.4c6.4,0,12.8,0.7,19.2,2s12.1,3.1,17.1,5.3V57h-2.4c-4-3.4-8.9-6.3-14.7-8.7
	c-5.8-2.4-11.7-3.6-17.8-3.6c-2.4,0-4.5,0.2-6.4,0.5s-3.9,1-6,2c-1.7,0.8-3.2,1.9-4.4,3.4s-1.9,3.2-1.9,5.1c0,2.8,1,5,2.9,6.6
	c2,1.6,5.7,3.1,11.4,4.4c3.6,0.8,7.1,1.6,10.5,2.4s7,1.8,10.8,3.2c7.5,2.7,13.1,6.4,16.7,10.9c3.7,4.6,5.5,10.6,5.5,18.1
	c0,10.7-4.2,19.4-12.7,25.9C1002.1,133.9,990.7,137.2,976.3,137.2z"/>
<path class="st0" d="M326,313.7l36.5-108.1h29.6l36.5,108.1h-28l-6.8-22.1h-34l-6.8,22.1H326z M388.1,272l-11-35.7L366,272H388.1z"
	/>
<path class="st0" d="M539.5,313.7h-33.1L476.2,274h-9.7v39.7h-27V205.5H483c6,0,11.2,0.4,15.7,1.1c4.5,0.8,8.6,2.3,12.3,4.7
	c3.9,2.5,6.9,5.6,9.2,9.4c2.3,3.8,3.4,8.6,3.4,14.5c0,8.3-1.9,15-5.6,20.2c-3.7,5.2-8.7,9.3-15,12.3L539.5,313.7z M495.8,238.7
	c0-2.7-0.5-5-1.6-7c-1-2-2.8-3.5-5.2-4.5c-1.7-0.7-3.6-1.2-5.7-1.4s-4.7-0.3-7.8-0.3h-9.1v29.1h7.8c3.8,0,7-0.2,9.6-0.7
	s4.9-1.4,6.7-2.9c1.7-1.4,3-3,3.9-4.9C495.3,244.2,495.8,241.7,495.8,238.7z"/>
<path class="st0" d="M594.1,315.8c-16.2,0-29.1-4.9-38.6-14.7c-9.5-9.8-14.3-23.6-14.3-41.4c0-17.1,4.8-30.8,14.3-41
	c9.6-10.2,22.5-15.3,38.7-15.3c4.3,0,8.2,0.2,11.6,0.7c3.4,0.5,6.7,1.2,9.9,2c2.5,0.7,5.2,1.7,8.1,3c2.9,1.3,5.3,2.3,7,3.3v25.8H628
	c-1.3-1.2-3-2.6-4.9-4.2c-2-1.6-4.2-3.2-6.8-4.8c-2.5-1.5-5.3-2.9-8.3-4s-6.2-1.6-9.5-1.6c-3.9,0-7.5,0.6-10.8,1.9s-6.4,3.4-9.3,6.4
	c-2.7,2.8-4.9,6.5-6.6,11.2c-1.7,4.7-2.6,10.2-2.6,16.6c0,6.7,0.9,12.4,2.7,17s4.1,8.3,7,11.1c2.8,2.7,5.9,4.7,9.4,5.9
	c3.5,1.2,6.9,1.8,10.3,1.8c3.6,0,7-0.6,10.2-1.8c3.2-1.2,6-2.5,8.2-4c2.4-1.5,4.6-3,6.4-4.6c1.8-1.5,3.4-2.9,4.8-4.1h2.5v25.4
	c-2,0.9-4.3,2-6.9,3.2c-2.6,1.2-5.3,2.2-8.1,3c-3.4,1-6.6,1.8-9.5,2.3C603.4,315.5,599.3,315.8,594.1,315.8z"/>
<path class="st0" d="M635.1,313.7l36.5-108.1h29.6l36.5,108.1h-28l-6.8-22.1h-34l-6.8,22.1H635.1z M697.2,272l-11-35.7l-11,35.7
	H697.2z"/>
<path class="st0" d="M845.2,259.7c0,10.1-2.2,19.1-6.6,27.1c-4.4,8-10,14.1-16.7,18.3c-5.6,3.6-11.7,6-18.3,7s-13.6,1.6-21.1,1.6
	h-33.8V205.5h33.6c7.6,0,14.7,0.5,21.4,1.5s12.9,3.3,18.7,7c7.1,4.6,12.7,10.7,16.9,18.4C843.1,240.2,845.2,249.3,845.2,259.7z
	 M817.3,259.5c0-7.1-1.2-13.2-3.7-18.3c-2.4-5.1-6.2-9-11.3-11.9c-3.7-2-7.5-3.1-11.6-3.3c-4-0.2-8.9-0.3-14.5-0.3h-0.5v67.7h0.5
	c6.1,0,11.2-0.1,15.4-0.3c4.2-0.2,8.2-1.5,11.9-3.9c4.5-2.8,7.8-6.7,10.2-11.6S817.3,266.6,817.3,259.5z"/>
<path class="st0" d="M861.2,313.7V205.5h73.1v20.6h-46.1v19h42.5v20.6h-42.5V293h46.1v20.6h-73.1V313.7z"/>
<path class="st0" d="M392.8,492.2h-27v-71.7l-19.7,46.3h-18.5l-19.7-46.3v71.7h-25.6V384h31.3l24,53.4l23.9-53.4h31.3L392.8,492.2
	L392.8,492.2z"/>
<path class="st0" d="M403.6,492.2L440.1,384h29.6l36.5,108.1h-28l-6.8-22.1h-34l-6.8,22.1h-27V492.2z M465.6,450.5l-11-35.7
	l-11,35.7H465.6z"/>
<path class="st0" d="M563.6,494.3c-16.2,0-29.1-4.9-38.6-14.7c-9.5-9.8-14.3-23.6-14.3-41.4c0-17.1,4.8-30.8,14.3-41
	c9.6-10.2,22.5-15.3,38.7-15.3c4.3,0,8.2,0.2,11.6,0.7c3.4,0.5,6.7,1.2,9.9,2c2.5,0.7,5.2,1.7,8.1,3s5.3,2.3,7,3.3v25.8h-2.8
	c-1.3-1.2-3-2.6-4.9-4.2c-2-1.6-4.2-3.2-6.8-4.8c-2.5-1.5-5.3-2.9-8.3-4s-6.2-1.6-9.5-1.6c-3.9,0-7.5,0.6-10.8,1.9s-6.4,3.4-9.3,6.4
	c-2.7,2.8-4.9,6.5-6.6,11.2c-1.7,4.7-2.6,10.2-2.6,16.6c0,6.7,0.9,12.4,2.7,17s4.1,8.3,7,11.1c2.8,2.7,5.9,4.7,9.4,5.9
	c3.5,1.2,6.9,1.8,10.3,1.8c3.6,0,7-0.6,10.2-1.8c3.2-1.2,6-2.5,8.2-4c2.4-1.5,4.6-3,6.4-4.6c1.8-1.5,3.4-2.9,4.8-4.1h2.5V485
	c-2,0.9-4.3,2-6.9,3.2c-2.6,1.2-5.3,2.2-8.1,3c-3.4,1-6.6,1.8-9.5,2.3C572.9,494,568.8,494.3,563.6,494.3z"/>
<path class="st0" d="M707.6,492.2h-27.2v-47.9h-37v47.9h-27.2V384h27.2v39.6h37V384h27.2V492.2z"/>
<path class="st0" d="M783.9,492.2h-58.2v-18.9h15.5v-70.4h-15.5V384h58.2v18.9h-15.5v70.4h15.5V492.2z"/>
<path class="st0" d="M894.5,492.2h-26.1l-41.7-75.4v75.4h-24.8V384h33.3l34.5,62v-62h24.8V492.2z"/>
<path class="st0" d="M916.5,492.2V384h73.1v20.6h-46.1v19H986v20.6h-42.5v27.3h46.1v20.6h-73.1V492.2z"/>
<path class="st1" d="M315.7,120.3h-79.5v-17.6c6.7-5.3,12.8-10.4,18.1-15.1c5.3-4.7,10.1-9.2,14.1-13.5c5.3-5.6,9.1-10.5,11.5-14.7
	s3.6-8.5,3.6-13c0-5-1.5-8.9-4.5-11.6c-3-2.7-7.2-4-12.6-4c-2.8,0-5.4,0.3-7.8,1s-4.9,1.5-7.4,2.6s-4.6,2.3-6.3,3.4s-3.1,2-3.9,2.6
	h-2.1V16.8c3.1-1.5,7.8-2.9,14.3-4.5c6.5-1.5,12.7-2.3,18.7-2.3c12.8,0,22.6,2.9,29.2,8.6s9.9,13.8,9.9,24.1
	c0,6.4-1.5,12.7-4.5,18.8c-3,6.1-8,12.7-15,19.7c-4.4,4.3-8.6,8.1-12.7,11.5s-7.1,5.8-8.9,7.2h45.8L315.7,120.3L315.7,120.3z"/>
<path class="st1" d="M414.4,46.3c0,5-0.8,9.8-2.4,14.4s-3.9,8.4-6.9,11.4c-1.8,1.9-3.9,3.6-6.1,5.2s-4.6,3-7.3,4.1
	c-2.7,1.1-5.6,2-8.7,2.6s-6.6,0.9-10.5,0.9h-14.2v35.4h-27.2V12.2h42c6.2,0,11.6,0.6,16.2,1.7c4.5,1.1,8.6,2.9,12.3,5.4
	c4.1,2.7,7.2,6.3,9.4,10.9C413.3,34.7,414.4,40.1,414.4,46.3z M386.5,47c0-3.1-0.7-5.7-2.2-7.9s-3.2-3.7-5.2-4.5
	c-2.6-1.1-5-1.8-7.4-1.9c-2.3-0.2-5.5-0.3-9.6-0.3h-3.8v32.4h1.9c2.6,0,5,0,7.3-0.1c2.3,0,4.3-0.2,6-0.5c1.5-0.2,3-0.7,4.6-1.4
	c1.6-0.7,2.9-1.5,3.7-2.4c1.8-1.8,3.1-3.7,3.7-5.6C386.2,52.9,386.5,50.3,386.5,47z"/>
<path class="st1" d="M493.2,120.3V32.8h-32V12.2h91.1v20.6h-32v87.5H493.2z"/>
<path class="st1" d="M563.5,120.3V12.2h73.1v20.6h-46.1v19H633v20.6h-42.5v27.3h46.1v20.6H563.5z"/>
<path class="st1" d="M675.8,120.3V32.8h-32V12.2H735v20.6h-32v87.5H675.8z"/>
<path class="st1" d="M846.2,120.3H813l-30.1-39.7h-9.7v39.7h-27V12.2h43.5c6,0,11.2,0.4,15.7,1.1c4.5,0.8,8.6,2.3,12.3,4.7
	c3.9,2.5,6.9,5.6,9.2,9.4c2.3,3.8,3.4,8.6,3.4,14.5c0,8.3-1.9,15-5.6,20.2c-3.7,5.2-8.7,9.3-15,12.3L846.2,120.3z M802.4,45.3
	c0-2.7-0.5-5-1.6-7s-2.8-3.5-5.2-4.5c-1.7-0.7-3.6-1.2-5.7-1.4c-2.1-0.2-4.7-0.3-7.8-0.3H773v29.1h7.8c3.8,0,7-0.2,9.6-0.7
	s4.9-1.4,6.7-2.9c1.7-1.4,3-3,3.9-4.9C802,50.8,802.4,48.3,802.4,45.3z"/>
<path class="st1" d="M908,120.3h-58.2v-18.9h15.5V31.1h-15.5V12.2H908v18.9h-15.5v70.4H908V120.3z"/>
<path class="st1" d="M959.5,122.3c-8.3,0-15.6-0.8-21.8-2.4c-6.3-1.6-12.1-3.6-17.5-6V88.2h2.5c5.4,4.6,11.4,8.1,17.9,10.6
	s12.9,3.7,19,3.7c1.5,0,3.6-0.2,6.1-0.5s4.6-0.9,6.1-1.6c1.9-0.8,3.5-2,4.8-3.5s2-3.4,2-5.8c0-2.7-1.1-4.9-3.2-6.6
	c-2.1-1.7-4.7-2.9-7.6-3.7c-3.7-1-7.6-1.9-11.8-2.8s-8.1-1.9-11.7-3.2c-8.4-3-14.4-6.9-18-11.9s-5.4-11.2-5.4-18.7
	c0-10.1,4.3-18.3,12.9-24.6c8.6-6.3,19.3-9.4,32.1-9.4c6.4,0,12.8,0.7,19.2,2s12.1,3.1,17.1,5.3v24.7h-2.4c-4-3.4-8.9-6.3-14.7-8.7
	s-11.7-3.6-17.8-3.6c-2.4,0-4.5,0.2-6.4,0.5s-3.9,1-6,2c-1.7,0.8-3.2,1.9-4.4,3.4s-1.9,3.2-1.9,5.1c0,2.8,1,5,2.9,6.6
	c2,1.6,5.7,3.1,11.4,4.4c3.6,0.8,7.1,1.6,10.5,2.4s7,1.8,10.8,3.2c7.5,2.7,13.1,6.4,16.7,10.9c3.7,4.6,5.5,10.6,5.5,18.1
	c0,10.7-4.2,19.4-12.7,25.9C985.2,119,973.8,122.3,959.5,122.3z"/>
<path class="st1" d="M309.2,298.8l36.5-108.1h29.6l36.5,108.1h-28l-6.8-22.1h-34l-6.8,22.1H309.2z M371.2,257.1l-11-35.7l-11,35.7
	H371.2z"/>
<path class="st1" d="M522.7,298.8h-33.1l-30.1-39.7h-9.7v39.7h-27V190.7h43.5c6,0,11.2,0.4,15.7,1.1c4.5,0.8,8.6,2.3,12.3,4.7
	c3.9,2.5,6.9,5.6,9.2,9.4c2.3,3.8,3.4,8.6,3.4,14.5c0,8.3-1.9,15-5.6,20.2s-8.7,9.3-15,12.3L522.7,298.8z M478.9,223.8
	c0-2.7-0.5-5-1.6-7c-1-2-2.8-3.5-5.2-4.5c-1.7-0.7-3.6-1.2-5.7-1.4s-4.7-0.3-7.8-0.3h-9.1v29.1h7.8c3.8,0,7-0.2,9.6-0.7
	s4.9-1.4,6.7-2.9c1.7-1.4,3-3,3.9-4.9C478.5,229.3,478.9,226.8,478.9,223.8z"/>
<path class="st1" d="M577.3,300.9c-16.2,0-29.1-4.9-38.6-14.7c-9.5-9.8-14.3-23.6-14.3-41.4c0-17.1,4.8-30.8,14.3-41
	c9.6-10.2,22.5-15.3,38.7-15.3c4.3,0,8.2,0.2,11.6,0.7c3.4,0.5,6.7,1.2,9.9,2c2.5,0.7,5.2,1.7,8.1,3c2.9,1.3,5.3,2.3,7,3.3v25.8
	h-2.8c-1.3-1.2-3-2.6-4.9-4.2c-2-1.6-4.2-3.2-6.8-4.8c-2.5-1.5-5.3-2.9-8.3-4s-6.2-1.6-9.5-1.6c-3.9,0-7.5,0.6-10.8,1.9
	s-6.4,3.4-9.3,6.4c-2.7,2.8-4.9,6.5-6.6,11.2c-1.7,4.7-2.6,10.2-2.6,16.6c0,6.7,0.9,12.4,2.7,17s4.1,8.3,7,11.1
	c2.8,2.7,5.9,4.7,9.4,5.9c3.5,1.2,6.9,1.8,10.3,1.8c3.6,0,7-0.6,10.2-1.8c3.2-1.2,6-2.5,8.2-4c2.4-1.5,4.6-3,6.4-4.6
	c1.8-1.5,3.4-2.9,4.8-4.1h2.5v25.4c-2,0.9-4.3,2-6.9,3.2c-2.6,1.2-5.3,2.2-8.1,3c-3.4,1-6.6,1.8-9.5,2.3
	C586.5,300.7,582.5,300.9,577.3,300.9z"/>
<path class="st1" d="M618.3,298.8l36.5-108.1h29.6L721,298.8h-28l-6.8-22.1h-34l-6.8,22.1H618.3z M680.3,257.1l-11-35.7l-11,35.7
	H680.3z"/>
<path class="st1" d="M828.4,244.9c0,10.1-2.2,19.1-6.6,27.1c-4.4,8-10,14.1-16.7,18.3c-5.6,3.6-11.7,6-18.3,7s-13.6,1.6-21.1,1.6
	h-33.8V190.7h33.6c7.6,0,14.7,0.5,21.4,1.5c6.6,1,12.9,3.3,18.7,7c7.1,4.6,12.7,10.7,16.8,18.4C826.3,225.3,828.4,234.4,828.4,244.9
	z M800.5,244.6c0-7.1-1.2-13.2-3.7-18.3c-2.4-5.1-6.2-9-11.3-11.9c-3.7-2-7.5-3.1-11.6-3.3c-4-0.2-8.9-0.3-14.5-0.3h-0.5v67.7h0.5
	c6.1,0,11.2-0.1,15.4-0.3c4.2-0.2,8.2-1.5,11.9-3.9c4.5-2.8,7.8-6.7,10.2-11.6C799.3,257.8,800.5,251.8,800.5,244.6z"/>
<path class="st1" d="M844.4,298.8V190.7h73.1v20.6h-46.1v19h42.5v20.6h-42.5v27.3h46.1v20.6H844.4z"/>
<path class="st1" d="M376,477.3h-27v-71.7l-19.7,46.3h-18.5l-19.7-46.3v71.7h-25.6V369.2h31.3l24,53.4l23.9-53.4H376V477.3z"/>
<path class="st1" d="M386.7,477.3l36.5-108.1h29.6l36.5,108.1h-28l-6.8-22.1h-34l-6.8,22.1H386.7z M448.8,435.6l-11-35.7l-11,35.7
	H448.8z"/>
<path class="st1" d="M546.8,479.4c-16.2,0-29.1-4.9-38.6-14.7c-9.5-9.8-14.3-23.6-14.3-41.4c0-17.1,4.8-30.8,14.3-41
	c9.6-10.2,22.5-15.3,38.7-15.3c4.3,0,8.2,0.2,11.6,0.7c3.4,0.5,6.7,1.2,9.9,2c2.5,0.7,5.2,1.7,8.1,3c2.9,1.3,5.3,2.3,7,3.3v25.8
	h-2.8c-1.3-1.2-3-2.6-4.9-4.2c-2-1.6-4.2-3.2-6.8-4.8c-2.5-1.5-5.3-2.9-8.3-4s-6.2-1.6-9.5-1.6c-3.9,0-7.5,0.6-10.8,1.9
	s-6.4,3.4-9.3,6.4c-2.7,2.8-4.9,6.5-6.6,11.2c-1.7,4.7-2.6,10.2-2.6,16.6c0,6.7,0.9,12.4,2.7,17s4.1,8.3,7,11.1
	c2.8,2.7,5.9,4.7,9.4,5.9c3.5,1.2,6.9,1.8,10.3,1.8c3.6,0,7-0.6,10.2-1.8c3.2-1.2,6-2.5,8.2-4c2.4-1.5,4.6-3,6.4-4.6
	c1.8-1.5,3.4-2.9,4.8-4.1h2.5V470c-2,0.9-4.3,2-6.9,3.2c-2.6,1.2-5.3,2.2-8.1,3c-3.4,1-6.6,1.8-9.5,2.3
	C556.1,479.2,552,479.4,546.8,479.4z"/>
<path class="st1" d="M690.8,477.3h-27.2v-47.9h-37v47.9h-27.2V369.2h27.2v39.6h37v-39.6h27.2V477.3z"/>
<path class="st1" d="M767,477.3h-58.2v-18.9h15.5V388h-15.5v-18.9H767V388h-15.5v70.4H767V477.3z"/>
<path class="st1" d="M877.7,477.3h-26.1l-41.7-75.4v75.4H785V369.2h33.3l34.5,62v-62h24.8v108.1H877.7z"/>
<path class="st1" d="M899.7,477.3V369.2h73.1v20.6h-46.1v19h42.5v20.6h-42.5v27.3h46.1v20.6L899.7,477.3L899.7,477.3z"/>
<path class="st2" d="M323.1,128.2h-79.5v-17.6c6.7-5.3,12.8-10.4,18.1-15.1c5.3-4.7,10.1-9.2,14.1-13.5c5.3-5.6,9.1-10.5,11.5-14.7
	s3.6-8.5,3.6-13c0-5-1.5-8.9-4.5-11.6c-3-2.7-7.2-4-12.6-4c-2.8,0-5.4,0.3-7.8,1s-4.9,1.5-7.4,2.6s-4.6,2.3-6.3,3.4
	c-1.7,1.1-3.1,2-3.9,2.6h-2.1V24.7c3.1-1.5,7.8-2.9,14.3-4.5c6.5-1.5,12.7-2.3,18.7-2.3c12.8,0,22.6,2.9,29.2,8.6s9.9,13.8,9.9,24.1
	c0,6.4-1.5,12.7-4.5,18.8s-8,12.7-15,19.7c-4.4,4.3-8.6,8.1-12.7,11.5s-7.1,5.8-8.9,7.2h45.8L323.1,128.2L323.1,128.2z"/>
<path class="st2" d="M421.8,54.1c0,5-0.8,9.8-2.4,14.4s-3.9,8.4-6.9,11.4c-1.8,1.9-3.9,3.6-6.1,5.2s-4.6,3-7.3,4.1
	c-2.7,1.1-5.6,2-8.7,2.6s-6.6,0.9-10.5,0.9h-14.2v35.4h-27.2V20h42c6.2,0,11.6,0.6,16.2,1.7c4.5,1.1,8.6,2.9,12.3,5.4
	c4.1,2.7,7.2,6.3,9.4,10.9C420.7,42.5,421.8,47.9,421.8,54.1z M393.9,54.8c0-3.1-0.7-5.7-2.2-7.9c-1.5-2.2-3.2-3.7-5.2-4.5
	c-2.6-1.1-5-1.8-7.4-1.9c-2.3-0.2-5.5-0.3-9.6-0.3h-3.8v32.4h1.9c2.6,0,5,0,7.3-0.1c2.3,0,4.3-0.2,6-0.5c1.5-0.2,3-0.7,4.6-1.4
	c1.6-0.7,2.9-1.5,3.7-2.4c1.8-1.8,3.1-3.7,3.7-5.6C393.6,60.7,393.9,58.1,393.9,54.8z"/>
<path class="st2" d="M500.7,128.2V40.6h-32V20h91.1v20.6h-32v87.5L500.7,128.2L500.7,128.2z"/>
<path class="st2" d="M571,128.2V20h73.1v20.6H598v19h42.5v20.6H598v27.3h46.1v20.6L571,128.2L571,128.2z"/>
<path class="st2" d="M683.3,128.2V40.6h-32V20h91.1v20.6h-32v87.5L683.3,128.2L683.3,128.2z"/>
<path class="st2" d="M853.6,128.2h-33.1l-30.1-39.7h-9.7v39.7h-27V20h43.5c6,0,11.2,0.4,15.7,1.1c4.5,0.8,8.6,2.3,12.3,4.7
	c3.9,2.5,6.9,5.6,9.2,9.4s3.4,8.6,3.4,14.5c0,8.3-1.9,15-5.6,20.2s-8.7,9.3-15,12.3L853.6,128.2z M809.9,53.1c0-2.7-0.5-5-1.6-7
	c-1-2-2.8-3.5-5.2-4.5c-1.7-0.7-3.6-1.2-5.7-1.4c-2.1-0.2-4.7-0.3-7.8-0.3h-9.1V69h7.8c3.8,0,7-0.2,9.6-0.7s4.9-1.4,6.7-2.9
	c1.7-1.4,3-3,3.9-4.9C809.4,58.6,809.9,56.2,809.9,53.1z"/>
<path class="st2" d="M915.5,128.2h-58.2v-18.9h15.5V38.9h-15.5V20h58.2v18.9H900v70.4h15.5V128.2z"/>
<path class="st2" d="M966.9,130.1c-8.3,0-15.6-0.8-21.8-2.4c-6.3-1.6-12.1-3.6-17.5-6V96h2.5c5.4,4.6,11.4,8.1,17.9,10.6
	s12.9,3.7,19,3.7c1.5,0,3.6-0.2,6.1-0.5s4.6-0.9,6.1-1.6c1.9-0.8,3.5-2,4.8-3.5s2-3.4,2-5.8c0-2.7-1.1-4.9-3.2-6.6
	c-2.1-1.7-4.7-2.9-7.6-3.7c-3.7-1-7.6-1.9-11.8-2.8s-8.1-1.9-11.7-3.2c-8.4-3-14.4-6.9-18-11.9s-5.4-11.2-5.4-18.7
	c0-10.1,4.3-18.3,12.9-24.6c8.6-6.3,19.3-9.4,32.1-9.4c6.4,0,12.8,0.7,19.2,2s12.1,3.1,17.1,5.3V50h-2.4c-4-3.4-8.9-6.3-14.7-8.7
	s-11.7-3.6-17.8-3.6c-2.4,0-4.5,0.2-6.4,0.5s-3.9,1-6,2c-1.7,0.8-3.2,1.9-4.4,3.4s-1.9,3.2-1.9,5.1c0,2.8,1,5,2.9,6.6
	c2,1.6,5.7,3.1,11.4,4.4c3.6,0.8,7.1,1.6,10.5,2.4s7,1.8,10.8,3.2c7.5,2.7,13.1,6.4,16.7,10.9c3.7,4.6,5.5,10.6,5.5,18.1
	c0,10.7-4.2,19.4-12.7,25.9C992.7,126.8,981.3,130.1,966.9,130.1z"/>
<path class="st2" d="M316.6,306.7l36.5-108.1h29.6l36.5,108.1h-28l-6.8-22.1h-34l-6.8,22.1H316.6z M378.7,265l-11-35.7l-11,35.7
	H378.7z"/>
<path class="st2" d="M530.1,306.7H497L466.8,267h-9.7v39.7h-27V198.5h43.5c6,0,11.2,0.4,15.7,1.1c4.5,0.8,8.6,2.3,12.3,4.7
	c3.9,2.5,6.9,5.6,9.2,9.4c2.3,3.8,3.4,8.6,3.4,14.5c0,8.3-1.9,15-5.6,20.2c-3.7,5.2-8.7,9.3-15,12.3L530.1,306.7z M486.4,231.6
	c0-2.7-0.5-5-1.6-7c-1-2-2.8-3.5-5.2-4.5c-1.7-0.7-3.6-1.2-5.7-1.4s-4.7-0.3-7.8-0.3H457v29.1h7.8c3.8,0,7-0.2,9.6-0.7
	s4.9-1.4,6.7-2.9c1.7-1.4,3-3,3.9-4.9C486,237.1,486.4,234.7,486.4,231.6z"/>
<path class="st2" d="M584.7,308.8c-16.2,0-29.1-4.9-38.6-14.7c-9.5-9.8-14.3-23.6-14.3-41.4c0-17.1,4.8-30.8,14.3-41
	c9.6-10.2,22.5-15.3,38.7-15.3c4.3,0,8.2,0.2,11.6,0.7c3.4,0.5,6.7,1.2,9.9,2c2.5,0.7,5.2,1.7,8.1,3c2.9,1.3,5.3,2.3,7,3.3v25.8
	h-2.8c-1.3-1.2-3-2.6-4.9-4.2c-2-1.6-4.2-3.2-6.8-4.8c-2.5-1.5-5.3-2.9-8.3-4s-6.2-1.6-9.5-1.6c-3.9,0-7.5,0.6-10.8,1.9
	s-6.4,3.4-9.3,6.4c-2.7,2.8-4.9,6.5-6.6,11.2c-1.7,4.7-2.6,10.2-2.6,16.6c0,6.7,0.9,12.4,2.7,17s4.1,8.3,7,11.1
	c2.8,2.7,5.9,4.7,9.4,5.9c3.5,1.2,6.9,1.8,10.3,1.8c3.6,0,7-0.6,10.2-1.8c3.2-1.2,6-2.5,8.2-4c2.4-1.5,4.6-3,6.4-4.6
	c1.8-1.5,3.4-2.9,4.8-4.1h2.5v25.4c-2,0.9-4.3,2-6.9,3.2c-2.6,1.2-5.3,2.2-8.1,3c-3.4,1-6.6,1.8-9.5,2.3
	C594,308.5,589.9,308.8,584.7,308.8z"/>
<path class="st2" d="M625.8,306.7l36.5-108.1h29.6l36.5,108.1h-28l-6.8-22.1h-34l-6.8,22.1H625.8z M687.8,265l-11-35.7l-11,35.7
	H687.8z"/>
<path class="st2" d="M835.8,252.7c0,10.1-2.2,19.1-6.6,27.1c-4.4,8-10,14.1-16.7,18.3c-5.6,3.6-11.7,6-18.3,7s-13.6,1.6-21.1,1.6
	h-33.8V198.5h33.6c7.6,0,14.7,0.5,21.4,1.5s12.9,3.3,18.7,7c7.1,4.6,12.7,10.7,16.9,18.4C833.7,233.1,835.8,242.2,835.8,252.7z
	 M807.9,252.5c0-7.1-1.2-13.2-3.7-18.3c-2.4-5.1-6.2-9-11.3-11.9c-3.7-2-7.5-3.1-11.6-3.3c-4-0.2-8.9-0.3-14.5-0.3h-0.5v67.7h0.5
	c6.1,0,11.2-0.1,15.4-0.3c4.2-0.2,8.2-1.5,11.9-3.9c4.5-2.8,7.8-6.7,10.2-11.6C806.7,265.6,807.9,259.6,807.9,252.5z"/>
<path class="st2" d="M851.8,306.7V198.5H925v20.6h-46.1v19h42.5v20.6h-42.5V286H925v20.6h-73.2V306.7z"/>
<path class="st2" d="M383.4,485.2h-27v-71.7l-19.7,46.3h-18.5l-19.7-46.3v71.7H273V377h31.3l24,53.4l23.9-53.4h31.3L383.4,485.2
	L383.4,485.2z"/>
<path class="st2" d="M394.2,485.2L430.7,377h29.6l36.5,108.1h-28L462,463h-34l-6.8,22.1h-27V485.2z M456.2,443.5l-11-35.7l-11,35.7
	H456.2z"/>
<path class="st2" d="M554.3,487.3c-16.2,0-29.1-4.9-38.6-14.7c-9.5-9.8-14.3-23.6-14.3-41.4c0-17.1,4.8-30.8,14.3-41
	c9.6-10.2,22.5-15.3,38.7-15.3c4.3,0,8.2,0.2,11.6,0.7c3.4,0.5,6.7,1.2,9.9,2c2.5,0.7,5.2,1.7,8.1,3c2.9,1.3,5.3,2.3,7,3.3v25.8
	h-2.8c-1.3-1.2-3-2.6-4.9-4.2c-2-1.6-4.2-3.2-6.8-4.8c-2.5-1.5-5.3-2.9-8.3-4s-6.2-1.6-9.5-1.6c-3.9,0-7.5,0.6-10.8,1.9
	s-6.4,3.4-9.3,6.4c-2.7,2.8-4.9,6.5-6.6,11.2c-1.7,4.7-2.6,10.2-2.6,16.6c0,6.7,0.9,12.4,2.7,17s4.1,8.3,7,11.1
	c2.8,2.7,5.9,4.7,9.4,5.9c3.5,1.2,6.9,1.8,10.3,1.8c3.6,0,7-0.6,10.2-1.8c3.2-1.2,6-2.5,8.2-4c2.4-1.5,4.6-3,6.4-4.6
	c1.8-1.5,3.4-2.9,4.8-4.1h2.5V478c-2,0.9-4.3,2-6.9,3.2c-2.6,1.2-5.3,2.2-8.1,3c-3.4,1-6.6,1.8-9.5,2.3
	C563.5,487,559.4,487.3,554.3,487.3z"/>
<path class="st2" d="M698.2,485.2H671v-47.9h-37v47.9h-27.2V377H634v39.6h37V377h27.2V485.2z"/>
<path class="st2" d="M774.5,485.2h-58.3v-18.9h15.5v-70.4h-15.5V377h58.3v18.9H759v70.4h15.5V485.2z"/>
<path class="st2" d="M885.2,485.2H859l-41.7-75.4v75.4h-24.8V377h33.3l34.5,62v-62h24.8v108.2H885.2z"/>
<path class="st2" d="M907.1,485.2V377h73.1v20.6h-46.1v19h42.5v20.6h-42.5v27.3h46.1v20.6h-73.1V485.2z"/>
</svg>
