<?xml version="1.0" encoding="utf-8"?>
<!-- Generator: Adobe Illustrator 25.0.0, SVG Export Plug-In . SVG Version: 6.00 Build 0)  -->
<svg version="1.1" id="Layer_1" xmlns="http://www.w3.org/2000/svg" xmlns:xlink="http://www.w3.org/1999/xlink" x="0px" y="0px"
	 viewBox="0 0 1234.3 221" style="enable-background:new 0 0 1234.3 221;" xml:space="preserve">
<style type="text/css">
	.st0{fill:#FFFFFF;}
	.st1{fill:#BF0DBB;}
</style>
<path class="st0" d="M132.6,47.1v29.7H110v22.7c0,7.7,3.4,11.5,10.3,11.5c5,0,9.4-2.5,13-7.6v41.9c-8.6,5.6-19,8.4-31.2,8.4
	c-13.1,0-24.1-3.9-33-11.7c-8.9-7.8-13.4-18.5-13.4-32.2V76.7H33.5L110,16.8V47h22.6V47.1z"/>
<path class="st0" d="M202.5,18.8v42.1c8.4-9.8,19.1-14.7,32.1-14.7c12,0,21.5,3.5,28.4,10.5s10.4,16.8,10.4,29.4v66.8h-51.3V91.7
	c0-8.9-3.4-13.4-10.3-13.4c-3.1,0-6.2,1.4-9.3,4.1v70.4h-54.4v-134H202.5z"/>
<path class="st0" d="M416.5,47.1v105.8h-52v-18.5h-0.4c-5.3,6.7-10.8,11.7-16.3,14.8c-5.6,3.1-12.2,4.7-19.9,4.7
	c-11.1,0-20-3.3-26.8-9.8c-6.8-6.6-10.2-15.8-10.2-27.6V47.2h51.3v57c0,9.6,3.3,14.4,9.8,14.4c4.4,0,7.7-1.9,9.9-5.6V47.2
	L416.5,47.1L416.5,47.1z"/>
<path class="st0" d="M491.7,47.1v13.3c9.1-9.4,20.1-14.2,32.8-14.2c12.4,0,21.8,3.4,28.4,10.3c6.6,6.9,9.9,17.1,9.9,30.6v65.7h-51.3
	V91.1c0-8.8-3.3-13.2-10-13.2c-3.2,0-6.5,1.1-9.8,3.4v71.5h-54.3V47.1H491.7z"/>
<path class="st0" d="M635.8,18.8v63.4c13.4-5,20.2-16.7,20.6-35.1h53.8c-1,10.8-3.2,19.6-6.5,26.3s-8.6,12.6-15.8,17.8
	c4.2,3.3,7.8,7,10.7,11c2.9,4.1,5.3,8.7,7.2,13.9s3,10.4,3.6,15.6s0.8,12.3,0.8,21.1h-53.8c0-16.3-1.7-28.3-5-36.1
	c-3.3-7.8-8.5-13.1-15.6-15.9v52h-54.3v-134H635.8z"/>
<path class="st0" d="M906.1,79v22.3h-30.8v51.5H821v-51.5h-11.7V79H821c0-19.6,5.2-34.9,15.5-45.9s24.6-16.5,42.7-16.5
	c7.6,0,16.6,1.3,27,4v53.3c-5.3-6.4-11-9.6-17.1-9.6c-4.3,0-7.6,1.3-10,4s-3.6,6.3-3.6,10.7H906.1z"/>
<path class="st0" d="M1040.2,47.1v105.8h-52v-18.5h-0.4c-5.3,6.7-10.8,11.7-16.3,14.8c-5.6,3.1-12.2,4.7-19.9,4.7
	c-11.1,0-20-3.3-26.8-9.8c-6.8-6.6-10.2-15.8-10.2-27.6V47.2h51.3v57c0,9.6,3.3,14.4,9.8,14.4c4.4,0,7.7-1.9,9.9-5.6V47.2
	L1040.2,47.1L1040.2,47.1z"/>
<path class="st0" d="M1115.4,47.1v13.3c9.1-9.4,20.1-14.2,32.8-14.2c12.4,0,21.8,3.4,28.4,10.3c6.6,6.9,9.9,17.1,9.9,30.6v65.7
	h-51.3V91.1c0-8.8-3.3-13.2-10-13.2c-3.2,0-6.5,1.1-9.8,3.4v71.5h-54.3V47.1H1115.4z"/>
<path class="st1" d="M733.5,164.5c0-7.9,2.8-14.7,8.4-20.3c5.6-5.6,12.3-8.4,20.3-8.4c7.9,0,14.6,2.8,20.2,8.4
	c5.6,5.6,8.4,12.3,8.4,20.3c0,7.9-2.8,14.6-8.4,20.2c-5.6,5.6-12.3,8.4-20.2,8.4s-14.7-2.8-20.3-8.4
	C736.3,179.1,733.5,172.3,733.5,164.5z"/>
</svg>
