<svg id="svg" version="1.1" xmlns="http://www.w3.org/2000/svg" xmlns:xlink="http://www.w3.org/1999/xlink" viewBox="0, 0, 400,191.25964010282777"><g id="svgg"><path id="path0" d="M23.361 8.229 C 21.562 8.608,20.781 9.618,20.923 11.382 C 21.061 13.108,22.054 16.367,22.380 16.165 C 22.467 16.112,22.489 16.254,22.429 16.481 C 22.363 16.734,22.396 16.848,22.515 16.774 C 22.631 16.702,22.678 16.825,22.631 17.079 C 22.534 17.607,23.036 19.049,23.298 18.993 C 23.404 18.970,23.443 19.133,23.384 19.357 C 23.319 19.605,23.353 19.717,23.472 19.644 C 23.588 19.571,23.633 19.696,23.583 19.956 C 23.537 20.193,23.684 20.858,23.909 21.433 C 24.133 22.007,24.480 23.037,24.679 23.721 C 25.591 26.847,26.373 28.924,26.589 28.791 C 26.665 28.744,26.688 28.904,26.642 29.147 C 26.566 29.544,27.055 31.039,28.152 33.764 C 28.363 34.290,28.643 35.151,28.772 35.677 C 28.902 36.203,29.114 36.830,29.244 37.070 C 29.374 37.311,29.641 38.086,29.838 38.792 C 30.562 41.396,31.586 44.198,31.771 44.084 C 31.837 44.043,31.854 44.202,31.809 44.438 C 31.714 44.935,32.477 47.108,32.699 46.971 C 32.781 46.921,32.811 47.072,32.766 47.307 C 32.668 47.817,33.436 49.976,33.665 49.835 C 33.752 49.781,33.775 49.922,33.716 50.149 C 33.647 50.414,33.681 50.517,33.811 50.436 C 33.940 50.357,33.978 50.452,33.914 50.695 C 33.801 51.129,34.593 53.414,34.811 53.279 C 34.888 53.231,34.915 53.385,34.870 53.621 C 34.772 54.131,35.469 55.972,35.738 55.913 C 35.840 55.890,35.877 56.054,35.818 56.277 C 35.753 56.525,35.788 56.637,35.906 56.564 C 36.024 56.490,36.065 56.626,36.010 56.912 C 35.959 57.178,36.098 57.720,36.330 58.166 C 36.556 58.599,36.832 59.397,36.944 59.940 C 37.057 60.483,37.313 61.212,37.513 61.560 C 37.713 61.908,37.877 62.321,37.877 62.477 C 37.877 64.367,39.407 65.074,43.513 65.078 C 47.950 65.082,48.755 64.663,49.450 61.981 C 49.625 61.306,49.880 60.534,50.016 60.267 C 50.153 59.999,50.328 59.479,50.405 59.110 C 50.482 58.742,50.747 58.011,50.993 57.484 C 51.239 56.958,51.501 56.143,51.576 55.673 C 51.651 55.203,51.881 54.531,52.088 54.181 C 52.295 53.830,52.475 53.170,52.488 52.712 C 52.500 52.255,52.565 51.914,52.632 51.954 C 52.756 52.029,53.563 50.296,53.563 49.955 C 53.563 49.851,53.829 49.102,54.154 48.290 C 54.479 47.478,54.707 46.613,54.660 46.368 C 54.613 46.123,54.636 45.960,54.710 46.006 C 54.876 46.109,55.220 45.398,55.683 43.998 C 55.874 43.419,56.213 42.436,56.436 41.813 C 56.660 41.189,56.801 40.522,56.751 40.330 C 56.700 40.138,56.719 40.017,56.792 40.062 C 56.962 40.168,57.303 39.393,57.766 37.853 C 58.383 35.794,58.938 34.182,59.305 33.381 C 59.498 32.960,59.715 32.272,59.787 31.851 C 59.859 31.430,60.035 30.900,60.177 30.673 C 60.319 30.446,60.537 29.843,60.662 29.334 C 60.915 28.299,61.344 27.351,61.554 27.363 C 61.815 27.377,62.737 29.711,63.705 32.807 C 64.138 34.194,64.782 36.148,65.170 37.256 C 65.327 37.704,65.527 38.027,65.613 37.973 C 65.699 37.920,65.728 38.038,65.676 38.235 C 65.625 38.432,65.837 39.229,66.147 40.005 C 66.458 40.781,66.778 41.717,66.858 42.084 C 67.046 42.944,67.552 44.006,67.723 43.900 C 67.795 43.855,67.817 44.017,67.771 44.259 C 67.695 44.656,68.183 46.151,69.280 48.876 C 69.492 49.402,69.771 50.263,69.901 50.789 C 70.031 51.315,70.253 51.961,70.396 52.224 C 70.538 52.487,70.760 53.176,70.889 53.754 C 71.017 54.333,71.294 55.237,71.504 55.763 C 71.713 56.289,72.006 57.107,72.154 57.580 C 72.302 58.054,72.518 58.422,72.634 58.400 C 72.759 58.375,72.802 58.522,72.738 58.764 C 72.680 58.988,72.710 59.123,72.806 59.064 C 72.901 59.006,72.992 59.294,73.008 59.704 C 73.024 60.115,73.218 60.797,73.439 61.221 C 73.660 61.645,73.840 62.134,73.840 62.308 C 73.840 64.365,75.299 65.068,79.573 65.072 C 83.996 65.075,84.809 64.704,85.432 62.395 C 85.564 61.904,85.845 61.071,86.055 60.545 C 86.945 58.317,87.614 56.431,87.614 56.147 C 87.614 55.980,87.774 55.524,87.970 55.133 C 88.435 54.208,88.834 52.496,88.653 52.203 C 88.567 52.063,88.592 52.023,88.717 52.101 C 88.908 52.219,89.718 50.427,89.718 49.888 C 89.718 49.769,89.941 49.114,90.213 48.433 C 90.486 47.752,90.670 46.995,90.623 46.750 C 90.572 46.481,90.615 46.352,90.732 46.425 C 90.850 46.498,90.885 46.387,90.820 46.139 C 90.759 45.905,90.799 45.750,90.915 45.774 C 91.026 45.797,91.241 45.385,91.393 44.859 C 91.545 44.333,91.891 43.318,92.162 42.603 C 92.433 41.888,92.661 41.014,92.669 40.661 C 92.677 40.308,92.729 40.047,92.786 40.082 C 92.928 40.169,93.296 39.297,93.727 37.853 C 94.317 35.872,94.898 34.199,95.282 33.377 C 95.479 32.953,95.697 32.308,95.767 31.942 C 95.837 31.576,96.043 30.976,96.224 30.607 C 96.668 29.703,97.054 28.001,96.879 27.717 C 96.796 27.584,96.817 27.537,96.929 27.606 C 97.213 27.782,97.631 26.794,98.026 25.012 C 98.439 23.145,98.514 25.773,98.562 43.888 C 98.620 65.844,98.471 63.898,100.156 64.754 C 100.893 65.128,101.287 65.136,119.273 65.136 L 137.637 65.136 138.640 64.683 C 139.624 64.238,139.655 64.236,140.357 64.569 C 141.568 65.144,143.465 65.211,158.489 65.213 C 173.904 65.215,176.523 65.122,177.512 64.539 C 178.355 64.040,179.053 62.497,179.053 61.131 C 179.053 59.848,178.946 59.857,180.638 60.996 C 183.604 62.991,187.893 64.719,190.657 65.033 C 193.774 65.388,192.658 65.520,185.748 65.615 C 176.285 65.744,175.523 66.195,175.833 71.484 C 176.050 75.195,176.511 75.360,186.657 75.366 L 194.165 75.371 194.168 97.609 C 194.171 121.410,194.144 120.719,195.121 121.759 C 196.508 123.235,203.233 122.982,204.386 121.411 C 204.781 120.873,204.783 120.790,204.833 98.121 L 204.884 75.371 211.385 75.371 L 217.886 75.371 217.886 97.788 C 217.886 125.453,217.241 122.525,223.338 122.525 C 228.933 122.525,228.488 123.605,228.557 109.852 L 228.611 99.091 242.187 99.091 L 255.763 99.091 255.766 109.374 C 255.770 123.365,255.493 122.719,261.431 122.588 C 264.967 122.510,265.435 122.353,266.076 121.030 L 266.481 120.193 266.430 94.195 C 266.372 64.458,266.542 67.130,264.658 66.188 C 263.375 65.547,258.844 65.476,257.614 66.079 C 255.855 66.940,255.772 67.545,255.767 79.436 L 255.763 89.144 242.188 89.144 L 228.614 89.144 228.559 78.670 C 228.505 68.635,228.487 68.166,228.121 67.444 C 227.203 65.639,227.010 65.615,213.900 65.615 C 203.102 65.615,201.159 65.485,205.147 65.032 C 206.068 64.927,207.137 64.706,207.524 64.541 C 207.910 64.376,208.651 64.111,209.172 63.952 C 212.103 63.061,216.915 59.975,218.389 58.043 C 219.029 57.205,219.131 57.217,220.277 58.276 C 223.480 61.232,229.458 64.310,233.094 64.876 C 233.725 64.975,235.017 65.245,235.964 65.477 C 238.430 66.082,243.876 66.085,246.007 65.483 C 246.796 65.260,247.960 65.029,248.594 64.971 C 250.459 64.798,254.874 63.082,257.331 61.574 C 261.953 58.737,265.923 54.286,268.111 49.486 C 268.391 48.873,268.572 48.200,268.516 47.985 C 268.460 47.770,268.464 47.645,268.526 47.706 C 268.587 47.768,268.751 47.669,268.889 47.486 C 269.099 47.210,269.143 48.419,269.148 54.711 C 269.156 62.869,269.215 63.439,270.132 64.296 C 271.165 65.261,276.203 65.479,277.893 64.632 C 279.727 63.712,279.572 65.219,279.630 47.714 C 279.658 39.252,279.756 32.329,279.846 32.329 C 279.937 32.329,280.117 32.457,280.247 32.614 C 280.377 32.771,280.559 32.852,280.651 32.795 C 280.743 32.738,280.767 32.826,280.704 32.991 C 280.639 33.158,280.792 33.561,281.051 33.909 C 281.305 34.250,281.847 35.106,282.254 35.810 C 282.662 36.515,283.065 37.049,283.150 36.996 C 283.235 36.943,283.253 37.035,283.190 37.200 C 283.060 37.539,283.457 38.118,283.711 37.960 C 283.804 37.903,283.832 37.979,283.775 38.128 C 283.639 38.482,285.284 41.240,285.590 41.172 C 285.719 41.143,285.770 41.208,285.702 41.317 C 285.585 41.507,286.287 42.855,287.893 45.528 C 288.304 46.212,289.007 47.418,289.455 48.207 C 290.867 50.695,291.543 51.668,291.765 51.530 C 291.894 51.451,291.923 51.487,291.839 51.622 C 291.703 51.842,292.732 53.867,293.963 55.801 C 294.311 56.349,294.596 56.878,294.596 56.977 C 294.596 57.321,295.927 58.325,296.647 58.525 C 299.065 59.197,302.830 58.109,302.356 56.875 C 302.299 56.726,302.336 56.656,302.438 56.719 C 302.676 56.866,303.427 55.653,303.302 55.322 C 303.245 55.170,303.295 55.127,303.430 55.210 C 303.578 55.302,303.611 55.242,303.531 55.031 C 303.460 54.846,303.497 54.734,303.622 54.761 C 303.791 54.797,305.344 52.406,306.002 51.096 C 306.075 50.950,306.918 49.514,307.874 47.906 C 308.830 46.298,310.122 44.094,310.745 43.008 C 312.363 40.186,313.720 37.893,314.260 37.069 C 314.519 36.674,314.675 36.222,314.611 36.055 C 314.547 35.888,314.571 35.799,314.664 35.857 C 314.757 35.914,315.375 35.053,316.038 33.942 C 316.700 32.832,317.312 31.880,317.397 31.828 C 317.482 31.775,317.553 38.603,317.554 47.000 C 317.558 66.403,317.153 65.039,322.908 65.039 C 326.583 65.039,327.409 64.706,328.009 62.983 C 328.350 62.002,328.383 12.134,328.044 10.749 C 327.540 8.698,326.485 8.129,323.195 8.132 C 320.607 8.135,319.905 8.362,318.875 9.530 C 317.955 10.573,317.097 12.163,317.287 12.471 C 317.364 12.595,317.333 12.631,317.214 12.558 C 317.091 12.482,316.190 13.866,314.958 16.020 C 313.830 17.993,312.679 19.952,312.401 20.373 C 311.636 21.532,311.371 22.131,311.517 22.368 C 311.593 22.490,311.542 22.560,311.398 22.530 C 311.260 22.501,310.968 22.829,310.750 23.259 C 310.532 23.688,310.177 24.291,309.962 24.598 C 309.746 24.904,308.977 26.211,308.252 27.501 C 307.528 28.791,306.699 30.254,306.412 30.753 C 306.125 31.252,305.930 31.772,305.980 31.909 C 306.029 32.046,305.993 32.111,305.900 32.053 C 305.807 31.996,305.192 32.873,304.534 34.004 C 303.876 35.134,303.148 36.361,302.916 36.729 C 302.684 37.097,301.971 38.302,301.332 39.407 C 300.693 40.512,299.940 41.784,299.660 42.234 C 299.380 42.684,299.192 43.161,299.243 43.294 C 299.614 44.261,298.387 43.495,297.755 42.365 C 297.373 41.680,296.980 41.170,296.882 41.230 C 296.784 41.290,296.756 41.205,296.819 41.040 C 296.950 40.701,296.553 40.122,296.298 40.280 C 296.206 40.337,296.178 40.261,296.235 40.112 C 296.365 39.773,294.732 36.999,294.440 37.061 C 294.323 37.086,294.268 37.000,294.318 36.870 C 294.401 36.651,292.006 32.216,291.452 31.564 C 291.223 31.294,290.556 30.140,288.522 26.495 C 288.053 25.653,287.566 24.835,287.440 24.677 C 287.170 24.338,286.067 22.454,285.423 21.234 C 284.750 19.957,284.258 19.303,284.062 19.424 C 283.966 19.484,283.944 19.384,284.014 19.204 C 284.094 18.994,284.065 18.922,283.934 19.003 C 283.807 19.081,283.762 19.000,283.816 18.793 C 283.867 18.597,283.509 17.853,282.963 17.023 C 282.446 16.235,281.551 14.773,280.974 13.773 C 280.398 12.774,279.753 11.655,279.541 11.286 C 279.329 10.918,279.050 10.641,278.922 10.669 C 278.795 10.698,278.744 10.634,278.811 10.526 C 279.616 9.223,276.043 7.803,272.745 8.117 C 269.322 8.443,269.274 8.582,269.154 18.460 C 269.098 23.006,268.989 26.163,268.894 25.970 C 268.804 25.786,268.675 25.670,268.607 25.711 C 268.540 25.753,268.478 25.516,268.470 25.184 C 268.458 24.685,267.760 23.247,266.569 21.269 C 263.241 15.741,255.970 10.121,250.919 9.172 C 250.374 9.070,249.369 8.794,248.685 8.558 C 246.765 7.897,235.253 7.898,233.459 8.560 C 232.819 8.796,231.839 9.076,231.282 9.181 C 228.799 9.652,222.929 12.974,220.367 15.359 C 218.951 16.677,219.085 16.668,218.105 15.506 C 215.483 12.396,210.259 9.629,204.495 8.297 C 202.563 7.850,191.709 7.993,190.626 8.479 C 190.206 8.668,189.276 8.946,188.561 9.097 C 187.204 9.384,186.531 9.648,183.835 10.953 C 177.038 14.242,170.940 21.375,169.569 27.642 C 169.430 28.274,169.123 29.307,168.886 29.938 C 168.007 32.275,168.295 44.004,169.257 45.070 C 169.437 45.270,169.599 45.786,169.617 46.217 C 169.657 47.141,170.168 48.473,170.423 48.316 C 170.521 48.255,170.560 48.360,170.511 48.548 C 170.406 48.948,171.806 51.702,173.150 53.741 C 173.846 54.796,174.025 55.201,173.844 55.316 C 173.710 55.401,168.158 55.471,161.505 55.473 L 149.408 55.476 149.357 32.951 C 149.308 10.859,149.299 10.411,148.924 9.666 C 147.774 7.382,140.658 7.412,139.430 9.707 C 139.120 10.286,138.983 10.254,138.511 9.490 C 137.613 8.036,139.178 8.130,115.830 8.130 C 104.362 8.130,94.748 8.195,94.467 8.273 C 93.246 8.616,92.053 10.122,91.530 11.981 C 91.356 12.599,91.001 13.648,90.741 14.313 C 90.481 14.978,90.296 15.710,90.330 15.939 C 90.363 16.168,90.277 16.444,90.138 16.553 C 90.000 16.661,89.681 17.436,89.429 18.274 C 88.808 20.346,88.081 22.425,87.749 23.082 C 87.597 23.381,87.413 23.969,87.340 24.390 C 87.266 24.811,87.035 25.514,86.827 25.953 C 86.618 26.391,86.396 27.080,86.333 27.483 C 86.271 27.886,86.072 28.517,85.891 28.886 C 85.709 29.254,85.450 30.029,85.315 30.607 C 85.180 31.186,84.957 31.832,84.819 32.043 C 84.682 32.254,84.448 32.951,84.299 33.591 C 84.149 34.232,83.897 34.963,83.737 35.217 C 83.578 35.470,83.339 36.149,83.205 36.727 C 83.072 37.305,82.761 38.209,82.516 38.736 C 82.271 39.263,82.069 39.848,82.068 40.036 C 82.067 40.225,81.901 40.702,81.699 41.097 C 81.498 41.493,81.271 42.156,81.196 42.572 C 81.120 42.988,80.929 43.584,80.771 43.895 C 80.613 44.207,80.345 44.975,80.175 45.601 C 79.777 47.071,79.560 47.112,79.024 45.819 C 78.783 45.238,78.516 44.806,78.431 44.859 C 78.346 44.912,78.324 44.769,78.384 44.542 C 78.450 44.289,78.417 44.176,78.298 44.249 C 78.180 44.322,78.138 44.194,78.189 43.924 C 78.236 43.679,78.067 42.929,77.815 42.256 C 77.085 40.314,76.520 38.623,76.256 37.590 C 76.121 37.064,75.877 36.375,75.714 36.059 C 75.550 35.744,75.354 35.184,75.277 34.816 C 75.077 33.853,74.396 32.318,74.218 32.428 C 74.135 32.479,74.109 32.361,74.160 32.166 C 74.290 31.670,73.885 30.271,73.495 29.871 C 73.310 29.681,73.155 29.187,73.133 28.719 C 73.112 28.269,72.924 27.541,72.713 27.102 C 72.503 26.663,72.230 25.873,72.106 25.347 C 71.982 24.821,71.731 24.127,71.549 23.805 C 71.367 23.484,71.157 22.881,71.082 22.466 C 71.007 22.052,70.791 21.368,70.601 20.947 C 70.211 20.081,69.593 18.288,69.052 16.451 C 68.850 15.768,68.565 14.993,68.418 14.730 C 68.271 14.467,68.089 13.907,68.015 13.486 C 67.858 12.604,67.352 11.446,67.172 11.556 C 67.104 11.598,67.041 11.394,67.030 11.104 C 66.949 8.838,65.074 7.896,61.023 8.084 C 57.524 8.247,57.150 8.581,55.733 12.817 C 55.574 13.290,55.193 14.340,54.886 15.151 C 54.579 15.961,54.328 16.754,54.328 16.914 C 54.328 17.074,54.145 17.556,53.921 17.986 C 53.697 18.416,53.503 19.141,53.490 19.598 C 53.478 20.055,53.415 20.397,53.350 20.358 C 53.200 20.267,52.681 21.475,52.407 22.556 C 52.289 23.020,52.076 23.579,51.934 23.799 C 51.791 24.019,51.577 24.629,51.457 25.155 C 51.338 25.681,51.115 26.344,50.962 26.628 C 50.613 27.275,49.819 29.537,49.352 31.215 C 49.156 31.917,48.859 32.758,48.691 33.083 C 48.523 33.408,48.311 34.038,48.220 34.484 C 48.129 34.929,47.881 35.725,47.669 36.251 C 46.644 38.789,46.225 40.053,46.212 40.642 C 46.204 40.996,46.163 41.252,46.121 41.210 C 45.988 41.079,45.510 42.142,45.243 43.163 C 45.102 43.704,44.850 44.411,44.682 44.735 C 44.514 45.060,44.310 45.650,44.227 46.048 C 44.013 47.079,43.594 46.971,43.329 45.815 C 43.209 45.289,42.977 44.601,42.815 44.285 C 42.652 43.969,42.408 43.238,42.272 42.660 C 41.991 41.467,41.433 40.123,41.281 40.275 C 41.225 40.331,41.219 40.168,41.268 39.913 C 41.317 39.658,41.167 39.031,40.936 38.519 C 40.704 38.008,40.401 37.116,40.261 36.538 C 39.971 35.338,39.328 33.811,39.176 33.963 C 39.121 34.018,39.115 33.854,39.164 33.597 C 39.213 33.340,39.041 32.627,38.781 32.012 C 38.521 31.397,38.173 30.464,38.008 29.938 C 37.843 29.412,37.438 28.250,37.109 27.355 C 36.780 26.461,36.339 25.127,36.130 24.390 C 35.920 23.654,35.636 22.877,35.498 22.664 C 35.360 22.452,35.183 21.892,35.104 21.421 C 35.026 20.950,34.811 20.263,34.628 19.895 C 34.444 19.527,34.185 18.752,34.051 18.173 C 33.777 16.984,33.521 16.402,33.324 16.522 C 33.250 16.567,33.175 16.326,33.158 15.985 C 33.108 15.013,32.724 13.785,32.355 13.416 C 32.170 13.231,32.053 12.975,32.096 12.847 C 32.426 11.857,30.878 9.149,29.602 8.486 C 28.874 8.107,24.746 7.937,23.361 8.229 M333.874 8.231 C 332.189 8.571,331.561 9.155,331.165 10.749 C 330.823 12.128,330.854 61.997,331.197 62.983 C 331.537 63.958,332.200 64.616,333.130 64.899 C 334.301 65.256,369.765 65.241,370.776 64.883 C 373.451 63.936,373.295 56.429,370.585 55.676 C 370.122 55.548,364.906 55.478,355.763 55.477 L 341.655 55.476 341.655 48.506 L 341.655 41.537 353.754 41.476 L 365.854 41.416 366.745 40.977 C 368.120 40.299,368.341 39.686,368.341 36.538 C 368.341 33.389,368.120 32.776,366.745 32.098 L 365.854 31.659 353.754 31.599 L 341.655 31.538 341.655 24.664 L 341.655 17.791 355.189 17.789 C 369.201 17.788,369.837 17.756,370.663 16.993 C 372.197 15.578,371.699 9.522,369.967 8.518 C 369.247 8.101,335.838 7.836,333.874 8.231 M26.734 8.363 C 26.444 8.407,25.971 8.407,25.681 8.363 C 25.392 8.319,25.629 8.283,26.208 8.283 C 26.786 8.283,27.023 8.319,26.734 8.363 M62.123 8.358 C 61.939 8.406,61.638 8.406,61.454 8.358 C 61.270 8.309,61.420 8.270,61.789 8.270 C 62.157 8.270,62.308 8.309,62.123 8.358 M97.803 8.360 C 97.567 8.406,97.137 8.407,96.846 8.363 C 96.555 8.319,96.748 8.282,97.274 8.280 C 97.800 8.279,98.038 8.315,97.803 8.360 M126.686 8.369 C 122.346 8.398,115.244 8.398,110.904 8.369 C 106.564 8.340,110.115 8.317,118.795 8.317 C 127.475 8.317,131.026 8.340,126.686 8.369 M144.955 8.363 C 144.665 8.407,144.192 8.407,143.902 8.363 C 143.613 8.319,143.850 8.283,144.429 8.283 C 145.007 8.283,145.244 8.319,144.955 8.363 M359.589 8.369 C 355.196 8.398,348.008 8.398,343.615 8.369 C 339.223 8.341,342.817 8.317,351.602 8.317 C 360.387 8.317,363.981 8.341,359.589 8.369 M328.025 49.483 C 327.997 56.409,327.974 50.799,327.974 37.016 C 327.974 23.233,327.997 17.566,328.025 24.423 C 328.053 31.280,328.053 42.557,328.025 49.483 M331.277 49.483 C 331.249 56.409,331.226 50.799,331.226 37.016 C 331.226 23.233,331.249 17.566,331.277 24.423 C 331.305 31.280,331.305 42.557,331.277 49.483 M138.881 36.241 L 138.881 56.030 138.218 55.753 C 137.658 55.519,135.326 55.476,123.392 55.476 L 109.230 55.476 109.230 48.506 L 109.230 41.537 121.234 41.476 C 136.555 41.399,135.820 41.648,135.820 36.538 C 135.820 31.427,136.555 31.676,121.234 31.599 L 109.230 31.538 109.230 24.670 L 109.230 17.802 123.147 17.749 C 138.082 17.691,137.686 17.717,138.488 16.751 C 138.625 16.586,138.769 16.451,138.809 16.451 C 138.848 16.451,138.881 25.357,138.881 36.241 M201.836 17.996 C 202.005 18.084,202.808 18.334,203.622 18.552 C 205.949 19.176,209.145 21.104,210.413 22.649 C 210.864 23.199,212.080 23.721,212.911 23.721 C 213.950 23.721,213.995 23.950,213.302 25.682 C 212.982 26.481,212.699 27.563,212.673 28.086 C 212.647 28.609,212.574 29.006,212.510 28.967 C 211.486 28.350,211.172 41.387,212.142 44.233 C 212.383 44.941,212.640 45.483,212.712 45.438 C 212.784 45.394,212.816 45.590,212.783 45.873 C 212.711 46.492,213.321 48.315,213.586 48.271 C 213.689 48.254,213.797 48.652,213.825 49.155 L 213.878 50.070 212.907 50.163 C 212.233 50.228,211.713 50.426,211.206 50.810 C 210.804 51.114,209.994 51.729,209.405 52.177 C 207.225 53.836,204.889 54.942,202.774 55.317 C 202.195 55.419,200.929 55.684,199.960 55.906 C 198.245 56.298,198.168 56.300,196.995 55.972 C 196.333 55.787,195.066 55.561,194.179 55.469 C 191.716 55.213,188.574 53.888,186.214 52.112 C 184.881 51.109,184.450 50.869,184.696 51.267 C 184.908 51.610,184.669 51.469,184.296 51.032 C 183.999 50.684,183.993 50.653,184.266 50.864 C 184.831 51.301,184.637 50.800,184.011 50.203 C 182.649 48.907,180.359 45.263,180.021 43.856 C 179.894 43.326,179.643 42.732,179.464 42.537 C 179.078 42.115,178.891 34.323,179.226 32.616 C 179.456 31.447,180.225 29.265,180.620 28.661 C 180.780 28.416,180.973 28.020,181.049 27.779 C 182.008 24.746,188.557 19.270,191.980 18.638 C 192.393 18.562,193.075 18.368,193.496 18.207 C 194.915 17.663,200.909 17.512,201.836 17.996 M246.007 18.297 C 252.674 20.234,258.243 25.475,259.114 30.629 C 259.190 31.080,259.418 31.836,259.621 32.308 C 260.058 33.329,260.143 41.730,259.715 41.648 C 259.479 41.603,258.799 43.938,258.930 44.343 C 258.974 44.480,258.924 44.538,258.817 44.472 C 258.711 44.407,258.495 44.682,258.337 45.084 C 258.178 45.486,257.966 45.945,257.864 46.102 C 257.762 46.260,257.458 46.806,257.187 47.316 C 256.673 48.283,253.477 51.647,252.321 52.437 C 249.664 54.253,246.694 55.459,244.848 55.471 C 244.473 55.474,243.464 55.654,242.605 55.871 C 241.114 56.248,240.989 56.252,239.842 55.955 C 239.182 55.785,237.996 55.569,237.207 55.476 C 234.963 55.213,231.533 53.726,229.303 52.050 C 228.586 51.511,227.905 51.127,227.791 51.198 C 227.664 51.277,227.638 51.237,227.726 51.095 C 227.814 50.953,227.511 50.475,226.943 49.858 C 225.745 48.557,225.550 48.303,224.865 47.151 C 222.497 43.165,221.901 40.423,222.207 34.912 C 222.288 33.439,222.361 32.005,222.368 31.726 C 222.376 31.446,222.439 31.253,222.509 31.296 C 222.579 31.340,222.783 30.966,222.963 30.465 C 223.413 29.212,224.575 26.793,225.022 26.178 C 225.225 25.899,225.332 25.574,225.259 25.456 C 225.187 25.338,225.203 25.265,225.297 25.294 C 225.390 25.323,226.188 24.586,227.069 23.657 C 229.516 21.075,232.226 19.347,234.924 18.648 C 235.596 18.474,236.320 18.238,236.532 18.125 C 237.748 17.474,243.538 17.579,246.007 18.297 M108.991 28.168 C 108.959 30.088,108.934 28.517,108.934 24.677 C 108.934 20.837,108.959 19.266,108.991 21.186 C 109.022 23.106,109.022 26.248,108.991 28.168 M317.886 54.376 C 317.857 58.611,317.834 55.146,317.834 46.676 C 317.834 38.207,317.857 34.742,317.886 38.977 C 317.915 43.211,317.915 50.141,317.886 54.376 M260.304 37.822 C 260.266 38.431,260.235 37.982,260.234 36.824 C 260.234 35.667,260.265 35.169,260.303 35.718 C 260.342 36.266,260.342 37.213,260.304 37.822 M108.991 51.972 C 108.960 53.952,108.934 52.386,108.934 48.494 C 108.934 44.601,108.959 42.981,108.991 44.894 C 109.022 46.807,109.022 49.993,108.991 51.972 M82.168 65.892 C 80.469 66.354,79.962 67.490,79.962 70.836 C 79.962 75.398,79.899 75.371,90.278 75.371 L 97.748 75.371 97.798 98.025 C 97.855 123.792,97.676 121.280,99.518 122.204 C 100.727 122.811,105.526 122.877,106.682 122.302 C 108.321 121.487,108.171 123.826,108.229 98.121 L 108.280 75.371 115.227 75.371 C 119.048 75.371,122.226 75.423,122.290 75.486 C 122.353 75.549,121.991 76.174,121.485 76.873 C 120.050 78.854,119.321 80.134,119.443 80.454 C 119.505 80.615,119.487 80.705,119.404 80.653 C 119.006 80.407,117.237 84.839,117.197 86.179 C 117.180 86.752,117.046 87.272,116.863 87.475 C 115.558 88.925,115.723 101.754,117.046 101.771 C 117.114 101.772,117.182 102.232,117.198 102.793 C 117.214 103.373,117.389 104.137,117.602 104.561 C 117.808 104.972,118.124 105.739,118.304 106.265 C 118.771 107.636,120.009 109.907,120.262 109.858 C 120.380 109.836,120.441 109.965,120.397 110.145 C 120.296 110.564,123.093 114.100,124.703 115.589 C 127.534 118.206,132.011 120.941,134.307 121.455 C 134.773 121.560,135.548 121.819,136.029 122.032 C 136.509 122.245,137.412 122.472,138.035 122.538 C 138.658 122.603,139.813 122.837,140.603 123.057 C 142.732 123.650,148.472 123.654,150.550 123.065 C 151.339 122.841,152.553 122.610,153.248 122.553 C 155.346 122.380,160.272 120.342,163.033 118.503 C 166.631 116.108,172.045 110.059,171.716 108.802 C 171.662 108.594,171.707 108.513,171.834 108.592 C 171.964 108.672,171.995 108.602,171.919 108.403 C 171.851 108.225,171.885 108.107,171.999 108.132 C 172.300 108.200,172.959 106.902,172.872 106.414 C 172.830 106.181,172.859 106.029,172.937 106.077 C 173.109 106.184,173.797 104.602,173.978 103.682 C 174.051 103.314,174.285 102.539,174.498 101.961 C 175.351 99.649,175.355 89.001,174.504 86.944 C 174.287 86.418,174.004 85.520,173.876 84.949 C 172.422 78.479,165.393 70.525,158.971 68.085 C 158.410 67.872,157.684 67.557,157.359 67.386 C 157.033 67.215,156.121 66.926,155.332 66.745 C 154.543 66.564,153.510 66.257,153.037 66.063 C 152.259 65.744,151.555 65.710,145.768 65.710 L 139.359 65.710 137.875 66.236 C 137.059 66.526,136.260 66.762,136.101 66.762 C 135.146 66.762,130.123 69.096,128.106 70.476 L 126.829 71.351 126.825 70.539 C 126.814 68.266,126.147 66.654,124.978 66.074 C 124.015 65.595,83.890 65.425,82.168 65.892 M272.131 65.818 C 271.029 66.002,270.356 66.451,269.823 67.356 C 269.445 67.997,269.440 68.350,269.440 94.413 C 269.440 124.314,269.279 121.492,271.035 122.304 L 271.927 122.716 290.196 122.716 C 312.747 122.716,310.760 123.166,310.760 118.063 C 310.760 112.644,312.149 113.065,294.261 113.060 L 280.057 113.056 280.057 106.074 L 280.057 99.091 290.913 99.090 C 307.224 99.088,306.552 99.301,306.552 94.118 C 306.552 88.934,307.500 89.257,292.061 89.179 L 280.057 89.118 280.057 82.249 L 280.057 75.380 293.974 75.328 C 311.179 75.263,309.804 75.658,309.804 70.780 C 309.804 67.244,309.252 66.190,307.194 65.792 C 306.121 65.585,273.380 65.608,272.131 65.818 M202.917 65.938 C 202.733 65.986,202.432 65.986,202.248 65.938 C 202.064 65.890,202.214 65.850,202.582 65.850 C 202.951 65.850,203.101 65.890,202.917 65.938 M150.167 75.752 C 150.641 75.934,151.345 76.141,151.733 76.212 C 155.498 76.896,160.594 81.237,162.698 85.551 C 162.992 86.153,163.297 86.605,163.377 86.555 C 163.457 86.506,163.481 86.624,163.430 86.819 C 163.379 87.014,163.561 87.703,163.833 88.351 C 165.227 91.663,164.426 101.166,162.562 103.441 C 162.455 103.571,162.419 103.812,162.482 103.977 C 162.546 104.142,162.524 104.231,162.435 104.176 C 162.346 104.121,161.906 104.648,161.457 105.348 C 158.892 109.344,153.830 112.609,149.512 113.055 C 148.620 113.147,147.409 113.373,146.821 113.559 C 145.911 113.846,145.632 113.861,144.947 113.661 C 144.504 113.532,143.582 113.339,142.898 113.231 C 139.792 112.744,138.781 112.412,136.107 111.001 C 134.058 109.919,132.452 108.584,130.917 106.688 C 130.218 105.824,129.574 105.138,129.488 105.163 C 129.401 105.188,129.376 105.087,129.433 104.939 C 129.558 104.613,128.960 103.644,128.723 103.790 C 128.631 103.847,128.603 103.768,128.662 103.615 C 128.783 103.300,128.036 101.711,127.826 101.839 C 127.751 101.885,127.674 101.626,127.655 101.265 C 127.611 100.424,127.035 98.677,126.841 98.797 C 126.760 98.847,126.691 96.911,126.687 94.494 C 126.683 92.078,126.754 90.100,126.845 90.100 C 126.936 90.100,127.145 89.605,127.310 89.000 C 127.476 88.396,127.877 87.330,128.202 86.633 C 128.552 85.882,128.732 85.265,128.643 85.120 C 128.553 84.975,128.569 84.924,128.681 84.993 C 128.785 85.058,129.405 84.302,130.059 83.314 C 132.205 80.068,136.640 76.809,139.804 76.153 C 140.365 76.037,141.010 75.839,141.239 75.713 C 142.309 75.124,148.609 75.151,150.167 75.752 M194.500 108.623 C 194.472 114.691,194.449 109.670,194.449 97.465 C 194.449 85.261,194.472 80.296,194.500 86.433 C 194.528 92.569,194.528 102.555,194.500 108.623 M166.810 115.027 C 166.810 115.059,166.487 115.382,166.093 115.744 L 165.375 116.404 166.035 115.686 C 166.648 115.019,166.810 114.881,166.810 115.027 M161.454 126.434 C 158.739 126.905,155.176 128.513,153.128 130.191 C 152.338 130.838,151.851 131.606,152.606 131.013 C 152.907 130.777,152.916 130.784,152.688 131.074 C 152.549 131.252,152.324 131.355,152.188 131.303 C 151.873 131.182,150.643 132.664,149.629 134.385 C 149.195 135.122,148.757 135.823,148.655 135.943 C 148.552 136.064,148.520 136.213,148.582 136.276 C 148.645 136.338,148.723 136.756,148.756 137.205 C 149.179 142.960,150.968 150.649,152.773 154.472 C 153.171 155.313,153.483 156.054,153.467 156.119 C 153.405 156.362,157.203 158.185,158.393 158.483 C 159.077 158.655,160.110 158.954,160.689 159.147 C 161.267 159.341,162.292 159.562,162.966 159.638 C 163.640 159.714,164.501 159.906,164.879 160.065 C 165.257 160.223,166.219 160.467,167.017 160.606 C 167.814 160.746,169.137 161.165,169.955 161.538 C 170.773 161.911,171.521 162.167,171.618 162.108 C 171.714 162.048,171.770 162.109,171.741 162.244 C 171.712 162.378,171.789 162.493,171.911 162.497 C 172.034 162.502,172.206 162.584,172.294 162.680 C 172.387 162.781,172.353 162.797,172.214 162.717 C 171.863 162.514,171.923 162.863,172.310 163.270 C 172.890 163.880,172.649 165.112,171.752 166.132 C 171.310 166.634,171.050 167.089,171.131 167.219 C 171.215 167.356,171.186 167.392,171.056 167.311 C 170.939 167.239,170.307 167.450,169.653 167.780 C 167.499 168.867,159.877 169.026,156.671 168.050 C 155.882 167.810,154.895 167.554,154.478 167.482 C 154.061 167.410,153.489 167.232,153.207 167.086 C 152.473 166.707,151.093 166.414,151.252 166.672 C 151.332 166.800,151.257 166.829,151.050 166.749 C 150.869 166.680,150.764 166.693,150.817 166.777 C 150.869 166.862,150.637 167.092,150.300 167.288 C 149.184 167.938,147.888 170.215,147.615 172.008 C 147.579 172.242,147.459 172.463,147.349 172.500 C 147.238 172.537,147.195 172.749,147.253 172.971 C 147.311 173.193,147.280 173.326,147.185 173.267 C 146.885 173.082,147.203 176.232,147.555 176.949 C 148.269 178.398,150.182 179.540,152.846 180.106 C 153.529 180.252,154.476 180.510,154.950 180.680 C 157.773 181.693,170.419 181.568,173.454 180.498 C 174.215 180.229,174.958 180.010,175.106 180.010 C 175.983 180.010,181.232 177.036,181.075 176.628 C 181.027 176.502,181.052 176.373,181.131 176.339 C 181.272 176.280,182.870 171.471,183.252 169.954 C 183.459 169.137,183.904 168.630,184.935 168.040 C 185.277 167.844,185.557 167.617,185.557 167.534 C 185.557 167.452,185.686 167.384,185.844 167.384 C 186.044 167.384,186.138 167.167,186.154 166.667 C 186.176 165.953,186.177 165.952,186.322 166.523 C 186.524 167.315,186.538 161.522,186.339 159.804 C 186.006 156.934,183.730 153.322,181.062 151.428 C 179.076 150.018,174.588 148.063,173.337 148.063 C 173.121 148.063,172.282 147.847,171.473 147.583 C 170.664 147.319,169.520 147.052,168.932 146.991 C 162.444 146.310,159.327 141.970,163.545 139.491 L 164.419 138.977 169.201 139.003 C 173.500 139.027,174.090 139.069,175.036 139.419 C 175.615 139.634,176.570 139.905,177.160 140.022 C 177.750 140.140,178.676 140.404,179.218 140.610 C 180.328 141.032,181.061 141.103,180.855 140.769 C 180.776 140.641,180.824 140.587,180.973 140.637 C 181.662 140.866,182.793 139.035,183.297 136.872 C 183.494 136.031,183.703 135.170,183.762 134.959 C 183.821 134.749,183.889 134.428,183.913 134.246 C 183.936 134.064,184.008 133.862,184.073 133.797 C 184.139 133.732,184.142 133.549,184.081 133.391 C 184.021 133.233,184.079 133.037,184.211 132.955 C 184.629 132.697,184.096 130.164,183.480 129.479 C 182.863 128.792,180.177 127.663,178.575 127.416 C 177.944 127.319,176.911 127.049,176.279 126.817 C 175.053 126.365,163.563 126.068,161.454 126.434 M6.695 127.335 C 5.038 127.645,4.482 128.125,4.052 129.625 C 3.744 130.699,3.726 176.959,4.033 177.925 C 4.729 180.110,5.163 180.265,10.617 180.271 C 14.835 180.277,17.490 179.980,16.544 179.611 C 16.335 179.529,16.274 179.457,16.408 179.449 C 16.603 179.438,16.641 174.443,16.599 153.898 C 16.565 136.967,16.612 128.359,16.738 128.357 C 16.844 128.355,16.801 128.270,16.643 128.168 C 16.404 128.014,16.420 127.980,16.738 127.966 C 16.983 127.956,16.845 127.840,16.356 127.645 C 15.602 127.344,7.960 127.099,6.695 127.335 M70.110 127.417 C 68.667 127.724,68.115 127.939,68.675 127.976 C 68.938 127.993,69.067 128.043,68.962 128.088 C 68.657 128.216,68.803 179.277,69.108 179.471 C 69.270 179.573,69.223 179.626,68.962 179.638 C 68.722 179.648,68.864 179.764,69.345 179.949 C 70.615 180.440,78.851 180.402,79.860 179.902 C 81.456 179.110,81.389 179.516,81.452 170.144 L 81.507 161.836 83.365 161.827 C 86.593 161.811,90.347 161.502,91.235 161.180 C 91.700 161.011,92.685 160.779,93.423 160.665 C 94.867 160.441,96.909 159.691,98.900 158.655 C 100.982 157.571,101.501 157.245,101.145 157.245 C 100.847 157.245,100.852 157.206,101.196 156.863 C 101.406 156.652,101.578 156.353,101.578 156.198 C 101.578 156.043,101.747 155.548,101.953 155.098 C 102.897 153.039,103.671 150.708,103.876 149.307 C 103.999 148.465,104.347 146.758,104.650 145.514 C 105.166 143.385,105.720 139.723,105.832 137.685 C 105.860 137.186,105.960 136.777,106.055 136.777 C 106.151 136.777,106.069 136.601,105.875 136.386 C 105.532 136.007,105.532 135.999,105.874 136.130 C 106.125 136.227,105.996 135.926,105.422 135.082 C 104.980 134.430,104.543 133.944,104.450 134.001 C 104.358 134.058,104.220 134.004,104.144 133.881 C 104.058 133.741,104.089 133.708,104.227 133.793 C 104.708 134.091,104.408 133.564,103.730 132.924 C 101.395 130.717,98.445 128.986,96.087 128.439 C 95.385 128.276,94.504 128.014,94.129 127.855 C 92.751 127.273,72.520 126.904,70.110 127.417 M219.321 127.333 C 218.143 127.626,217.649 127.869,217.370 128.296 C 217.052 128.780,216.882 129.890,217.124 129.890 C 217.410 129.890,217.339 138.946,217.050 139.488 C 216.621 140.290,216.608 152.496,217.034 154.089 C 218.345 158.991,218.296 158.681,218.401 162.889 C 218.488 166.414,218.452 167.163,218.106 169.010 C 217.527 172.097,217.241 173.398,217.118 173.505 C 216.932 173.668,216.841 174.672,216.838 176.600 C 216.834 178.731,217.079 179.259,218.377 179.908 C 219.822 180.630,230.290 180.332,229.138 179.601 C 228.999 179.513,228.972 179.440,229.077 179.439 C 229.256 179.436,229.272 164.599,229.125 137.207 C 229.083 129.454,229.112 128.358,229.364 128.346 C 229.555 128.337,229.523 128.278,229.268 128.168 C 228.916 128.017,228.923 128.002,229.364 127.978 C 229.741 127.957,229.660 127.888,228.981 127.652 C 228.129 127.355,220.276 127.096,219.321 127.333 M296.813 127.417 C 295.270 127.797,294.575 128.520,294.023 130.317 C 293.902 130.709,293.866 131.131,293.942 131.255 C 294.024 131.387,293.999 131.429,293.880 131.355 C 293.770 131.287,293.617 131.381,293.540 131.565 C 293.385 131.936,292.769 133.545,292.058 135.438 C 291.801 136.121,291.459 136.982,291.298 137.351 C 290.412 139.376,289.784 141.206,289.885 141.470 C 289.949 141.635,289.923 141.722,289.829 141.664 C 289.662 141.561,288.857 143.008,288.857 143.410 C 288.857 143.520,288.592 144.195,288.268 144.909 C 287.944 145.623,287.723 146.375,287.777 146.580 C 287.831 146.785,287.824 146.902,287.761 146.840 C 287.586 146.665,287.154 147.380,286.764 148.491 C 286.150 150.238,285.482 151.952,285.040 152.912 C 284.806 153.423,284.657 154.004,284.709 154.204 C 284.761 154.404,284.740 154.528,284.662 154.480 C 284.505 154.383,283.883 155.582,283.883 155.983 C 283.883 156.123,283.582 156.827,283.214 157.546 C 282.523 158.896,282.406 159.267,282.736 159.063 C 283.008 158.894,282.972 159.102,282.643 159.604 C 282.487 159.842,282.396 160.227,282.441 160.458 C 282.486 160.690,282.462 160.880,282.388 160.880 C 282.314 160.880,282.239 161.117,282.223 161.406 C 282.206 161.695,282.007 162.793,281.781 163.845 C 281.555 164.897,281.294 166.231,281.203 166.810 C 280.804 169.325,279.815 173.352,279.207 174.940 C 278.409 177.021,278.317 177.386,278.257 178.699 C 278.213 179.678,278.182 179.732,277.563 179.937 C 276.627 180.246,283.232 180.468,286.250 180.229 C 289.263 179.990,289.239 180.008,290.665 176.959 C 290.933 176.386,291.153 175.783,291.153 175.620 C 291.154 175.457,291.310 175.065,291.500 174.749 C 291.966 173.978,292.376 172.444,292.196 172.152 C 292.107 172.009,292.129 171.965,292.250 172.040 C 292.455 172.166,293.257 170.679,293.257 170.173 C 293.257 170.021,293.466 169.485,293.721 168.981 C 293.976 168.478,294.156 168.020,294.121 167.964 C 294.087 167.908,297.299 167.905,301.259 167.958 L 308.460 168.054 308.850 168.877 C 309.065 169.330,309.297 169.645,309.366 169.576 C 309.435 169.507,309.444 169.630,309.387 169.849 C 309.326 170.083,309.519 170.742,309.856 171.446 C 310.172 172.105,310.494 172.946,310.573 173.314 C 310.652 173.682,310.867 174.328,311.052 174.749 C 311.237 175.170,311.555 175.945,311.759 176.471 C 311.964 176.997,312.228 177.407,312.347 177.382 C 312.467 177.356,312.518 177.456,312.462 177.602 C 312.406 177.748,312.543 178.227,312.767 178.666 C 313.449 180.002,314.133 180.195,318.125 180.177 C 320.007 180.168,321.214 180.100,320.882 180.021 C 320.558 179.943,320.213 179.831,320.117 179.772 C 320.016 179.710,319.986 178.301,320.045 176.441 L 320.148 173.219 320.948 171.678 C 321.635 170.355,321.778 169.868,321.960 168.234 C 322.076 167.188,322.251 166.181,322.350 165.997 C 322.453 165.803,322.456 165.662,322.356 165.662 C 322.261 165.662,322.138 165.543,322.082 165.397 C 322.008 165.206,322.092 165.161,322.378 165.236 L 322.777 165.340 322.384 164.947 C 322.167 164.731,321.928 164.265,321.853 163.912 C 321.777 163.560,321.639 163.176,321.546 163.059 C 321.452 162.942,321.214 162.383,321.016 161.816 C 320.534 160.431,320.198 159.729,320.058 159.815 C 319.995 159.854,319.933 159.630,319.922 159.318 C 319.897 158.656,319.090 156.835,318.879 156.966 C 318.800 157.015,318.776 156.896,318.827 156.701 C 318.878 156.507,318.704 155.900,318.440 155.354 C 318.177 154.807,317.903 154.084,317.833 153.746 C 317.763 153.409,317.542 152.848,317.342 152.500 C 317.141 152.152,316.978 151.775,316.978 151.663 C 316.978 151.551,316.690 150.803,316.339 150.000 C 315.987 149.198,315.545 148.178,315.356 147.734 C 315.166 147.289,314.945 146.967,314.864 147.016 C 314.784 147.066,314.758 146.953,314.808 146.764 C 314.922 146.327,314.023 143.936,313.766 143.992 C 313.660 144.014,313.617 143.867,313.670 143.664 C 313.785 143.224,313.001 141.512,312.754 141.664 C 312.659 141.722,312.630 141.644,312.689 141.491 C 312.824 141.140,312.583 140.327,311.802 138.498 C 311.002 136.623,310.138 134.445,309.696 133.186 C 309.502 132.631,309.215 131.943,309.059 131.656 C 308.902 131.368,308.632 130.679,308.459 130.123 C 308.078 128.905,307.380 128.030,306.465 127.625 C 305.660 127.269,298.075 127.105,296.813 127.417 M358.871 127.400 C 359.251 127.524,359.132 127.563,358.297 127.589 C 357.635 127.609,357.376 127.673,357.599 127.760 C 357.923 127.888,357.950 128.147,357.925 130.946 C 357.894 134.367,357.834 134.727,356.715 138.211 C 356.276 139.579,355.878 140.870,355.831 141.081 C 355.784 141.291,355.718 147.424,355.685 154.709 L 355.625 167.955 356.472 168.736 C 357.747 169.911,357.888 170.551,357.954 175.466 C 357.999 178.796,357.961 179.627,357.760 179.627 C 357.622 179.627,357.559 179.707,357.619 179.805 C 357.680 179.902,357.534 180.015,357.296 180.054 C 356.020 180.266,366.298 180.421,377.714 180.363 C 394.491 180.277,393.018 180.860,393.018 174.304 C 393.018 167.208,393.797 167.585,379.101 167.579 L 369.393 167.575 369.393 163.558 L 369.393 159.541 377.644 159.541 C 389.239 159.541,389.008 159.684,388.870 152.603 C 388.756 146.745,389.132 146.935,377.666 146.924 L 369.393 146.915 369.393 143.376 L 369.393 139.837 379.101 139.836 C 392.576 139.835,392.061 140.118,391.933 132.803 C 391.827 126.767,393.609 127.316,373.984 127.275 C 365.409 127.258,358.608 127.314,358.871 127.400 M90.240 140.297 C 93.002 141.272,94.039 143.452,92.839 145.765 C 91.703 147.954,88.927 148.987,84.122 149.008 L 81.492 149.020 81.492 144.398 L 81.492 139.777 85.480 139.901 C 88.150 139.984,89.723 140.115,90.240 140.297 M302.316 151.413 C 303.866 155.733,303.974 155.364,301.179 155.291 L 299.091 155.237 299.152 154.758 C 299.185 154.495,299.464 153.748,299.773 153.097 C 300.082 152.446,300.335 151.859,300.335 151.793 C 300.335 151.727,300.519 151.244,300.745 150.720 C 301.316 149.392,301.642 149.535,302.316 151.413 M388.664 154.519 C 388.627 155.230,388.597 154.648,388.597 153.228 C 388.597 151.808,388.627 151.227,388.664 151.937 C 388.701 152.647,388.701 153.809,388.664 154.519 " stroke="none" fill="#ececec" fill-rule="evenodd"></path><path id="path1" d="M197.563 7.978 C 197.801 8.024,198.145 8.022,198.328 7.975 C 198.511 7.927,198.317 7.889,197.896 7.891 C 197.475 7.894,197.325 7.933,197.563 7.978 M240.796 7.978 C 241.034 8.024,241.378 8.022,241.561 7.975 C 241.744 7.927,241.549 7.889,241.129 7.891 C 240.708 7.894,240.558 7.933,240.796 7.978 M25.681 8.363 C 25.971 8.407,26.444 8.407,26.734 8.363 C 27.023 8.319,26.786 8.283,26.208 8.283 C 25.629 8.283,25.392 8.319,25.681 8.363 M61.454 8.358 C 61.638 8.406,61.939 8.406,62.123 8.358 C 62.308 8.309,62.157 8.270,61.789 8.270 C 61.420 8.270,61.270 8.309,61.454 8.358 M96.846 8.363 C 97.137 8.407,97.567 8.406,97.803 8.360 C 98.038 8.315,97.800 8.279,97.274 8.280 C 96.748 8.282,96.555 8.319,96.846 8.363 M110.904 8.369 C 115.244 8.398,122.346 8.398,126.686 8.369 C 131.026 8.340,127.475 8.317,118.795 8.317 C 110.115 8.317,106.564 8.340,110.904 8.369 M143.902 8.363 C 144.192 8.407,144.665 8.407,144.955 8.363 C 145.244 8.319,145.007 8.283,144.429 8.283 C 143.850 8.283,143.613 8.319,143.902 8.363 M343.615 8.369 C 348.008 8.398,355.196 8.398,359.589 8.369 C 363.981 8.341,360.387 8.317,351.602 8.317 C 342.817 8.317,339.223 8.341,343.615 8.369 M327.974 37.016 C 327.974 50.799,327.997 56.409,328.025 49.483 C 328.053 42.557,328.053 31.280,328.025 24.423 C 327.997 17.566,327.974 23.233,327.974 37.016 M331.226 37.016 C 331.226 50.799,331.249 56.409,331.277 49.483 C 331.305 42.557,331.305 31.280,331.277 24.423 C 331.249 17.566,331.226 23.233,331.226 37.016 M197.564 17.738 C 197.908 17.780,198.425 17.780,198.712 17.736 C 199.000 17.692,198.718 17.657,198.087 17.659 C 197.456 17.660,197.221 17.695,197.564 17.738 M240.606 17.738 C 240.950 17.780,241.466 17.780,241.754 17.736 C 242.041 17.692,241.760 17.657,241.129 17.659 C 240.497 17.660,240.262 17.695,240.606 17.738 M108.934 24.677 C 108.934 28.517,108.959 30.088,108.991 28.168 C 109.022 26.248,109.022 23.106,108.991 21.186 C 108.959 19.266,108.934 20.837,108.934 24.677 M317.834 46.676 C 317.834 55.146,317.857 58.611,317.886 54.376 C 317.915 50.141,317.915 43.211,317.886 38.977 C 317.857 34.742,317.834 38.207,317.834 46.676 M260.234 36.824 C 260.235 37.982,260.266 38.431,260.304 37.822 C 260.342 37.213,260.342 36.266,260.303 35.718 C 260.265 35.169,260.234 35.667,260.234 36.824 M108.934 48.494 C 108.934 52.386,108.960 53.952,108.991 51.972 C 109.022 49.993,109.022 46.807,108.991 44.894 C 108.959 42.981,108.934 44.601,108.934 48.494 M78.288 65.173 C 78.472 65.221,78.773 65.221,78.957 65.173 C 79.142 65.124,78.991 65.085,78.623 65.085 C 78.254 65.085,78.104 65.124,78.288 65.173 M322.382 65.178 C 322.671 65.221,323.144 65.221,323.434 65.178 C 323.723 65.134,323.486 65.098,322.908 65.098 C 322.329 65.098,322.092 65.134,322.382 65.178 M145.531 65.559 C 145.769 65.604,146.113 65.603,146.296 65.555 C 146.479 65.507,146.284 65.469,145.863 65.471 C 145.442 65.474,145.293 65.513,145.531 65.559 M202.248 65.938 C 202.432 65.986,202.733 65.986,202.917 65.938 C 203.101 65.890,202.951 65.850,202.582 65.850 C 202.214 65.850,202.064 65.890,202.248 65.938 M145.149 75.318 C 145.493 75.361,146.010 75.360,146.297 75.316 C 146.585 75.272,146.303 75.238,145.672 75.239 C 145.041 75.240,144.805 75.275,145.149 75.318 M194.449 97.465 C 194.449 109.670,194.472 114.691,194.500 108.623 C 194.528 102.555,194.528 92.569,194.500 86.433 C 194.472 80.296,194.449 85.261,194.449 97.465 M166.035 115.686 L 165.375 116.404 166.093 115.744 C 166.487 115.382,166.810 115.059,166.810 115.027 C 166.810 114.881,166.648 115.019,166.035 115.686 M199.091 122.759 C 199.433 122.802,199.993 122.802,200.335 122.759 C 200.677 122.717,200.397 122.682,199.713 122.682 C 199.029 122.682,198.749 122.717,199.091 122.759 M222.616 122.759 C 222.956 122.801,223.559 122.802,223.956 122.760 C 224.352 122.719,224.075 122.684,223.338 122.684 C 222.602 122.683,222.277 122.717,222.616 122.759 M260.497 122.759 C 260.839 122.802,261.399 122.802,261.741 122.759 C 262.083 122.717,261.803 122.682,261.119 122.682 C 260.435 122.682,260.155 122.717,260.497 122.759 M121.000 126.451 C 120.477 126.543,119.702 126.745,119.278 126.900 C 118.855 127.055,118.024 127.316,117.433 127.482 C 114.155 128.398,109.329 131.721,107.119 134.585 C 106.676 135.159,106.185 135.629,106.027 135.629 C 105.781 135.629,105.778 135.676,106.002 135.952 C 106.235 136.238,106.223 136.258,105.893 136.135 C 105.530 135.998,105.530 136.005,105.875 136.386 C 106.069 136.601,106.151 136.777,106.055 136.777 C 105.960 136.777,105.860 137.186,105.832 137.685 C 105.720 139.723,105.166 143.385,104.650 145.514 C 104.347 146.758,103.999 148.465,103.876 149.307 C 103.678 150.658,103.180 152.184,101.972 155.141 C 101.779 155.615,101.527 156.239,101.412 156.528 C 101.298 156.817,101.094 157.060,100.961 157.067 C 100.827 157.075,100.890 157.155,101.100 157.245 C 101.427 157.386,101.434 157.412,101.148 157.423 C 100.844 157.435,100.848 157.472,101.196 157.819 C 101.489 158.113,101.578 158.458,101.579 159.302 C 101.581 160.733,101.871 162.479,102.227 163.191 C 102.382 163.502,102.608 164.235,102.730 164.819 C 103.969 170.789,111.674 178.742,117.551 180.117 C 117.867 180.191,118.771 180.475,119.560 180.749 C 120.993 181.246,121.001 181.246,127.308 181.243 L 133.620 181.241 135.393 180.625 C 136.367 180.287,137.271 180.009,137.401 180.009 C 139.078 180.001,147.513 174.126,147.011 173.314 C 146.902 173.138,146.930 173.110,147.107 173.219 C 147.293 173.334,147.331 173.270,147.253 172.971 C 147.195 172.749,147.238 172.537,147.349 172.500 C 147.459 172.463,147.579 172.242,147.615 172.008 C 147.920 170.010,149.185 167.934,150.598 167.111 C 151.098 166.820,151.459 166.506,151.401 166.412 C 151.343 166.318,151.472 165.842,151.687 165.354 C 151.903 164.867,152.175 163.897,152.291 163.200 C 152.407 162.503,152.657 161.631,152.845 161.263 C 153.738 159.517,153.706 156.439,152.775 154.472 C 150.976 150.670,149.179 142.962,148.759 137.241 C 148.727 136.812,148.639 136.361,148.562 136.237 C 148.486 136.113,148.503 136.011,148.600 136.011 C 149.217 136.011,144.960 131.878,142.771 130.351 C 141.157 129.226,137.564 127.403,136.960 127.403 C 136.822 127.403,136.058 127.169,135.261 126.883 C 133.711 126.327,123.473 126.017,121.000 126.451 M194.778 126.459 C 194.221 126.557,193.532 126.753,193.248 126.895 C 192.963 127.036,192.300 127.267,191.774 127.408 C 189.189 128.099,183.701 132.399,184.094 133.425 C 184.148 133.565,184.139 133.732,184.073 133.797 C 184.008 133.862,183.936 134.064,183.913 134.246 C 183.889 134.428,183.821 134.749,183.762 134.959 C 183.703 135.170,183.494 136.031,183.297 136.872 C 182.801 138.998,181.663 140.867,180.999 140.646 C 180.432 140.456,180.827 146.465,181.513 148.446 C 182.397 151.002,183.915 153.646,185.060 154.623 C 186.893 156.189,190.296 158.055,192.157 158.515 C 192.788 158.671,193.648 158.930,194.067 159.091 C 194.487 159.251,195.594 159.506,196.527 159.657 C 197.460 159.808,198.396 160.024,198.606 160.137 C 198.817 160.250,199.690 160.455,200.547 160.594 C 201.999 160.829,204.502 161.809,205.279 162.447 C 206.998 163.858,205.982 166.456,203.157 167.869 C 201.204 168.846,192.826 168.929,190.148 167.997 C 189.570 167.796,188.689 167.571,188.192 167.496 C 187.695 167.422,187.238 167.281,187.176 167.182 C 187.115 167.083,186.904 167.001,186.706 167.001 C 186.462 167.001,186.322 166.834,186.268 166.475 C 186.204 166.052,186.183 166.090,186.160 166.667 C 186.140 167.164,186.043 167.384,185.844 167.384 C 185.686 167.384,185.557 167.452,185.557 167.534 C 185.557 167.617,185.277 167.844,184.935 168.040 C 183.904 168.630,183.459 169.137,183.252 169.954 C 182.870 171.471,181.272 176.280,181.131 176.339 C 181.052 176.373,181.035 176.523,181.093 176.674 C 181.151 176.825,181.112 176.949,181.007 176.949 C 180.902 176.949,181.173 177.329,181.608 177.793 C 182.454 178.693,183.967 179.435,186.035 179.963 C 186.667 180.124,187.915 180.480,188.809 180.755 L 190.435 181.253 197.609 181.240 C 203.845 181.229,204.920 181.185,205.835 180.897 C 206.413 180.716,207.523 180.393,208.301 180.181 C 211.911 179.196,216.852 175.769,216.968 174.170 C 216.991 173.857,217.058 173.558,217.118 173.505 C 217.241 173.398,217.527 172.097,218.106 169.010 C 218.737 165.644,218.539 159.748,217.687 156.576 C 217.349 155.313,217.029 154.042,216.978 153.750 C 216.680 152.053,210.419 148.535,206.707 147.979 C 206.187 147.901,205.367 147.682,204.885 147.492 C 204.402 147.302,203.259 147.055,202.344 146.943 C 201.429 146.831,200.441 146.617,200.149 146.468 C 199.856 146.318,199.316 146.133,198.948 146.055 C 195.004 145.225,194.129 141.198,197.501 139.393 C 198.381 138.922,206.237 138.802,207.843 139.236 C 208.264 139.350,209.168 139.587,209.852 139.764 C 210.536 139.940,211.720 140.287,212.484 140.535 C 214.526 141.197,217.007 141.041,216.910 140.256 C 216.888 140.078,216.975 139.677,217.103 139.364 C 217.354 138.749,217.374 129.890,217.124 129.890 C 217.051 129.890,217.006 129.635,217.025 129.324 C 217.043 129.013,216.996 128.797,216.919 128.844 C 216.842 128.892,216.038 128.632,215.132 128.267 C 214.226 127.901,212.990 127.523,212.386 127.425 C 211.781 127.328,210.727 127.052,210.043 126.813 C 208.667 126.331,197.034 126.061,194.778 126.459 M17.504 127.476 C 16.724 127.637,16.479 127.748,16.738 127.823 L 17.121 127.933 16.738 127.958 C 16.419 127.979,16.404 128.014,16.643 128.168 C 16.801 128.270,16.844 128.355,16.738 128.357 C 16.612 128.359,16.565 136.946,16.599 153.836 C 16.640 174.276,16.603 179.343,16.408 179.467 C 16.236 179.576,16.277 179.626,16.547 179.637 L 16.930 179.654 16.547 179.807 C 15.899 180.067,18.905 180.297,22.962 180.297 C 29.483 180.297,28.955 181.396,29.077 167.575 C 29.149 159.408,29.225 156.884,29.386 157.245 C 29.622 157.776,30.054 158.966,30.734 160.958 C 30.982 161.685,31.264 162.375,31.360 162.491 C 31.457 162.607,31.639 163.132,31.765 163.656 C 31.890 164.181,32.155 164.895,32.353 165.243 C 32.550 165.591,32.712 166.004,32.712 166.161 C 32.712 166.433,33.441 168.478,34.275 170.540 C 34.487 171.066,34.744 171.841,34.845 172.262 C 34.946 172.683,35.196 173.312,35.400 173.660 C 35.605 174.008,35.871 174.697,35.991 175.190 C 36.112 175.684,36.284 176.183,36.375 176.300 C 36.465 176.417,36.704 176.989,36.904 177.572 C 37.722 179.949,38.367 180.270,42.353 180.285 C 46.739 180.300,47.937 179.854,48.406 178.031 C 48.518 177.594,48.773 176.891,48.972 176.471 C 49.171 176.050,49.460 175.318,49.614 174.845 C 49.863 174.082,50.255 172.989,51.674 169.106 C 51.885 168.527,52.255 167.448,52.496 166.708 C 52.737 165.969,53.027 165.194,53.142 164.987 C 53.256 164.780,53.519 164.094,53.726 163.462 C 54.299 161.711,54.993 159.896,55.348 159.216 C 55.523 158.879,55.670 158.448,55.674 158.259 C 55.678 158.070,55.804 157.700,55.954 157.437 C 56.194 157.017,56.228 158.223,56.235 167.193 C 56.245 179.210,56.248 179.238,57.955 179.960 C 59.367 180.557,68.433 180.434,68.643 179.814 C 68.678 179.711,68.851 179.626,69.026 179.624 C 69.254 179.622,69.277 179.578,69.108 179.471 C 68.803 179.277,68.657 128.180,68.962 128.149 C 69.067 128.139,68.938 128.061,68.675 127.977 L 68.197 127.824 68.675 127.782 C 70.854 127.591,65.911 127.230,61.119 127.229 C 53.224 127.228,53.346 127.189,52.025 130.156 C 51.702 130.881,51.385 131.741,51.320 132.066 C 51.255 132.391,51.050 132.917,50.864 133.235 C 50.679 133.552,50.421 134.242,50.292 134.768 C 50.163 135.294,49.948 135.897,49.816 136.107 C 49.683 136.318,49.447 136.963,49.291 137.542 C 49.135 138.121,48.829 139.024,48.611 139.550 C 48.394 140.077,47.909 141.368,47.534 142.420 C 47.158 143.472,46.773 144.505,46.677 144.715 C 46.581 144.926,46.403 145.485,46.282 145.959 C 46.160 146.432,45.908 147.121,45.720 147.489 C 45.532 147.857,45.316 148.460,45.239 148.828 C 45.162 149.197,44.937 149.818,44.739 150.209 C 44.541 150.600,44.290 151.338,44.180 151.848 C 44.071 152.358,43.770 153.193,43.511 153.704 C 43.253 154.214,43.042 154.828,43.042 155.067 C 43.042 156.133,42.549 155.888,42.191 154.643 C 41.744 153.090,40.778 150.505,40.564 150.291 C 40.454 150.181,40.363 149.895,40.363 149.656 C 40.363 149.417,40.157 148.755,39.905 148.185 C 39.653 147.615,39.384 146.859,39.307 146.506 C 39.230 146.152,38.963 145.438,38.713 144.919 C 38.463 144.399,38.259 143.833,38.259 143.660 C 38.259 143.487,38.050 142.932,37.794 142.426 C 37.538 141.921,37.223 141.067,37.095 140.529 C 36.967 139.991,36.752 139.378,36.617 139.168 C 36.482 138.957,36.267 138.355,36.139 137.829 C 36.012 137.303,35.783 136.625,35.631 136.322 C 35.479 136.019,35.228 135.330,35.073 134.791 C 34.918 134.252,34.637 133.467,34.449 133.046 C 34.260 132.626,34.045 132.023,33.971 131.707 C 33.897 131.392,33.691 130.792,33.513 130.374 C 32.165 127.205,32.478 127.316,24.773 127.274 C 20.534 127.250,18.298 127.312,17.504 127.476 M230.033 127.478 C 229.137 127.664,228.991 127.739,229.364 127.821 L 229.842 127.925 229.364 127.964 C 228.921 128.001,228.914 128.016,229.268 128.168 C 229.523 128.278,229.555 128.337,229.364 128.346 C 229.112 128.358,229.083 129.454,229.125 137.207 C 229.272 164.599,229.256 179.436,229.077 179.439 C 228.972 179.440,229.006 179.518,229.153 179.611 C 229.367 179.746,229.348 179.796,229.057 179.862 C 228.244 180.046,231.994 180.296,235.491 180.291 C 242.360 180.280,241.980 181.035,241.994 167.384 C 242.005 157.400,242.083 156.438,242.660 159.158 C 242.738 159.527,242.947 160.043,243.124 160.306 C 243.301 160.569,243.555 161.231,243.689 161.777 C 243.822 162.323,244.097 163.094,244.300 163.491 C 244.502 163.888,244.668 164.388,244.669 164.603 C 244.671 164.817,244.886 165.453,245.148 166.016 C 245.410 166.579,245.624 167.165,245.624 167.319 C 245.624 167.473,245.830 168.046,246.081 168.591 C 246.332 169.137,246.594 169.842,246.664 170.158 C 246.733 170.473,246.989 171.162,247.233 171.688 C 247.936 173.209,248.516 174.693,248.697 175.433 C 249.019 176.758,250.338 179.347,250.867 179.694 C 251.913 180.378,256.913 180.565,259.045 179.999 C 259.998 179.746,260.829 178.739,261.281 177.289 C 261.487 176.629,261.826 175.658,262.035 175.132 C 262.244 174.605,262.520 173.874,262.649 173.505 C 262.778 173.137,263.139 172.147,263.450 171.306 C 264.146 169.424,264.840 167.462,265.342 165.962 C 265.551 165.338,265.802 164.730,265.900 164.612 C 265.998 164.494,266.210 163.894,266.370 163.279 C 266.530 162.664,266.778 161.980,266.922 161.759 C 267.065 161.539,267.288 161.014,267.416 160.593 C 267.724 159.585,268.033 158.967,268.229 158.967 C 268.317 158.967,268.390 163.121,268.391 168.197 C 268.395 181.029,267.912 180.244,275.849 180.301 C 278.427 180.320,279.718 180.298,278.718 180.253 C 277.033 180.177,276.949 180.155,277.556 179.947 C 278.182 179.732,278.213 179.678,278.257 178.699 C 278.317 177.386,278.409 177.021,279.207 174.940 C 279.815 173.352,280.804 169.325,281.203 166.810 C 281.294 166.231,281.555 164.897,281.781 163.845 C 282.007 162.793,282.206 161.695,282.223 161.406 C 282.239 161.117,282.314 160.880,282.388 160.880 C 282.462 160.880,282.486 160.690,282.441 160.458 C 282.396 160.227,282.487 159.842,282.643 159.604 C 282.972 159.102,283.008 158.894,282.736 159.063 C 282.513 159.200,282.476 158.747,282.688 158.479 C 282.767 158.379,282.788 151.755,282.736 143.759 C 282.628 127.370,282.751 128.595,281.128 127.727 C 279.948 127.095,267.548 127.072,266.475 127.699 C 265.689 128.159,264.639 129.665,264.349 130.751 C 264.236 131.172,263.941 131.989,263.693 132.568 C 263.444 133.147,263.185 133.835,263.115 134.099 C 263.046 134.362,262.872 134.835,262.728 135.151 C 262.445 135.772,261.661 138.017,261.191 139.550 C 261.030 140.077,260.737 140.851,260.541 141.272 C 260.202 141.997,259.959 142.691,259.268 144.907 C 258.978 145.836,258.757 146.441,257.507 149.727 C 257.179 150.590,256.911 151.433,256.911 151.600 C 256.911 151.767,256.746 152.228,256.544 152.623 C 256.342 153.018,256.117 153.663,256.043 154.057 C 255.706 155.856,254.232 154.998,254.232 153.002 C 254.232 152.798,254.029 152.184,253.781 151.638 C 253.307 150.599,252.734 148.975,252.130 146.967 C 251.933 146.312,251.650 145.537,251.501 145.246 C 251.352 144.954,251.039 144.156,250.806 143.472 C 250.055 141.269,249.413 139.555,249.265 139.359 C 249.186 139.254,249.065 138.873,248.997 138.513 C 248.928 138.153,248.668 137.421,248.418 136.887 C 248.168 136.353,247.900 135.615,247.824 135.246 C 247.747 134.878,247.604 134.477,247.505 134.354 C 247.407 134.232,247.123 133.500,246.875 132.728 C 245.590 128.733,245.278 128.159,244.094 127.618 C 243.206 127.212,231.857 127.099,230.033 127.478 M320.173 127.484 C 319.181 127.751,318.125 128.609,318.125 129.149 C 318.125 129.334,318.039 129.538,317.934 129.603 C 317.488 129.879,317.702 136.484,318.193 137.584 C 319.218 139.881,318.973 139.835,330.219 139.851 C 335.404 139.858,339.797 139.924,339.982 139.997 C 340.346 140.141,340.052 140.597,336.011 146.161 C 335.485 146.886,334.194 148.689,333.142 150.169 C 332.090 151.648,330.454 153.918,329.507 155.212 C 328.560 156.505,327.226 158.359,326.542 159.331 C 323.971 162.984,322.476 164.890,322.264 164.785 C 322.145 164.726,322.219 164.824,322.429 165.003 C 322.810 165.325,322.809 165.327,322.396 165.230 C 322.096 165.159,322.008 165.206,322.082 165.397 C 322.138 165.543,322.261 165.662,322.356 165.662 C 322.456 165.662,322.453 165.803,322.350 165.997 C 322.251 166.181,322.076 167.188,321.960 168.234 C 321.778 169.868,321.635 170.355,320.948 171.678 L 320.148 173.219 320.045 176.442 C 319.934 179.947,319.935 179.952,321.030 180.049 C 321.274 180.070,320.354 180.139,318.986 180.201 C 317.618 180.263,325.753 180.326,337.064 180.340 C 348.674 180.354,357.461 180.294,357.245 180.201 C 356.884 180.046,356.887 180.036,357.304 180.023 C 357.548 180.016,357.693 179.924,357.628 179.818 C 357.563 179.713,357.622 179.627,357.760 179.627 C 357.961 179.627,357.999 178.796,357.954 175.466 C 357.888 170.581,357.743 169.907,356.507 168.768 C 356.060 168.356,355.728 167.919,355.768 167.797 C 355.824 167.631,353.540 167.575,346.644 167.575 C 341.585 167.575,337.446 167.529,337.446 167.472 C 337.446 167.414,337.777 166.919,338.180 166.372 C 338.584 165.824,339.028 165.160,339.166 164.897 C 339.304 164.634,339.904 163.773,340.499 162.984 C 341.094 162.195,342.006 160.962,342.526 160.244 C 343.046 159.526,343.651 158.709,343.870 158.427 C 344.089 158.145,344.939 156.925,345.760 155.715 C 346.581 154.505,347.703 152.953,348.253 152.266 C 348.804 151.579,349.697 150.374,350.238 149.588 C 351.190 148.205,351.799 147.343,354.141 144.062 C 354.748 143.212,355.326 142.516,355.424 142.516 C 355.574 142.516,355.852 141.563,355.898 140.890 C 355.906 140.784,356.272 139.579,356.713 138.211 C 357.834 134.731,357.894 134.370,357.925 130.946 C 357.950 128.147,357.923 127.888,357.599 127.760 C 357.376 127.673,357.635 127.609,358.297 127.589 C 359.123 127.563,359.247 127.523,358.871 127.403 C 358.003 127.125,321.222 127.202,320.173 127.484 M132.153 139.741 C 135.232 141.203,137.270 144.013,138.535 148.541 C 138.822 149.567,138.821 158.039,138.535 159.063 C 136.515 166.277,132.553 169.154,125.487 168.541 C 122.248 168.259,117.473 164.924,117.453 162.930 C 117.452 162.802,117.248 162.341,116.999 161.906 C 116.750 161.471,116.444 160.530,116.320 159.816 C 116.196 159.102,115.970 158.221,115.818 157.858 C 115.424 156.913,115.427 150.683,115.822 149.737 C 115.976 149.369,116.191 148.506,116.301 147.819 C 116.411 147.131,116.715 146.195,116.976 145.738 C 117.237 145.281,117.452 144.802,117.453 144.674 C 117.464 143.634,120.209 140.890,122.334 139.797 C 124.642 138.609,129.708 138.580,132.153 139.741 M388.597 153.228 C 388.597 154.648,388.627 155.230,388.664 154.519 C 388.701 153.809,388.701 152.647,388.664 151.937 C 388.627 151.227,388.597 151.808,388.597 153.228 M12.865 180.333 C 13.049 180.381,13.350 180.381,13.534 180.333 C 13.718 180.285,13.568 180.245,13.199 180.245 C 12.831 180.245,12.681 180.285,12.865 180.333 M71.975 180.333 C 72.159 180.381,72.461 180.381,72.645 180.333 C 72.829 180.285,72.678 180.245,72.310 180.245 C 71.942 180.245,71.791 180.285,71.975 180.333 M76.566 180.333 C 76.750 180.381,77.052 180.381,77.236 180.333 C 77.420 180.285,77.269 180.245,76.901 180.245 C 76.533 180.245,76.382 180.285,76.566 180.333 M285.270 180.333 C 285.454 180.381,285.756 180.381,285.940 180.333 C 286.124 180.285,285.973 180.245,285.605 180.245 C 285.237 180.245,285.086 180.285,285.270 180.333 M359.589 180.336 C 359.825 180.381,360.213 180.381,360.450 180.336 C 360.686 180.290,360.493 180.253,360.019 180.253 C 359.546 180.253,359.352 180.290,359.589 180.336 " stroke="none" fill="#fcd44c" fill-rule="evenodd"></path></g></svg>