<svg version="1.1" xmlns="http://www.w3.org/2000/svg" xmlns:xlink="http://www.w3.org/1999/xlink" x="0px" y="0px"
	 viewBox="0 0 300 300" style="enable-background:new 0 0 300 300;" xml:space="preserve">
<style type="text/css">
	.com2-st0{fill:#FFFFFF;}
	.com2-st1{fill:#000002;}
	.com2-st2{fill:#010DEB;}
</style>
<rect class="com2-st0" width="298.6" height="298.6"/>
<rect y="18.7" class="com2-st1" width="27.5" height="3.8"/>
<rect y="25.9" class="com2-st1" width="27.5" height="3.8"/>
<rect y="33.9" class="com2-st1" width="27.5" height="3.8"/>
<rect y="42.8" class="com2-st1" width="27.5" height="3.8"/>
<rect y="52.8" class="com2-st1" width="27.5" height="3.8"/>
<rect y="63.6" class="com2-st1" width="27.5" height="3.8"/>
<rect y="74.5" class="com2-st1" width="27.5" height="3.8"/>
<rect y="87.5" class="com2-st1" width="27.5" height="3.8"/>
<rect y="101.4" class="com2-st1" width="27.5" height="3.8"/>
<rect y="116" class="com2-st1" width="27.5" height="3.8"/>
<rect y="132" class="com2-st1" width="27.5" height="3.8"/>
<rect y="150.2" class="com2-st1" width="27.5" height="3.8"/>
<rect y="169.5" class="com2-st1" width="27.5" height="3.8"/>
<rect y="191.2" class="com2-st1" width="27.5" height="3.8"/>
<rect y="214" class="com2-st1" width="27.5" height="3.8"/>
<rect y="239.1" class="com2-st1" width="27.5" height="3.8"/>
<rect y="266.2" class="com2-st1" width="27.5" height="3.8"/>
<rect y="296.2" class="com2-st1" width="27.5" height="3.8"/>
<polygon class="com2-st1" points="24.8,291.5 16.1,282.8 24.1,274.7 21.5,272.1 13.4,280.1 5.4,272.1 2.7,274.7 10.8,282.8 2,291.5
	4.7,294.2 13.4,285.4 22.2,294.2 "/>
<polygon class="com2-st1" points="27.5,249.5 19.8,239.7 28.8,232.7 26.5,229.8 17.5,236.8 10.5,227.8 7.5,230.1 14.6,239.1 4.8,246.7
	7.1,249.7 16.9,242 24.5,251.8 "/>
<polygon class="com2-st1" points="36.7,209.4 30.5,198.7 40.4,193 38.5,189.8 28.6,195.4 23,185.6 19.7,187.4 25.4,197.3 14.7,203.5
	16.5,206.7 27.3,200.6 33.4,211.3 "/>
<polygon class="com2-st1" points="49.9,174.4 46.3,162.6 57.3,159.3 56.2,155.7 45.3,159 42,148.1 38.4,149.2 41.7,160.1 29.8,163.7
	30.9,167.2 42.7,163.7 46.3,175.5 "/>
<polygon class="com2-st1" points="70.4,141 68.7,128.8 80,127.1 79.4,123.4 68.2,125.1 66.5,113.8 62.8,114.3 64.4,125.6 52.2,127.4
	52.7,131.1 65,129.3 66.7,141.6 "/>
<polygon class="com2-st1" points="96.5,110.7 96.4,98.4 107.8,98.3 107.8,94.6 96.4,94.6 96.4,83.2 92.6,83.2 92.7,94.6 80.3,94.7
	80.3,98.5 92.7,98.4 92.7,110.8 "/>
<polygon class="com2-st1" points="126.7,86.4 127.9,74.1 139.3,75.3 139.7,71.6 128.3,70.4 129.5,59.1 125.8,58.7 124.6,70 112.3,68.7
	111.9,72.5 124.2,73.7 122.9,86.1 "/>
<polygon class="com2-st1" points="160.4,65.9 164,54 174.9,57.3 176,53.7 165.1,50.4 168.3,39.5 164.7,38.4 161.5,49.4 149.6,45.8
	148.5,49.4 160.4,53 156.8,64.8 "/>
<polygon class="com2-st1" points="197.3,49.8 202.9,38.7 213.1,43.8 214.8,40.5 204.6,35.4 209.7,25.2 206.4,23.5 201.2,33.7 190.2,28.1
	188.5,31.4 199.6,37 194,48.1 "/>
<polygon class="com2-st1" points="237.8,39.7 244.8,29.5 254.2,36 256.3,32.9 247,26.4 253.4,17.1 250.3,14.9 243.9,24.3 233.7,17.3
	231.5,20.4 241.7,27.4 234.7,37.6 "/>
<polygon class="com2-st2" points="280.2,34.9 289.1,26.3 297.1,34.5 299.7,31.9 291.8,23.7 300,15.7 297.4,13 289.2,21 280.6,12.1
	277.9,14.7 286.5,23.6 277.6,32.2 "/>
</svg>
