<svg version="1.1" xmlns="http://www.w3.org/2000/svg" xmlns:xlink="http://www.w3.org/1999/xlink" x="0px" y="0px"
	 viewBox="0 0 300 300" style="enable-background:new 0 0 300 300;" xml:space="preserve">
<style type="text/css">
	.myr-st0{fill:#FFFFFF;}
	.myr-st1{fill:#262528;}
</style>
<rect class="myr-st0" width="300" height="300"/>
<path class="myr-st1" d="M243.9,269.7c0-7.9,0.3-15.9-0.1-23.8c-0.3-4.6,1.4-7.7,4.2-10.9c1.8-2,3.6-2.9,6.3-2.8
	c5.4,0.2,10.8,0.1,16.2,0.1c1.4,0,1.9,0.1,1.3,1.8c-1.2,3.8-1.1,3.9-5.1,3.9c-2,0-4.1,0.1-6.1,0c-1.1,0-1.4,0.4-1.4,1.5
	c0,6.1,0,12.1,0,18.2c0,1.3,0.6,1.6,1.7,1.5c2.6-0.1,5.2,0,7.8,0c1.2,0,1.8,0.2,1.8,1.6c0.1,3.8,0.2,3.8-3.7,3.8
	c-2.4,0-5.6-1-7.1,0.4c-1.6,1.6-0.5,4.8-0.5,7.3c-0.1,5.7,0.1,11.5-0.1,17.2c-0.1,2,0.6,2.4,2.4,2.3c2.9-0.1,5.9,0,8.8-0.1
	c1.2,0,1.6,0.4,1.6,1.6c0.4,6.5,0.4,6.5-6,6.5c-6.7,0-13.5-0.1-20.2,0c-1.6,0-2.1-0.4-2.1-2.1C244,288.4,243.9,279,243.9,269.7z"/>
<path class="myr-st1" d="M176.6,236.5c0.2-0.2,0.6-0.5,0.6-0.7c0.5-3.4,2.9-3.7,5.7-3.5c3.3,0.2,6.6,0,9.9,0c7.3,0,7.3,0,12.7,4
	c0.5-1.7,0-4.1,2.8-4.3c1.6-0.1,3.2,0.3,3.6,1.7s1.3,1.2,1.9,0.7c2-1.9,4.5-2.1,7-2.1c4.7-0.1,9.5,0,14.2,0c0.9-0.1,1.8,0.3,2.3,1.1
	c0.8,1.1,1.7,2.1,2.6,3.1c0.5-4,1.5-4.9,4.2-4.2c1.6,0.4,2.5,1.3,2.4,2.7c-0.1,1.4-1.2,2.4-2.9,2.5c-4.2,0.4-8.4,0.4-12.6,0.4
	c-4.5,0-5.9,1.5-6.2,6.1c-0.5,7.7-0.2,15.5-0.2,23.3v22.3c0,1.3,0,2.1,1.8,2.1s1.8-0.9,1.8-2.2c0-10,0-20.1,0-30.1
	c0-0.8,0.5-1.9-1-2.1c-0.8-0.1-2.7,0.8-1.9-1.4c0.6-1.5-1.2-4.4,2.6-4.2c4.5,0.2,9.1,0.1,13.7,0c1.7,0,2.1,0.5,2.1,2.2
	c-0.1,12.1-0.1,24.1,0,36.2c0,2.8-2.3,3.7-3.4,5.6c-1.9,3.1-4.4,4.8-8.5,4.3c-3.8-0.5-7.6-0.5-11.4,0c-4.2,0.6-6-1.9-8.4-4.4
	c-2.6-2.6-2.8-5.7-2.8-9.1c0.2-13.9,0.1-27.8,0.2-41.7c0-2.6,0.7-5.1,2-7.3h-5.3c2.4,4.6,2.4,9.4,2.4,14.3c0,15.3,0,30.5,0,45.8
	c0,1.9-0.5,2.4-2.4,2.4c-7-0.1-14-0.4-21,0.1c-3.9,0.2-6-1.5-7.8-4.3c-0.1-0.2-0.3-0.3-0.5-0.5v0.1c-0.6-1.8-2.7-2.6-2.6-4.9
	c0.1-8.8,0.1-17.7,0.1-26.5c-0.1-0.7,0-1.5,0.5-2.1c4.8-5.6,9.5-11.2,14.4-17c0.6,1.1,0.4,2,0.4,2.9v42c0,1.2-0.2,2.3,1.7,2.2
	c1.7,0,1.9-0.6,1.9-2c0-16.6,0-33.2,0-49.8c0-1.6-0.4-2-2-2c-4.3,0.1-8.6,0-12.9,0.1C176.9,237.9,176.3,237.7,176.6,236.5
	L176.6,236.5z"/>
<path class="myr-st1" d="M176.6,295.1c-0.8,0.4-0.1,0.8,0,1.2c0.3,1.7-0.5,3-2,3.2c-1.5,0.2-3.8,1-4.3-1.6c-0.4-2.1-1.3-1.4-1.9-0.3
	c-1.3,2.2-3.2,2.2-5.3,2.2c-7.4-0.1-14.7-0.1-22,0c-1.5,0-2-0.3-2-1.9c0.1-21.2,0.1-42.5,0-63.7c0-1.6,0.5-1.9,2-1.9
	c6.4,0.1,12.8,0,19.2,0c4.6,0,6.2,0.6,9.6,3.5c0.7-0.8-0.3-2.1,0.9-2.9c0.9-0.7,2-1,3-0.8c2.6,0.3,3.2,2.1,2.8,4.4l0.1-0.1
	c-1.5,1-3.3,1.4-5,1c-0.1-0.2-0.3-0.4-0.5-0.2c-0.1,0.1,0.1,0.4,0.1,0.6c1.5,3.4,2.2,7.1,2.1,10.8v37.4c0,3,0.9,6.1-1.9,8.7
	C173.5,293.4,175,295,176.6,295.1L176.6,295.1z M158,264.5V240c0-1.2,0.1-2.2-1.7-2.2c-1.7,0-1.8,0.8-1.8,2.1c0,16.5,0,33,0,49.5
	c0,1.3,0,2.2,1.8,2.2c1.8,0,1.8-0.8,1.8-2.1C158,281.2,158,272.9,158,264.5z M170.7,295.3l0.1,0.1v-0.2L170.7,295.3z"/>
<path class="myr-st1" d="M104.2,266.1c0-10.2,0.1-20.6,0-30.9c0-2.2,0.4-3,2.8-2.9c6,0.2,12,0.3,18,0c8.2-0.3,12.1,4.3,13.2,11.6
	c0.2,1.5,0.3,3,0.3,4.5c0,16.2,0,32.4,0.1,48.6c0,2.4-0.7,2.9-2.9,2.8c-3.5-0.2-6.9-0.1-10.4,0c-1.8,0.1-2.2-0.4-2.2-2.2
	c0.1-19.1,0-38.3,0.1-57.4c0-1.7-0.3-2.4-2.1-2.3c-1.9,0.1-1.3,1.4-1.3,2.3c0,19-0.1,37.9,0,56.9c0,2.3-0.7,2.8-2.8,2.7
	c-3.4-0.2-6.7-0.2-10.1,0c-2.2,0.1-2.6-0.7-2.6-2.7C104.3,286.8,104.2,276.4,104.2,266.1z"/>
<path class="myr-st1" d="M65.8,295.5c-0.4,0.2-0.6,0.3-0.7,0.4c-2.2,4.1-5.9,4.1-9.9,4c-6.2-0.2-12.5-0.1-18.7,0c-1.6,0-2.4-0.2-2.3-2.1
	c0.1-21.1,0.1-42.1,0-63.2c0-1.8,0.6-2.2,2.3-2.2c6.6,0.1,13.2,0.1,19.7,0c2.9-0.2,5.7,0.8,7.9,2.6c0.5,0.4,1.1,1.2,1.3-0.2
	c0.4-2,1.8-2.8,3.6-2.6c1.5,0.1,2.9,0.7,3,2.7c0.1,1.1,0.8,0.7,1.3,0.1c1.2-1.4,2.9-2.2,4.8-2.3c5.1-0.5,10.3-0.5,15.4,0
	c5,0.5,8.2,4.1,9.2,9.2c0.4,2,0.7,4.1,0.7,6.2c0,12.1,0,24.3,0,36.4c0.1,3.3-0.7,6.7-2.1,9.7c-1.6,3.4-5,5.7-8.8,5.6
	c-4.8,0.1-9.6-0.1-14.4-0.1c-0.8,0-1.6-0.2-2.4-0.6c-1.7-1-3.2-2.8-5,0.1c-0.8,1.2-2.8,0.9-4,0.4C65.3,298.8,65.8,297.1,65.8,295.5z
	 M66.3,237l-0.3-0.4c0,0.1-0.1,0.1-0.1,0.2C66,237,66.2,237.1,66.3,237c0,0.2,0,0.4,0,0.7c2.7,8.1,4.3,16.1-1.9,23.5
	c-0.9,1-0.5,1.8,0.1,2.7c3.4,4.4,4.4,9.5,3.9,14.9c-0.2,1.7,0.1,3.4,0,5.1c-0.2,3.9,1.4,8.2-2.5,11.4c1.5-1,3.3-1.2,5-0.6l0.3,0.3
	c0-0.1,0.1-0.2,0-0.2c-0.1-0.2-0.2-0.2-0.4,0c-2.1-5.9-2.2-11.9-2.1-18.1c0.1-6.6,0.1-13.1,0.1-19.7c0-6.7-0.7-13.5,2.8-20.2
	C70,237.7,68,237.8,66.3,237z M88.1,264.8V240c0-1.3,0-2.1-1.8-2.1s-1.8,0.8-1.8,2.1v49.5c0,1.3,0,2.1,1.8,2.1
	c1.8,0,1.8-0.8,1.8-2.1C88.1,281.3,88.1,273.1,88.1,264.8L88.1,264.8z M53.1,278.2c0-3.8-0.1-7.6,0-11.4c0-1.4-0.1-2.1-1.9-2.1
	s-1.7,0.8-1.6,2c0,7.7,0,15.3,0,23c0,1.2,0,2,1.7,2s1.9-0.7,1.8-2.1C53.1,285.8,53.1,282,53.1,278.2z M53.1,248.6c0-3-0.1-6,0-9.1
	c0-1.3-0.4-1.8-1.7-1.8c-1.2,0-1.8,0.1-1.8,1.6c0.1,6.1,0.1,12.3,0,18.4c0,1.5,0.7,1.5,1.8,1.6c1.3,0,1.8-0.3,1.7-1.7
	C53,254.6,53.1,251.6,53.1,248.6L53.1,248.6z"/>
<path class="myr-st1" d="M256.3,212.7c5.2,0.2,5.2,0.2,5.2,5.1c0,5.7,0.5,5.6-5.4,5.5c-0.7-0.1-1.4-0.1-2,0c-2.4,0.4-3.5-0.4-3.2-3
	c0.1-0.4,0-1.2-0.3-1.4c-0.7-0.4-1.1,0.3-1.4,0.7c-2.4,3.4-5.7,3.8-9.5,3.7c-6.5-0.2-13-0.1-19.5-0.1H158c-6.6,0-13.2-0.1-19.7,0.1
	c-1.7,0.1-3.2-0.8-4.1-2.2l-9.5-12.9c-0.7-1-1.2-1.1-2.2-0.1c-4.6,4.6-9.2,9.1-13.9,13.6c-0.8,0.7-1.4,1.9-2.7,1.5
	c-1.1-0.4-1.3-1.7-1.6-2.6c-3.3-11.1-6.5-22.2-9.7-33.3c-0.4-1.5-0.8-2.4-2.5-1c-4,3.4-8.1,6.7-12.3,10c-0.9,0.7-1.4,1.7-1.2,2.8
	c0.1,1.3,0.1,2.7,0,4c-0.9,5.5,1.1,9.9,4.9,13.8c1,1,1.2,0.9,2,0.1c2.9-2.9,5.9-5.8,8.8-8.8c1.2-1.2,2.4-1.7,3.7-0.4
	c1.5,1.4,0.3,2.4-0.7,3.3l-10.8,10.7c-2.1,2-2.8,1.9-4.5-0.4c-1.5-2.1-3.3-3.9-4.6-6.1c-1.1-1.7-1.8-1.2-2.8-0.1
	c-2.1,2.2-4.3,4.3-6.4,6.4c-0.9,1.1-2.3,1.7-3.7,1.6c-8.8,0-17.5,0-26.3,0c-0.9,0-1.7,0.1-2.2-1.1c-0.4-0.8-0.1-1.8,0.7-2.3
	c0,0,0,0,0,0l0,0c4.5-2.9,4.7-7.3,4.5-12.1c-0.2-9.2-0.2-18.4,0-27.6c0.1-2.3-0.7-4.5-2.1-6.3c-3.4-4.3-3.8-4.3,0.6-8.7
	c-4.1,0.7-3.6-1.9-3.5-4.2c0-6.5,0-6.5,6.8-6.5c3.6,0,3.6,0,3.9,3.4c0.1,0,0.4,0,0.4-0.1c2.1-2.9,4.9-3.4,8.3-3.4
	c10.7,0.2,21.4,0.2,32.1,0.2c1.4,0,1.8,0.6,2.1,1.8c3.4,11.8,7,23.5,10.4,35.3c0.6,2,1,2.6,2.9,0.9c3.8-3.2,7.8-6.1,11.7-9.2
	c1.2-0.9,2.1-2,1.9-3.8c-0.3-2.9-0.3-5.9,0-8.8c0.6-4.9-3.7-7-5.5-10.4c-0.4-0.8-1.5,0.1-2.1,0.7c-3.1,3.1-6.3,6.1-9.3,9.3
	c-0.9,1-2,1.4-3.1,0.6c-1.1-0.8-1.5-2-0.3-3.2c4.2-4.2,8.3-8.3,12.6-12.5c1.1-1.1,2.4-1.2,3.5,0.1c2.6,3.3,5.2,6.6,7.5,10
	c1.3,2,0.1,4.4,0.5,6.1c3.3-3,6.9-6,10.2-9.4c2.3-2.4,4.7-4.8,7-7.2c0.6-0.6,1.6-0.5,2.4-0.5h56.4c0.9,0,1.9-0.1,2.3,1
	c0.4,1.1-0.4,1.7-1.1,2.4c-4.3,4.2-8.6,8.3-12.9,12.5c-1,1-2.2,1.4-3.1,0.5c-0.9-0.9-1-2.3-0.1-3.2c0,0,0,0,0,0l0.2-0.2
	c1.6-1.5,2.8-3.4,4.8-4.4c0.6-0.4,1.2-1,1.6-1.6c0.5-0.5,1.1-1.2,0.7-1.9c-0.3-0.9-1.2-1.4-2.1-1.5c-5.6,0.1-11.1,0-16.7,0
	c-0.7,0-1.3,0.3-1.8,0.8c-3.4,3.4-6.8,6.8-10.2,10.2c-0.7,0.7-0.8,1.4-0.2,1.9c4.2,3.4,3.5,8,3.5,12.5c-0.1,1.9,0.1,3.7,0.5,5.6
	c0.7-0.8,1.4-1.6,2-2.4c2.4-3.3,5.5-4.4,9.6-4.1c4.2,0.4,8.4,0.1,12.6,0.1c1,0,1.9,0.1,2.4-1.2c0.4-1,1.6-1.3,2.8-1.2
	c2.4,0.1,4.8,0,7.7,0c-1.3-1.6-2.2-2.9-3.3-4.1c-0.8-0.9-0.7-1.4,0.1-2.3c5.8-5.9,11.5-11.8,17.1-17.8c1-1.1,2.4-1.8,3.9-1.7
	c7.3,0.1,14.7,0,22,0c1,0,2.2-0.3,2.6,0.9c0.5,1.2-0.4,1.8-1.2,2.5c-4.2,4-8.4,8.1-12.5,12.1c-1.1,1.1-2.1,1.8-3.4,0.3
	s-0.5-2.8,0.7-3.6c2.2-1.4,3.8-3.5,5.7-5.2c0.5-0.5,1.5-1,0.9-1.8c-0.5-0.7-0.9-1.6-2-1.6c-4.1,0-8.1,0-12.1,0c-1,0-1.5,0.7-2,1.3
	c-4.7,4.7-9.3,9.5-14.2,14.1c-1.6,1.5-1.1,2.4-0.1,3.7c5.6,7.2,11.3,14.3,16.9,21.5c1.8,2.2,3.5,4.5,5.2,6.7c0.8,1,1.4,1.6,2.6,0.3
	c3-3.2,3.1-3.1,0.2-6.6c-3.9-4.8-7.7-9.7-11.5-14.5c-0.9-1.2-1.9-2.8-0.4-3.9c1.3-1,2.7-0.1,3.4,1.4c0.4,0.6,0.7,1.2,1.2,1.8
	c0.1-4.2,2.6-3.5,4.7-3.6c2.1,0,4,0,6.4,0c-1-1.2-1.8-2.2-2.6-3.2c-1.3-1.5-1.2-2.9,0.2-4.3c5.8-5.8,11.6-11.6,17.3-17.3
	c0.7-0.7,1.7-1.1,2.7-1H266c0.9,0,1.9-0.1,2.4,1s-0.5,1.6-1,2.1c-4.2,4.2-8.5,8.4-12.7,12.7c-1.1,1.1-2.2,1.6-3.5,0.4
	c-1.2-1.2-0.5-2.4,0.4-3.4c2-2,4.1-4.1,6.1-6c0.6-0.6,1.1-1.1,0.6-1.9c-0.3-0.7-1-1.2-1.8-1.1c-2.4,0.1-4.9,0-7.3,0
	c-0.8,0.1-1.5,0.4-1.9,1.1c-4.9,4.9-9.7,9.9-14.6,14.7c-1.2,1.2-1,1.9-0.1,3.2c7.2,9.2,14.4,18.4,21.7,27.6c0.6,0.8,1.2,2.6,2.5,1.9
	c1.6-1,2.8-2.4,3.7-4c0.2-0.3-0.4-0.6-0.7-0.9c-4.7-5.8-9.3-11.6-13.9-17.4c-0.9-1.1-1-2.5,0.1-3.4c1.2-1,2.1-0.2,3.1,0.9
	c5.1,6.6,10.3,13.1,15.5,19.7c1,1.3,0.9,2.2-0.3,3.4C261.6,207.2,259.2,209.8,256.3,212.7z M44.9,189.9c2.4-2.4,4.1-4.2,5.8-6
	c0.8-0.9,2-1.4,3.2-1.3c5.6,0,11.1,0,16.7,0c1.1,0,2.5-0.2,2.5,1.4c0,1.6-1.1,2.4-2.6,2.4c-2.2,0-4.4,0.3-6.6-0.1
	c-7.3-1.2-13,1.2-17.3,7.2c-0.9,1.2-1.6,2.2-1.6,3.7c0.1,4.8,0,9.6,0.1,14.4c-0.1,1.6,0.1,3.2,0.4,4.8c0.5,1.9,1.6,2.9,3.6,2.9
	c2.4-0.1,4.7-0.1,7.1,0.1c6.3,0.9,11.5-0.7,15.2-6.2c0.5-0.7,1.1-1.2,1.8-1.7c1.4-1,2.1-2.7,1.9-4.3c-0.2-3.2,0-6.4-0.1-9.6
	c-0.1-1.4,0.6-2.8,1.8-3.6c5-4,9.9-8.1,14.9-12.1c1-0.6,1.4-1.9,0.9-3c-1.5-4.9-2.9-9.8-4.4-14.7c-0.8-2.8-1.5-3-3.8-1
	c-2.2,2-4.1,4-6.2,6c-1.3,1.2-2.4,3.5-4.7,1.2c-0.4-0.4-0.8,0.1-1,0.4c-1.1,1-2,0.7-2.8-0.3c-0.9-1.1-0.4-2,0.5-2.8
	c2-1.9,3.9-3.9,6-5.8c0.7-0.7,1.4-1.3,0.9-2.4c-0.5-1.1-1.4-1.1-2.4-1.1h-7.3c-4.8,0-10.2-1.3-14.3,0.4s-7.1,6.5-10.6,9.9
	c-1.2,1.1-1.6,2-0.3,3.2c2.5,2.3,3.2,5.2,2.9,8.5C44.7,183.1,44.9,186.1,44.9,189.9z M157.5,194.2c0-4-0.2-8.1,0.1-12.1
	c0.3-3.5-0.8-7-3.1-9.7c-1.5-1.9-2.2-1.7-3.7-0.2c-6.4,6.4-12.8,12.7-19.3,18.9c-1.1,1.1-2.2,3.6-4.2,1.6c-2.2-2.2,0.5-3.3,1.6-4.4
	c8.9-8.8,17.9-17.6,26.9-26.4c0.7-0.7,1.8-1.2,1.3-2.5s-1.6-1.3-2.7-1.3c-4.1,0-8.3,0-12.4,0c-1-0.1-2,0.3-2.7,1
	c-5.2,5.3-10.4,10.6-15.7,15.8c-0.8,0.8-1.2,1.8-1.1,2.9c0,6.3,0,12.6,0,18.9c0,1.3,0.4,2.5,1.2,3.4c4.1,5.3,8.3,10.7,12.1,16.1
	c1.6,2.2,3.3,2.8,6,3.1c6,0.7,10.5-1.2,14.2-5.9c1-1.3,1.7-2.3,1.7-3.9C157.5,204.5,157.5,199.4,157.5,194.2L157.5,194.2z
	 M161.3,205.4L161.3,205.4c0.1,3.3-0.1,6.6,0.1,9.9s1.4,4.1,4.5,4.1c4.5,0,8.9,0,13.4,0c1.3,0.1,2.5-0.5,3.3-1.4
	c3.2-3.3,6.6-6.5,9.9-9.8c0.7-0.7,1.5-1.6,2.4-1c1.9,1.3,2.6-0.1,3.6-1.1c1.7-1.7,3.5-3.4,5.2-5.2c0.9-1,1.9-1.9,3.2-0.6
	c1.3,1.3,0.6,2.4-0.5,3.4c-4,4-8,8-11.9,12c-0.7,0.7-1.4,1.3-1,2.4c0.4,1.1,1.4,1.3,2.5,1.3c3.2,0,6.4-0.3,9.6,0.1
	c5.1,0.6,9.2-0.6,12.2-5c0.8-1.1,1.8-2,2.9-2.8c1.6-1.2,1.6-2.2,0.3-3.8c-4.5-5.5-9.3-11-13.2-16.9c-3.7-5.7-8.1-8.2-14.7-7
	c-1.7,0.3-3.5-0.4-4.5,1.8c-0.4,0.9-1.6,0.7-2.5,0.7h-14.2c-0.7,0-1.4-0.3-1.9,0.3c-3.9,4.3-10.3,7.2-8.6,14.9
	C161.4,202.9,161.5,204.1,161.3,205.4L161.3,205.4z M219.7,184c4.6,5.9,8.9,11.3,13.2,16.9c0.8,1,1.3,1,2.1,0.1
	c0.8-0.9,1.9-1.8,3.2-0.6c1.3,1.3,0.4,2.4-0.6,3.4c-3.9,3.9-7.8,7.9-11.7,11.8c-0.7,0.7-1.6,1.4-1.2,2.6c0.4,1.2,1.6,1.3,2.8,1.3
	h15.2c0.8,0.1,1.7-0.2,2.2-0.8c2.5-2.6,5.1-5.1,7.8-7.6c1-1,0.8-1.6,0-2.5c-6.2-7.8-12.3-15.6-18.4-23.4c-0.5-0.7-1.3-1.1-2.1-1.1
	C228.2,184,224.1,184,219.7,184L219.7,184z M118.8,185.1c-5.3,4.3-10.1,8.3-15,12.1c-1.1,0.7-1.6,2.2-1,3.4
	c1.3,4.2,2.6,8.5,3.9,12.8c0.9,2.9,1.6,3.2,3.8,1.1c3.4-3.2,6.6-6.5,9.9-9.7c1-1,0.9-1.7,0-2.5c-1.5-1.5-1.7-3.3-1.7-5.3
	C118.8,193.2,118.8,189.4,118.8,185.1L118.8,185.1z"/>
<path class="myr-st1" d="M254.7,95.6c-10.8,3.8-21.6,7.6-32.3,11.3c-0.7,0.2-1.5,1-2.1,0.4c-0.6-0.5-0.1-1.5,0.1-2.3
	c0.5-2.4,0.5-4.9,1.2-7.3c1.7-6.3,5.1-11.3,11.8-13.1c0.5-0.2,1-0.5,1.5-0.8c-1.7-1.4-3.4-3-4.9-4.6c-1.4-1.6-2.8-1.3-4.3-0.1
	c-4.4,3.4-6.1,8.2-7.3,13.2c-1.3,5.3-1.5,10.7-2.5,16c-0.3,1.4,0.1,1.9,1.8,1.3c8.4-3,16.8-5.9,25.2-8.9l6.5-2.4
	c1.3-0.4,1.8,0,1.8,1.4c-0.1,7.3,0.3,14.5-0.1,21.8c-0.4,8.8-4.1,13.8-12.9,17.8c-7.6,3.4-15.5,2.9-23.4,3c-1.3,0-1.6-0.5-1.5-1.6
	c0.1-1.6,0-3.2,0-5.1c-2.2,1.3-2.9,3.5-4.3,5.1c-0.8,1-1.5,1.6-2.8,1.6c-12.6-0.1-25.3,0-37.9,0c-1.1,0.1-2.1-0.4-2.6-1.3
	c-7.2-9.8-14.5-19.4-21.8-29.1c-0.5-0.6-0.8-1.5-0.7-2.3c0.2-4.3,0.7-8.7,1.4-13c0.2-1.1,0.1-2.3-0.3-3.4l-20.6,22.9l0.4,0.5
	c4.2-2.2,8.4-4.3,12.5-6.7c2-1.2,3.2-1.4,4.7,0.9c6.4,9.3,13,18.3,19.6,27.5c0.8,1.1,1.4,2.4,2.3,4h-8.3c-0.9,0-1.4-0.7-1.8-1.5
	c-4.8-8.2-9.6-16.4-14.4-24.6c-1.2-2.1-2.3-3.3-5.1-1.9c-4.3,2-8.9,3.4-14.1,5.4c2.9-3.8,5.4-7.1,7.9-10.4
	c3.6-4.6,7.2-9.3,10.8-13.8c0.6-0.8,0.5-1.2,0-1.9c-3.1-4.1-6.4-8.1-9.1-12.6c-0.3-0.6-1-0.9-1.7-0.7c0,0,0,0,0,0
	c-0.1,0-0.1,0.1-0.2,0.1c-5.5,2.3-8.9,6.3-9.3,12.2c-1.1,15.8-0.2,31.5-0.5,47.3c0,1.7,0.8,1.6,2,1.7c7.4,0.8,14.2-1.8,21.2-3.5
	c2.4-0.6,4.8-1.2,7.5-2c-1,2-1.8,3.7-2.6,5.4c-0.4,0.7-1.1,1-1.9,0.9c-9.9,0-19.9-0.1-29.8,0c-1.9,0-2.1-1.2-2.5-2.4
	c-1.4-4.7-2.8-9.5-4.3-14.4c-0.7,3.2,0,7.6,2,12.3c0.4,1,0.9,2,1.2,3c0.1,0.4,1.1,0.9,0.1,1.4c-0.5,0.2-1-0.1-1.2-0.5l0,0
	c-2-3.4-3.8-7-5.4-10.7c-3.5-8.5-1.8-17.3-2.3-26.1c-0.1-1.2,0.7-2.9-0.4-3.5c-0.9-0.5-2.2,0.9-3.2,1.5c-4.1,2.3-7.9,5.1-12.3,7
	l-0.3-0.3c3.2-2.2,6.3-4.5,9.5-6.7c0.6-0.5,1.6-0.7,1.6-1.8V80.2c-6.6,2.3-10.2,6.8-12.1,12.9c-1.7,5.5-1.3,11.2-1.4,16.8
	c0,1.1,0.7,1,1.3,1.3l0,0c-2.2,1.8-1,4.2-0.9,6.2c0.2,4.8,0.9,9.6,1.4,14.5c0.3,3.1,0.5,6.1,0.9,9.2c0.2,1.3-0.2,1.6-1.5,1.6
	c-6,0.3-6,0.3-6-5.7c0-10.4,0.1-20.7-0.1-31.1c-0.1-4.9-0.1-9.8,1.5-14.5c1.4-4.3,3.9-7.5,8.2-9.2c4-1.6,8.2-2.7,12.2-4.4
	c2-0.8,1.9,0,1.9,1.4c0,5.5,0.1,11,0,16.4c0,2.1,0.6,2.3,2.2,1.2c0.2-0.1,0.5-0.1,0.7-0.3c1.6-1.1,2.4-1,2.3,1.2
	c-0.1,5.8,0.3,11.7-0.1,17.4c-0.3,4.6,1.1,8.5,3.5,12.2c0.6,0.9,1.2,1.8,2.2,3.2v-2.7c0-14.6,0-29.2,0-43.8c0-2.2-0.5-2.8-2.7-2
	c-1.8,0.6-3.7,0.4-5.6,1.1c-0.8,0.3-1.4-0.2-1.1-1.3c1-3.8,4.9-6,8.6-5c0,0,0,0,0,0h0.1c1,0.3,1,1,1.1,1.7c0.4,2.6,0.7,5.3,1.1,7.9
	c0.1,0.4-0.2,0.9,0.3,1.1c0.5,0.2,0.9-0.2,1-0.5c3.3-5.5,9.4-6.5,14.6-9c2.6-1.2,3.5-0.6,4.9,1.6c2.6,4,5.8,7.7,8.8,11.5
	c0.3,0.6,1,1,1.7,0.9c-0.4-4.6-0.6-9.2-2.4-13.6c-0.2-0.4-1.2-0.9-0.4-1.4c0.7-0.4,1.3,0.1,1.7,0.6c2.7,3.3,4.6,7.2,5.6,11.3
	c1.4,5.4-0.6,10.4-1.3,15.5c-0.3,2.1-0.9,4.2-1.2,6.4c-0.2,0.8,0,1.7,0.5,2.4c6.8,7.1,13.6,14.2,20.7,21.2
	c-4.3-12.9-0.9-25.7,0-39.1l-13.7,7.8V80.5c0-1.6,3.2-4.2,4.7-3.8c1,0.3,0.6,1.1,0.6,1.7c0,5.9,0.1,11.8,0,17.7
	c0,2.4,0.6,2.4,2.4,1.3c1.8-1,3.9-1.8,5.9-2.8c1.5-0.8,1.9-0.3,1.9,1.2v16.7c0,6.5-0.1,12.9,0.8,19.4c0.3,2.3,0.7,4.6,2.1,6.5
	l0.2,0.3v-0.4c-0.1-7.7-0.1-7.6,6.6-11.2c5.7-3,11.2-6.1,17.4-9.6c-3-0.2-4.9,1-7,1.8c-4.9,1.9-9.9,3.7-14.8,5.7
	c-1.9,0.8-2.4,0.6-2.4-1.6c0.1-12.8,0-25.6,0-38.4c0-3.6,0-3.6-3.5-3.1c-2.5,0.4-5,0.7-7.6,1.1c0.1-0.3,0.2-0.4,0.3-0.6
	c2.6-6.1,3.3-6.4,9.9-5.7c1,0.1,1.2,0.5,1.3,1.4c0.5,3.2,1,6.2,1.6,9.6c1.6-1.6,2.5-3.5,3.8-5.2c4.3-5.6,10.2-6.1,16.5-5.7
	c0.9,0.1,1.2,0.8,1.8,1.3c5.2,5.2,10.4,10.5,16.1,15.6c1.1-3.7,2.4-7.3,4.7-10.5c2.8-4,7.3-6.4,12.1-6.5c8-0.3,16,0,24-0.1
	c1.7,0,2.2,0.6,2.2,2.2c0,2.2,0.1,4.4,0.1,6.6c0,0.6,0,1.4,0.6,1.5c0.8,0.2,0.8-0.7,1-1.1c3-5.5,7.9-8.1,13.9-8.8
	c1.3-0.1,1.8,0.2,1.7,1.6c-0.1,1.7-0.1,3.4,0,5.1c0,1.5-0.4,1.7-1.7,0.9c-1.8-1.1-3.7-2-5.5-3c-1-0.8-2.4-0.6-3.2,0.4c0,0,0,0,0,0
	c-0.1,0.1-0.1,0.2-0.2,0.3c-3.3,4.3-4.7,9.7-3.8,15.1c1.4,9.5,5.8,17.6,11.3,25.2c-2.2-0.5-4.1-3.2-10.1-13.6
	c0.3,7.6,0.7,14.7,1,21.7c0.1,3.5,0.2,6.9,0.4,10.4c0,0.8-0.2,1.3-1.1,1.2h-4.3c-1.8,0-1.1-1.4-1.1-2.2c0-9.7,0-19.4,0-29.1
	c0-5.2,0-10.5,0.1-15.7c0-0.2,0-0.4-0.1-0.6V80.8c0-0.8,0.3-2-1.2-1.6c-3.9,1.1-7.7,2.4-11.7,3.6c2.2,2.3,4.2,4.3,6.2,6.3l6.1,6.1
	L254.7,95.6z M224.7,105.3l22.1-9.4c-2.6-2.6-4.8-5-7.1-7.3c-4.2-4.2-4.7-4.2-9.1,0c-0.8,0.8-1.6,1.7-2.3,2.7c-3,4-3.4,8.8-3.9,13.6
	c-0.1,0.1-0.3,0.3-0.2,0.4C224.2,105.5,224.5,105.4,224.7,105.3z M244.6,102.5c0.1-0.9-0.1-1.2-1.1-0.8c-6.3,2.6-12.6,5.1-18.9,7.7
	c-4.6,1.8-9.2,3.7-14.1,5.6c0.8-6.4,1.6-12.4,2.4-18.8l-33,11.4c1-10.5,2.8-20.2,14.6-23.3c-1.8-1.9-3.5-3.6-5-5.3
	c-0.9-1-1.7-1-2.8-0.4c-4.7,2.2-7.1,6.1-7.7,11c-1.3,9.8-0.3,19.7-0.6,29.5c0,1.4,0.8,1.2,1.6,1c2.8-0.8,5.5-1.5,8.3-2.3
	c5.9-1.6,11.9-3.2,17.8-4.8c-0.5,0.7-1.1,1.3-1.9,1.8l-24.2,15.6c-0.8,0.5-1.7,0.9-1.7,2.2c0.1,2.5,0,5.1,0,7.6
	c0,0.8,0.1,1.5,1.2,1.4c3.4-0.2,7,0.5,10.3-0.3c7.3-1.9,14.6-4,21.9-6c1.2-0.3,1.6-0.8,1.6-2c-0.3-8.1,3.6-13.8,10.4-17.7
	c4.5-2.6,8.7-5.5,13-8.2c2.1-1.3,4-3,6.4-3.9c0.5,1.1-0.6,1.2-1.1,1.5c-4.1,3.4-8.2,6.7-12.4,9.9c-6.6,5.1-10.7,11.5-10.7,20.2
	c0,4.6-0.2,4.6,4.2,5.1c1.4,0,2.9,0.2,4.3,0.4c4.5,1.1,8.2-0.9,11.8-3.1c4-2.4,6-6,6.5-10.5c0.8-7.8,0.2-15.7,0.4-23.5
	C246.2,101.9,245.2,102.7,244.6,102.5z M183.9,105.6l22.4-9.7c-3.5-3.5-6.8-6.9-10.1-10.3c-0.9-0.9-1.5-0.3-2.2,0.1
	C186.2,90,184.6,97.4,183.9,105.6L183.9,105.6z"/>
<path class="myr-st1" d="M68.3,142.7c-0.8-1.3,0.5-2.2,0.9-3.1c1.3-3.1,2-6.4,1.9-9.7c0.3-8.4,0.1-16.8,0.1-25.8c-2.2,2.2-5.3,2.4-6,5.6
	c-0.4-0.4-0.9-0.4-1.3-0.1c-5.3,3.9-10.7,7.9-16.2,11.8c2.4,1.3,5,2,7.7,2.2c8.7,0.5,12.7-5,9.9-13.3c-0.1-0.2-0.1-0.5-0.1-0.7
	c2.4,3.5,2.8,8,0.9,11.8c-1.8,4-5.3,5.6-9.5,5.9c-2.6,0.3-5.1,0-7.6-0.8c-1.7-0.6-1.6,0.2-1.6,1.3c0,4.2-0.1,8.4,0.1,12.6
	c0.1,2.3-1.1,2.2-2.6,2.1c-1.5-0.1-2.9,0.5-2.9-2.1c0.1-18.6,0.1-37.3,0.1-55.9c0-3,0-2.9-3-2.4c-1.2,0.2-2.9,1.4-3.6,0.5
	c-0.7-1,1-2.2,1.4-3.4c0.3-1.2,1.4-2.1,2.6-2.1c2.5-0.2,3.1,1,3.3,3c0.3,2.5,0.7,5,1,7.6c8.2-8.5,18.1-11.4,29.5-10.4
	c-0.1,0.9-0.9,1.1-1.2,1.7c-1.8,3.2-4.3,3.5-7.8,2.9c-3.8-0.6-8-2.2-11.7,1.2c-2.6,2.4-4.3,5.6-4.7,9.1c-1.3,9.2-0.3,18.6-0.7,28.1
	c6.8-5.4,12.9-10.9,19.3-16.1c2.8-2.1,5.5-4.5,8-7c0.3-0.3,0.6-0.8,1.3-0.6c0.6,0.1,0.5,0.8,0.5,1.2c0,10.5,0.1,21.1-0.1,31.6
	C76.3,135.3,73.3,139.7,68.3,142.7L68.3,142.7z"/>
<path id="ecco-o" class="myr-st1" d="M211.9,32.6C211.4,14.7,226.7-0.6,245.4,0c17.3,0.6,32.1,14.6,31.7,33.5
	c-0.4,17.5-14.5,31.4-32.7,31.8C226.5,65.8,211.3,50.2,211.9,32.6z M265,32.6c-0.2-11.3-9.5-20.3-20.8-20.1c-11,0.2-19.8,9-20.1,20
	c-0.1,11,9.4,20.5,20.4,20.5C255.7,52.9,264.8,43.9,265,32.6L265,32.6z"/>
<path id="ecco-c2" class="myr-st1" d="M196.5,65.3c-5.2,0-10.5,0.5-15.6-0.1c-6.2-0.7-12-3.2-16.6-7.3c-5.2-4.6-9.1-10.1-10.6-17.1
	c-2.2-9.9-0.9-19.1,5.3-27.4c6.7-9,15.6-13.3,26.7-13.3h25c1.4,0,2.1,0,2.3,1.9c0.3,2.8,0.1,5.7,0.5,8.5c0.3,1.8-0.4,1.8-1.7,1.8
	c-8.8,0-17.5-0.1-26.3,0c-8.1,0.1-14.2,3.8-18.1,10.9c-7.6,13.6,3,30,18.1,30c8.6,0,17.2,0,25.8,0c1.9,0,2.7,0.3,2.6,2.4
	c-0.2,2.4-0.2,4.9,0,7.3c0.2,2.2-0.7,2.6-2.7,2.6C206.3,65.3,201.4,65.4,196.5,65.3L196.5,65.3z"/>
<path id="ecco-c1" class="myr-st1" d="M136.9,65.3c-5.1,0-10.1,0.3-15.2-0.1c-5.7-0.4-11.1-2.5-15.6-5.9c-4.4-3.2-7.9-7.4-10.2-12.2
	c-2.2-4.6-3.3-9.7-3.2-14.9c-0.1-8.7,3.4-17.1,9.7-23.1c5.6-5.7,13.2-8.9,21.2-9c9.2-0.3,18.4,0,27.6-0.1c1.3,0,2,0.2,2,1.7
	c0,2.8-0.2,5.7,0.5,8.5c0.4,1.6-0.2,2-1.8,2c-8.5-0.1-17,0-25.5,0c-8.3,0-14.8,3.4-18.8,10.6c-6.8,12.2,0.5,28,14.5,29.8
	c9.5,1.3,19.2,0.4,28.8,0.4c2.5,0,3.2,0.6,2.9,3c-0.2,2.4-0.2,4.9,0,7.3c0.1,1.5-0.3,2-1.9,2C146.8,65.3,141.9,65.3,136.9,65.3z"/>
<path id="ecco-edot" class="myr-st1" d="M64.5,41.6c-4.8,0.7-8.2-4.6-8.5-8.1c-0.4-6.3,4.1-10.1,9.7-9.7c4.5,0.4,8.4,4.2,8.4,8.9
	c0,4.9-4,8.9-8.9,8.9C65,41.6,64.7,41.6,64.5,41.6z"/>
<path id="ecco-ecirc" class="myr-st1" d="M76.5,65.3c-5,0-10.1,0.4-15.1-0.1c-6.5-0.5-12.7-3.2-17.5-7.7c-3.4-3-6.1-6.6-8.2-10.7
	c-2.5-5.3-3.5-11.1-2.9-16.9c0.5-8.6,4.6-16.5,11.1-22.1c6.5-5.7,13.9-7.8,22.3-7.8c8.2,0,16.4,0.1,24.5-0.1c2,0,2.4,0.6,2.3,2.4
	c-0.2,2.6,0.6,5.1,0.5,7.8c0,1.6-0.4,2.1-2.1,2.1c-8.2-0.1-16.4,0.1-24.5-0.1c-11.1-0.2-19.8,6.3-21.8,17.4
	c-1.5,8.5,2.8,17.3,11.8,21.7c2.9,1.3,6,1.9,9.2,1.9c8.5,0,17,0,25.5,0c1.6,0,2.2,0.4,2.1,2.1c-0.1,2.7-0.1,5.4,0,8.1
	c0.1,1.6-0.4,2.2-2.1,2.1C86.7,65.2,81.6,65.4,76.5,65.3L76.5,65.3z"/>
</svg>
