<svg version="1.1" xmlns="http://www.w3.org/2000/svg" xmlns:xlink="http://www.w3.org/1999/xlink" x="0px" y="0px"
	 viewBox="0 0 300 300" style="enable-background:new 0 0 300 300;" xml:space="preserve">
<style type="text/css">
	.rft-st0{display:none;fill:#FFFFFF;}
	.rft-st1{fill:none;stroke:#A0B4BB;stroke-miterlimit:10;}
	.rft-st2{fill:none;stroke:#A0B4BB;stroke-width:0.5;stroke-miterlimit:10;}
	.rft-st3{fill:#A0B4BB;}
	.rft-st4{fill:#C0171C;}
	.rft-st5{fill:#FFFFFF;}
</style>
<rect class="rft-st0" width="300" height="300"/>
<polygon class="rft-st1" points="0,284.8 146.5,31.9 300,284.8 "/>
<polyline class="rft-st2" points="142.2,39.4 146,42 150,39.4 "/>
<polyline class="rft-st2" points="133.1,55.2 136.8,57.4 146.1,52.9 146,42 "/>
<polyline class="rft-st2" points="160.5,54.9 156.3,57.4 146.1,52.9 "/>
<polyline class="rft-st2" points="124,70.9 127.9,73.5 137.5,68.4 136.8,57.4 "/>
<polyline class="rft-st2" points="170.1,70.7 166.6,73.5 156.2,68.2 156.3,57.4 "/>
<polyline class="rft-st2" points="179.6,86.5 175.5,88.8 165.8,83 166.6,73.5 "/>
<polyline class="rft-st2" points="115.1,86.2 119,88.8 128.1,83.6 127.9,73.5 "/>
<polyline class="rft-st2" points="156.2,68.2 147.1,73.5 137.5,68.4 "/>
<polyline class="rft-st2" points="128.1,83.6 137.5,88.5 147.3,83.6 147.1,73.5 "/>
<polyline class="rft-st2" points="165.8,83 156.8,88.8 147.3,83.6 "/>
<polyline class="rft-st2" points="105.8,102.3 109.8,104.3 118.7,99 119,88.8 "/>
<polyline class="rft-st2" points="188.6,101.3 185.2,103.9 175.2,98.9 175.5,88.8 "/>
<polyline class="rft-st2" points="156.8,88.8 156.8,99 166.5,103.9 175.2,98.9 "/>
<polyline class="rft-st2" points="118.7,99 129,103.9 138,99 137.5,88.5 "/>
<polyline class="rft-st2" points="156.8,99 147.8,103.9 138,99 "/>
<line class="rft-st2" x1="166.5" y1="103.9" x2="166.5" y2="163"/>
<line class="rft-st2" x1="185.2" y1="103.9" x2="185.2" y2="166.2"/>
<line class="rft-st2" x1="147.8" y1="103.9" x2="147.8" y2="166.7"/>
<line class="rft-st2" x1="129" y1="103.9" x2="129" y2="174.3"/>
<line class="rft-st2" x1="109.8" y1="104.3" x2="109.8" y2="158.4"/>
<path class="rft-st3" d="M153.3,202.5c-5.9,1-4.9,4.2-5.5,9.1c-0.6,4.9-3.6,5.7-5.6,0c-2-5.7-6.6,0.4-7.2,4c-0.6,3.6-1.9-15.6-1.9-15.6
	l14.3-3.6L153.3,202.5z"/>
<path class="rft-st3" d="M73.1,236.8c8.9,4.1,9,8.2,12.5,14.4c3.5,6.2,7.5-6.5,10.8-3.3c3.4,3.2,9.3-0.4,11.6,0.9
	c2.3,1.3-9.8-12.9-11.6-12.1C94.6,237.7,73.1,236.8,73.1,236.8z"/>
<path class="rft-st3" d="M230.5,236c8.3,3.9-3.6,21.8,6.4,23.2c10,1.4,7.6-9.1,22.5-11.6c14.9-2.5,0-17.5,0-17.5L230.5,236z"/>
<path class="rft-st3" d="M198,116.8c9,14.8-16.2,29.1-39.4,10.1s-25.7-19.7-39.9-16.3c9.6,4.5,7.3,4.9,7.3,4.9s-5.5-2.4-9,0
	c6.3,3.1,2.8,13.2-6.2,15.9c-9,2.8-14.2,20.1-9.4,23.6s22.4,30.6,6.4,39.5c-16.1,8.9,20,11.8,39,0s56.8-14.2,65.1-1
	c8.3,13.2,2.4,24.3-3.8,30.1c14.2-6.6,24.9-15.6,20.4-28.1c-4.5-12.5,6.2-20.4,6.2-20.4l-8.8-12L198,116.8z"/>
<path class="rft-st3" d="M102,143.8c-8.1,6.9-21.8,5-10.6-16.7l-22.7,39.2c0,0,21-0.9,31.6,5.2C113.4,179,102,143.8,102,143.8z"/>
<path class="rft-st4" d="M18.9,257.7c-4.2,0.3-5.5-20.8,5.5-24.4c10.9-3.6,2.9-24.7-2.3-36.9s-23.2-48.6-6.2-60.3
	c17.1-11.7,47.7-20.3,62-7s17.4,34,5.5,44.2c-12,10.1-22.6,12.5-10.9,14.3s22.8,16.6,21,24.2c-1.8,7.5-7,14.3-1.6,17.4
	c5.5,3.1,29.4,20.5,31.2,24.9c1.8,4.4-3.1,1.3-15.1-5.2c-12-6.5-43.4-6.8-40.5-23.7s-17.4-16.1-16.1-7.5s1.6,21-9.1,22.6
	s-20,7.3-20.8,12.8C20.7,258.5,18.9,257.7,18.9,257.7z"/>
<path class="rft-st5" d="M42.5,177.2c-6.2-13.3-4.7-28.8,7-28.3s15.1,9.9,10.1,15.3S42.5,177.2,42.5,177.2z"/>
<path class="rft-st4" d="M103.6,177.2c-10.1-5.2-10.9-12.2-8.6-22.8c2.3-10.6,13.5-22.8,20-12.7c6.5,10.1,4.2,19.5-3.6,27.5L103.6,177.2
	z"/>
<path class="rft-st4" d="M105.1,181.8c8.2,0.7,16.4-5.7,13.6,16.6c-2.7,22.3-3.5,37.7-1.4,43.4c-8.8-9.4-6.5,0.8-12.2-15.3
	s-6-22.6-7.8-33.3S95.5,181.1,105.1,181.8z"/>
<path class="rft-st4" d="M175.3,137.8c-19.2,7.4-35.9,1.5-42.3,6.4c-6.5,4.9-9.9,9.1-9.5,15.6s2.7,16.4,1.5,33.8
	c-1.3,17.4-0.1,41.8-1.5,48.3c5.6-4.2,6.4-2.1,9-12c2.6-9.9,1.6-19.7,7.8-23.9s14.5-1.3,17.1-6.5c2.6-5.2,12.2-19.5,2.6-19.7
	c-9.6-0.3-16.4,3.9-14.3-2.6c2.1-6.5,8.1-7.8,13.5-11.7c5.5-3.9,17.1-23.4,21.3-24.2c-9.4,3.6-9.4,2.3-9.4,2.3L175.3,137.8z"/>
<path class="rft-st4" d="M161.8,173.8c12-13.3,22.3-28.1,41.6-34c19.2-6,23.4-3.9,23.4-3.9s-10.7,17.7-8.8,23.9
	c1.8,6.2,4.9,8.6-12.2,9.4c-5.7,1-13.3,37.4-17.4,48.6c-4.2,11.2-5.7,22.6-15.8,24.2c-10.1,1.6-19,3.4-19,3.4s15.3-5.7,19.7-15.6
	c4.4-9.9,8.8-48.1,10.4-54.3s-8.8-0.3-13.8-0.5C167.1,174.7,164.4,174.4,161.8,173.8z"/>
<path class="rft-st4" d="M262.3,172.5c10.9-6.2,15.6,2.3,16.4-2.3c0.8-4.7,3.6-16.7-8.2-21.3c-11.8-4.7-27.9,7.8-21.2,18.7
	c6.7,10.9,28.6,15.9,34.1,24.4s13.3,31.2-4.9,49.9s-47.5-11.7-60.5-8.6c-13,3.1-26.5,12.5-35.6,12c15.1-12.7,19.5-30.7,28.1-32.2
	c8.6-1.6,11.4-2.4,22.8-1.3c11.4,1.1,36.1,15.1,32.2-1.5s-15.1-10.4-27.3-22.6c-12.2-12.2-22.3-16.4-11.4-41.3
	c10.9-24.9,34.8-22.3,42.9-21c8.1,1.3,28.1,7.8,28.6,25.5c0.5,17.7-7.5,34.6-17.1,30.8C274.6,178.9,268.4,175.9,262.3,172.5z"/>
</svg>
