<svg version="1.1" xmlns="http://www.w3.org/2000/svg" xmlns:xlink="http://www.w3.org/1999/xlink" x="0px" y="0px"
	 viewBox="0 0 300 300" style="enable-background:new 0 0 300 300;" xml:space="preserve">
<style type="text/css">
	.tod-st0{display:none;fill:#FFFFFF;}
	.tod-st1{fill:none;stroke:#000000;stroke-miterlimit:10;}
</style>
<rect class="tod-st0" width="300" height="300"/>
<polyline class="tod-st1" points="24,170.6 71.3,131.4 96.1,60.7 53.2,78 113.9,11 143.4,42 159.1,88.8 165.5,94.7 161,106.6
	162.6,117.4 163.6,122 176.6,130.9 189.6,142.5 197.4,107.9 "/>
<polyline class="tod-st1" points="126.9,31.8 133.1,37.2 154.5,18.5 154.5,11 159.9,4.8 158.5,14.2 162.3,12 "/>
<polyline class="tod-st1" points="154.7,4.8 147.7,21 160.4,46.1 171.2,21 164.2,3.4 166.4,21 159.5,28.3 152.6,20.2 "/>
<polyline class="tod-st1" points="117.2,14.4 121.8,13.1 118.3,4.8 124.8,11 126.9,18 146.1,34.7 153.3,32.1 "/>
<polyline class="tod-st1" points="186.9,88.2 180.9,95 185.8,106.9 182,122.3 171.2,131.2 135.3,102.3 102.1,131.2 "/>
<polyline class="tod-st1" points="158.3,129 166.9,106.6 162.3,94.7 171.2,72.8 151.5,90.8 136.6,86.1 129.6,69.6 120.4,65 126.9,72.8
	120.4,71.7 128.3,77.4 131.2,90.8 147.7,100.1 159.5,96.1 "/>
<polyline class="tod-st1" points="138,72.8 147.7,89.6 140.3,106.3 150.4,129 142,134.7 138,131.2 145.8,126 147.7,133.3 149.3,236.2
	"/>
<polyline class="tod-st1" points="135.6,106.3 135.6,132.3 153.9,147.7 148.2,162.2 138,162.2 130.7,168.2 "/>
<polyline class="tod-st1" points="171.2,140.9 118,139.3 118,133.6 125,129 130.7,129 122.6,124.7 115.8,126.3 93.7,105.8 185.8,106.9
	159.5,134.7 176.6,130.9 194.6,120.2 212.8,109.7 246,131.2 220.6,60.9 264.1,83.1 202.8,11 172.8,43.7 158.1,85.8 "/>
<polyline class="tod-st1" points="109.9,139.5 104.5,140.9 107.2,143.9 105.8,147.1 115.6,164.1 155.3,236.2 128.5,255.7 "/>
<polyline class="tod-st1" points="183.1,152 152.2,152 156.9,143.3 "/>
<polyline class="tod-st1" points="116.4,106.3 132.3,121.4 138,153.3 141.2,236.2 161.5,270 138,300 "/>
<polyline class="tod-st1" points="153.9,166.3 153.9,223.8 129.9,238.4 144.7,266.2 177.2,290 "/>
<polyline class="tod-st1" points="144.2,172.2 144.2,224.4 159.5,253 183.1,228.1 "/>
<polyline class="tod-st1" points="160.4,172.2 126.9,206.5 162.3,262.4 "/>
<polyline class="tod-st1" points="133.4,175.5 133.4,229.5 152.2,260.8 "/>
</svg>
