<?xml version="1.0" encoding="utf-8"?>
<!-- Generator: Adobe Illustrator 25.0.0, SVG Export Plug-In . SVG Version: 6.00 Build 0)  -->
<svg version="1.1" id="Layer_1" xmlns="http://www.w3.org/2000/svg" xmlns:xlink="http://www.w3.org/1999/xlink" x="0px" y="0px"
	 viewBox="0 0 260 198.9" style="enable-background:new 0 0 260 198.9;" xml:space="preserve">
<style type="text/css">
	.st0{display:none;}
	.st1{display:inline;fill:#484848;}
	.st2{fill:#484848;}
</style>
<g class="st0">
	<path class="st1" d="M249,198.9c-6.7,0-13.3,0-20,0c1.4-1.7,1-3.7,1-5.6c0-48.3,0-96.6,0-144.9c3-3.7,7.4-5.6,11-8.5
		c3.9-3.2,8.2-5.9,12.3-8.9c0.5-0.4,1-0.9,1.4-1.4c0.6-0.6,1.1-1.3,1.8-1.7c0.4-0.3,0.5-1.3,1.5-0.7c0,1.6,0,3.3,0,4.9
		c0,49.1,0,98.3,0,147.4c0,1.5,0.7,1.7,0.7,3.2c0,0.5,0.7,1.2,1.3,1.1c0,1,0,3,0,4c0,2.2-1.4,5.4-2.7,7
		C255.4,197.3,251,198.9,249,198.9z"/>
	<path class="st1" d="M259,184.9c-0.6,0.1-1-0.3-1-0.8c-0.1-1.5,0-3,0-4.5c0-49.1,0-98.3,0-147.4c0-1.6,0-3.3,0-4.9
		c-1-0.7-1.1,0.4-1.5,0.7c-0.7,0.5-1.2,1.1-1.8,1.7c-0.5,0.5-0.9,1-1.4,1.4c-4.1,3-8.4,5.7-12.3,8.9c-3.6,2.9-8,4.8-11,8.5
		c0,48.3,0,96.6,0,144.9c0,1.9,0.4,3.9-1,5.6c-0.7,0-1.3,0-2,0c0-0.7,0-1.3,0-2c0-48.7,0-97.3,0-146c-0.1-0.3-0.2-0.8-0.3-0.8
		c-0.6-0.1-0.7,0.3-0.7,0.8c-1.7,0.4-2.2,2.3-3.7,3c-4.1,1.9-7.6,4.9-11.2,7.6c-6.7,5.2-14,9.5-20.1,15.4c-1.2,0.7-2.5,1.2-3.6,2.1
		c-5.9,4.2-11.9,8.2-17.7,12.6c-5,3.8-10.2,7.5-15.2,11.3c-4.1,3.2-8.7,5.7-12.7,9c-3.3,2.8-7.4,4.5-10.2,7.9c-1.2,0-2.4,0-3.5,0
		c-0.5-2.3-2.8-2.4-4.2-3.6c-4.1-3.4-8.7-6.3-13-9.4c-5.4-3.9-10.7-7.9-16.1-11.8c-4.3-3.1-8.7-6.3-13.1-9.3
		c-4.3-2.9-8.3-6.3-12.6-9.4c-4.5-3.2-8.9-6.5-13.4-9.6c-4.2-2.8-8.1-6.2-12.2-9c-3.3-2.3-6.3-5.1-10.4-6.9c0,2.1,0,4,0,6
		c0,47,0,94,0,141c0,0.3,0,0.7,0,1c-0.7,0-1.3,0-2,0c0-1.3-1-1-1.7-1c-4.7,0-9.5,1-14.3,1c-1,0-2,0-3,0c-8.8,0-12-5.8-12-13.2
		c0.1-2,0-1.1,0-1.8c0-56,0-112,0-168c0,0-0.4-1,0-2c0.5-3.8,2.8-8.1,5.8-10c3.9-2.6,9.6-3.4,14.2-3c-0.6,0,1.1-0.1,1.4-0.1
		c1.3,0,1.5,2.6,2.6,3.1c1.2,0.7,2.5,1.2,3.6,2.1c5.7,4.2,11.7,8.1,17.3,12.4c7.4,5.7,15.1,11,22.7,16.5c4.3,3.1,8.5,6.5,13,9.4
		c2.7,1.8,5.5,3.8,8.1,5.8c4.3,3.3,8.6,6.6,12.9,9.8c4.2,3.1,8.5,6,12.8,9c5.2,3.8,10.5,7.6,16,11.6c0.8-2.1,2.5-2.3,3.8-3.3
		c2.3-1.8,4.4-3.7,6.8-5.2c2.5-1.6,5-3.3,7.3-5.2c4.2-3.4,8.8-6.3,13-9.7c4.1-3.2,8.4-6.1,12.7-9.2c4.2-3.1,8.5-6.1,12.7-9.2
		c4.5-3.5,9.2-6.7,13.9-9.9c4.2-2.8,8.1-6.1,12.2-9.1c4.6-3.4,9.4-6.4,13.8-10c2.8-2.2,6.2-5.8,8.4-8.8c0.8-0.2,1.9,2.5,2,1
		c0.3,0,0.7,0,1,0c3.3,0,6.7-1,10-1c4.6,0.9,8.9,3,11,7.3c0.6,1.2,1,3,1,4.7c0,2.7,0,5.3,0,8c-2.2,1-0.9,2.9-0.9,4.3
		C259,78.1,259,131,259,183.9C259,184.2,259,184.6,259,184.9z M130.3,117c0.5-0.4,0.8-0.8,1.2-1.1c5.1-4,10.7-7.4,15.7-11.6
		c4.4-3.6,9.2-6.7,13.8-10c3.2-2.3,6.5-4.4,9.7-6.7c4.5-3.2,9-6.5,13.5-9.7c4.4-3.2,8.6-6.5,13-9.7c4.3-3.2,8.8-6.2,13.1-9.3
		c5.4-3.9,10.7-8,16.1-11.9c4.2-3.1,8.5-6,12.7-9.1c5.8-4.3,12.2-7.8,16.6-13.3c1.5-3.8,1.4-7.5,1-11.1c-1.2-5.1-4.9-7.6-9.8-9.6
		c-0.8,0-2.1,0-3.5,0c-3.8,0-7,1.3-9.9,3.8c-2.6,2.3-5.6,4.1-8.4,6.2c-4.5,3.3-9,6.5-13.4,9.8c-4.2,3.1-8.4,6.2-12.7,9.2
		c-3.7,2.6-7.7,4.9-11.2,7.8c-4.6,3.8-9.3,7.4-14.1,10.7c-6.6,4.5-13,9.5-19.6,14.1c-7.6,5.4-15.1,11-22.7,16.5
		c-0.9,0.7-1.7,0.8-2.7,0.8c-1.5-0.7-2.3-2.2-3.7-3.1c-4.5-3-8.7-6.3-13.1-9.5s-8.7-6.3-13.1-9.5c-5.3-3.7-10.6-7.7-16-11.5
		C78.4,46,74,43,69.6,39.9c-4-2.9-7.8-6-11.9-8.7c-4.4-3-8.7-6.3-13.1-9.3C39.1,18.1,34,13.7,28.5,10c-2.3-1.5-4.1-3.8-7.1-4.5
		C19.3,5,17.2,4.9,15.2,5C10.7,5,7.3,7.1,5,11c-0.7,1.2-1.3,2.5-2,3.8c0,1.6,0,3.2,0,4.9c0,3.5,1.8,6.7,4.2,8.7
		c5.2,4.3,11,7.8,16.5,11.8c2.5,1.8,4.5,4.2,7.2,5.7c5.3,2.9,9.8,6.9,14.7,10.3c4.4,3.1,8.7,6.6,13.1,9.6
		c6.5,4.5,12.8,9.2,19.2,13.7c7.6,5.4,15.2,10.8,22.7,16.5c3.5,2.7,7.2,5.2,10.8,7.8c3.8,2.8,7.5,5.9,11.5,8.4
		C125.3,113.7,127.1,116,130.3,117z M3.2,27.6c0,53.2,0,106,0,157.8c0.7,3.6,3,5,4.8,6.9c2.2,2.3,5.1,3.2,8,3.5
		c4.6,0.4,9.2,0.1,13.9,0.1c0-49.4,0-98.5,0-147.6C21.2,41.3,11.2,36.1,3.2,27.6z"/>
	<path class="st1" d="M259,183.9c0-52.9,0-105.8,0.1-158.7c0-1.4-1.2-3.3,0.9-4.3c0,54.3,0,108.7,0,163
		C259.7,183.9,259.3,183.9,259,183.9z"/>
	<path class="st1" d="M15,197.9c4.8,0,9.5,0,14.3,0c0.7,0,1.7-0.4,1.7,1c-5.3,0-10.7,0-16,0C15,198.6,15,198.2,15,197.9z"/>
	<ellipse class="st1" cx="243" cy="1.4" rx="7.1" ry="0.7"/>
	<path class="st1" d="M238,0.9c0,0.3,0,0.7,0,1c-0.3,0-0.7,0-1,0c-0.7,0-1-0.3-1-1C236.7,0.9,237.3,0.9,238,0.9z"/>
	<circle class="st1" cx="33.5" cy="198.4" r="0.7"/>
	<path class="st1" d="M130.3,117c-3.2-1-5-3.4-7.4-4.9c-4-2.5-7.7-5.6-11.5-8.4c-3.6-2.6-7.2-5.1-10.8-7.8
		c-7.5-5.6-15.1-11-22.7-16.5c-6.4-4.6-12.7-9.3-19.2-13.7c-4.4-3-8.7-6.4-13.1-9.6c-4.8-3.5-9.4-7.4-14.7-10.3
		c-2.6-1.4-4.7-3.9-7.2-5.7c-5.5-4-11.3-7.5-16.5-11.8c-2.4-2-4.1-5.1-4.2-8.7c0-1.7,0-3.3,0-4.9c0.7-1.3,1.3-2.6,2-3.8
		C7.3,7.1,10.7,5,15.1,5c2,0,4.1,0,6.2,0.5c3.1,0.8,4.8,3,7.1,4.5c5.5,3.7,10.6,8.1,16.1,11.8c4.4,3,8.7,6.3,13.1,9.3
		c4.1,2.8,7.9,5.8,11.9,8.7C74,43,78.4,46,82.8,49.2C88.2,53,93.5,57,98.9,60.9c4.4,3.2,8.7,6.3,13.1,9.5s8.6,6.5,13.1,9.5
		c1.4,0.9,2.2,2.4,3.7,3.1c1,0,1.8-0.2,2.7-0.8c7.6-5.5,15-11.1,22.7-16.5c6.6-4.6,12.9-9.6,19.6-14.1c4.8-3.3,9.6-6.9,14.1-10.7
		c3.5-2.9,7.5-5.2,11.2-7.8c4.3-3,8.5-6.1,12.7-9.2c4.5-3.3,9-6.5,13.4-9.8c2.8-2,5.8-3.9,8.4-6.2c2.9-2.5,6.1-3.8,9.9-3.8
		c1.3,0,2.7,0,3.5,0c4.8,2,8.5,4.6,9.8,9.6c0.4,3.5,0.5,7.2-1,11.1c-4.4,5.5-10.8,9-16.6,13.3c-4.2,3.1-8.5,6-12.7,9.1
		c-5.4,3.9-10.7,8-16.1,11.9c-4.3,3.2-8.8,6.2-13.1,9.3c-4.4,3.2-8.6,6.5-13,9.7c-4.5,3.3-8.9,6.5-13.5,9.7
		c-3.2,2.3-6.5,4.5-9.7,6.7c-4.6,3.3-9.5,6.3-13.8,10c-5,4.2-10.6,7.6-15.7,11.6C131.1,116.2,130.8,116.6,130.3,117z"/>
	<path class="st1" d="M3.2,27.6c8,8.5,18,13.7,26.7,20.7c0,49.1,0,98.2,0,147.6c-4.7,0-9.3,0.3-13.9-0.1c-2.9-0.2-5.9-1.1-8-3.5
		c-1.8-1.9-4-3.3-4.8-6.9C3.2,133.6,3.2,80.8,3.2,27.6z"/>
	<path class="st1" d="M227,50.9c-0.3,0-0.7,0-1,0c0-0.5,0.1-0.9,0.7-0.8C226.8,50.1,226.9,50.6,227,50.9z"/>
</g>
<circle class="st2" cx="15" cy="183.9" r="15"/>
<rect y="14.8" class="st2" width="30" height="169.1"/>
<circle class="st2" cx="15" cy="14.8" r="15"/>
<rect x="55.4" y="-13.4" transform="matrix(0.7071 -0.7071 0.7071 0.7071 -29.7077 70.6074)" class="st2" width="30" height="169.1"/>
<rect x="105.1" y="56.2" transform="matrix(0.7071 -0.7071 0.7071 0.7071 5.2194 154.9256)" class="st2" width="169.1" height="30"/>
<circle class="st2" cx="130" cy="130.8" r="15"/>
<circle class="st2" cx="245" cy="183.9" r="15"/>
<rect x="230" y="14.8" class="st2" width="30" height="169.1"/>
<circle class="st2" cx="245" cy="14.8" r="15"/>
</svg>
