<?xml version="1.0" encoding="utf-8"?>
<!-- Generator: Adobe Illustrator 25.0.0, SVG Export Plug-In . SVG Version: 6.00 Build 0)  -->
<svg version="1.1" id="Layer_1" xmlns="http://www.w3.org/2000/svg" xmlns:xlink="http://www.w3.org/1999/xlink" x="0px" y="0px"
	 viewBox="0 0 219 219" style="enable-background:new 0 0 219 219;" xml:space="preserve">
<style type="text/css">
	.st0{fill:#484848;}
</style>
<g>
	<path class="st0" d="M0,22c0-1,0-2,0-3c0.9,0.1,1-0.5,1-1.2c0-1.9,0-3.9,0-5.8c1-1.1,0.9-2.5,1.2-3.7C3.4,7.1,4.3,6,5.5,5.1
		C8.3,3,11.2,0.9,15,1c0.9,0,1.9,0,2.8,0C18.5,1,19,0.9,19,0c0.7,0,1.3,0,2,0c1,2.2,2.9,0.9,4.3,0.9C81.4,1,137.6,1,193.7,1
		c1.2,0,2.3,0,3.5,0c0.5,0,0.9-0.3,0.8-1c0.7,0,1.3,0,2,0c-0.1,0.9,0.5,1,1.2,1c1.3,0,2.5,0,3.8,0c5.4,1.2,9.9,3.7,12,9.2
		c0.4,0.9,0.9,1.7,2,1.8c0,1.3,0,2.7,0,4c-1.4,1-1.4,2,0,3c0,0.7,0,1.3,0,2c-2.2,1-0.9,2.9-0.9,4.3C218,81.4,218,137.6,218,193.7
		c0,1.2,0,2.3,0,3.5c0,0.5,0.3,0.9,1,0.8c0,0.7,0,1.3,0,2c-1.9,0.5-0.6,2-1,3c0,1,0,2,0,3c-1.1,3.8-2.6,7-6.3,9.2
		c-1.9,1.1-3.9,1.7-5.7,2.8c-1,0-2,0-3,0c-1,0.4-2.5-0.9-3,1c-0.7,0-1.3,0-2,0c-1-2.2-2.9-0.9-4.3-0.9C137.6,218,81.4,218,25.3,218
		c-1.2,0-2.3,0-3.5,0c-0.5,0-0.9,0.3-0.8,1c-0.7,0-1.3,0-2,0c-0.5-1.9-2-0.6-3-1c-1,0-2,0-3,0c-1.2-0.7-2.3-1.6-3.6-2
		c-3.8-1.1-6-3.6-7.4-7.2c-0.3-0.9-0.9-1.7-2-1.8c0-3,0-6,0-9c2.2-1,0.9-2.9,0.9-4.3C1,137.9,1,82.1,1,26.3c0-1.2,0-2.3,0-3.5
		C1,22.3,0.6,21.9,0,22z M117,182.5c0-9.9-0.1-19.6,0-29.2c0.2-9.5-0.5-19,0.8-28.6c1-7,6.7-15.1,13.6-16.6c2.1-0.5,4.3,0,6.5-0.1
		c4.1-0.3,7.4,1.5,10.4,3.9c2.9,2.4,4.1,6.1,4.5,9.5c0.3,2.4,1.2,4.6,1.2,7.1c0,2.5,0,5,0,7.5c0,15.5,0,31,0,45.1
		c1.2,2,1.9,3.1,2.3,3.9c7.9,0,15.2,0,22.5,0c2.1,0,4.2,0.1,6.1-1.5c0-1.5,0-3.1,0-4.8c0-17.7-0.1-35.3,0.1-53
		c0.1-6.8-0.6-13.5-2-20.2c-1-4.6-2.9-9-5.7-12.6c-6-7.8-14.1-11.7-23.9-12c-3.2-0.1-6.3,0.1-9.5,0c-5.2-0.2-9.8,1.6-14.4,3.9
		c-4.4,2.2-7.4,5.7-10.8,8.9c-0.2,0.2-0.6,0.2-1.3,0.4c-0.3-0.5-0.7-1.2-1.4-2.6c0-1.4,0-3.8,0-6.1c-0.8-0.8-1.7-1.7-2.5-2.5
		c-8.3,0-16.6,0-25,0c-0.8,0.8-1.6,1.6-2.3,2.5c0,32.4,0,64.9,0,97.2c0.8,0.8,1.5,1.5,2.3,2.3c8.7,0,17.5,0,26.2,0
		C115.4,184.1,116.1,183.4,117,182.5z M34,85.5c0,32.3,0,64.6,0,96.4c1,1.3,1.8,2.3,2.4,3c9.1,0,17.8,0,26.3,0
		c0.8-0.8,1.5-1.5,2.2-2.2c0-0.3,0.1-0.6,0.1-0.9c0-31.1,0-62.3,0.1-93.4c0-2-0.7-3.7-1.6-5.3c-9,0-18,0-27,0
		C35.6,83.9,34.8,84.7,34,85.5z M53.7,68c9-3.3,14.1-8.9,14.2-17.8C68,41.1,62.8,35.3,53.6,32c-0.6,0-2.1,0.1-3.6,0
		c-4-0.5-7.4,1.1-10.8,2.9c-3.8,2.1-5.6,5.6-7.1,9.1c-0.6,1.2-1,2.9-1.2,4.5c-0.3,1.9,0.8,3.4,1,5.1c1,9.2,10.3,14.6,17.2,14.4
		C50.8,68,52.5,68,53.7,68z"/>
	<path class="st0" d="M198,0c0.1,0.6-0.3,1-0.8,1c-1.2,0.1-2.3,0-3.5,0C137.6,1,81.4,1,25.3,0.9C23.9,0.9,22,2.2,21,0
		C80,0,139,0,198,0z"/>
	<path class="st0" d="M219,198c-0.6,0.1-1-0.3-1-0.8c-0.1-1.2,0-2.3,0-3.5c0-56.1,0-112.3,0.1-168.4c0-1.4-1.2-3.3,0.9-4.3
		C219,80,219,139,219,198z"/>
	<path class="st0" d="M21,219c-0.1-0.6,0.3-1,0.8-1c1.2-0.1,2.3,0,3.5,0c56.1,0,112.3,0,168.4,0.1c1.4,0,3.3-1.2,4.3,0.9
		C139,219,80,219,21,219z"/>
	<path class="st0" d="M0,22c0.6-0.1,1,0.3,1,0.8c0,1.2,0,2.3,0,3.5c0,55.8,0,111.6-0.1,167.4c0,1.4,1.2,3.3-0.9,4.3
		C0,139.3,0,80.7,0,22z"/>
	<path class="st0" d="M0,12c0.3,0,0.7,0,1,0c0,1.9,0,3.9,0,5.8c0,0.7-0.1,1.3-1,1.2C0,16.7,0,14.3,0,12z"/>
	<path class="st0" d="M205,0c0,0.3,0,0.7,0,1c-1.3,0-2.5,0-3.8,0c-0.7,0-1.3-0.1-1.2-1C201.7,0,203.3,0,205,0z"/>
	<path class="st0" d="M15,1c0-0.3,0-0.7,0-1c1.3,0,2.7,0,4,0c0.1,0.9-0.5,1-1.2,1C16.9,1,15.9,1,15,1z"/>
	<path class="st0" d="M219,19c-1.4-1-1.4-2,0-3C219,17,219,18,219,19z"/>
	<path class="st0" d="M218,203c0.4-1-0.9-2.5,1-3c0,1,0,2,0,3C218.7,203,218.3,203,218,203z"/>
	<ellipse class="st0" cx="218.5" cy="204.5" rx="0.7" ry="2.1"/>
	<ellipse class="st0" cx="14.5" cy="218.5" rx="2.1" ry="0.7"/>
	<path class="st0" d="M16,219c0-0.3,0-0.7,0-1c1,0.4,2.5-0.9,3,1C18,219,17,219,16,219z"/>
	<path class="st0" d="M200,219c0.5-1.9,2-0.6,3-1c0,0.3,0,0.7,0,1C202,219,201,219,200,219z"/>
	<ellipse class="st0" cx="204.5" cy="218.5" rx="2.1" ry="0.7"/>
</g>
</svg>
