<?xml version="1.0" encoding="utf-8"?>
<!-- Generator: Adobe Illustrator 25.0.0, SVG Export Plug-In . SVG Version: 6.00 Build 0)  -->
<svg version="1.1" id="Layer_1" xmlns="http://www.w3.org/2000/svg" xmlns:xlink="http://www.w3.org/1999/xlink" x="0px" y="0px"
	 viewBox="0 0 263.6 217" style="enable-background:new 0 0 263.6 217;" xml:space="preserve">
<style type="text/css">
	.st0{fill:#484848;}
</style>
<g>
	<path class="st0" d="M93.7,216.1c0,0.3,0,0.6-0.1,0.9c-8,0-16,0-24,0c0-0.3,0-0.6-0.1-0.9c1-1.3,2.5-1.5,4-1.6
		c5.4-0.2,10.8-0.2,16.2,0C91.3,214.6,92.7,214.8,93.7,216.1z"/>
	<path class="st0" d="M93.7,216.1c-8,0-16.1,0-24.1,0c-32-2.8-60-15.5-69.6-23.7c28.8,2.2,54.8-4.9,78.9-23
		c-12.3-0.8-22.6-4.2-31.7-11c-9-6.8-15.4-15.4-19.3-26.7c8.1,0.7,15.5,1.1,23.4-1.2c-3.5-1.3-6.5-2.2-9.3-3.5
		c-19.7-8.9-30.8-24.2-33.3-45.7c-0.5-4.1,0.5-5.1,4.4-3.1c5.8,3,12.2,4.2,19.9,4.6c-11.8-9-19.5-19.6-22.6-33.3
		c-3-13.6-1.1-26.4,5.9-39.1c6.7,7.2,13,14.2,20.3,20.2c25.5,21.2,54.7,33.3,87.7,36.3c3.8,0.4,5-0.2,4.5-4.6
		c-3.1-23.7,8.2-45.5,28.4-55.9c21-10.8,45.1-7.6,63.1,8.7c2,1.9,3.7,2,6.2,1.4c10.4-2.4,20.3-6.4,29.8-11.7
		c-0.6,7.3-4.7,13.1-20,28.2c3,1,5.6-0.1,8.2-0.5c6.6-1,12.5-4.4,19.2-5.3c-6.1,9.2-13.7,17.2-22.5,23.8c-2.7,2-3.6,4.1-3.6,7.5
		c-0.4,51.4-20.2,93.7-60.1,126.2C153.2,204.3,124.7,213.8,93.7,216.1z"/>
</g>
</svg>
