<svg id="Layer_1" data-name="Layer 1" xmlns="http://www.w3.org/2000/svg" viewBox="0 0 409 424.67">
  <defs>
    <style>
      .cls-1 {
        fill: #fff;
      }

      .cls-2 {
        fill: #000002;
      }

      .cls-3 {
        fill: #e24524;
      }
    </style>
  </defs>
  <rect class="cls-1" width="409" height="424.67"/>
  <rect class="cls-2" x="75.96" y="12.83" width="33" height="4.5"/>
  <rect class="cls-2" x="120.67" y="12.58" width="33" height="4.5"/>
  <rect class="cls-2" x="165.87" y="12.83" width="33" height="4.5"/>
  <rect class="cls-2" x="31" y="12.83" width="33" height="4.5"/>
  <rect class="cls-2" x="210.75" y="12.83" width="33" height="4.5"/>
  <rect class="cls-2" x="255.87" y="12.83" width="33" height="4.5"/>
  <rect class="cls-2" x="300.75" y="12.83" width="33" height="4.5"/>
  <rect class="cls-2" x="345.75" y="12.83" width="33" height="4.5"/>
  <rect class="cls-2" x="30.87" y="22.33" width="33" height="4.5"/>
  <rect class="cls-2" x="75.83" y="22.33" width="33" height="4.5"/>
  <rect class="cls-2" x="120.54" y="22.08" width="33" height="4.5"/>
  <rect class="cls-2" x="165.75" y="22.33" width="33" height="4.5"/>
  <rect class="cls-2" x="210.62" y="22.33" width="33" height="4.5"/>
  <rect class="cls-2" x="255.75" y="22.33" width="33" height="4.5"/>
  <rect class="cls-2" x="300.62" y="22.33" width="33" height="4.5"/>
  <rect class="cls-2" x="345.62" y="22.33" width="33" height="4.5"/>
  <rect class="cls-2" x="30.63" y="31.83" width="33" height="4.5"/>
  <rect class="cls-2" x="75.58" y="31.83" width="33" height="4.5"/>
  <rect class="cls-2" x="120.29" y="31.58" width="33" height="4.5"/>
  <rect class="cls-2" x="165.5" y="31.83" width="33" height="4.5"/>
  <rect class="cls-2" x="210.38" y="31.83" width="33" height="4.5"/>
  <rect class="cls-2" x="255.5" y="31.83" width="33" height="4.5"/>
  <rect class="cls-2" x="300.38" y="31.83" width="33" height="4.5"/>
  <rect class="cls-2" x="345.38" y="31.83" width="33" height="4.5"/>
  <rect class="cls-2" x="30.63" y="41.33" width="33" height="4.5"/>
  <rect class="cls-2" x="75.58" y="41.33" width="33" height="4.5"/>
  <rect class="cls-2" x="120.29" y="41.08" width="33" height="4.5"/>
  <rect class="cls-2" x="165.5" y="41.33" width="33" height="4.5"/>
  <rect class="cls-2" x="210.38" y="41.33" width="33" height="4.5"/>
  <rect class="cls-2" x="255.5" y="41.33" width="33" height="4.5"/>
  <rect class="cls-2" x="300.38" y="41.33" width="33" height="4.5"/>
  <rect class="cls-2" x="345.38" y="41.33" width="33" height="4.5"/>
  <rect class="cls-2" x="30.87" y="50.58" width="33" height="4.5"/>
  <rect class="cls-2" x="75.83" y="50.58" width="33" height="4.5"/>
  <rect class="cls-2" x="120.54" y="50.33" width="33" height="4.5"/>
  <rect class="cls-2" x="165.75" y="50.58" width="33" height="4.5"/>
  <rect class="cls-2" x="210.62" y="50.58" width="33" height="4.5"/>
  <rect class="cls-2" x="255.75" y="50.58" width="33" height="4.5"/>
  <rect class="cls-2" x="300.62" y="50.58" width="33" height="4.5"/>
  <rect class="cls-2" x="345.62" y="50.58" width="33" height="4.5"/>
  <rect class="cls-2" x="30.63" y="59.33" width="33" height="4.5"/>
  <rect class="cls-2" x="75.58" y="59.33" width="33" height="4.5"/>
  <rect class="cls-2" x="120.29" y="59.08" width="33" height="4.5"/>
  <rect class="cls-2" x="165.5" y="59.33" width="33" height="4.5"/>
  <rect class="cls-2" x="210.38" y="59.33" width="33" height="4.5"/>
  <rect class="cls-2" x="255.5" y="60.5" width="33" height="4.5" transform="translate(-3.83 19.85) rotate(-4.15)"/>
  <rect class="cls-2" x="300.38" y="59.33" width="33" height="4.5"/>
  <rect class="cls-2" x="345.38" y="59.33" width="33" height="4.5"/>
  <rect class="cls-2" x="30.63" y="68.46" width="33" height="4.5"/>
  <rect class="cls-2" x="90.2" y="56.21" width="4.5" height="33" transform="translate(11.9 158.42) rotate(-84.96)"/>
  <rect class="cls-2" x="120.29" y="68.21" width="33" height="4.5"/>
  <rect class="cls-2" x="165.5" y="68.46" width="33" height="4.5"/>
  <rect class="cls-2" x="225" y="55.83" width="4.5" height="33" transform="translate(118.85 284.76) rotate(-80.62)"/>
  <rect class="cls-2" x="255.49" y="70.09" width="33" height="4.5" transform="translate(-7.03 35.44) rotate(-7.36)"/>
  <rect class="cls-2" x="300.38" y="68.46" width="33" height="4.5"/>
  <rect class="cls-2" x="345.38" y="68.46" width="33" height="4.5"/>
  <rect class="cls-2" x="30.87" y="78.46" width="33" height="4.5"/>
  <rect class="cls-2" x="120.54" y="78.21" width="33" height="4.5"/>
  <rect class="cls-2" x="165.75" y="78.46" width="33" height="4.5"/>
  <rect class="cls-2" x="225" y="65.41" width="4.5" height="33" transform="translate(125.69 301.08) rotate(-84.96)"/>
  <rect class="cls-2" x="269.74" y="68.33" width="4.5" height="33" transform="translate(176.12 353.13) rotate(-87.66)"/>
  <rect class="cls-2" x="300.61" y="80.72" width="33" height="4.5" transform="translate(-8.02 41.31) rotate(-7.36)"/>
  <rect class="cls-2" x="345.62" y="78.46" width="33" height="4.5"/>
  <rect class="cls-2" x="30.87" y="87.96" width="33" height="4.5"/>
  <rect class="cls-2" x="90.72" y="74.8" width="4.5" height="33" transform="translate(-9.36 171.97) rotate(-82.73)"/>
  <rect class="cls-2" x="120.54" y="87.71" width="33" height="4.5"/>
  <rect class="cls-2" x="165.75" y="87.96" width="33" height="4.5"/>
  <rect class="cls-2" x="224.08" y="75.72" width="4.5" height="33" transform="translate(114.59 309.58) rotate(-84.96)"/>
  <rect class="cls-2" x="272.8" y="79.45" width="4.5" height="33" transform="translate(135.56 351.68) rotate(-80.62)"/>
  <rect class="cls-2" x="300.62" y="90.24" width="33" height="4.5" transform="translate(-7.71 32.46) rotate(-5.79)"/>
  <rect class="cls-2" x="360.61" y="76.65" width="4.5" height="33" transform="translate(238.2 446.43) rotate(-84.96)"/>
  <rect class="cls-2" x="134.79" y="82.33" width="4.5" height="33" transform="translate(26.55 226.65) rotate(-84.96)"/>
  <rect class="cls-2" x="165.74" y="98.22" width="33" height="4.5" transform="translate(-9.21 18.9) rotate(-5.79)"/>
  <rect class="cls-2" x="224.87" y="88.08" width="4.5" height="33" transform="translate(86.92 311.62) rotate(-80.62)"/>
  <rect class="cls-2" x="276.64" y="94.19" width="4.5" height="33" transform="translate(75.83 331.6) rotate(-69.06)"/>
  <rect class="cls-2" x="314.88" y="88.54" width="4.5" height="33" transform="translate(147.59 392.9) rotate(-77.83)"/>
  <rect class="cls-2" x="359.87" y="89.7" width="4.5" height="33" transform="translate(181.97 437.8) rotate(-77.83)"/>
  <rect class="cls-2" x="46.11" y="91.4" width="4.5" height="33" transform="translate(-63.37 146.6) rotate(-84.96)"/>
  <rect class="cls-2" x="90.21" y="91.39" width="4.5" height="33" transform="translate(-32.96 174.68) rotate(-77.44)"/>
  <rect class="cls-2" x="135.16" y="91.96" width="4.5" height="33" transform="matrix(0.13, -0.99, 0.99, 0.13, 12.44, 231.04)"/>
  <rect class="cls-2" x="225.5" y="99.13" width="4.5" height="33" transform="translate(33.1 281.01) rotate(-67.27)"/>
  <rect class="cls-2" x="269.99" y="102.98" width="4.5" height="33" transform="translate(70.06 337.46) rotate(-70.85)"/>
  <rect class="cls-2" x="314.88" y="112.58" width="4.5" height="33" transform="translate(13.54 287.4) rotate(-49.69)"/>
  <rect class="cls-2" x="359.85" y="102.67" width="4.5" height="33" transform="translate(112.27 407.11) rotate(-67.27)"/>
  <rect class="cls-2" x="44.88" y="112.65" width="4.5" height="33" transform="translate(-89.9 118.05) rotate(-65.32)"/>
  <rect class="cls-2" x="90.21" y="126.27" width="4.5" height="33" transform="translate(-77.42 151.46) rotate(-60)"/>
  <rect class="cls-2" x="90.2" y="161.4" width="4.5" height="33" transform="translate(-98.72 117.48) rotate(-45)"/>
  <rect class="cls-2" x="136.03" y="109.02" width="4.5" height="33" transform="translate(-24.97 216.23) rotate(-71.29)"/>
  <rect class="cls-2" x="128" y="139.08" width="4.5" height="33" transform="translate(-71.86 137.67) rotate(-45)"/>
  <rect class="cls-2" x="180" y="101.03" width="4.5" height="33" transform="translate(18.02 259.16) rotate(-73.59)"/>
  <rect class="cls-2" x="180" y="114.88" width="4.5" height="33" transform="translate(-30.42 203.8) rotate(-54.59)"/>
  <rect class="cls-2" x="172.13" y="130.9" width="4.5" height="33" transform="translate(-7.41 285.55) rotate(-77.44)"/>
  <rect class="cls-2" x="145.6" y="181.7" width="33" height="4.5" transform="translate(-29.96 31.55) rotate(-10.18)"/>
  <rect class="cls-2" x="197.48" y="136.52" width="33" height="4.5" transform="translate(-40.99 132.92) rotate(-31.65)"/>
  <rect class="cls-2" x="244.78" y="123.02" width="4.5" height="33" transform="translate(-26.3 215.54) rotate(-45)"/>
  <rect class="cls-2" x="224.86" y="139.11" width="4.5" height="33" transform="translate(-4.17 304.96) rotate(-67.27)"/>
  <rect class="cls-2" x="185.74" y="166.04" width="33" height="4.5" transform="translate(-31.5 47.52) rotate(-12.44)"/>
  <rect class="cls-2" x="184.11" y="185.78" width="33" height="4.5" transform="translate(-63.58 111.85) rotate(-27.06)"/>
  <rect class="cls-2" x="177.39" y="186.9" width="4.5" height="33" transform="translate(-57.95 334.5) rotate(-77.44)"/>
  <rect class="cls-2" x="166.63" y="245.79" width="33" height="4.5" transform="translate(-94.39 382.36) rotate(-79.39)"/>
  <rect class="cls-2" x="314.89" y="134.9" width="4.5" height="33" transform="translate(-28.63 214.18) rotate(-35.81)"/>
  <rect class="cls-2" x="280.12" y="123.64" width="4.5" height="33" transform="translate(-7.17 264.8) rotate(-49.69)"/>
  <rect class="cls-2" x="243.87" y="161.13" width="33" height="4.5" transform="translate(-42.56 111.23) rotate(-22.34)"/>
  <rect class="cls-2" x="260.76" y="167.52" width="33" height="4.5" transform="translate(-38.83 245.78) rotate(-45)"/>
  <rect class="cls-2" x="255.76" y="188.62" width="33" height="4.5" transform="translate(-55.22 248.42) rotate(-45)"/>
  <rect class="cls-2" x="264.37" y="198.68" width="33" height="4.5" transform="translate(-49.73 300.75) rotate(-52.38)"/>
  <rect class="cls-2" x="231.71" y="164.42" width="4.5" height="33" transform="translate(-55.6 241.13) rotate(-49.46)"/>
  <rect class="cls-2" x="199.25" y="192.78" width="33" height="4.5" transform="translate(-57.94 96.64) rotate(-22.34)"/>
  <rect class="cls-2" x="217.25" y="206.47" width="33" height="4.5" transform="translate(-77.94 176.22) rotate(-35.81)"/>
  <rect class="cls-2" x="186.37" y="227.74" width="33" height="4.5" transform="matrix(0.32, -0.95, 0.95, 0.32, -80.21, 347.97)"/>
  <rect class="cls-2" x="251.02" y="212.44" width="4.5" height="33" transform="translate(-11.52 13.43) rotate(-2.97)"/>
  <rect class="cls-2" x="204.77" y="265.02" width="4.5" height="33" transform="translate(-14.31 11.1) rotate(-2.97)"/>
  <rect class="cls-3" x="257.35" y="361.98" width="4.5" height="33" transform="translate(-160.99 194.78) rotate(-31.96)"/>
</svg>
