<svg id="Layer_1" data-name="Layer 1" xmlns="http://www.w3.org/2000/svg" viewBox="0 0 409 424.67">
  <defs>
    <style>
      .cls-1 {
        fill: #fff;
      }

      .cls-2 {
        fill: #262528;
      }
    </style>
  </defs>
  <rect class="cls-1" width="409" height="424.67"/>
  <path class="cls-2" d="M317.45,360.08c0-10,.43-20.13-.16-30.14-.35-5.79,1.78-9.79,5.38-13.77,2.27-2.51,4.55-3.72,8.05-3.56,6.83.31,13.69.12,20.53.07,1.79,0,2.39.12,1.7,2.29-1.53,4.84-1.34,4.9-6.43,4.9-2.57,0-5.14.07-7.7,0-1.42-.05-1.81.5-1.8,1.85,0,7.7.05,15.4,0,23.1,0,1.62.7,2,2.14,1.94,3.31-.07,6.63,0,9.94,0,1.51,0,2.28.2,2.32,2,.12,4.84.22,4.78-4.67,4.86-3.08,0-7.1-1.31-9,.49-2.07,2-.62,6.06-.67,9.22-.11,7.27.09,14.54-.1,21.81-.07,2.52.76,3.05,3.07,2.93,3.73-.18,7.48,0,11.22-.07,1.51,0,2,.46,2.07,2,.49,8.3.53,8.3-7.6,8.3-8.55,0-17.11-.07-25.66,0-2.06,0-2.69-.48-2.67-2.61C317.51,383.83,317.45,371.93,317.45,360.08Z"/>
  <path class="cls-2" d="M232.1,318c.27-.31.73-.59.79-.93.69-4.33,3.64-4.63,7.22-4.43,4.16.24,8.34.06,12.51.06,9.23,0,9.23,0,16.07,5.1.62-2.19-.06-5.21,3.58-5.4,2-.1,4,.33,4.52,2.18s1.6,1.53,2.37.83c2.56-2.36,5.69-2.62,8.84-2.67,6-.11,12,0,18-.06a3,3,0,0,1,2.9,1.4,41.07,41.07,0,0,0,3.31,3.9c.66-5.08,1.9-6.17,5.38-5.36,2,.46,3.17,1.64,3,3.46s-1.56,3-3.71,3.19c-5.31.52-10.61.5-15.92.49-5.71,0-7.54,1.87-7.88,7.77-.58,9.83-.25,19.67-.31,29.5v28.23c0,1.68,0,2.72,2.29,2.72s2.25-1.15,2.25-2.76q0-19.1-.05-38.18c0-1,.67-2.43-1.28-2.71-1-.15-3.41,1-2.4-1.74.72-1.93-1.52-5.57,3.25-5.35,5.76.26,11.55.16,17.32,0,2.17-.06,2.66.67,2.65,2.73-.08,15.29-.15,30.58,0,45.87,0,3.56-2.92,4.75-4.36,7.1-2.39,3.88-5.59,6.11-10.72,5.45a53.41,53.41,0,0,0-14.4,0c-5.28.77-7.66-2.47-10.71-5.52-3.34-3.34-3.54-7.21-3.49-11.54.21-17.64.14-35.29.25-52.93a18.66,18.66,0,0,1,2.58-9.24h-6.72c3.08,5.8,3,11.94,3,18.1,0,19.36-.06,38.72,0,58.07,0,2.46-.68,3-3,3-8.88-.14-17.78-.45-26.62.1-4.94.31-7.58-1.87-9.89-5.48a3.64,3.64,0,0,0-.62-.62v.08c-.79-2.24-3.38-3.3-3.33-6.26.19-11.21.07-22.44.08-33.66a3.67,3.67,0,0,1,.61-2.71c6.08-7.1,12.11-14.24,18.28-21.52.78,1.37.45,2.55.45,3.66v53.22c0,1.51-.29,2.87,2.15,2.85,2.12,0,2.39-.77,2.38-2.6q-.09-31.58,0-63.16c0-2-.47-2.56-2.48-2.51-5.44.15-10.9,0-16.35.08-1.47,0-2.25-.24-1.81-1.89Z"/>
  <path class="cls-2" d="M232.1,392.32c-1,.49-.14,1.07-.06,1.58.32,2.12-.58,3.83-2.53,4.1s-4.76,1.27-5.4-2.09c-.49-2.65-1.67-1.78-2.43-.43-1.59,2.83-4,2.85-6.78,2.82q-14-.14-27.9,0c-1.88,0-2.56-.35-2.55-2.43q.11-40.39,0-80.8c0-2.09.69-2.44,2.56-2.42,8.12.09,16.24,0,24.37,0,5.86,0,7.84.73,12.17,4.46.92-1.06-.32-2.71,1.08-3.67a5.37,5.37,0,0,1,3.85-1.05c3.31.44,4,2.65,3.59,5.56l.07-.1a7.81,7.81,0,0,1-6.36,1.22c-.12-.31-.33-.54-.63-.31-.09.07.09.48.15.74a31.88,31.88,0,0,1,2.64,13.69v47.4c0,3.75,1.09,7.79-2.43,11,2.62-1.49,4.52.58,6.67.72Zm-23.64-38.77v-31.1c0-1.56.18-2.81-2.2-2.78-2.21,0-2.33,1-2.33,2.72q.06,31.41,0,62.84c0,1.64-.05,2.74,2.25,2.75s2.29-1,2.28-2.69c0-10.58,0-21.16,0-31.74Zm16.08,39,.16.13v-.2Z"/>
  <path class="cls-2" d="M140.23,355.48c0-13,.07-26.09-.06-39.14,0-2.76.46-3.83,3.55-3.73,7.59.27,15.2.32,22.78,0,10.41-.39,15.31,5.41,16.78,14.77a36.85,36.85,0,0,1,.35,5.75c0,20.53-.06,41.07.1,61.6,0,3.08-.95,3.7-3.74,3.56-4.38-.22-8.77-.19-13.15,0-2.26.1-2.82-.56-2.81-2.81.08-24.27,0-48.55.1-72.83,0-2.12-.32-3-2.71-2.89s-1.69,1.76-1.69,2.94c0,24.06-.09,48.12.05,72.18,0,2.95-.83,3.57-3.55,3.42a105.45,105.45,0,0,0-12.82,0c-2.82.18-3.27-.84-3.24-3.39C140.3,381.79,140.23,368.64,140.23,355.48Z"/>
  <path class="cls-2" d="M91.48,392.78c-.54.28-.8.33-.88.47-2.79,5.15-7.45,5.26-12.52,5.09-7.9-.27-15.82-.14-23.73,0-2.08,0-3-.28-2.94-2.71q.14-40.1,0-80.17c0-2.32.71-2.81,2.88-2.78,8.34.12,16.68.14,25,0a14.26,14.26,0,0,1,10,3.29c.62.52,1.34,1.55,1.66-.25.46-2.54,2.31-3.49,4.57-3.31,1.93.16,3.65.92,3.85,3.47.11,1.45,1,.9,1.65.15a8.69,8.69,0,0,1,6.06-2.92,101,101,0,0,1,19.52-.06c6.28.64,10.4,5.18,11.71,11.69a38.89,38.89,0,0,1,.9,7.9c-.06,15.39,0,30.78,0,46.17a27.08,27.08,0,0,1-2.68,12.26,12.13,12.13,0,0,1-11.11,7.15c-6.09.19-12.18-.09-18.27-.07a5.64,5.64,0,0,1-3-.76c-2.15-1.27-4-3.6-6.39.07-1,1.53-3.56,1.14-5.07.45C90.81,397,91.5,394.79,91.48,392.78Zm.71-74.18-.41-.51c0,.08-.11.18-.09.26.09.31.28.38.56.18a2.72,2.72,0,0,0,0,.9c3.45,10.28,5.49,20.45-2.37,29.8-1.09,1.29-.67,2.33.16,3.39,4.33,5.62,5.63,12,4.89,18.93-.23,2.12.08,4.28-.06,6.41-.31,5,1.72,10.39-3.18,14.51a7,7,0,0,1,6.3-.73l.38.4c0-.11.07-.23,0-.31-.12-.28-.29-.28-.47,0-2.62-7.44-2.8-15.14-2.65-22.92.16-8.32.16-16.65.12-25,0-8.52-.88-17.12,3.52-25.67A7,7,0,0,1,92.19,318.6Zm27.61,35.26V322.44c0-1.7,0-2.67-2.29-2.67s-2.25,1.07-2.25,2.71v62.83c0,1.7,0,2.67,2.28,2.68s2.26-1.07,2.25-2.71q0-15.7,0-31.42ZM75.42,370.93c0-4.81-.07-9.62,0-14.42,0-1.76-.15-2.68-2.35-2.67s-2.1,1-2.09,2.53q.06,14.56,0,29.15c0,1.57,0,2.48,2.11,2.51s2.36-.95,2.32-2.69C75.36,380.49,75.42,375.68,75.42,370.93Zm0-37.65c0-3.84-.08-7.67,0-11.51,0-1.66-.46-2.27-2.16-2.22-1.47,0-2.33.15-2.3,2,.1,7.78.12,15.55,0,23.33,0,1.92.83,1.95,2.27,2,1.62.06,2.26-.38,2.2-2.12-.1-3.83,0-7.69,0-11.53Z"/>
  <path class="cls-2" d="M333.15,287.74c6.6.23,6.58.23,6.61,6.45,0,7.21.59,7.12-6.87,7a15.75,15.75,0,0,0-2.57,0c-3,.45-4.44-.56-4-3.75.08-.57,0-1.49-.34-1.74-.83-.57-1.38.33-1.76.88-3,4.28-7.22,4.84-12.06,4.67-8.23-.29-16.47-.08-24.71-.08h-79c-8.34,0-16.68-.13-25,.08a5.76,5.76,0,0,1-5.21-2.8l-12.08-16.39c-.9-1.22-1.57-1.39-2.82-.14-5.8,5.83-11.72,11.53-17.62,17.26-1,.93-1.8,2.43-3.4,1.9-1.4-.47-1.64-2.1-2-3.33q-6.23-21.12-12.32-42.3c-.55-1.9-1-3-3.17-1.23-5.1,4.32-10.33,8.5-15.56,12.66a3.9,3.9,0,0,0-1.57,3.59,24.34,24.34,0,0,1,0,5.12c-1.14,7,1.44,12.53,6.25,17.47,1.25,1.28,1.57,1.13,2.57.12,3.69-3.72,7.45-7.37,11.13-11.1,1.47-1.49,3-2.12,4.65-.48,1.84,1.78.38,3-.86,4.23l-13.69,13.53c-2.64,2.58-3.53,2.42-5.7-.53-1.9-2.61-4.15-5-5.86-7.7-1.37-2.18-2.27-1.51-3.59-.16-2.69,2.75-5.49,5.4-8.18,8.16a6.15,6.15,0,0,1-4.75,2.07c-11.12-.06-22.24,0-33.37,0-1.18,0-2.19.08-2.84-1.34a2.13,2.13,0,0,1,.89-2.88h0c5.76-3.73,5.91-9.28,5.75-15.35-.31-11.64-.2-23.31,0-35a11.76,11.76,0,0,0-2.7-8c-4.28-5.44-4.85-5.43.71-11.06-5.22.95-4.51-2.45-4.5-5.38,0-8.3,0-8.3,8.58-8.3,4.62,0,4.62,0,5,4.29.19,0,.47,0,.56-.12,2.61-3.7,6.21-4.36,10.56-4.26,13.56.3,27.13.22,40.7.2,1.76,0,2.26.7,2.72,2.28,4.36,14.92,8.88,29.8,13.24,44.72.74,2.51,1.21,3.29,3.65,1.2,4.79-4.11,9.94-7.79,14.88-11.73,1.47-1.17,2.62-2.48,2.46-4.77a58.31,58.31,0,0,1,0-11.21c.77-6.18-4.66-8.82-7-13.18-.53-1-1.85.1-2.64.88-3.93,3.93-7.93,7.8-11.84,11.75-1.2,1.21-2.51,1.8-3.95.81s-1.9-2.48-.38-4c5.31-5.28,10.59-10.59,15.92-15.83,1.43-1.4,3.09-1.53,4.4.15,3.26,4.17,6.57,8.32,9.56,12.68,1.7,2.49.18,5.62.68,7.79,4.15-3.8,8.78-7.63,12.9-11.95,2.94-3.08,6-6.09,8.94-9.12.8-.82,2-.58,3-.58H257.1c1.18,0,2.44-.12,2.94,1.3s-.54,2.17-1.38,3c-5.44,5.27-10.93,10.51-16.31,15.84-1.27,1.25-2.75,1.73-3.9.63a2.9,2.9,0,0,1-.11-4.11l.2-.2c2-1.87,3.5-4.26,6.09-5.52a9.67,9.67,0,0,0,2.09-2c.69-.67,1.36-1.57.86-2.4a3,3,0,0,0-2.67-1.88c-7.06.1-14.12.05-21.18,0a2.89,2.89,0,0,0-2.25,1c-4.3,4.32-8.59,8.65-13,12.9-.88.85-1,1.75-.26,2.37,5.29,4.26,4.49,10.15,4.42,15.86a25.41,25.41,0,0,0,.66,7.06c.87-1,1.82-2,2.6-3,3-4.18,7-5.61,12.15-5.18,5.31.45,10.69.09,16,.11,1.26,0,2.36.13,3-1.5.55-1.31,2.07-1.59,3.59-1.54,3.07.1,6.14,0,9.83,0-1.62-2-2.81-3.68-4.16-5.19-1-1.11-.92-1.74.18-2.86q11-11.17,21.73-22.57a6.27,6.27,0,0,1,5-2.15c9.31.09,18.61,0,27.92,0,1.25,0,2.74-.34,3.34,1.17s-.51,2.31-1.47,3.23q-8,7.65-15.86,15.4c-1.38,1.36-2.67,2.26-4.27.42s-.63-3.59.92-4.57c2.84-1.8,4.85-4.4,7.24-6.63.64-.59,1.9-1.22,1.17-2.29-.59-.87-1.11-2.06-2.6-2.05-5.14.06-10.27,0-15.4,0-1.26,0-1.85.94-2.58,1.68-6,6-11.82,12.08-18,17.88-2,1.87-1.4,3.07-.15,4.66q10.74,13.62,21.45,27.25,3.35,4.25,6.64,8.53c1,1.31,1.72,2.09,3.35.37,3.84-4,3.9-3.87.25-8.4q-7.38-9.15-14.57-18.44c-1.15-1.5-2.35-3.61-.48-5,1.68-1.28,3.4-.16,4.29,1.81a25.39,25.39,0,0,0,1.47,2.24c.18-5.33,3.3-4.48,5.93-4.51s5.09,0,8.16,0c-1.28-1.57-2.26-2.82-3.3-4-1.65-1.9-1.53-3.66.23-5.42q11-11,22-22a4.25,4.25,0,0,1,3.41-1.24h23.1c1.17,0,2.46-.19,3,1.22s-.61,2-1.33,2.67c-5.37,5.36-10.78,10.69-16.14,16.06-1.37,1.37-2.83,2.09-4.41.55s-.69-3,.53-4.25c2.55-2.59,5.15-5.14,7.75-7.67.73-.71,1.38-1.43.81-2.47a2.36,2.36,0,0,0-2.29-1.42c-3.1.07-6.21.06-9.31,0a3.26,3.26,0,0,0-2.42,1.35c-6.17,6.23-12.28,12.52-18.54,18.66-1.57,1.53-1.23,2.47-.08,4,9.18,11.65,18.26,23.39,27.49,35,.79,1,1.54,3.3,3.2,2.38a13.49,13.49,0,0,0,4.67-5.08c.26-.43-.54-.8-.86-1.2q-8.85-11-17.64-22.08c-1.12-1.42-1.24-3.21.07-4.34,1.52-1.3,2.71-.31,3.88,1.2,6.49,8.38,13.1,16.66,19.71,25,1.3,1.63,1.16,2.81-.39,4.26C339.9,280.82,336.75,284.13,333.15,287.74ZM65,258.93c3-3,5.23-5.28,7.39-7.64a4.87,4.87,0,0,1,4-1.63c7.05.06,14.1,0,21.16,0,1.35,0,3.13-.23,3.12,1.78s-1.34,3-3.35,3c-2.78,0-5.62.38-8.33-.07-9.31-1.53-16.5,1.52-22,9.14-1.1,1.52-2,2.73-2,4.75.14,6.09,0,12.18.07,18.27a25.58,25.58,0,0,0,.48,6.05c.61,2.42,2,3.66,4.51,3.66a65.92,65.92,0,0,1,9,.08c8,1.09,14.6-.93,19.3-7.88a11,11,0,0,1,2.32-2.2,6,6,0,0,0,2.43-5.5c-.23-4,0-8.13-.11-12.18a5.1,5.1,0,0,1,2.23-4.59c6.36-5.05,12.57-10.28,18.93-15.32a3,3,0,0,0,1.16-3.79c-1.92-6.21-3.71-12.46-5.58-18.68-1.06-3.52-1.92-3.82-4.76-1.31s-5.18,5.09-7.83,7.57c-1.67,1.56-3.08,4.4-6,1.56-.5-.49-1,.11-1.33.45-1.35,1.28-2.53.83-3.55-.39-1.17-1.41-.46-2.53.65-3.6,2.53-2.44,5-4.93,7.56-7.39.85-.83,1.77-1.63,1.13-3s-1.73-1.45-3-1.45H93.3c-6.09,0-12.89-1.65-18.08.53s-9,8.28-13.48,12.52c-1.53,1.44-2,2.5-.32,4.06,3.11,2.91,4,6.54,3.62,10.72C64.76,250.26,65,254.09,65,258.93Zm142.88,5.45c0-5.11-.27-10.24.08-15.33A16.69,16.69,0,0,0,204,236.73c-1.93-2.41-2.8-2.14-4.67-.27q-12.15,12.1-24.5,24c-1.41,1.36-2.73,4.53-5.34,2-2.8-2.75.58-4.13,2-5.54,11.31-11.2,22.73-22.29,34.09-33.44.84-.83,2.27-1.51,1.6-3.14s-2-1.63-3.48-1.63c-5.24,0-10.48,0-15.71,0a4.19,4.19,0,0,0-3.37,1.33q-9.85,10.08-19.86,20a4.65,4.65,0,0,0-1.43,3.68q.09,12,0,24a6.71,6.71,0,0,0,1.56,4.35c5.2,6.78,10.47,13.52,15.4,20.48,2,2.8,4.18,3.55,7.55,3.93,7.63.85,13.35-1.54,18-7.53,1.23-1.59,2.14-2.92,2.1-5-.18-6.57-.09-13.09-.09-19.61Zm4.82,14.19h.1c0,4.17-.23,8.36.07,12.51s1.74,5.21,5.75,5.24c5.67,0,11.34-.06,17,0a5.23,5.23,0,0,0,4.17-1.79c4.12-4.19,8.35-8.28,12.52-12.42.85-.84,1.91-2.08,3-1.31,2.35,1.7,3.3-.14,4.55-1.36,2.21-2.17,4.41-4.36,6.57-6.58,1.19-1.22,2.37-2.39,4-.8s.75,3-.59,4.3c-5.07,5.06-10.09,10.18-15.13,15.27-.84.83-1.81,1.64-1.31,3s1.78,1.65,3.15,1.64c4.07,0,8.17-.36,12.18.08,6.44.7,11.68-.78,15.51-6.32a16.27,16.27,0,0,1,3.7-3.52c2-1.55,2.06-2.82.4-4.86-5.75-7-11.83-13.89-16.73-21.49-4.65-7.22-10.3-10.36-18.7-8.86-2.1.37-4.45-.52-5.7,2.24-.52,1.15-2,.92-3.21.92H226c-.83,0-1.81-.36-2.46.35-5,5.49-13.11,9.19-10.94,18.9a22.19,22.19,0,0,1,.1,4.82Zm74-27.16c5.83,7.43,11.32,14.38,16.74,21.39,1,1.3,1.7,1.25,2.69.07s2.39-2.32,4-.71.57,3-.72,4.29c-5,5-9.92,10-14.87,15-.89.91-2,1.72-1.47,3.25s2.07,1.59,3.49,1.59h19.24a3.57,3.57,0,0,0,2.85-1.05c3.22-3.27,6.46-6.53,9.84-9.65,1.32-1.22,1-2,0-3.15q-11.72-14.82-23.34-29.73a3,3,0,0,0-2.67-1.37c-5.05.06-10.14,0-15.79,0Zm-128,1.37c-6.74,5.47-12.82,10.51-19,15.36a3.37,3.37,0,0,0-1.28,4.3c1.7,5.39,3.28,10.81,4.92,16.22,1.13,3.72,2,4,4.85,1.37,4.27-4,8.34-8.27,12.62-12.29,1.3-1.23,1.08-2.11,0-3.13-1.94-1.86-2.19-4.18-2.13-6.73.1-4.81,0-9.59,0-15.14Z"/>
  <path class="cls-2" d="M331.1,139.3c-13.68,4.78-27.35,9.59-41,14.31-.85.29-1.91,1.22-2.66.54s-.12-1.85.12-2.88c.68-3,.69-6.23,1.52-9.21,2.21-8,6.44-14.28,15-16.59a11.39,11.39,0,0,0,1.89-1,83.45,83.45,0,0,1-6.23-5.79c-1.83-2.06-3.52-1.63-5.42-.17-5.53,4.27-7.71,10.36-9.3,16.8-1.66,6.68-1.84,13.59-3.16,20.32-.35,1.83.18,2.47,2.28,1.71,10.64-3.85,21.35-7.53,32-11.28l8.27-3c1.59-.54,2.25,0,2.23,1.8-.08,9.2.32,18.41-.12,27.59C326,183.65,321.3,190,310.12,195c-9.7,4.35-19.62,3.73-29.66,3.83-1.63,0-2-.61-1.9-2,.09-2,0-4.06,0-6.43-2.75,1.6-3.72,4.42-5.44,6.53-1.05,1.29-1.86,2-3.56,2-16-.07-32.08-.05-48.13,0a3.56,3.56,0,0,1-3.33-1.7c-9.12-12.37-18.41-24.62-27.7-36.87a4,4,0,0,1-.92-2.93A159.92,159.92,0,0,1,191.27,141a8.18,8.18,0,0,0-.38-4.3l-26.1,29,.5.65c5.3-2.79,10.68-5.43,15.85-8.45,2.6-1.52,4-1.83,6,1.09,8.09,11.74,16.55,23.24,24.82,34.86,1,1.44,1.76,3.09,2.89,5.12H204.27c-1.2,0-1.72-.93-2.29-1.89-6.07-10.43-12.23-20.81-18.29-31.25-1.56-2.68-2.9-4.18-6.5-2.47-5.46,2.58-11.3,4.35-17.87,6.8,3.7-4.86,6.84-9,10-13.17,4.53-5.87,9.07-11.74,13.69-17.54.8-1,.61-1.57-.06-2.46-3.91-5.26-8.09-10.33-11.53-15.93a1.6,1.6,0,0,0-2.1-.85,1.27,1.27,0,0,0-.23.12c-7,2.88-11.28,8-11.8,15.5-1.38,20-.29,40-.64,60,0,2.12,1.07,2,2.58,2.17,9.36,1,18-2.31,26.87-4.39,3.05-.72,6.06-1.58,9.52-2.5-1.21,2.53-2.24,4.65-3.25,6.79A2.24,2.24,0,0,1,190,199c-12.62,0-25.24-.07-37.86,0-2.36,0-2.7-1.49-3.18-3.1-1.78-6-3.56-12-5.41-18.27-.91,4.09,0,9.65,2.48,15.61.52,1.26,1.09,2.5,1.53,3.79.18.54,1.4,1.19.11,1.75a1.21,1.21,0,0,1-1.56-.69v0a122.48,122.48,0,0,1-6.9-13.56c-4.4-10.77-2.31-22-2.88-33.06-.08-1.54.84-3.72-.54-4.44-1.2-.62-2.73,1.1-4.09,1.85-5.23,2.89-10.06,6.48-15.54,8.94l-.39-.43c4-2.84,8-5.67,12-8.55.82-.59,2-.94,2-2.29V119.67c-8.32,2.88-13,8.6-15.37,16.36-2.14,7-1.66,14.15-1.76,21.29,0,1.42.91,1.31,1.67,1.64h0c-2.8,2.27-1.23,5.33-1.11,7.92.27,6.12,1.14,12.22,1.75,18.33.39,3.89.67,7.79,1.15,11.67.2,1.61-.3,2-1.84,2-7.65.37-7.65.41-7.65-7.2,0-13.15.18-26.31-.08-39.46-.12-6.27-.11-12.4,1.88-18.44,1.8-5.46,5-9.56,10.39-11.66,5.11-2,10.43-3.46,15.48-5.59,2.55-1.07,2.4,0,2.4,1.78,0,7,.07,13.9-.06,20.85-.05,2.69.8,2.87,2.75,1.52.24-.16.59-.17.83-.34,2.06-1.45,3-1.29,2.93,1.58-.14,7.38.35,14.79-.17,22.13-.42,5.88,1.45,10.74,4.41,15.46.72,1.15,1.51,2.25,2.77,4.12v-3.47c0-18.5,0-37,0-55.5,0-2.85-.61-3.5-3.44-2.58-2.25.72-4.75.56-7.06,1.42-1,.39-1.77-.23-1.4-1.62a8.94,8.94,0,0,1,11-6.29l.14,0c1.31.35,1.26,1.3,1.39,2.21.49,3.34.92,6.69,1.38,10,.07.49-.21,1.11.39,1.41s1.08-.21,1.32-.6c4.24-7,11.94-8.21,18.52-11.4,3.26-1.58,4.39-.81,6.22,2,3.33,5.13,7.38,9.79,11.16,14.62a2,2,0,0,0,2.15,1.14c-.57-5.81-.73-11.66-3-17.2-.23-.55-1.52-1.08-.45-1.79.83-.55,1.62.11,2.18.8a36.86,36.86,0,0,1,7.1,14.34c1.75,6.8-.8,13.18-1.64,19.72-.35,2.71-1.11,5.36-1.55,8.06a3.15,3.15,0,0,0,.67,3c8.67,9,17.28,18,26.3,26.92-5.42-16.35-1.12-32.65,0-49.55l-17.43,9.88v-29c0-2,4.06-5.33,6-4.84,1.26.33.72,1.41.72,2.15.05,7.48.14,15,0,22.45-.06,3,.73,3,3,1.7s5-2.23,7.46-3.49c1.91-1,2.41-.39,2.4,1.55v21.17c0,8.2-.17,16.42,1,24.57.41,2.9.86,5.83,2.68,8.29l.23.44v-.52c-.13-9.76-.1-9.69,8.39-14.2,7.18-3.81,14.25-7.8,22.12-12.13-3.81-.21-6.25,1.3-8.83,2.29-6.26,2.42-12.57,4.72-18.78,7.26-2.35,1-3,.77-3-2,.11-16.25.05-32.51.05-48.76,0-4.57,0-4.56-4.44-3.92-3.19.46-6.38.89-9.66,1.35.15-.34.25-.53.33-.73,3.29-7.69,4.17-8.16,12.53-7.26,1.28.14,1.47.64,1.63,1.75.58,4,1.3,7.91,2,12.15,2.05-2,3.2-4.5,4.79-6.57,5.48-7.12,12.92-7.74,20.88-7.22,1.09.07,1.57,1,2.23,1.7,6.63,6.64,13.23,13.32,20.47,19.81,1.45-4.74,3-9.27,6-13.29a19.2,19.2,0,0,1,15.36-8.2c10.15-.33,20.31,0,30.47-.14,2.18,0,2.82.81,2.82,2.73,0,2.78.11,5.56.14,8.34,0,.77-.05,1.72.74,1.94,1,.28,1-.92,1.29-1.44,3.85-7,10-10.33,17.66-11.21,1.63-.19,2.3.31,2.17,2.07a62.3,62.3,0,0,0,0,6.41c0,1.9-.55,2.17-2.18,1.17-2.28-1.39-4.71-2.53-7-3.84a2.91,2.91,0,0,0-4.08.55,2.7,2.7,0,0,0-.22.33,24.43,24.43,0,0,0-4.82,19.12c1.73,12,7.31,22.31,14.36,32-2.76-.59-5.26-4-12.79-17.23.42,9.62.84,18.6,1.22,27.57.18,4.38.29,8.76.45,13.13,0,1-.27,1.61-1.42,1.58H333c-2.23,0-1.44-1.76-1.44-2.83-.06-12.3,0-24.6,0-36.9,0-6.63,0-13.26.07-19.88a6.94,6.94,0,0,0-.08-.77V120.45c0-1,.32-2.48-1.49-2-4.93,1.43-9.83,3-14.87,4.52,2.82,2.88,5.34,5.47,7.89,8l7.72,7.68ZM293,151.53l28-11.9c-3.24-3.31-6.12-6.29-9.05-9.24-5.31-5.33-6-5.34-11.54,0a26.8,26.8,0,0,0-2.87,3.42c-3.75,5.13-4.29,11.21-5,17.24-.1.16-.32.39-.28.47C292.46,151.86,292.75,151.74,293,151.53ZM318.33,148c.17-1.17-.11-1.58-1.37-1.06Q305,151.87,293,156.67c-5.8,2.34-11.62,4.64-17.91,7.15,1-8.17,2-15.79,3-23.81l-41.88,14.52c1.33-13.33,3.6-25.56,18.56-29.6-2.29-2.4-4.39-4.52-6.38-6.74-1.13-1.27-2.13-1.25-3.61-.55-6,2.83-9,7.77-9.82,14-1.66,12.45-.42,25-.8,37.48,0,1.8,1,1.55,2.05,1.25,3.49-1,7-1.94,10.48-2.89q11.31-3.07,22.64-6.12a7.09,7.09,0,0,1-2.39,2.23l-30.66,19.82c-1,.68-2.21,1.15-2.14,2.83.13,3.2,0,6.41,0,9.62,0,1.06.08,1.9,1.49,1.83,4.37-.2,8.83.66,13.11-.44,9.29-2.39,18.51-5.08,27.78-7.56,1.48-.39,2.09-1,2-2.59-.32-10.24,4.6-17.49,13.23-22.45,5.66-3.25,11-6.94,16.5-10.45,2.68-1.71,5.1-3.84,8.11-5,.64,1.4-.81,1.47-1.37,1.93q-7.81,6.38-15.77,12.6c-8.35,6.51-13.58,14.56-13.6,25.56,0,5.81-.29,5.82,5.31,6.45a44.57,44.57,0,0,1,5.42.51c5.74,1.36,10.39-1.2,15-3.91,5.09-3,7.62-7.59,8.2-13.36,1-9.91.28-19.86.57-29.79C320.32,147.19,319.1,148.21,318.33,148Zm-77,3.88,28.41-12.29c-4.4-4.48-8.66-8.78-12.86-13.12-1.08-1.12-1.88-.34-2.78.16-9.88,5.47-11.92,14.88-12.8,25.26Z"/>
  <path class="cls-2" d="M94.65,199c-1.07-1.7.59-2.76,1.14-3.92a30.84,30.84,0,0,0,2.46-12.32c.32-10.63.1-21.28.1-32.74-2.73,2.75-6.77,3-7.65,7.1A1.28,1.28,0,0,0,89,157c-6.77,5-13.56,10-20.51,15a23,23,0,0,0,9.79,2.74c11,.66,16.17-6.3,12.51-16.82a5,5,0,0,1-.15-.94,14.68,14.68,0,0,1,1.13,14.91C89.49,177,85,179,79.75,179.4a22,22,0,0,1-9.6-1c-2.14-.81-2.09.21-2.09,1.69,0,5.34-.19,10.7.09,16,.15,2.91-1.37,2.73-3.27,2.65s-3.66.6-3.64-2.68c.15-23.63.08-47.25.08-70.88,0-3.81,0-3.72-3.76-3-1.56.31-3.66,1.83-4.57.62s1.26-2.79,1.81-4.33a3.42,3.42,0,0,1,3.3-2.66c3.17-.27,3.91,1.26,4.2,3.83.36,3.19.87,6.36,1.32,9.59,10.4-10.78,23-14.42,37.41-13.17-.13,1.12-1.09,1.43-1.48,2.14-2.24,4.08-5.4,4.38-9.84,3.73-4.82-.71-10.14-2.78-14.79,1.48a18.94,18.94,0,0,0-6,11.52c-1.7,11.72-.37,23.53-.84,35.61,8.58-6.82,16.35-13.84,24.54-20.38a88.23,88.23,0,0,0,10.17-8.85c.41-.44.81-1,1.6-.82s.66,1,.65,1.58c0,13.36.14,26.73-.09,40.08-.14,7.45-3.9,13-10.28,16.86Z"/>
  <path class="cls-2" d="M276.76,59.35c-.52-22.76,18.82-42.15,42.56-41.3,21.89.79,40.76,18.57,40.19,42.52C359,82.75,341.1,100.38,318,100.93,295.32,101.43,276,81.66,276.76,59.35Zm67.36,0a25.93,25.93,0,0,0-51.85-.1c-.12,14,11.88,26.06,25.88,26.06a26.28,26.28,0,0,0,26-25.91Z"/>
  <path class="cls-2" d="M257.28,100.86c-6.62,0-13.3.58-19.83-.15a37.88,37.88,0,0,1-21.09-9.31c-6.59-5.84-11.51-12.84-13.43-21.64-2.74-12.56-1.19-24.19,6.72-34.81,8.51-11.44,19.83-16.82,33.88-16.86h31.76c1.77,0,2.66.05,2.89,2.41.36,3.61.12,7.25.63,10.8.33,2.33-.52,2.25-2.17,2.24-11.11,0-22.23-.13-33.35,0-10.26.12-18,4.83-22.95,13.78-9.61,17.31,3.76,38.11,23,38.06,10.91,0,21.81.06,32.72,0,2.38,0,3.46.41,3.24,3.09a53.38,53.38,0,0,0,0,9.29c.26,2.83-.84,3.32-3.4,3.24-6.19-.19-12.4-.06-18.6-.06Z"/>
  <path class="cls-2" d="M181.65,100.87c-6.41,0-12.85.35-19.23-.1a38.12,38.12,0,0,1-19.84-7.48,40.56,40.56,0,0,1-12.9-15.52,42,42,0,0,1-4.05-18.84A40.11,40.11,0,0,1,137.9,29.62a38.75,38.75,0,0,1,26.93-11.46c11.64-.32,23.3-.05,35-.11,1.66,0,2.51.22,2.52,2.19,0,3.6-.25,7.24.58,10.81.47,2-.31,2.5-2.31,2.49-10.8-.1-21.6,0-32.39,0-10.49,0-18.77,4.27-23.84,13.45-8.57,15.52.67,35.49,18.43,37.85,12.08,1.61,24.34.45,36.51.47,3.16,0,4,.81,3.74,3.86a65.46,65.46,0,0,0,0,9.29c.1,1.92-.38,2.56-2.43,2.51C194.27,100.77,188,100.87,181.65,100.87Z"/>
  <path class="cls-2" d="M89.83,70.71c-6.13.91-10.41-5.78-10.73-10.29-.5-8,5.25-12.86,12.35-12.26,5.68.48,10.67,5.33,10.61,11.3A11.31,11.31,0,0,1,90.75,70.75C90.44,70.75,90.14,70.74,89.83,70.71Z"/>
  <path class="cls-2" d="M105.1,100.83c-6.4,0-12.87.52-19.21-.13a36.82,36.82,0,0,1-22.14-9.77A45.43,45.43,0,0,1,53.4,77.41,41.16,41.16,0,0,1,49.66,56a40,40,0,0,1,14.1-28C72,20.79,81.43,18.09,92,18.07c10.37,0,20.75.09,31.11-.07,2.52,0,3.07.72,2.9,3-.25,3.28.75,6.52.67,9.84,0,2-.52,2.67-2.64,2.65-10.37-.11-20.75.13-31.11-.1-14.11-.31-25.17,8-27.69,22.08-1.94,10.79,3.59,22,15,27.47a26.77,26.77,0,0,0,11.7,2.36c10.8,0,21.6.06,32.39,0,2.09,0,2.78.55,2.68,2.66a100.32,100.32,0,0,0,0,10.26c.1,2-.45,2.74-2.61,2.69-6.41-.15-12.83,0-19.25,0Z"/>
</svg>
