<svg id="Layer_1" data-name="Layer 1" xmlns="http://www.w3.org/2000/svg" viewBox="0 0 409 424.67">
  <defs>
    <style>
      .cls-1 {
        fill: #fff;
      }

      .cls-2, .cls-3 {
        fill: none;
        stroke: #a0b4bb;
        stroke-miterlimit: 10;
      }

      .cls-3 {
        stroke-width: 0.5px;
      }

      .cls-4 {
        fill: #a0b4bb;
      }

      .cls-5 {
        fill: #c0171c;
      }
    </style>
  </defs>
  <rect class="cls-1" width="409" height="424.67"/>
  <polygon class="cls-2" points="20.67 359.3 200.25 49.37 388.33 359.3 20.67 359.3"/>
  <polyline class="cls-3" points="194.98 58.47 199.62 61.68 204.5 58.47"/>
  <polyline class="cls-3" points="183.74 77.87 188.37 80.58 199.74 75.06 199.62 61.68"/>
  <polyline class="cls-3" points="217.34 77.53 212.25 80.58 199.74 75.06"/>
  <polyline class="cls-3" points="172.59 97.11 177.43 100.32 189.22 94.06 188.37 80.58"/>
  <polyline class="cls-3" points="229.1 96.91 224.88 100.32 212.14 93.74 212.25 80.58"/>
  <polyline class="cls-3" points="240.8 116.18 235.71 119.1 223.82 111.99 224.88 100.32"/>
  <polyline class="cls-3" points="161.75 115.81 166.5 119.1 177.65 112.73 177.43 100.32"/>
  <polyline class="cls-3" points="212.14 93.74 200.89 100.32 189.22 94.06"/>
  <polyline class="cls-3" points="177.65 112.73 189.22 118.68 201.21 112.73 200.89 100.32"/>
  <polyline class="cls-3" points="223.82 111.99 212.78 119.1 201.21 112.73"/>
  <polyline class="cls-3" points="150.3 135.58 155.25 138.1 166.08 131.52 166.5 119.1"/>
  <polyline class="cls-3" points="251.82 134.35 247.7 137.57 235.39 131.42 235.71 119.1"/>
  <polyline class="cls-3" points="212.78 119.1 212.78 131.52 224.67 137.57 235.39 131.42"/>
  <polyline class="cls-3" points="166.08 131.52 178.71 137.57 189.85 131.52 189.22 118.68"/>
  <polyline class="cls-3" points="212.78 131.52 201.85 137.57 189.85 131.52"/>
  <line class="cls-3" x1="224.67" y1="137.57" x2="224.67" y2="209.99"/>
  <line class="cls-3" x1="247.7" y1="137.57" x2="247.7" y2="213.95"/>
  <line class="cls-3" x1="201.85" y1="137.57" x2="201.85" y2="214.52"/>
  <line class="cls-3" x1="178.71" y1="137.57" x2="178.71" y2="223.86"/>
  <line class="cls-3" x1="155.25" y1="138.1" x2="155.25" y2="204.33"/>
  <path class="cls-4" d="M208.54,258.44c-7.19,1.23-5.95,5.18-6.69,11.2s-4.4,6.95-6.87,0-8.11.46-8.88,4.87-2.36-19.15-2.36-19.15L201.32,251Z"/>
  <path class="cls-4" d="M110.26,300.47c10.86,5,11,10,15.27,17.64s9.17-7.93,13.29-4,11.37-.46,14.2,1.09-12-15.85-14.2-14.77S110.26,300.47,110.26,300.47Z"/>
  <path class="cls-4" d="M303.16,299.5c10.14,4.8-4.41,26.68,7.9,28.38s9.35-11.15,27.61-14.19,0-21.47,0-21.47Z"/>
  <path class="cls-4" d="M263.37,153.38c11,18.17-19.81,35.67-48.26,12.32s-31.51-24.2-48.87-20c11.73,5.52,9,5.95,9,5.95s-6.8-3-11,0c7.77,3.82,3.39,16.13-7.64,19.53s-17.41,24.62-11.47,28.87,27.49,37.51,7.8,48.4,24.47,14.43,47.82,0,69.63-17.41,79.82-1.28,3,29.72-4.67,36.94c17.4-8.07,30.56-19.1,25-34.39s7.65-25,7.65-25L297.73,210Z"/>
  <path class="cls-4" d="M145.69,186.49c-9.93,8.5-26.74,6.14-13-20.51l-27.79,48s25.79-1.1,38.71,6.37C159.61,229.59,145.69,186.49,145.69,186.49Z"/>
  <path class="cls-5" d="M43.81,326.06c-5.1.32-6.69-25.47,6.68-29.93s3.5-30.25-2.86-45.21S19.17,191.37,40.09,177s58.48-24.83,76-8.6,21.33,41.72,6.68,54.14-27.7,15.28-13.37,17.51,28,20.38,25.79,29.61-8.6,17.51-1.91,21.34,36,25.15,38.21,30.56-3.82,1.6-18.47-6.36-53.17-8.28-49.67-29S82,266.52,83.61,277s1.91,25.79-11.15,27.7S47.94,313.64,47,320.33,43.81,326.06,43.81,326.06Z"/>
  <path class="cls-1" d="M72.78,227.35c-7.64-16.24-5.73-35.34,8.6-34.71s18.47,12.1,12.42,18.79S72.78,227.35,72.78,227.35Z"/>
  <path class="cls-5" d="M147.61,227.35c-12.42-6.37-13.37-15-10.51-28s16.56-28,24.52-15.6,5.09,23.88-4.46,33.75Z"/>
  <path class="cls-5" d="M149.52,233.08c10.09.82,20.07-7,16.72,20.38s-4.3,46.17-1.75,53.18c-10.83-11.46-8,.95-15-18.79s-7.32-27.7-9.55-40.76S137.74,232.13,149.52,233.08Z"/>
  <path class="cls-5" d="M235.49,179.08c-23.56,9.11-43.94,1.78-51.9,7.83S171.43,198.06,171.94,206s3.37,20.06,1.78,41.39-.14,51.27-1.82,59.23c6.91-5.1,7.87-2.55,11-14.65s1.91-24.2,9.56-29.29,17.83-1.6,21-8,15-23.89,3.19-24.2-20.06,4.77-17.52-3.19,9.87-9.55,16.56-14.33,21-28.65,26.11-29.61c-11.46,4.46-11.46,2.87-11.46,2.87Z"/>
  <path class="cls-5" d="M218.93,223.21c14.65-16.24,27.39-34.39,50.95-41.71s28.66-4.78,28.66-4.78-13.06,21.66-10.83,29.3,6.05,10.51-15,11.46c-7,1.28-16.24,45.85-21.34,59.55s-7,27.7-19.42,29.61-23.24,4.14-23.24,4.14,18.78-7,24.2-19.11,10.82-58.9,12.73-66.55-10.82-.32-16.87-.63A57.18,57.18,0,0,1,218.93,223.21Z"/>
  <path class="cls-5" d="M342.16,221.62c13.38-7.64,19.11,2.87,20.06-2.86s4.46-20.41-10-26.13S318,202.2,326.24,215.57,361.27,235,368,245.5s16.24,38.21-6.05,61.14-58.27-14.33-74.19-10.51-32.48,15.28-43.62,14.65c18.47-15.6,23.88-37.58,34.39-39.49s14-3,28-1.65,44.26,18.53,39.48-1.85-18.46-12.74-33.43-27.7-27.38-20.06-14-50.63,42.67-27.38,52.54-25.79,34.39,9.55,35,31.2-9.23,42.43-21,37.77A204.08,204.08,0,0,1,342.16,221.62Z"/>
</svg>
