<?xml version="1.0" encoding="utf-8"?>
<!-- Generator: Adobe Illustrator 25.0.0, SVG Export Plug-In . SVG Version: 6.00 Build 0)  -->
<svg version="1.1" id="Layer_1" xmlns="http://www.w3.org/2000/svg" xmlns:xlink="http://www.w3.org/1999/xlink" x="0px" y="0px"
	 viewBox="0 0 132 101" style="enable-background:new 0 0 132 101;" xml:space="preserve">
<style type="text/css">
	.st0{fill:#484848;}
</style>
<path class="st0" d="M1,49c1.9-2.2,3.4-4.9,7.5-6c37.4,0,75.8,0,114.3,0c5.1,0,9.6,4.3,9.2,9c-0.3,4-3.9,7.3-7.7,8c-0.5,0-1,0-1.5,0
	H8.4C4.5,58.9,3,56.2,1,54V49z"/>
<path class="st0" d="M123.5,60H9.2c-5.1,0-9.6-4.3-9.2-9c0.4-4,4-7.3,7.7-8c0.5,0,1,0,1.5,0h114.4"/>
<path class="st0" d="M1,6c1.9-2.2,3.4-4.9,7.5-6c37.4,0,75.8,0,114.3,0c5.1,0,9.6,4.3,9.2,9c-0.3,4-3.9,7.3-7.7,8c-0.5,0-1,0-1.5,0
	H8.4C4.5,15.9,3,13.2,1,11V6z"/>
<path class="st0" d="M123.5,17c-37.4,0-75.8,0-114.3,0C4.1,17-0.4,12.7,0,8c0.4-4,4-7.3,7.7-8c0.5,0,1,0,1.5,0h114.4"/>
<path class="st0" d="M1,90c1.9-2.2,3.4-4.9,7.5-6c37.4,0,75.8,0,114.3,0c5.1,0,9.6,4.3,9.2,9c-0.3,4-3.9,7.3-7.7,8c-0.5,0-1,0-1.5,0
	H8.4C4.5,99.8,3,97.2,1,95V90z"/>
<path class="st0" d="M123.5,101c-37.4,0-75.8,0-114.3,0c-5.1,0-9.6-4.3-9.2-9c0.4-4,4-7.3,7.7-8c0.5,0,1,0,1.5,0h114.4"/>
</svg>
