<?xml version="1.0" encoding="utf-8"?>
<!-- Generator: Adobe Illustrator 25.0.0, SVG Export Plug-In . SVG Version: 6.00 Build 0)  -->
<svg version="1.1" id="Layer_1" xmlns="http://www.w3.org/2000/svg" xmlns:xlink="http://www.w3.org/1999/xlink" x="0px" y="0px"
	 viewBox="0 0 97.5 150.8" style="enable-background:new 0 0 97.5 150.8;" xml:space="preserve">
<style type="text/css">
	.st0{fill:#FFFFFF;}
</style>
<path class="st0" d="M0,24v-8C1.3,5.9,6,1.3,16,0h8c6,0.4,10.3,3.7,14.4,7.8c16.9,17.1,33.7,34.1,50.9,50.8c7.7,7.5,9.3,16.1,7.4,26
	c-0.7,3.4-2.9,6-5.3,8.3c-17.1,17.3-34.4,34.4-51.5,51.6c-6.9,6.9-15.2,7.2-23.7,4.8c-8-2.3-12-8.8-13.2-16.7
	c-1.3-8.1,2.5-14.6,7.9-20.1c9-9.3,18.3-18.4,27.5-27.6c1.3-1.3,2.6-2.6,3.9-3.9c3.7-3.9,3.8-4.3,0.1-8C36.3,66.8,30,60.5,23.7,54.3
	C18.4,49,13.3,43.6,7.8,38.4C3.6,34.4,0.4,30,0,24z"/>
</svg>
